<svg xmlns="http://www.w3.org/2000/svg" width="200" height="200" viewBox="0 0 200 200"><defs><style>.a{fill:#b3b2b1;}.b{fill:#003da6;}.c{fill:#dd0031;}.d{fill:#fff;}.e{fill:none;mix-blend-mode:multiply;isolation:isolate;}</style></defs><g transform="translate(-712.023 -959.316)"><path class="a" d="M890.674,1059.143a78.825,78.825,0,1,1-78.826-78.826,78.837,78.837,0,0,1,78.826,78.826" transform="translate(0 0)"/><g transform="translate(735.06 982.355)"><path class="b" d="M888.637,1059.144a76.788,76.788,0,1,1-76.788-76.789,76.786,76.786,0,0,1,76.788,76.789" transform="translate(-735.06 -982.355)"/><g transform="translate(10.184 10.232)"><path class="c" d="M878.356,1059.143A66.556,66.556,0,1,1,811.8,992.587a66.552,66.552,0,0,1,66.555,66.556" transform="translate(-745.244 -992.587)"/><path class="d" d="M811.848,992.587a66.556,66.556,0,1,0,66.557,66.556,66.657,66.657,0,0,0-66.557-66.556M749.157,1061.1H761.4v-3.919H749.157c.054-1.469.109-2.938.272-4.408,4.354-21.877,30.639-38.692,62.42-38.692,31.727,0,58.067,16.87,62.42,38.692.164,1.47.218,2.939.273,4.408h-12.3v3.919h12.244c-.054,1.469-.109,2.939-.272,4.408-4.354,21.822-30.693,38.692-62.42,38.692s-58.067-16.87-62.42-38.692c-.109-1.469-.164-2.939-.218-4.408m62.692-64.651a62.766,62.766,0,0,1,58.448,40c-11.156-15.238-33.142-25.686-58.448-25.686s-47.291,10.394-58.448,25.686a62.713,62.713,0,0,1,58.448-40m0,125.438a62.769,62.769,0,0,1-58.448-40c11.157,15.237,33.142,25.686,58.448,25.686s47.292-10.394,58.448-25.686a62.9,62.9,0,0,1-58.448,40" transform="translate(-745.244 -992.587)"/><g transform="translate(25.733 45.898)"><g transform="translate(0 22.162)"><rect class="d" width="4.171" height="18.816" transform="translate(15.809 0.049)"/><path class="d" d="M795.581,1053.448h-.145c-1.164,0-5.48-.049-6.3,0h-.194a2.042,2.042,0,0,0-2.28,1.7,1.369,1.369,0,0,0-.048.291,20.617,20.617,0,0,0,.048,4.559,4.2,4.2,0,0,0,3.056,2.57c.048,0,.1.048.145.048.1,0,.146.049.242.1a.749.749,0,0,1,.291.194v6.789h-3.443v2.522h4.559a3.024,3.024,0,0,0,3.055-1.94c.1-.921.145-7.225.048-8.535a1.644,1.644,0,0,0-.727-1.26,4.126,4.126,0,0,0-.679-.437c-.242-.145-.533-.242-.776-.388-.97-.485-2.085-1.018-2.085-2.279v-1.067h3.3a1.694,1.694,0,0,0,1.551-.97,4.343,4.343,0,0,0,.34-.97,4.156,4.156,0,0,0,0-.776Z" transform="translate(-763.721 -1053.399)"/><path class="d" d="M814.785,1053.448a12.051,12.051,0,0,0-2.716.242c-2.036.485-3.055,1.843-3.055,4.219v11.2c0,2.861,2.037,3.443,5.141,3.443,3.734,0,5.867-1.31,5.867-3.637V1057.23c0-3.782-2.424-3.782-5.237-3.782m-1.406,4.267a3.787,3.787,0,0,1,.145-1.164l.1-.048a2.381,2.381,0,0,1,.582-.048h.1c1.406,0,1.455.436,1.455,3.006V1068a2.48,2.48,0,0,1-.1.631l-.1.1a3.705,3.705,0,0,1-.727.048,1.47,1.47,0,0,1-1.116-.339,2.267,2.267,0,0,1-.339-1.6v-9.117" transform="translate(-763.721 -1053.399)"/><path class="d" d="M829.721,1061.449c-1.988-7.274-5.237-8.05-6.546-8.05a4,4,0,0,0-.582.049l-.1.048v18.816h4.267v-7.565l2.958,7.565h4.316V1053.5h-4.316v7.953Z" transform="translate(-763.721 -1053.399)"/><path class="d" d="M774.438,1053.448H763.721v.145a2.792,2.792,0,0,0,2.376,2.765v15.954h4.364v-8H774.1c1.94,0,3.055-1.261,3.055-3.492v-.679c-.048-5.334-.242-6.4-2.715-6.692m-1.7,8.389h-2.377v-5.479a14.245,14.245,0,0,1,1.455,0c.485.048.873.242.873.824.049.145.049,4.655.049,4.655" transform="translate(-763.721 -1053.399)"/><path class="d" d="M807.705,1053.5h-9.8v2.959h2.813v15.906h4.316v-15.906h.145a2.531,2.531,0,0,0,1.843-.679,3.236,3.236,0,0,0,.727-2.134Z" transform="translate(-763.721 -1053.399)"/><path class="d" d="M845.482,1053.448h-.145c-1.164,0-5.48-.049-6.3,0h-.194a2.041,2.041,0,0,0-2.279,1.7,1.369,1.369,0,0,0-.048.291,20.617,20.617,0,0,0,.048,4.559,4.2,4.2,0,0,0,3.055,2.57c.049,0,.1.048.146.048.1,0,.145.049.242.1a.749.749,0,0,1,.291.194v6.789H836.85v2.522h4.558a3.024,3.024,0,0,0,3.056-1.94c.1-.921.145-7.225.048-8.535a1.644,1.644,0,0,0-.727-1.26,4.126,4.126,0,0,0-.679-.437c-.243-.145-.534-.242-.776-.388-.97-.485-2.085-1.018-2.085-2.279v-1.067h3.3a1.7,1.7,0,0,0,1.552-.97,4.343,4.343,0,0,0,.34-.97,4.156,4.156,0,0,0,0-.776Z" transform="translate(-763.721 -1053.399)"/></g><g transform="translate(0.762)"><path class="d" d="M806.978,1041.809h.727c.679,0,1.891.243,1.891,1.5,0,.581.049,2.473.1,3.2v.291c0,.1.049,1.019.1,1.213a2.582,2.582,0,0,0,2.473,1.891h1.213v-6.692a3.3,3.3,0,0,0-.776-1.94l-.1-.1a3.594,3.594,0,0,0,.921-2.667v-.679c0-5.189-.194-6.256-2.618-6.5h-8.148v18.38h4.171v-7.905Zm0-7.662h.824c1.115,0,1.5,0,1.455,1.94,0,1.552,0,1.649-.049,2.376v.146a.923.923,0,0,1-.242.63.441.441,0,0,1-.34.146h-1.7v-5.238Z" transform="translate(-764.483 -1031.237)"/><path class="d" d="M832.97,1031.237H828.9v18.379h4.074Z" transform="translate(-764.483 -1031.237)"/><path class="d" d="M793.739,1049.665h4.219v-15.518h.145a2.409,2.409,0,0,0,1.794-.679,3.073,3.073,0,0,0,.728-2.085v-.146h-9.6v2.91h2.716Z" transform="translate(-764.483 -1031.237)"/><path class="d" d="M837.868,1049.665h4.219v-15.518h.146a2.409,2.409,0,0,0,1.794-.679,3.073,3.073,0,0,0,.728-2.085v-.146h-9.6v2.91h2.715v15.518Z" transform="translate(-764.483 -1031.237)"/><path class="d" d="M788.792,1046.707h-4.413v-4.51h3.007v-3.977h-3.007V1034.1h4.413v-2.861h-8.487l-.048,18.379h8.535Z" transform="translate(-764.483 -1031.237)"/><path class="d" d="M774.971,1031.237H764.5v.1a2.61,2.61,0,0,0,.534,1.892,2.708,2.708,0,0,0,1.94.873v15.469h7.807c1.8,0,2.958-1.5,2.958-3.782v-8.535c0-4.656,0-5.917-2.764-6.014m-1.455,15.47h-2.327v-12.56c1.455-.048,1.745.049,1.794.1.533.194.533,1.212.533,1.261.1,1.406,0,10.038,0,11.2" transform="translate(-764.483 -1031.237)"/><path class="d" d="M821.429,1031.237a12.312,12.312,0,0,0-2.716.243c-2.037.485-3.007,1.843-3.007,4.122v10.96c0,2.812,2.037,3.394,5.092,3.394,3.686,0,5.82-1.309,5.82-3.54v-11.444c.048-3.735-2.377-3.735-5.189-3.735m-1.358,4.171a3.787,3.787,0,0,1,.145-1.164l.1-.048a2.335,2.335,0,0,1,.582-.049h.1c1.407,0,1.455.437,1.455,2.958v8.39a2.434,2.434,0,0,1-.1.63l-.1.049a3.7,3.7,0,0,1-.727.048,1.47,1.47,0,0,1-1.116-.339,2.194,2.194,0,0,1-.339-1.552v-8.923" transform="translate(-764.483 -1031.237)"/></g></g></g></g></g><path class="e" d="M0,0H200V200H0Z"/></svg>