<svg xmlns="http://www.w3.org/2000/svg" width="200" height="200" viewBox="0 0 200 200"><defs><style>.a{fill:#ffb81c;}.b{fill:#6f263d;}.c{fill:#041e42;}.d{fill:#fff;}.e{fill:none;mix-blend-mode:multiply;isolation:isolate;}</style></defs><g transform="translate(-1629.48 -646.029)"><path class="a" d="M1725.949,824.352c-.534-.291-13.191-7.662-25.848-22.55a105.579,105.579,0,0,1-25.653-69.056v-7.274c.048-6.692.291-19.737.824-28.466.1-1.795.242-3.347.339-4.559l.291-2.813,2.231-1.745a51.779,51.779,0,0,1,8.2-5.044c2.327-1.212,4.995-2.424,7.9-3.685,14.985-7.129,33.025-13.385,33.219-13.433l1.746-.631,1.745.582c.194.049,20.417,6.983,35.838,14.6a82.442,82.442,0,0,1,9.8,5.043,43.908,43.908,0,0,1,3.685,2.522l2.231,1.746.291,2.813c.048.582.1,1.26.194,2.036.63,8.293.97,23.423,1.018,30.988v7.323a105.836,105.836,0,0,1-25.653,69.056c-12.706,14.936-25.314,22.21-25.848,22.55l-3.3,1.842Z"/><path class="b" d="M1729.2,666.212l.533.194.873.291c.194.048,20.465,7.031,35.692,14.548a84.249,84.249,0,0,1,9.7,4.995,39.368,39.368,0,0,1,3.637,2.473l1.309,1.018.582.437.049.727.145,1.649c.049.582.1,1.212.194,1.988.63,8.244.97,23.326,1.018,30.94v7.274a104.623,104.623,0,0,1-25.411,68.377c-12.511,14.742-25.071,22.016-25.556,22.307l-1.891,1.067-.825.485-.824-.485-1.892-1.067c-.533-.291-13.044-7.565-25.556-22.307a104.731,104.731,0,0,1-25.411-68.377v-7.323c.048-6.692.291-19.737.824-28.417.1-1.795.243-3.3.34-4.51l.1-1.6.1-.727.582-.437,1.309-1.018a55.417,55.417,0,0,1,8-4.946c2.279-1.164,4.946-2.425,7.856-3.637,14.936-7.081,32.927-13.336,33.121-13.433l.873-.291.534-.194m0-2.183-.679.243-.534.194-.873.291c-.145.048-18.379,6.4-33.315,13.481-2.861,1.213-5.577,2.473-7.905,3.686a56.005,56.005,0,0,0-8.341,5.14l-1.309,1.019-.582.436-.679.534-.1.872-.1.728-.145,1.649c-.146,1.26-.243,2.812-.34,4.607-.533,8.729-.776,21.822-.824,28.514v2.183h0V732.7c0,32.443,14.112,55.817,25.9,69.735,12.754,15.033,25.6,22.453,26.138,22.744l1.891,1.067.825.485,1.018.582,1.019-.582.824-.485,1.891-1.067c.534-.291,13.336-7.711,26.139-22.744a106.685,106.685,0,0,0,25.9-69.735v-7.274c-.049-7.613-.388-22.792-1.019-31.085-.048-.776-.145-1.454-.194-2.036l-.145-1.649-.1-.728-.1-.872-.679-.534-.582-.436-1.309-1.019a42.491,42.491,0,0,0-3.783-2.618,92.779,92.779,0,0,0-9.941-5.141c-15.179-7.468-35.013-14.306-35.886-14.6l-.873-.291-.533-.194Z"/><path d="M1781.184,728.139v4.607a103.184,103.184,0,0,1-25.023,67.31c-12.367,14.548-24.636,21.628-25.121,21.919l-1.891,1.067-1.891-1.067c-.534-.291-12.8-7.419-25.12-21.919a103.184,103.184,0,0,1-25.023-67.31V725.52c.048-6.643.291-19.688.824-28.32.1-1.746.243-3.25.34-4.462l.145-1.649,1.309-1.018a52.09,52.09,0,0,1,7.76-4.8c2.279-1.164,4.9-2.376,7.759-3.637,14.79-7.032,32.83-13.288,32.976-13.385l.873-.291.873.291c.194.049,20.319,6.984,35.5,14.452a95.091,95.091,0,0,1,9.554,4.9,30.257,30.257,0,0,1,3.443,2.376l1.309,1.018.146,1.649c.048.582.1,1.261.194,1.988.63,8.2.97,23.229,1.018,30.794v2.716Z"/><path class="a" d="M1723.524,755.878c.485-.534,1.067-1.067,1.649-1.6l-.049,7.032h0l-.1,9.941c-5.868,1.795-8.632,2.086-10.62,1.6l-.243-.1a1.019,1.019,0,0,1-.678-.873c-.146-3.88,6.643-12.318,10.038-16m12.026,1.5c-.1.194,21.58-12.463,21.58-12.463V740.6l-1.066-1.067c-5.82-5.528-14.5-5.577-23.278-3.2V691.186c0-2.958.049-5.819-.194-8.438a21.774,21.774,0,0,0-1.939-7.662l-1.455-3.006-1.407,3.055a25.551,25.551,0,0,0-1.988,7.953c-.242,2.667-.242,5.528-.291,8.486l-.194,47.331a91.249,91.249,0,0,0-21.822,12.851l-4.9,7.565,6.062-1.5c-9.311,11.688-6.014,19.35-5.626,20.174.97,2.764,3.249,4.947,6.838,6.4a20.3,20.3,0,0,0,8.583,1.116,41.313,41.313,0,0,0,10.427-2.037v1.5a15.129,15.129,0,0,0-6.79,8.05,14.254,14.254,0,0,0-.872,4.316c0,.243,0,1.067-.1,2.231a19.368,19.368,0,0,1-.631,3.734l-.242.776-.776,1.891c.1.34,2.231-.388,3.2-.776a5.354,5.354,0,0,0,.679-.291,10.193,10.193,0,0,0,2.037-1.551,9.66,9.66,0,0,0,1.309-1.552c.388-.485.679-.97,1.019-1.407.436-.581.824-1.163,1.212-1.745l.049,5.043v4.219a8.247,8.247,0,0,0-.534.824,17.257,17.257,0,0,0-1.649,4.995c-.048.34,1.019.291,2.571.243a8.018,8.018,0,0,0,.873-.1,17.463,17.463,0,0,0,2.618-.582c1.746-.533,4.51-1.794,4.9-4.559l.146-1.018-.291-.194c3.685-3.249,4.7-6.789,4.558-9.7a13.784,13.784,0,0,0-.436-2.715l1.309.242,1.552.291.291-1.552c.921-5.334-2.085-9.8-8.147-10.669v-3.1a70.476,70.476,0,0,0,15.857-10.329l.194-.194,1.746-8.875-3.443,1.891c-5.528,2.425-10.572,4.365-14.4,5.723V748.458a27.636,27.636,0,0,1,3.152-1.6c2.813-1.213,4.656-1.649,5.529-1.552a21.723,21.723,0,0,1-1.164,2.716c.048.1-4.462,9.02-4.656,9.359"/><path class="c" d="M1755.821,744.239l-.048-2.813-14.209,8.681c-.1.242-1.94,3.831-2.134,4.025Z"/><path class="c" d="M1702.429,756.9c1.552-.388,3.3-.824,5.043-1.212.97-1.164,1.94-2.183,2.813-3.055-1.794.388-3.734.872-5.674,1.309-.339.485-1.94,2.667-2.182,2.958"/><path class="c" d="M1731.331,776.876c-.727.339-1.5.679-2.23,1.018-.485.194-.97.437-1.407.631-.339.145-.679.242-.97.387a42.877,42.877,0,0,1-13.239,3.1,19.751,19.751,0,0,1-7.9-1.018,11.206,11.206,0,0,1-4.85-3.395c.776,2.231,2.619,4.171,5.965,5.528a19.754,19.754,0,0,0,7.9,1.019,42.073,42.073,0,0,0,12.123-2.667c.34-.1.679-.243.97-.34.485-.194.97-.388,1.407-.582.727-.291,1.5-.63,2.23-.97a71.746,71.746,0,0,0,16.44-10.523l.824-3.879a72.247,72.247,0,0,1-17.264,11.687"/><path class="b" d="M1731.331,743.948c6.79-3.734,15.955-5.674,10.475,4.995l13.288-8.147c-5.723-5.431-14.743-5.043-23.763-2.231v5.383Z"/><path class="b" d="M1731.331,771.008c-.824.291-1.551.533-2.23.776-.534.194-1.019.339-1.407.485a6.7,6.7,0,0,1-.97.291c-.339.1-.533.145-.533.145-24.975,7.759-16.973-8.438-5.577-20.61a50.7,50.7,0,0,1,6.3-5.48l.049-6.546a89.671,89.671,0,0,0-22.307,12.9c2.861-.776,5.77-1.406,8.632-2.085-24.781,23.714-10.427,36.225,13.335,26.72.34-.145.631-.291.97-.436.485-.194.922-.388,1.407-.631.727-.339,1.5-.679,2.23-1.067a81.989,81.989,0,0,0,16.634-11.1,174.036,174.036,0,0,1-16.537,6.644"/><path class="c" d="M1734.338,743.512a22.593,22.593,0,0,0-3.007,1.551v-53.78c.049-5.819.146-11.105-1.939-15.372-2.134,4.7-2.086,9.989-2.134,15.809l-.243,48.4-.048,6.547v1.261a43.409,43.409,0,0,0-5.577,4.946c-3.2,3.443-10.62,12.463-10.475,17.167a3.537,3.537,0,0,0,1.164,2.667,2.387,2.387,0,0,1-.048-.582c-.1-4.7,7.274-13.724,10.523-17.167a40.062,40.062,0,0,1,4.413-4.025l-.1,9.214h0l-.1,10.766a8.071,8.071,0,0,1,.97-.291l.048-11.251h0l.049-9.117v-4.17l.048-6.207.1-15.955.049-40.008c.242.437,1.115,2.134,1.164,8.244l-.049,47.282v18.816h0l-.048,11.881c.679-.242,1.406-.485,2.23-.776v-13h0v-8.535a35.028,35.028,0,0,1,4.122-2.183c2.959-1.26,5.48-2.036,6.838-1.6.243-3.3-3.346-2.473-7.953-.533"/><path class="a" d="M1729.1,758.205Z"/><path class="a" d="M1729.1,758.205Z"/><path class="c" d="M1738.315,792.588c-5.286-1.455-11.494-.146-14.306,3.249-1.164,1.406-2.231,3.492-4.268,5.577a28.48,28.48,0,0,0,.485-4.316,11.331,11.331,0,0,1,6.741-9.6.937.937,0,0,0,.145.485,1.4,1.4,0,0,0,.922.582c.388.048-.243-.1,0,0,.048,0,.145.048.194.048h.727a.293.293,0,0,0,.194-.048h.049a.29.29,0,0,0,.194-.049h0c.145-.048.242-.1.388-.145a1.672,1.672,0,0,0,.969-.679h0a.361.361,0,0,0,.1-.194,5.5,5.5,0,0,1,3.444,2.037,12.4,12.4,0,0,0-10.039,4.607,15.1,15.1,0,0,1,13.094-2.764c.1-1.989-2.619-4.122-4.122-4.947,2.715.97,5.625,3.346,5.092,6.159M1734,803.79c1.406-2.958,1.794-8.1-1.407-10.426h1.116c3.2,2.619,1.745,9.262.291,10.426m-3.637,2.716a18.019,18.019,0,0,0,.824-12.463c3.637.533,4.849,8.438-.824,12.463m-1.6,1.455c0,.582-1.212.582-1.212.145l.048-13.627a4.455,4.455,0,0,1,1.261-.533Zm2.57-22.938V781.24c-.727.34-1.5.631-2.23.97v3.928c0,.922-1.5,1.067-1.455.388v-3.734a8.286,8.286,0,0,1-1.019.34l-.048,2.958-.194.145a13.445,13.445,0,0,0-6.644,7.371c0,.049-.048.1-.048.146a12.783,12.783,0,0,0-.776,3.831,24.58,24.58,0,0,1-.825,6.3s.776-.1,2.28-1.552a26.85,26.85,0,0,0,2.182-2.715c1.358-1.892,2.473-3.783,4.073-4.607v1.7c0,3.2.049,11.881.049,11.93a7.393,7.393,0,0,0-1.552,3.976c0,.1,6.741-.388,7.177-3.879,0,0-1.309-.873-1.261-.873,9.457-6.6,4.219-14.452,4.219-14.452,2.28.34,3.589.534,4.171.679.873-4.849-1.988-8.777-8.1-9.068"/><path d="M1779,741.475s-41.85-23.811-100.14,0c-.34-5.286,3.491-50.434,3.491-50.434h94.807Z"/><path class="d" d="M1760.913,707.82h-6.159c.1.533.146.824.243,1.358v6.789c0,4.51,0,9.02.048,13.578,1.261.1,1.94.146,3.2.291.194,0,.291.049.436.049v-8.729c.388-.243.582-.34.97-.582.921,1.406,1.358,2.134,2.279,3.54v6.062c1.455.145,2.183.242,3.637.388V723c-1.018-1.407-1.988-2.813-3.006-4.219,1.212-.776,1.794-1.164,3.006-1.94v-5.674c-1.26-1.358-1.939-1.988-3.2-3.3h-1.455Zm-2.279,8.68v-4.995h.436c.922,0,1.358,0,2.279.049a3.983,3.983,0,0,1,.437.485v3.3c-1.261.873-1.891,1.31-3.2,2.183a7.433,7.433,0,0,0,.049-1.019"/><path class="d" d="M1753.4,711.408V707.82h-8.486c.1.533.145.776.242,1.309,0,6.595.049,13.142.049,19.737,2.764.146,5.48.34,8.244.534v-3.589c-1.843-.1-2.764-.145-4.559-.242v-6.4c1.455.048,2.183.1,3.637.145v-3.152c-1.454-.049-2.182-.049-3.637-.1v-4.656c1.746-.048,2.668-.048,4.51,0"/><path class="d" d="M1738.994,707.82c.1.533.145.776.242,1.309v19.543c1.455.049,2.182.049,3.637.146v-19.64a12.081,12.081,0,0,0,.194-1.31h-4.073Z"/><path class="d" d="M1705.144,729.448c-1.066-7.225-2.133-14.4-3.152-21.628h-5.964c.1.582.145.824.242,1.406-1.018,7.129-2.037,14.257-3.007,21.386,1.455-.145,2.183-.242,3.637-.388.243-1.794.34-2.667.582-4.461.679-.049,1.019-.1,1.746-.146.679-.048,1.019-.1,1.746-.145.194,1.746.339,2.57.533,4.316,1.455-.194,2.183-.243,3.637-.34m-7.177-7.516c.437-3.4.873-6.838,1.31-10.233.436,3.346.824,6.741,1.261,10.087-1.067.049-1.552.1-2.571.146"/><path class="d" d="M1727.112,728.478c-1.066-6.886-2.133-13.772-3.2-20.707h-5.965c.1.534.145.776.242,1.31-1.018,6.546-1.988,13.142-3.006,19.688,1.455-.048,2.182-.1,3.637-.145.242-1.649.339-2.473.533-4.122.679,0,1.019-.049,1.746-.049.679,0,1.018,0,1.746-.048.242,1.649.339,2.473.533,4.073,1.552.049,2.28,0,3.734,0m-7.225-7.419c.436-3.2.873-6.353,1.261-9.554.436,3.153.824,6.353,1.26,9.505-.969,0-1.5,0-2.521.049"/><path class="d" d="M1712.516,707.82c-.776,5.819-1.552,11.687-2.328,17.506-.776-5.819-1.5-11.687-2.231-17.506h-3.637c.873,6.256,1.7,12.56,2.57,18.816.825,1.018,1.213,1.551,2.037,2.521l4.025-.242c1.067-7.032,2.134-14.064,3.249-21.144h-3.685v.049Z"/><path class="d" d="M1692.148,713.542v-2.376c-1.261-1.309-1.891-1.988-3.2-3.346h-3.879c-1.261,1.406-1.94,2.085-3.2,3.54v20.755c1.261,1.213,1.891,1.843,3.2,3.007,1.552-.242,2.328-.388,3.879-.582,1.261-1.552,1.892-2.328,3.2-3.782v-6.741c-1.212,1.358-2.473,2.764-3.637,4.17v2.037a4.282,4.282,0,0,0-.437.534c-.824.1-1.212.145-2.036.291a3.753,3.753,0,0,1-.437-.437V712.281a3.982,3.982,0,0,0,.437-.485c.824,0,1.212-.048,2.036-.048a3.992,3.992,0,0,1,.437.485v5.334c1.212-1.358,2.425-2.716,3.637-4.025"/><path class="d" d="M1777.353,717.858v-6.5c-1.261-1.455-1.94-2.134-3.2-3.54h-4.122c-1.261,1.358-1.891,2.037-3.2,3.346v6.886c2.328,2.085,4.607,4.171,6.838,6.353v6.207a3.666,3.666,0,0,0-.436.437c-.922-.146-1.358-.194-2.28-.291-.194-.243-.291-.34-.436-.534v-3.491l-3.637-2.716v6.741s1.94,2.23,3.2,3.782c1.116.146,1.649.243,2.716.437.534.1.824.145,1.358.242,1.261-1.164,1.891-1.794,3.2-3.007v-9.359c-2.231-2.182-4.51-4.316-6.838-6.45v-4.122a3.9,3.9,0,0,0,.436-.485c.922,0,1.358.049,2.28.049a4.058,4.058,0,0,1,.436.485v2.861s2.231,1.552,3.686,2.667"/><path class="d" d="M1728.034,707.82a9.7,9.7,0,0,1,.436,1.067v19.64c2.813,0,5.626.048,8.487.1.291-1.358.388-2.085.679-3.443-1.843-.049-3.686-.049-5.48-.1v-16.2a9.866,9.866,0,0,0,.436-1.067Z"/><path class="d" d="M1753.687,695.211l-1.5-1.5h-3.443v10.281h3.54l1.406-1.407v-7.371Zm-1.746,6.886-.193.194h-1.31v-6.837h1.261l.194.194V702.1Z"/><path class="d" d="M1720.032,695.454v-1.7H1716.1l.1.63v9.6h3.831v-1.7H1717.9v-3.1h1.746v-1.5H1717.9v-2.231Z"/><path class="d" d="M1731.186,703.989v-1.7h-2.134v-3.1h1.7v-1.5h-1.7v-2.231h2.134v-1.7h-3.977l.146.63v9.6Z"/><path class="d" d="M1732.059,698.46v5.528h3.928l.339-1.7h-2.57v-7.9l.1-.63h-1.94l.146.63v4.074Z"/><path class="d" d="M1711.158,698.46v5.528h3.976l.291-1.7h-2.57v-7.9l.1-.63h-1.891l.1.63v4.074Z"/><path class="d" d="M1738.848,702h1.649l.242,2.036h1.7l-1.5-10.281h-2.764l.1.631-1.406,9.65h1.7Zm.824-6.45.582,4.7h-1.212Z"/><path class="d" d="M1722.505,693.756h-1.7l1.212,8.971.97,1.261h1.891l1.5-10.232h-1.746l-1.067,8.438Z"/><path class="d" d="M1744.813,698.46h0l1.6,5.528h1.6V693.756h-1.746l.048,5.237-1.649-5.237h-1.7l.1.63v9.6h1.746Z"/><path class="d" d="M1710.382,696.278v-1.067l-1.5-1.5h-1.794l-1.5,1.5v7.323l1.5,1.455h1.794l1.5-1.455V699.77l-1.7,1.746v.582l-.194.194h-.97l-.243-.194v-6.45l.243-.194h.97l.194.194v2.376Z"/></g><rect class="e" width="200" height="200"/></svg>