<svg xmlns="http://www.w3.org/2000/svg" width="200" height="200" viewBox="0 0 200 200"><defs><style>.a{fill:#fff;}.b{fill:none;mix-blend-mode:multiply;isolation:isolate;}</style></defs><g transform="translate(-694 -925)"><g transform="translate(-15.607 278.996)"><path d="M766.754,814.124a4.849,4.849,0,0,0-1.622-.875,3.758,3.758,0,0,0,1.89-2.253,6.808,6.808,0,0,0,.233-2.092v-4.522a5.691,5.691,0,0,0-1.127-3.709,4.783,4.783,0,0,0-3.76-1.426l-6.078.007a.463.463,0,0,0-.463.465v29.773a.461.461,0,0,0,.463.461h6.188a6.327,6.327,0,0,0,4.2-1.38c1.428-1.3,1.582-2.847,1.629-4.61v-5.1c0-1.526,0-3.428-1.556-4.739m-7.891.69h1.623c2.125.09,3.937.313,4.6,2.128a5.862,5.862,0,0,1,.233,1.88v4.215c0,2.01-.132,2.952-.944,3.589a4.067,4.067,0,0,1-2.473.587h-3.036Zm5.432-6.216c-.017.929-.057,2.648-2.02,3.241a6.532,6.532,0,0,1-1.894.235h-1.563V801.953h2.137l.136,0c1.26.041,2.566.078,3.017,1.216a8.677,8.677,0,0,1,.2,1.6v3.558c0,.074-.005.163-.008.265"/><path d="M778.585,815.2a2.884,2.884,0,0,0,.647-.244,4.948,4.948,0,0,0,3.147-3.4,10.3,10.3,0,0,0,.183-2.01v-4.674c-.006-.058-.008-.13-.011-.219a5.3,5.3,0,0,0-1.816-4.249,7.092,7.092,0,0,0-4.5-1.147h-5.779a.462.462,0,0,0-.461.464V829.49a.463.463,0,0,0,.461.463h2.069a.461.461,0,0,0,.459-.463V815.444h2.466l5.324,14.21a.471.471,0,0,0,.437.3h2.208a.465.465,0,0,0,.463-.463.451.451,0,0,0-.078-.258Zm.853-9.742v4.634a2.235,2.235,0,0,1-1.5,2.434,4.949,4.949,0,0,1-1.619.224h-3.335V801.953h3.422a3.839,3.839,0,0,1,1.922.36c1.026.583,1.071,1.884,1.11,3.141"/><path d="M795.022,800.1a6.745,6.745,0,0,0-4.063-1.186l-.141,0c-2.926,0-5.169,1.459-5.995,3.9a11.167,11.167,0,0,0-.468,3.137l0,.046c-.007.135-.012.234-.02.32v16.821c.044,1.667.087,3.556,1.415,5.219a6.624,6.624,0,0,0,5,1.98c3.625,0,5.141-1.959,5.625-2.8a7.775,7.775,0,0,0,.951-4.118v-16.45c0-2.4,0-5.125-2.3-6.87m-7.741,5.747a3.959,3.959,0,0,1,1.515-3.59,3.776,3.776,0,0,1,2.029-.56,3.664,3.664,0,0,1,1.778.417,2.434,2.434,0,0,1,1.144,1.187c.56,1.084.664,2.472.664,4.8v14.505c-.04,1.623-.08,3.3-1.5,4.314a3.67,3.67,0,0,1-5.314-1.378,10.507,10.507,0,0,1-.316-3.229V805.849Z"/><path d="M809.807,800.1a6.746,6.746,0,0,0-4.062-1.186l-.14,0c-2.93,0-5.172,1.458-6,3.9a11.3,11.3,0,0,0-.467,3.137l0,.031c-.005.142-.01.246-.018.335v16.818a8.016,8.016,0,0,0,1.412,5.22,6.622,6.622,0,0,0,5,1.982c3.62,0,5.138-1.959,5.622-2.8a7.7,7.7,0,0,0,.954-4.121V806.971c0-2.4,0-5.124-2.3-6.869m-7.739,5.747a3.948,3.948,0,0,1,1.513-3.59,3.986,3.986,0,0,1,3.8-.143,2.45,2.45,0,0,1,1.145,1.187c.561,1.084.664,2.468.664,4.8v14.505c-.04,1.623-.078,3.3-1.5,4.314a3.668,3.668,0,0,1-5.312-1.378,10.448,10.448,0,0,1-.314-3.228V805.849Z"/><path d="M820.206,811.418l6.232-11.671a.465.465,0,0,0-.409-.682h-2.32a.461.461,0,0,0-.413.255l-6.545,12.864V799.531a.464.464,0,0,0-.466-.467h-2.066a.468.468,0,0,0-.467.467V829.3a.468.468,0,0,0,.467.463h2.028a.466.466,0,0,0,.462-.463V818.114l1.643-3.1,5.091,14.441a.459.459,0,0,0,.437.31h2.246a.465.465,0,0,0,.464-.463.439.439,0,0,0-.076-.254Z"/><path d="M838.095,827.171h-7.3V799.718a.464.464,0,0,0-.463-.465h-2.061a.467.467,0,0,0-.468.465v29.774a.465.465,0,0,0,.468.46h9.823a.465.465,0,0,0,.463-.46v-1.857a.465.465,0,0,0-.463-.464"/><path d="M849.225,799.253h-2.277a.46.46,0,0,0-.438.316l-4.289,12.7-4.322-12.7a.462.462,0,0,0-.438-.316h-2.194a.47.47,0,0,0-.38.2.462.462,0,0,0-.055.422l5.834,16.54v13.08a.465.465,0,0,0,.464.463h2.022a.469.469,0,0,0,.467-.463V816.413l6.044-16.539a.463.463,0,0,0-.438-.621"/><path d="M862.914,799.253h-2.027a.459.459,0,0,0-.328.137.468.468,0,0,0-.136.33l.169,21.732c.021.563.03,1.106.044,1.765,0,.336.008.678.016,1.019l-6.147-24.63a.464.464,0,0,0-.447-.353h-3.039a.464.464,0,0,0-.46.465v29.773a.463.463,0,0,0,.46.463H853a.444.444,0,0,0,.328-.137.47.47,0,0,0,.135-.331l-.126-21.168v-2.807L859.3,829.6a.466.466,0,0,0,.452.35h3.164a.466.466,0,0,0,.462-.463V799.718a.466.466,0,0,0-.461-.465"/><path d="M873.569,678.707c.012-1.359.012-2.125.012-2.125v-1.67l-1.509-.759C871.011,673.615,845.641,661,810.417,661h-1.636c-35.2,0-60.592,12.611-61.652,13.149l-1.509.759v1.67s0,.764.011,2.041c-.284,15,1.555,53.068,24.842,82.65,18.886,24,36.585,29.574,38.539,30.128l.762.218.755-.213c.76-.214,18.791-5.478,38.2-30.133,23.309-29.59,25.142-67.617,24.844-82.566"/><path class="a" d="M847.053,759.955c22.8-28.96,24.6-66.264,24.3-80.956.017-1.365.017-2.121.017-2.126v-.552l-.5-.25c-1.038-.527-25.876-12.872-60.457-12.872h-1.627c-34.556,0-59.413,12.345-60.456,12.872l-.5.25v.552c0,.005,0,.76.014,2.043-.284,14.74,1.517,52.09,24.309,81.039,18.417,23.41,35.487,28.789,37.373,29.32l.252.072.249-.067c.732-.2,18.1-5.282,37.027-29.325m-37.278,27.59c-1.439-.406-18.29-5.591-36.393-28.608-23.855-30.3-23.962-69.98-23.782-79.324-.015-1.312-.015-2.054-.015-2.054s.026-.011.075-.037v-.08l.536-.248c1.263-.579,4.087-1.814,8.18-3.284a149.5,149.5,0,0,1,50.419-8.946H810.4a149.445,149.445,0,0,1,50.343,8.916c4.133,1.482,6.988,2.732,8.262,3.313l.533.244v.085c.05.026.076.037.076.037s0,.742-.015,2.054c.184,9.344.089,49.022-23.781,79.324-18.15,23.061-34.667,28.227-36.045,28.608"/><path class="a" d="M781.582,673.053c-1.587.319-2.356.485-3.911.846a.661.661,0,0,0-.514.654l.323,29.008c0,1.927.052,3.693.129,5.279-3.919-10.023-8-20.4-12.166-30.9a.665.665,0,0,0-.827-.386c-2.315.766-3.437,1.163-5.712,2.022a.665.665,0,0,0-.432.622v39.876a.665.665,0,0,0,.287.546.648.648,0,0,0,.379.117.665.665,0,0,0,.235-.041c1.407-.532,2.114-.789,3.609-1.308a.664.664,0,0,0,.446-.632q-.081-14.148-.158-28.3c0-2.483-.03-3.87-.109-5.627,4.091,10.409,8.072,20.6,11.858,30.348a.657.657,0,0,0,.779.405c2.428-.6,3.616-.865,6.047-1.356a.664.664,0,0,0,.532-.651V673.705a.662.662,0,0,0-.243-.515.653.653,0,0,0-.552-.137m26.4-2.858a145.681,145.681,0,0,0-20.65,1.819.661.661,0,0,0-.561.654v39.876a.668.668,0,0,0,.664.665.625.625,0,0,0,.106-.009,144.833,144.833,0,0,1,20.381-1.8.664.664,0,0,0,.651-.665v-2.484a.669.669,0,0,0-.2-.475.692.692,0,0,0-.477-.191,120.93,120.93,0,0,0-15.869,1.141V692.952a118.084,118.084,0,0,1,13.018-1.072.666.666,0,0,0,.638-.664v-2.43a.672.672,0,0,0-.2-.479.65.65,0,0,0-.485-.184,120.036,120.036,0,0,0-12.886,1.05V675.149a118.237,118.237,0,0,1,15.891-1.139.666.666,0,0,0,.653-.665v-2.486a.666.666,0,0,0-.675-.664m28.654,2.31a146.141,146.141,0,0,0-24.592-2.378.667.667,0,0,0-.672.665v2.542a.664.664,0,0,0,.657.664c3.852.043,5.833.13,9.481.419V711.2a.662.662,0,0,0,.61.662c1.606.131,2.394.208,4.009.384.025,0,.05,0,.072,0a.668.668,0,0,0,.445-.17.658.658,0,0,0,.22-.493V674.934c3.659.409,5.67.713,9.528,1.419a.662.662,0,0,0,.547-.141.668.668,0,0,0,.239-.511v-2.542a.664.664,0,0,0-.544-.654m17.073,23.781c-8.484-8.769-9.457-10.188-9.457-13.8,0-3.569,1.564-4.05,3.091-4.05a10.846,10.846,0,0,1,2.907.49c6.133,1.762,6.133,5.108,6.133,7.59v3.56a.667.667,0,0,0,.451.629c1.485.5,2.225.766,3.774,1.34a.662.662,0,0,0,.611-.076.669.669,0,0,0,.282-.547v-2.978c0-3.757,0-10.044-10.967-13.191-7.669-2.2-11.583.152-11.583,6.808,0,5.529,3.389,8.839,9,14.321l1.134,1.109c6.662,6.532,8.01,8.69,8.01,12.824a5.572,5.572,0,0,1-.685,3.175,2.654,2.654,0,0,1-2.369.968,12.638,12.638,0,0,1-3.347-.579,13.169,13.169,0,0,1-6.286-3.4c-1.532-1.726-1.532-3.192-1.532-6.11v-3.161a.665.665,0,0,0-.518-.648c-1.638-.367-2.421-.534-4-.842a.666.666,0,0,0-.792.652v5.592c0,5.258,4.3,9.267,12.439,11.589a22.179,22.179,0,0,0,5.9.99c6.377,0,6.377-5.14,6.377-7.335,0-5.779-2.942-9.091-8.582-14.921"/><path class="a" d="M834.442,743.6a6.068,6.068,0,0,0,1.083-1.525c2.093-4.02.218-8.526-.569-10.093a29.828,29.828,0,0,0-28.288-14.17c11.873.643,23.373,11.265,27.774,25.788m-38.813-11.786c2.864,1.2,6.619,3.215,10.592,5.352,6.273,3.367,12.752,6.854,17.14,7.946,3.908.968,7.12.879,9.375-.251-.01-.042-.017-.087-.027-.128-.033-.161-.066-.318-.109-.479-1.907-7.992-11.9-25.488-29.228-25.488-.727,0-1.47.043-2.21.1a29.389,29.389,0,0,0-15.943,11.373,8.238,8.238,0,0,1,2.583-.383,21.1,21.1,0,0,1,7.827,1.953m-4.31,24.119c7.035,2.321,10.942,3.063,16.073,3.063,1.871,0,4-.106,6.706-.331a62.475,62.475,0,0,0,19.665-5.19,37.274,37.274,0,0,0-.561-6.234,8.253,8.253,0,0,1-4.44,1.121A32.518,32.518,0,0,1,821.4,747.2c-4.1-.972-9.946-4.457-15.108-7.531-2.832-1.688-5.51-3.281-7.719-4.372-8.428-4.17-13.218-3.586-14.49-3.31a29.228,29.228,0,0,0-4.132,16.952c.568.811,3.445,4.388,11.373,7m44.457-3.592c.075-.051.149-.1.216-.151a8.422,8.422,0,0,0,3.228-5.013,29.4,29.4,0,0,0-.9-7.149c-.023-.1-.054-.188-.08-.282a9.728,9.728,0,0,1-3.216,6.045,29.17,29.17,0,0,1,.753,6.55m.72,1.621-.306.221c-.161.12-.325.242-.505.363a26.254,26.254,0,0,1-1.025,5.551c.937-.328,1.26.05,1.349.267.012.03.02.062.03.092A29.252,29.252,0,0,0,839,750.751a7.246,7.246,0,0,1-2.508,3.213m-1.136,7.358c-.027-.118-.051-.124-.115-.124a1.5,1.5,0,0,0-.714.314c-.073.052-.153.106-.234.158s-.143.093-.206.14a26.668,26.668,0,0,1-2.842,5.473,29.582,29.582,0,0,0,4.2-5.727h-.041Zm-30.4,12.5a26.72,26.72,0,0,0,9.381-2.859c.469-.23.923-.465,1.38-.7.388-.2.775-.4,1.168-.6,2.709-1.421,5.61-2.96,9.131-4.846,1.243-.667,2.478-1.372,3.675-2.056l1.4-.781c.544-.291,1.056-.566,1.568-.879l.173-.107a28.087,28.087,0,0,0,.875-5.324c-3.456,1.731-8.648,3.253-16.268,4.78a47.261,47.261,0,0,1-27.81-2.525c-5.725-2.411-8.438-5.751-9.568-7.589a29.335,29.335,0,0,0,13.11,21.354l-.03-.05.842.5a10.728,10.728,0,0,0,2.513,1.035,19.242,19.242,0,0,0,5.61.83,24.364,24.364,0,0,0,2.847-.178m26.99-10.506c-.382.271-.77.549-1.192.842-1.117.777-2.207,1.436-3.365,2.131-.541.326-1.1.659-1.671,1.017a60.776,60.776,0,0,1-13.812,6.739,29.656,29.656,0,0,1-4.164,1,23.777,23.777,0,0,1-3.523.271H804a24.516,24.516,0,0,1-4.363-.411,29.817,29.817,0,0,0,26.369-3.2,19.761,19.761,0,0,0,6.119-8.51l-.176.124"/><path class="a" d="M821.292,753.175c0-2.16,0-5.373-2.552-7.863a8.243,8.243,0,0,0,.687-1.578,10.937,10.937,0,0,0,.442-3.618l-.012-5.948v-.09a9.723,9.723,0,0,0-2.208-6.578,9.106,9.106,0,0,0-7.062-2.789l-8.075.022a3.377,3.377,0,0,0-3.387,3.372l.076,39.066a3.3,3.3,0,0,0,1.587,2.837,3.548,3.548,0,0,0,1.83.513l8.212-.012a10.982,10.982,0,0,0,7.385-2.52l.028-.018c2.708-2.429,3-5.292,3.067-8.03v-.033Z"/><path d="M819.2,753.44c0-2.182,0-4.852-2.275-6.741a6.367,6.367,0,0,0-1.721-1.009,5.428,5.428,0,0,0,2.178-2.913,9.586,9.586,0,0,0,.333-2.98l-.019-6.208a7.927,7.927,0,0,0-1.637-5.261,7.02,7.02,0,0,0-5.456-2.054l-8.418.021a.981.981,0,0,0-.679.284.905.905,0,0,0-.277.665l.072,40.763a.94.94,0,0,0,.459.809.982.982,0,0,0,.533.154l8.564-.024a9.138,9.138,0,0,0,6.026-1.99c2.059-1.869,2.272-4.069,2.333-6.542ZM813.252,763.8c-.6.432-1.336.683-3.215.747l-3.473.008c-.294,0-.408-.173-.408-.451,0-2.378-.033-15.477-.033-15.588a.252.252,0,0,1,.282-.287c.241,0,1.62-.014,1.62-.014a10.146,10.146,0,0,1,4.661.95,3.312,3.312,0,0,1,1.417,1.744,7.97,7.97,0,0,1,.3,2.463l.012,5.777c0,2.634-.16,3.873-1.166,4.651m-2.837-20.282a8.5,8.5,0,0,1-2.536.308l-1.5.005c-.257.01-.326-.114-.326-.313,0-.119-.019-12.553-.019-12.553,0-.2.076-.323.284-.344h2.507a6.88,6.88,0,0,1,3.141.562,1.612,1.612,0,0,1,.719.851,9.85,9.85,0,0,1,.279,2.125l.015,4.863a2.4,2.4,0,0,0-.015.367c-.034,1.258-.061,3.384-2.55,4.129"/></g></g><rect class="b" width="200" height="200"/></svg>