<svg xmlns="http://www.w3.org/2000/svg" width="200" height="200" viewBox="0 0 200 200"><defs><style>.a{fill:#ef3340;}.b{fill:#00a3e0;}.c{fill:#41748d;}.d{fill:none;mix-blend-mode:multiply;isolation:isolate;}</style></defs><g transform="translate(-734.232 -1196.141)"><path class="a" d="M841.944,1305.623c5.087-6.883,12.053-16.309,18.547-24.762l.049-.061c11.687-13.92,19.13-20.746,28.444-26.083a58.963,58.963,0,0,1,9.317-4.188,62.843,62.843,0,0,0-14.1,5.757q-1.439.825-2.842,1.71c-8.676,5.149-16.122,10.87-27.291,25.141-.093.119-.215.278-.3.4q-7.917,10.776-15.842,21.545l.976,4.656C839.78,1308.551,840.806,1307.162,841.944,1305.623Zm-28.913,15.6q1.524-1.248,3.109-2.42l-3.507-16.629-2.122,6.941Zm6.047,15.135a3.144,3.144,0,0,0-.678,1.522c-.006.046-.01.093-.012.139a17.882,17.882,0,0,1-.8,4.684c-.016.045-.038.095-.056.14l-1.306-6.271,6.78,32.57,2.928-3.9-6.273-29.734Zm52.006-31.844-6.072,8.166-19.753,62.9,32.822.01,3.588-3.586H850.2l20.882-67.49Zm-93,72.6c-8.556,4.01-17.482,4.506-21.372,4.783-1.589.114-3.152.162-4.7.174,5.846-4.573,10.476-9.038,13.558-15.369a43.313,43.313,0,0,0,2.477-5.8c1.109-3.221,12.144-38.893,20-64.351a31.076,31.076,0,0,0-2.284,2.905,44.127,44.127,0,0,0-5.05,8.557l-.152.494c-.024.062-.045.13-.067.193l-.6,1.94v0l-.631,2.043c-1.04,3.372-2.1,6.813-3.141,10.16l-.508,1.641-.024-.024c-5.765,18.575-10.5,33.763-11.166,35.773-3.9,11.848-12.434,17.491-23.2,25.607,3.85.069,8,.157,11.965-.161,5.508-.438,21.114-1.39,31.468-12.106q.6-.6,1.173-1.227a38.92,38.92,0,0,0,2.792-3.508c-.317.387-.642.77-.978,1.143A31.992,31.992,0,0,1,778.088,1377.117Z"/><path class="b" d="M813.994,1383.507c-.1-.019-6.857-1.378-9.435-18.649-1.536-10.292-1.444-13.684-1.82-16.728a18.013,18.013,0,0,0-2.068-6.813l.629-2.057,0,0,9.214-30.142,2.122-6.941,3.507,16.629q-1.584,1.172-3.108,2.42c-2.23,1.823-3.943,3.393-4.781,4.066a12.529,12.529,0,0,1-3.333,2.128l-.947,3.1a13.456,13.456,0,0,0,5.811-3.57c2.178-2,2.986-2.523,5.81-4.972a47.073,47.073,0,0,1,4.218-3.284l-6.535-30.979s-18.153,59.4-18.238,59.693c-.953,3.278-3.852,13.256-10.07,20.165-1.9,2.108-7.3,8.111-22.473,10.166a45.815,45.815,0,0,0,8.971-15.655c1.232-3.576,14.025-44.963,21.886-70.438a38.2,38.2,0,0,0-5.3,4.91c-7.86,25.457-18.895,61.129-20,64.35a43.262,43.262,0,0,1-2.477,5.8c-3.082,6.331-7.713,10.8-13.559,15.369q2.353-.011,4.7-.174c3.891-.276,12.817-.773,21.372-4.783a31.961,31.961,0,0,0,9.565-7.129c.337-.373.661-.756.979-1.143,6.091-7.414,8.916-17.129,9.875-20.431.081-.277.149-.512.2-.694l.828-2.711a14.309,14.309,0,0,1,.669,3.432s.669,6.273,1.651,15.077c2.378,21.321,11.957,21.717,15.848,22.587A12.92,12.92,0,0,1,813.994,1383.507Zm105.551-136.55a64.675,64.675,0,0,0-21.243,3.573,59.079,59.079,0,0,0-9.317,4.189c-9.314,5.337-16.758,12.162-28.444,26.082l-.049.061c-6.494,8.453-13.461,17.879-18.547,24.762-1.138,1.54-2.164,2.928-3.046,4.116l-.976-4.655-6.866-32.744c-1.161.015-2.379.088-3.647.22L837,1318.276l2.4-3.157c1.112-1.466,3.03-4.061,5.459-7.347,5.072-6.863,12.016-16.258,18.483-24.677,11.366-13.536,18.552-20.144,27.432-25.232a59.028,59.028,0,0,1,27.719-7.282c-7.47,6.922-12.99,16.3-16.807,28.529l-23.508,75.712a43.771,43.771,0,0,0-1.5,6.388,22.557,22.557,0,0,0,.033,7.18H855.1l25.668-82.963-52.953,71.225-5.3-25.121q-1.473,1.953-2.855,3.974l6.273,29.734,39.076-52.558,6.072-8.166L850.2,1372.005h31.467c-.649-1.652-.737-1.933-.905-2.436a16.162,16.162,0,0,1-.513-7.88,40.463,40.463,0,0,1,1.378-5.824l23.5-75.68c4.184-13.4,10.468-23.151,19.211-29.808q1.8-1.41,3.641-2.754a75.362,75.362,0,0,0-8.436-.665Z"/><path class="c" d="M816.046,1335.695a5.426,5.426,0,0,1,.4-.691l.005-.008a88.563,88.563,0,0,1,5.456-7.294l.749-.861.116-.133.058-.067c4.126-4.753,7.685-8.813,10.485-9.752-.04-.012-.083-.014-.123-.024-.561-.07-2.564-.034-6.317,2.9a71.2,71.2,0,0,0-6.823,6.849,81.427,81.427,0,0,0-5.483,7.129,4.788,4.788,0,0,0-1.171,2.5,19.405,19.405,0,0,1-.611,4.288,26.494,26.494,0,0,1-2.074,3.508,3.686,3.686,0,0,0-.633,2.545c.024.692-.115,9.888.146,20.118a40.84,40.84,0,0,0,3.767,16.8h-.005a13.111,13.111,0,0,0,3.711,2.6c-1.832-3.2-4.895-12.4-5.076-19.462-.189-7.374-.031-13.809-.1-17.592q-.02-1.247-.05-2.491l-.006-.216c-.015-.348-.015-.45.327-1.109.039-.063.072-.112.125-.192a21.609,21.609,0,0,0,2.115-3.68,17.865,17.865,0,0,0,.736-4.682c0-.039.005-.086.012-.14a3,3,0,0,1,.255-.847Z"/><path class="b" d="M776.129,1322.849c-11.775-13.357-16.053-32.348-10.056-48.924q-1.567.061-3.04.143a49.241,49.241,0,0,0-2.453,16.982c0,.029.02.488.02.488.657,13.571,7.544,25.407,15,32.928l.016.016q.264-.815.516-1.633Z"/><path class="c" d="M876.543,1238.247l-28.107,5.071,28.193-5.077s-28.309,10.364-34.538,12.718a8.952,8.952,0,0,0-6.079,8.214l12.164-.739c9.363-.587,12.506,1.963,12.506,1.963l-21.96,2.35-6.97,6.775c-17.833-.141-56.4,14.343-52.483,43.167l.63-2.042,0-.006.6-1.94c.023-.063.043-.13.067-.192l.152-.495.806-2.611c.216-.682.433-1.356.632-1.958a33.084,33.084,0,0,1,2.508-6.362c4.778-9.2,14.47-15.173,21.5-18.432a70.431,70.431,0,0,1,21.244-6.092q1.816-.193,3.646-.22c.144,0,.294-.009.437-.009l1.4.01,7.523-7.356,26.562-2.857c-1.007-1.1-6.021-5.982-15.921-6.18-.969-.019-1.993.034-3.043.1l-8.269.505a5.669,5.669,0,0,1,3.343-3.4c6.143-2.322,38.94-14.383,39.223-14.487l2.631-2.568-8.394,2.152Z"/><path class="a" d="M769.275,1291.37a43.428,43.428,0,0,0,1.324,8.854c-.8-10.419,1.016-19.194,4.765-26.411q-1.469-.023-2.937-.02A39.55,39.55,0,0,0,769.275,1291.37Zm48.117-43.037c-.281.006-.564.009-.843.018-12.328.385-23.748,3.712-31.934,9.893a41.573,41.573,0,0,0-3.733,3.181,40.931,40.931,0,0,0-3.961,4.593q2.184-.367,4.287-.64C789.854,1255.739,802.9,1250.176,817.392,1248.333Z"/><path d="M848.177,1258.435l-12.164.739a8.952,8.952,0,0,1,6.079-8.214c6.228-2.354,34.538-12.718,34.538-12.718l-28.193,5.077-6.079,1.095a50.56,50.56,0,0,0-8.731.436,27.528,27.528,0,0,0-6.851-2.331q-1.034-.25-2.081-.436a121.415,121.415,0,0,0-19.9-29.922c-2.777,8.21,1.138,13.715-4.276,25.018a13.829,13.829,0,0,1-2.383,3.757c-4.682,5.151-7.279,5.756-12.029,8.954a48.461,48.461,0,0,0-17.205,17.77q3.977-.965,8.013-1.643a41.146,41.146,0,0,1,3.962-4.593,41.74,41.74,0,0,1,3.732-3.181c8.186-6.18,19.606-9.508,31.934-9.893.28-.009.562-.012.844-.017-14.492,1.843-27.538,7.405-36.184,17.043a96.425,96.425,0,0,1,24.5-.321,71.877,71.877,0,0,0-11.148,5.2,60.166,60.166,0,0,0-6.39,4.252q-6.387-.6-12.808-.693c-3.749,7.217-5.563,15.992-4.764,26.411a43.5,43.5,0,0,1-1.325-8.854,39.56,39.56,0,0,1,3.152-17.577c-2.222.005-4.343.054-6.353.132-6,16.576-1.72,35.567,10.056,48.924,1.036-3.347,2.1-6.788,3.141-10.16-3.914-28.823,34.65-43.307,52.483-43.166l6.969-6.775,21.96-2.35s-3.141-2.55-12.5-1.963Zm-40.519-35.53c-.009-.132-.009-.477-.014-.821a136.325,136.325,0,0,1,11.307,18.337,44.375,44.375,0,0,0-17.08,3.619A31.65,31.65,0,0,0,807.658,1222.905Zm25.256,36.457-5.308.324s1.1-4.412,8.112-6.741C835.718,1252.945,833.514,1254.214,832.914,1259.362Z"/><path class="b" d="M807.643,1222.084c.006.343.005.689.014.821a31.649,31.649,0,0,1-5.788,21.136,44.329,44.329,0,0,1,17.08-3.619A136.194,136.194,0,0,0,807.643,1222.084Z"/><path class="c" d="M827.606,1259.687l5.308-.324c.6-5.149,2.8-6.417,2.8-6.417C828.708,1255.274,827.606,1259.687,827.606,1259.687Zm-55.179,14.106c.961,0,1.942.006,2.937.02,4.036.061,8.337.267,12.808.693a60.166,60.166,0,0,1,6.39-4.252c-13.256-.578-31.078.087-48.084,5.619a140.153,140.153,0,0,1,16.555-1.8q1.471-.082,3.04-.144C768.084,1273.847,770.205,1273.8,772.427,1273.793Z"/><path class="b" d="M794.562,1270.255a71.8,71.8,0,0,1,11.148-5.2,96.341,96.341,0,0,0-24.5.321,115.631,115.631,0,0,0-12.3,2.283,48.446,48.446,0,0,1,17.2-17.77c4.75-3.2,7.346-3.8,12.028-8.954a13.8,13.8,0,0,0,2.383-3.757c5.415-11.3,1.5-16.808,4.276-25.018a121.445,121.445,0,0,1,19.9,29.922q1.047.186,2.081.436a27.528,27.528,0,0,1,6.851,2.331,50.55,50.55,0,0,1,8.731-.436l6.079-1.095,28.106-5.071,8.4-2.15,2.763-2.662-45.552,8.16a55.552,55.552,0,0,0-8.072.358,30.206,30.206,0,0,0-6.871-2.215c-.179-.038-.358-.081-.537-.122a121.746,121.746,0,0,0-19.666-29.153,37.2,37.2,0,0,0-3.647-3.323,40.964,40.964,0,0,0-1.4,4.3,46.3,46.3,0,0,0-1.215,11.695c.077,3.219-.336,8.723-2.911,13.247-1.757,2.963-4.428,5.446-8.454,8.166-.317.2-.637.4-.967.623a87.027,87.027,0,0,0-7.981,5.084,45.341,45.341,0,0,0-15.2,18.373,102.609,102.609,0,0,0-18.778,7.254l.026-.005C763.484,1270.341,781.306,1269.676,794.562,1270.255Z"/><path d="M817.589,1342.7a17.9,17.9,0,0,0,.8-4.684c0-.038.006-.086.012-.139a3.137,3.137,0,0,1,.678-1.522c.149-.219.349-.512.584-.855q1.383-2.019,2.855-3.974l5.3,25.121,52.954-71.224L855.1,1368.39h21.6a22.53,22.53,0,0,1-.034-7.181,43.916,43.916,0,0,1,1.5-6.388l23.509-75.712c3.816-12.224,9.336-21.606,16.806-28.529a59.047,59.047,0,0,0-27.719,7.282c-8.878,5.089-16.063,11.7-27.43,25.232-6.467,8.419-13.411,17.814-18.483,24.677-2.429,3.286-4.347,5.881-5.459,7.347l-2.4,3.157-9.586-45.714a70.394,70.394,0,0,0-21.243,6.092c-7.032,3.259-16.725,9.233-21.5,18.432a33.1,33.1,0,0,0-2.508,6.362c-.2.6-.416,1.276-.631,1.958l-.806,2.611a44.127,44.127,0,0,1,5.05-8.557,30.755,30.755,0,0,1,2.284-2.905,38.069,38.069,0,0,1,5.3-4.909c-7.861,25.473-20.655,66.862-21.886,70.437a45.82,45.82,0,0,1-8.971,15.656c15.172-2.055,20.576-8.058,22.473-10.167,6.218-6.908,9.117-16.886,10.07-20.165.085-.292,18.238-59.693,18.238-59.693l6.535,30.98a46.834,46.834,0,0,0-4.218,3.284c-2.824,2.448-3.631,2.972-5.81,4.972-2.15,1.973-3.943,3.127-5.811,3.57l-2.671,8.742-.629,2.056a17.984,17.984,0,0,1,2.068,6.814c.376,3.044.284,6.436,1.82,16.728,2.578,17.271,9.338,18.63,9.435,18.648h0a40.851,40.851,0,0,1-3.766-16.8c-.262-10.23-.123-19.426-.147-20.117a3.69,3.69,0,0,1,.634-2.545,26.362,26.362,0,0,0,2.073-3.509,19.36,19.36,0,0,0,.612-4.288,4.791,4.791,0,0,1,1.171-2.5,81.334,81.334,0,0,1,5.482-7.129,71.074,71.074,0,0,1,6.824-6.849c3.752-2.934,5.756-2.97,6.317-2.9.041.009.083.012.123.023-2.8.939-6.359,5-10.486,9.752l-.058.067-.115.133-.749.862a88.19,88.19,0,0,0-5.456,7.293l0,.008c-.091.134-.176.27-.257.41-.056.1-.107.194-.148.281l0,0,.183.877,1.306,6.271c.017-.049.039-.1.055-.142Z"/><path class="b" d="M887.478,1367.774h-.015l-.7-2.184H885.7v3.341h.613v-2.662h.017l.842,2.658h.588l.872-2.658h.014v2.658h.614v-3.337H888.2Zm-4.753-1.587h.9v2.744h.612v-2.744h.913v-.6h-2.429Z"/></g><rect class="d" width="200" height="200"/></svg>