<svg xmlns="http://www.w3.org/2000/svg" width="200" height="200" viewBox="0 0 200 200"><defs><style>.a,.c{fill:none;}.b{fill:#003831;}.c{mix-blend-mode:multiply;isolation:isolate;}</style></defs><g transform="translate(-443.563 -1508.639)"><path class="a" d="M536.642,1611.487l-7.692-23.693-8,23.693Z"/><path class="a" d="M541.258,1614.872,528.95,1577.64l-12.616,37.232Zm-4.616-3.385h-16l8-23.693Z"/><path class="a" d="M601.567,1639.18a3.569,3.569,0,0,0-3.077,1.231c-9.539,10.462-14.462,12-16.616,12-1.846,0-4-.923-6.461-8l-30.77-92.925c-3.693-10.77-10.155-17.847-19.386-20.924a35.5,35.5,0,0,0-8-.923c-14.462,0-25.847,10.769-29.847,28.616a3.138,3.138,0,0,0,1.846,3.692,3.026,3.026,0,0,0,4-1.23c2.77-4,8-8.616,13.232-8.616a9.747,9.747,0,0,1,4.923,1.231c5.231,3.077,5.538,5.538,2.769,13.846l-.615,2.154a20.983,20.983,0,0,0-10.77-3.077c-8.308,0-18.462,5.539-20.308,21.232a3.859,3.859,0,0,0,1.846,3.384,3.272,3.272,0,0,0,3.693-.615c.923-.923,3.692-1.846,7.077-1.846s6.461,1.231,7.692,3.077c1.846,2.461.923,6.154,0,8.923l-17.846,52c-18.462.924-32,12-36.309,29.54a3.139,3.139,0,0,0,1.846,3.692,3.364,3.364,0,0,0,4-1.231c1.846-3.077,13.539-9.231,28-9.231a52.234,52.234,0,0,1,31.693,10.462,3.254,3.254,0,0,0,4.308-.615l18.154-22.155a3.3,3.3,0,0,0-.307-4.308c-1.539-1.538-5.231-2.153-8-2.153a21.8,21.8,0,0,0-12.923,4.307,39.659,39.659,0,0,0-10.154-5.231l7.692-22.769h30.463l11.692,34.77c4,11.692,11.078,19.385,18.462,19.385,2.77,0,7.078-1.231,10.462-6.462,0,0,19.385-29.231,21.847-32.616,1.846-2.769,1.231-4.616.615-5.846C605.875,1640.1,603.413,1639.18,601.567,1639.18Zm2.154,6.77c-2.462,3.384-21.847,32.616-21.847,32.616-7.077,11.077-18.462,2.769-23.385-12l-12.308-36.924H511.1l-9.539,28a42.817,42.817,0,0,1,14.462,7.385c7.385-7.077,17.232-5.231,18.462-4l-17.846,22.155c-28.616-20.616-60-7.385-64.31-.308,4.616-19.385,20.309-27.078,35.386-27.078l18.462-54.155c6.154-18.155-14.462-18.462-20-13.539,2.154-20.616,20.616-22.462,29.232-13.231l2.154-6.462c2.769-8.615,2.769-13.231-4.308-17.539-8.308-4.923-17.539.923-22.462,8,5.231-22.154,20-28.616,33.847-24.923,8.923,2.769,14.154,10.154,17.231,18.769l30.77,92.926c3.385,9.846,9.539,17.847,28.309-2.769C601.259,1642.257,605.875,1642.565,603.721,1645.95Z"/><path class="b" d="M600.644,1642.565c-19.077,20.616-24.924,12.616-28.308,2.769l-30.77-92.925c-2.77-8.616-8-16-17.232-18.77-13.846-3.692-28.616,2.769-33.847,24.924,4.923-7.077,14.154-13.231,22.462-8,7.077,4.307,7.077,8.923,4.308,17.538l-2.154,6.462c-8.615-9.231-27.077-7.385-29.231,13.231,5.538-5.231,26.154-4.615,20,13.539l-18.462,54.155c-15.385,0-30.77,8-35.385,27.078,4.307-6.769,35.693-20.308,64.309.308l18.154-22.155c-1.23-1.23-11.077-3.384-18.462,4a37.915,37.915,0,0,0-14.462-7.384l9.539-28h35.078l12.308,36.924c4.923,14.77,16,23.078,23.385,12,0,0,19.385-29.231,21.847-32.616C605.875,1642.565,601.259,1642.257,600.644,1642.565ZM528.95,1577.64l12.308,37.232H516.334Z"/><path class="a" d="M572.951,1589.948l9.231-12v-14.77H564.643v17.847H567.1l-3.385,8.923Zm-5.231-23.693H578.8v10.462l-7.692,9.847h-3.077l3.384-8.924H567.72Z"/><path class="b" d="M568.028,1586.564h3.384l7.385-9.847v-10.462H567.72v11.385h3.692Z"/><path class="a" d="M637.876,1603.8c-2.769-8-11.385-13.539-17.847-14.77-3.692-.615-10.769-2.154-11.692-4.308a2.861,2.861,0,0,1,0-1.846c.307-.615,1.846-1.538,4.615-1.538,3.077,0,7.385,1.23,9.539,4.307l2.154,3.385,11.692-12-1.538-2.154c-4.616-6.462-12.924-10.462-21.847-10.462-8,0-15.077,3.385-19.077,9.231-4.616,6.462-5.847,12.308-4,17.847,3.077,8.308,13.231,12.615,21.539,14.462,4.923,1.23,7.692,3.077,8,4a1.6,1.6,0,0,1-.308,1.538c-1.538,2.154-11.385.923-19.385-6.461l-3.077-2.154L586.8,1616.1l1.538,1.846c4.308,5.231,15.693,12.308,26.77,12.308a22.879,22.879,0,0,0,18.462-8.923C639.722,1614.564,639.414,1608.1,637.876,1603.8Zm-6.462,15.692c-13.231,16.309-34.77,2.77-40.309-3.384l6.154-8.308c8.924,8.308,20.924,10.462,24.309,5.846,3.692-5.538-3.693-8.923-9.539-10.462-14.154-3.692-26.77-12-15.693-27.385,8-11.385,27.693-9.846,35.694,1.538l-7.078,7.078c-4.615-7.078-17.846-7.385-19.692-1.847-2.154,6.462,5.231,8.308,14.154,10.155C628.337,1593.948,642.8,1605.949,631.414,1619.487Z"/><path class="b" d="M619.414,1592.1c-8.924-1.846-16.308-3.692-14.154-10.154,1.846-5.539,15.077-4.923,19.692,1.846l7.078-7.077c-8-11.077-27.694-12.616-35.694-1.538-11.077,15.385,1.539,23.693,15.693,27.385,5.846,1.538,13.231,4.923,9.539,10.462-3.077,4.923-15.078,2.461-24.309-5.847l-6.154,8.308c5.539,6.462,27.078,19.693,40.309,3.385C642.8,1605.949,628.337,1593.948,619.414,1592.1Zm-12.924,82.156-1.846,4.616-1.538-4.616h-2.77v7.077h1.539v-5.846l2.154,5.846h1.231l2.153-5.846v5.846h1.539v-7.077Zm-13.231,1.231h2.154v5.846h1.539v-5.846h2.154v-1.231h-5.847Z"/></g><rect class="c" width="200" height="200"/></svg>