<svg xmlns="http://www.w3.org/2000/svg" width="200" height="200" viewBox="0 0 200 200"><defs><style>.a{fill:#b4975a;}.b{fill:#002b5c;}.c{fill:#e31837;}.d{fill:#fff;}.e{fill:none;mix-blend-mode:multiply;isolation:isolate;}</style></defs><g transform="translate(-82.701 -1567.814)"><path class="a" d="M265.226,1652.619l.507.206v-9.46a13.177,13.177,0,0,0-.765-4.4,15.129,15.129,0,0,0-2.2-4.072,16.577,16.577,0,0,0-2.967-3.018,16.3,16.3,0,0,0-3.189-1.96,39.707,39.707,0,0,0-6.059-2.712c-3.29-1.305-8.65-3.292-15.513-5.337a196.974,196.974,0,0,0-23.372-5.46l0-.005c-.06-.075-6.089-7.617-15.177-3.723-.308.132-.609.278-.911.428a5.885,5.885,0,0,1-4.837.622c-1.361-.364-3.086-1.2-2.375-4.236a3.455,3.455,0,0,1,1.52-2.068,2.286,2.286,0,0,1,1.86-.216c1.22.355,1.727,1.013,1.552,2.012a1.255,1.255,0,0,1-.7.9,1.285,1.285,0,0,1-1.247-.249.957.957,0,1,0-1.079,1.581,3.051,3.051,0,0,0,4.912-1.9c.132-.745.313-3.248-2.9-4.185a4.19,4.19,0,0,0-3.361.4,5.4,5.4,0,0,0-2.42,3.284c-.009.038-.013.073-.021.109a10.6,10.6,0,0,0-.969-1.157l-3.139-3.189-3.142,3.191a10.509,10.509,0,0,0-.964,1.156c-.008-.037-.013-.071-.022-.11a5.4,5.4,0,0,0-2.42-3.284,4.186,4.186,0,0,0-3.36-.4c-3.214.937-3.032,3.439-2.9,4.185a3.051,3.051,0,0,0,4.913,1.9.957.957,0,0,0-1.08-1.58,1.292,1.292,0,0,1-1.246.249,1.255,1.255,0,0,1-.7-.9c-.176-1,.331-1.659,1.55-2.014a2.291,2.291,0,0,1,1.86.216,3.455,3.455,0,0,1,1.521,2.069c.71,3.037-1.015,3.871-2.376,4.236a5.887,5.887,0,0,1-4.836-.623c-.3-.149-.6-.3-.912-.428-9.086-3.892-15.118,3.648-15.177,3.724-.013.017-.021.037-.034.055a199.848,199.848,0,0,0-22.533,5.229,176.8,176.8,0,0,0-21.534,7.908l-1.241.567,0,.212a6.329,6.329,0,0,0-1.65.519c-2.006.932-4,1.9-5.925,2.885l-1.463.749v5.152a5.974,5.974,0,0,0,.738,3.1,4.8,4.8,0,0,0,.322.492v5.69a8.3,8.3,0,0,0-1,3.809,5.313,5.313,0,0,0,1,3.219v11.871l.125.345a13.215,13.215,0,0,0,7.6,7.366l-.16.077s2.968,4.814,7.58,5.812l-.882.364a15.227,15.227,0,0,0,9.555,6.367l-.93.455a18.682,18.682,0,0,0,10.384,5.188,51.8,51.8,0,0,0,98.67,0,18.694,18.694,0,0,0,10.385-5.188l-.929-.455a15.223,15.223,0,0,0,9.554-6.367l-.881-.364c4.612-1,7.58-5.812,7.58-5.812l.3-.394a13.63,13.63,0,0,0,8.331-12.227v-6.061a13.4,13.4,0,0,0-.816-4.339M208.4,1615.884c-3.72-.552-7.566-1-11.5-1.289.114-.054.227-.111.343-.161a10.574,10.574,0,0,1,11.152,1.45m-40.894-1.45c.12.052.238.112.356.168-3.944.3-7.8.765-11.535,1.326a10.657,10.657,0,0,1,11.18-1.494" transform="translate(0 0)"/><path class="b" d="M260.753,1648.438l2.77,1.118v-6.335a11.063,11.063,0,0,0-.644-3.7,12.991,12.991,0,0,0-1.893-3.5,14.509,14.509,0,0,0-2.589-2.635,14.107,14.107,0,0,0-2.924-1.775,35.8,35.8,0,0,0-5.8-2.6c-3.249-1.291-8.549-3.253-15.335-5.277-11.18-3.334-28.008-7.279-45.543-7.529a3.725,3.725,0,0,0-2.734-2.434,7.655,7.655,0,0,0-2.153-4.437l-1.637-1.663-1.637,1.663a7.663,7.663,0,0,0-2.149,4.437,3.72,3.72,0,0,0-2.731,2.42c-17.258.3-33.758,4.139-44.746,7.364a177.26,177.26,0,0,0-21.251,7.8l.008,1.287s-.16-.1-.246-.143a2.339,2.339,0,0,0-1.061-.242,3.782,3.782,0,0,0-1.577.388c-1.958.911-3.931,1.87-5.854,2.851l-.314.161v3.863a3.964,3.964,0,0,0,.457,2.043,2.689,2.689,0,0,0,.6.731v7.052a6.494,6.494,0,0,0-1,3.261,2.94,2.94,0,0,0,1,2.39v12.333a11.114,11.114,0,0,0,7.714,6.492c.138.037.284.064.424.094l.035.008a10.478,10.478,0,0,0,3.043.224h0q-1.559.762-3.108,1.56c.017.062,3.093,5.123,10.52,4.392-1.235.586-2.468,1.18-3.694,1.8.016.072,3.565,5.046,11.392,4.915-1.8.909-2.894,1.491-2.886,1.49a15.833,15.833,0,0,0,9.455,3.856,49.7,49.7,0,0,0,95.207,0,15.835,15.835,0,0,0,9.454-3.856c.008,0-1.08-.581-2.885-1.49,7.826.131,11.376-4.844,11.392-4.915-1.226-.616-2.459-1.211-3.694-1.8,7.428.732,10.5-4.33,10.519-4.392q-1.55-.8-3.109-1.56a10.338,10.338,0,0,0,6.174-1.459,11.6,11.6,0,0,0,6.108-9.823v-6.062c0-3.887-3.082-8.375-3.082-8.375" transform="translate(0.101 0.143)"/><path class="c" d="M213.511,1692.219c.931.708,1.861,1.416,2.79,2.14.013-.1-11.05,3.028-18.922-.438-.289-.129-.563-.273-.841-.415a16.707,16.707,0,0,1-32.212,0c-.277.14-.552.285-.838.413-7.873,3.467-18.939.341-18.922.439.927-.723,1.859-1.432,2.791-2.141a22.584,22.584,0,0,1-9.84-.9,46.388,46.388,0,0,0,85.833,0,22.592,22.592,0,0,1-9.838.9" transform="translate(1.941 4.326)"/><path class="d" d="M176.815,1620.479a3.818,3.818,0,0,1-1.835-2.033c-27.83.724-55.552,10.714-55.5,11.081a2.729,2.729,0,0,0-1.865,2.2v.99a175.241,175.241,0,0,1,59.2-11.865Z" transform="translate(0.946 0.682)"/><path class="d" d="M241.851,1630.229c.063-.4-29.064-11.067-57.237-11.777a3.806,3.806,0,0,1-1.825,2.021v.386a179.236,179.236,0,0,1,60.922,12.569v-.989a2.744,2.744,0,0,0-1.86-2.21" transform="translate(4.206 0.682)"/><path class="c" d="M181.651,1615.82c-1.8-.219-2.1,2.348-2.149,3.216h-.575c.01-2.45,1.175-3.432,1.175-5.072a5.394,5.394,0,0,0-1.5-3.167,5.392,5.392,0,0,0-1.5,3.167c0,1.64,1.166,2.622,1.173,5.072H177.7c-.047-.868-.347-3.435-2.149-3.216a1.587,1.587,0,0,0,0,3.147s-.329-1.2.635-1.2c.7,0,.889.821.942,1.268h-.849v.939h1.874a1.84,1.84,0,0,1-.863,1.176,1.144,1.144,0,0,0,.82.585,1.736,1.736,0,0,0,.494,1.128,1.738,1.738,0,0,0,.492-1.128,1.142,1.142,0,0,0,.822-.585,1.835,1.835,0,0,1-.865-1.176h1.875v-.939h-.848c.051-.446.242-1.268.943-1.268.961,0,.633,1.2.633,1.2a1.587,1.587,0,0,0,0-3.147" transform="translate(3.774 0.299)"/><path class="d" d="M173.432,1633.936v-6.016a4.867,4.867,0,0,0-.459-2.182,4.018,4.018,0,0,0-1.256-1.5,5.009,5.009,0,0,0-1.883-.819,8.323,8.323,0,0,0-2.339-.157,8.65,8.65,0,0,0-2.338.467,6.079,6.079,0,0,0-1.9,1.069,4.831,4.831,0,0,0-1.269,1.668,5.284,5.284,0,0,0-.457,2.241v6.021a1.481,1.481,0,0,0-1.125,1.389,1.145,1.145,0,0,0,1.125,1.156v6.746a4.683,4.683,0,0,0,.457,2.148,3.867,3.867,0,0,0,1.269,1.451,5.026,5.026,0,0,0,1.9.761,9.07,9.07,0,0,0,2.338.128,9.553,9.553,0,0,0,2.339-.437,5.616,5.616,0,0,0,1.883-1.014,4.708,4.708,0,0,0,1.256-1.616,5.049,5.049,0,0,0,.459-2.211v-6.738a1.352,1.352,0,0,0,1.185-1.315,1.25,1.25,0,0,0-1.185-1.242m-3.325,9.3a2.441,2.441,0,0,1-.236,1.12,2.479,2.479,0,0,1-.61.76,2.755,2.755,0,0,1-.833.458,3.46,3.46,0,0,1-1.882.125,2.29,2.29,0,0,1-.846-.349,1.92,1.92,0,0,1-.609-.679,2.207,2.207,0,0,1-.238-1.087V1628.54a2.446,2.446,0,0,1,.238-1.126,2.409,2.409,0,0,1,.609-.774,2.753,2.753,0,0,1,.846-.475,3.575,3.575,0,0,1,.95-.2,3.141,3.141,0,0,1,.931.072,2.354,2.354,0,0,1,.833.364,2.041,2.041,0,0,1,.61.693,2.28,2.28,0,0,1,.236,1.092Z" transform="translate(3.087 0.922)"/><path class="d" d="M112.535,1649.791c0,.063-.015.081-.048.052a.428.428,0,0,1-.08-.1c-.09-.265-4.048-13.409-4.253-14a9.811,9.811,0,0,1-.316-.976.59.59,0,0,0-.282-.38.678.678,0,0,0-.569.078q-1.781.829-3.546,1.7v1.091a1.707,1.707,0,0,0,.154.831.8.8,0,0,0,.377.36.909.909,0,0,0,.531.1v10.037a2.32,2.32,0,0,0-1,1.757.732.732,0,0,0,1,.781v14.151q1.381-.667,2.768-1.311v-17.75c0-.13.01-.191.029-.18a.192.192,0,0,1,.065.071c0,.02.1.332.315.926s4.075,13.5,4.122,13.6a3.637,3.637,0,0,0,.334.779c.117.193.313.23.588.115.62-.262,1.235-.521,1.854-.775a1.1,1.1,0,0,0,.578-.5,1.35,1.35,0,0,0,.193-.671v-13.3a2.1,2.1,0,0,0,.908-1.6.793.793,0,0,0-.908-.874v-9.835a1.449,1.449,0,0,1,.11-.475,2.83,2.83,0,0,1,.209-.349,4.7,4.7,0,0,0,.513-.765,2.079,2.079,0,0,0,.257-1.026v-.958q-1.958.789-3.9,1.632v17.761Z" transform="translate(0.237 1.28)"/><path class="d" d="M237.6,1650.015c0,.069-.018.07-.05.016a1.142,1.142,0,0,1-.08-.162q-.131-.477-.517-1.907t-.893-3.309c-.336-1.255-.691-2.567-1.071-3.946s-.731-2.641-1.055-3.8-.6-2.122-.815-2.9-.328-1.187-.328-1.232a1.6,1.6,0,0,0-.293-.61,1.208,1.208,0,0,0-.586-.376q-1.843-.611-3.7-1.18v1.092a2.646,2.646,0,0,0,1.115,2.157v7.81a.892.892,0,0,0-1.049.944,1.908,1.908,0,0,0,1.049,1.595v11.458q1.441.454,2.874.93v-15.732c0-.131.013-.183.034-.154a.543.543,0,0,1,.065.121c0,.025.108.414.327,1.182s.489,1.722.817,2.867.674,2.389,1.055,3.729.736,2.607,1.071,3.794.622,2.2.86,3.045.377,1.331.421,1.457a8.26,8.26,0,0,0,.338,1.048,1,1,0,0,0,.6.584c.626.231,1.25.467,1.873.7a.51.51,0,0,0,.579-.038.692.692,0,0,0,.193-.52v-10.609a.8.8,0,0,0,.914-.88,2.076,2.076,0,0,0-.914-1.595v-7.609a.758.758,0,0,1,.117-.384.836.836,0,0,1,.207-.185,1.445,1.445,0,0,0,.516-.356,1.144,1.144,0,0,0,.258-.823v-.957q-1.961-.761-3.933-1.473Z" transform="translate(6.478 1.29)"/><path class="d" d="M253.293,1652.406a15.548,15.548,0,0,0-1.473-2.558,25.316,25.316,0,0,0-1.6-2.015,1.045,1.045,0,0,0,.047-.3,2.252,2.252,0,0,0-1.24-1.863.979.979,0,0,0-.78-.054c-.1-.111-.21-.234-.309-.342a22.894,22.894,0,0,1-1.489-1.864,2.719,2.719,0,0,1-.606-1.517v-5.239a.679.679,0,0,1,.223-.548,1.124,1.124,0,0,1,.574-.229,2.389,2.389,0,0,1,.73.023,3.079,3.079,0,0,1,.726.226,5.326,5.326,0,0,1,.716.4,5.014,5.014,0,0,1,.726.594,3.348,3.348,0,0,1,.55.734,1.621,1.621,0,0,1,.222.794v1.224a2.751,2.751,0,0,0,.537,1.569,3.329,3.329,0,0,0,1.321,1.154q.7.335,1.408.682v-2.444a6.911,6.911,0,0,0-.406-2.392,7.667,7.667,0,0,0-1.142-2.1,9.831,9.831,0,0,0-1.729-1.742,10.754,10.754,0,0,0-2.167-1.3,8.419,8.419,0,0,0-2.158-.672,3.266,3.266,0,0,0-1.719.161,2.274,2.274,0,0,0-1.151,1.073,4.392,4.392,0,0,0-.419,2.091v4.311a5.846,5.846,0,0,0,.6,2.605,11.876,11.876,0,0,0,1.487,2.322c.58.72,1.205,1.422,1.877,2.118a.985.985,0,0,0-.111.48,2.216,2.216,0,0,0,1.243,1.842.9.9,0,0,0,.945-.042,12.347,12.347,0,0,1,1.356,1.934,4.356,4.356,0,0,1,.583,2.135v6.19a.912.912,0,0,1-.236.664,1.169,1.169,0,0,1-.615.312,2.7,2.7,0,0,1-.822.021,2.885,2.885,0,0,1-.855-.239,4.957,4.957,0,0,1-.855-.51,5.858,5.858,0,0,1-.809-.72,4.067,4.067,0,0,1-.606-.824,1.752,1.752,0,0,1-.239-.862v-1.419a2.252,2.252,0,0,0-.428-1.352,2.938,2.938,0,0,0-1.29-.957c-.514-.213-1.026-.427-1.536-.635v2.476a6.208,6.208,0,0,0,.464,2.384,7.907,7.907,0,0,0,1.246,2.068,9.761,9.761,0,0,0,1.833,1.687,12.864,12.864,0,0,0,2.22,1.274,9.464,9.464,0,0,0,2.21.712,3.947,3.947,0,0,0,1.827-.047,2.248,2.248,0,0,0,1.255-.946,3.549,3.549,0,0,0,.469-1.964v-5.927a6.361,6.361,0,0,0-.6-2.634" transform="translate(7.186 1.389)"/><path class="d" d="M147.535,1638.518q-.2,1.753-.4,3.441t-.369,3.01c-.111.882-.2,1.591-.268,2.131a4.209,4.209,0,0,1-.134.82c-.266-1.554-.508-2.947-.719-4.18s-.444-2.611-.7-4.132-.519-3.02-.79-4.49-.517-2.838-.748-4.1-.439-2.251-.62-2.983c-.044-.231-.249-.387-.614-.458a2.638,2.638,0,0,0-1.116.02,4,4,0,0,0-1.049.424,1.193,1.193,0,0,0-.647.765c-.18.77-.383,1.834-.617,3.2s-.48,2.845-.748,4.439-.524,3.216-.777,4.866-.486,3.143-.7,4.483-.449,2.86-.712,4.557a3.275,3.275,0,0,1-.149-.751c-.078-.509-.164-1.177-.266-2.012s-.215-1.781-.345-2.845-.266-2.149-.4-3.258c-.311-2.6-1.381-11.976-1.381-11.972q-2.018.561-4.023,1.167v.989a1.384,1.384,0,0,0,.229.857,1.053,1.053,0,0,0,.495.378,1.33,1.33,0,0,1,.294.209.8.8,0,0,1,.2.374c.316,2.654.608,5.1.879,7.362a1.828,1.828,0,0,0-.8,1.426.913.913,0,0,0,1.087.958c.005.045.01.092.016.141q.23,1.882.446,3.668c.14,1.194.272,2.259.394,3.206s.219,1.717.3,2.308.118.917.118.959a.8.8,0,0,0,.212.453.474.474,0,0,0,.512.107q1.866-.512,3.741-.984a1,1,0,0,0,.562-.34,2.5,2.5,0,0,0,.366-.717q1.413-8.382,2.826-16.742,1.383,7.721,2.768,15.465a1.356,1.356,0,0,0,.366.551.681.681,0,0,0,.569.079q1.871-.386,3.749-.729a.762.762,0,0,0,.518-.343,1.3,1.3,0,0,0,.219-.551c0-.046.04-.382.121-1.013s.174-1.444.3-2.447.256-2.129.4-3.386.3-2.547.452-3.875c.005-.047.012-.1.018-.145a1.613,1.613,0,0,0,1.1-1.462,1.05,1.05,0,0,0-.811-1.055c.277-2.383.575-4.968.9-7.771a1.3,1.3,0,0,1,.2-.464,2.759,2.759,0,0,1,.3-.345,2.106,2.106,0,0,0,.5-.607,1.891,1.891,0,0,0,.236-.963v-.991q-2.052.326-4.093.7s-1.1,9.853-1.415,12.6" transform="translate(1.528 1.021)"/><path class="d" d="M225.947,1641.859a1.842,1.842,0,0,0-1.084-1.579c-.153-.914-.31-1.829-.46-2.719q-.313-1.871-.561-3.374t-.413-2.473c-.11-.647-.169-1.012-.169-1.1a2.23,2.23,0,0,0-.526-1.18,2.265,2.265,0,0,0-1.224-.771q-2.216-.578-4.447-1.093v.758a2.118,2.118,0,0,0,.832,1.943.353.353,0,0,1,.167.32,3.276,3.276,0,0,1-.036.474c0,.021-.048.284-.148.789s-.234,1.164-.4,1.984-.349,1.748-.547,2.792c-.1.505-.2,1.014-.3,1.53a1,1,0,0,0-1.283,1,1.706,1.706,0,0,0,.809,1.377c-.632,3.2-2.146,11.032-2.146,11.035q1.589.339,3.175.711s.919-5.349.941-5.452c.045-.43.244-.6.6-.516q1.893.463,3.777.964a1.107,1.107,0,0,1,.5.262,1.015,1.015,0,0,1,.261.6c0,.109.741,5.877.741,5.877q1.666.472,3.322.976s-1.363-8.156-2.04-12.2a.913.913,0,0,0,.662-.933m-3.344,2.536a.356.356,0,0,1-.362.069q-1.556-.414-3.115-.795a.555.555,0,0,1-.332-.23.536.536,0,0,1-.1-.4q0-.033.083-.539c.054-.339.127-.772.215-1.3s.189-1.125.3-1.792.233-1.343.366-2.036q.493-2.748.993-5.5c.023.005.047.014.068.018q.495,3,.991,6,.2,1.137.366,2.223c.112.72.206,1.367.3,1.94s.166,1.046.23,1.42.1.562.1.583a.357.357,0,0,1-.1.338" transform="translate(5.767 1.138)"/><path class="d" d="M187.549,1645.514c-.11-.073-.208-.135-.287-.2s-.12-.2-.12-.418v-5.643a6.369,6.369,0,0,0-.372-2.229,3.476,3.476,0,0,0-1.154-1.6c-.247-.251-.272-.472-.068-.661a3.976,3.976,0,0,0,1.155-1.388,4.1,4.1,0,0,0,.439-1.909v-2.609a7.846,7.846,0,0,0-.3-2.242,4.555,4.555,0,0,0-2.648-2.974,6.506,6.506,0,0,0-2.477-.475q-3.5-.058-6.992.016v.959a1.791,1.791,0,0,0,.254,1.05,1.722,1.722,0,0,0,.525.516.648.648,0,0,1,.238.212.714.714,0,0,1,.1.413v7.55a1.333,1.333,0,0,0-1.053,1.283,1.273,1.273,0,0,0,1.053,1.243v11.438c1.111-.01,2.218-.01,3.326,0v-10.871c0-.31.148-.464.442-.464.7.007,1.4.015,2.1.029a1.886,1.886,0,0,1,1.579.677,2.957,2.957,0,0,1,.491,1.811v7.262a1.662,1.662,0,0,0,.428,1.186,1.8,1.8,0,0,0,1.3.49c.94.037,1.878.079,2.816.131v-1.286a1.208,1.208,0,0,0-.253-.855,3.152,3.152,0,0,0-.529-.442m-3.765-14.177a3.063,3.063,0,0,1-.492,1.835,1.768,1.768,0,0,1-1.579.658c-.713-.011-1.424-.019-2.139-.023a.483.483,0,0,1-.272-.1.305.305,0,0,1-.135-.261v-7.066c0-.309.182-.461.544-.46.669.005,1.332.015,2,.025a1.846,1.846,0,0,1,1.579.71,3.113,3.113,0,0,1,.492,1.846Z" transform="translate(3.802 0.917)"/><path class="d" d="M197.454,1639.21c-.338.118-.506.427-.506.934,0,.132.029,5.717-.05,5.83a.356.356,0,0,1-.355.145c-.99-.1-1.985-.2-2.976-.288a.389.389,0,0,1-.339-.227,1.076,1.076,0,0,1-.1-.471q-.017-9.077-.033-18.156a.968.968,0,0,1,.085-.488.623.623,0,0,1,.254-.208,2.473,2.473,0,0,0,.54-.513,1.391,1.391,0,0,0,.27-.9v-.99q-2.822-.265-5.655-.43v.988a1.566,1.566,0,0,0,.271.942,2.932,2.932,0,0,0,.541.594,1.049,1.049,0,0,1,.272.25.887.887,0,0,1,.1.5v7.514a1.2,1.2,0,0,0-1.068,1.2,1.413,1.413,0,0,0,1.068,1.337v11.436q4.476.3,8.936.823l.676.08a.742.742,0,0,0,.539-.162.7.7,0,0,0,.272-.6V1639.3q-.71-.088-1.422-.171a3.17,3.17,0,0,0-1.319.081" transform="translate(4.496 0.932)"/><path class="d" d="M127.5,1631.123a.651.651,0,0,0-.163.028l-.062.018h0q-5.187,1.654-10.29,3.632v.959a1.957,1.957,0,0,0,.175.955.664.664,0,0,0,.5.336.615.615,0,0,1,.289.153.537.537,0,0,1,.129.413v7.48a2.061,2.061,0,0,0-1.017,1.657.818.818,0,0,0,1.017.877v11.435c.279-.1.56-.211.838-.312q2.21-.829,4.432-1.594c.633-.222,1.264-.433,1.9-.643.478-.16.956-.315,1.436-.47.2-.063.394-.128.59-.189.022-.008.043-.013.062-.02a.935.935,0,0,0,.238-.122,1.294,1.294,0,0,0,.306-.279,1.065,1.065,0,0,0,.247-.675v-3.395q0-1.8,0-3.588c-.459.143-.918.289-1.374.434a4.222,4.222,0,0,0-1.276.649,1.388,1.388,0,0,0-.489,1.154c0,.132.027,3.6-.047,3.752a.576.576,0,0,1-.342.3l-1.244.424q-.857.3-1.713.6c-.258.092-.389-.015-.389-.325v-7.687a.638.638,0,0,1,.487-.635q1.944-.7,3.9-1.34a.62.62,0,0,0,.488-.623v-1.846c0-.177-.061-.284-.181-.321a.55.55,0,0,0-.341,0q-1.94.643-3.87,1.325c-.324.114-.487.021-.487-.288v-6.9a.8.8,0,0,1,.454-.657c1.032-.368,2.074-.728,3.112-1.075a.241.241,0,0,1,.122.078c.075.093.047,3.587.047,3.719,0,.506.163.78.489.829a3.153,3.153,0,0,0,1.276-.189q.685-.219,1.374-.435v-3.589h0v-3.5a.5.5,0,0,0-.232-.424.548.548,0,0,0-.4-.081" transform="translate(0.914 1.316)"/><path class="d" d="M211.851,1626.476a.647.647,0,0,0-.165-.058c-.02,0-.042-.009-.061-.011h0q-5.3-1.041-10.651-1.76v.96a2.44,2.44,0,0,0,.185,1.048,1.412,1.412,0,0,0,.522.6,1.372,1.372,0,0,1,.3.31.794.794,0,0,1,.135.479v7.481a1.094,1.094,0,0,0-1.065,1.119,1.546,1.546,0,0,0,1.065,1.413v11.434c.291.045.585.085.876.129q2.3.334,4.6.731c.651.111,1.3.23,1.953.348l1.473.279c.2.038.4.078.6.118.022,0,.044.008.064.013a.806.806,0,0,0,.555-.122.629.629,0,0,0,.249-.544v-6.987c-.468-.094-.939-.186-1.4-.275a3.072,3.072,0,0,0-1.309-.02c-.339.093-.5.393-.5.9,0,.132.029,3.62-.048,3.729a.323.323,0,0,1-.353.117c-.427-.077-.853-.151-1.281-.225-.589-.1-1.181-.2-1.773-.3a.464.464,0,0,1-.4-.528v-7.691c0-.307.17-.435.505-.379q2.018.328,4.028.7c.335.063.5-.057.5-.366v-1.846a.51.51,0,0,0-.184-.416.809.809,0,0,0-.353-.181q-2-.375-3.993-.7a.518.518,0,0,1-.505-.545v-6.9a.4.4,0,0,1,.154-.323.38.38,0,0,1,.316-.1q1.608.265,3.216.553a.581.581,0,0,1,.124.137c.078.135.048,3.614.048,3.743a1.184,1.184,0,0,0,.5,1.084,3.869,3.869,0,0,0,1.309.481c.466.09.937.179,1.4.277V1627.3a.851.851,0,0,0-.232-.543,1.061,1.061,0,0,0-.407-.286" transform="translate(5.115 0.992)"/><path class="d" d="M152.807,1698l2.352,2.266a1.91,1.91,0,0,1,.8,1.632,1.826,1.826,0,0,1-.512.95,1.631,1.631,0,0,1-1.012.535,2.066,2.066,0,0,1-1.646-.817l-1.331-1.283-1.383,1.434-.939-.905Zm-.71,2.615,1.177,1.131c.308.3.733.7,1.221.189a.759.759,0,0,0,.245-.575c-.021-.239-.162-.374-.561-.757l-1.073-1.035Z" transform="translate(2.522 4.661)"/><path class="d" d="M158.722,1703.231l4.222,2.534-.489.815-3.086-1.85-.613,1.019,2.986,1.789-.482.8-2.984-1.789-.652,1.085,3.216,1.929-.485.808L156,1707.764Z" transform="translate(2.866 4.923)"/><path class="d" d="M165.691,1706.954l1.256.42-1.368,4.084,2.78.93-.308.922-4.037-1.349Z" transform="translate(3.267 5.109)"/><rect class="d" width="5.287" height="1.325" transform="translate(175.408 1719.257) rotate(-81.368)"/><path class="d" d="M183.476,1712.645a2.243,2.243,0,0,1-.641,1.174,3.424,3.424,0,0,1-2.439.934c-1.88.079-3.221-.846-3.3-2.692-.085-1.99,1.466-2.865,3.134-2.936a3.242,3.242,0,0,1,3.1,1.517l-1.445.243a1.737,1.737,0,0,0-1.614-.789,1.772,1.772,0,0,0-1.8,1.921,1.82,1.82,0,0,0,1.985,1.759,1.681,1.681,0,0,0,1.626-1.065Z" transform="translate(3.921 5.217)"/><path class="d" d="M187.692,1708.1l1.37-.406,3.944,4.346-1.422.42-.711-.827-2.6.768-.15,1.082-1.384.411Zm1.264,1.32a1.176,1.176,0,0,1-.145-.176.835.835,0,0,1-.1-.188c0,.071,0,.132,0,.2s-.013.144-.022.216l-.268,1.914,1.778-.525Z" transform="translate(4.404 5.146)"/><path class="d" d="M193.827,1705.988l1.13-.675,3.733,1.195c.458.154.549.188,1.043.373-.3-.407-.365-.524-.6-.911l-1.389-2.32,1.088-.648,2.711,4.536-1.124.671L196.635,1707c-.4-.135-.568-.192-1.01-.364.239.329.286.407.5.75l1.494,2.5-1.079.645Z" transform="translate(4.758 4.911)"/><path class="d" d="M204.3,1703.047a1.841,1.841,0,0,0,1.853-.638c.232-.225.922-.966.475-1.429-.267-.273-.593-.082-.835.079-.187.118-1.082.755-1.288.895-.414.274-1.455.962-2.29.1a1.442,1.442,0,0,1-.372-.684,2.585,2.585,0,0,1,.994-2.214,3.8,3.8,0,0,1,1.658-1.033,2.18,2.18,0,0,1,1.224.006l-.685,1.1a.983.983,0,0,0-.637.012,2.615,2.615,0,0,0-.9.593c-.419.407-.771.905-.422,1.264.242.248.522.1.87-.112.186-.119,1.087-.739,1.3-.874.52-.348,1.425-.91,2.232-.077,1.183,1.221-.228,2.671-.706,3.134a2.978,2.978,0,0,1-3.114.942Z" transform="translate(5.157 4.663)"/><path class="d" d="M175.76,1680.1s-18.935-6.338-10.709-26.5c0,0-20.02.828-47.459,11.9,0,0-1.926.8-3.049,1.2a6.357,6.357,0,0,1-5.516-.122,172.109,172.109,0,0,1,57.345-16.165c4.254-.4,4.814.241,3.691,1.846-.92,1.314-12.435,15.966,5.7,27.84" transform="translate(0.516 2.275)"/><path class="a" d="M158.09,1658.881A178.365,178.365,0,0,0,126,1666.642c2.7,4.806,10.029,2.788,10.029,2.788,13.747-3.89,19.881-5.209,21.848-5.59a27.968,27.968,0,0,1,.216-4.958" transform="translate(1.365 2.704)"/><path class="a" d="M157.89,1666.4a171.817,171.817,0,0,0-25.527,7.149s3.611,4.113,10.777,2.081c6.029-1.708,13.757-4.176,16.062-4.915a19.2,19.2,0,0,1-1.313-4.315" transform="translate(1.684 3.081)"/><path class="a" d="M160.019,1672.679c-2.448.79-14.691,4.756-19.859,6.741,0,0,2.965,3.975,11.524.606,5.963-2.349,9.249-3.719,10.7-4.337a18.484,18.484,0,0,1-2.36-3.01" transform="translate(2.074 3.394)"/><path class="a" d="M163.82,1677.192c-2.139.931-10.082,4.4-14.678,6.615,0,0,5.782,2.84,13.056-1.654l4.526-2.967a23.144,23.144,0,0,1-2.9-1.994" transform="translate(2.523 3.62)"/><path class="a" d="M168.477,1680.191c-1.454.91-7.482,4.7-10.425,6.871,0,0,5,2.064,10.12-2.758,1.666-1.569,2.576-2.457,3.077-2.967-.882-.318-1.818-.694-2.772-1.146" transform="translate(2.969 3.77)"/><path class="d" d="M184.2,1680.1s18.935-6.338,10.708-26.5c0,0,20.02.828,47.46,11.9,0,0,1.925.8,3.048,1.2a6.357,6.357,0,0,0,5.516-.122,172.109,172.109,0,0,0-57.345-16.165c-4.254-.4-4.814.241-3.691,1.846.921,1.314,12.436,15.966-5.7,27.84" transform="translate(4.276 2.275)"/><path class="a" d="M200.215,1658.881a178.394,178.394,0,0,1,32.093,7.761c-2.7,4.806-10.03,2.788-10.03,2.788-13.747-3.89-19.881-5.209-21.848-5.59a28.265,28.265,0,0,0-.215-4.958" transform="translate(5.077 2.704)"/><path class="a" d="M200.166,1666.4a171.924,171.924,0,0,1,25.526,7.149s-3.612,4.113-10.778,2.081c-6.027-1.708-13.756-4.176-16.061-4.915a19.421,19.421,0,0,0,1.314-4.315" transform="translate(5.009 3.081)"/><path class="a" d="M197.815,1672.679c2.448.79,14.691,4.756,19.857,6.741,0,0-2.963,3.975-11.523.606-5.963-2.349-9.248-3.719-10.694-4.337a18.543,18.543,0,0,0,2.36-3.01" transform="translate(4.839 3.394)"/><path class="a" d="M193.792,1677.192c2.14.931,10.084,4.4,14.677,6.615,0,0-5.781,2.84-13.056-1.654l-4.523-2.967a23.136,23.136,0,0,0,2.9-1.994" transform="translate(4.611 3.62)"/><path class="a" d="M188.928,1680.191c1.453.91,7.482,4.7,10.422,6.871,0,0-4.995,2.064-10.118-2.758-1.666-1.569-2.575-2.457-3.077-2.967.881-.318,1.815-.694,2.772-1.146" transform="translate(4.374 3.77)"/><path class="d" d="M194.632,1689.906a15.506,15.506,0,1,1-15.506-15.507,15.507,15.507,0,0,1,15.506,15.507" transform="translate(3.247 3.48)"/><path class="a" d="M191.271,1692.809a12.3,12.3,0,1,1-12.3-12.3,12.3,12.3,0,0,1,12.3,12.3" transform="translate(3.4 3.786)"/><path class="b" d="M179.184,1673.25a16.714,16.714,0,1,0,16.711,16.713,16.731,16.731,0,0,0-16.711-16.713m14.042,14.017a14.521,14.521,0,0,1-7.535,9.386,24.447,24.447,0,0,1,2.108-6.164c1.342-3.046,2.807-6.375,2.165-9.9a14.239,14.239,0,0,1,3.261,6.681m-21.378-9.573a14.2,14.2,0,0,1,6.3-1.99v22.485a14.577,14.577,0,0,1-3.31-.624c-.119-2.781-1.263-5.379-2.379-7.91-1.853-4.2-3.454-7.863-.613-11.962m2.87,22a16.553,16.553,0,0,0,3.432.566v3.969a14.2,14.2,0,0,1-5.253-1.417,5.818,5.818,0,0,0,1.821-3.117m5.5.567a16.682,16.682,0,0,0,3.437-.567,5.793,5.793,0,0,0,1.818,3.116,14.16,14.16,0,0,1-5.254,1.419Zm3.313-2.715a14.386,14.386,0,0,1-3.313.647V1675.7a14.2,14.2,0,0,1,6.3,1.989c2.838,4.1,1.24,7.754-.613,11.96-1.112,2.522-2.252,5.116-2.376,7.888M168.4,1680.584c-.642,3.532.823,6.859,2.166,9.9a24.253,24.253,0,0,1,2.115,6.213,9.228,9.228,0,0,1-4.281-16.118m-3.3,11.879a16.394,16.394,0,0,0,7.619,6.534c-.012.094-.019.189-.034.282a4.173,4.173,0,0,1-1.666,2.42,14.322,14.322,0,0,1-5.919-9.237m22.236,9.235a4.175,4.175,0,0,1-1.665-2.419c-.016-.094-.024-.188-.033-.281a16.393,16.393,0,0,0,7.611-6.523,14.3,14.3,0,0,1-5.913,9.223" transform="translate(3.19 3.423)"/><path class="b" d="M183.842,1652.662s-.127.526-.448.526a20.075,20.075,0,0,1-3.289-1.484c-.412-.223-.989-.559-1.191-.675,0,0-.858.453-1.271.675a19.956,19.956,0,0,1-3.289,1.484c-.32,0-.446-.526-.446-.526s-5.264,3.178-5.264,11.962c0,6.536,3.4,9.5,3.4,9.5l.463,1.848h12.729l.462-1.848s3.405-2.966,3.405-9.5c0-8.783-5.265-11.962-5.265-11.962" transform="translate(3.498 2.312)"/><path class="d" d="M186.218,1662.223a9.428,9.428,0,0,0-2.3-6.242s-.039.774-1.336-.092a6.7,6.7,0,0,0-7.712.006c-1.25.85-1.309.085-1.309.085a9.438,9.438,0,0,0-2.294,6.242,7.231,7.231,0,0,0,.743,3.679,7.062,7.062,0,0,0,13.4.094,6.761,6.761,0,0,0,.8-3.772" transform="translate(3.63 2.494)"/><path class="b" d="M181.548,1668.064c-.008-.016-.02-.031-.027-.047a1.888,1.888,0,0,1,.478-2.35s2.757.576,2.822-3.079a2.138,2.138,0,0,1,.318-1.154s-.706-.643-2.244.513-2.372,4.424-3.2,3.654-.523-5.021-.95-5.183h-.016c-.427.162-.124,4.421-.948,5.183s-1.667-2.5-3.206-3.654-2.245-.513-2.245-.513a2.109,2.109,0,0,1,.319,1.154c.067,3.655,2.822,3.079,2.822,3.079a1.906,1.906,0,0,1,.483,2.357c-.007.015-.018.027-.024.042-3.292-3.533-5.2-3.052-4.261.905.928,3.886,4.489,20.583,5.056,24.454a16.455,16.455,0,0,1-.588,4.995l-.359.715.4.8a12.425,12.425,0,0,1,1.215,2.318l1.356,3.447,1.347-3.438a12.648,12.648,0,0,1,1.219-2.328l.413-.754-.376-.754a15.767,15.767,0,0,1-.585-4.817c.468-3.473,4.107-20.68,5.048-24.635s-.968-4.438-4.259-.907" transform="translate(3.637 2.781)"/><path class="c" d="M176.406,1685.023c-1.183-6.213-2.114-10.808-2.866-14.142-.573-2.547.957-1.528,1.781.065Z" transform="translate(3.737 3.227)"/><path class="c" d="M180.513,1685.023c1.184-6.213,2.115-10.808,2.864-14.142.573-2.547-.956-1.528-1.781.065Z" transform="translate(4.092 3.227)"/><path class="c" d="M174.521,1664.3a.43.43,0,0,1-.153-.758,3.328,3.328,0,0,0-.553-.505s-.386,1.8,1.219,1.6a3.066,3.066,0,0,0-.175-.388.431.431,0,0,1-.337.046" transform="translate(3.755 2.912)"/><path class="c" d="M183.021,1663.033a3.3,3.3,0,0,0-.554.505.427.427,0,0,1,.153.22.438.438,0,0,1-.643.493,3.213,3.213,0,0,0-.174.386c1.6.191,1.218-1.605,1.218-1.605" transform="translate(4.157 2.912)"/><path class="c" d="M179.236,1687.462c.511-9.6,1.275-16.4,1.275-17.242a3.993,3.993,0,0,0-.16-1.119l-.56,1.826-.171-3.226a5.56,5.56,0,0,0-1.146-1.072h-.028a5.336,5.336,0,0,0-1.1,1.071l-.168,3.227-.56-1.827a3.95,3.95,0,0,0-.163,1.12c0,.847.764,7.644,1.274,17.242s-.681,11.38-.681,11.38a19.275,19.275,0,0,1,1.435,2.771,19.51,19.51,0,0,1,1.435-2.771s-1.188-1.785-.682-11.38" transform="translate(3.889 3.092)"/></g><rect class="e" width="200" height="200"/></svg>