<svg xmlns="http://www.w3.org/2000/svg" width="200" height="200" viewBox="0 0 200 200"><defs><style>.a{fill:#9ea2a2;}.b{fill:#ce1141;}.c{fill:none;mix-blend-mode:multiply;isolation:isolate;}</style></defs><g transform="translate(-1321.156 -947.195)"><path class="a" d="M1439.59,1041.511l.131-12.763c0-5.987-6.25-7.039-10.855-6.908,3.092-1.053,6.842-2.763,9.474-5.658a13.467,13.467,0,0,0,4.474-11.447c-.592-8.684-11.448-13.026-29.408-11.25-.263,0-.592.065-.855.065a95.691,95.691,0,0,0-4.144-18.355l-.921.855a125.392,125.392,0,0,0-4.671,18.816,136.85,136.85,0,0,0-18.223,4.342l-.855.855s8.684-.79,18.552-.658c-1.119,11.25,0,21.908,0,42.105-15.987-.461-30,2.237-33.421,6.447a4.043,4.043,0,0,0-1.711,3.026c.2,4.868,14.737,9.408,35.132,11.118l.855,27.763.855-.855,1.448-18.816a2.44,2.44,0,0,1,.131-.789c.461.065.855.592.855,1.579l.658,24.8.92-.855,1.513-20.131a5.263,5.263,0,0,1,.131-1.119c.461.066.856.724.79,1.842l.724,25.855.856-.855,1.249-37.565c2.368.065,4.738.131,7.171.131,2.566,0,5.132-.066,7.631-.131l1.25,39.21.855-.856,1.053-20.525a5.15,5.15,0,0,1,.131-1.053c.4.065.79.724.79,1.776l1.053,28.75.855-.856,1.053-24.867a3.911,3.911,0,0,1,.131-.921c.527,0,1.053.592,1.053,1.776l.856,32.96.855-.921,1.316-55.131c17.435-1.513,30.724-5.066,34.013-9.079a3.716,3.716,0,0,0,1.645-2.829c-.2-5.659-16.382-9.8-35.395-8.882m-37.434,14.737c-14.013-1.382-23.42-4.211-23.42-7.764a1.328,1.328,0,0,1,.2-.724c3.289-2.3,13.354-3.75,23.42-5.263,0,3.948-.065,8.224-.2,12.961Zm28.487-48.158a10.914,10.914,0,0,1-2.631,9.211c-3.685,3.289-9.343,4.8-14.014,5.526.066-7.5,0-15.2-.657-22.829,8.947.921,16.645,3.224,17.3,8.092m-2.631,48.947c-2.172.066-4.408.131-6.71.131-2.7,0-5.329-.065-7.9-.131l.131-3.158c-.263-8.092.264-18.223.4-29.013,6.579.79,14.473,2.632,14.342,7.237Zm34.8-6.25c-3.289,2.566-11.907,4.54-23.355,5.592l.131-13.75c13.092,1.71,23.75,3.617,23.75,6.775a2.42,2.42,0,0,1-.527,1.382" transform="translate(0 0)"/><path class="b" d="M1475,1050.129c-.263-5.395-16.381-9.539-35.394-8.618l.131-12.763c0-7.894-10.855-7.171-14.539-6.644,4.277-.79,18.552-4.342,17.631-17.368-.592-8.684-11.447-13.026-29.407-11.25-.263,0-.592.065-.855.065a95.756,95.756,0,0,0-4.145-18.355,114.808,114.808,0,0,0-4.736,19.54,137.414,137.414,0,0,0-19.013,4.474s8.684-.79,18.552-.658c-1.119,11.381.066,22.236,0,43.026-18.882-.658-35.329,3.026-35.131,8.618.2,4.868,14.671,9.408,35.131,11.119l.855,27.762,1.448-18.815c.065-2.3,1.841-2.105,1.841-.131l.658,24.8,1.513-20.131c0-2.7,1.907-2.566,1.842-.132l.724,25.856,1.249-38.487c2.632.065,5.33.131,8.027.131,2.566,0,5.131-.066,7.631-.131l1.249,39.21,1.053-20.526c0-2.631,1.776-2.5,1.776-.131l1.053,28.75,1.053-24.868c.066-2.434,2.04-2.3,2.105,0l.856,32.96,1.316-55.921v-.065C1460,1059.538,1475,1055,1475,1050.129m-43.552-42.894c1.448,10.855-9.6,14.408-17.565,15.592.065-7.763-.066-15.921-.79-23.816,9.474.855,17.7,3.158,18.355,8.224m-52.762,41.249c0-3.289,12.236-5.065,24.473-6.907,0,3.947-.065,8.224-.2,12.96l.065,1.776c-14.473-1.25-24.341-4.144-24.341-7.829m34.67,8.488.131-3.158c-.263-8.29.264-18.815.461-30,6.711.658,15.329,2.5,15.2,7.3l-.263,25.856c-2.434.065-5,.131-7.631.131-2.7,0-5.329,0-7.9-.131m26.052-.592.2-14.737c13.487,1.711,24.605,3.685,24.605,6.908-.066,3.618-10.132,6.513-24.8,7.829" transform="translate(0.048 0)"/></g><rect class="c" width="200" height="200"/></svg>