<svg xmlns="http://www.w3.org/2000/svg" width="200" height="200" viewBox="0 0 200 200"><defs><style>.a,.c{fill:#df4601;}.b{fill:#fff;}.c{fill-rule:evenodd;}.d{fill:none;mix-blend-mode:multiply;isolation:isolate;}</style></defs><g transform="translate(-734.855 -573.221)"><path class="a" d="M875.093,738.3h-1.854v5.048h-1.266V738.3h-1.858v-1.1h4.978v1.1Zm8.451,5.048h-1.269v-4.906h-.025l-1.79,4.906h-1.209l-1.727-4.906h-.04v4.906h-1.256v-6.151h2.18l1.437,4.034h.034l1.495-4.034h2.169v6.151Z"/><path class="a" d="M917.568,611.517c-1.584-3.8-5.4-7.244-11.521-8.318-9.673-.977-25.942,3.057-42.194,6.43-5.792,1.216-17.933,2.8-17.933,2.8a42.1,42.1,0,0,0-27.174-14.892c-3.895-.526-5.759-.133-7.364-.66a17.413,17.413,0,0,0-13.911-3.4,24.878,24.878,0,0,0-13.362,7.041,19.953,19.953,0,0,0-4.217,6.727c-1.467,1.342-2.646,1.628-5.97,4.85-20.866,17.685-12.327,40.74-8.965,48.407-18.827,14.67-14.727,31.688-14.727,31.688l5.806-.939c-.426,75.6,109.138,81.064,122.309,23.3,4.776-20.957,8.633-30.412,27.485-35.347,3.809-1.044,5.313-3.563,5.179-5.451-.813-7.428-16.974-15.6-41.312-13.281a36.076,36.076,0,0,1-1.565-6.717c12.316-2.779,29.189-8.261,40.9-17.621,9.337-7.475,12.764-14.547,8.533-24.617m-27.854,24.876c-11.742,5.355-25.41,8.555-28.765,9.457-5.327,1.456-5.127,2.854-4.091,5.165,2.334,5.209,3.068,8.536,3.968,20.8,7.7-2.3,21.577-1.964,33.954,1a52.275,52.275,0,0,0-22.542,17.412c-20.356,27-52.677,24.52-67.308,10.472-3.186,2.692.968,11.823.968,11.823-.652.614-2.209-.009-2.209-.009-10.856-18.014.743-22.738,9.793-23.246,3.819-.7,3.335,1.6-.172,2.252-15.105,3.451,5.74,20.8,31.559,14.039,22.771-5.979,21.406-20.486,41.724-31.746-16.26-3.084-27.654,1.008-32.507,3.528a17.094,17.094,0,0,1-10.929.938c-2.993,9.169-12.815,11.757-31.586,7.186-13.332-3.246-23.906,9.862-18.037,26.688,6.008,17.256,35.841,34.542,68.471,14.247a39.689,39.689,0,0,1-9.873,8.845c-8.451,5.384-19.379,8.374-30.8,8.374-16.271-.021-31.385-5.846-41.447-16.032-9.217-9.333-13.8-21.665-13.62-36.651,0-2.644.925-8.489,1.827-10.29l-6.58.441s2.084-9.554,16.3-17.793h-.039l-.6-1.218c-14.57-27.75-.729-38.767,5.327-43.76,4.929-4.092,6.194-3.929,7.095-7.435.527-2.07,2.635-4.254,5.26-5.663,3.359-2.031,7.417-2.252,9.808-.488,2.266,2.252,6.668,2.789,9.342,2.789,20.94.727,27.232,16.04,27.232,16.04,4.762-1.476,12.543-1.648,25.914-4.35,25.65-5.693,27.548-5.827,31.7-6.209,4.8-.432,8.8-.144,10.482,3.851,1.683,3.91-2.816,8.825-3.98,9.975-1.551,1.543-7.265,5.759-15.63,9.574"/><path d="M821.755,631.849a2.074,2.074,0,0,0,1.508-1.062,8.277,8.277,0,0,0,.828-4.208,19.88,19.88,0,0,0-.813-5.261,5.566,5.566,0,0,1-6.294.009,9.591,9.591,0,0,0,.009,5.174c.7,2.426,2.516,5.78,4.762,5.349M819.809,620.5a3.611,3.611,0,0,0,3.182-.182c-.8-2.722-2.3-5.96-4-5.951a1.912,1.912,0,0,0-1.649.873,3.109,3.109,0,0,0-.1,2.854,4.6,4.6,0,0,0,2.558,2.406m11.656,4.274a.7.7,0,0,0,.09.776.661.661,0,0,0,.743.144.888.888,0,0,0,.547-.547,1.176,1.176,0,0,0-.02-.939.624.624,0,0,0-.1-.171.6.6,0,0,0-.086-.068,1.824,1.824,0,0,0-1.177.8"/><path d="M909.324,616.844c-1.692-3.995-5.672-4.283-10.483-3.851-4.153.382-6.051.517-31.7,6.209-13.373,2.7-21.155,2.874-25.911,4.35,0,0-6.295-15.313-27.228-16.042-2.687,0-7.091-.537-9.351-2.779-2.39-1.773-6.448-1.552-9.808.489-2.62,1.4-4.722,3.583-5.259,5.653-.9,3.507-2.16,3.344-7.1,7.435-6.043,4.992-19.889,16.012-5.329,43.771l-1.389-2.779a79.066,79.066,0,0,0,21.847-6.47L777.8,663.288h.014c-14.215,8.24-16.3,17.793-16.3,17.793l6.577-.421c-.9,1.781-1.83,7.617-1.83,10.262-.177,15,4.408,27.327,13.625,36.661,10.066,10.186,25.177,16.011,41.445,16.031,11.433,0,22.352-2.991,30.8-8.366A39.736,39.736,0,0,0,862,726.384c-32.627,20.3-62.464,3.018-68.472-14.237-5.862-16.827,4.706-29.935,18.044-26.689,18.767,4.562,28.587,1.985,31.582-7.185a17.047,17.047,0,0,0,10.934-.948c4.848-2.509,16.242-6.6,32.5-3.516-20.318,11.26-18.948,25.766-41.719,31.746-25.814,6.764-46.664-10.588-31.559-14.037,3.5-.653,3.992-2.952.177-2.253-9.05.5-20.659,5.23-9.8,23.245,0,0,1.557.614,2.213.009,0,0-4.159-9.131-.968-11.823,14.631,14.046,46.961,16.527,67.309-10.474a52.216,52.216,0,0,1,22.542-17.41c-12.382-2.96-26.255-3.3-33.955-.987-.9-12.275-1.637-15.6-3.968-20.812-1.035-2.31-1.235-3.707,4.1-5.165,3.345-.9,17.019-4.1,28.761-9.457,8.369-3.815,14.081-8.03,15.633-9.572,1.161-1.143,5.66-6.068,3.977-9.976m-116.075-3.4c2.627-9.727,10.283-3.863,10.283-3.863l-10.283,3.862Zm36.622,9.754a7.5,7.5,0,0,1,.236-1.9l1.076-.795.086-.048.02.115a1.366,1.366,0,0,0,.421.728l.336.269.939.8a2.556,2.556,0,0,1,.675.842l.115.4.039.173a2.183,2.183,0,0,1-1.149,2.309,1.44,1.44,0,0,1-1.155.117,1.128,1.128,0,0,1-.608-.651c-.162-.5.076-1.467,1.413-1.974a1.044,1.044,0,0,1,.129-.048.664.664,0,0,0-.11-.078,6.226,6.226,0,0,1-1.446-1.36l-.072-.124c-.024.067-.044.135-.044.135a4.569,4.569,0,0,0-.158.784l-.072,1.159-.024.317-.063,1.092-.177,1.188a3.372,3.372,0,0,1-1.747,2.655l-.11.058.22-1.2h.024c.684-.441.9-1.41,1.035-2.828l.171-2.14Zm-1.548-3.545c.174-.364.284-.517.432-.576a.314.314,0,0,1,.14-.047,3.908,3.908,0,0,0-.168.873c.3-.04.465.027.527.2a1.3,1.3,0,0,1-.176,1.053.627.627,0,0,1-.317.287c-.372.153-.574.162-.631.02a2.845,2.845,0,0,1,.194-1.811M814.9,618.289a4.617,4.617,0,0,1,.555-4.111,4.156,4.156,0,0,1,3.335-1.781c2.391-.126,4.62,2.165,6.335,6.678a5.108,5.108,0,0,0,.986-1.476l.921.336a6.177,6.177,0,0,1-1.534,2.145c1.128,3.086,1.377,7.857-.108,10.953a5.251,5.251,0,0,1-3.019,2.826,4.355,4.355,0,0,1-3.473-.345c-1.83-1.053-3.287-3.1-4.22-5.941a13.786,13.786,0,0,1,.225-9.284m17.031,64.381c-3.191,1.054-6.947-1.11-9.691-5.1,1.633,1.256,3.468,1.668,4.868.873,2.217-1.227,2.519-4.945.657-8.289s-5.165-5.078-7.379-3.842a3.515,3.515,0,0,0-1.653,2.214c-.873-5.874.891-10.992,4.586-12.2,4.446-1.458,9.975,3.257,12.357,10.548,2.373,7.272.706,14.343-3.744,15.792m17.625-7.208c-3.009.8-6.338-1.169-8.815-4.751a3.761,3.761,0,0,0,3.7.517c2.107-1.006,2.578-4.418,1.035-7.608s-4.485-4.953-6.593-3.928a3.265,3.265,0,0,0-1.615,1.868c-.876-6.324,1.194-11.834,5.164-12.888,4.515-1.216,9.77,3.825,11.743,11.221s-.094,14.363-4.616,15.57m-21.587-28.676c-10.512-1.418-17.334-1.34-10.57-5.806,0,0,15.725-12.247,33.5-14.278,16.49-2.061,42.672-7.866,42.672-7.866s-12.9,7.829-25.568,16.674c-13.867,8.278-23.989,11.631-40.039,11.274m49.438-11.613s25.713-17.937,26.657-16.653c2.312,3.172-10.675,11.229-26.657,16.653"/><path class="a" d="M793.253,613.442l10.272-3.862s-7.652-5.863-10.273,3.862M850.9,626.7c-17.78,2.031-33.5,14.258-33.5,14.258-6.764,4.494.058,4.4,10.57,5.835,16.054.346,26.168-2.99,40.032-11.287,12.678-8.845,25.574-16.673,25.574-16.673s-26.182,5.806-42.672,7.866m26.5,8.47c15.982-5.423,28.97-13.481,26.657-16.652-.945-1.284-26.657,16.652-26.657,16.652"/><path class="b" d="M775.762,659.3l1.389,2.778.618,1.216.029-.009,19.81-10.456a78.686,78.686,0,0,1-21.847,6.47m47.552-2.969c-3.689,1.206-5.462,6.323-4.586,12.2a3.554,3.554,0,0,1,1.652-2.213c2.213-1.235,5.523.489,7.378,3.842s1.557,7.064-.662,8.289c-1.395.8-3.23.383-4.863-.873,2.745,4,6.5,6.143,9.7,5.1,4.441-1.446,6.108-8.518,3.732-15.79-2.38-7.293-7.909-12.008-12.354-10.55m19.116-7.657c-3.972,1.053-6.042,6.564-5.161,12.888a3.229,3.229,0,0,1,1.611-1.868c2.1-1.017,5.053.747,6.592,3.928s1.072,6.6-1.035,7.608a3.759,3.759,0,0,1-3.7-.518c2.476,3.583,5.8,5.539,8.815,4.753,4.524-1.208,6.578-8.173,4.62-15.57-1.975-7.4-7.23-12.427-11.743-11.221"/><path class="c" d="M818.886,633.517a4.371,4.371,0,0,0,3.478.345,5.237,5.237,0,0,0,3.023-2.835c1.48-3.086,1.233-7.858.1-10.944a6.066,6.066,0,0,0,1.534-2.146l-.921-.337a5.229,5.229,0,0,1-.986,1.476c-1.715-4.532-3.943-6.8-6.335-6.679a4.193,4.193,0,0,0-3.334,1.781,4.608,4.608,0,0,0-.555,4.112,13.89,13.89,0,0,0-.225,9.3c.938,2.826,2.39,4.877,4.215,5.93m-1.543-18.272A1.911,1.911,0,0,1,819,614.37c1.7-.009,3.2,3.23,3.995,5.96a3.619,3.619,0,0,1-3.185.173,4.629,4.629,0,0,1-2.559-2.4,3.128,3.128,0,0,1,.092-2.856m-.36,6.084a5.6,5.6,0,0,0,6.3,0,20.192,20.192,0,0,1,.816,5.252,8.356,8.356,0,0,1-.834,4.206,2.075,2.075,0,0,1-1.509,1.062c-2.247.432-4.059-2.913-4.763-5.347a9.551,9.551,0,0,1-.009-5.174"/><path class="a" d="M828.759,621.443a.675.675,0,0,0,.316-.288,1.307,1.307,0,0,0,.177-1.052c-.063-.173-.225-.24-.528-.2a4.057,4.057,0,0,1,.168-.873.31.31,0,0,0-.139.049c-.149.047-.259.21-.432.576a2.853,2.853,0,0,0-.2,1.81c.06.144.261.133.634-.02m-.1,6.707-.024.02-.221,1.188.11-.057a3.364,3.364,0,0,0,1.749-2.654l.172-1.2.067-1.082.024-.317.081-1.159a3.985,3.985,0,0,1,.15-.785,1.191,1.191,0,0,1,.042-.125c.033.048.072.116.072.116a6.157,6.157,0,0,0,1.447,1.351s.054.039.11.087a1.056,1.056,0,0,0-.129.047c-1.337.508-1.577,1.467-1.413,1.974a1.174,1.174,0,0,0,.608.652,1.391,1.391,0,0,0,1.153-.115,2.183,2.183,0,0,0,1.15-2.309l-.039-.173-.115-.4a2.56,2.56,0,0,0-.676-.843l-.94-.8-.335-.268a1.312,1.312,0,0,1-.412-.729l-.028-.115-.086.058-1.087.785a8.22,8.22,0,0,0-.225,1.9l-.173,2.137c-.133,1.417-.349,2.385-1.034,2.816m4.067-4.11a.45.45,0,0,1,.091.171,1.213,1.213,0,0,1,.034.94.921.921,0,0,1-.555.547.661.661,0,0,1-.743-.144.694.694,0,0,1-.09-.776,1.8,1.8,0,0,1,1.183-.8c.028.019.081.067.081.067"/></g><rect class="d" width="200" height="200"/></svg>