<svg xmlns="http://www.w3.org/2000/svg" width="200" height="200" viewBox="0 0 200 200"><defs><style>.a{fill:#fff;}.b,.d,.e{fill:none;}.b{stroke:#fff;stroke-miterlimit:40;stroke-width:0.859px;}.c{fill:#ce1141;}.d{stroke:#ce1141;stroke-width:0.215px;}.e{mix-blend-mode:multiply;isolation:isolate;}</style></defs><g transform="translate(-1327.877 -645.904)"><path class="a" d="M1491.559,727.707c-.534-9.408-4.753-17.8-7.226-22.841l-.291-.582-1.115-2.182.242,2.425c.291,3.346,1.067,14.839-2.376,21.386-4.267,8.826-16.731,7.953-20.853,7.71h-.291c-6.74-.436-28.66-1.212-35.4-1.212-8.875.049-18.671.776-26.575,1.358-3.88.291-7.177.533-9.457.63-.194,0-.436.049-.824.049-11.057,1.018-18.04-2.231-20.756-9.7-1.648-4.558-1.648-13.627-1.6-17.943v-3.152l-.873,1.6a58.078,58.078,0,0,0-7.225,22.841c-.728,13.966,6.546,19.01,12.075,21.532a39.477,39.477,0,0,0,13.626,3.2h.1a5.747,5.747,0,0,0,1.31.1,13.312,13.312,0,0,1,1.891.194c-1.067.194-2.425.437-3.637.631-1.309.242-2.522.436-3.152.582-1.309.29-6.886,1.551-9.844,2.618-2.522.873-5.286,2.182-5.335,2.182l-.485.243.34.436c.048.049.97,1.31,1.891,2.28a17.975,17.975,0,0,0,13.966,4.558,27.822,27.822,0,0,0,9.166-2.425c.339,1.116,1.164,3.734,1.988,5.771,2.376,5.868,7.759,17.119,9.8,21,1.649,3.152,3.249,5.965,4.364,7.808l.388.679a5.437,5.437,0,0,1-1.842,2.521c-.194.146-.291.291-.437.388l-.1.146v.194c-.048,1.067-.291,10.863,6.353,17.991l.048.1.1.049a38.059,38.059,0,0,0,14.549,2.57c7.08,0,13.045-1.7,15.13-2.716l.1-.048.048-.049c4.607-5.48,6.741-13.724,6.79-16.682v-.194l-.146-.145-.339-.34a6.671,6.671,0,0,1-2.134-3.588c.582-.97,1.649-3.3,2.57-5.141.485-1.067.921-1.94,1.164-2.424,1.94-3.831,7.662-16.1,9.941-21.871,1.455-3.686,2.231-5.48,2.57-6.256a24.58,24.58,0,0,0,8.826,2.279c6.644.679,12.948-3.734,14.694-6.159.291-.388.776-.97.825-1.018l.388-.485-.534-.242c-.048,0-.242-.1-1.261-.437L1479,756.707l-3.637-1.213c-1.019-.339-5.48-1.309-8.729-2.036l-2.474-.534.825-.145c7.613-1.6,27.739-5.141,26.575-25.072"/><path class="b" d="M1491.559,727.707c-.534-9.408-4.753-17.8-7.226-22.841l-.291-.582-1.115-2.182.242,2.425c.291,3.346,1.067,14.839-2.376,21.386-4.267,8.826-16.731,7.953-20.853,7.71h-.291c-6.74-.436-28.66-1.212-35.4-1.212-8.875.049-18.671.776-26.575,1.358-3.88.291-7.177.533-9.457.63-.194,0-.436.049-.824.049-11.057,1.018-18.04-2.231-20.756-9.7-1.648-4.558-1.648-13.627-1.6-17.943v-3.152l-.873,1.6a58.078,58.078,0,0,0-7.225,22.841c-.728,13.966,6.546,19.01,12.075,21.532a39.477,39.477,0,0,0,13.626,3.2h.1a5.747,5.747,0,0,0,1.31.1,13.312,13.312,0,0,1,1.891.194c-1.067.194-2.425.437-3.637.631-1.309.242-2.522.436-3.152.582-1.309.29-6.886,1.551-9.844,2.618-2.522.873-5.286,2.182-5.335,2.182l-.485.243.34.436c.048.049.97,1.31,1.891,2.28a17.975,17.975,0,0,0,13.966,4.558,27.822,27.822,0,0,0,9.166-2.425c.339,1.116,1.164,3.734,1.988,5.771,2.376,5.868,7.759,17.119,9.8,21,1.649,3.152,3.249,5.965,4.364,7.808l.388.679a5.437,5.437,0,0,1-1.842,2.521c-.194.146-.291.291-.437.388l-.1.146v.194c-.048,1.067-.291,10.863,6.353,17.991l.048.1.1.049a38.059,38.059,0,0,0,14.549,2.57c7.08,0,13.045-1.7,15.13-2.716l.1-.048.048-.049c4.607-5.48,6.741-13.724,6.79-16.682v-.194l-.146-.145-.339-.34a6.671,6.671,0,0,1-2.134-3.588c.582-.97,1.649-3.3,2.57-5.141.485-1.067.921-1.94,1.164-2.424,1.94-3.831,7.662-16.1,9.941-21.871,1.455-3.686,2.231-5.48,2.57-6.256a24.58,24.58,0,0,0,8.826,2.279c6.644.679,12.948-3.734,14.694-6.159.291-.388.776-.97.825-1.018l.388-.485-.534-.242c-.048,0-.242-.1-1.261-.437L1479,756.707l-3.637-1.213c-1.019-.339-5.48-1.309-8.729-2.036l-2.474-.534.825-.145C1472.6,751.178,1492.723,747.638,1491.559,727.707Z"/><path d="M1491.559,727.707c-.534-9.408-4.753-17.8-7.226-22.841l-.291-.582-1.115-2.182.242,2.425c.291,3.346,1.067,14.839-2.376,21.386-4.267,8.826-16.731,7.953-20.853,7.71h-.291c-6.74-.436-28.66-1.212-35.4-1.212-8.875.049-18.671.776-26.575,1.358-3.88.291-7.177.533-9.457.63-.194,0-.436.049-.824.049-11.057,1.018-18.04-2.231-20.756-9.7-1.648-4.558-1.648-13.627-1.6-17.943v-3.152l-.873,1.6a58.078,58.078,0,0,0-7.225,22.841c-.728,13.966,6.546,19.01,12.075,21.532a39.477,39.477,0,0,0,13.626,3.2h.1a5.747,5.747,0,0,0,1.31.1,13.312,13.312,0,0,1,1.891.194c-1.067.194-2.425.437-3.637.631-1.309.242-2.522.436-3.152.582-1.309.29-6.886,1.551-9.844,2.618-2.522.873-5.286,2.182-5.335,2.182l-.485.243.34.436c.048.049.97,1.31,1.891,2.28a17.975,17.975,0,0,0,13.966,4.558,27.822,27.822,0,0,0,9.166-2.425c.339,1.116,1.164,3.734,1.988,5.771,2.376,5.868,7.759,17.119,9.8,21,1.649,3.152,3.249,5.965,4.364,7.808l.388.679a5.437,5.437,0,0,1-1.842,2.521c-.194.146-.291.291-.437.388l-.1.146v.194c-.048,1.067-.291,10.863,6.353,17.991l.048.1.1.049a38.059,38.059,0,0,0,14.549,2.57c7.08,0,13.045-1.7,15.13-2.716l.1-.048.048-.049c4.607-5.48,6.741-13.724,6.79-16.682v-.194l-.146-.145-.339-.34a6.671,6.671,0,0,1-2.134-3.588c.582-.97,1.649-3.3,2.57-5.141.485-1.067.921-1.94,1.164-2.424,1.94-3.831,7.662-16.1,9.941-21.871,1.455-3.686,2.231-5.48,2.57-6.256a24.58,24.58,0,0,0,8.826,2.279c6.644.679,12.948-3.734,14.694-6.159.291-.388.776-.97.825-1.018l.388-.485-.534-.242c-.048,0-.242-.1-1.261-.437L1479,756.707l-3.637-1.213c-1.019-.339-5.48-1.309-8.729-2.036l-2.474-.534.825-.145c7.613-1.6,27.739-5.141,26.575-25.072"/><path class="c" d="M1364.261,707.533c-.242,5.189-.194,10.863,1.019,15.81-1.116-1.019-2.231-2.183-3.4-3.153-1.018,1.164-1.988,2.377-3.055,3.492a63.994,63.994,0,0,1,5.431-16.149Z"/><path class="d" d="M1364.261,707.533c-.242,5.189-.194,10.863,1.019,15.81-1.116-1.019-2.231-2.183-3.4-3.153-1.018,1.164-1.988,2.377-3.055,3.492a63.994,63.994,0,0,1,5.431-16.149Z"/><path class="c" d="M1489.522,721.354l.339,1.407-2.715-1.94c-1.213.533-2.376,1.309-3.54,1.843a67.61,67.61,0,0,0,.727-15.421c2.425,4.413,3.734,9.262,5.189,14.111"/><path class="d" d="M1489.522,721.354l.339,1.407-2.715-1.94c-1.213.533-2.376,1.309-3.54,1.843a67.61,67.61,0,0,0,.727-15.421C1486.758,711.656,1488.067,716.505,1489.522,721.354Z"/><path class="c" d="M1424.346,770.528c2.861,4.364,8,5.576,12.8,4.364a23.943,23.943,0,0,0,5.141-1.794,43.507,43.507,0,0,0-2.425,14.742A40.341,40.341,0,0,0,1442,800.691a21.717,21.717,0,0,1-2.134-1.067c-9.505-4.8-22.938-4.607-32.3.34.436-1.5.921-3.152,1.26-4.7a39.5,39.5,0,0,0-2.085-21.386c5.092,2.133,12.463,2.57,16.537-2.086a14.485,14.485,0,0,1,1.067-1.26"/><path class="d" d="M1424.346,770.528c2.861,4.364,8,5.576,12.8,4.364a23.943,23.943,0,0,0,5.141-1.794,43.507,43.507,0,0,0-2.425,14.742A40.341,40.341,0,0,0,1442,800.691a21.717,21.717,0,0,1-2.134-1.067c-9.505-4.8-22.938-4.607-32.3.34.436-1.5.921-3.152,1.26-4.7a39.5,39.5,0,0,0-2.085-21.386c5.092,2.133,12.463,2.57,16.537-2.086A14.485,14.485,0,0,1,1424.346,770.528Z"/><path class="c" d="M1403.1,774.116c-.194,2.037-.921,4.316-3.055,5.092-1.794.485-3.4-.485-4.559-1.746a5.03,5.03,0,0,1-1.066-2.085c2.715,1.746,6.255.34,8.632-1.309Z"/><path class="d" d="M1403.1,774.116c-.194,2.037-.921,4.316-3.055,5.092-1.794.485-3.4-.485-4.559-1.746a5.03,5.03,0,0,1-1.066-2.085c2.715,1.746,6.255.34,8.632-1.309Z"/><path class="c" d="M1454.267,774.359a6.363,6.363,0,0,1-4.122,4.122,3.648,3.648,0,0,1-3.589-1.746,5.9,5.9,0,0,1-.873-2.279c2.473,1.891,6.207,1.454,8.584-.1"/><path class="d" d="M1454.267,774.359a6.363,6.363,0,0,1-4.122,4.122,3.648,3.648,0,0,1-3.589-1.746,5.9,5.9,0,0,1-.873-2.279C1448.156,776.347,1451.89,775.91,1454.267,774.359Z"/><path class="c" d="M1448.981,779.6a6.352,6.352,0,0,0,3.006-.339c-2.715,6.74-5.964,13.287-9.311,19.737-1.163-3.2-.872-6.741-.678-10.33a66.566,66.566,0,0,1,2.812-12.56c.873,1.6,2.376,3.25,4.171,3.492"/><path class="d" d="M1448.981,779.6a6.352,6.352,0,0,0,3.006-.339c-2.715,6.74-5.964,13.287-9.311,19.737-1.163-3.2-.872-6.741-.678-10.33a66.566,66.566,0,0,1,2.812-12.56C1445.683,777.705,1447.186,779.354,1448.981,779.6Z"/><path class="c" d="M1406.548,798.945l-.048.049a134.336,134.336,0,0,1-10.136-19.4c1.358.727,3.54,1.212,4.947.243a7.163,7.163,0,0,0,2.619-3.88c3.3,6.692,4.073,15.421,2.618,22.986"/><path class="d" d="M1406.548,798.945l-.048.049a134.336,134.336,0,0,1-10.136-19.4c1.358.727,3.54,1.212,4.947.243a7.163,7.163,0,0,0,2.619-3.88C1407.227,782.651,1408,791.38,1406.548,798.945Z"/><path class="c" d="M1444.81,804.231a29.172,29.172,0,0,1-6.45,15.47c-8.486,3.3-19.882,3.637-28.369.048-4.122-4.51-5.674-10.329-5.916-16.536,8.971-6.547,23.035-8,33.316-3.3a34.478,34.478,0,0,1,7.419,4.316"/><path class="d" d="M1444.81,804.231a29.172,29.172,0,0,1-6.45,15.47c-8.486,3.3-19.882,3.637-28.369.048-4.122-4.51-5.674-10.329-5.916-16.536,8.971-6.547,23.035-8,33.316-3.3A34.478,34.478,0,0,1,1444.81,804.231Z"/><path class="c" d="M1479.629,757.531a77.017,77.017,0,0,0-23.811-4.461c-.727-8.584-1.7-13.967-3.394-18.816-3.977-.243-21.532-.922-28.321-.922s-24.053,1.067-27.981,1.31a78.406,78.406,0,0,0-4.268,18.864,96.508,96.508,0,0,0-25.314,5.334c-1.066.388-1.5.776-1.551.728a16.523,16.523,0,0,0,12.317,6.11,25.835,25.835,0,0,0,9.505-1.649c.776-.339,2.376-1.018,2.376-1.018a14.438,14.438,0,0,1,.776,1.649c.776,2.182,1.746,5.334,2.425,6.692a5.912,5.912,0,0,0,5.286,3.686,5.815,5.815,0,0,0,4.413-2.328c-6.838-.34-9.7-4.025-10.136-9.505-1.6-.291-2.085-.436-2.279-1.309a3.756,3.756,0,0,1,.728-2.862c.775-1.018,2.085-2.036,5.334-1.018a14.441,14.441,0,0,1,5.043,3.1c1.407,1.261,5.529,5.528,8,6.983,2.619,1.552,7.662,2.958,10.911-.243a13.212,13.212,0,0,0,3.928-7.371,133.2,133.2,0,0,1-15.373-1.358c-1.406-.194-.775-1.5.291-1.212,0,0,8.972,1.164,15.276,1.212.049-.727.049-2.036.1-3.443a97.3,97.3,0,0,1-15.954-1.7c-1.213-.242-.97-1.6.145-1.309a119.694,119.694,0,0,0,15.809,1.6c0-1.115.049-2.716.049-4.219a103.276,103.276,0,0,1-15.664-1.406c-1.261-.194-1.018-1.358,0-1.261a125.583,125.583,0,0,0,15.664,1.261v-3.443c0-1.358,1.164-1.407,1.164-.1,0,.485.048,1.794.048,3.491a116.549,116.549,0,0,0,14.742-1.406c1.552-.291,1.407.97.679,1.115a104.822,104.822,0,0,1-15.469,1.746c0,1.261.048,2.861.048,4.219,4.752-.194,10.281-.339,15.033-1.406,1.8-.388,1.94.97.437,1.212a120.675,120.675,0,0,1-15.421,1.6c.048,1.164.048,2.571.1,3.492a136.759,136.759,0,0,0,16.052-1.455c1.261-.194,1.5,1.115.194,1.309-1.358.194-10.281,1.358-16,1.5.582,1.94.679,4.752,3.443,7.128,2.667,2.328,7.226,2.086,10.426.243,2.474-1.455,6.45-5.771,7.856-7.032,1.164-1.018,3.928-3.588,7.663-3.54,3.685.1,3.734,1.988,3.928,2.522a1.775,1.775,0,0,1-.485,2.134c-.679.388-1.261.291-1.892.582-.485,3.006-1.406,6.4-3.782,8.2a13.985,13.985,0,0,1-6.547,2.182,8.8,8.8,0,0,0,.727.776,5.169,5.169,0,0,0,3.541.922,8.151,8.151,0,0,0,4.364-2.231c1.212-1.6,2.376-4.947,3.249-7.129.34-.824,1.067-2.279,1.31-2.909.775.339,1.115.581,2.521,1.115a23.882,23.882,0,0,0,8.923,1.552c3.783-.1,8.1-2.376,10.669-4.8.436-.437,1.309-1.455,1.309-1.455s-2.473-1.018-3.152-1.261"/><path class="d" d="M1479.629,757.531a77.017,77.017,0,0,0-23.811-4.461c-.727-8.584-1.7-13.967-3.394-18.816-3.977-.243-21.532-.922-28.321-.922s-24.053,1.067-27.981,1.31a78.406,78.406,0,0,0-4.268,18.864,96.508,96.508,0,0,0-25.314,5.334c-1.066.388-1.5.776-1.551.728a16.523,16.523,0,0,0,12.317,6.11,25.835,25.835,0,0,0,9.505-1.649c.776-.339,2.376-1.018,2.376-1.018a14.438,14.438,0,0,1,.776,1.649c.776,2.182,1.746,5.334,2.425,6.692a5.912,5.912,0,0,0,5.286,3.686,5.815,5.815,0,0,0,4.413-2.328c-6.838-.34-9.7-4.025-10.136-9.505-1.6-.291-2.085-.436-2.279-1.309a3.756,3.756,0,0,1,.728-2.862c.775-1.018,2.085-2.036,5.334-1.018a14.441,14.441,0,0,1,5.043,3.1c1.407,1.261,5.529,5.528,8,6.983,2.619,1.552,7.662,2.958,10.911-.243a13.212,13.212,0,0,0,3.928-7.371,133.2,133.2,0,0,1-15.373-1.358c-1.406-.194-.775-1.5.291-1.212,0,0,8.972,1.164,15.276,1.212.049-.727.049-2.036.1-3.443a97.3,97.3,0,0,1-15.954-1.7c-1.213-.242-.97-1.6.145-1.309a119.694,119.694,0,0,0,15.809,1.6c0-1.115.049-2.716.049-4.219a103.276,103.276,0,0,1-15.664-1.406c-1.261-.194-1.018-1.358,0-1.261a125.583,125.583,0,0,0,15.664,1.261v-3.443c0-1.358,1.164-1.407,1.164-.1,0,.485.048,1.794.048,3.491a116.549,116.549,0,0,0,14.742-1.406c1.552-.291,1.407.97.679,1.115a104.822,104.822,0,0,1-15.469,1.746c0,1.261.048,2.861.048,4.219,4.752-.194,10.281-.339,15.033-1.406,1.8-.388,1.94.97.437,1.212a120.675,120.675,0,0,1-15.421,1.6c.048,1.164.048,2.571.1,3.492a136.759,136.759,0,0,0,16.052-1.455c1.261-.194,1.5,1.115.194,1.309-1.358.194-10.281,1.358-16,1.5.582,1.94.679,4.752,3.443,7.128,2.667,2.328,7.226,2.086,10.426.243,2.474-1.455,6.45-5.771,7.856-7.032,1.164-1.018,3.928-3.588,7.663-3.54,3.685.1,3.734,1.988,3.928,2.522a1.775,1.775,0,0,1-.485,2.134c-.679.388-1.261.291-1.892.582-.485,3.006-1.406,6.4-3.782,8.2a13.985,13.985,0,0,1-6.547,2.182,8.8,8.8,0,0,0,.727.776,5.169,5.169,0,0,0,3.541.922,8.151,8.151,0,0,0,4.364-2.231c1.212-1.6,2.376-4.947,3.249-7.129.34-.824,1.067-2.279,1.31-2.909.775.339,1.115.581,2.521,1.115a23.882,23.882,0,0,0,8.923,1.552c3.783-.1,8.1-2.376,10.669-4.8.436-.437,1.309-1.455,1.309-1.455S1480.308,757.774,1479.629,757.531Z"/><path d="M1438.748,805.153a3.871,3.871,0,0,1-.63,3.928,5.61,5.61,0,0,1-5.916,1.939,5.855,5.855,0,0,1-3.249-2.473c-.34,1.116.436,1.891.388,2.91a.417.417,0,0,1-.631.048,5.578,5.578,0,0,1-.63-5.916,6.4,6.4,0,0,1,6.6-3.2,5.425,5.425,0,0,1,4.073,2.765"/><path class="d" d="M1438.748,805.153a3.871,3.871,0,0,1-.63,3.928,5.61,5.61,0,0,1-5.916,1.939,5.855,5.855,0,0,1-3.249-2.473c-.34,1.116.436,1.891.388,2.91a.417.417,0,0,1-.631.048,5.578,5.578,0,0,1-.63-5.916,6.4,6.4,0,0,1,6.6-3.2A5.425,5.425,0,0,1,1438.748,805.153Z"/><path d="M1420.03,805.977c1.066,1.794.582,4.17-.437,5.819-.145.243-.388.534-.727.291-.437-.582.194-1.067.242-1.6a3.212,3.212,0,0,0,.049-1.358,5.92,5.92,0,0,1-6.014,2.522,5.434,5.434,0,0,1-3.879-3.3,3.562,3.562,0,0,1,.485-3.2,6.216,6.216,0,0,1,6.983-1.843,5.974,5.974,0,0,1,3.3,2.667"/><path class="d" d="M1420.03,805.977c1.066,1.794.582,4.17-.437,5.819-.145.243-.388.534-.727.291-.437-.582.194-1.067.242-1.6a3.212,3.212,0,0,0,.049-1.358,5.92,5.92,0,0,1-6.014,2.522,5.434,5.434,0,0,1-3.879-3.3,3.562,3.562,0,0,1,.485-3.2,6.216,6.216,0,0,1,6.983-1.843A5.974,5.974,0,0,1,1420.03,805.977Z"/><path d="M1438.6,817.761a4.046,4.046,0,0,1-.582.776c-.873-.242-1.794-.582-2.667-.921-7.759-2.959-17.652-2.134-24.975.921a1.542,1.542,0,0,1-.436-.727c8.486-3.831,20.125-4.268,28.66-.049"/><path class="d" d="M1438.6,817.761a4.046,4.046,0,0,1-.582.776c-.873-.242-1.794-.582-2.667-.921-7.759-2.959-17.652-2.134-24.975.921a1.542,1.542,0,0,1-.436-.727C1418.429,813.979,1430.068,813.542,1438.6,817.761Z"/><path d="M1440.009,776.541c-1.309,6.11-5.189,13.142-11.638,14.936-5.141,1.358-10.912.291-14.355-3.976a19.369,19.369,0,0,1-4.122-10.718,1.1,1.1,0,0,1,.776-.194c.534,5.82,3.54,12.221,9.36,14.015a13.677,13.677,0,0,0,14.6-4.267,26.015,26.015,0,0,0,4.607-10.136,1.374,1.374,0,0,1,.776.34"/><path class="d" d="M1440.009,776.541c-1.309,6.11-5.189,13.142-11.638,14.936-5.141,1.358-10.912.291-14.355-3.976a19.369,19.369,0,0,1-4.122-10.718,1.1,1.1,0,0,1,.776-.194c.534,5.82,3.54,12.221,9.36,14.015a13.677,13.677,0,0,0,14.6-4.267,26.015,26.015,0,0,0,4.607-10.136A1.374,1.374,0,0,1,1440.009,776.541Z"/><path d="M1363.679,669.465a6.3,6.3,0,0,0-4.413-1.551c-1.746.048-8.389,2.279-8.389,12.123s5.965,13,9.553,13,7.226-2.716,8.39-7.517c.194-.679.048-.776-.631-1.115l-2.328-.873c-.533-.194-.581-.194-.921.776-.242.63-1.261,3.491-3.637,3.491s-3.443-3.54-3.443-7.225.63-7.178,3.588-7.178,3.589,3.153,3.783,4.316c.1.485.146.534.727.534h2.183c.436,0,.436-.049.436-1.067v-8c0-.533-.1-.533-.97-.533h-1.94c-.387,0-.387.1-.678.63a.767.767,0,0,1-1.31.194"/><path d="M1452.23,673.393l4.51,14.209c.242.631.242.679.582.679H1458c.727,0,.727.049.727.631v2.715c0,.922-.048.922-.533.922h-8.923c-.728,0-.728-.049-.728-.582v-2.813c-.048-.824.049-.873.631-.873h.873c.485,0,.485-.1.291-.679l-.679-2.133c-.194-.437-.291-.437-.825-.437H1443.4l1.164-3.249h3.3c.582,0,.631-.048.485-.485l-1.988-6.256c-.1-.388-.242-.388-.339-.048l-2.037,6.3c-.146.485-.1.485.63.485l-1.164,3.249c-.63,0-.63,0-.776.437L1442,687.6c-.194.631-.194.679.194.679h.921c.63,0,.63.1.63.873v2.813c0,.533-.048.582-.727.582h-6.159c-.533,0-.533-.049-.533-.922V688.96c0-.582.048-.63.727-.63h.582a.593.593,0,0,0,.631-.485l4.606-14.355c.146-.387.146-.484-.581-.484h-.825c-.679,0-.727-.049-.727-.631v-2.861c0-.824.048-.824,1.018-.824h11.881c.679,0,.728.1.728.872v2.668c0,.63-.049.63-.922.63h-.921c-.437-.048-.437.1-.291.533"/><path d="M1473.713,684.159h1.552c.727,0,.727.1.727.534,0,1.357-1.018,3.1-3.588,3.1-2.377,0-3.444-3.54-3.444-7.225s.631-7.178,3.589-7.178a3.772,3.772,0,0,1,3.783,2.91c.1.485.1.534.727.534h2.182c.437,0,.437-.049.437-1.067v-6.6c0-.533-.049-.533-.97-.533h-1.94c-.388,0-.436.049-.679.63-.145.34-.63.776-1.309.194a6.387,6.387,0,0,0-4.413-1.551c-1.746.048-8.39,2.279-8.39,12.123s5.917,13,9.554,13c5.431,0,9.65-4.074,9.65-11.881,0-.776-.1-.825-1.164-.825h-6.45c-.63,0-.679.049-.679.776v2.57c0,.485.049.485.825.485"/><path d="M1494.565,668.544c-5.867,0-10.62,5.528-10.62,12.318s4.753,12.269,10.62,12.269,10.621-5.48,10.621-12.269-4.753-12.318-10.621-12.318l-.048,4.413c2.182,0,3.976,3.54,3.976,7.905s-1.745,7.9-3.976,7.9c-2.182,0-3.977-3.54-3.977-7.9s1.795-7.905,3.977-7.905Z"/><path d="M1375.463,687.748V673.539c0-.485-.048-.582-.582-.582h-.679c-.727,0-.727-.1-.727-.533v-3.153c0-.533.049-.63.873-.63h8.341c.63,0,.727.049.727.679v2.861c0,.631-.1.631-.727.631h-.436c-.388,0-.437,0-.388.533v4.074c0,1.018,0,1.115.872,1.115h4.462c.873,0,.873-.049.873-1.115v-4.074c0-.533-.049-.533-.388-.533h-.437c-.727,0-.775-.049-.775-.631V669.32c0-.63.1-.679.727-.679h8.341c.873,0,.873.049.873.63v3.153c0,.485-.049.533-.728.533h-.727c-.533,0-.533.049-.533.582v14.209c0,.533.048.533.679.533h.727c.582,0,.582.049.582.873v2.813c0,.485,0,.582-.728.582h-8.825c-.582,0-.582,0-.582-.922v-2.715c-.049-.631,0-.631.727-.631h.436c.534,0,.534-.048.534-.63v-4.365c0-1.067-.049-1.115-.776-1.115h-4.462c-.727,0-.775.1-.775,1.115v4.365c0,.63,0,.63.533.63h.436c.728,0,.728.049.728.631v2.715c0,.922,0,.922-.582.922H1374.2c-.727,0-.727,0-.727-.582v-2.813c0-.824.049-.873.582-.873h.727c.679,0,.679,0,.679-.533"/><path d="M1402.669,673.393c0-.533-.049-.533-.388-.533h-.825c-.727,0-.776-.048-.776-.63v-2.91c0-.63.1-.679.728-.679h8.341c.873,0,.873.049.873.63v3.153c0,.485-.049.533-.728.533h-.388c-.533,0-.533.049-.533.582v14.209c0,.533.048.533.679.533h.582c.582,0,.582.049.582.873v2.813c0,.485,0,.582-.728.582h-8.826c-.582,0-.582,0-.582-.922v-2.715c-.048-.631,0-.631.728-.631h.679c.533,0,.582,0,.582-.582V673.393Z"/><path d="M1426.916,669.465a6.386,6.386,0,0,0-4.413-1.551c-1.746.048-8.39,2.279-8.39,12.123s5.917,13,9.554,13c3.588,0,7.225-2.716,8.389-7.517.194-.679.049-.776-.63-1.115l-2.328-.873c-.533-.194-.582-.194-.921.776-.243.63-1.261,3.491-3.637,3.491s-3.444-3.54-3.444-7.225.631-7.178,3.589-7.178,3.589,3.153,3.783,4.316c.1.485.145.534.727.534h2.182c.437,0,.437-.049.437-1.067v-8c0-.533-.1-.533-.97-.533h-1.94c-.388,0-.388.1-.679.63a.766.766,0,0,1-1.309.194"/><path d="M1374.106,703.848v14.063c0,.485-.1.534-.582.534h-.776c-.582,0-.679.1-.631.776v2.909c0,.534.1.582.728.582h13l-4.413-4.51c-.921,0-.97,0-.97-.921v-4.074c0-.776.049-.824.97-.824V708.7c-.97,0-.97-.048-.97-.824v-4.122c0-.824.049-.873.873-.873.873,0,4.268.1,4.268,3.055s-3.152,2.813-4.171,2.813v3.685c.873,0,4.171.1,4.171,3.056,0,2.909-3.152,2.812-4.171,2.812l4.413,4.51c3.249,0,5.674-2.909,5.674-6.256s-2.134-4.655-3.831-5.867c1.212-.97,3.346-2.328,3.346-5.723,0-3.685-3.686-6.062-5.916-6.062h-11.978c-.97,0-1.019.049-1.019.776v3.056c0,.484.049.533.728.533h.776c.485-.146.485-.049.485.582"/><path d="M1413.725,703.6v12.173c0,3.1-1.6,7.662-7.759,7.662s-9.117-4.559-9.117-7.662V703.6c0-.533-.1-.533-.533-.533h-.728c-.727,0-.727-.048-.727-.63v-2.765c0-.921.1-.921.921-.921h8.293c.63,0,.727.049.727.776V702.3c0,.631-.048.631-.921.631h-.679c-.388,0-.436.048-.436.533v11.833a3.5,3.5,0,0,0,3.588,3.491,3.331,3.331,0,0,0,3.589-3.491V703.557c0-.63-.049-.63-.631-.63h-.582c-.727,0-.824-.049-.824-.631v-2.764c0-.679,0-.776.727-.776h6.159c1.019,0,1.019,0,1.019.824v2.862c0,.63,0,.63-.728.63h-.824c-.485.048-.534.048-.534.533"/><path d="M1442.676,718.445h-.824c-.582,0-.63.1-.63.873v2.812c0,.582.048.582.727.582h15.276c.679,0,.727,0,.727-.921v-6.886c0-.631-.048-.631-.727-.631h-2.231c-.679,0-.727.049-.727.873v2.425c0,.921-.1.97-.728.97h-3.394c-1.019,0-1.067-.1-1.067-.728V703.993c0-.921,0-.969.533-.969h.825c.678,0,.678-.049.678-.631v-2.667c0-.825,0-.873-.727-.873h-8.195c-1.019,0-1.019.048-1.019.824v2.862c0,.581.049.63.728.63h.678c.582,0,.582.048.582.873v13.772c.049.582,0,.631-.485.631"/><path d="M1478.126,716.068a7.373,7.373,0,0,1-6.789,7.226,7.606,7.606,0,0,1-4.413-1.552c-.679-.582-1.358.1-1.552.388-.34.582-.388.631-.679.631h-.97c-1.018,0-.97,0-.97-.534v-6.595c0-1.067.049-1.067.437-1.067h1.5c.582,0,.582.049.727.534a4.61,4.61,0,0,0,4.316,3.249c1.164,0,2.134-.291,2.134-1.358,0-2.231-1.309-2.764-3.637-3.977s-5.868-2.618-5.868-7.71a7.213,7.213,0,0,1,6.692-7.177,6.691,6.691,0,0,1,4.219,1.6c.679.582,1.358-.1,1.552-.388.388-.63.388-.63.679-.63h1.019c.921,0,.969,0,.969.533v6.595c0,1.019,0,1.067-.436,1.067h-1.5c-.582,0-.582-.048-.728-.533a4.955,4.955,0,0,0-4.558-3.25,1.466,1.466,0,0,0-1.6,1.552c0,1.407,1.552,2.619,4.219,3.928,2.619,1.261,5.238,3.249,5.238,7.468"/><path d="M1421.436,718.445h-.824c-.582,0-.631.1-.631.873v2.812c0,.582.049.582.728.582h15.275c.679,0,.728,0,.728-.921v-6.886c0-.631-.049-.631-.728-.631h-2.23c-.679,0-.728.049-.728.873v2.425c0,.921-.1.97-.727.97H1428.9c-1.018,0-1.067-.1-1.067-.728V703.993c0-.921,0-.969.534-.969h.824c.679,0,.679-.049.679-.631v-2.667c0-.825,0-.873-.727-.873h-8.2c-1.018,0-1.018.048-1.018.824v2.862c0,.581.048.63.727.63h.679c.582,0,.582.048.582.873v13.772c.048.582,0,.631-.485.631"/><path class="a" d="M1366.589,727.319c3.346,6.45,10.087,8.535,16.973,8.2,3.831-.049,7.517-.437,11.3-.679v.242a81.891,81.891,0,0,0-3.976,16.682c-9.942.388-20.126-.436-27.448-7.08-4.995-5.043-6.256-11.978-5.141-18.864,1.164-1.406,2.425-2.57,3.637-3.977,1.649,1.746,4.219,3.152,4.656,5.48"/><path class="a" d="M1490.152,724.458a20.311,20.311,0,0,1,.388,3.007c.485,7.662-2.812,14.693-9.359,18.573-7.129,4.316-15.373,5.771-24.15,6.013-.146-.776-.243-1.794-.34-2.667a103.161,103.161,0,0,0-3.055-14.936c9.36-.1,20.756,2.376,26.963-6.256.824-1.212,1.649-2.279,2.376-3.589,1.407-.63,2.716-1.5,4.074-2.23,1.164.533,1.988,1.455,3.1,2.085"/><path class="a" d="M1454.558,763.156c.048,2.959-.922,5.965-3.541,7.372a7.766,7.766,0,0,1-4.025.873,1.755,1.755,0,0,1-.048-.873,5.988,5.988,0,0,0,5.334-2.474,8.906,8.906,0,0,0,1.116-4.413,3.12,3.12,0,0,1,1.164-.485"/><path class="a" d="M1401.65,771.11a2.886,2.886,0,0,1-1.309,0,6.868,6.868,0,0,1-6.838-7.42,2.034,2.034,0,0,1,1.31.048c0,2.668,1.066,6.305,6.692,6.305.388.582,0,.63.145,1.067"/></g><rect class="e" width="200" height="200"/></svg>