<svg xmlns="http://www.w3.org/2000/svg" width="200" height="200" viewBox="0 0 200 200"><defs><style>.a{fill:#fff;}.b{fill:#c4ced4;}.c{fill:none;mix-blend-mode:multiply;isolation:isolate;}</style></defs><g transform="translate(-696.482 -1868.895)"><path class="a" d="M773.549,1993.477l-6.085,9.036,10-3.273,4.057,9.774,3.043-10.512,11.25,2.906-7.284-8.437,8.759-7.239-7.838.461,5.164-5.809h10.1l11.526-20.424V1946.5h-8.161l-3.919,6.961-.738,5.256-5.9,10.465h-5.394l5.3-9.359v-13.278h-8.483l-3.781,6.915-.691,5.3-9.221,16.459,1.429,3.642-1.8-1.937.738,9.958-10.742.461Zm4.564-13h3.827l-1.153,2.9Z" transform="translate(-2.781 -0.868)"/><path d="M727.109,1969.568c-3.32.83-6.685,1.752-9.959,2.674-.369.092-.738.23-1.06.322v-8.344c.507-.139.968-.277,1.475-.415q4.081-1.175,8.161-2.213c.461-.138.968-.23,1.429-.368v4.518q3.8-.969,7.607-1.8v-5.533c-.877-1.337-1.752-2.673-2.674-4.057-.646.138-1.291.322-1.937.461h-.092c-5.44,1.291-10.834,2.766-16.182,4.38-.184.046-.369.138-.6.184-.691.184-1.337.415-2.028.646-.922,1.89-1.8,3.78-2.674,5.624h0v11.2c1.337.922,2.674,1.844,4.058,2.812,1.106-.322,2.212-.691,3.319-1.014,3.412-1.013,6.823-1.936,10.235-2.812l1.107-.277v8.667c-.461.139-.969.231-1.43.369-2.812.738-5.624,1.475-8.437,2.305-.461.138-.968.277-1.429.415V1982.8c-2.49.738-5.025,1.521-7.515,2.305v5.578h0c.876,1.245,1.752,2.536,2.628,3.781.646-.184,1.291-.415,1.982-.6.231-.047.415-.139.646-.184,5.441-1.66,10.927-3.135,16.459-4.472.691-.184,1.337-.323,2.029-.461.921-1.8,1.8-3.6,2.72-5.349v-11.525c-1.338-1.061-2.72-2.168-4.057-3.228-1.383.323-2.581.646-3.78.922" transform="translate(0 -1.255)"/><path d="M891.774,1979.108l-4.011-5.394-3.6-1.106c-3.32-.969-6.639-1.891-9.959-2.721l-1.107-.277v-8.39c.508.138.969.23,1.476.368q4.08,1.038,8.161,2.213c.46.139.968.277,1.429.415v4.518c2.535.738,5.025,1.521,7.514,2.305v-5.532c-.876-1.844-1.751-3.643-2.628-5.486-.646-.185-1.291-.416-1.937-.6-.046,0-.046,0-.092-.046q-8.021-2.49-16.182-4.426c-.184-.046-.414-.092-.6-.138-.692-.184-1.383-.323-2.075-.508l-2.766,4.15v11.2c1.382,1.66,2.72,3.365,4.1,5.025,1.107.277,2.259.553,3.366.83q5.116,1.313,10.234,2.766c.369.092.738.231,1.061.323v8.667c-.461-.139-.969-.277-1.429-.416-2.813-.83-5.625-1.567-8.437-2.3-.461-.139-.968-.231-1.429-.369v-4.564q-3.8-.968-7.607-1.8v5.579h0c.877,1.752,1.752,3.5,2.674,5.256.646.138,1.337.322,1.982.461.231.046.415.092.645.138,5.532,1.337,11.019,2.812,16.458,4.519.692.183,1.338.415,1.983.6.876-1.291,2.628-3.919,2.628-3.919.138.138.138-7.515.138-11.342" transform="translate(-7.73 -1.253)"/><path d="M766.307,1948.518c-.23.046-.414.046-.646.092-7.192.829-14.338,1.936-21.438,3.273v34.392c2.536-.507,5.118-.968,7.7-1.382v-11.987c4.564-.738,9.174-1.383,13.738-1.937.231-.046.416-.046.646-.092.692-.092,1.383-.138,2.074-.23.969-1.8,1.937-3.55,2.951-5.349v-12.355c-.968-1.568-1.937-3.181-2.951-4.749-.691.139-1.382.231-2.074.323m-2.72,7.514v9.728c-.6.092-1.152.139-1.752.231-3.319.415-6.639.922-9.912,1.429V1955.94c3.319-.553,6.593-1.014,9.912-1.429.6-.092,1.153-.139,1.752-.231Z" transform="translate(-1.762 -0.952)"/><path d="M853.176,1969.575c.922-.368,1.8-.691,2.72-1.06V1956.62l-4.841-5.671c-7.469-1.291-14.937-2.305-22.452-3v34.392q3.873.346,7.746.83v-13.462c1.982.23,3.964.507,5.947.783.645.092,1.338.184,1.983.277,1.337.184,2.628.415,3.964.6v13.462c.139,0,.277.047.414.047,2.444.415,4.841.829,7.285,1.29v-14.614c-.969-.646-1.844-1.291-2.767-1.983M846.4,1965.7c-3.365-.507-6.731-1.014-10.1-1.383v-10.143c3.412.415,6.777.876,10.189,1.43.553.092,1.153.184,1.707.276v10.142c-.6-.138-1.2-.23-1.8-.322" transform="translate(-5.923 -0.94)"/><path d="M742.262,1938.781c-1.107.185-2.168.415-3.228.646-.139.046-.231.046-.369.092V1936.8c.138-.046.322-.046.461-.092.876-.185,1.752-.322,2.674-.507.138-.047.322-.047.461-.092v1.475c.829-.139,1.659-.323,2.489-.461v-1.8c-.277-.461-.553-.877-.876-1.338a3.087,3.087,0,0,1-.646.092h-.047c-1.751.323-3.5.646-5.255,1.014-.046,0-.138.047-.184.047-.23.046-.461.092-.646.138-.277.6-.6,1.152-.876,1.752v3.642c.461.369.876.691,1.337,1.06.369-.092.738-.138,1.107-.23,1.107-.231,2.213-.415,3.32-.646.138,0,.23-.047.369-.047v2.767c-.139.047-.323.047-.461.092-.922.184-1.844.369-2.767.507-.139.047-.323.047-.461.092v-1.475c-.83.184-1.66.322-2.443.507v1.8h0c.277.461.553.877.876,1.338.231-.047.415-.092.646-.139.092,0,.139-.046.231-.046,1.8-.369,3.55-.692,5.348-1.015.23-.047.461-.092.646-.139.277-.553.6-1.106.876-1.705h0v-3.734c-.461-.369-.876-.738-1.337-1.107-.415.092-.83.139-1.244.231" transform="translate(-1.368 -0.251)"/><path d="M751.434,1932.7c-1.013,3.873-2.028,7.745-3.089,11.618.784-.139,1.568-.277,2.352-.369.23-.876.415-1.752.645-2.582,1.2-.185,2.4-.369,3.643-.553.23.784.415,1.614.645,2.4.83-.138,1.706-.23,2.536-.369-1.014-3.6-2.029-7.145-3.089-10.7-1.245.185-2.444.369-3.643.553m.369,6.685c.461-1.844.922-3.687,1.338-5.578.461,1.706.876,3.458,1.337,5.164-.876.138-1.8.277-2.674.414" transform="translate(-1.965 -0.16)"/><path d="M768.277,1937.9c-1.291-2.351-2.628-4.656-3.919-7.007-.876.092-1.752.185-2.628.323v11.156l2.213-.277v-7.469l3.872,7.054c.876-.092,1.752-.184,2.674-.276v-11.157c-.738.092-1.475.139-2.213.231Z" transform="translate(-2.625 -0.067)"/><path d="M782.471,1929.421c-1.014,3.78-2.074,7.561-3.089,11.341.783-.046,1.568-.092,2.4-.138.231-.83.415-1.706.646-2.536,1.2-.092,2.444-.139,3.642-.184.231.83.415,1.66.646,2.489.877-.046,1.706-.092,2.582-.092-1.014-3.688-2.074-7.33-3.089-11.018q-1.937,0-3.734.139m.369,6.731c.461-1.8.922-3.642,1.383-5.44.461,1.751.876,3.55,1.337,5.3l-2.72.139" transform="translate(-3.496 -0.019)"/><path d="M800.137,1936.317c-1.291-2.49-2.628-4.933-3.919-7.376-.877,0-1.752.046-2.628.046v11.157c.737,0,1.474-.047,2.212-.047v-7.514c1.291,2.49,2.582,4.933,3.873,7.422h2.673v-11.111h-2.212Z" transform="translate(-4.196 0)"/><path d="M806.636,1930.976c1.013,0,2.028.046,3.042.092v9.128c.83.047,1.66.047,2.49.092v-9.128l3.042.138v-1.982q-4.287-.208-8.574-.277Z" transform="translate(-4.839 -0.007)"/><path d="M839.272,1938.655c-1.291-2.628-2.582-5.255-3.919-7.883l-2.629-.277v11.156c.738.092,1.476.139,2.213.231v-7.469c1.291,2.628,2.582,5.255,3.873,7.93.876.092,1.752.23,2.628.322v-11.156l-2.213-.277v7.422Z" transform="translate(-6.126 -0.079)"/><path d="M845.722,1933.8c.646.092,1.244.184,1.89.277v7.7c-.646-.092-1.245-.184-1.89-.277v1.705q3.112.415,6.224.968v-1.706c-.646-.092-1.245-.185-1.891-.322v-7.7c.646.092,1.245.184,1.891.323v-1.706l-6.224-.968v1.706" transform="translate(-6.767 -0.158)"/><path d="M827.465,1930.032c-.23,0-.461-.046-.691-.046h0l-5.349-.416h-.23c-.231,0-.461-.046-.692-.046-.322.507-.645,1.06-.968,1.568v7.838c.322.553.646,1.152.968,1.706.231,0,.461.046.692.046h.23c1.8.139,3.55.231,5.349.415h0c.23,0,.461.046.691.046.323-.507.646-1.06.968-1.567v-7.838c-.322-.553-.645-1.107-.968-1.707m-1.521,2.4v6.778c-.231,0-.415-.047-.646-.047-.877-.092-1.752-.138-2.628-.184-.231,0-.415-.046-.646-.046v-7.423c.23,0,.415.047.646.047.876.046,1.751.138,2.628.184.23,0,.414.046.646.046Z" transform="translate(-5.476 -0.031)"/><path d="M864.908,1937.07c-.322-.6-.646-1.245-.922-1.843l-.691-.139h0c-1.752-.369-3.5-.691-5.3-1.014a1.978,1.978,0,0,1-.23-.046l-.692-.139c-.322.508-.646.969-.922,1.475v7.838c.323.6.646,1.2.922,1.8l.692.139a1.988,1.988,0,0,1,.23.046c1.752.323,3.55.646,5.3,1.015h0l.691.139c.323-.508.645-.969.922-1.475Zm-2.443.369v6.777c-.231-.046-.414-.092-.646-.138-.875-.185-1.752-.323-2.628-.508-.231-.046-.415-.092-.646-.138v-7.423c.23.047.415.092.646.138.876.184,1.752.323,2.628.508.231.046.415.092.646.138v.646" transform="translate(-7.281 -0.246)"/><g transform="translate(765.836 1946.967)"><path d="M785.914,1959.291l-9.082,16.136,1.521,3.781h5.625l-2.582,6.5L776.6,1980.5l.552,7.653-8.344.369,6.639,4.656-4.7,7.053,7.607-2.489,3.135,7.561,2.4-8.253,8.483,2.167-5.486-6.315,6.731-5.579-6.962.415,7.561-8.529h9.913l10.972-19.456V1947.9H808.92l-3.55,6.316-.6,5.071-6.363,11.342h-8.344l6.224-10.973v-11.71h-6.455l-3.411,6.27Z" transform="translate(-768.81 -1947.904)"/><path class="b" d="M814.808,1949.747h-2.9l-2.213,3.919h3Z" transform="translate(-770.826 -1947.995)"/><path class="b" d="M795.061,1949.747h-3.089l-2.213,3.919h3.273Z" transform="translate(-769.843 -1947.995)"/><path class="b" d="M788.482,1975.257l-6.455,14.754-2.9-3.135.277,3.964-4.333.185,3.458,2.444-2.443,3.642,3.964-1.291,1.613,3.919,1.245-4.288,4.426,1.152-2.858-3.319,3.5-2.905-4.933.323h-.322l10.189-15.4h8.852l7.838-14.015h-3.043l-6.592,11.572H784.148l6.593-11.572h-3.089l-7.976,14.015h8.806Z" transform="translate(-769.118 -1948.564)"/><path class="b" d="M792.162,1955.566H789.3l-.369,3.365h2.951Z" transform="translate(-769.802 -1948.282)"/><path class="b" d="M812,1955.566h-2.812l-.369,3.365h2.9Z" transform="translate(-770.783 -1948.282)"/><path d="M780.867,1995.973a1.26,1.26,0,0,0,1.29-1.29,1.291,1.291,0,1,0-1.29,1.29" transform="translate(-769.341 -1950.147)"/></g></g><rect class="c" width="200" height="200"/></svg>