<svg xmlns="http://www.w3.org/2000/svg" width="200" height="200" viewBox="0 0 200 200"><defs><style>.a{fill:#0c2c56;}.b{fill:none;mix-blend-mode:multiply;isolation:isolate;}</style></defs><g transform="translate(-1025.596 -884.984)"><path class="a" d="M1184.788,1018.549v-78.88c.492-6.735,2.171-8.9,7.068-13.471-10.915-4.087-23.418-16.829-30.153-30.3-33.665,17.318-71.185,17.318-99.549-7.694-2.818-2.486-6.009-3.747-3.846.959,8.007,17.4,24.638,28.232,43.339,33.038-10.762,9.332-17.107,14.83-18.517,26.64-9.209.686-19.058,7.422-22.178,13.673-3.552,7.12,1.712,7.261,5.285,4.809,4.571-3.126,11.05-4.329,16.59-4.089l-.012,8.936c-9.2.687-18.262,7.42-21.381,13.672-3.554,7.119,1.709,7.258,5.28,4.811a27.345,27.345,0,0,1,16.113-4.571v26.936a23.654,23.654,0,0,1-8.422,18.759c-3.117,2.886-1.4,5.9,3.134,4.085,9.507-3.805,19.385-12.822,21.635-26.556a42.846,42.846,0,0,0,11.07.019l0,3.693a23.678,23.678,0,0,1-8.417,18.759c-.048.045-.08.092-.127.137a49.585,49.585,0,0,0-26.376,9.9c-16.405,12.8-18.928,36.857-16.405,42.174.155.345,9.242-29.726,36.225-32.923,15.632-1.844,34.825,2.833,51.174,17.023,10.1-16.839,27.181-26.454,47.141-29.852-6.74-7.663-8.421-11.03-8.668-19.69m-21.639-88.5v23.633c-10.792,3.254-26.361,3.136-36.072-.348v-3.079c0-8.368.7-18.971,7.584-25.656a83.6,83.6,0,0,0,18.867-4.164l9.62,9.614Zm-36.072,31.464c9.712,3.481,25.281,3.6,36.072.347V984.82c-10.792-3.254-26.361-3.136-36.072.347V961.509Zm-.642-36.4c-5.07,4.426-9.4,8.539-12.313,13.318a41.569,41.569,0,0,0-10.83-2.225,37.474,37.474,0,0,1,9.235-11.865,95.367,95.367,0,0,0,13.908.774m-26.78,77.376V950.252a28.134,28.134,0,0,1,1.021-7.2,24.505,24.505,0,0,1,10.861,1.119,25.949,25.949,0,0,0-1.239,8.035l-.046,49.976a38.824,38.824,0,0,1-10.6.3m41.372,37.7a78.81,78.81,0,0,0-30.341-8.39c8.626-5.8,16.393-16.02,16.393-29.6v-8.85c9.712-3.487,25.281-3.6,36.072-.349v34.211c-6.736,1.921-14.91,6.729-22.125,12.979m52.431,13.9h-.931v-3.451l-1.26,3.451h-.548l-1.261-3.451v3.451h-.931v-4.275h1.5l.965,2.528.961-2.528h1.505v4.275Zm-5.447-3.449h-1.3v3.45h-1.025v-3.45h-1.3v-.826h3.627v.826Z"/></g><rect class="b" width="200" height="200"/></svg>