<svg xmlns="http://www.w3.org/2000/svg" width="200" height="200" viewBox="0 0 200 200"><defs><style>.a{fill:#8b8d8d;}.b{fill:#cf0a2c;}.c{fill:#fff;}.d{fill:#0d2240;}.e{fill:none;mix-blend-mode:multiply;isolation:isolate;}</style></defs><g transform="translate(-1635.871 -1871.996)"><g transform="translate(1656.872 1892.996)"><path class="a" d="M1735.7,1893a78.815,78.815,0,1,0,78.825,78.817A78.81,78.81,0,0,0,1735.7,1893" transform="translate(-1656.872 -1892.996)"/></g><g transform="translate(1659.754 1895.608)"><path class="b" d="M1811.642,1971.529c0-40.808-34.912-75.921-75.729-75.921s-76.158,35.3-76.158,76.11c0,37.464,29.786,70.53,66.23,75.712a77.706,77.706,0,0,0,9.386.586h.1a76.477,76.477,0,0,0,19.96-2.649C1787.262,2036.228,1811.642,2005.636,1811.642,1971.529Z" transform="translate(-1659.754 -1895.608)"/></g><g transform="translate(1659.754 1968.06)"><path class="c" d="M1811.543,1966.675l-151.679.013q-.108,1.917-.11,3.85a69.693,69.693,0,0,0,2.9,19.819c17.863,0,127.91-.011,146.077-.018a70.627,70.627,0,0,0,2.91-19.987Q1811.641,1968.505,1811.543,1966.675Z" transform="translate(-1659.754 -1966.675)"/></g><path class="d" d="M1725.948,2044.987a78.94,78.94,0,0,0,9.407.576h.1a77.921,77.921,0,0,0,20.005-2.6,78.992,78.992,0,0,0,46.973-37.373H1668.956C1680.573,2026.257,1701.8,2041.617,1725.948,2044.987Z" transform="translate(0 2.472)"/><g transform="translate(1666.385 1900.157)"><path class="c" d="M1734.113,1912.3s-.588-10.535-.59-11.02a1.669,1.669,0,0,1,.545-.969c-.373.006-1.824.11-3.356.164-.372.076-1.045.094-.9,1.629l.62,11.619,3.748-.2.272-.077a3.144,3.144,0,0,1-.338-1.146" transform="translate(-1665.193 -1900.157)"/><path class="c" d="M1771.8,1914.371l1.363-2.374-5.54-3.2a.293.293,0,0,0-.054-.031l-3.143-1.815a.637.637,0,0,0-.885.258c-.111.182-1.252,2.193-1.252,2.193h0l-.505.892a1.424,1.424,0,0,1,1.643-.234l1.96,1.131-5.008,8.68,3.526,2.044a3.274,3.274,0,0,1,.334-1.229s2.773-4.825,4.391-7.621l1.512.872c.871.5.843,1.87.843,1.87Z" transform="translate(-1664.502 -1900.157)"/><path class="c" d="M1760.995,1905.418l-5.158-1.79c-1.663-.577-2.841-.728-3.543-.465s-1.3,1.12-1.8,2.57l-1.889,5.45a7.918,7.918,0,0,0-.418,1.61,2.167,2.167,0,0,0,.577,1.967,7.911,7.911,0,0,0,2.726,1.389l2.328.806c1.681.584,2.874.739,3.567.473s1.3-1.122,1.8-2.572c0,0,.9-2.551,1.029-2.938a1.01,1.01,0,0,0-.607-1.255l-4.366-1.517c-.513-.178-.84.212-1.022.542s-.822,2.2-.822,2.2l-.229.58a1.18,1.18,0,0,1,1.148-.26l1.606.557c-.246.588-.514.921-.792,1.009a3.082,3.082,0,0,1-1.592-.294s-.565-.218-.717-.309a.966.966,0,0,1-.509-.986,5.528,5.528,0,0,1,.263-.983l1.048-3.02q.42-1.211.863-1.353a3.216,3.216,0,0,1,1.659.284l3.967,1.375a1.568,1.568,0,0,1,.854,1.185l.277-.792.7-2.037c.2-.776-.286-1.191-.956-1.424" transform="translate(-1664.733 -1900.157)"/><path class="c" d="M1721.454,1901.611s1.183.379,1.383,1.3l.016.038.682,3.286-2.6.545a1.247,1.247,0,0,0-.928.918l-1.113-5.557-4.486.935a2.153,2.153,0,0,1,1.123,1.352l.019.039,2.365,11.4,2.621-.54c.514-.108.882-.228.977-.628l-.955-4.581,3.63-.757,1.033,4.99,2.619-.541c.516-.107.887-.229.98-.628l-2.618-12.559Z" transform="translate(-1665.411 -1900.157)"/><path class="c" d="M1782.255,1921.892a2.174,2.174,0,0,0,.057-2.094,7.676,7.676,0,0,0-2.109-2.173l-1.933-1.523c-1.383-1.09-2.451-1.617-3.2-1.594s-1.594.633-2.545,1.838l-3.559,4.537a8.131,8.131,0,0,0-.914,1.39,2.173,2.173,0,0,0-.1,2.042,7.916,7.916,0,0,0,2.127,2.2l1.934,1.525c1.4,1.1,2.477,1.637,3.218,1.61s1.594-.636,2.544-1.842l3.565-4.535a8.213,8.213,0,0,0,.915-1.385m-4.67.069-1.969,2.506c-.533.686-.971,1.01-1.324,1a3.1,3.1,0,0,1-1.409-.8l.295.227a6.918,6.918,0,0,1-.866-.758.963.963,0,0,1-.158-1.1,5.637,5.637,0,0,1,.567-.845l1.974-2.514c.53-.67.952-1,1.256-1a3.272,3.272,0,0,1,1.48.813l-.28-.215a6.04,6.04,0,0,1,.868.768.957.957,0,0,1,.158,1.094,4.249,4.249,0,0,1-.592.819" transform="translate(-1663.914 -1900.157)"/><path class="c" d="M1715.372,1910.992a3.313,3.313,0,0,0-4.443-1.443l-2.038.851c-.734.306-1.25.25-1.54-.169-.011-.015-.09-.189-.1-.208-.092-.3-.32-.834.767-1.287l3.68-1.534c.793-.331,2,.461,2,.461s-.728-1.732-1.176-2.794a1.367,1.367,0,0,0-1.7-.752l-4.507,1.877q-2.437,1.016-2.95,2.009c-.343.66-.211,1.711.377,3.131l.517,1.212a3.059,3.059,0,0,0,.281.51,2.97,2.97,0,0,0,1.736,1.2,4.791,4.791,0,0,0,3.051-.378l1.753-.731c.678-.283,1.169-.208,1.466.221a.666.666,0,0,1,.121.378s.2.614-1.2,1.2l-3.539,1.475c-.792.269-1.938-.481-1.938-.481s.727,1.732,1.176,2.795a1.368,1.368,0,0,0,1.7.751l.35-.147,2.435-1.013,1.766-.736c1.627-.677,2.607-1.343,2.948-2.011s.2-1.628-.389-3.038c0,0-.458-1.052-.61-1.342" transform="translate(-1665.645 -1900.157)"/><path class="c" d="M1790.679,1929.292l-.635-.8a2.016,2.016,0,0,1-.556,1.729l.02-.015-3.938,3.074,2.535-6.913a.511.511,0,0,0-.1-.509c-.287-.368-1.942-2.5-1.942-2.5l-.682-.862a2.156,2.156,0,0,1-.555,1.817l-9.2,7.2,1.647,2.11c.322.411.595.695,1,.6,0,0,2.317-1.817,4.912-3.848l-2.338,6.056c-.415.964-1.067.39-1.067.39l.469.637.008,0,1.638,2.1c.324.414.594.691.992.594l10.106-7.9Z" transform="translate(-1663.914 -1900.157)"/><path class="c" d="M1744.58,1901.129l-1.014-.1a2.013,2.013,0,0,1,.844,1.607l0-.025-.561,4.964-3.163-6.65a.514.514,0,0,0-.434-.285c-.464-.052-3.144-.362-3.144-.362l-1.094-.117s1.013.735.909,1.669l-1.3,11.61,2.659.3c.519.059.913.061,1.125-.293,0,0,.323-2.926.691-6.2l2.687,5.909c.4.97-.467,1.034-.467,1.034l.781.113.005-.007,2.646.3c.522.059.911.059,1.12-.293l1.429-12.748Z" transform="translate(-1664.999 -1900.157)"/><path class="c" d="M1688.768,1916.086l-.388.468-2.082,2.36a.245.245,0,0,1-.028.04,1.308,1.308,0,0,0-.458.889l5.3,8.17-7.465-4.035a1.087,1.087,0,0,1-.55-1.42l-.749.842-1.534,1.738a.179.179,0,0,1-.027.041,1.238,1.238,0,0,0-.375,1.355l5.353,7.533-7.482-3.845a1.257,1.257,0,0,1-.55-1.577l-.794.89-1.762,2a.139.139,0,0,1-.032.044c-.4.458-.505,1.116-.114,1.436.055.05.022.033.022.033l11.619,5.443,2.727-3.093c.369-.418.477-.646.3-1.09l-2.2-4.09,4.505,2.22,2.906-3.3a1.489,1.489,0,0,0,.264-1.429l-6.178-10.333a1.8,1.8,0,0,1-.227-1.292" transform="translate(-1666.385 -1900.157)"/><path class="c" d="M1695.19,1912.281l-2.211,1.547a1.089,1.089,0,0,0-.591,1.071l3.721,11.346c.24.709-.626,1.994-.626,1.994l3.881-2.715a.9.9,0,0,0,.309-1.05l-.548-1.6,2.957-2.07,1.153.724a.818.818,0,0,1,.188,1.161l4.264-2.983Zm2.757,7.458-.715-1.955,1.785,1.172Z" transform="translate(-1665.854 -1900.157)"/><path class="c" d="M1673.8,1943.125l1.751,5.388h5.665l-4.583,3.331,1.75,5.389-4.583-3.33-4.584,3.33,1.751-5.389-4.583-3.331h5.665Z" transform="translate(-1666.385 -1900.157)"/><path class="c" d="M1795.122,1943.843l-1.751,5.388h-5.666l4.584,3.331-1.752,5.388,4.584-3.33,4.583,3.33-1.751-5.388,4.583-3.331h-5.664Z" transform="translate(-1663.914 -1900.157)"/></g><g transform="translate(1690.227 2014.942)"><path class="c" d="M1734.842,2027.323h-2.7a1.091,1.091,0,0,0-1.1.54l-3.454,11.429c-.211.718-1.657,1.275-1.657,1.275h4.737a.9.9,0,0,0,.856-.682l.469-1.628h3.608l.531,1.255a.818.818,0,0,1-.512,1.058h5.2Zm-1.9,7.761.576-2,.749,2Z" transform="translate(-1688.991 -2012.47)"/><path class="c" d="M1753.767,2037.055l-2.845-3.149a2.3,2.3,0,0,0,1.391-.845,4.893,4.893,0,0,0,.058-3.055s-.534-2.633-.64-3.043a2.008,2.008,0,0,0-1.133-1.459,4.308,4.308,0,0,0-2.226-.007l-9.382,1.765s1.188.44,1.388,1.332l2.085,11.451,2.616-.486c.519-.1.892-.2.993-.6l-.709-3.877,1.827-.364,3.16,3.84,4.679-.867a3.29,3.29,0,0,1-1.262-.633m-5.108-7.668a4.12,4.12,0,0,1,.148,1.481.625.625,0,0,1-.514.447l-2.163.428c-.494.091-.855.6-1.151,1.22l-.637-3.457,3.511-.677c.38-.07.652.112.806.558" transform="translate(-1688.991 -2012.47)"/><path class="c" d="M1764.294,2021.305a2.014,2.014,0,0,0-1.427-1.171,4.358,4.358,0,0,0-2.175.493l-8.837,3.825a2.665,2.665,0,0,1,1.662,1l4.091,9.441a2.21,2.21,0,0,1-.183,1.536l8.6-3.686c1.168-.506,1.847-1.059,2.039-1.641a4.876,4.876,0,0,0-.624-2.992l-2.556-5.585c-.27-.616-.394-.839-.59-1.216m-2.462,3.052c.157.247,2.34,5.124,2.314,5.385a.627.627,0,0,1-.4.558l-3.385,1.465-1.983-4.562c-.122-.3-.429-.993-.772-1.774l3.311-1.433c.358-.155.662-.037.913.361" transform="translate(-1688.991 -2012.47)"/><path class="c" d="M1727.5,2029.957l.557-2.521s-9.8-2.149-9.939-2.162c-.8-.09-1.116.432-1.32,1.079l-.389,1.766.008,0-.176.724a2.308,2.308,0,0,1,1.518-.429l4.51.995-7.554,6.355-.458,2.131,9.837,2.166c.63.138,1.068.161,1.289-.475l.707-3.254a2.086,2.086,0,0,1-1.547.576l-4.766-1.05Z" transform="translate(-1688.991 -2012.47)"/><path class="c" d="M1711.458,2035.715s3.436-9.977,3.618-10.427.87-.691.87-.691c-.347-.134-1.73-.586-3.169-1.116-.373-.071-1-.306-1.449,1.167l-3.817,10.993,3.545,1.23.282.033a3.207,3.207,0,0,1,.12-1.189" transform="translate(-1688.991 -2012.47)"/><path class="c" d="M1710.841,2023.161l-.524-.309-2.66-1.682a.258.258,0,0,1-.044-.022,1.31,1.31,0,0,0-.95-.31l-5.852,5.7,2.141-6.88c.133-.666,1.207-.685,1.207-.685l-.95-.606-1.96-1.239a.259.259,0,0,1-.044-.02,1.235,1.235,0,0,0-1.4-.156l-6.013,5.57,2.639-6.7a1.258,1.258,0,0,1,1.472-.794l-1.005-.642-2.254-1.424a.171.171,0,0,1-.05-.024c-.515-.326-1.181-.323-1.435.113-.04.063-.029.028-.029.028l-4.142,11.949,3.486,2.2c.473.3.714.371,1.125.131l3.689-2.822-1.478,4.8,3.716,2.35a1.494,1.494,0,0,0,1.452.033l8.618-8.121a1.791,1.791,0,0,1,1.242-.431" transform="translate(-1688.991 -2012.47)"/><path class="c" d="M1777.994,2018.455a3.314,3.314,0,0,0-4.646-.489l-1.819,1.253c-.655.451-1.17.5-1.541.153-.013-.012-.127-.166-.137-.183-.153-.279-.486-.75.485-1.419l3.282-2.262c.707-.489,2.051.036,2.051.036l-1.73-2.489a1.368,1.368,0,0,0-1.821-.384l-4.018,2.772q-2.172,1.5-2.47,2.578c-.2.714.149,1.717,1.019,2.984l.757,1.077a2.713,2.713,0,0,0,.381.441,2.966,2.966,0,0,0,1.947.812,4.815,4.815,0,0,0,2.905-1l1.564-1.078c.6-.417,1.1-.448,1.479-.09a.665.665,0,0,1,.2.347s.322.558-.923,1.418l-3.158,2.175a2.829,2.829,0,0,1-1.995-.068s1.071,1.544,1.731,2.489a1.368,1.368,0,0,0,1.82.383l.312-.215,2.171-1.5,1.576-1.085c1.45-1,2.271-1.854,2.467-2.578s-.144-1.635-1.011-2.893c0,0-.668-.932-.876-1.185" transform="translate(-1688.991 -2012.47)"/></g><path class="a" d="M1782.554,1946.441a53.53,53.53,0,0,0-12.93-15.709c-.986-.814-2.009-1.581-3.051-2.324a53.016,53.016,0,0,0-30.784-9.875h-.093a53.284,53.284,0,0,0-53.2,50.452c-.049.908-.072,1.821-.075,2.741v.092a53.161,53.161,0,0,0,4.182,20.723c.335.8.693,1.582,1.065,2.359a53.455,53.455,0,0,0,12.185,16.331q1.887,1.72,3.939,3.256a53.033,53.033,0,0,0,31.847,10.6h.073a53.223,53.223,0,0,0,53.264-53.215v-.03h0v-.037a53.128,53.128,0,0,0-4.181-20.713q-1.01-2.39-2.24-4.653" transform="translate(0)"/><path class="c" d="M1783.508,1951.636q-.982-2.325-2.18-4.531a52.1,52.1,0,0,0-12.593-15.3c-.959-.793-1.956-1.54-2.971-2.264a51.628,51.628,0,0,0-29.979-9.617h-.091a51.888,51.888,0,0,0-51.807,49.132q-.072,1.326-.073,2.668v.091a51.717,51.717,0,0,0,4.073,20.176q.49,1.165,1.037,2.3a52.063,52.063,0,0,0,11.865,15.9q1.841,1.676,3.838,3.171a51.653,51.653,0,0,0,31.013,10.326h.071a51.827,51.827,0,0,0,51.87-51.822v-.029h0v-.036A51.723,51.723,0,0,0,1783.508,1951.636Z" transform="translate(0 0)"/><path class="d" d="M1725,1947.362l1.174-4.271.278-1-5.391-3.02s-3.144-2.182-10.175,1.9c-8.232,4.854-14.929,11.132-18.4,17.792a42.3,42.3,0,0,0-4.229,12.768,46.011,46.011,0,0,0,7.939,24.7c-1.371-13.172,11.356-27.6,21.322-37.456a34.721,34.721,0,0,0,7.478-11.411" transform="translate(0.663 1.154)"/><path class="d" d="M1758.1,1940.972c-7.033-4.079-10.175-1.9-10.175-1.9l-5.388,3.019.274,1,1.175,4.271a34.693,34.693,0,0,0,7.478,11.41c9.935,9.824,22.621,24.2,21.335,37.334a45.979,45.979,0,0,0,7.864-24.985,42.3,42.3,0,0,0-4.167-12.357c-3.466-6.658-10.166-12.938-18.4-17.793" transform="translate(1.809 1.153)"/><path class="b" d="M1741.184,1933.077a51.005,51.005,0,0,1,36.886,21.871,46.344,46.344,0,0,0-28.968-28.517,11.719,11.719,0,0,0-7.918,6.646" transform="translate(1.762 0.653)"/><path class="b" d="M1727.8,1933.077a11.721,11.721,0,0,0-7.964-6.657,46.335,46.335,0,0,0-29.066,28.749,50.993,50.993,0,0,1,37.03-22.092" transform="translate(0.709 0.654)"/><path class="b" d="M1730.824,1932.556l3.666-5.4,3.671,5.4a12.924,12.924,0,0,1,6.122-7.45,46.269,46.269,0,0,0-19.6,0,12.906,12.906,0,0,1,6.144,7.454" transform="translate(1.236 0.523)"/><path class="d" d="M1734.492,1948.235c-.535.382-17.59,12.657-25.1,24.812-10.14,16.407-8.823,25.868-6.2,31.269a46.087,46.087,0,0,0,23.975,11.613l3.953-56.037,3.3-3.3.042-.044h0l.041.044,3.294,3.3,3.982,55.99-.052.029a46.033,46.033,0,0,0,24.135-11.722c2.584-5.421,3.808-14.859-6.258-31.141-7.514-12.156-24.572-24.431-25.107-24.813" transform="translate(1.237 1.561)"/><path class="a" d="M1737.792,1959.891l-3.295-3.3.039,63.419,7.182-4.1h0l.052-.027Z" transform="translate(1.297 1.713)"/><path class="a" d="M1744.35,1936.361a57.175,57.175,0,0,0-6.07-.75l-1.444-.091-.029-.06-.031-.059-.579-1.181-.036-.073h0l-1.671-3.4-.538,1.095-1.076,2.187v0l-.046.091-.045.093-.579,1.181-.048.1-.009.019-1.443.091a57.22,57.22,0,0,0-6.069.75c-.891.151-1.788.286-2.667.48h0l2.835,1.526,2.834,1.529.876.471.876.473-.532,1.919-.029.107-.244.887-1.578,5.732v0l3.591-2.65,2.436-1.8.718-.53.717-.53h0v-.029l.02.017.023-.017v.029h0l.717.53.719.53,6.027,4.446-1.579-5.731-.137-.5-.134-.5-.532-1.919.57-.307,1.183-.637,3.826-2.063,1.842-.992h0c-.879-.2-1.774-.33-2.665-.481" transform="translate(1.237 0.684)"/></g><rect class="e" width="200" height="200"/></svg>