<svg xmlns="http://www.w3.org/2000/svg" width="251.679" height="141.383" viewBox="0 0 251.679 141.383"><defs><style>.a{fill:#fff;}.b{fill:#bf0d3e;}.c{fill:#041e42;}</style></defs><path class="a" d="M1064.805,219.121H855.136a21.136,21.136,0,0,0-14.867,6.049,20.9,20.9,0,0,0-6.107,14.965V333.7A20.739,20.739,0,0,0,840.25,348.6a20.988,20.988,0,0,0,14.886,6.147h209.669a21.034,21.034,0,0,0,20.936-21.053V240.116a20.838,20.838,0,0,0-20.679-20.995Z" transform="translate(-834.161 -219.121)"/><path class="b" d="M1078.376,240.116a13.473,13.473,0,0,0-13.314-13.63H1006.2l33.622,56.188,3.1.393,1.964,2.572v2.4l2.121.432,1.964,2.671v2.318l2.2.393,2.219,2.415v5.342a36.411,36.411,0,0,0,8.838,5.892c2.965,1.139,3.3,5.892,5.086,8.425,2.239,3.692,5.3,5.165,4.655,7.227-1.493,5.519-7.149,14.828-12.412,15.26h-20.818v8.916h26.081a13.629,13.629,0,0,0,13.571-13.688V240.116" transform="translate(-834.161 -219.121)"/><path class="c" d="M935.009,338.548H924.934c0-25.178,8.5-39.1,18.7-41.871,1.394-.256.727-7.129-1.041-9.231H936.7c-.942,0-.392-1.767-.392-1.767l4.772-10.193-.648-2.789H922.794l14.494-10.134c.667-26.729,28.084-28.811,44.6-17.675,9.82,6.5,10.566,19.384,9.82,28.28-.118.57-2.553.2-2.553.2s-1.669,9.819,2.69,9.819h19.267c7.855-.314,15.436,5.008,15.436,5.008l1.846-6.736-42.205-54.97H855.136a13.743,13.743,0,0,0-9.7,3.928,13.6,13.6,0,0,0-3.928,9.7V333.7a13.428,13.428,0,0,0,3.928,9.662,13.743,13.743,0,0,0,9.7,4.026h85.078c-2.082-3.574-4.458-7.639-5.185-8.837" transform="translate(-834.161 -219.121)"/><path class="a" d="M860.4,318.692a9.309,9.309,0,1,1,9.308,9.31h-.078a9.21,9.21,0,0,1-9.231-9.19c0-.04,0-.079,0-.119m223.534,37.276c0-1.061-.628-1.2-1.532-1.2h-1.964V358.7h.825v-1.552h.668l.9,1.552h.923l-.942-1.552a1.021,1.021,0,0,0,1.049-.992,1.034,1.034,0,0,0-.008-.167m-1.513.452h-1.1v-.962h.9c.393,0,.884,0,.884.432s-.236.53-.688.53" transform="translate(-834.161 -219.121)"/><path class="a" d="M1082.068,352.963a3.77,3.77,0,1,0,3.771,3.79,3.732,3.732,0,0,0-3.672-3.79h-.1m0,6.736a2.946,2.946,0,1,1,2.946-2.946,2.946,2.946,0,0,1-2.946,2.946" transform="translate(-834.161 -219.121)"/></svg>