<svg xmlns="http://www.w3.org/2000/svg" width="200" height="200" viewBox="0 0 200 200"><defs><style>.a{fill:#fff;}.b{fill:#cf0a2c;}.c{fill:none;mix-blend-mode:multiply;isolation:isolate;}</style></defs><g transform="translate(-86.301 -1869.393)"><path d="M234.93,1937.118a52.639,52.639,0,0,0-7.133-8.593,44.271,44.271,0,0,0-3.609-3.266l25.952-25.866H174.776l-29.131,29.132h0l-.086.086a62.017,62.017,0,0,0-7.132,8.593,60.784,60.784,0,0,0-5.328,9.882,58.346,58.346,0,0,0,0,45.2,60.738,60.738,0,0,0,5.328,9.882,52.584,52.584,0,0,0,7.132,8.594,44.081,44.081,0,0,0,3.609,3.265L123.3,2039.894h75.363l29.217-29.217h0a56.528,56.528,0,0,0,12.374-18.39,58.346,58.346,0,0,0,0-45.2,50.585,50.585,0,0,0-5.327-9.968"/><path class="a" d="M224.446,1931.876c-1.117-1.117-2.32-2.234-3.523-3.265L189.3,1960.32a10.449,10.449,0,0,1,4.3,2.492h0a9.855,9.855,0,0,1,0,13.835l-58.607,58.607h6.875l55.169-55.169a14.626,14.626,0,0,0,.086-20.624l3.437-3.438a19.422,19.422,0,0,1-.086,27.5l-51.731,51.732h6.874l48.295-48.3a24.378,24.378,0,0,0,.086-34.373l3.437-3.437a29.175,29.175,0,0,1-.086,41.248l-44.857,44.857h6.875l41.419-41.42a34.05,34.05,0,0,0,.086-48.123l3.438-3.437a38.925,38.925,0,0,1-.086,55l-37.983,37.983h6.875l34.545-34.545a43.8,43.8,0,0,0,.086-61.872l3.437-3.438a48.6,48.6,0,0,1-.086,68.747l-31.107,31.108h6.874l27.671-27.671h0a53.655,53.655,0,0,0-.086-75.707"/><path class="b" d="M149.082,2007.5c1.118,1.117,2.321,2.235,3.524,3.266l31.623-31.624a10.439,10.439,0,0,1-4.3-2.492h0a9.855,9.855,0,0,1,0-13.835l58.693-58.692H231.75l-55.255,55.255a14.628,14.628,0,0,0-.086,20.624l-3.437,3.437a19.424,19.424,0,0,1,.086-27.5l51.817-51.817H218L169.62,1952.5a24.377,24.377,0,0,0-.085,34.373l-3.438,3.438a29.175,29.175,0,0,1,.086-41.248l44.943-44.943h-6.874l-41.506,41.505a34.05,34.05,0,0,0-.086,48.123l-3.437,3.437a38.923,38.923,0,0,1,.086-55l38.068-38.068H190.5l-34.631,34.631a43.8,43.8,0,0,0-.086,61.872l-3.437,3.437a48.6,48.6,0,0,1,.086-68.747l31.194-31.193h-6.875L149,1931.876h0a53.551,53.551,0,0,0,.085,75.621"/></g><rect class="c" width="200" height="200"/></svg>