<svg xmlns="http://www.w3.org/2000/svg" xmlns:xlink="http://www.w3.org/1999/xlink" width="200" height="200" viewBox="0 0 200 200"><defs><style>.a,.f,.g{fill:none;}.b{fill:#fff;}.c{fill:#fdb927;}.d{fill:#552583;}.e{clip-path:url(#a);}.f{stroke:#fdb927;stroke-width:0.103px;}.g{mix-blend-mode:multiply;isolation:isolate;}</style><clipPath id="a"><path class="a" d="M438.806,1358.645c0,28.449,22.719,51.51,50.74,51.51s50.745-23.061,50.745-51.51-22.721-51.511-50.745-51.511-50.74,23.063-50.74,51.511"/></clipPath></defs><g transform="translate(-393.438 -1257.975)"><path class="b" d="M440.317,1326.129s16-26.154,48.752-26.154a57.791,57.791,0,0,1,47.993,25.392H581.5l-1.777,10.919s-1.27,4.317-3.3,4.824h3.049s1.013,3.809-5.079,17.013h12.947s.509,23.106-27.421,34.027c0,0-14.474,4.568-21.838-3.3,0,0-14.728,27.422-49.007,27.422s-49.767-28.185-49.767-28.185H399.437l6.348-11.426h-4.317l5.079-9.4h8.633l1.524-3.555h-4.063l9.9-18.282h5.586l2.285-5.587h-4.824l7.364-13.711Z"/><path class="c" d="M489.548,1410.156c28.023,0,50.743-23.063,50.743-51.511s-22.72-51.51-50.743-51.51-50.742,23.062-50.742,51.51,22.719,51.511,50.742,51.511"/><path class="d" d="M512.678,1363.919c-4.74,5.748-7.426,7.716-12.241,7.716-1.639,0-2.494-.367-2.036-1.162l5.713-11.482h2.177c2.433,0,2.1,2.047,1.435,4.821-.12.386.177.411.465.072l5.43-9.54c.266-.6-.419-.724-.757-.264-2.719,3.692-5.58,3.418-6.788,3.418H505.1l6.1-11.641h2.461c3.1.194,4.539,2.823,3.644,9.162h1.286l4.485-8.84c.361-.746-.4-1.427-1.249-1.427l-30.431.01c-1.759,0-1.837,1.35-.151,1.35,1.37,0,1.3,1.965.069,2.913l-12.917,10.257,2.606,12.108a1.6,1.6,0,0,0,1.791,1.353h25.163a2.005,2.005,0,0,0,1.8-.857l4.558-7.871c.625-1.131-.833-1.06-1.629-.1m-17.532-5.531-2.212-.019a.282.282,0,0,0,0,.565l2.246-.023c.757,0,1.456.1,1.263.433l-5.818,11.11a1.313,1.313,0,0,1-2.5-.071l-2.881-14.887,10.132-7.861c1.007-.866,2.942-2.275,3.935-2.258l2.207-.01c1.344-.012,1.823.619,1.507,1.43l-.39.752c-.252.423-1.049.471-1.724.471l-1.274.007a.281.281,0,1,0,0,.563l1.257,0c.541,0,1.226.012.974.42l-4.7,8.962c-.217.35-1.192.414-2.025.414"/><path class="d" d="M474.257,1371.388a1.386,1.386,0,0,1-1.273-.94,3.735,3.735,0,0,1,.066-2.306l11.74-20.82c.191-.384.666-1.19,1.251-1.189,1.033,0,1.484-1.362-.274-1.362h-9.4c-1.755,0-1.775,1.338-.09,1.338a.789.789,0,0,1,.766,1.082l-2.6,4.71c-.325.517-1.045.557-1.8.557l-2.241-.007a.282.282,0,0,0,0,.564h2.221c.6,0,1.082.183.733.88l-8.664,15.786c-.626.868-1.869,1.06-1.8-.6l3.081-23.121c.121-.722-.07-1.211-.84-1.211l-4.647.005a1.365,1.365,0,0,0-1.162.63l-1.666,2.09c-.216.216-.684.215-1.2.215l-3.9-.005a.281.281,0,0,0,0,.563h3.184c.566,0,1.227.133.987.4l-4.469,5.622a1.383,1.383,0,0,1-.835.2l-1.263-.007a.282.282,0,0,0,0,.565l1.054,0c.325,0,.328.161.2.306l-4.2,5.28a1.625,1.625,0,0,1-1.049.247l-3.707-.005a.281.281,0,0,0,0,.562l3.182,0c.483,0,.858.088.6.414l-5.972,7.492c-1.121,1.428-6.528,2.154-7.581,2.154l20.2-37.8a2.156,2.156,0,0,1,1.721-1.095h4.288c2.023,0,1.963-1.348.2-1.348H437.539c-1.758,0-1.829,1.348.194,1.348h3.992c1.131,0,1.5.684,1.2,1.242l-.571,1.041c-.192.336-.458.474-1.554.474l-7.054-.006a.281.281,0,1,0,0,.562l7.036,0c.385,0,.957.1.6.786l-.987,1.836a1.272,1.272,0,0,1-1.1.407l-3.2-.005a.282.282,0,1,0,0,.564h3.184c.458,0,.467.3.2.721l-2.271,4.222c-.194.361-.563.41-1.285.41l-1.274-.006a.281.281,0,1,0,0,.563h1.257c.481,0,.607.269.391.726l-1.866,3.467c-.276.494-.675.691-1.916.691l-7.054-.006a.282.282,0,0,0,0,.564H432.5c.8.013,1.088.364.775.932l-3.641,6.845c-.216.3-.811.346-1.822.346l-7.055-.005a.281.281,0,1,0,0,.563H427.8c.843,0,1.359.036,1.105.48l-2.1,3.948c-.386.6-1.467.6-1.89.6l-2.239-.006a.282.282,0,0,0,0,.564h2.221c.782,0,1.2.136.992.557l-2.8,5.268c-.253.471-1.351.49-2.192.49l-10.91-.006a.283.283,0,0,0,0,.565h10.889c.723,0,1.637.089,1.3.667l-1.789,3.365c-.169.277-.78.3-1.66.3l-2.237-.006a.283.283,0,0,0,0,.565h2.22c.543,0,1.2.06.972.471l-1.119,2.15a1.77,1.77,0,0,1-1.587,1.006H411.5c-2.022,0-1.952,1.348-.193,1.348l32.139.018c.939,0,.97-.126,1.413-.816l4.766-8.312,24.362,0c1.757,0,1.308-1.325.273-1.36m-19.1-2.478c-.242,1.373-1.619,2.28-3.353,2.738l-1.79.448,1.468-2.647c.387-.723-.46-1.148-1.384-.071-6.224,7.243-8.206,10.713-17.8,10.738l-2.579.006c-.779,0-1.636-.306-1.107-1.053l3.4-6.323,12.893,0c1.758,0,1.306-1.325.274-1.361a2.465,2.465,0,0,1-1.958-1.249,1.857,1.857,0,0,1,.037-1.857l4.935-6.56h8.208Zm1.855-8.3H449l10.129-13.356Z"/><path class="d" d="M578.839,1364.747c-.132-.658-.374-.258-.806.572-.134.252-.555.258-.976.258l-1.289.005a.281.281,0,0,0,0,.563h1.268c.481,0,.489.32.262.8a21.574,21.574,0,0,1-3.01,4.672,1.55,1.55,0,0,1-1.066.446l-1.294.005a.281.281,0,1,0,0,.563H573.2c.637,0-.007.393-.116.538a28.325,28.325,0,0,1-5.448,5.678,5.509,5.509,0,0,1-1.777.1l-1.276.007a.281.281,0,0,0,0,.562l1.26,0c.959,0,.24.552.093.674a16.894,16.894,0,0,1-11.1,3.557c-7.751-.97-9.348-6.852-9.921-9.2-.119-.492-.489-1.5-.612-2.12-.241-1.231,3.256-1.582,4.221-.934a16.46,16.46,0,0,0,7.565,1.995c2.483.008,7.568-1.8,9.041-6.064,1.505-4.366-2.277-9.212-3.951-10.885-2.136-2.134-4.149-5.531-3.3-8.023.638-1.879,1.71-2.732,4.006-2.732,2.963,0,5.121,1.9,5.121,4.609,0,.24-.151.529-.345.529l-1.046.005a.281.281,0,0,0,0,.563h.985c.277,0,.452.21.377.548-.192.905-.256,1.541-.454,2.449-.112.526.657.889.923.505l4.658-8.317c.338-.625-.411-.794-.965-.6-1.275.444-3.347.749-4.082.222a9.114,9.114,0,0,0-5.764-2.054c-4.138,0-7.038,1.02-8.9,4.43-.146.265-.552.26-.9.26l-.8,0a.283.283,0,0,0,0,.565l.677-.006c.289,0,.485.081.339.418-.128.305-.243.629-.35.966a8.468,8.468,0,0,0,.418,5.39c.049.119-.106.178-.394.177l-1.269.005a.282.282,0,0,0,0,.564h1.269c.575,0,.71.059.947.395.655.921,1.328,1.6,2.166,2.674.265.335-.865.431-1.467.425H548a.281.281,0,1,0,0,.563l5.085-.006a7.986,7.986,0,0,1,2.376.169c1.23,1.418,2.717,3.6,2.969,5.446.07.529-.13.752-.781.752h-.679a.282.282,0,0,0,0,.563h.6c.517,0,.8.083.683.47-.662,2.106-1.651,3.632-5.673,3.611-4.221-.024-5.077-4.159-3.844-8.472.247-.861-.01-1.229-.4-.554l-2.935,4.614a1.018,1.018,0,0,1-.8.369h-.417a.282.282,0,0,0-.282.283.285.285,0,0,0,.286.28c.374,0,.517.2.374.4l-1.079,1.682a54.121,54.121,0,0,0-6.331-10.877l.028-.088c3.913-.236,9.684-3.9,10.629-7.176,1.64-5.684-3.881-7.781-6.889-7.781H527.7c-1.756,0-1.883,1.332-.2,1.332.91,0,1.707.8,1.306,1.6l-2.932,5.279c-.241.433-1.149.407-2.329.407h-1.283a.281.281,0,1,0,0,.563h1.262c.843,0,1.77.051,1.459.653l-3.464,6.254c-.169.288-.617.315-1.8.315l-1.277.005a.282.282,0,0,0,0,.564H519.7c.928,0,1.274.124,1.01.606l-4.626,8.365a2.793,2.793,0,0,1-2.342.714c-1.685,0-1.667,1.337.091,1.337h11.326c1.757,0,1.309-1.36.273-1.36a1.312,1.312,0,0,1-.85-1.792l5.781-10.951h.588c2.571,0,3.191,4.219,3.678,8.825.035.329-.6.347-1.874.347l-3.216.005a.281.281,0,1,0,0,.562h3.182c.844,0,2.021.007,2.051.281a46.011,46.011,0,0,0,.773,5.419c.123.506-.78.427-1.743.427l-4.093.005a.283.283,0,0,0,0,.565l4.089.005c1.285,0,1.949,0,2.022.262,1.762,6.459,9.315,11.546,16.66,11.264,6.3-.24,11.627-3.669,14.353-5.853,3.625-2.91,8.954-9,11.121-13.434.4-.814,1.035-1.856.89-2.578m-42.373-8.6c-.881.726-2.274,1.56-2.542,1.294a11.02,11.02,0,0,0-2.174-1.468l5.248-9.593a1.05,1.05,0,0,1,1.04-.521c2.046,0,2.715,2.216,1.755,4.976a12.094,12.094,0,0,1-3.327,5.312"/><path class="d" d="M472.7,1336.224a4.678,4.678,0,0,1-4.051,1.724H468.2l2.787-5.515a.884.884,0,0,1,.788-.45c.35,0,.308-.7-.15-.7h-4.392c-.373,0-.505.7-.155.7.374,0,.443.414.262.763l-2.495,4.916a1.112,1.112,0,0,1-.75.417c-.37.095-.626.759-.2.759h7.01a.816.816,0,0,0,.813-.4l1.408-2.182c.2-.265-.222-.3-.426-.037"/><path class="d" d="M493.813,1331.481a1.034,1.034,0,0,1-.932,0,4.342,4.342,0,0,0-2.234-.824c-1.654,0-2.85.328-3.57,1.888-.613,1.329.015,2.441,1.475,3.117.63.293,1.468.673,1.147,1.434-.234.556-.883.613-1.464.606a2.246,2.246,0,0,1-2.142-1.7c-.062-.363-.482-.279-.6-.086l-1,1.988c-.157.265.255.558.416.385a1.275,1.275,0,0,1,1.433-.2,6.051,6.051,0,0,0,2.536.9,3.855,3.855,0,0,0,3.7-1.879c.839-1.311.324-2.612-1.2-3.331-.807-.38-1.5-1.052-1.138-1.794.233-.484.955-.379,1.313-.319a2.225,2.225,0,0,1,1.657,1.324.259.259,0,0,0,.484.072l.527-1.225c.119-.242-.268-.427-.4-.354"/><path class="d" d="M542.461,1333.455l.611-1.125c.263-.494-.172-1.054-.872-1.054h-8.186c-.59,0-.416.616-.175.616.527,0,.681.639.362,1.18l-2.46,4.529a1.3,1.3,0,0,1-1.129.62c-.421,0-.571.615.018.615h8.3a.648.648,0,0,0,.6-.288l1.128-1.5c.275-.36-.32-.36-.5-.18a5.088,5.088,0,0,1-4.077,1.39h-.965l1.135-2.535h.241c.729,0,1.572-.008,1.791.545a.353.353,0,0,0,.565,0l.97-1.936c.156-.288-.282-.34-.4-.132-.385.683-2.066.5-2.506.5h-.242l1.414-2.794h1.577a2.31,2.31,0,0,1,2.1,1.451c.066.182.59.325.7.1"/><path class="d" d="M521.517,1331.275H518.6c-.592,0-.416.617-.176.617a.981.981,0,0,1,.846,1.4l-1.2,2.207-2.659-3.893a1.265,1.265,0,0,0-.96-.357h-2.867c-.589,0-.454.609-.212.609.61,0,.451.456.3.782l-2.283,4.4a.536.536,0,0,1-.959-.045l-1.77-5.76c-.072-.227-1.105-.215-1.369,0l-4.43,3.653-2.294,0c-.455,0-.635.189-.635.429s.173.461.655.461h1.2l-1.2.986c-.67.5-1.353,1.181-1.807,1.181h-.28c-.433,0-.677.07-.677.419s.184.47.6.47h3.57c.676,0,.544-.878.207-.878a.64.64,0,0,1-.412-1.132l1.09-1.045h2.149c1.275,0,2.165,1.478,1.407,1.937l-.591.325c-.276.145-.4.793,0,.793h6.982c.517,0,.412-.685.171-.685-.715,0-.378-1.028-.239-1.3l1.835-3.474,2.577,4.993c.169.313.319.469.62.469h.986c.313,0,.42-.18.563-.421l2.936-5.3c.471-.948.834-1.22,1.427-1.22.241,0,.41-.621-.18-.621m-19.531,3.617,2.729-2.231.013,2.231Z"/><path class="d" d="M480.16,1330.944c-2.456,0-4.987,1.209-5.492,3.785a3.8,3.8,0,0,0,3.855,4.571,5.507,5.507,0,0,0,5.505-4.183c.485-2.487-1.366-4.173-3.868-4.173m.694,4.725c-.779,1.553-2.083,2.475-2.913,2.059s-.872-2.013-.093-3.567,2.082-2.476,2.912-2.059.873,2.012.094,3.567"/><path class="d" d="M529.818,1334.7h-3.154c-.592,0-.418.616-.175.616s.481.132.481.529c0,1.275-.546,1.766-1.64,1.766-1.2,0-1.633-1.457-.824-3.245a3.959,3.959,0,0,1,3.505-2.208c.992,0,1.826.214,1.954,1.144.031.232.372.231.494.014l.747-1.34c.084-.146-.046-.316-.274-.329-.192-.014-.623.236-.908.024a6.239,6.239,0,0,0-8.7,2.233,3.451,3.451,0,0,0,2.61,5.163,8.61,8.61,0,0,0,3.061-1.1l.806.546a.916.916,0,0,0,.613.325h.3c.274,0,.382-.379.491-.62l1.239-2.995c.155-.3.067-.519-.631-.519"/><path class="d" d="M573.036,1331.481a1.032,1.032,0,0,1-.931,0,4.349,4.349,0,0,0-2.235-.824c-1.651,0-2.85.328-3.57,1.888-.614,1.329.015,2.441,1.475,3.117.632.293,1.47.673,1.149,1.434-.235.556-.884.613-1.466.606a2.248,2.248,0,0,1-2.143-1.7c-.06-.363-.48-.279-.6-.086l-1,1.988c-.157.265.256.558.418.385a1.273,1.273,0,0,1,1.431-.2,6.07,6.07,0,0,0,2.537.9,3.861,3.861,0,0,0,3.7-1.879c.836-1.311.321-2.612-1.207-3.331-.806-.38-1.5-1.052-1.139-1.794.237-.484.957-.379,1.315-.319a2.232,2.232,0,0,1,1.657,1.324.258.258,0,0,0,.483.072l.526-1.225c.12-.242-.266-.427-.4-.354"/><path class="d" d="M551.1,1336.224a4.676,4.676,0,0,1-4.049,1.724H546.6l2.787-5.515a.882.882,0,0,1,.788-.45c.35,0,.308-.7-.149-.7h-4.393c-.374,0-.506.7-.155.7.374,0,.442.414.262.763l-2.495,4.916a1.112,1.112,0,0,1-.752.417c-.368.095-.623.759-.2.759H549.3a.816.816,0,0,0,.812-.4l1.407-2.182c.207-.265-.22-.3-.424-.037"/><path class="d" d="M561.672,1331.909a2.314,2.314,0,0,1,2.1,1.45c.065.181.587.325.7.1l.611-1.126c.264-.493-.172-1.055-.87-1.055h-8.189c-.588,0-.415.617-.175.617.526,0,.684.639.365,1.18l-2.462,4.53a1.294,1.294,0,0,1-1.129.618c-.422,0-.57.616.021.616h8.294a.656.656,0,0,0,.607-.289l1.125-1.5c.277-.36-.317-.36-.5-.181a5.093,5.093,0,0,1-4.078,1.39h-.968l1.136-2.535h.24c.731,0,1.57-.008,1.793.545a.352.352,0,0,0,.565,0l.968-1.936c.157-.287-.281-.338-.4-.131-.384.682-2.066.5-2.505.5h-.243l1.413-2.793h1.577Z"/><g class="e"><path class="d" d="M512.678,1363.919c-4.74,5.748-7.426,7.716-12.241,7.716-1.639,0-2.494-.367-2.036-1.162l5.713-11.482h2.177c2.433,0,2.1,2.047,1.435,4.821-.12.386.177.411.465.072l5.43-9.54c.266-.6-.419-.724-.757-.264-2.719,3.692-5.58,3.418-6.788,3.418H505.1l6.1-11.641h2.461c3.1.194,4.539,2.823,3.644,9.162h1.286l4.485-8.84c.361-.746-.4-1.427-1.249-1.427l-30.431.01c-1.759,0-1.837,1.35-.151,1.35,1.37,0,1.3,1.965.069,2.913l-12.917,10.257,2.606,12.108a1.6,1.6,0,0,0,1.791,1.353h25.163a2.005,2.005,0,0,0,1.8-.857l4.558-7.871c.625-1.131-.833-1.06-1.629-.1m-17.532-5.531-2.212-.019a.282.282,0,0,0,0,.565l2.246-.023c.757,0,1.456.1,1.263.433l-5.818,11.11a1.313,1.313,0,0,1-2.5-.071l-2.881-14.887,10.132-7.861c1.007-.866,2.942-2.275,3.935-2.258l2.207-.01c1.344-.012,1.823.619,1.507,1.43l-.39.752c-.252.423-1.049.471-1.724.471l-1.274.007a.281.281,0,1,0,0,.563l1.257,0c.541,0,1.226.012.974.42l-4.7,8.962c-.217.35-1.192.414-2.025.414"/></g><g class="e"><path class="f" d="M512.678,1363.919c-4.74,5.748-7.426,7.716-12.241,7.716-1.639,0-2.494-.367-2.036-1.162l5.713-11.482h2.177c2.433,0,2.1,2.047,1.435,4.821-.12.386.177.411.465.072l5.43-9.54c.266-.6-.419-.724-.757-.264-2.719,3.692-5.58,3.418-6.788,3.418H505.1l6.1-11.641h2.461c3.1.194,4.539,2.823,3.644,9.162h1.286l4.485-8.84c.361-.746-.4-1.427-1.249-1.427l-30.431.01c-1.759,0-1.837,1.35-.151,1.35,1.37,0,1.3,1.965.069,2.913l-12.917,10.257,2.606,12.108a1.6,1.6,0,0,0,1.791,1.353h25.163a2.005,2.005,0,0,0,1.8-.857l4.558-7.871C514.932,1362.884,513.474,1362.955,512.678,1363.919Zm-17.532-5.531-2.212-.019a.282.282,0,0,0,0,.565l2.246-.023c.757,0,1.456.1,1.263.433l-5.818,11.11a1.313,1.313,0,0,1-2.5-.071l-2.881-14.887,10.132-7.861c1.007-.866,2.942-2.275,3.935-2.258l2.207-.01c1.344-.012,1.823.619,1.507,1.43l-.39.752c-.252.423-1.049.471-1.724.471l-1.274.007a.281.281,0,1,0,0,.563l1.257,0c.541,0,1.226.012.974.42l-4.7,8.962C496.954,1358.324,495.979,1358.388,495.146,1358.388Z"/></g><g class="e"><path class="d" d="M474.257,1371.388a1.386,1.386,0,0,1-1.273-.94,3.735,3.735,0,0,1,.066-2.306l11.74-20.82c.191-.384.666-1.19,1.251-1.189,1.033,0,1.484-1.362-.274-1.362h-9.4c-1.755,0-1.775,1.338-.09,1.338a.789.789,0,0,1,.766,1.082l-2.6,4.71c-.325.517-1.045.557-1.8.557l-2.241-.007a.282.282,0,0,0,0,.564h2.221c.6,0,1.082.183.733.88l-8.664,15.786c-.626.868-1.869,1.06-1.8-.6l3.081-23.121c.121-.722-.07-1.211-.84-1.211l-4.647.005a1.365,1.365,0,0,0-1.162.63l-1.666,2.09c-.216.216-.684.215-1.2.215l-3.9-.005a.281.281,0,0,0,0,.563h3.184c.566,0,1.227.133.987.4l-4.469,5.622a1.383,1.383,0,0,1-.835.2l-1.263-.007a.282.282,0,0,0,0,.565l1.054,0c.325,0,.328.161.2.306l-4.2,5.28a1.625,1.625,0,0,1-1.049.247l-3.707-.005a.281.281,0,0,0,0,.562l3.182,0c.483,0,.858.088.6.414l-5.972,7.492c-1.121,1.428-6.528,2.154-7.581,2.154l20.2-37.8a2.156,2.156,0,0,1,1.721-1.095h4.288c2.023,0,1.963-1.348.2-1.348H437.539c-1.758,0-1.829,1.348.194,1.348h3.992c1.131,0,1.5.684,1.2,1.242l-.571,1.041c-.192.336-.458.474-1.554.474l-7.054-.006a.281.281,0,1,0,0,.562l7.036,0c.385,0,.957.1.6.786l-.987,1.836a1.272,1.272,0,0,1-1.1.407l-3.2-.005a.282.282,0,1,0,0,.564h3.184c.458,0,.467.3.2.721l-2.271,4.222c-.194.361-.563.41-1.285.41l-1.274-.006a.281.281,0,1,0,0,.563h1.257c.481,0,.607.269.391.726l-1.866,3.467c-.276.494-.675.691-1.916.691l-7.054-.006a.282.282,0,0,0,0,.564H432.5c.8.013,1.088.364.775.932l-3.641,6.845c-.216.3-.811.346-1.822.346l-7.055-.005a.281.281,0,1,0,0,.563H427.8c.843,0,1.359.036,1.105.48l-2.1,3.948c-.386.6-1.467.6-1.89.6l-2.239-.006a.282.282,0,0,0,0,.564h2.221c.782,0,1.2.136.992.557l-2.8,5.268c-.253.471-1.351.49-2.192.49l-10.91-.006a.283.283,0,0,0,0,.565h10.889c.723,0,1.637.089,1.3.667l-1.789,3.365c-.169.277-.78.3-1.66.3l-2.237-.006a.283.283,0,0,0,0,.565h2.22c.543,0,1.2.06.972.471l-1.119,2.15a1.77,1.77,0,0,1-1.587,1.006H411.5c-2.022,0-1.952,1.348-.193,1.348l32.139.018c.939,0,.97-.126,1.413-.816l4.766-8.312,24.362,0c1.757,0,1.308-1.325.273-1.36m-19.1-2.478c-.242,1.373-1.619,2.28-3.353,2.738l-1.79.448,1.468-2.647c.387-.723-.46-1.148-1.384-.071-6.224,7.243-8.206,10.713-17.8,10.738l-2.579.006c-.779,0-1.636-.306-1.107-1.053l3.4-6.323,12.893,0c1.758,0,1.306-1.325.274-1.361a2.465,2.465,0,0,1-1.958-1.249,1.857,1.857,0,0,1,.037-1.857l4.935-6.56h8.208Zm1.855-8.3H449l10.129-13.356Z"/></g><g class="e"><path class="f" d="M474.257,1371.388a1.386,1.386,0,0,1-1.273-.94,3.735,3.735,0,0,1,.066-2.306l11.74-20.82c.191-.384.666-1.19,1.251-1.189,1.033,0,1.484-1.362-.274-1.362h-9.4c-1.755,0-1.775,1.338-.09,1.338a.789.789,0,0,1,.766,1.082l-2.6,4.71c-.325.517-1.045.557-1.8.557l-2.241-.007a.282.282,0,0,0,0,.564h2.221c.6,0,1.082.183.733.88l-8.664,15.786c-.626.868-1.869,1.06-1.8-.6l3.081-23.121c.121-.722-.07-1.211-.84-1.211l-4.647.005a1.365,1.365,0,0,0-1.162.63l-1.666,2.09c-.216.216-.684.215-1.2.215l-3.9-.005a.281.281,0,0,0,0,.563h3.184c.566,0,1.227.133.987.4l-4.469,5.622a1.383,1.383,0,0,1-.835.2l-1.263-.007a.282.282,0,0,0,0,.565l1.054,0c.325,0,.328.161.2.306l-4.2,5.28a1.625,1.625,0,0,1-1.049.247l-3.707-.005a.281.281,0,0,0,0,.562l3.182,0c.483,0,.858.088.6.414l-5.972,7.492c-1.121,1.428-6.528,2.154-7.581,2.154l20.2-37.8a2.156,2.156,0,0,1,1.721-1.095h4.288c2.023,0,1.963-1.348.2-1.348H437.539c-1.758,0-1.829,1.348.194,1.348h3.992c1.131,0,1.5.684,1.2,1.242l-.571,1.041c-.192.336-.458.474-1.554.474l-7.054-.006a.281.281,0,1,0,0,.562l7.036,0c.385,0,.957.1.6.786l-.987,1.836a1.272,1.272,0,0,1-1.1.407l-3.2-.005a.282.282,0,1,0,0,.564h3.184c.458,0,.467.3.2.721l-2.271,4.222c-.194.361-.563.41-1.285.41l-1.274-.006a.281.281,0,1,0,0,.563h1.257c.481,0,.607.269.391.726l-1.866,3.467c-.276.494-.675.691-1.916.691l-7.054-.006a.282.282,0,0,0,0,.564H432.5c.8.013,1.088.364.775.932l-3.641,6.845c-.216.3-.811.346-1.822.346l-7.055-.005a.281.281,0,1,0,0,.563H427.8c.843,0,1.359.036,1.105.48l-2.1,3.948c-.386.6-1.467.6-1.89.6l-2.239-.006a.282.282,0,0,0,0,.564h2.221c.782,0,1.2.136.992.557l-2.8,5.268c-.253.471-1.351.49-2.192.49l-10.91-.006a.283.283,0,0,0,0,.565h10.889c.723,0,1.637.089,1.3.667l-1.789,3.365c-.169.277-.78.3-1.66.3l-2.237-.006a.283.283,0,0,0,0,.565h2.22c.543,0,1.2.06.972.471l-1.119,2.15a1.77,1.77,0,0,1-1.587,1.006H411.5c-2.022,0-1.952,1.348-.193,1.348l32.139.018c.939,0,.97-.126,1.413-.816l4.766-8.312,24.362,0C475.741,1372.748,475.292,1371.423,474.257,1371.388Zm-19.1-2.478c-.242,1.373-1.619,2.28-3.353,2.738l-1.79.448,1.468-2.647c.387-.723-.46-1.148-1.384-.071-6.224,7.243-8.206,10.713-17.8,10.738l-2.579.006c-.779,0-1.636-.306-1.107-1.053l3.4-6.323,12.893,0c1.758,0,1.306-1.325.274-1.361a2.465,2.465,0,0,1-1.958-1.249,1.857,1.857,0,0,1,.037-1.857l4.935-6.56h8.208Zm1.855-8.3H449l10.129-13.356Z"/></g><g class="e"><path class="d" d="M578.839,1364.747c-.132-.658-.374-.258-.806.572-.134.252-.555.258-.976.258l-1.289.005a.281.281,0,0,0,0,.563h1.268c.481,0,.489.32.262.8a21.574,21.574,0,0,1-3.01,4.672,1.55,1.55,0,0,1-1.066.446l-1.294.005a.281.281,0,1,0,0,.563H573.2c.637,0-.007.393-.116.538a28.325,28.325,0,0,1-5.448,5.678,5.509,5.509,0,0,1-1.777.1l-1.276.007a.281.281,0,0,0,0,.562l1.26,0c.959,0,.24.552.093.674a16.894,16.894,0,0,1-11.1,3.557c-7.751-.97-9.348-6.852-9.921-9.2-.119-.492-.489-1.5-.612-2.12-.241-1.231,3.256-1.582,4.221-.934a16.46,16.46,0,0,0,7.565,1.995c2.483.008,7.568-1.8,9.041-6.064,1.505-4.366-2.277-9.212-3.951-10.885-2.136-2.134-4.149-5.531-3.3-8.023.638-1.879,1.71-2.732,4.006-2.732,2.963,0,5.121,1.9,5.121,4.609,0,.24-.151.529-.345.529l-1.046.005a.281.281,0,0,0,0,.563h.985c.277,0,.452.21.377.548-.192.905-.256,1.541-.454,2.449-.112.526.657.889.923.505l4.658-8.317c.338-.625-.411-.794-.965-.6-1.275.444-3.347.749-4.082.222a9.114,9.114,0,0,0-5.764-2.054c-4.138,0-7.038,1.02-8.9,4.43-.146.265-.552.26-.9.26l-.8,0a.283.283,0,0,0,0,.565l.677-.006c.289,0,.485.081.339.418-.128.305-.243.629-.35.966a8.468,8.468,0,0,0,.418,5.39c.049.119-.106.178-.394.177l-1.269.005a.282.282,0,0,0,0,.564h1.269c.575,0,.71.059.947.395.655.921,1.328,1.6,2.166,2.674.265.335-.865.431-1.467.425H548a.281.281,0,1,0,0,.563l5.085-.006a7.986,7.986,0,0,1,2.376.169c1.23,1.418,2.717,3.6,2.969,5.446.07.529-.13.752-.781.752h-.679a.282.282,0,0,0,0,.563h.6c.517,0,.8.083.683.47-.662,2.106-1.651,3.632-5.673,3.611-4.221-.024-5.077-4.159-3.844-8.472.247-.861-.01-1.229-.4-.554l-2.935,4.614a1.018,1.018,0,0,1-.8.369h-.417a.282.282,0,0,0-.282.283.285.285,0,0,0,.286.28c.374,0,.517.2.374.4l-1.079,1.682a54.121,54.121,0,0,0-6.331-10.877l.028-.088c3.913-.236,9.684-3.9,10.629-7.176,1.64-5.684-3.881-7.781-6.889-7.781H527.7c-1.756,0-1.883,1.332-.2,1.332.91,0,1.707.8,1.306,1.6l-2.932,5.279c-.241.433-1.149.407-2.329.407h-1.283a.281.281,0,1,0,0,.563h1.262c.843,0,1.77.051,1.459.653l-3.464,6.254c-.169.288-.617.315-1.8.315l-1.277.005a.282.282,0,0,0,0,.564H519.7c.928,0,1.274.124,1.01.606l-4.626,8.365a2.793,2.793,0,0,1-2.342.714c-1.685,0-1.667,1.337.091,1.337h11.326c1.757,0,1.309-1.36.273-1.36a1.312,1.312,0,0,1-.85-1.792l5.781-10.951h.588c2.571,0,3.191,4.219,3.678,8.825.035.329-.6.347-1.874.347l-3.216.005a.281.281,0,1,0,0,.562h3.182c.844,0,2.021.007,2.051.281a46.011,46.011,0,0,0,.773,5.419c.123.506-.78.427-1.743.427l-4.093.005a.283.283,0,0,0,0,.565l4.089.005c1.285,0,1.949,0,2.022.262,1.762,6.459,9.315,11.546,16.66,11.264,6.3-.24,11.627-3.669,14.353-5.853,3.625-2.91,8.954-9,11.121-13.434.4-.814,1.035-1.856.89-2.578m-42.373-8.6c-.881.726-2.274,1.56-2.542,1.294a11.02,11.02,0,0,0-2.174-1.468l5.248-9.593a1.05,1.05,0,0,1,1.04-.521c2.046,0,2.715,2.216,1.755,4.976a12.094,12.094,0,0,1-3.327,5.312"/></g><g class="e"><path class="f" d="M578.839,1364.747c-.132-.658-.374-.258-.806.572-.134.252-.555.258-.976.258l-1.289.005a.281.281,0,0,0,0,.563h1.268c.481,0,.489.32.262.8a21.574,21.574,0,0,1-3.01,4.672,1.55,1.55,0,0,1-1.066.446l-1.294.005a.281.281,0,1,0,0,.563H573.2c.637,0-.007.393-.116.538a28.325,28.325,0,0,1-5.448,5.678,5.509,5.509,0,0,1-1.777.1l-1.276.007a.281.281,0,0,0,0,.562l1.26,0c.959,0,.24.552.093.674a16.894,16.894,0,0,1-11.1,3.557c-7.751-.97-9.348-6.852-9.921-9.2-.119-.492-.489-1.5-.612-2.12-.241-1.231,3.256-1.582,4.221-.934a16.46,16.46,0,0,0,7.565,1.995c2.483.008,7.568-1.8,9.041-6.064,1.505-4.366-2.277-9.212-3.951-10.885-2.136-2.134-4.149-5.531-3.3-8.023.638-1.879,1.71-2.732,4.006-2.732,2.963,0,5.121,1.9,5.121,4.609,0,.24-.151.529-.345.529l-1.046.005a.281.281,0,0,0,0,.563h.985c.277,0,.452.21.377.548-.192.905-.256,1.541-.454,2.449-.112.526.657.889.923.505l4.658-8.317c.338-.625-.411-.794-.965-.6-1.275.444-3.347.749-4.082.222a9.114,9.114,0,0,0-5.764-2.054c-4.138,0-7.038,1.02-8.9,4.43-.146.265-.552.26-.9.26l-.8,0a.283.283,0,0,0,0,.565l.677-.006c.289,0,.485.081.339.418-.128.305-.243.629-.35.966a8.468,8.468,0,0,0,.418,5.39c.049.119-.106.178-.394.177l-1.269.005a.282.282,0,0,0,0,.564h1.269c.575,0,.71.059.947.395.655.921,1.328,1.6,2.166,2.674.265.335-.865.431-1.467.425H548a.281.281,0,1,0,0,.563l5.085-.006a7.986,7.986,0,0,1,2.376.169c1.23,1.418,2.717,3.6,2.969,5.446.07.529-.13.752-.781.752h-.679a.282.282,0,0,0,0,.563h.6c.517,0,.8.083.683.47-.662,2.106-1.651,3.632-5.673,3.611-4.221-.024-5.077-4.159-3.844-8.472.247-.861-.01-1.229-.4-.554l-2.935,4.614a1.018,1.018,0,0,1-.8.369h-.417a.282.282,0,0,0-.282.283.285.285,0,0,0,.286.28c.374,0,.517.2.374.4l-1.079,1.682a54.121,54.121,0,0,0-6.331-10.877l.028-.088c3.913-.236,9.684-3.9,10.629-7.176,1.64-5.684-3.881-7.781-6.889-7.781H527.7c-1.756,0-1.883,1.332-.2,1.332.91,0,1.707.8,1.306,1.6l-2.932,5.279c-.241.433-1.149.407-2.329.407h-1.283a.281.281,0,1,0,0,.563h1.262c.843,0,1.77.051,1.459.653l-3.464,6.254c-.169.288-.617.315-1.8.315l-1.277.005a.282.282,0,0,0,0,.564H519.7c.928,0,1.274.124,1.01.606l-4.626,8.365a2.793,2.793,0,0,1-2.342.714c-1.685,0-1.667,1.337.091,1.337h11.326c1.757,0,1.309-1.36.273-1.36a1.312,1.312,0,0,1-.85-1.792l5.781-10.951h.588c2.571,0,3.191,4.219,3.678,8.825.035.329-.6.347-1.874.347l-3.216.005a.281.281,0,1,0,0,.562h3.182c.844,0,2.021.007,2.051.281a46.011,46.011,0,0,0,.773,5.419c.123.506-.78.427-1.743.427l-4.093.005a.283.283,0,0,0,0,.565l4.089.005c1.285,0,1.949,0,2.022.262,1.762,6.459,9.315,11.546,16.66,11.264,6.3-.24,11.627-3.669,14.353-5.853,3.625-2.91,8.954-9,11.121-13.434C578.347,1366.511,578.984,1365.469,578.839,1364.747Zm-42.373-8.6c-.881.726-2.274,1.56-2.542,1.294a11.02,11.02,0,0,0-2.174-1.468l5.248-9.593a1.05,1.05,0,0,1,1.04-.521c2.046,0,2.715,2.216,1.755,4.976A12.094,12.094,0,0,1,536.466,1356.146Z"/></g><g class="e"><path class="d" d="M472.7,1336.224a4.678,4.678,0,0,1-4.051,1.724H468.2l2.787-5.515a.884.884,0,0,1,.788-.45c.35,0,.308-.7-.15-.7h-4.392c-.373,0-.505.7-.155.7.374,0,.443.414.262.763l-2.495,4.916a1.112,1.112,0,0,1-.75.417c-.37.095-.626.759-.2.759h7.01a.816.816,0,0,0,.813-.4l1.408-2.182c.2-.265-.222-.3-.426-.037"/></g><g class="e"><path class="f" d="M472.7,1336.224a4.678,4.678,0,0,1-4.051,1.724H468.2l2.787-5.515a.884.884,0,0,1,.788-.45c.35,0,.308-.7-.15-.7h-4.392c-.373,0-.505.7-.155.7.374,0,.443.414.262.763l-2.495,4.916a1.112,1.112,0,0,1-.75.417c-.37.095-.626.759-.2.759h7.01a.816.816,0,0,0,.813-.4l1.408-2.182C473.325,1336,472.9,1335.959,472.7,1336.224Z"/></g><g class="e"><path class="d" d="M493.813,1331.481a1.034,1.034,0,0,1-.932,0,4.342,4.342,0,0,0-2.234-.824c-1.654,0-2.85.328-3.57,1.888-.613,1.329.015,2.441,1.475,3.117.63.293,1.468.673,1.147,1.434-.234.556-.883.613-1.464.606a2.246,2.246,0,0,1-2.142-1.7c-.062-.363-.482-.279-.6-.086l-1,1.988c-.157.265.255.558.416.385a1.275,1.275,0,0,1,1.433-.2,6.051,6.051,0,0,0,2.536.9,3.855,3.855,0,0,0,3.7-1.879c.839-1.311.324-2.612-1.2-3.331-.807-.38-1.5-1.052-1.138-1.794.233-.484.955-.379,1.313-.319a2.225,2.225,0,0,1,1.657,1.324.259.259,0,0,0,.484.072l.527-1.225c.119-.242-.268-.427-.4-.354"/></g><g class="e"><path class="f" d="M493.813,1331.481a1.034,1.034,0,0,1-.932,0,4.342,4.342,0,0,0-2.234-.824c-1.654,0-2.85.328-3.57,1.888-.613,1.329.015,2.441,1.475,3.117.63.293,1.468.673,1.147,1.434-.234.556-.883.613-1.464.606a2.246,2.246,0,0,1-2.142-1.7c-.062-.363-.482-.279-.6-.086l-1,1.988c-.157.265.255.558.416.385a1.275,1.275,0,0,1,1.433-.2,6.051,6.051,0,0,0,2.536.9,3.855,3.855,0,0,0,3.7-1.879c.839-1.311.324-2.612-1.2-3.331-.807-.38-1.5-1.052-1.138-1.794.233-.484.955-.379,1.313-.319a2.225,2.225,0,0,1,1.657,1.324.259.259,0,0,0,.484.072l.527-1.225C494.332,1331.593,493.945,1331.408,493.813,1331.481Z"/></g><g class="e"><path class="d" d="M542.461,1333.455l.611-1.125c.263-.494-.172-1.054-.872-1.054h-8.186c-.59,0-.416.616-.175.616.527,0,.681.639.362,1.18l-2.46,4.529a1.3,1.3,0,0,1-1.129.62c-.421,0-.571.615.018.615h8.3a.648.648,0,0,0,.6-.288l1.128-1.5c.275-.36-.32-.36-.5-.18a5.088,5.088,0,0,1-4.077,1.39h-.965l1.135-2.535h.241c.729,0,1.572-.008,1.791.545a.353.353,0,0,0,.565,0l.97-1.936c.156-.288-.282-.34-.4-.132-.385.683-2.066.5-2.506.5h-.242l1.414-2.794h1.577a2.31,2.31,0,0,1,2.1,1.451c.066.182.59.325.7.1"/></g><g class="e"><path class="f" d="M542.461,1333.455l.611-1.125c.263-.494-.172-1.054-.872-1.054h-8.186c-.59,0-.416.616-.175.616.527,0,.681.639.362,1.18l-2.46,4.529a1.3,1.3,0,0,1-1.129.62c-.421,0-.571.615.018.615h8.3a.648.648,0,0,0,.6-.288l1.128-1.5c.275-.36-.32-.36-.5-.18a5.088,5.088,0,0,1-4.077,1.39h-.965l1.135-2.535h.241c.729,0,1.572-.008,1.791.545a.353.353,0,0,0,.565,0l.97-1.936c.156-.288-.282-.34-.4-.132-.385.683-2.066.5-2.506.5h-.242l1.414-2.794h1.577a2.31,2.31,0,0,1,2.1,1.451C541.829,1333.541,542.353,1333.684,542.461,1333.455Z"/></g><g class="e"><path class="d" d="M521.517,1331.275H518.6c-.592,0-.416.617-.176.617a.981.981,0,0,1,.846,1.4l-1.2,2.207-2.659-3.893a1.265,1.265,0,0,0-.96-.357h-2.867c-.589,0-.454.609-.212.609.61,0,.451.456.3.782l-2.283,4.4a.536.536,0,0,1-.959-.045l-1.77-5.76c-.072-.227-1.105-.215-1.369,0l-4.43,3.653-2.294,0c-.455,0-.635.189-.635.429s.173.461.655.461h1.2l-1.2.986c-.67.5-1.353,1.181-1.807,1.181h-.28c-.433,0-.677.07-.677.419s.184.47.6.47h3.57c.676,0,.544-.878.207-.878a.64.64,0,0,1-.412-1.132l1.09-1.045h2.149c1.275,0,2.165,1.478,1.407,1.937l-.591.325c-.276.145-.4.793,0,.793h6.982c.517,0,.412-.685.171-.685-.715,0-.378-1.028-.239-1.3l1.835-3.474,2.577,4.993c.169.313.319.469.62.469h.986c.313,0,.42-.18.563-.421l2.936-5.3c.471-.948.834-1.22,1.427-1.22.241,0,.41-.621-.18-.621m-19.531,3.617,2.729-2.231.013,2.231Z"/></g><g class="e"><path class="f" d="M521.517,1331.275H518.6c-.592,0-.416.617-.176.617a.981.981,0,0,1,.846,1.4l-1.2,2.207-2.659-3.893a1.265,1.265,0,0,0-.96-.357h-2.867c-.589,0-.454.609-.212.609.61,0,.451.456.3.782l-2.283,4.4a.536.536,0,0,1-.959-.045l-1.77-5.76c-.072-.227-1.105-.215-1.369,0l-4.43,3.653-2.294,0c-.455,0-.635.189-.635.429s.173.461.655.461h1.2l-1.2.986c-.67.5-1.353,1.181-1.807,1.181h-.28c-.433,0-.677.07-.677.419s.184.47.6.47h3.57c.676,0,.544-.878.207-.878a.64.64,0,0,1-.412-1.132l1.09-1.045h2.149c1.275,0,2.165,1.478,1.407,1.937l-.591.325c-.276.145-.4.793,0,.793h6.982c.517,0,.412-.685.171-.685-.715,0-.378-1.028-.239-1.3l1.835-3.474,2.577,4.993c.169.313.319.469.62.469h.986c.313,0,.42-.18.563-.421l2.936-5.3c.471-.948.834-1.22,1.427-1.22C521.938,1331.9,522.107,1331.275,521.517,1331.275Zm-19.531,3.617,2.729-2.231.013,2.231Z"/></g><g class="e"><path class="d" d="M480.16,1330.944c-2.456,0-4.987,1.209-5.492,3.785a3.8,3.8,0,0,0,3.855,4.571,5.507,5.507,0,0,0,5.505-4.183c.485-2.487-1.366-4.173-3.868-4.173m.694,4.725c-.779,1.553-2.083,2.475-2.913,2.059s-.872-2.013-.093-3.567,2.082-2.476,2.912-2.059.873,2.012.094,3.567"/></g><g class="e"><path class="f" d="M480.16,1330.944c-2.456,0-4.987,1.209-5.492,3.785a3.8,3.8,0,0,0,3.855,4.571,5.507,5.507,0,0,0,5.505-4.183C484.513,1332.63,482.662,1330.944,480.16,1330.944Zm.694,4.725c-.779,1.553-2.083,2.475-2.913,2.059s-.872-2.013-.093-3.567,2.082-2.476,2.912-2.059S481.633,1334.114,480.854,1335.669Z"/></g><g class="e"><path class="d" d="M529.818,1334.7h-3.154c-.592,0-.418.616-.175.616s.481.132.481.529c0,1.275-.546,1.766-1.64,1.766-1.2,0-1.633-1.457-.824-3.245a3.959,3.959,0,0,1,3.505-2.208c.992,0,1.826.214,1.954,1.144.031.232.372.231.494.014l.747-1.34c.084-.146-.046-.316-.274-.329-.192-.014-.623.236-.908.024a6.239,6.239,0,0,0-8.7,2.233,3.451,3.451,0,0,0,2.61,5.163,8.61,8.61,0,0,0,3.061-1.1l.806.546a.916.916,0,0,0,.613.325h.3c.274,0,.382-.379.491-.62l1.239-2.995c.155-.3.067-.519-.631-.519"/></g><g class="e"><path class="f" d="M529.818,1334.7h-3.154c-.592,0-.418.616-.175.616s.481.132.481.529c0,1.275-.546,1.766-1.64,1.766-1.2,0-1.633-1.457-.824-3.245a3.959,3.959,0,0,1,3.505-2.208c.992,0,1.826.214,1.954,1.144.031.232.372.231.494.014l.747-1.34c.084-.146-.046-.316-.274-.329-.192-.014-.623.236-.908.024a6.239,6.239,0,0,0-8.7,2.233,3.451,3.451,0,0,0,2.61,5.163,8.61,8.61,0,0,0,3.061-1.1l.806.546a.916.916,0,0,0,.613.325h.3c.274,0,.382-.379.491-.62l1.239-2.995C530.6,1334.921,530.516,1334.7,529.818,1334.7Z"/></g><g class="e"><path class="d" d="M573.036,1331.481a1.032,1.032,0,0,1-.931,0,4.349,4.349,0,0,0-2.235-.824c-1.651,0-2.85.328-3.57,1.888-.614,1.329.015,2.441,1.475,3.117.632.293,1.47.673,1.149,1.434-.235.556-.884.613-1.466.606a2.248,2.248,0,0,1-2.143-1.7c-.06-.363-.48-.279-.6-.086l-1,1.988c-.157.265.256.558.418.385a1.273,1.273,0,0,1,1.431-.2,6.07,6.07,0,0,0,2.537.9,3.861,3.861,0,0,0,3.7-1.879c.836-1.311.321-2.612-1.207-3.331-.806-.38-1.5-1.052-1.139-1.794.237-.484.957-.379,1.315-.319a2.232,2.232,0,0,1,1.657,1.324.258.258,0,0,0,.483.072l.526-1.225c.12-.242-.266-.427-.4-.354"/></g><g class="e"><path class="f" d="M573.036,1331.481a1.032,1.032,0,0,1-.931,0,4.349,4.349,0,0,0-2.235-.824c-1.651,0-2.85.328-3.57,1.888-.614,1.329.015,2.441,1.475,3.117.632.293,1.47.673,1.149,1.434-.235.556-.884.613-1.466.606a2.248,2.248,0,0,1-2.143-1.7c-.06-.363-.48-.279-.6-.086l-1,1.988c-.157.265.256.558.418.385a1.273,1.273,0,0,1,1.431-.2,6.07,6.07,0,0,0,2.537.9,3.861,3.861,0,0,0,3.7-1.879c.836-1.311.321-2.612-1.207-3.331-.806-.38-1.5-1.052-1.139-1.794.237-.484.957-.379,1.315-.319a2.232,2.232,0,0,1,1.657,1.324.258.258,0,0,0,.483.072l.526-1.225C573.555,1331.593,573.169,1331.408,573.036,1331.481Z"/></g><g class="e"><path class="d" d="M551.1,1336.224a4.676,4.676,0,0,1-4.049,1.724H546.6l2.787-5.515a.882.882,0,0,1,.788-.45c.35,0,.308-.7-.149-.7h-4.393c-.374,0-.506.7-.155.7.374,0,.442.414.262.763l-2.495,4.916a1.112,1.112,0,0,1-.752.417c-.368.095-.623.759-.2.759H549.3a.816.816,0,0,0,.812-.4l1.407-2.182c.207-.265-.22-.3-.424-.037"/></g><g class="e"><path class="f" d="M551.1,1336.224a4.676,4.676,0,0,1-4.049,1.724H546.6l2.787-5.515a.882.882,0,0,1,.788-.45c.35,0,.308-.7-.149-.7h-4.393c-.374,0-.506.7-.155.7.374,0,.442.414.262.763l-2.495,4.916a1.112,1.112,0,0,1-.752.417c-.368.095-.623.759-.2.759H549.3a.816.816,0,0,0,.812-.4l1.407-2.182C551.731,1336,551.3,1335.959,551.1,1336.224Z"/></g><g class="e"><path class="d" d="M561.672,1331.909a2.314,2.314,0,0,1,2.1,1.45c.065.181.587.325.7.1l.611-1.126c.264-.493-.172-1.055-.87-1.055h-8.189c-.588,0-.415.617-.175.617.526,0,.684.639.365,1.18l-2.462,4.53a1.294,1.294,0,0,1-1.129.618c-.422,0-.57.616.021.616h8.294a.656.656,0,0,0,.607-.289l1.125-1.5c.277-.36-.317-.36-.5-.181a5.093,5.093,0,0,1-4.078,1.39h-.968l1.136-2.535h.24c.731,0,1.57-.008,1.793.545a.352.352,0,0,0,.565,0l.968-1.936c.157-.287-.281-.338-.4-.131-.384.682-2.066.5-2.505.5h-.243l1.413-2.793h1.577Z"/></g><g class="e"><path class="f" d="M561.672,1331.909a2.314,2.314,0,0,1,2.1,1.45c.065.181.587.325.7.1l.611-1.126c.264-.493-.172-1.055-.87-1.055h-8.189c-.588,0-.415.617-.175.617.526,0,.684.639.365,1.18l-2.462,4.53a1.294,1.294,0,0,1-1.129.618c-.422,0-.57.616.021.616h8.294a.656.656,0,0,0,.607-.289l1.125-1.5c.277-.36-.317-.36-.5-.181a5.093,5.093,0,0,1-4.078,1.39h-.968l1.136-2.535h.24c.731,0,1.57-.008,1.793.545a.352.352,0,0,0,.565,0l.968-1.936c.157-.287-.281-.338-.4-.131-.384.682-2.066.5-2.505.5h-.243l1.413-2.793h1.577Z"/></g><path d="M529.436,1325.286c-.63-.724-1.5-2.263-7.745-7.706-9.18-8-21.345-11.655-32.767-11.655a47.266,47.266,0,0,0-23.959,6.386,46.023,46.023,0,0,0-15.777,13.649c-.785.984-.9,1.559-.388,1.853.363.211,1.064-.555,1.718-1.42a39.48,39.48,0,0,1,11.446-10.521c1.332.191,3.2,2.044,3.921,3.032a88.237,88.237,0,0,0-9,6.285c-1.485,1.152-2,1.8-1.6,2.264.332.389,1.467-.378,2.42-1.156a82.155,82.155,0,0,1,8.954-6.117c1.645,1.928,1.114,5.491.532,6.262-.313.413-.355.856,0,1.06.339.192.708-.3,1.186-.988,1.123-1.62.672-5.547-.291-6.958a34.85,34.85,0,0,1,9.753-3.637c.218.409,3.328,9.5,3.922,11.148.323.906.644,1.986,1.306,1.783.439-.136.149-1.126-.219-2.12-.453-1.231-2.806-8.86-3.532-11.125a31.156,31.156,0,0,1,7.236-1.444c-.631,3.323,1.723,4.685,4.379,6.429,1.414.927,10.393,6.087,12.27,7.248,1.071.664,1.9,1.084,2.129.771.263-.359-.465-1.107-1.451-1.687-.786-.461-9.143-5.307-12.634-7.512-2.5-1.579-3.843-3.271-3.242-5.491a33.8,33.8,0,0,1,5.954-.241c17.809.145,32.09,10.355,33.687,11.993.81.829,1.935,1.541,2.372,1.2.277-.214-.2-1.152-.581-1.59m-62.1-7.033a11.392,11.392,0,0,0-3.968-3.274,45.653,45.653,0,0,1,12-5.683,39.458,39.458,0,0,1,1.984,5.1,45.872,45.872,0,0,0-10.019,3.852m19.458-5.73a50.962,50.962,0,0,0-8.035,1.494c-.387-1.012-1.452-4.143-1.792-5.154a38.6,38.6,0,0,1,13.069-1.3c-1.064.818-2.855,4.046-3.242,4.96m11.569-.143a57.339,57.339,0,0,0-9.779-.1,11.156,11.156,0,0,1,3.631-4.72,51.092,51.092,0,0,1,7.5.915c6.887,1.36,17.6,5.56,22.215,11.751-6.15-4.1-16.372-7.337-23.57-7.849"/><path d="M533.289,1386.264c.659-1.213,1.2-1.9.63-2.214-.516-.287-1.018.835-1.645,1.925-2.081,3.612-4.355,6.594-9.488,11.269a47.217,47.217,0,0,1-14.5,8.958c-1.936-5.44-9.317-28.619-9.511-29.281-.291-.987-.537-1.274-.873-1.155-.374.133-.143.674.05,1.541s8.978,28.293,9.268,29.256a47.291,47.291,0,0,1-13.768,3.01c-4.406.146-9.585,0-12.2-.6-3.066-2.473-10.035-12.314-12.681-17.553a75.259,75.259,0,0,1-5.714-14.262c-.256-1.153-.581-1.983-1.161-1.873-.625.121-.267,1.031.1,2.263a80.535,80.535,0,0,0,5.713,14.087c3.44,6.792,9.582,14.758,11.372,16.929a48.864,48.864,0,0,1-18.912-8.637,54.515,54.515,0,0,1-12.791-13.324c-.413-.664-.9-1.6-1.5-1.2-.27.175.064.93.484,1.685,3.5,6.292,12.045,15.2,22.991,20.082,12.757,5.694,26.668,5.394,39.108.577,10.88-4.212,20.348-12.879,25.023-21.479"/><g class="e"><path d="M529.436,1325.286c-.63-.724-1.5-2.263-7.745-7.706-9.18-8-21.345-11.655-32.767-11.655a47.266,47.266,0,0,0-23.959,6.386,46.023,46.023,0,0,0-15.777,13.649c-.785.984-.9,1.559-.388,1.853.363.211,1.064-.555,1.718-1.42a39.48,39.48,0,0,1,11.446-10.521c1.332.191,3.2,2.044,3.921,3.032a88.237,88.237,0,0,0-9,6.285c-1.485,1.152-2,1.8-1.6,2.264.332.389,1.467-.378,2.42-1.156a82.155,82.155,0,0,1,8.954-6.117c1.645,1.928,1.114,5.491.532,6.262-.313.413-.355.856,0,1.06.339.192.708-.3,1.186-.988,1.123-1.62.672-5.547-.291-6.958a34.85,34.85,0,0,1,9.753-3.637c.218.409,3.328,9.5,3.922,11.148.323.906.644,1.986,1.306,1.783.439-.136.149-1.126-.219-2.12-.453-1.231-2.806-8.86-3.532-11.125a31.156,31.156,0,0,1,7.236-1.444c-.631,3.323,1.723,4.685,4.379,6.429,1.414.927,10.393,6.087,12.27,7.248,1.071.664,1.9,1.084,2.129.771.263-.359-.465-1.107-1.451-1.687-.786-.461-9.143-5.307-12.634-7.512-2.5-1.579-3.843-3.271-3.242-5.491a33.8,33.8,0,0,1,5.954-.241c17.809.145,32.09,10.355,33.687,11.993.81.829,1.935,1.541,2.372,1.2.277-.214-.2-1.152-.581-1.59m-62.1-7.033a11.392,11.392,0,0,0-3.968-3.274,45.653,45.653,0,0,1,12-5.683,39.458,39.458,0,0,1,1.984,5.1,45.872,45.872,0,0,0-10.019,3.852m19.458-5.73a50.962,50.962,0,0,0-8.035,1.494c-.387-1.012-1.452-4.143-1.792-5.154a38.6,38.6,0,0,1,13.069-1.3c-1.064.818-2.855,4.046-3.242,4.96m11.569-.143a57.339,57.339,0,0,0-9.779-.1,11.156,11.156,0,0,1,3.631-4.72,51.092,51.092,0,0,1,7.5.915c6.887,1.36,17.6,5.56,22.215,11.751-6.15-4.1-16.372-7.337-23.57-7.849"/></g><g class="e"><path class="f" d="M529.436,1325.286c-.63-.724-1.5-2.263-7.745-7.706-9.18-8-21.345-11.655-32.767-11.655a47.266,47.266,0,0,0-23.959,6.386,46.023,46.023,0,0,0-15.777,13.649c-.785.984-.9,1.559-.388,1.853.363.211,1.064-.555,1.718-1.42a39.48,39.48,0,0,1,11.446-10.521c1.332.191,3.2,2.044,3.921,3.032a88.237,88.237,0,0,0-9,6.285c-1.485,1.152-2,1.8-1.6,2.264.332.389,1.467-.378,2.42-1.156a82.155,82.155,0,0,1,8.954-6.117c1.645,1.928,1.114,5.491.532,6.262-.313.413-.355.856,0,1.06.339.192.708-.3,1.186-.988,1.123-1.62.672-5.547-.291-6.958a34.85,34.85,0,0,1,9.753-3.637c.218.409,3.328,9.5,3.922,11.148.323.906.644,1.986,1.306,1.783.439-.136.149-1.126-.219-2.12-.453-1.231-2.806-8.86-3.532-11.125a31.156,31.156,0,0,1,7.236-1.444c-.631,3.323,1.723,4.685,4.379,6.429,1.414.927,10.393,6.087,12.27,7.248,1.071.664,1.9,1.084,2.129.771.263-.359-.465-1.107-1.451-1.687-.786-.461-9.143-5.307-12.634-7.512-2.5-1.579-3.843-3.271-3.242-5.491a33.8,33.8,0,0,1,5.954-.241c17.809.145,32.09,10.355,33.687,11.993.81.829,1.935,1.541,2.372,1.2C530.294,1326.662,529.817,1325.724,529.436,1325.286Zm-62.1-7.033a11.392,11.392,0,0,0-3.968-3.274,45.653,45.653,0,0,1,12-5.683,39.458,39.458,0,0,1,1.984,5.1A45.872,45.872,0,0,0,467.337,1318.253Zm19.458-5.73a50.962,50.962,0,0,0-8.035,1.494c-.387-1.012-1.452-4.143-1.792-5.154a38.6,38.6,0,0,1,13.069-1.3C488.973,1308.381,487.182,1311.609,486.8,1312.523Zm11.569-.143a57.339,57.339,0,0,0-9.779-.1,11.156,11.156,0,0,1,3.631-4.72,51.092,51.092,0,0,1,7.5.915c6.887,1.36,17.6,5.56,22.215,11.751C515.784,1316.124,505.562,1312.892,498.364,1312.38Z"/></g><g class="e"><path d="M533.289,1386.264c.659-1.213,1.2-1.9.63-2.214-.516-.287-1.018.835-1.645,1.925-2.081,3.612-4.355,6.594-9.488,11.269a47.217,47.217,0,0,1-14.5,8.958c-1.936-5.44-9.317-28.619-9.511-29.281-.291-.987-.537-1.274-.873-1.155-.374.133-.143.674.05,1.541s8.978,28.293,9.268,29.256a47.291,47.291,0,0,1-13.768,3.01c-4.406.146-9.585,0-12.2-.6-3.066-2.473-10.035-12.314-12.681-17.553a75.259,75.259,0,0,1-5.714-14.262c-.256-1.153-.581-1.983-1.161-1.873-.625.121-.267,1.031.1,2.263a80.535,80.535,0,0,0,5.713,14.087c3.44,6.792,9.582,14.758,11.372,16.929a48.864,48.864,0,0,1-18.912-8.637,54.515,54.515,0,0,1-12.791-13.324c-.413-.664-.9-1.6-1.5-1.2-.27.175.064.93.484,1.685,3.5,6.292,12.045,15.2,22.991,20.082,12.757,5.694,26.668,5.394,39.108.577,10.88-4.212,20.348-12.879,25.023-21.479"/></g><g class="e"><path class="f" d="M533.289,1386.264c.659-1.213,1.2-1.9.63-2.214-.516-.287-1.018.835-1.645,1.925-2.081,3.612-4.355,6.594-9.488,11.269a47.217,47.217,0,0,1-14.5,8.958c-1.936-5.44-9.317-28.619-9.511-29.281-.291-.987-.537-1.274-.873-1.155-.374.133-.143.674.05,1.541s8.978,28.293,9.268,29.256a47.291,47.291,0,0,1-13.768,3.01c-4.406.146-9.585,0-12.2-.6-3.066-2.473-10.035-12.314-12.681-17.553a75.259,75.259,0,0,1-5.714-14.262c-.256-1.153-.581-1.983-1.161-1.873-.625.121-.267,1.031.1,2.263a80.535,80.535,0,0,0,5.713,14.087c3.44,6.792,9.582,14.758,11.372,16.929a48.864,48.864,0,0,1-18.912-8.637,54.515,54.515,0,0,1-12.791-13.324c-.413-.664-.9-1.6-1.5-1.2-.27.175.064.93.484,1.685,3.5,6.292,12.045,15.2,22.991,20.082,12.757,5.694,26.668,5.394,39.108.577C519.146,1403.531,528.614,1394.864,533.289,1386.264Z"/></g></g><rect class="g" width="200" height="200"/></svg>