<svg xmlns="http://www.w3.org/2000/svg" width="200" height="200" viewBox="0 0 200 200"><defs><style>.a{fill:#f0ebd2;}.b{fill:#00471b;}.c{fill:#fff;}.d{fill:none;mix-blend-mode:multiply;isolation:isolate;}</style></defs><g transform="translate(-1318.23 -1254.125)"><path class="a" d="M1386.147,1419.474a2.666,2.666,0,0,1-.873-2.783l9.662-34.372a2.681,2.681,0,0,1,.234-.573l-4.435-7.108a2.667,2.667,0,0,1-.3-2.169l.615-2.087-6.076-.39c-5.713-.423-7.753-1.176-9.112-1.926-5.734-3.169-7.23-12.265-7.556-14.978l-.363-3.054a4.17,4.17,0,0,1,.89-3.321,3.475,3.475,0,0,1,2.236-1.206c-13.216-11.962-25.167-26.817-20.992-47.764,4.609-23.134,23.3-30.107,24.092-30.39a2.67,2.67,0,0,1,3.48,3.218,44.056,44.056,0,0,1,14.55-8.316,2.635,2.635,0,0,1,.817-.129,2.671,2.671,0,0,1,1.38,4.956,47.092,47.092,0,0,0-14.247,13.383,38.878,38.878,0,0,1,8.575-1.166c.364,0,.548.011.548.011a2.672,2.672,0,0,1,.484,5.262,50.912,50.912,0,0,0-15.528,7.7,46.579,46.579,0,0,0,5.939,40.961,45.884,45.884,0,0,0,3.779,4.718c-.5-9.642,2.256-24.711,19.688-31.7a2.672,2.672,0,0,1,2.385,4.761l-.129.078a22.85,22.85,0,0,0-6.674,6.627,25.023,25.023,0,0,1,4.626-.912l.2-.024a2.947,2.947,0,0,1,.322-.018,2.671,2.671,0,0,1,1.423,4.929l-.085.055-.114.071c-5.578,3.216-8.681,6.963-9.223,11.134-.594,4.56,1.928,8.859,3.739,11.279,4.69-5.42,7.746-14.688,8.6-18.183a2.668,2.668,0,0,1,2.591-2.033,2.781,2.781,0,0,1,.313.017,2.671,2.671,0,0,1,2.362,2.634c.067,11.393-2.991,19.172-6.126,24.143a24.187,24.187,0,0,0,10.292,2.517c.117,0,.276-.006.305-.006s.2.006.319.006a24.191,24.191,0,0,0,10.3-2.517c-3.135-4.971-6.194-12.75-6.126-24.143a2.67,2.67,0,0,1,2.358-2.634,3.125,3.125,0,0,1,.317-.017,2.667,2.667,0,0,1,2.59,2.033c.855,3.495,3.911,12.764,8.6,18.183,1.808-2.416,4.33-6.716,3.738-11.279-.542-4.171-3.645-7.918-9.223-11.134l-.167-.1a2.7,2.7,0,0,1-1.107-3.166,2.667,2.667,0,0,1,2.5-1.784,2.818,2.818,0,0,1,.317.018l.2.024a25.053,25.053,0,0,1,4.626.912,22.875,22.875,0,0,0-6.671-6.627l-.126-.078a2.67,2.67,0,0,1,1.386-4.953,2.626,2.626,0,0,1,.993.192c17.429,6.993,20.195,22.063,19.691,31.7a46.5,46.5,0,0,0,9.718-45.679,50.316,50.316,0,0,0-15.527-7.7,2.672,2.672,0,0,1,.483-5.262s.185-.011.548-.011a38.884,38.884,0,0,1,8.576,1.166,47.108,47.108,0,0,0-14.248-13.383,2.67,2.67,0,0,1,2.2-4.827,44.021,44.021,0,0,1,14.546,8.316,2.667,2.667,0,0,1,3.481-3.218c.794.284,19.486,7.256,24.094,30.39,4.175,20.947-7.779,35.8-20.992,47.764a3.477,3.477,0,0,1,2.236,1.206,4.166,4.166,0,0,1,.89,3.321l-.363,3.054c-.325,2.713-1.823,11.812-7.556,14.978-1.36.75-3.4,1.5-9.086,1.923l-6.1.393.618,2.087a2.666,2.666,0,0,1-.3,2.169l-4.436,7.108a2.746,2.746,0,0,1,.234.573l9.663,34.372a2.668,2.668,0,0,1-.873,2.783l-32.313,26.262Z"/><path class="b" d="M1352.7,1298.265c4.366-21.919,22.378-28.4,22.378-28.4-6.592,4.872-13.324,14.03-16.108,26.9a37.9,37.9,0,0,1,8.171-7.892c7.3-15.731,19.764-22.112,25.879-24.072a49.243,49.243,0,0,0-18.595,20.15c9.17-3.277,14.7-2.971,14.7-2.971a53.128,53.128,0,0,0-17.157,8.639,49.071,49.071,0,0,0-2.722,16.16,49.576,49.576,0,0,0,8.74,28,42.653,42.653,0,0,0,9.856,10.221c-1.234-3.111-5.945-27.148,16.787-36.272l-.161.1a25.659,25.659,0,0,0-10.933,15.27,17.245,17.245,0,0,1,10.834-4.666c-.039.025-.074.049-.109.074-21.1,12.167-4.324,28.653-4.324,28.653,6.654-5.577,10.532-18.061,11.368-21.476.082,13.193-4.307,21.092-7.29,24.953a26.273,26.273,0,0,0,14.432,4.355h.015a26.274,26.274,0,0,0,14.435-4.355c-2.982-3.861-7.368-11.76-7.286-24.953.832,3.415,4.711,15.9,11.364,21.476,0,0,16.782-16.486-4.321-28.653-.035-.025-.076-.049-.111-.074a17.245,17.245,0,0,1,10.834,4.666,25.659,25.659,0,0,0-10.934-15.27l-.161-.1c22.732,9.123,18.024,33.161,16.785,36.272a42.625,42.625,0,0,0,9.858-10.221,49.584,49.584,0,0,0,8.74-28,49.071,49.071,0,0,0-2.722-16.16,53.111,53.111,0,0,0-17.157-8.639s5.534-.306,14.708,2.971a49.3,49.3,0,0,0-18.6-20.15c6.115,1.961,18.575,8.341,25.879,24.072a37.739,37.739,0,0,1,8.169,7.892c-2.781-12.864-9.51-22.023-16.108-26.9,0,0,18.012,6.479,22.381,28.4,5.083,25.513-15.291,41.443-31.721,55.09l12.542-5.115c.85-.359,1.442.46,1.284,1.437l-.369,3.1c-.2,1.7-1.453,10.334-6.191,12.954-1.025.563-2.8,1.212-7.992,1.6l-9.42.6,1.565,5.3-9.244,14.805,4.738-4.989,9.66,34.372-26.515,21.814,8.274-37.531-12.371,15.048-12.372-15.047,8.277,37.53-26.518-21.813,9.665-34.373,4.735,4.99L1393,1373.225l1.562-5.295-9.413-.605c-5.2-.384-6.97-1.033-7.993-1.6-4.74-2.619-5.991-11.25-6.2-12.954l-.366-3.1c-.155-.977.434-1.8,1.284-1.437l12.542,5.116c-16.427-13.648-36.8-29.578-31.721-55.091m118.876,27.414s10.386-16.415,3.3-25.593c-.729-.939-1.514-1.8-2.294-2.637,2.912,10.494-1.005,28.23-1.005,28.23m-106.237,0s-3.914-17.735-1.005-28.23c-.773.836-1.561,1.7-2.288,2.637-7.089,9.178,3.293,25.593,3.293,25.593"/><path class="c" d="M1445.533,1363.64c4.656-.357,9.979-.24,12.159-1.442,3.226-1.787,4.145-9.481,4.145-9.481h0c-3.562,3.474-11.147,8.925-16.3,10.923m-21.7,35.1H1413.08l2.581,3.5h5.587Zm2.995-30.046a4.6,4.6,0,0,0,6.48.294,3.966,3.966,0,0,0,1.339-3.955.837.837,0,0,0-1.175-.63c-2.525,1.159-5.06,2.322-6.4,2.94a.831.831,0,0,0-.24,1.351m-18.106,15.227-1.518,6.681,3.73,5.035h3.958l-3.665-5.391.58-3.331a9.087,9.087,0,0,0,13.3,0l.58,3.331-3.671,5.391h3.961l3.73-5.035-1.515-6.681a10.249,10.249,0,0,1-4.386-5.505l-2.481-8.13-2.872,1.393-2.871-1.393-2.481,8.13a10.264,10.264,0,0,1-4.383,5.505m-5.115-14.933a4.6,4.6,0,0,0,6.483-.3.833.833,0,0,0-.243-1.35c-1.345-.619-3.879-1.781-6.4-2.941a.839.839,0,0,0-1.177.631,3.979,3.979,0,0,0,1.342,3.955m-28.528-16.271h0s.914,7.7,4.143,9.481c2.176,1.2,7.506,1.086,12.155,1.443-5.15-2-12.738-7.449-16.3-10.924"/></g><rect class="d" width="200" height="200"/></svg>