<svg xmlns="http://www.w3.org/2000/svg" width="200" height="200" viewBox="0 0 200 200"><defs><style>.a{fill:#0b162a;}.b{fill:#fff;}.c{fill:#c83803;}.d{fill:none;mix-blend-mode:multiply;isolation:isolate;}</style></defs><g transform="translate(-1638.637 -549.285)"><path class="a" d="M1705.2,599.358c-19.95,8.256-29.022,20.779-33.11,29.828a61.71,61.71,0,0,1-8.12,13.891,38.662,38.662,0,0,1-11.632,7.745l-.6.225-.109,2.173.825.163c4.131.822,9.277,3.928,10.946,6.055,2.145,2.157,3.639,3.649,7.4,10.323.053.081,1.926,3.048,1.926,3.048a42.585,42.585,0,0,0,5.86,7.92c2.6,3.651,15.043,15.136,28.585,20.077,9.515,4.718,22.01,7.05,38.1,7.093,23.634.136,41.525-5.035,58-16.755a76.119,76.119,0,0,0,14.8-14.272,36.115,36.115,0,0,0,8.234-21.5l.024-.994-33.437-.038-.184.741c-2.718,10.915-13.711,17.722-20.021,20.81-16.468,7-37.207,7.088-52.786.193-14.564-7.3-22.307-17.175-21.761-27.785.555-10.815,9.761-21.155,23.45-26.335,26.48-9.706,51.933-1.361,61.546,7.668l.281.263,38.96-.038-.527-1.33c-8.014-20.317-36.995-31.77-49.776-34.132-28.611-6.552-53.32-1.735-66.89,4.959" transform="translate(0 0)"/><path class="b" d="M1670.288,640.336a48.793,48.793,0,0,0,3.953-7.544l1.193-2.638a53.216,53.216,0,0,1,17.453-20.236,87.193,87.193,0,0,1,23.227-11.258c30.867-8.969,62.426-1.27,76.11,6.092,5.409,2.482,20.045,11.173,25.964,22.46h-32.97c-22.958-17.865-53.928-13.323-69.2-5.866a51.648,51.648,0,0,0-14.246,10.982c-6.972,8.439-10.72,22.816,1.535,35.7a54.166,54.166,0,0,0,17.984,11.872c15.968,6.619,38.376,5.882,54.487-1.8,10.293-5.371,17.126-12.5,19.891-20.635h27.812c-.985,7.066-3.043,14.373-13.588,24.585l-1.174,1.052a71.581,71.581,0,0,1-25.777,15.922c-23.32,9.05-58.2,8-77.763-2.321-.011,0-1.23-.62-1.23-.62a69.377,69.377,0,0,1-18.007-12.271c-5.3-4.862-8.985-9.666-13.625-17.729-5.059-9.26-11.393-12.636-14.8-14.071a31.876,31.876,0,0,0,12.771-11.684" transform="translate(-0.356 -0.201)"/><path class="c" d="M1671.957,645.668c3.305-3.658,5.915-13.059,11.139-20.2,7.418-10.458,17.237-15.935,24.542-19.429,16.707-8.185,40.728-10.517,64.227-4.876,8.528,2.021,17.057,5.051,23.147,9.019,6.1,3.622,13.23,8.845,17.235,13.929h-25.1a54.31,54.31,0,0,0-22.939-10.413c-8.18-2.088-21.062-3.2-36.379.457a59.288,59.288,0,0,0-21.409,9.747c-12.007,8.532-25.237,30.955-1.741,50.457,7.66,6.474,14.1,8.566,21.235,11.039,13.229,3.829,29.766,3.1,39.338.486,14.447-3.83,19.842-8.879,24.541-12.883,4.353-4.178,8.008-9.229,9.018-11.839l20.608-.035c-1.43,7.7-7,13.963-12.395,19.186-6.18,5.827-10.792,8.88-19.913,13.443-21.337,10.236-52.668,9.888-71.988,2.889-9.922-3.624-12.707-5.258-20.191-10.447-6.093-4.909-10.1-8.148-15.84-17.027a112.954,112.954,0,0,0-6.787-10.793c-2.09-2.265-3.483-4.355-7.137-6.1,3.35-2.348,5.177-4.091,6.79-6.614" transform="translate(-0.819 -0.411)"/></g><rect class="d" width="200" height="200"/></svg>