<svg xmlns="http://www.w3.org/2000/svg" width="200" height="200" viewBox="0 0 200 200"><defs><style>.a{fill:#1d428a;}.b{fill:#fdb927;}.c{fill:none;mix-blend-mode:multiply;isolation:isolate;}</style></defs><g transform="translate(-1013.52 -2981.803)"><path class="a" d="M1182.337,1043.262a69.891,69.891,0,1,1-69.865-69.865,69.886,69.886,0,0,1,69.865,69.865" transform="translate(0.965 2038.406)"/><path class="b" d="M1155.7,1000.005a61.114,61.114,0,1,0,17.943,43.257,60.822,60.822,0,0,0-17.943-43.257m-84.234,2.328a57.922,57.922,0,0,1,93.788,64.643c-7.032-2.377-13.918-5.044-20.707-8.05-.873-.388-1.8-.776-2.667-1.213l-2.619-1.261-1.309-.63-1.31-.631-2.618-1.309c-.873-.436-1.746-.921-2.571-1.358l-1.309-.679c-.436-.242-.873-.485-1.261-.679l-2.57-1.406-2.522-1.455a167.1,167.1,0,0,1-19.3-13.142c-3.055-2.424-6.013-4.946-8.825-7.613-1.407-1.358-2.765-2.716-4.122-4.122-.34-.34-.679-.728-.97-1.067-.34-.34-.631-.728-.97-1.067a10.132,10.132,0,0,1-.922-1.115l-.048-.049c-.1-4.267-.194-6.789-.194-6.789l-2.91-.679v3.88h-2.473v-4.074l-3.1.727v1.5l-1.454.776c.048,1.212.048,2.812.1,4.7-1.164,2.036-14.015,24.2-23.617,31.036a61.158,61.158,0,0,1-.534-7.9,58.209,58.209,0,0,1,17.022-40.977m76.039,69.347-5.965.194-4.849-12.609.97.485,2.667,1.309c.873.437,1.794.873,2.667,1.261.242.1.485.243.776.34Zm-1.406-7.905c2.424,1.115,4.8,2.134,7.274,3.152l1.988,4.462-5.965.194Zm-6.353,8.147-6.11.194-6.353-17.991a9.854,9.854,0,0,0,1.212.679l1.31.727,2.618,1.455,1.988,1.067Zm-7.905.291-5.431.194-7.953-23.665c1.212.776,2.425,1.552,3.685,2.327l2.522,1.552.34.194Zm-7.225.242-5.723.194-9.408-30.163c2.183,1.6,4.365,3.2,6.644,4.7Zm-7.517.243-5.48.194-11.2-37.68c.776.679,1.6,1.358,2.376,2.037,1.407,1.163,2.861,2.327,4.316,3.443Zm-7.274.242-6.062.194-13.336-47.67c1.164,1.31,2.376,2.571,3.589,3.783,1.309,1.309,2.618,2.57,3.976,3.783Zm-7.808.243-5.237.194-7.323-27.981c-.242-7.226-.436-13.918-.582-19.253Zm-7.031.242-4.559.146c-.291-6.644-.533-13.676-.776-20.416Zm64.158,4.025c-.388.534-.776,1.067-1.213,1.6l-67.31-1.31-.048-.63Zm-1.94-6.11-1.552-3.443c2.57,1.018,5.14,2.037,7.711,2.958l-.146.291Zm-71.626-42.335v3.54h-2.716v3.3h2.716v3.54h-2.716v3.3h2.716v6.692h-2.716v3.3h2.716v6.886h-2.716v3.3h2.716v10.814l-2.474.1v-50.337h2.474v2.23h-2.716v3.3h2.716Zm-25.993,38.019,7.565-25.411a136.879,136.879,0,0,0,9.941-15.518l-13.53,48.3a59.954,59.954,0,0,1-3.976-7.371m-1.019-2.473a60.189,60.189,0,0,1-3.006-10.475,60.958,60.958,0,0,0,8.729-8.777Zm20.126-37.826c0,5.092-.049,11.251-.194,17.846l-7.76,29.63-5.382.194Zm-.388,25.314c-.194,7.323-.485,14.937-.825,21.968l-4.995.146Zm-10.281,28.37,9.117.339c-.194,2.813-.388,5.48-.582,7.953a54.623,54.623,0,0,1-4.995-4.461,43,43,0,0,1-3.54-3.831m44.421,20.755a57.525,57.525,0,0,1-20.756-3.831c-.291-3.976-.533-8.68-.776-13.869l-5.286-1.8v12.9c-.824-.437-1.7-.922-2.473-1.406v-12.27l2.473.1v.1h2.716l4.9.194,60.909,2.134c-.243.243-.485.485-.728.776a57.717,57.717,0,0,1-40.977,16.973" transform="translate(0.965 2038.406)"/></g><rect class="c" width="200" height="200"/></svg>