<svg xmlns="http://www.w3.org/2000/svg" width="200" height="200" viewBox="0 0 200 200"><defs><style>.a{fill:#fff;}.b{fill:#d7a22a;}.c{fill:#0a0a08;}.d{fill:#9f792c;}.e{fill:#006778;}.f{fill:none;mix-blend-mode:multiply;isolation:isolate;}</style></defs><g transform="translate(-713.254 -1170.27)"><path d="M784.049,1272.139c.4.313,1.933,1.256,2.247,1.569a7.024,7.024,0,0,1,1.839-.853,11.413,11.413,0,0,0-2.152,1.936,3.6,3.6,0,0,1,1.3-.4,5.984,5.984,0,0,0,2.284.853,22.836,22.836,0,0,0,2.6-.272,5.006,5.006,0,0,1,2.068-.764,9.109,9.109,0,0,0-1.394,1.125,1.283,1.283,0,0,1,.72.136,2.577,2.577,0,0,0,1.975.042c.8-.314,1.61-.628,1.568-1.617a6.576,6.576,0,0,0-.627-2.156,11.334,11.334,0,0,1,1.642-1.162,10.163,10.163,0,0,0-2,.487,7.245,7.245,0,0,0-1.839-2.381,2.949,2.949,0,0,0-2.916-.225,25.249,25.249,0,0,1-2.564.886,8.248,8.248,0,0,0-1.6.951,2.691,2.691,0,0,1,.664-.9s-1.3,0-2.246.047-1.97.136-2.106,1.032a1.574,1.574,0,0,0,.538,1.663Zm13.408,11.005c-.983-1.022-1.942-1.359-2.518-.793,0,0-.29-1.087-.954-1.383a2.333,2.333,0,0,0-1.124-.238,15.6,15.6,0,0,0-3.674,1.181c.211-.136,1.934-1.251,2.546-1.646l-1.446.333s-1.521,0-2.934-.108a52.494,52.494,0,0,0-5.269-.328s.407-.281.651-.426a3.275,3.275,0,0,0-1.839.581s-2.167.225-2.584,1.688a2.629,2.629,0,0,0,.969,2.737,3.48,3.48,0,0,1,1.314-1.115,3.314,3.314,0,0,0-.481,1.486,18.189,18.189,0,0,0,5.536,1.491c3.692.51,3.425.238,4.722,1.045a10.975,10.975,0,0,1,2.13-1.2,9.74,9.74,0,0,0-1.165,2.085,7.1,7.1,0,0,0,3.126,1.57c1.418.113,2.63-.436,2.48-1.9l.51-.629-.9.066.262-.492a2.841,2.841,0,0,0-.454-1.322,2.158,2.158,0,0,0,1.446.238l-.2.37a2,2,0,0,0,1.343-1.068l-.468-.127a3.482,3.482,0,0,0-1.025-2.1Zm59.248,32.107a26.512,26.512,0,0,1-3.71,5.325,27.819,27.819,0,0,1-8.859,6.5,29.885,29.885,0,0,1-11.277,2.967c.688-.736,1.375-1.467,2.054-2.2a31.667,31.667,0,0,1-11.529.02c.463-.342,1.09-.863,1.16-1.472a3.518,3.518,0,0,1-.786-.234,17.324,17.324,0,0,1-1.9-.812,29.6,29.6,0,0,1-6.3-4.255,45.681,45.681,0,0,1-8.568-10.152c-1.437-2.265-2.6-4.7-4.189-6.858a30.227,30.227,0,0,0-4.7-5.025,36.561,36.561,0,0,0-9.125-5.648,140.063,140.063,0,0,1-15.527-7.8q-2.1-1.251-4.114-2.644a49.243,49.243,0,0,1-7.993-6.764l-.159-.174c.066-.056.566-.487.824-.7.445-.357.907-.689,1.38-1.008.445-.3,1.475-.854,1.475-.854l.013-.009v.014a2.768,2.768,0,0,0,0,.478,4.861,4.861,0,0,1,.992-.826,6.226,6.226,0,0,0-.866,2.124,2.412,2.412,0,0,0,1.254,2.292c1.423.778,3.548,1.388,4.151,1.861a12.719,12.719,0,0,1,1.685-1.037,7.933,7.933,0,0,0-1.816,2.681,6.169,6.169,0,0,1,1.343-.993,4.414,4.414,0,0,0,2.158.9c.819-.084,1.989-.041,2.462-1.125s.388-1.25.608-1.6a10.218,10.218,0,0,0-1.343.993,3.778,3.778,0,0,1,1.343-1.9,5.322,5.322,0,0,1,1.6-.951s2.551-3.379-.431-5.025c0,0,1.464-.736,2.288-1.251,0,0-2.382.6-3.159.862a19.493,19.493,0,0,0-2.719-.346,15.425,15.425,0,0,1-3.328-.347c-.734-.216-1.469-.474-1.469-.474a3.653,3.653,0,0,1,.777-.347,3.06,3.06,0,0,0-2.667,1.449l-.014,0a2.393,2.393,0,0,1,.519-1.312,4.892,4.892,0,0,0-1.375.962l-.014,0c-.327-.122-.659-.225-.992-.328-.528-.16-1.067-.3-1.605-.426-.356-.084-.716-.169-1.081-.239a39.209,39.209,0,0,1,9.111-4.331c1.067-.36,3.331-1.007,3.331-1.007a9.813,9.813,0,0,0,.913.76s1.521-.366,2.252-.652a19.266,19.266,0,0,1-2.714,1.589s1.811-.061,2.433-.174l-.281.628a3.6,3.6,0,0,0,2.653.338c1.862-.281,3.051-.679,3.051-1.646a6.658,6.658,0,0,1,.056-2.376,3.777,3.777,0,0,1-1.189,0,1.49,1.49,0,0,0,1.076-2.512l0,0c1.493-.16,3-.291,4.488-.379a6.872,6.872,0,0,0-.6-.624,14.877,14.877,0,0,0-5.489-2.883c3.753-.5,7.548-.651,11.324-.782q3.243-.12,6.481-.155a5.954,5.954,0,0,0-1.624-.815,20.837,20.837,0,0,1,3.861.07,20.86,20.86,0,0,0-3.463-1.2c-.814-.239-1.634-.469-2.452-.685l.1,0,.093.009.019,0c2.977.394,6.135.895,9.593,1.514,22.172,3.961,36.8,9.955,43.174,12.96,1.685.764,2.831,1.345,3.417,1.649.528.155,1.263.239,1.633-.3a1.367,1.367,0,0,0,.159-.3l0-.009a.641.641,0,0,0,.155.009,19.79,19.79,0,0,0,4.095-.591c.379-.1.753-.22,1.128-.346a23.693,23.693,0,0,0,2.232-.91c-.038,0-1.236-1.556-1.376-1.71a21.28,21.28,0,0,0-3.613-3.249c.178-.052.37-.108.562-.154a2.28,2.28,0,0,1,.585-.07,20.745,20.745,0,0,0-3.641-2.691c-.463-.3-.941-.581-1.414-.857l-.407-.244-.29-.174c-.542-.314-1.09-.623-1.642-.918,3.388,1.153,6.748,2.475,10.042,3.895.253.108.5.215.749.323a48.568,48.568,0,0,1,8.021,4.167,11.859,11.859,0,0,1,1.539,1.228l.052.047a6.66,6.66,0,0,1,2.078,2.972,7.6,7.6,0,0,1,.435,1.705,9.382,9.382,0,0,1-.028,2.138c-.177-.01-.356-.014-.534-.02a20.468,20.468,0,0,0-4.211.4,46.513,46.513,0,0,0-7.136,2.306c-1.7.638-3.328,1.481-5.058,2.062a19.351,19.351,0,0,1-7.633,1.026,15.917,15.917,0,0,1-7.548-2.436,18.4,18.4,0,0,1-4.422-4.162,23.329,23.329,0,0,1-2.331-3.67c3.4,1.227,6.079,2.334,8.007,3.191,1.7.726,2.864,1.28,3.454,1.57.528.145,1.268.211,1.628-.333.749-1.134-.622-2.038-.622-2.038s-16.842-8.236-47.713-11.634c-3.627-.4-6.987-.679-10.085-.872,3.046.328,6.336.755,9.888,1.308,5.423.844,10.4,1.824,14.923,2.855a11.852,11.852,0,0,0-1.464.286,10.166,10.166,0,0,0-2.649,1.13,11.548,11.548,0,0,0-3.729,3.82,21.617,21.617,0,0,0-2.944,10.467,36.465,36.465,0,0,0,2.419,13.1,72.011,72.011,0,0,0,6.706,14.23,51.374,51.374,0,0,0,4.558,6.365,21.8,21.8,0,0,0,6.313,5.419,13.547,13.547,0,0,0,8.4.914,34.4,34.4,0,0,0,5.863-1.763c4.488-1.537,9.186-3.192,14.006-2.672a13.4,13.4,0,0,1,4.717,1.251c.221.1.192.113.07.347Zm35.1-60.9s-2.742-6.027-10.547-11.165c1.956-2.512,2.714-5.531,1.81-7.917-.935-2.479-7.506-7.008-9.982-8.292s-5.891-3.164-5.891-3.164a162.6,162.6,0,0,0-15.677-8.347c-8.315-3.628-23.294-8.46-39.584-5.015,0,0-9.776-3.21-27.451,2.259-6.181,1.7-16.678,4.495-22.564,5.48-8.723,1.458-17.572,1.608-24.428,2.334-3.613.385-6.018-.417-7.192,1.622-5.162,8.957,10.229,24.115,15.807,26.51-1.652,9.314.445,20.333,10.206,31.343,10.613,11.981,25.3,14.254,33.908,20.623,9.664,7.148,11.666,16.176,19.738,24.622,7.427,7.771,21.943,14.4,34.948,8.053,14.1-6.886,16.664-18.379,17.174-20.534a2.831,2.831,0,0,0-1.887-2.9c-.238-.113-.711-.347-1.333-.675.561-2.249,1.993-9.018.58-14.92a97.583,97.583,0,0,1-7,9.079c-.842-.792-4.712-4.715-4.07-9.364a24.1,24.1,0,0,0,5.39-2.845c.9-.685,1.7-1.364,2.429-2.03,7.936-2.278,9.719-5.563,9.719-5.563a7.019,7.019,0,0,0,1.3,1.837,30.989,30.989,0,0,0,2.728-1.837,21.183,21.183,0,0,1,.131,2.648,5.03,5.03,0,0,1,1.165-.272c-.589,2.939-4.025,7.921-4.025,7.921a29.93,29.93,0,0,0,17.108-12.36l0-.047a5.477,5.477,0,0,0,.772-.216,20.349,20.349,0,0,0,11.793-10.237c3.71-7.935-3-15.627-5.069-16.63ZM787.864,1269.4s-1.3,0-2.247.047-1.97.136-2.106,1.032a1.575,1.575,0,0,0,.538,1.663c.4.314,1.932,1.256,2.247,1.57a7.007,7.007,0,0,1,1.839-.853,11.433,11.433,0,0,0-2.153,1.935,3.609,3.609,0,0,1,1.3-.4,5.977,5.977,0,0,0,2.283.853,22.835,22.835,0,0,0,2.6-.272,4.993,4.993,0,0,1,2.068-.764,9.1,9.1,0,0,0-1.395,1.125,1.282,1.282,0,0,1,.72.136,2.584,2.584,0,0,0,1.976.042c.8-.314,1.61-.629,1.568-1.617a6.575,6.575,0,0,0-.628-2.157,11.429,11.429,0,0,1,1.643-1.162,10.152,10.152,0,0,0-2,.488,7.251,7.251,0,0,0-1.839-2.381,2.947,2.947,0,0,0-2.916-.225,25.362,25.362,0,0,1-2.565.885,8.275,8.275,0,0,0-1.6.951,2.7,2.7,0,0,1,.665-.9Zm9.593,13.748c-.983-1.022-1.942-1.359-2.518-.793,0,0-.29-1.087-.954-1.383a2.342,2.342,0,0,0-1.124-.239,15.643,15.643,0,0,0-3.674,1.181c.211-.136,1.934-1.251,2.546-1.645l-1.446.333s-1.521,0-2.934-.109a52.447,52.447,0,0,0-5.269-.327s.407-.281.651-.427a3.271,3.271,0,0,0-1.839.582s-2.167.225-2.584,1.688a2.626,2.626,0,0,0,.969,2.736,3.489,3.489,0,0,1,1.314-1.115,3.319,3.319,0,0,0-.481,1.486,18.156,18.156,0,0,0,5.536,1.491c3.692.511,3.425.239,4.722,1.045a10.98,10.98,0,0,1,2.13-1.2,9.724,9.724,0,0,0-1.165,2.086,7.1,7.1,0,0,0,3.126,1.57c1.418.112,2.63-.436,2.48-1.9l.51-.628-.9.066.262-.493a2.843,2.843,0,0,0-.454-1.322,2.157,2.157,0,0,0,1.446.239l-.2.37a2,2,0,0,0,1.343-1.069l-.468-.126a3.486,3.486,0,0,0-1.025-2.1Zm87.125-31.911s-2.383,2.944-3.562,2.039.618-2.114.239-4.472-8.082-10.284-17.815-16.133c0,0,4.5,1.865,8.853,4.177l.1.051c.96.488,1.975,1.069,2.925,1.66a24.441,24.441,0,0,1,3.355,2.377,4.879,4.879,0,0,0,.711-4.683,4.223,4.223,0,0,0-.21-.432l-.033-.056a8.224,8.224,0,0,0-.585-.871,4.231,4.231,0,0,0-.791-.417c-.613-.234-1.193-.332-1.6-.534a16.548,16.548,0,0,1-1.249-1.406,1.418,1.418,0,0,0,.159.909,3.82,3.82,0,0,0-1.38-.773,6.128,6.128,0,0,1-1.661-.558c-.2-.155-.608-.511-.608-.511a2.054,2.054,0,0,0,.116.563.9.9,0,0,1-.8-.764.942.942,0,0,1,.44-1,1.116,1.116,0,0,1,0-.455,6.681,6.681,0,0,0,.9.848,2.088,2.088,0,0,0-.117-1.172l-.224-.126c-.224-.122-.445-.235-.65-.328-.174-.08-10.2-5.775-14.956-8.165a5.938,5.938,0,0,1-1.343-.281s-.8-.371-.927-.75a.594.594,0,0,0,.061.412,5.3,5.3,0,0,1,.754,1.261s-.791-.468-1.442-.806a16.851,16.851,0,0,1-2.448-1.144,1.5,1.5,0,0,1-.323-.314l-.075-.094a1.142,1.142,0,0,1-.141-.3l-.027-.117-.01-.052-.009-.126,0-.088.038.027.033.028.047.037a2.685,2.685,0,0,0,.946.614l.089.023-.033-.042-.038-.042-.089-.1a4.423,4.423,0,0,1-.645-.937,56.587,56.587,0,0,0-14.806-5.212c-9.037-1.785-15.1-.281-15.1-.281a23.319,23.319,0,0,1,5.5,1.411,3.068,3.068,0,0,0,.824-.4,1.918,1.918,0,0,1,1.109-.46c.23,0,1.217,1.182,1.217,1.182a15.935,15.935,0,0,0-.3-1.683,6.844,6.844,0,0,1,1.343,0c.542.127.992.31,1.183.31s.272-.23.272-.23.341.225.341.5c0,0,.767.535.767,1.036a6.054,6.054,0,0,0,0,1.458s-.191.113-.5-.385a1.839,1.839,0,0,1-.992.422,1.647,1.647,0,0,0-.608.122c1.713.769,3.65,1.711,5.83,2.878,0,0,.248.174.431.31a3.6,3.6,0,0,1,.295-.84,1.391,1.391,0,0,1,.272.319,2.446,2.446,0,0,0-.023-.679,2.679,2.679,0,0,1,1.081-.544,2.227,2.227,0,0,0,.814-.136,1.352,1.352,0,0,0-.052-.787,2.283,2.283,0,0,1,.955,1.059,3.242,3.242,0,0,0,.047-.726,4.218,4.218,0,0,1,1.446.023,1.983,1.983,0,0,1,1.156.59c.136.225.515.985.3,1.148s-.6.23-.716.413-.155.338-.313.45a.916.916,0,0,1-.365.141,2.407,2.407,0,0,0,.116.947.663.663,0,0,1-.482-.427.756.756,0,0,1-.154.61,1.371,1.371,0,0,1-.6.469s-.557-.53-.6-.736c0,0,.061,1.251-.155,1.018,0,0-1.175-1.04-1.408-1.168a4.22,4.22,0,0,1-.707.052,2.085,2.085,0,0,1-1.039-.52s-.023.271.36.543a2.794,2.794,0,0,1-.477-.116,1.206,1.206,0,0,1-.562.323s.36.408.52.563a2.254,2.254,0,0,1-1.035-.469,2.9,2.9,0,0,1-.865-.117,2.166,2.166,0,0,0-1.132-.023,1.4,1.4,0,0,1-.767-.047,7.24,7.24,0,0,1-1.105-.521,1.6,1.6,0,0,0,.272.478s-.069.3-.725.113-.679-.385-1.016-.591-.566-.5-.5-.745a1,1,0,0,1,.272-.432,2.251,2.251,0,0,0,.561.342,5.637,5.637,0,0,1-.678-1.04s.318.065.477.089c0,0,.113-.431,1.062-.633.318-.07.585-.113.8-.145a103.9,103.9,0,0,0-10.492-2.691,1.693,1.693,0,0,0-.177.244,3.237,3.237,0,0,0-.164.31,2.478,2.478,0,0,1-.52.853s-1.961-.615-2.593-.928a13.616,13.616,0,0,0,1.686,1.186s-.595.989-2.673.759a4.147,4.147,0,0,1-1.713.338,3.75,3.75,0,0,1-2.124-.961,1.253,1.253,0,0,1,.6-1.669s1.1.67,1.643.979c0,0-.969-1.209-.894-1.6a7.111,7.111,0,0,1,.758-.535c-.481-.066-.968-.127-1.46-.178a70.274,70.274,0,0,0-11.928-.374c.281.407.225.787.449,1.2a.5.5,0,0,1-.127.721,11.375,11.375,0,0,0-1.535-.768,6.877,6.877,0,0,1,.871,1.064,5.426,5.426,0,0,1-1.933.37,5.841,5.841,0,0,0-2.05.74,4.158,4.158,0,0,1-1.361-1.059l-.211-.183-.056-.047-.033-.028-.041-.028a.49.49,0,0,1,.051.136l0,.014,0,.014.084.215c.061.141.127.286.2.422a12.742,12.742,0,0,0,.73,1.186l.014.024c.108.174.206.333.29.464a1.365,1.365,0,0,1,.1.15l.019.033.033.052.038.056.019.033.023.038c-.108-.136-.445-.2-.608-.258l-.028-.009a4.879,4.879,0,0,1-.8-.422l-.014-.009c-.117-.084-.459-.394-.6-.342l-.083.028-.056.014-.107.033-.136.033-.141.034-.2.037c-.122.019-.238.033-.36.041h-.019c-.15,0-.318.01-.487,0a4.843,4.843,0,0,1-2.672-1.542,1.138,1.138,0,0,1-.356-.82q-1.158.274-2.269.576c-1.1.258-7.113,1.6-13.253,2.986a7,7,0,0,1-.141,1.125,1.164,1.164,0,0,0,.341.75,6.163,6.163,0,0,1-1.942-.412,5.415,5.415,0,0,0,1.362,1.078,1.207,1.207,0,0,1-.609.75,2.723,2.723,0,0,1-1.389.075c-.58-.037-1.081.234-1.816.272a3.965,3.965,0,0,1-1.633-.417,2.023,2.023,0,0,0,1.414-.473c-1.038-.117-1.362-.5-1.478-.732a2.028,2.028,0,0,0-.581-.567c-4.506,1.007-7.993,1.79-7.993,1.79-2.859.385-5.166.676-5.166.676-.847.061-1.7.113-2.545.159-4.666.249-9.336.141-13.992.426-.692.042-1.376.061-2.069.061h-.028c.379.084.758.188,1.132.291.51.136,1.016.281,1.521.436q2.556.766,5.058,1.734,1.236.478,2.452,1.009,1.292.568,2.551,1.2c.23-.352,1.264-.352,1.264-.352l-.131-.272a1.2,1.2,0,0,0,.65.159l.07-.009.262-.1a1.56,1.56,0,0,1,.445-.253,2.494,2.494,0,0,1,.917-.079c.145-.263.786-.516.786-.516-.127-.117-.281-.244-.281-.244a5.7,5.7,0,0,1,1.095.108,1.27,1.27,0,0,0,.356-.056l.023-.014a.212.212,0,0,0,.052-.277,2.571,2.571,0,0,0-.58-.281.359.359,0,0,1-.244-.281l-.009-.019a1.92,1.92,0,0,1-.739-.174,1.846,1.846,0,0,0,.543-.1,2.187,2.187,0,0,1,.285-.127,1.935,1.935,0,0,1,.548-.163,1.275,1.275,0,0,1,.749.272,1.513,1.513,0,0,0,.72-.071,3.792,3.792,0,0,1,1.085-.1,4.7,4.7,0,0,1-.692.2,1.189,1.189,0,0,1,.576.23c.669.455-.178,1.045-.614,1.256a1.757,1.757,0,0,0-1.076.188s.857,0,.814.249-.431.408-.838.5a1.5,1.5,0,0,0-.725.5.667.667,0,0,1,.341.2,2.487,2.487,0,0,0-.5.094c-.07.042-.295.544-.478.769a2.033,2.033,0,0,1-.81.385,5.414,5.414,0,0,0,1.217.271,4.809,4.809,0,0,1-1.314.225c.145.089,1.558.989,1.61,1.022l.009,0c.075.052,1.226.774,1.624,1.008a33.033,33.033,0,0,0,5.227,2.569c.552.183,1.1.394,1.656.567.618.192,1.245.357,1.872.5.575.131,1.16.234,1.74.323a18.094,18.094,0,0,0,3.145.188,19.868,19.868,0,0,0,3.155-.361c1.207-.224,2.405-.487,3.585-.829.2-.052.388-.113.58-.169a29.718,29.718,0,0,0,4.726-2c.4-.2.8-.4,1.184-.61l.028-.019.028-.009a51.945,51.945,0,0,1-4.2,3.2c-.3.183-.6.366-.912.544-.5.286-1.016.558-1.531.821-.44.229-.879.44-1.324.637-.234.1-.468.2-.707.3l-.038.019a29.571,29.571,0,0,1-9.041,1.786,56.552,56.552,0,0,1-10.674-.2c-6.626-.83-10.126-3.061-10.126-3.061,6.05,1.064,9.251.877,10.707.633-2.209-1.406-4.109-3.178-6.579-4.729-5.906-3.693-11.488-6.009-17.525-5.451a6.63,6.63,0,0,1,3.373,2.357c-.434,1.838,1.942,5.915,5.527,9.037.622.544,1.3,1.13,2.03,1.716l-2.7-.061a44.093,44.093,0,0,0,6.935,2.892,24.35,24.35,0,0,1-3,.675c.121.141,3.757,2.03,10.533,2.311a25.133,25.133,0,0,0,10.838-1.955l.08-.037.108-.061.027-.009c-.009.009-.093.1-.271.263a17.707,17.707,0,0,1-7.365,3.768,31.183,31.183,0,0,1-4.4.862c-.23.028-.454.052-.689.075a.3.3,0,0,0-.182.127,19.916,19.916,0,0,0-.628,7.119,30.821,30.821,0,0,0,.454,3.806l0,.019c.164-.163.36-.342.585-.524a4.019,4.019,0,0,1,1.862-.736l-.052-.048-.052-.047a3.221,3.221,0,0,0-1.245-.417l.225-.038a5.959,5.959,0,0,1,2.33-.136l.052.009a1.717,1.717,0,0,1,1.053.764l.061.117a1.151,1.151,0,0,1,.07.155l.013.037a1.143,1.143,0,0,1,.048.159l.033.154,0,.034.009.159a1.343,1.343,0,0,1-.122.567,9.2,9.2,0,0,0-.791,2.264c0,.206-1.062.948-1.347,1.237l-.048.052.089,0,.07-.009c.313-.028.623-.085.935-.116.174-.014.332-.028.459-.028h.014a8.021,8.021,0,0,0,1.3,1.813,4.346,4.346,0,0,1,1.245,2.146l.019,0a.574.574,0,0,0,.234-.052l.028-.009.1-.042.21-.1c.108-.041.211-.088.318-.135l.3-.155.027-.014a9.017,9.017,0,0,1-2.312,2.315,3.744,3.744,0,0,0,1.563-.052l.014,0a5.968,5.968,0,0,1-1.746,3.9,15.638,15.638,0,0,0,2.275,2.944l.1.122.079.094.192.211.122.141c.065-.056.566-.488.824-.7.445-.357.907-.69,1.38-1.009.445-.3,1.474-.853,1.474-.853l.014-.009v.014a2.671,2.671,0,0,0,0,.478,4.869,4.869,0,0,1,.992-.825,6.227,6.227,0,0,0-.866,2.123,2.413,2.413,0,0,0,1.254,2.293c1.423.778,3.548,1.387,4.151,1.86a12.678,12.678,0,0,1,1.685-1.036,7.918,7.918,0,0,0-1.816,2.681,6.164,6.164,0,0,1,1.343-.994,4.413,4.413,0,0,0,2.158.905c.819-.084,1.989-.042,2.462-1.125s.388-1.251.608-1.6a10.264,10.264,0,0,0-1.343.994,3.771,3.771,0,0,1,1.343-1.9,5.292,5.292,0,0,1,1.6-.951s2.551-3.38-.431-5.025c0,0,1.464-.736,2.288-1.251,0,0-2.382.6-3.159.862a19.448,19.448,0,0,0-2.719-.347,15.424,15.424,0,0,1-3.328-.347c-.734-.215-1.469-.473-1.469-.473a3.653,3.653,0,0,1,.777-.347,3.06,3.06,0,0,0-2.667,1.449l-.014,0a2.391,2.391,0,0,1,.519-1.312,4.9,4.9,0,0,0-1.375.961l-.014,0c-.327-.122-.659-.224-.992-.327-.528-.16-1.067-.3-1.605-.427-.356-.084-.716-.169-1.081-.239a39.188,39.188,0,0,1,9.111-4.33c1.067-.361,3.331-1.007,3.331-1.007a9.735,9.735,0,0,0,.913.759s1.521-.365,2.252-.651a19.2,19.2,0,0,1-2.714,1.588s1.811-.061,2.433-.174l-.281.629a3.6,3.6,0,0,0,2.654.337c1.862-.281,3.051-.679,3.051-1.645a6.663,6.663,0,0,1,.056-2.377,3.773,3.773,0,0,1-1.189,0,4.848,4.848,0,0,0,1.469-1.3,4.922,4.922,0,0,0-.393-1.214l0,0c1.493-.16,3-.291,4.488-.38a6.861,6.861,0,0,0-.6-.623,14.862,14.862,0,0,0-5.489-2.883c3.753-.5,7.548-.652,11.324-.783q3.243-.118,6.481-.154a5.929,5.929,0,0,0-1.624-.816,20.742,20.742,0,0,1,3.861.071,20.873,20.873,0,0,0-3.463-1.2c-.813-.238-1.633-.468-2.451-.684l.1,0,.093.009.019,0c2.977.394,6.135.895,9.593,1.513,22.172,3.961,36.8,9.956,43.174,12.96,1.685.765,2.831,1.345,3.417,1.65.528.155,1.263.239,1.633-.3a1.367,1.367,0,0,0,.159-.3l0-.009a.641.641,0,0,0,.155.009,19.855,19.855,0,0,0,4.095-.59c.379-.1.753-.22,1.128-.347a23.687,23.687,0,0,0,2.232-.909c-.038,0-1.236-1.556-1.376-1.711a21.244,21.244,0,0,0-3.613-3.248c.178-.052.37-.108.562-.155a2.27,2.27,0,0,1,.585-.07,20.735,20.735,0,0,0-3.641-2.691c-.463-.3-.941-.582-1.414-.857l-.407-.244-.29-.174c-.542-.314-1.09-.624-1.643-.919l-.018-.009.023,0h.069c1.994,0,4.01-.084,6.013-.033.225,0,2.2.094,2.312.1.58.038,1.156.08,1.731.131,1.25.113,2.5.253,3.739.432l.927.136c1.577.239,3.149.548,4.707.9l.047.014c.857.286,1.8.413,2.676.638.492.131.983.258,1.475.394,1.081.294,2.152.609,3.214.956.679.221,1.357.446,2.031.689.178.061,1.021.493,1.142.4a11.9,11.9,0,0,1,3.706-1.842c1.629-.313,3.154-.928,3.154-2.766-.159-1.917-1.671-3.9-3.317-5.231Zm-16.81,7.9a6.346,6.346,0,0,0-3.392.679s5.564,0,7.595,1.763,1.493,3.127,1.493,3.127a49,49,0,0,1,2.579,4.616s3.795-3.529,4.067-5.976c0,0-7.371-3.755-12.34-4.209Zm-23.108,43.352.286,3.149,2.185,1.425c.628-2.545-2.471-4.574-2.471-4.574Zm-10.6-22.513c-2.078-6.539-9.79-7.8-9.79-7.8s6.317,2.583,6.486,20.863c.056,6.149,1.932,8.751,1.932,8.751-3.187-1.7-4.024-7.978-4.31-12.838-.144-2.47-1.146-14.506-10.337-17.478-5.583-1.81-8.264-.272-8.264-.272a11.46,11.46,0,0,1,6.734,5.466c3.669,6.67,1.057,18.462,3.8,24.762,3.383,7.79,9.573,9.89,9.573,9.89,8.119-4.369,9.861-11.161,9.861-11.161C832.8,1296.544,836.138,1286.518,834.065,1279.975Zm23.683,19.447s-4.922,7.9-7.141,9.528a7.187,7.187,0,0,0-1.183-1.93s-2.7,1.828-3.238,2.831c.056-.1-.487-.853-.543-.951a11.637,11.637,0,0,0-.987-1.444,7.45,7.45,0,0,0-2.892,2.7,14.318,14.318,0,0,0,1.049-2.841,13.976,13.976,0,0,0,.318-1.856,15.106,15.106,0,0,0-.749-6.37s-2.555,6.271-5.5,9.342-4.557,3.848-4.745,4.283-.224,1.983,3.234,1.542a11,11,0,0,0,5.892-3.028,32.613,32.613,0,0,1,8.886-.313,3.8,3.8,0,0,0,2.8,1.139c1.642-.113,5.058-6.557,4.8-12.637Zm-7.506-17.582c.543,5.564-4.39,10.589-4.39,10.589,8-2.25,12.2-8.69,13.487-11.005.135-.342.238-.624.3-.807a39.65,39.65,0,0,1-9.4,1.223Zm29.313-4.964a5.031,5.031,0,0,0-3.374,1,1.558,1.558,0,0,0-.974-.778c-1.623-.549-3.626,1-3.626,1,.168-1.181-1.447-.844-1.511-.834a14.334,14.334,0,0,0-3.669,1.341c-1.755.613-4.071,1.358-6.631,1.977a20.543,20.543,0,0,1,.332,4.66c2.719-1.411,4.969-4.312,6.341-6.4a13.221,13.221,0,0,0,1.479,3.309,22.808,22.808,0,0,0,3.6-2.9,8.2,8.2,0,0,1,.487,3.286,10.43,10.43,0,0,0,3.309-1.955,30.375,30.375,0,0,1-3.6,8.948c3.21-1.209,9.341-7.743,9.739-9.525s-.2-2.742-1.9-3.127Zm11.559-8.493-.127.019c-.482.075-1.423-.07-1.3-.755.075-.421.656-.778,1.021-.928a15.806,15.806,0,0,0,2.985-1.449,6.3,6.3,0,0,0,.946-.754c.079-.075.506-.418.492-.544a9.929,9.929,0,0,0-.74-2.752,6.569,6.569,0,0,1-.552,1,4.191,4.191,0,0,1-1.535,1.566c-.375.211-1.1.431-1.437-.216s.59-1.2.59-1.2a5.567,5.567,0,0,0,2.147-2.648,8.473,8.473,0,0,0-1.441-1.738,15.525,15.525,0,0,1-7.118,7.42c-3.7,1.8-7.089,3.89-9.261,6.379-.3.357-.59.721-.852,1.1l.042,0c5.222.582,7.786,2.794,8.629,3.867.062.075.108.141.15.2l.018,0c.324-.056,5.565-1,8.808-4.585q-.176.007-.352,0c-.8-.033-3.86.052-3.088-1.491.258-.515,1.175-.374,1.633-.347a20.785,20.785,0,0,0,2.354.089c1.086-.061,1.287-1.045,1.558-1.945a12.755,12.755,0,0,0,.482-2.465,7,7,0,0,1-4.057,2.17Z" transform="translate(0)"/><path class="a" d="M791.557,1269.313a2.949,2.949,0,0,1,2.916.224,7.246,7.246,0,0,1,1.839,2.382,10.178,10.178,0,0,1,2-.488,11.413,11.413,0,0,0-1.642,1.162,6.576,6.576,0,0,1,.627,2.156c.042.99-.763,1.3-1.568,1.617a2.583,2.583,0,0,1-1.975-.041,1.285,1.285,0,0,0-.72-.136,9.116,9.116,0,0,1,1.394-1.125,5.012,5.012,0,0,0-2.068.764,22.836,22.836,0,0,1-2.6.272,5.984,5.984,0,0,1-2.284-.853,3.61,3.61,0,0,0-1.3.4,11.433,11.433,0,0,1,2.152-1.935,7,7,0,0,0-1.839.853c-.313-.314-1.843-1.256-2.246-1.57a1.573,1.573,0,0,1-.538-1.663c.135-.9,1.165-.99,2.106-1.032s2.246-.047,2.246-.047a2.69,2.69,0,0,0-.664.9,8.26,8.26,0,0,1,1.6-.952,25.167,25.167,0,0,0,2.564-.885Zm7.586,16.915a2,2,0,0,1-1.343,1.069l.2-.37a2.155,2.155,0,0,1-1.446-.239,2.856,2.856,0,0,1,.454,1.322l-.263.493.9-.066-.51.628c.15,1.463-1.062,2.01-2.479,1.9a7.106,7.106,0,0,1-3.126-1.57,9.684,9.684,0,0,1,1.165-2.086,10.948,10.948,0,0,0-2.13,1.2c-1.3-.806-1.03-.534-4.722-1.045a18.157,18.157,0,0,1-5.536-1.491,3.315,3.315,0,0,1,.482-1.486,3.479,3.479,0,0,0-1.314,1.115,2.626,2.626,0,0,1-.969-2.737c.417-1.462,2.583-1.687,2.583-1.687a3.274,3.274,0,0,1,1.84-.582c-.244.145-.651.427-.651.427a52.758,52.758,0,0,1,5.269.327c1.413.113,2.933.109,2.933.109l1.446-.333c-.613.394-2.335,1.509-2.545,1.645a15.63,15.63,0,0,1,3.674-1.181,2.338,2.338,0,0,1,1.123.239c.665.3.955,1.383.955,1.383.576-.566,1.535-.23,2.518.793a3.484,3.484,0,0,1,1.024,2.1l.468.127Zm74.916-14.7a9.485,9.485,0,0,1-.028,2.137c-.178-.009-.356-.014-.534-.019a20.536,20.536,0,0,0-4.212.4,46.528,46.528,0,0,0-7.136,2.307c-1.7.637-3.328,1.481-5.058,2.062a19.366,19.366,0,0,1-7.633,1.026,15.923,15.923,0,0,1-7.548-2.437,18.412,18.412,0,0,1-4.422-4.162,23.278,23.278,0,0,1-2.33-3.67c3.4,1.228,6.079,2.334,8.007,3.192,1.7.726,2.864,1.28,3.453,1.57.529.145,1.268.211,1.629-.332.749-1.135-.623-2.04-.623-2.04s-16.842-8.235-47.713-11.634c-3.627-.4-6.987-.679-10.085-.871,3.047.327,6.337.754,9.889,1.308,5.423.843,10.4,1.823,14.923,2.855a11.862,11.862,0,0,0-1.464.286,10.112,10.112,0,0,0-2.648,1.13,11.523,11.523,0,0,0-3.73,3.82,21.635,21.635,0,0,0-2.944,10.466,36.5,36.5,0,0,0,2.419,13.1,71.988,71.988,0,0,0,6.706,14.23,51.368,51.368,0,0,0,4.558,6.365,21.789,21.789,0,0,0,6.314,5.419,13.544,13.544,0,0,0,8.394.914,34.273,34.273,0,0,0,5.863-1.762c4.488-1.538,9.186-3.192,14.007-2.672a13.387,13.387,0,0,1,4.717,1.251c.219.1.191.113.069.347a26.5,26.5,0,0,1-3.71,5.324,27.793,27.793,0,0,1-8.859,6.5,29.887,29.887,0,0,1-11.278,2.967c.689-.736,1.376-1.467,2.055-2.2a31.692,31.692,0,0,1-11.529.019c.463-.341,1.09-.862,1.16-1.472a3.511,3.511,0,0,1-.786-.234,17.131,17.131,0,0,1-1.9-.811,29.654,29.654,0,0,1-6.3-4.256,45.662,45.662,0,0,1-8.568-10.152c-1.437-2.264-2.6-4.7-4.189-6.858a30.232,30.232,0,0,0-4.7-5.025,36.558,36.558,0,0,0-9.125-5.647,140.049,140.049,0,0,1-15.527-7.805q-2.1-1.251-4.114-2.644a49.237,49.237,0,0,1-7.993-6.763l-.159-.174c.066-.056.566-.488.824-.7.445-.356.907-.689,1.38-1.008.445-.3,1.475-.853,1.475-.853l.013-.009v.014a2.759,2.759,0,0,0,0,.478,4.867,4.867,0,0,1,.992-.825,6.227,6.227,0,0,0-.866,2.123,2.413,2.413,0,0,0,1.254,2.293c1.423.778,3.548,1.387,4.151,1.86a12.748,12.748,0,0,1,1.685-1.036,7.931,7.931,0,0,0-1.816,2.681,6.164,6.164,0,0,1,1.343-.994,4.413,4.413,0,0,0,2.158.905c.819-.084,1.989-.042,2.462-1.125s.388-1.251.608-1.6a10.264,10.264,0,0,0-1.343.994,3.778,3.778,0,0,1,1.343-1.9,5.292,5.292,0,0,1,1.6-.951s2.551-3.38-.431-5.025c0,0,1.464-.736,2.288-1.251,0,0-2.382.6-3.159.862a19.448,19.448,0,0,0-2.719-.347,15.424,15.424,0,0,1-3.328-.347c-.735-.215-1.469-.473-1.469-.473a3.653,3.653,0,0,1,.777-.347,3.06,3.06,0,0,0-2.667,1.448l-.014,0a2.391,2.391,0,0,1,.519-1.312,4.9,4.9,0,0,0-1.375.961l-.014,0c-.327-.122-.659-.224-.992-.327-.528-.16-1.067-.3-1.605-.427-.356-.084-.716-.169-1.081-.239a39.2,39.2,0,0,1,9.111-4.33c1.067-.361,3.331-1.007,3.331-1.007a9.722,9.722,0,0,0,.913.759s1.521-.366,2.252-.651a19.2,19.2,0,0,1-2.714,1.588s1.811-.061,2.433-.174l-.281.629a3.6,3.6,0,0,0,2.653.337c1.862-.281,3.051-.679,3.051-1.645a6.663,6.663,0,0,1,.056-2.377,3.777,3.777,0,0,1-1.189,0,4.848,4.848,0,0,0,1.469-1.3,4.922,4.922,0,0,0-.393-1.214l0,0c1.494-.16,3-.291,4.488-.38a6.752,6.752,0,0,0-.6-.623,14.863,14.863,0,0,0-5.489-2.883c3.753-.5,7.548-.652,11.324-.783q3.243-.118,6.481-.154a5.929,5.929,0,0,0-1.624-.816,20.742,20.742,0,0,1,3.861.071,20.892,20.892,0,0,0-3.463-1.2c-.814-.238-1.634-.468-2.452-.684l.1,0,.093.009.019,0c2.977.393,6.135.895,9.593,1.513,22.172,3.961,36.8,9.955,43.174,12.96,1.685.764,2.831,1.345,3.417,1.65.528.154,1.263.239,1.633-.3a1.367,1.367,0,0,0,.159-.3l0-.009a.641.641,0,0,0,.155.009,19.863,19.863,0,0,0,4.095-.59c.379-.1.753-.22,1.128-.347a23.918,23.918,0,0,0,2.232-.909c-.038,0-1.236-1.556-1.376-1.711a21.248,21.248,0,0,0-3.613-3.248c.178-.052.37-.108.562-.155a2.264,2.264,0,0,1,.585-.07,20.735,20.735,0,0,0-3.641-2.691c-.463-.3-.941-.582-1.414-.857l-.407-.244-.29-.174c-.542-.314-1.09-.624-1.642-.919,3.388,1.153,6.748,2.475,10.042,3.9.253.108.5.216.749.324a48.49,48.49,0,0,1,8.021,4.167,11.869,11.869,0,0,1,1.539,1.227l.052.048a6.657,6.657,0,0,1,2.078,2.971,7.607,7.607,0,0,1,.435,1.706Zm-118.165-44.981a.212.212,0,0,1-.052.277l-.023.014a1.284,1.284,0,0,1-.356.057,5.63,5.63,0,0,0-1.1-.108s.155.126.281.244c0,0-.642.252-.786.515a2.5,2.5,0,0,0-.917.08,1.584,1.584,0,0,0-.441.253l-.262.1-.07.009a1.2,1.2,0,0,1-.651-.159l.131.272s-1.035,0-1.265.352q-1.256-.633-2.552-1.2-1.214-.528-2.454-1.009c-1.661-.643-3.352-1.219-5.056-1.73-.506-.156-1.011-.3-1.522-.436-.375-.1-.754-.207-1.133-.291h.028c.692,0,1.376-.019,2.07-.061,4.659-.287,9.327-.179,13.99-.427.848-.047,1.7-.1,2.548-.16-.141.174-.328.46-.085.544a4.934,4.934,0,0,0,1.063.2,10.844,10.844,0,0,0,1.18,0s-2.281,1.066-2.556,1.14a2.036,2.036,0,0,0-.633.436l-.018.014-.042.038-.023.019-.041.042a2.652,2.652,0,0,0-.286.131,1.937,1.937,0,0,1-.544.094,2,2,0,0,0,.74.178l.009.018a.36.36,0,0,0,.244.278,2.641,2.641,0,0,1,.581.281Zm19.722,11.72-.37.193a23.56,23.56,0,0,1-2.492,1.373l-.038.02c-.285.135-.571.267-.861.393l-.019.009-.023.009c-.782.342-1.583.652-2.378.938-.628.22-1.265.427-1.91.61a27.97,27.97,0,0,1-7.361,1.3,6.029,6.029,0,0,0,1.105.352c1.376.31,4.673.6,4.828.647l-.108.061-.08.037a25.126,25.126,0,0,1-10.84,1.955c-6.774-.281-10.408-2.171-10.534-2.312a24.365,24.365,0,0,0,3.006-.675,44.307,44.307,0,0,1-6.935-2.889l2.7.061c-.735-.586-1.41-1.173-2.032-1.716-3.586-3.124-5.961-7.2-5.525-9.038a6.643,6.643,0,0,0-3.376-2.359c6.035-.558,11.621,1.759,17.526,5.455,2.472,1.547,4.368,3.32,6.578,4.727-1.456.244-4.654.432-10.709-.633,0,0,3.5,2.233,10.128,3.063a56.5,56.5,0,0,0,10.677.2,29.554,29.554,0,0,0,9.042-1.786Zm119.75,28.806a12.809,12.809,0,0,1-.483,2.466c-.272.9-.472,1.885-1.559,1.946a20.819,20.819,0,0,1-2.355-.089c-.455-.028-1.372-.169-1.63.347-.774,1.543,2.288,1.459,3.086,1.492q.174.007.352,0c-3.24,3.578-8.484,4.526-8.808,4.583l-.02,0-.144-.2c-.842-1.074-3.409-3.283-8.633-3.864l-.038,0a12.625,12.625,0,0,1,.852-1.1c2.169-2.491,5.562-4.583,9.258-6.379a15.514,15.514,0,0,0,7.117-7.424,8.506,8.506,0,0,1,1.442,1.741,5.591,5.591,0,0,1-2.145,2.65s-.927.553-.59,1.2,1.063.427,1.436.216a4.216,4.216,0,0,0,1.533-1.567,6.425,6.425,0,0,0,.552-1,9.973,9.973,0,0,1,.741,2.753c.014.126-.412.468-.492.543a6.259,6.259,0,0,1-.948.755,15.8,15.8,0,0,1-2.982,1.445c-.365.15-.945.506-1.021.929-.127.685.815.83,1.3.755l.122-.019a7,7,0,0,0,4.059-2.172Zm-42.227,45.848a3.783,3.783,0,0,1-2.795-1.139,32.594,32.594,0,0,0-8.887.314,10.983,10.983,0,0,1-5.9,3.025c-3.455.445-3.419-1.112-3.231-1.539s1.8-1.22,4.743-4.286,5.5-9.342,5.5-9.342a15.108,15.108,0,0,1,.75,6.374,13.206,13.206,0,0,1-.319,1.853,13.953,13.953,0,0,1-1.044,2.842,7.45,7.45,0,0,1,2.888-2.706,11.735,11.735,0,0,1,.989,1.444c.056.1.6.85.544.953.538-1,3.24-2.828,3.24-2.828a7.092,7.092,0,0,1,1.179,1.927c2.22-1.63,7.146-9.529,7.146-9.529.258,6.084-3.161,12.528-4.805,12.639Zm28.511-32.054c-.4,1.778-6.526,8.315-9.74,9.525a30.408,30.408,0,0,0,3.6-8.948,10.437,10.437,0,0,1-3.311,1.951,8.18,8.18,0,0,0-.488-3.283,22.693,22.693,0,0,1-3.6,2.9,13.206,13.206,0,0,1-1.479-3.306c-1.372,2.091-3.623,4.99-6.344,6.4a20.446,20.446,0,0,0-.332-4.657c2.561-.619,4.879-1.364,6.634-1.979a14.247,14.247,0,0,1,3.667-1.343c.066-.008,1.681-.347,1.512.835,0,0,2-1.547,3.625-1a1.557,1.557,0,0,1,.973.78,5.026,5.026,0,0,1,3.375-1c1.706.385,2.291,1.351,1.9,3.128Zm-21.819.615c-.062.183-.164.464-.3.806-1.288,2.313-5.488,8.757-13.484,11,0,0,4.935-5.023,4.388-10.589a39.415,39.415,0,0,0,9.4-1.219Z" transform="translate(-0.193 -0.858)"/><path class="b" d="M865.622,1229.819a1.989,1.989,0,0,1,.726-.084.635.635,0,0,0-.169-.441,10.093,10.093,0,0,1,1.611,1.191l-.137-.478a3.507,3.507,0,0,1,1.288.615,4.114,4.114,0,0,1,.731,1.032c.116.207.441.887.3,1.087a.436.436,0,0,1-.338.207s-1.222-.732-1.545-.886c0,0,.614.952.7,1.173,0,0-1.053-.156-1.326-.525a7.4,7.4,0,0,1-1.61-.577,1.7,1.7,0,0,1-.765-.971s.68.324,1.022.478c0,0-.917-1.107-1.2-1.374a1.742,1.742,0,0,1,.712-.446Zm-1.039-1.524s-.979-.863-1.321-1.162c0,0,.478,1.134.552,1.377a2.618,2.618,0,0,1-1.423-.356c-.5-.388-1.221-.849-1.035-.849,0,0,.224.014.413.042a2.326,2.326,0,0,0-1.551-.746,2.051,2.051,0,0,1-1.279-.211,3.134,3.134,0,0,1-.968-.708,1.991,1.991,0,0,1-.446-.952,7.475,7.475,0,0,0,1,.6,3.421,3.421,0,0,1-.59-1.345,1.863,1.863,0,0,1,.95.117c.534.2.679.041.679.041a2.173,2.173,0,0,1-.318-.6,6.965,6.965,0,0,0,.961.689,2.474,2.474,0,0,1,1.465.013,5.426,5.426,0,0,1,1.461,1.107,6.245,6.245,0,0,0,.585.484,3.057,3.057,0,0,1-.464-.854c.052.033.469.3.657.4a1.779,1.779,0,0,1,.66.765c.069.259-.347.675-.347.675s.547.7.547.991a.785.785,0,0,1-.186.487Zm-4.865,4.075a4.182,4.182,0,0,0-1.352-.3.889.889,0,0,1-.951.286,3.786,3.786,0,0,1-1.325-.646s.6.027,1.075.027a1.479,1.479,0,0,0-.777-.361,2.753,2.753,0,0,1-1.31-.53.509.509,0,0,0,.169.53.811.811,0,0,1-1.049-.661c-.149-.9-.661-.839-.3-1.5a1.343,1.343,0,0,1,1.124-.656s-.643-.4-1.063-.634a11.578,11.578,0,0,1,2.607,1.079,1.412,1.412,0,0,0-.359-.689,2.04,2.04,0,0,1,1.652.361c.866.6.9,1.139,1.559,1.589a.778.778,0,0,1-.033,1.323s.211.539.332.783Zm-6.208-7.541a.884.884,0,0,1-.843.811c-.51.056-.81-.15-.987.089a1.393,1.393,0,0,1-.721.538s-1.737-1.078-2.492-1.472a9.479,9.479,0,0,1,.781,1.144,4.521,4.521,0,0,1-1.769-.21c-.72-.3-1.2-.553-1.709-.774a3.443,3.443,0,0,1-1.049-.938,11.608,11.608,0,0,0,1.289.512,4.68,4.68,0,0,1-.778-1.112,1.885,1.885,0,0,0,.838-.484,2.519,2.519,0,0,1,1.559-.538h.121a7.07,7.07,0,0,1,2.669,1.261,10.947,10.947,0,0,0-1.049-1.261,8.377,8.377,0,0,0,1.349-.089,2.066,2.066,0,0,1,1.349.056,1.656,1.656,0,0,1,.688.69,6.757,6.757,0,0,0-.838-.3s0,.361.72.872.9.779.872,1.2Zm-5.015,6.162a6.67,6.67,0,0,1,.994,1.107,2.84,2.84,0,0,0-.539.572,2.177,2.177,0,0,1-.872.929,1.551,1.551,0,0,1-.867.572,6.754,6.754,0,0,1-1.053-.089,3.436,3.436,0,0,1-2.4-.9s1.287.179,1.619.179a9.4,9.4,0,0,1-1.381-1.2s.333-.211.3-.511a.935.935,0,0,1,.183-.9,11.992,11.992,0,0,0,1.676.45s-.689-.694-1.376-1.261a2.176,2.176,0,0,1,.932.159,2.046,2.046,0,0,0,.688-.431,1.841,1.841,0,0,1,1.948.07,4.878,4.878,0,0,1,1.05,1.074,2.982,2.982,0,0,1,1.049,1.018,6.1,6.1,0,0,0-1.953-.835Zm-6.564-5.44s-.624-.154-.866-.239a4.878,4.878,0,0,1,.506.9,3.875,3.875,0,0,1-1,.474,1.219,1.219,0,0,0-.8.488,1.764,1.764,0,0,1-1.443.511c-.576-.084-1.722-.423-1.82-.447a5.453,5.453,0,0,1,.8.958,6.205,6.205,0,0,1-1.738.483,7.381,7.381,0,0,1-1.408-.123c-.422-.122-.81-.333-.839-.6a.938.938,0,0,1,.206-.572,10.086,10.086,0,0,0,1.382.422s-1.289-1.2-1.742-1.534a11.765,11.765,0,0,1,1.442.333,2.385,2.385,0,0,0-.272-.694c-.21-.357.183-.717.361-.811s1.02-.418,1.231-.568a8.26,8.26,0,0,0-1.143-.783,13.236,13.236,0,0,1,1.771.3,2.43,2.43,0,0,0,.993-.178,1.659,1.659,0,0,1,1.109-.15c.417.062.469.179.746.206a2.712,2.712,0,0,0,.542.006,1.478,1.478,0,0,0-.628-.422,4.269,4.269,0,0,1,1.41.422,2.68,2.68,0,0,1,1.226.577c.455.441-.027,1.045-.027,1.045Zm-12.834-3.1a4.749,4.749,0,0,1-1.124.661,1.691,1.691,0,0,0,.37.821,2.9,2.9,0,0,1-1.04-.324,2.958,2.958,0,0,0-.468.671,4.43,4.43,0,0,1-1.039,1.262,6.5,6.5,0,0,1-1.138.568,7.053,7.053,0,0,0,1.25,1.384,11.3,11.3,0,0,1-2.832-1.7,1.654,1.654,0,0,0,.121.891,3.441,3.441,0,0,1-2,.173,6.69,6.69,0,0,1-2.116-1.036,11.64,11.64,0,0,0,1.643.192s-1.357-.666-1.605-1.336a1.315,1.315,0,0,1,.57-1.782,3.01,3.01,0,0,1,1.382-.3,20.2,20.2,0,0,0,2.818,1.087,7.78,7.78,0,0,1-1.7-1.463,3.585,3.585,0,0,0,1.236-.146c.271-.174.468-.619.988-.793a5.461,5.461,0,0,1,1.064-.225,3.405,3.405,0,0,1-.618-.422,9.4,9.4,0,0,0,1.339.272s.889.052,1.282.1a6.794,6.794,0,0,1,1.756,0c.618.2.37,1.023-.136,1.444Zm-16.88-1.359c-.061.44-.374,1.57-.969,1.825s-.759.295-.759.295v1.309a14.506,14.506,0,0,1-1.076-1.051,5.346,5.346,0,0,1-.867-.083c-.628-.094-1.382.975-2.542.882,0,0-1.911-.409-2.224-1.2a2.154,2.154,0,0,1-.065-1.665,5.245,5.245,0,0,0,1.128,1.1,5.472,5.472,0,0,1-.435-1.631,1.272,1.272,0,0,0,.435-.568c.066-.281.787-.722,1.227-.816a1.6,1.6,0,0,1,.871.094,9.3,9.3,0,0,0,.89,1.614,17.334,17.334,0,0,1,.028-3.119,12.343,12.343,0,0,0,.731,1.407s.523-.055,1.278-.183a2.039,2.039,0,0,1,1.849.375,1.658,1.658,0,0,1,.5,1.417Zm-17.587,1.19c-.094.812-1.133,1.529-1.414,1.712a2.253,2.253,0,0,0-.95,1.079,1.363,1.363,0,0,1-1.05.9c-.337.027-.8.521-.8.521a2.786,2.786,0,0,0,1.251-.117c-.07.061-.656.535-.914.736a3.323,3.323,0,0,1-1.535.4l-1.723-.028c-1.049-.033-2.248-.127-2.608-.788-.341-.629-.487-.647-.5-.647a7.211,7.211,0,0,1-2.275.325,9.106,9.106,0,0,0,2.743-2,8.05,8.05,0,0,1-1.7.473,1.459,1.459,0,0,1-.122-.9.989.989,0,0,1,.464-.709,1.522,1.522,0,0,1,.337-.647,3.583,3.583,0,0,1,1.939-.984,3.892,3.892,0,0,0,1.722-.614,5.673,5.673,0,0,1,2.519-.8,3.565,3.565,0,0,1,.989.183c.4-.028,1.287-.183,1.287-.183a10.489,10.489,0,0,1-1.905,1.262,9.065,9.065,0,0,0,2.523-.708c1.382.094,1.813.741,1.719,1.552Zm-22.217,3.738a1.336,1.336,0,0,1,.6,1.088c.033.77-.156,1.107.033,1.632s-.128.891-.862,1.323a5.9,5.9,0,0,1-1.479.094,4.121,4.121,0,0,0,.8.309,2.317,2.317,0,0,1-1.938.4,4.64,4.64,0,0,1-2.43.68c-1.044-.154-1.288-.586-1.288-.586s1.246-.225,2.135-.346a12.263,12.263,0,0,1-2.149-.681,2.675,2.675,0,0,1,.506-1.1c.338-.343.258-.428.258-.428s-1.334-.313-1.827-.5a17.9,17.9,0,0,0,2.06-.422s-.187-.381.431-.872a12.035,12.035,0,0,0,1.382-1.266,3.151,3.151,0,0,1,2.121-.123,2.735,2.735,0,0,0,1.044.189c.37,0,1.943-.155,1.943-.155a2.254,2.254,0,0,1-1.339.759Zm113.8,25.4c1.648,1.327,3.161,3.315,3.319,5.234,0,1.833-1.524,2.448-3.155,2.762a11.936,11.936,0,0,0-3.7,1.844c-.12.088-.963-.342-1.142-.4-.675-.244-1.353-.469-2.031-.689-1.063-.348-2.135-.662-3.213-.957-.492-.137-.982-.263-1.475-.395-.875-.224-1.822-.352-2.678-.637l-.046-.014c-1.56-.343-3.129-.652-4.706-.891a11.6,11.6,0,0,1-1.6-1.786,3.093,3.093,0,0,1-.469-1.66c1.3-.08,2.056-.68,2.249-1.445.229-.919-.787-1.669-.787-1.669l-.061-.024c-1.414-1.262-6.138-2.236-9.514-2.194a17.344,17.344,0,0,0-3.694.507h-.009c1.9-.905,7.416-1.449,8.5-1.36s2.534.272,2.534-.361-.632-2.9-2.351-6.337a19.318,19.318,0,0,0-4.115-5.228,17,17,0,0,0-1.255-1.173l.029.056.045.084.039.081.052.093.094.2.055.117.112.253c.117.272.249.6.375.966a11.917,11.917,0,0,1,.342,1.187c.033.14.061.281.083.426l.023.16a5.467,5.467,0,0,1-.421,3.465,2.5,2.5,0,0,1-.13.235v0c-.084.126-.174.249-.268.37a3.652,3.652,0,0,1-.322.352l-.1.085h0a8,8,0,0,1-5.428.238c-.3-.1-.608-.21-.906-.337-.114-.048-.221-.1-.333-.155a32.826,32.826,0,0,1-5.035-3.442,39.758,39.758,0,0,0-8.787-5.29c.163-.113.276-.174.276-.174-.009-.084-.024-.177-.042-.276s-.046-.23-.074-.328l-.02-.071-.018-.079-.028-.089-.023-.089a2.2,2.2,0,0,1,.57.586l.053.075.066.117a3.775,3.775,0,0,0,1.666-1.145,3.969,3.969,0,0,0,.352-1.628c-.089-.3-1.045-.8-1.574-.858a2.842,2.842,0,0,0-1.241.3,7.813,7.813,0,0,0-1.235-.273,8.593,8.593,0,0,0-5.328,1.252l.183.114.061.037.127.085.06.037.131.09.041.027.165.113.009,0,.125.089.048.037.061.042.041.028.01.009c-.717-.221-1.433-.427-2.154-.629-.023-.2-.084-.436-.224-.5-.244-.117-1.011-.6-1.148-.665a1.936,1.936,0,0,0-.983-.273c-.3.067-.271.4-.337.544a.3.3,0,0,1-.163.165c-1.312-.314-2.631-.606-3.948-.858a105.284,105.284,0,0,0-16.242-1.642c-.969-.038-1.938-.061-2.907-.061a4.01,4.01,0,0,1,1.747,1.655q-1.622-.118-3.245-.187a7.282,7.282,0,0,0-2.548-.422,2.266,2.266,0,0,0-1.2.374,37.988,37.988,0,0,0-8.017.93c-4.219.995-8.422,2.044-12.632,3.081l-.1.027a9.5,9.5,0,0,0,1.9-1.692c-1.245.309-2.509.567-3.779.788a27.453,27.453,0,0,1-6.306.562,62.794,62.794,0,0,1-10.372-1.781l-.9-.212-.009,0c-.052-.034-1.465-.934-1.611-1.024a4.782,4.782,0,0,0,1.316-.225,5.375,5.375,0,0,1-1.218-.272,2.048,2.048,0,0,0,.811-.385c.182-.225.407-.727.478-.769a2.477,2.477,0,0,1,.5-.094.662.662,0,0,0-.341-.2,1.5,1.5,0,0,1,.726-.5c.407-.088.791-.249.838-.5s-.815-.249-.815-.249a1.765,1.765,0,0,1,1.078-.188c.434-.211,1.282-.8.613-1.256a1.185,1.185,0,0,0-.576-.23,5.194,5.194,0,0,0,.693-.2,3.635,3.635,0,0,0-1.086.1,1.5,1.5,0,0,1-.721.069,1.246,1.246,0,0,0-.749-.272,2.043,2.043,0,0,0-.548.161l.042-.043.023-.019.042-.038.018-.014a2.012,2.012,0,0,1,.633-.435c.276-.075,2.555-1.141,2.555-1.141a10.839,10.839,0,0,1-1.18,0,4.934,4.934,0,0,1-1.062-.2c-.244-.084-.056-.371.085-.544,0,0,2.308-.291,5.163-.676,0,0,3.489-.783,8-1.792a2.067,2.067,0,0,1,.576.568c.117.23.44.614,1.479.733a2.021,2.021,0,0,1-1.414.473,3.961,3.961,0,0,0,1.634.418c.735-.038,1.236-.31,1.817-.272a2.745,2.745,0,0,0,1.389-.075,1.209,1.209,0,0,0,.61-.75,5.39,5.39,0,0,1-1.362-1.08,6.147,6.147,0,0,0,1.943.414,1.164,1.164,0,0,1-.341-.75,7.106,7.106,0,0,0,.141-1.126c6.138-1.379,12.146-2.725,13.25-2.983.74-.2,1.5-.393,2.271-.576a1.137,1.137,0,0,0,.355.82,4.875,4.875,0,0,0,2.669,1.539,4.39,4.39,0,0,0,.487,0h.02a3.161,3.161,0,0,0,.359-.043l.2-.038.142-.027.136-.038.107-.028.056-.02.083-.027c.141-.052.483.262.6.342l.013.009a4.923,4.923,0,0,0,.8.422l.029.009c.164.056.5.122.608.258l-.023-.038-.019-.033-.038-.056-.033-.052-.02-.034-.1-.15c-.084-.13-.182-.29-.29-.464l-.014-.019a12.677,12.677,0,0,1-.73-1.187,4.448,4.448,0,0,1-.2-.422l-.085-.216,0-.014,0-.014a.429.429,0,0,0-.052-.135l.042.027.033.028.055.047.211.183a4.166,4.166,0,0,0,1.363,1.06,5.863,5.863,0,0,1,2.051-.741,5.347,5.347,0,0,0,1.929-.371,6.735,6.735,0,0,0-.866-1.065,11.2,11.2,0,0,1,1.531.769.5.5,0,0,0,.127-.722c-.225-.408-.168-.787-.449-1.2a70.185,70.185,0,0,1,11.93.375c.492.052.979.112,1.461.177a7.129,7.129,0,0,0-.758.535c-.075.389.894,1.6.894,1.6-.543-.31-1.643-.98-1.643-.98a1.249,1.249,0,0,0-.6,1.665,3.717,3.717,0,0,0,2.125.961,4.143,4.143,0,0,0,1.714-.337c2.074.234,2.669-.756,2.669-.756a13.476,13.476,0,0,1-1.685-1.186c.631.314,2.593.928,2.593.928a2.455,2.455,0,0,0,.52-.853,3.245,3.245,0,0,1,.165-.31,1.632,1.632,0,0,1,.177-.244,105.356,105.356,0,0,1,10.494,2.687c-.216.034-.483.075-.8.146-.95.2-1.062.632-1.062.632-.159-.023-.477-.089-.477-.089a5.539,5.539,0,0,0,.678,1.041,2.255,2.255,0,0,1-.562-.342,1,1,0,0,0-.271.432c-.071.249.155.544.5.745s.362.408,1.017.591.726-.112.726-.112a1.6,1.6,0,0,1-.272-.479,7.308,7.308,0,0,0,1.105.522,1.408,1.408,0,0,0,.768.046,2.17,2.17,0,0,1,1.133.023,2.837,2.837,0,0,0,.861.117,2.256,2.256,0,0,0,1.036.469c-.159-.154-.521-.563-.521-.563a1.2,1.2,0,0,0,.563-.324,2.649,2.649,0,0,0,.477.117c-.384-.272-.36-.544-.36-.544a2.081,2.081,0,0,0,1.04.521,4.211,4.211,0,0,0,.705-.052c.235.126,1.411,1.168,1.411,1.168.215.234.154-1.018.154-1.018.046.207.6.736.6.736a1.358,1.358,0,0,0,.6-.469.758.758,0,0,0,.155-.61.661.661,0,0,0,.481.427,2.408,2.408,0,0,1-.116-.948.9.9,0,0,0,.36-.141c.159-.113.206-.272.319-.45s.5-.248.711-.412-.168-.924-.3-1.149a1.985,1.985,0,0,0-1.152-.59,4.217,4.217,0,0,0-1.448-.024,3.25,3.25,0,0,1-.047.727,2.283,2.283,0,0,0-.955-1.055,1.342,1.342,0,0,1,.052.783,2.134,2.134,0,0,1-.814.136,2.688,2.688,0,0,0-1.082.543,2.457,2.457,0,0,1,.023.681,1.37,1.37,0,0,0-.271-.319,3.547,3.547,0,0,0-.3.839c-.183-.136-.431-.309-.431-.309-2.178-1.168-4.117-2.11-5.83-2.875a1.655,1.655,0,0,1,.61-.121,1.837,1.837,0,0,0,.992-.423c.309.5.5.386.5.386a6.014,6.014,0,0,1,0-1.459c0-.5-.768-1.037-.768-1.037,0-.272-.342-.5-.342-.5s-.079.23-.271.23-.641-.182-1.185-.31a6.845,6.845,0,0,0-1.344,0,15.81,15.81,0,0,1,.3,1.684s-.988-1.182-1.218-1.182a1.924,1.924,0,0,0-1.11.46,3.03,3.03,0,0,1-.82.4,23.3,23.3,0,0,0-5.5-1.412s6.068-1.506,15.1.281a56.76,56.76,0,0,1,14.81,5.21,4.368,4.368,0,0,0,.642.939l.09.1.037.042.033.042-.088-.023a2.622,2.622,0,0,1-.942-.614l-.048-.037-.037-.028-.033-.028,0,.089.009.126.009.052.028.117a1.06,1.06,0,0,0,.141.3l.07.095a1.613,1.613,0,0,0,.323.313,16.84,16.84,0,0,0,2.449,1.144c.649.338,1.441.808,1.441.808a5.3,5.3,0,0,0-.753-1.263.591.591,0,0,1-.061-.413c.131.38.927.75.927.75a5.925,5.925,0,0,0,1.343.281c4.753,2.392,14.783,8.085,14.955,8.166.206.093.426.206.651.327l.224.127a2.091,2.091,0,0,1,.117,1.173,6.733,6.733,0,0,1-.9-.849,1.121,1.121,0,0,0,0,.456.943.943,0,0,0-.44,1,.9.9,0,0,0,.8.764,2.072,2.072,0,0,1-.117-.563s.407.357.609.511a6.143,6.143,0,0,0,1.662.558,3.785,3.785,0,0,1,1.381.77,1.41,1.41,0,0,1-.159-.906,15.85,15.85,0,0,0,1.245,1.4c.408.2.988.3,1.6.535a4.191,4.191,0,0,1,.79.417,7.93,7.93,0,0,1,.586.871c-.285.573-1.531,1.961-6.85,1.084-4.35-2.312-8.855-4.175-8.855-4.175,9.735,5.848,17.441,13.779,17.818,16.133s-1.424,3.565-.24,4.47,3.559-2.04,3.559-2.04Zm-22.395,15.164a23.721,23.721,0,0,1-2.232.91c-.375.127-.749.244-1.129.347a19.838,19.838,0,0,1-4.094.59.641.641,0,0,1-.155-.009l.033-.1a1.518,1.518,0,0,0,.033-.183,1.846,1.846,0,0,0-.8-1.453l-.029-.014-.079-.038-.033-.013c-.576-.272-1.156-.535-1.737-.8q-1.517-.681-3.052-1.308l-.589-.239c-.145-.061-.29-.122-.435-.177q-3.531-1.4-7.155-2.559-2.183-.7-4.38-1.327l-.7-.2q-3.7-1.068-8.11-2.137c-1.928-1.814-3.828-3.632-5.868-5.3a157.356,157.356,0,0,1,27.553,9.885c1.68.783,2.822,1.374,3.4,1.688.523.16,1.258.249,1.638-.286.781-1.106-.557-2.057-.557-2.057s-11.891-6.295-34.207-10.893c-2.2-1.566-4.53-2.872-6.819-4.288a13.892,13.892,0,0,1-2.283-1.641,2.082,2.082,0,0,1-.763-1.228,1.465,1.465,0,0,1,0-.286l0-.019a1.232,1.232,0,0,1,.028-.183l.014-.056.014-.042.052-.155.037-.089a3.35,3.35,0,0,1,.921-1.2l.159-.141.113-.094.144-.122.155-.131.009,0,.056-.047.033-.028.009-.009.042-.037.023-.014.023,0h0l0,0,.14-.033.2-.052c.954-.239,1.965-.483,2.99-.647.341-.056.689-.1,1.03-.136a11.124,11.124,0,0,0,2.008,2.977,6.34,6.34,0,0,1-1.774-.22c1.442,1.941,5.434,4.382,8.536,4.992a28.663,28.663,0,0,0,5.929.5c-.44.225-1.16.5-1.16.5a13.116,13.116,0,0,1,2.878.277c.215.042.449.1.7.169,1.105.286,2.466.74,3.267,1.022.094.028.182.061.257.089l.014,0,.009,0c.249.164.487.324.721.487a40.392,40.392,0,0,1,3.964,3.038c.365.314.725.633,1.076.957.571.524,1.085,1.092,1.647,1.621-.047-.041-.056-.258-.075-.323a3.736,3.736,0,0,0-.127-.366c-.1-.253-.2-.511-.3-.759-.21-.5-.449-.995-.706-1.472a23.338,23.338,0,0,0-1.765-2.761c-.365-.491-.749-.979-1.146-1.453-.29-.337-.595-.665-.9-1-.244-.266-.538-.75-.9-.867l-.009,0-.019-.009c.3.009.571.033.838.066.089.009.174.019.257.033.117.014.225.033.338.056a6.667,6.667,0,0,1,.824.2c.1.027.191.061.285.094s.183.066.272.1c.177.07.345.149.5.229.08.037.159.08.235.122l.219.131.211.136.2.141.113.084c.075.056.15.117.22.178s.159.141.234.216a.971.971,0,0,1,.128.122,5.592,5.592,0,0,1,.8,1.031l.108.192a5.485,5.485,0,0,1,.468,1.092l.028.1.046.188c3.454-.127,5.966,3.464,6.636,4.368h.027l-.023,0,.019.009c.553.3,1.1.6,1.643.919l.29.174.407.244c.473.276.95.557,1.414.857a20.744,20.744,0,0,1,3.64,2.691,2.274,2.274,0,0,0-.584.07c-.192.047-.384.1-.562.155a21.233,21.233,0,0,1,3.613,3.248c.141.155,1.339,1.711,1.376,1.711Z" transform="translate(-1.63 -0.188)"/><path class="c" d="M869.85,1253.2c-.834,1.722-5.258-.591-10.006-1.018s-11.129,1.417-11.129,1.417l.154-.122a9.67,9.67,0,0,1,1.457-.862c.417-.211.842-.408,1.273-.6a28.32,28.32,0,0,1,4.687-1.553h.009a17.344,17.344,0,0,1,3.7-.507c3.375-.042,8.1.932,9.513,2.194.375.333.521.685.347,1.046Zm-11.162,12.124c-.381.535-1.116.446-1.64.285-.581-.313-1.722-.905-3.4-1.689a157.719,157.719,0,0,0-27.556-9.886c-4.663-1.243-9.823-2.443-15.484-3.512-3.536-.666-6.809-1.205-9.843-1.632,3.095.3,6.438.685,10.053,1.2,4.706.675,9.07,1.45,13.1,2.281,22.32,4.6,34.208,10.893,34.208,10.893s1.341.953.558,2.06Zm.378,4.278a1.357,1.357,0,0,1-.033.183l-.033.1,0,.009a1.367,1.367,0,0,1-.159.3c-.37.538-1.1.454-1.633.3-.585-.3-1.732-.887-3.417-1.65-6.373-3-21-9-43.174-12.96-3.458-.619-6.617-1.12-9.593-1.513l-.019,0-.093-.009-.042-.01c.552.048,1.118.1,1.685.155.094,0,.182.014.271.023,3.234.342,6.458.708,9.673,1.153q6.086.844,12.106,2.044c3.654.726,7.3,1.625,10.912,2.536,1.525.384,3.041.787,4.558,1.213l.7.2q2.2.626,4.38,1.327,3.622,1.167,7.155,2.559c.144.056.29.117.435.178l.589.238q1.537.626,3.051,1.308c.581.262,1.161.525,1.737.8l.033.014.08.037.029.014a1.844,1.844,0,0,1,.8,1.452Zm1.784-32.422c5.525,5.722,1.625,10.6,1.625,10.6a57.562,57.562,0,0,0-12.24-1.148,23.235,23.235,0,0,0-7.918,2.443l.066.009.038.014c.36.118.656.6.9.868.3.334.609.661.9,1q.6.711,1.148,1.448a23.664,23.664,0,0,1,1.761,2.763c.257.479.5.971.706,1.472.108.25.205.508.3.76.046.123.093.245.127.366.018.067.027.281.073.324-.556-.529-1.075-1.1-1.642-1.622-.356-.324-.713-.643-1.077-.957a40.284,40.284,0,0,0-3.965-3.04l-.745-.5c-.385-.258-.773-.512-1.171-.751-.814-.511-1.933-1.187-2.969-1.731a49.411,49.411,0,0,0-4.83-2.261q-1.547-.788-3.04-1.656c-1.348-.783-2.688-1.608-3.961-2.513a13.511,13.511,0,0,1-1.831-1.309.261.261,0,0,0-.107-.075,7.527,7.527,0,0,0-.965-.084,12.439,12.439,0,0,0-1.254.028c-.033,0-.51.056-.51.052-.342.036-.689.08-1.03.135-1.025.165-2.037.409-2.993.647l-.2.053-.141.032a11.542,11.542,0,0,1,5.595-2.921,21.6,21.6,0,0,1,3.965-.783,30.492,30.492,0,0,1,12.676,1.683c3.923,1.333,7.534,3.372,11.556,4.451q.768.205,1.547.372l.289.059h0a11.638,11.638,0,0,0,5.141.206,7.047,7.047,0,0,0,2.91-1.465l.115-.1a3.817,3.817,0,0,0,.824-1.169,6.2,6.2,0,0,0,.317-3.258l-.023-.159c-.023-.145-.052-.286-.084-.427a11.647,11.647,0,0,0-.342-1.186c-.126-.367-.257-.694-.374-.967-.042-.089-.08-.174-.112-.252l-.056-.117-.094-.2-.052-.094-.037-.08-.046-.084-.028-.057c.468.4.88.783,1.255,1.173Z" transform="translate(-4.426 -1.655)"/><path class="d" d="M865.2,1254.848a3.088,3.088,0,0,0,.468,1.661,11.6,11.6,0,0,0,1.6,1.786c-.31-.047-.618-.094-.928-.136-1.24-.177-2.492-.319-3.74-.431-.576-.052-1.152-.094-1.732-.13-.108-.009-2.084-.1-2.31-.1-2-.052-4.022.034-6.015.034h-.1c-.67-.905-3.18-4.5-6.634-4.372,0,0,6.386-1.842,11.129-1.417s9.173,2.739,10.006,1.018c.174-.361.028-.712-.347-1.045l.062.023s1.016.75.787,1.67c-.192.764-.948,1.364-2.249,1.444Zm-36.14,4.045q4.407,1.061,8.109,2.137-2.274-.64-4.557-1.214c-3.613-.909-7.258-1.809-10.913-2.536q-6.023-1.195-12.105-2.043c-3.215-.446-6.439-.811-9.673-1.153-.089-.009-.178-.019-.272-.023-.566-.056-1.132-.108-1.685-.155l.042.009-.1,0q1.228.324,2.452.685a20.742,20.742,0,0,1,3.463,1.2,20.828,20.828,0,0,0-3.86-.07,5.964,5.964,0,0,1,1.624.815q-3.237.035-6.481.155c-3.777.131-7.572.281-11.325.782a14.869,14.869,0,0,1,5.489,2.883,6.883,6.883,0,0,1,.6.624c-1.493.088-3,.22-4.488.379a2.25,2.25,0,0,0-.842-1,1.376,1.376,0,0,0-.412-.164l-.248-.056c-.164-.033-.337-.075-.51-.122a6.446,6.446,0,0,1-.814-.272c-.093-.038-.182-.08-.271-.122a1.414,1.414,0,0,1-.266-.141,3.9,3.9,0,0,1-.628-.449l-.014-.01a3.733,3.733,0,0,1-1.015-1.658,2.5,2.5,0,0,0-1.245-1.416l-.019,0c-.3-.1-.706-.225-1.137-.342-.117-.033-.234-.061-.351-.089-.249-.061-.492-.108-.717-.141a1.467,1.467,0,0,0-.889.052,1.374,1.374,0,0,0-.506.918v0s.983-.056,1.549-.164l.028,0a7.367,7.367,0,0,1-3.214,1.073l0,0a5.424,5.424,0,0,0,.689.14,2.454,2.454,0,0,0,.585.023h.018s-.224.8-.337,1.3a2.225,2.225,0,0,0,.674,1.922l0,0a14.34,14.34,0,0,0,1.951-.276l.023,0a3.662,3.662,0,0,1-.791.9.523.523,0,0,1,.225.736c-.281.449-.96,1.641-.562,2.433a3.7,3.7,0,0,0,.791.965s-2.265.647-3.332,1.007a39.205,39.205,0,0,0-9.111,4.331c.365.07.725.155,1.082.239.538.126,1.076.266,1.605.426.332.1.664.206.992.328l.014,0a1.587,1.587,0,0,0-.313.552,2.671,2.671,0,0,1-.141.427l-.047.113-.066.126-.055.089a.857.857,0,0,1-.1.117,1.084,1.084,0,0,1-.281.211c-.216.127-.477.174-.651.389a1.656,1.656,0,0,0-.337.895l-.014.009s-1.03.549-1.475.853c-.472.319-.935.652-1.38,1.008-.257.21-.758.642-.824.7l-.121-.141-.192-.211-.08-.094-.1-.122a15.574,15.574,0,0,1-2.274-2.944,5.964,5.964,0,0,0,1.745-3.9l-.014,0a3.744,3.744,0,0,1-1.563.052,9.028,9.028,0,0,0,2.313-2.315l-.028.014-.3.155c-.108.047-.211.094-.318.135l-.211.1-.1.042-.027.009a.574.574,0,0,1-.235.052l-.019,0a4.331,4.331,0,0,0-1.245-2.146,8.009,8.009,0,0,1-1.3-1.813h-.014c-.127,0-.286.014-.459.028-.313.033-.623.088-.936.116l-.069.009-.089,0,.047-.052c.285-.29,1.348-1.031,1.348-1.237a9.207,9.207,0,0,1,.79-2.264,1.345,1.345,0,0,0,.122-.567l-.009-.159,0-.034-.033-.154a1.02,1.02,0,0,0-.047-.159l-.014-.037a1.129,1.129,0,0,0-.07-.155l-.061-.117a1.714,1.714,0,0,0-1.053-.764l-.052-.009a5.96,5.96,0,0,0-2.33.136l-.224.038a2,2,0,0,1,.262.042,2.04,2.04,0,0,1,.983.374l.051.047.052.048a4.02,4.02,0,0,0-1.862.736c-.224.183-.421.361-.585.524l0-.019a30.646,30.646,0,0,1-.454-3.806,19.936,19.936,0,0,1,.627-7.119.3.3,0,0,1,.183-.127c.234-.023.458-.047.688-.075a31.3,31.3,0,0,0,4.4-.862,17.7,17.7,0,0,0,7.365-3.768c.178-.159.263-.253.272-.263l-.028.009c-.155-.047-3.449-.338-4.825-.647a5.907,5.907,0,0,1-1.109-.351,27.882,27.882,0,0,0,7.36-1.308c.646-.178,1.282-.389,1.915-.61.79-.286,1.6-.6,2.377-.937l.023-.009.019-.009c.29-.127.575-.258.861-.394l.038-.019a23.859,23.859,0,0,0,2.489-1.374l.37-.192.038-.019c.239-.094.473-.192.706-.3.445-.2.885-.408,1.325-.637.515-.263,1.03-.535,1.53-.821.31-.178.614-.361.913-.544a51.718,51.718,0,0,0,4.2-3.2l-.028.009-.028.019c-.388.211-.786.413-1.184.61a29.719,29.719,0,0,1-4.726,2c-.192.056-.384.116-.58.169-1.18.342-2.378.6-3.585.829a19.845,19.845,0,0,1-3.154.361,18.088,18.088,0,0,1-3.145-.187c-.58-.089-1.165-.191-1.74-.323-.628-.146-1.254-.31-1.873-.5-.557-.173-1.1-.385-1.656-.567a32.992,32.992,0,0,1-5.227-2.569c-.4-.234-1.549-.957-1.624-1.008l.9.211a62.833,62.833,0,0,0,10.37,1.781,27.4,27.4,0,0,0,6.308-.563c1.268-.22,2.532-.478,3.776-.787a9.532,9.532,0,0,1-1.895,1.692l.1-.028c4.211-1.036,8.414-2.085,12.635-3.08a37.988,37.988,0,0,1,8.016-.928,3.656,3.656,0,0,0-.487.4,2.328,2.328,0,0,1-.973.408c-.365.033-1.334.08-1.334.08a16.675,16.675,0,0,1,2.63,1.19c-.777-.116-2.144-.379-2.144-.379-.183.764-.725,1.007-1.132,1.312s-.44.544-.44.544a15.561,15.561,0,0,1,2.574,1.2,15.631,15.631,0,0,0-2.574-.192c-.1.338-.187.338.356.965s.492.885.3,1.087-.613.712.2,1.359a4.291,4.291,0,0,0,2.837.454,3.137,3.137,0,0,1,.968.042,11.109,11.109,0,0,1-.95-.857c.375.033,1.591.31,1.591.31s-.374-.375-.135-.647.982-.169,1.539-.61.44-1.444.562-1.663a2.6,2.6,0,0,1,.692-.558,5.155,5.155,0,0,1,.562,0c-.51-.309-2.19-1.125-2.19-1.125.608.014,1.647.1,1.647.1-.052-.272-.393-1.031-.51-1.373a1.443,1.443,0,0,1,.033-.848.624.624,0,0,0-.454-.915,15.057,15.057,0,0,1,1.508.15,8.77,8.77,0,0,0-.936-.385c1.082.047,2.167.108,3.248.188a4.008,4.008,0,0,0-1.751-1.655c.974,0,1.942.023,2.911.061a105.557,105.557,0,0,1,16.242,1.641c1.315.253,2.634.544,3.945.859a5.923,5.923,0,0,0,.969.581,8.362,8.362,0,0,0-1.475-.159c-.169.135-.248.529-.08,1.209l.014.07a5.714,5.714,0,0,0-2.868.028,7.279,7.279,0,0,1,1.754,1.743s-7.787,1.43-10.9,7.022l-.127.258-.042.037-.009.009-.033.028-.056.047-.009,0-.155.131-.144.122-.113.094-.159.141a3.343,3.343,0,0,0-.921,1.2l-.037.089-.052.154-.014.042-.014.056a1.242,1.242,0,0,0-.028.183l0,.02a1.447,1.447,0,0,0,0,.285,2.076,2.076,0,0,0,.763,1.228,13.843,13.843,0,0,0,2.283,1.641c2.289,1.416,4.619,2.723,6.818,4.289-4.033-.83-8.4-1.608-13.1-2.282-3.613-.516-6.958-.905-10.052-1.2q4.549.639,9.841,1.631c5.662,1.073,10.819,2.273,15.484,3.515,2.04,1.669,3.94,3.487,5.868,5.3Zm35.354-10.592c0,.633-1.447.455-2.534.361s-6.6.455-8.5,1.36a28.176,28.176,0,0,0-4.688,1.553c-.431.188-.857.385-1.273.6a9.667,9.667,0,0,0-1.457.862l-.153.122a5.527,5.527,0,0,0-1.452-2.6,2.6,2.6,0,0,0-.212-.206,4.84,4.84,0,0,0-.477-.395,6.311,6.311,0,0,0-1.925-.956,7.347,7.347,0,0,0-.823-.2,9.258,9.258,0,0,0-1.433-.156h-.009l-.066-.009a23.234,23.234,0,0,1,7.918-2.443,57.628,57.628,0,0,1,12.24,1.148s3.9-4.882-1.624-10.6a19.363,19.363,0,0,1,4.115,5.229c1.719,3.438,2.351,5.7,2.351,6.337Zm-10.638-3.124a11.621,11.621,0,0,1-5.141-.206,14.212,14.212,0,0,1-1.382-.455c-.631-.249-1.265-.521-1.746-.75-.113-.052-.219-.1-.319-.16a8.375,8.375,0,0,1-3.043-2.813,3.91,3.91,0,0,0,.079,1.247,26.747,26.747,0,0,1-4.916-2.813,5.643,5.643,0,0,1-1.948-3.752v-.071a6.776,6.776,0,0,1,.847-.693A39.763,39.763,0,0,1,845,1240a32.867,32.867,0,0,0,5.034,3.442c.112.056.219.108.333.155.3.127.609.234.907.337a8,8,0,0,0,5.428-.238l-.014.014,0,0a7.063,7.063,0,0,1-2.909,1.466Zm26.426-3.034a24.648,24.648,0,0,0-3.352-2.378c-.95-.59-1.965-1.172-2.926-1.661l-.1-.051c5.319.876,6.565-.511,6.85-1.084l.033.057a4.047,4.047,0,0,1,.211.432,4.88,4.88,0,0,1-.713,4.685Z" transform="translate(-1.523 -1.21)"/><path class="e" d="M852.448,1309.113l-2.188-1.421-.285-3.152s3.1,2.032,2.473,4.573Zm-7.389-6.909s-1.742,6.792-9.861,11.163c0,0-6.19-2.1-9.574-9.892-2.735-6.3-.127-18.093-3.793-24.762a11.464,11.464,0,0,0-6.733-5.464s2.678-1.539,8.259.272c9.192,2.974,10.193,15.008,10.339,17.48.286,4.859,1.124,11.134,4.313,12.835,0,0-1.878-2.6-1.934-8.75-.168-18.282-6.484-20.861-6.484-20.861s7.711,1.266,9.786,7.8-1.265,16.57,5.684,20.175Zm40.367-36.805c-.273,2.444-4.07,5.975-4.07,5.975a47.964,47.964,0,0,0-2.575-4.615s.543-1.359-1.493-3.128-7.595-1.764-7.595-1.764a6.344,6.344,0,0,1,3.39-.68c4.973.455,12.344,4.212,12.344,4.212ZM846.455,1246s-4.813,3.035-8.3,2.135-9.467-5.638-9.467-5.638a22.767,22.767,0,0,1,6.073.333l.1.02a6.33,6.33,0,0,1,1.976,1.1c.338.239.642.522.965.774.066.052.907.568.946.568l-.014.188a1.608,1.608,0,1,0,3.216,0,1.591,1.591,0,0,0-.3-.939c3.175.906,4.809,1.459,4.809,1.459Z" transform="translate(-5.312 -2.052)"/><path class="c" d="M864.915,1228.675s-.979-.863-1.321-1.162c0,0,.477,1.135.553,1.378a2.622,2.622,0,0,1-1.424-.355c-.5-.389-1.221-.849-1.035-.849,0,0,.225.013.413.042a2.325,2.325,0,0,0-1.55-.747,2.045,2.045,0,0,1-1.28-.211,3.132,3.132,0,0,1-.968-.708,1.994,1.994,0,0,1-.445-.951,7.587,7.587,0,0,0,1,.6,3.417,3.417,0,0,1-.591-1.346,1.875,1.875,0,0,1,.95.117c.535.2.68.042.68.042a2.175,2.175,0,0,1-.318-.6,6.941,6.941,0,0,0,.96.688,2.47,2.47,0,0,1,1.465.014,5.371,5.371,0,0,1,1.461,1.107,6.262,6.262,0,0,0,.586.483,3.017,3.017,0,0,1-.465-.854c.052.033.469.3.658.4a1.778,1.778,0,0,1,.66.764c.069.259-.347.677-.347.677s.547.7.547.99a.783.783,0,0,1-.187.487Zm5.393,4.446a.435.435,0,0,1-.337.207s-1.223-.732-1.545-.886c0,0,.613.952.7,1.173,0,0-1.053-.156-1.325-.525a7.4,7.4,0,0,1-1.611-.577,1.7,1.7,0,0,1-.764-.971s.679.323,1.021.478c0,0-.918-1.107-1.2-1.374a1.747,1.747,0,0,1,.713-.446,1.984,1.984,0,0,1,.726-.084.64.64,0,0,0-.169-.441,10.13,10.13,0,0,1,1.611,1.191l-.137-.478a3.513,3.513,0,0,1,1.288.614,4.186,4.186,0,0,1,.731,1.032c.116.207.441.887.3,1.088Zm-40.168,4.161a5.461,5.461,0,0,0-1.026-.525c.075.075.824.844.4.943a3.252,3.252,0,0,0-1.054-.741,13.157,13.157,0,0,1-2.3-1.256,2.862,2.862,0,0,1-.6-1.079c.041.056.249.332.434.365a4.125,4.125,0,0,1,.811.436,2.206,2.206,0,0,0-.44-.707,7.47,7.47,0,0,1-1.115-.85l.337-.1a4.128,4.128,0,0,0-.055-1.323l-.013-.07c-.169-.68-.091-1.073.079-1.21a8.388,8.388,0,0,1,1.475.159,5.823,5.823,0,0,1-.969-.582.293.293,0,0,0,.163-.164c.066-.15.034-.478.338-.544a1.939,1.939,0,0,1,.983.272c.136.066.9.549,1.147.666.141.065.2.3.224.5.721.2,1.437.407,2.154.628l.042.034.009,0,.023.02c-.426-.1-1.306-.225-1.718-.282-.123.123-.393.394-.507.535a2.848,2.848,0,0,0-.393,1.154,1.559,1.559,0,0,0,.375,1.122,6.1,6.1,0,0,1,1.254,1.386c.137.375-.112.958-.055,1.21Zm-.713-14.445a4.788,4.788,0,0,1-1.123.661,1.682,1.682,0,0,0,.37.821,2.9,2.9,0,0,1-1.04-.324,2.931,2.931,0,0,0-.468.671,4.429,4.429,0,0,1-1.039,1.261,6.438,6.438,0,0,1-1.137.569,7.079,7.079,0,0,0,1.25,1.384,11.3,11.3,0,0,1-2.833-1.7,1.65,1.65,0,0,0,.122.891,3.452,3.452,0,0,1-2,.172,6.708,6.708,0,0,1-2.116-1.036,11.658,11.658,0,0,0,1.643.192s-1.358-.667-1.606-1.336a1.316,1.316,0,0,1,.57-1.782,3.008,3.008,0,0,1,1.382-.3,20.184,20.184,0,0,0,2.818,1.087,7.758,7.758,0,0,1-1.7-1.462,3.583,3.583,0,0,0,1.236-.146c.271-.174.468-.619.988-.793a5.491,5.491,0,0,1,1.064-.225,3.4,3.4,0,0,1-.617-.422,9.374,9.374,0,0,0,1.339.272s.888.051,1.282.1a6.79,6.79,0,0,1,1.756,0c.618.2.369,1.022-.136,1.444Zm9.647,9.76a3.794,3.794,0,0,1-1.667,1.145l-.066-.118-.052-.074a2.209,2.209,0,0,0-.571-.587l.023.089.028.09.019.079.019.072c.028.1.052.215.075.327s.032.191.042.277c0,0-.114.061-.277.174a6.722,6.722,0,0,0-.847.694,3.106,3.106,0,0,0-.595.75,3.166,3.166,0,0,0-.436,1.533,3.981,3.981,0,0,1-.777-.459,1.838,1.838,0,0,0,.852,1.12s.38.5.216.882a4.5,4.5,0,0,1-1.438-.313,5.788,5.788,0,0,0-1.138-.539,3,3,0,0,1,.6-.028,3.611,3.611,0,0,0-.613-1.021c-.3-.254-.9-.719-.768-1.31a4.837,4.837,0,0,1,1.053.188,6.217,6.217,0,0,0-1.812-1.13l.942-.051s-.128-.667,1.068-1.249a4.051,4.051,0,0,0,1.821-1.326c.248-.375.352-.76.665-.985a11.161,11.161,0,0,1,1.049.685,3.031,3.031,0,0,0-1.115-1.374,7.82,7.82,0,0,1,1.236.273,2.842,2.842,0,0,1,1.241-.3c.529.056,1.485.554,1.574.858a3.968,3.968,0,0,1-.352,1.628Zm3.189-6.664s-.624-.155-.867-.239a4.741,4.741,0,0,1,.506.9,3.872,3.872,0,0,1-1,.474,1.22,1.22,0,0,0-.8.487,1.765,1.765,0,0,1-1.443.512c-.576-.085-1.722-.423-1.821-.446a5.4,5.4,0,0,1,.8.958,6.207,6.207,0,0,1-1.737.483,7.38,7.38,0,0,1-1.409-.123c-.421-.122-.81-.333-.839-.6a.935.935,0,0,1,.207-.571,10.086,10.086,0,0,0,1.382.422s-1.289-1.2-1.743-1.534a11.736,11.736,0,0,1,1.442.333,2.4,2.4,0,0,0-.271-.694c-.21-.356.183-.718.361-.811s1.02-.418,1.231-.569a8.2,8.2,0,0,0-1.143-.782,13.268,13.268,0,0,1,1.77.3,2.448,2.448,0,0,0,.993-.178,1.659,1.659,0,0,1,1.11-.15c.417.062.468.178.745.206a2.73,2.73,0,0,0,.543.006,1.476,1.476,0,0,0-.628-.422,4.263,4.263,0,0,1,1.409.422,2.686,2.686,0,0,1,1.227.576c.455.441-.027,1.046-.027,1.046Zm17.455,6.036s.211.539.332.783a4.183,4.183,0,0,0-1.352-.3.889.889,0,0,1-.951.286,3.78,3.78,0,0,1-1.325-.646s.6.027,1.075.027a1.477,1.477,0,0,0-.776-.361,2.751,2.751,0,0,1-1.311-.53.509.509,0,0,0,.17.53.812.812,0,0,1-1.05-.662c-.149-.9-.66-.839-.3-1.5a1.341,1.341,0,0,1,1.124-.656s-.643-.395-1.063-.634a11.566,11.566,0,0,1,2.607,1.079,1.412,1.412,0,0,0-.359-.689,2.036,2.036,0,0,1,1.652.361c.866.6.9,1.139,1.56,1.589a.778.778,0,0,1-.034,1.323Zm-9.9.511a2.814,2.814,0,0,0-.538.572,2.189,2.189,0,0,1-.872.929,1.551,1.551,0,0,1-.867.572,6.731,6.731,0,0,1-1.053-.089,3.435,3.435,0,0,1-2.4-.9s1.287.179,1.619.179a9.407,9.407,0,0,1-1.381-1.2s.333-.211.3-.511a.935.935,0,0,1,.183-.9,12,12,0,0,0,1.676.45s-.689-.694-1.377-1.261a2.179,2.179,0,0,1,.932.158,2.038,2.038,0,0,0,.687-.43,1.841,1.841,0,0,1,1.948.07,4.866,4.866,0,0,1,1.049,1.074,2.975,2.975,0,0,1,1.049,1.018,6.093,6.093,0,0,0-1.952-.835,6.6,6.6,0,0,1,.993,1.107Zm4.023-7.27a.884.884,0,0,1-.843.812c-.51.056-.81-.15-.988.089a1.394,1.394,0,0,1-.721.539s-1.737-1.078-2.492-1.472a9.581,9.581,0,0,1,.782,1.144,4.517,4.517,0,0,1-1.769-.21c-.72-.3-1.2-.553-1.709-.774a3.432,3.432,0,0,1-1.049-.938,11.445,11.445,0,0,0,1.288.511,4.68,4.68,0,0,1-.778-1.112,1.875,1.875,0,0,0,.838-.483,2.518,2.518,0,0,1,1.56-.538h.121a7.085,7.085,0,0,1,2.669,1.261,10.958,10.958,0,0,0-1.049-1.261,8.371,8.371,0,0,0,1.349-.089,2.065,2.065,0,0,1,1.348.056,1.667,1.667,0,0,1,.689.689,6.941,6.941,0,0,0-.838-.295s0,.361.72.872.9.779.872,1.2Zm-55.4,47.094a6.568,6.568,0,0,1,.628,2.156c.042.99-.763,1.3-1.568,1.617a2.586,2.586,0,0,1-1.976-.042,1.283,1.283,0,0,0-.721-.136,9.115,9.115,0,0,1,1.395-1.125,5.006,5.006,0,0,0-2.069.764,22.845,22.845,0,0,1-2.6.272,5.977,5.977,0,0,1-2.283-.853,3.608,3.608,0,0,0-1.3.4,11.459,11.459,0,0,1,2.153-1.935,6.975,6.975,0,0,0-1.839.853c-.314-.314-1.844-1.256-2.247-1.57a1.576,1.576,0,0,1-.538-1.663c.136-.9,1.166-.99,2.106-1.032s2.247-.047,2.247-.047a2.7,2.7,0,0,0-.665.9,8.283,8.283,0,0,1,1.6-.952,25.139,25.139,0,0,0,2.565-.885,2.946,2.946,0,0,1,2.916.225,7.259,7.259,0,0,1,1.839,2.381,10.022,10.022,0,0,1,2-.487,11.282,11.282,0,0,0-1.643,1.162Zm-21.965-23.223c-.365.239-.4.492-.679.854s-2.017.446-2.017.446a8.68,8.68,0,0,0-2.417-.366c.684.2,1.61.488,1.61.488a8.015,8.015,0,0,1-1.774.079c-.806-.079-1.25-.97-1.69-1.576s.08-1.533.08-1.533a2.1,2.1,0,0,0-.524-.245,21.325,21.325,0,0,1,2.538.043,16.612,16.612,0,0,0-1.628-.412,5.218,5.218,0,0,1,.3-.883c.2-.441,1.171-.323,1.573-.281s.927-.446,1.218-.538a4.647,4.647,0,0,1,1.685.379.7.7,0,0,1,.524.525,4.854,4.854,0,0,0-1.091.081l1.573.44s1.049.525,1.208,1.051a1.41,1.41,0,0,1-.487,1.448Zm9.466,14.153a6.637,6.637,0,0,0-.056,2.376c0,.965-1.189,1.364-3.051,1.646a3.6,3.6,0,0,1-2.654-.338l.281-.628c-.622.113-2.433.174-2.433.174a19.254,19.254,0,0,0,2.714-1.589c-.73.286-2.251.652-2.251.652a9.674,9.674,0,0,1-.913-.76,3.719,3.719,0,0,1-.791-.965c-.4-.793.28-1.982.562-2.433a.523.523,0,0,0-.224-.736,3.631,3.631,0,0,0,.79-.9l-.023,0a14.172,14.172,0,0,1-1.951.276l0,0a2.224,2.224,0,0,1-.674-1.922c.113-.507.338-1.3.338-1.3h-.019a2.411,2.411,0,0,1-.585-.023,5.572,5.572,0,0,1-.688-.14l0,0a7.368,7.368,0,0,0,3.215-1.073l-.028,0a15.449,15.449,0,0,1-1.549.164v0a1.37,1.37,0,0,1,.506-.918,1.465,1.465,0,0,1,.888-.052c.225.033.468.08.717.141.117.028.234.056.351.089.431.116.842.244,1.137.342l.019,0a2.5,2.5,0,0,1,1.245,1.416,3.735,3.735,0,0,0,1.016,1.658l.013.01a3.885,3.885,0,0,0,.628.449,1.441,1.441,0,0,0,.266.141c.089.042.178.084.272.122a6.4,6.4,0,0,0,.813.272c.174.047.346.089.51.122l.249.056a1.372,1.372,0,0,1,.411.164,2.245,2.245,0,0,1,.842,1l0,0a1.49,1.49,0,0,1-1.076,2.512,3.778,3.778,0,0,0,1.189,0Zm-13.2-36.83a1.334,1.334,0,0,1,.6,1.088c.033.769-.156,1.107.033,1.632s-.128.891-.862,1.322a5.919,5.919,0,0,1-1.479.095,4.134,4.134,0,0,0,.8.309,2.316,2.316,0,0,1-1.938.4,4.646,4.646,0,0,1-2.43.681c-1.044-.155-1.288-.586-1.288-.586s1.246-.226,2.135-.347a12.316,12.316,0,0,1-2.149-.68,2.682,2.682,0,0,1,.506-1.1c.338-.342.258-.427.258-.427s-1.334-.314-1.827-.5a17.713,17.713,0,0,0,2.06-.422s-.187-.38.431-.872a12.044,12.044,0,0,0,1.382-1.267,3.158,3.158,0,0,1,2.121-.122,2.749,2.749,0,0,0,1.044.188c.37,0,1.943-.154,1.943-.154a2.259,2.259,0,0,1-1.339.759Zm23.093,27.291c-.393.6-1.98.807-2.832.7a6.35,6.35,0,0,1-2.5.595,16.361,16.361,0,0,1-2.552-.741,3.865,3.865,0,0,1,1-.342,5.277,5.277,0,0,0-1.044-1.309,7.489,7.489,0,0,1-1.855-2.148,13.087,13.087,0,0,1,1.676-.572,5.5,5.5,0,0,1-1.835-.253,5.1,5.1,0,0,1,.2-1.73,3.231,3.231,0,0,0,.413-1.155c0-.249-.048-.229.323-.352s2.149-.431,2.149-.431-.164-.407-1.279-.576a4.71,4.71,0,0,1,2.1-.206c1.11.163,1.849,1.481,2.22,2.186a6.373,6.373,0,0,0,1.526,1.814c.455.328,2.159-.084,2.159-.084s-1.077,1.069-1.76,1.018a4.389,4.389,0,0,0,.917,1.75c.576.492,1.362,1.234.969,1.834Zm-25.776,7.752a21.337,21.337,0,0,0-2.486,2.266c-.679.793-1.409,1.641-2.936,1.242s-1.756-2.6-1.756-2.6a8.584,8.584,0,0,1,2.206-1.412,15.1,15.1,0,0,0-2.178.216c.024-.46.089-1.8.089-2.88a4.931,4.931,0,0,0-.566-2.091,7.334,7.334,0,0,1,1.357-.906,8.3,8.3,0,0,1-2.828.056,3.415,3.415,0,0,0,1.245-.4,2.208,2.208,0,0,1,.393-1.643,21.179,21.179,0,0,1,1.527-1.642c.393-.281,1.414-.112,2.43.057s1.185.793,1.185.793a3.544,3.544,0,0,0,1.021.055,10.876,10.876,0,0,1-2.206.962,9.655,9.655,0,0,0,1.358.117s.449,1.642.678,2.491a2.553,2.553,0,0,0,.524.961,11.538,11.538,0,0,1-1.826.905,8.521,8.521,0,0,0,2.257-.436c.224.225.473.456.739.718.792.794.281,2.777-.23,3.171Zm45.484-28.975a1.417,1.417,0,0,1,.365,1,2.688,2.688,0,0,1-.4.938,1.986,1.986,0,0,1-1.011.824,12.113,12.113,0,0,1,1.175.6c-.14-.014-1.264-.16-1.586-.2a3.456,3.456,0,0,0-.923.808,1.886,1.886,0,0,1-1.522.843s-.917-.272-1.282-.351c0,0,.478.412.664.619a2.023,2.023,0,0,1-1.03.1c-.506-.113-1.662-.59-2.013-.7,0,0,.843.06,1.1.094,0,0-1.681-1.351-1.933-1.652,0,0,.726.123,1.049.2-.117-.071-1.068-.652-1.1-1.412a1.137,1.137,0,0,1,.678-1.012c.385-.207.81-.225.969-.512a1.778,1.778,0,0,0,.188-.632s1.251.238,1.8.365c0,0-.492-.732-.81-.858a.97.97,0,0,1,.515-.478,7.775,7.775,0,0,0,1.554-.712,1.4,1.4,0,0,1,1.223-.174c.312.061.931.446,1.66.666a2.365,2.365,0,0,1-.506-.586,4.653,4.653,0,0,1,1.19.22.657.657,0,0,1,.411.891c-.192.3-.431.334-.445.539s.538.572.777.779c0,0-.351-.113-.763-.206Zm-35.138,44.466a5.322,5.322,0,0,0-1.6.951,3.771,3.771,0,0,0-1.343,1.9,10.321,10.321,0,0,1,1.343-.993c-.22.346-.131.52-.609,1.6s-1.642,1.041-2.461,1.125a4.409,4.409,0,0,1-2.158-.9,6.167,6.167,0,0,0-1.343.993,7.918,7.918,0,0,1,1.816-2.681,12.652,12.652,0,0,0-1.685,1.037c-.6-.474-2.728-1.084-4.151-1.861a2.411,2.411,0,0,1-1.254-2.292,6.225,6.225,0,0,1,.866-2.124,4.878,4.878,0,0,0-.993.825,2.672,2.672,0,0,1,0-.478v-.014a1.672,1.672,0,0,1,.337-.9c.174-.216.435-.263.651-.389a1.072,1.072,0,0,0,.28-.211.894.894,0,0,0,.1-.116l.056-.089.066-.126.047-.113a2.6,2.6,0,0,0,.14-.426,1.593,1.593,0,0,1,.314-.553,4.867,4.867,0,0,1,1.375-.961,2.4,2.4,0,0,0-.52,1.313l.014,0a3.062,3.062,0,0,1,2.668-1.448,3.653,3.653,0,0,0-.777.347s.734.258,1.469.473a15.425,15.425,0,0,0,3.328.347,19.464,19.464,0,0,1,2.719.347c.777-.258,3.159-.862,3.159-.862-.824.515-2.288,1.25-2.288,1.25,2.98,1.646.431,5.025.431,5.025Zm20.505,9a2,2,0,0,1-1.343,1.069l.2-.37a2.155,2.155,0,0,1-1.446-.239,2.843,2.843,0,0,1,.454,1.322l-.263.492.9-.066-.51.628c.15,1.463-1.062,2.01-2.479,1.9a7.1,7.1,0,0,1-3.126-1.57,9.685,9.685,0,0,1,1.165-2.086,10.949,10.949,0,0,0-2.13,1.2c-1.3-.806-1.03-.534-4.722-1.045a18.154,18.154,0,0,1-5.536-1.491,3.313,3.313,0,0,1,.482-1.486,3.479,3.479,0,0,0-1.314,1.115,2.625,2.625,0,0,1-.969-2.736c.417-1.462,2.583-1.688,2.583-1.688a3.276,3.276,0,0,1,1.84-.582c-.244.145-.651.427-.651.427a52.8,52.8,0,0,1,5.269.327c1.413.113,2.933.108,2.933.108l1.446-.332c-.613.393-2.335,1.509-2.545,1.645a15.635,15.635,0,0,1,3.674-1.181,2.34,2.34,0,0,1,1.123.239c.665.3.955,1.383.955,1.383.576-.566,1.535-.23,2.518.792a3.487,3.487,0,0,1,1.024,2.1l.468.127Zm-.7-53.02s1.681.812,2.192,1.121a5.136,5.136,0,0,0-.563,0,2.608,2.608,0,0,0-.692.558c-.123.22,0,1.223-.563,1.665s-1.306.338-1.539.61.135.647.135.647-1.217-.277-1.592-.309a11.033,11.033,0,0,0,.951.858,3.086,3.086,0,0,0-.97-.042,4.275,4.275,0,0,1-2.832-.456c-.815-.646-.389-1.157-.2-1.359s.235-.46-.3-1.088-.459-.629-.356-.965a15.562,15.562,0,0,1,2.57.191,15.6,15.6,0,0,0-2.57-1.2s.032-.235.44-.544.946-.549,1.129-1.312c0,0,1.366.262,2.144.379a16.8,16.8,0,0,0-2.626-1.191s.964-.046,1.334-.079a2.333,2.333,0,0,0,.969-.408,3.537,3.537,0,0,1,.487-.4,2.275,2.275,0,0,1,1.2-.375,7.281,7.281,0,0,1,2.547.422,8.719,8.719,0,0,1,.936.385,15.059,15.059,0,0,0-1.507-.15,2.2,2.2,0,0,1,.473.357,2.159,2.159,0,0,1-.019.558,1.427,1.427,0,0,0-.033.848c.117.344.459,1.1.51,1.374,0,0-1.04-.084-1.648-.1Zm7.338,12.124c-.769-.16-2.1-.272-2.1-.272l1.737.675a.632.632,0,0,1-.313.137c-.183.023-.5-.179-.768-.137s-.478.5-.772.75a.884.884,0,0,1-.674.178,1.216,1.216,0,0,1-.384.591c-.3.225-.773.113-1.382.023s-.815-1.383-.815-1.383a9.989,9.989,0,0,0-1.6-1.084,8.746,8.746,0,0,1,.927.112,5.165,5.165,0,0,0-1.4-.9c-.2-.094-.816-.431-.816-.431.614.047,2.487.474,2.487.474a14.054,14.054,0,0,0-1.83-.859.5.5,0,0,1,.5-.361c.29,0,.9.088,1.1-.071s.25-.567.614-.793,1.017-.041,1.6.113,1.311.432,1.311.432c-.678.047-1.376.047-1.376.047a8.566,8.566,0,0,1,2.416,1.083c.787.488.478.953,1.133,1.2s.4.478.4.478Zm-12.591-22.376c-.094.812-1.133,1.529-1.414,1.711a2.254,2.254,0,0,0-.95,1.08,1.362,1.362,0,0,1-1.05.895c-.337.028-.8.521-.8.521a2.757,2.757,0,0,0,1.251-.117c-.07.062-.656.536-.914.737a3.309,3.309,0,0,1-1.535.4l-1.723-.027c-1.049-.034-2.248-.127-2.608-.788-.341-.629-.487-.648-.5-.648a7.18,7.18,0,0,1-2.275.324,9.106,9.106,0,0,0,2.743-2,8.085,8.085,0,0,1-1.7.474,1.464,1.464,0,0,1-.122-.905.987.987,0,0,1,.463-.708,1.525,1.525,0,0,1,.337-.647,3.585,3.585,0,0,1,1.939-.985,3.877,3.877,0,0,0,1.722-.613,5.67,5.67,0,0,1,2.519-.8,3.561,3.561,0,0,1,.989.183c.4-.027,1.287-.183,1.287-.183a10.534,10.534,0,0,1-1.905,1.263,9.1,9.1,0,0,0,2.524-.708c1.382.094,1.813.741,1.719,1.552Zm17.587-1.191c-.061.441-.374,1.571-.969,1.825s-.759.3-.759.3v1.309a14.525,14.525,0,0,1-1.076-1.051,5.484,5.484,0,0,1-.867-.084c-.628-.094-1.382.976-2.542.882,0,0-1.911-.408-2.224-1.2a2.152,2.152,0,0,1-.065-1.664,5.268,5.268,0,0,0,1.128,1.1,5.474,5.474,0,0,1-.435-1.631,1.272,1.272,0,0,0,.435-.569c.066-.281.787-.722,1.227-.816a1.612,1.612,0,0,1,.871.094,9.3,9.3,0,0,0,.89,1.614,17.321,17.321,0,0,1,.028-3.118,12.36,12.36,0,0,0,.731,1.406s.524-.055,1.278-.182a2.037,2.037,0,0,1,1.849.375,1.658,1.658,0,0,1,.5,1.417Zm-23.913,18.052a10.81,10.81,0,0,0-1.827-.02,1.477,1.477,0,0,1-.814.408.423.423,0,0,0-.431.591c.094.248.524,1.154-.02,1.787s-1.806.417-1.806.417a4.049,4.049,0,0,1-2.66.736,9.757,9.757,0,0,1-2.5-.736,10.177,10.177,0,0,1-1.962-.657,24.006,24.006,0,0,0,3.067.084,5.327,5.327,0,0,1-1.869-.961s.492-.31.4-.76a2.4,2.4,0,0,1-.023-1.449,14.729,14.729,0,0,0,1.9.769,5.149,5.149,0,0,1-1.105-1.29,1.8,1.8,0,0,0,1.04-.408c.5-.408,1.025-1.14,1.948-1.126a2.124,2.124,0,0,1,.857-.53,4.286,4.286,0,0,1,.786-.089,6.512,6.512,0,0,0,1.357.385,10.617,10.617,0,0,1-1.423-1.106,3.019,3.019,0,0,0,.95.154,2.52,2.52,0,0,1,1.241.071,1.591,1.591,0,0,1,1.288,1.29c0,.5-.7,1.154-.449,1.584.23.4,1.821.8,2.051.855Z" transform="translate(-1.962 -0.569)"/><path class="a" d="M839.963,1243.9a.734.734,0,0,1-.749.746,1.1,1.1,0,0,1-.361-.07c-.038,0-.88-.516-.946-.568-.324-.252-.628-.535-.965-.774a6.4,6.4,0,0,0-1.971-1.1c.421.08,2.07.4,3.038.66.489.128.942.253,1.387.376,0,0,.6.262.567.731Zm-2.2,5.285c1.035.544,2.154,1.22,2.969,1.731.4.238.785.494,1.171.751l-.258-.089c-.8-.281-2.162-.736-3.264-1.019q-.38-.1-.7-.168a13.133,13.133,0,0,0-2.88-.277s.721-.277,1.162-.5a28.645,28.645,0,0,1-5.928-.5c-3.1-.61-7.094-3.053-8.536-4.995a6.339,6.339,0,0,0,1.775.221,11.063,11.063,0,0,1-2.008-2.973s.477-.047.509-.052c.417-.027.839-.041,1.255-.027a7.572,7.572,0,0,1,.964.084.249.249,0,0,1,.108.075,13.483,13.483,0,0,0,1.83,1.309c1.274.9,2.614,1.73,3.962,2.513q1.494.865,3.039,1.656a49.3,49.3,0,0,1,4.831,2.261Zm-15.269-9.873a17.568,17.568,0,0,0-3.5,1.346,17.854,17.854,0,0,0-2.1,1.575l0,.006h-.006l-.023,0-.066.051.041-.041.128-.258c3.114-5.59,10.9-7.021,10.9-7.021a7.294,7.294,0,0,0-1.755-1.74,5.726,5.726,0,0,1,2.871-.028,4.142,4.142,0,0,1,.056,1.323l-.338.1a7.482,7.482,0,0,0,1.115.849,2.224,2.224,0,0,1,.44.707,4.145,4.145,0,0,0-.811-.436c-.187-.033-.393-.31-.435-.365a2.869,2.869,0,0,0,.6,1.079,13.24,13.24,0,0,0,2.3,1.257,3.245,3.245,0,0,1,1.054.74c.421-.1-.328-.868-.4-.943a5.456,5.456,0,0,1,1.026.525c-.056-.253.192-.835.055-1.21a6.124,6.124,0,0,0-1.254-1.387,1.555,1.555,0,0,1-.375-1.121,2.85,2.85,0,0,1,.393-1.154c.113-.141.384-.413.507-.535.412.056,1.292.177,1.718.281l-.023-.019-.009,0-.042-.034-.009-.009-.041-.028-.061-.042-.048-.036-.126-.09-.009,0-.165-.112-.041-.028-.131-.09-.06-.036-.127-.085-.061-.036-.183-.113a8.592,8.592,0,0,1,5.328-1.253,3.03,3.03,0,0,1,1.115,1.374,10.93,10.93,0,0,0-1.049-.684c-.313.224-.417.609-.664.984a4.059,4.059,0,0,1-1.822,1.327c-1.2.582-1.068,1.248-1.068,1.248l-.942.051a6.208,6.208,0,0,1,1.812,1.13,4.835,4.835,0,0,0-1.053-.188c-.136.591.468,1.055.768,1.31a3.638,3.638,0,0,1,.614,1.022,3.005,3.005,0,0,0-.6.028,5.761,5.761,0,0,1,1.137.54,4.5,4.5,0,0,0,1.438.313c.164-.379-.215-.882-.215-.882a1.836,1.836,0,0,1-.853-1.12,4,4,0,0,0,.777.46,3.271,3.271,0,0,1,1.031-2.284v.071a5.643,5.643,0,0,0,1.948,3.752,26.749,26.749,0,0,0,4.916,2.813,3.916,3.916,0,0,1-.079-1.248,8.385,8.385,0,0,0,3.043,2.814c.1.056.205.108.319.159.482.23,1.114.5,1.746.75.459.18.979.343,1.377.454l-.289-.059c-.518-.11-1.035-.234-1.547-.371-4.022-1.079-7.633-3.119-11.556-4.451a30.49,30.49,0,0,0-12.676-1.683,21.594,21.594,0,0,0-3.965.783Z" transform="translate(-5.418 -1.337)"/></g><rect class="f" width="200" height="200"/></svg>