<svg xmlns="http://www.w3.org/2000/svg" width="200" height="200" viewBox="0 0 200 200"><defs><style>.a{fill:#fdb827;}.b{fill:none;mix-blend-mode:multiply;isolation:isolate;}</style></defs><g transform="translate(-1026.283 -1508.148)"><path class="a" d="M1179.111,1579.324c0-8.777,1.225-18.307,6.725-27.772-14.533-3.606-25.727-17.29-29.355-29.4-6.021,5.887-11.919,7.264-21.278,7.264l-62.419-.085-8.5,21.247a13.911,13.911,0,0,1,8.5,12.937v97.346a13.911,13.911,0,0,1-8.5,12.922l8.5,20.586h23.826l8.5-20.585a13.9,13.9,0,0,1-8.5-12.924v-38.389l38.594.022c9.359,0,15.256,2.3,21.278,8.188,3.941-12.1,15.767-21.118,30.285-24.725-5.515-9.473-7.655-17.866-7.655-26.629Zm-32.965,22.012h-49.415v-51.5h49.415c7.832,0,12.732,4.935,12.732,11.481v29.427c0,6.859-3.884,10.594-12.731,10.594Z"/><path class="a" d="M1107,1693.483V1688.2h1.935v-1.121h-5.177v1.122h1.921v5.284m12.007,0v-6.405h-2.25l-1.559,4.182h-.025l-1.5-4.182h-2.263v6.405h1.317v-5.1h.025l1.8,5.1h1.245l1.864-5.1h.034v5.1"/></g><rect class="b" width="200" height="200"/></svg>