<svg xmlns="http://www.w3.org/2000/svg" width="200" height="200" viewBox="0 0 200 200"><defs><style>.a{fill:#ffb612;}.b{fill:#203731;}.c{fill:#fff;}.d{fill:none;mix-blend-mode:multiply;isolation:isolate;}</style></defs><g transform="translate(-1611 -3447)"><path class="a" d="M1738.811,902.587c-48.432,0-89.349,27.139-89.349,59.257,0,33.434,38.414,58.645,89.349,58.645,29.728,0,57.913-10.445,75.4-27.937,9.624-9.627,14.916-20.537,14.906-30.708-.012-15.837-9.331-30.71-26.239-41.886-16.952-11.2-39.7-17.371-64.063-17.371" transform="translate(-28.463 2585.414)"/><path class="b" d="M1676.492,1001.28c-15.538-10.361-24.1-24.312-24.1-39.271,0-30.09,40.461-56.487,86.583-56.491,48.243,0,87.509,25.34,87.538,56.491.008,9.438-5,19.647-14.1,28.753-16.974,16.984-44.427,27.126-73.438,27.126-24.238,0-46.43-5.9-62.484-16.608" transform="translate(-28.627 2585.25)"/><path class="c" d="M1778.312,946.993c-6.956-10.357-22.185-17.539-40.119-17.539-24.615,0-44.573,13.534-44.573,30.228s14.088,31.349,44.573,31.332c18.306-.008,33.025-7.912,39.9-18.293l-52,.09-.161-13.5,90.261-.032a28.654,28.654,0,0,1,.247,3.235c0,25.991-34.427,47.059-76.893,47.059s-76.889-21.068-76.889-47.059,36.469-47.856,76.889-48.013c33.643-.127,62.242,13.769,72.672,32.474l-33.911.021" transform="translate(-29.203 2584.747)"/></g><rect class="d" width="200" height="200"/></svg>