<svg xmlns="http://www.w3.org/2000/svg" width="200" height="200" viewBox="0 0 200 200"><defs><style>.a{fill:#b3b2b1;}.b{fill:#003da6;}.c{fill:#dd0031;}.d{fill:#fff;}.e{fill:none;mix-blend-mode:multiply;isolation:isolate;}</style></defs><g transform="translate(-702.852 -943.684)"><path class="a" d="M874.006,1043.262a71.577,71.577,0,1,1-71.578-71.578,71.589,71.589,0,0,1,71.578,71.578"/><path class="b" d="M871.969,1043.262a69.54,69.54,0,1,1-69.541-69.541,69.54,69.54,0,0,1,69.541,69.541"/><path class="c" d="M861.689,1043.262a59.309,59.309,0,1,1-59.309-59.309,59.3,59.3,0,0,1,59.309,59.309"/><path class="d" d="M802.428,983.953a59.308,59.308,0,1,0,59.309,59.309,59.4,59.4,0,0,0-59.309-59.309m-55.865,61.055h10.911v-3.492H746.563c.049-1.309.1-2.619.242-3.928,3.88-19.495,27.3-34.479,55.623-34.479,28.273,0,51.744,15.033,55.623,34.479.146,1.309.194,2.619.243,3.928h-10.96v3.492h10.911c-.048,1.309-.1,2.618-.242,3.928-3.88,19.446-27.351,34.479-55.623,34.479s-51.743-15.033-55.623-34.479c-.1-1.31-.145-2.619-.194-3.928M802.428,987.4a55.932,55.932,0,0,1,52.083,35.644c-9.941-13.579-29.533-22.89-52.083-22.89s-42.141,9.263-52.082,22.89A55.883,55.883,0,0,1,802.428,987.4m0,111.78a55.932,55.932,0,0,1-52.082-35.643c9.941,13.578,29.533,22.889,52.082,22.889s42.142-9.263,52.083-22.889a56.052,56.052,0,0,1-52.083,35.643"/><rect class="d" width="4.171" height="18.816" transform="translate(777.357 1044.814)"/><path class="d" d="M793.409,1044.814h-.146c-1.164,0-5.48-.049-6.3,0h-.194a2.041,2.041,0,0,0-2.279,1.7,1.344,1.344,0,0,0-.049.291,20.56,20.56,0,0,0,.049,4.558,4.2,4.2,0,0,0,3.055,2.571c.048,0,.1.048.145.048.1,0,.146.049.243.1a.765.765,0,0,1,.291.194v6.789h-3.443v2.522h4.558a3.024,3.024,0,0,0,3.055-1.94c.1-.921.146-7.225.049-8.535a1.652,1.652,0,0,0-.728-1.261,4.118,4.118,0,0,0-.679-.436c-.242-.146-.533-.243-.776-.388-.969-.485-2.085-1.018-2.085-2.279v-1.067h3.3a1.7,1.7,0,0,0,1.552-.97,4.367,4.367,0,0,0,.339-.97,4.069,4.069,0,0,0,0-.776Z"/><path class="d" d="M812.612,1044.814a12.042,12.042,0,0,0-2.715.242c-2.037.485-3.056,1.843-3.056,4.219v11.2c0,2.862,2.037,3.443,5.141,3.443,3.734,0,5.868-1.309,5.868-3.637V1048.6c0-3.782-2.425-3.782-5.238-3.782m-1.406,4.267a3.787,3.787,0,0,1,.145-1.164l.1-.048a2.335,2.335,0,0,1,.582-.049h.1c1.407,0,1.455.437,1.455,3.007v8.535a2.434,2.434,0,0,1-.1.63l-.1.1a3.633,3.633,0,0,1-.727.049,1.466,1.466,0,0,1-1.116-.34,2.263,2.263,0,0,1-.339-1.6v-9.117"/><path class="d" d="M827.549,1052.815c-1.989-7.274-5.238-8.05-6.547-8.05a4,4,0,0,0-.582.049l-.1.048v18.816h4.267v-7.565l2.959,7.565h4.316v-18.816h-4.316v7.953Z"/><path class="d" d="M772.265,1044.814H761.548v.145a2.79,2.79,0,0,0,2.376,2.764v15.955h4.364v-8h3.638c1.939,0,3.055-1.26,3.055-3.491v-.679c-.049-5.334-.243-6.4-2.716-6.692m-1.7,8.389h-2.377v-5.48s1.261-.048,1.455,0c.485.049.873.243.873.825.049.145.049,4.655.049,4.655"/><path class="d" d="M805.532,1044.862h-9.8v2.958h2.813v15.906h4.316V1047.82h.145a2.527,2.527,0,0,0,1.843-.679,3.236,3.236,0,0,0,.728-2.133Z"/><path class="d" d="M843.309,1044.814h-.145c-1.164,0-5.48-.049-6.3,0h-.194a2.042,2.042,0,0,0-2.279,1.7,1.371,1.371,0,0,0-.048.291,20.611,20.611,0,0,0,.048,4.558,4.2,4.2,0,0,0,3.055,2.571c.049,0,.1.048.146.048.1,0,.145.049.242.1a.748.748,0,0,1,.291.194v6.789h-3.443v2.522h4.559a3.024,3.024,0,0,0,3.055-1.94c.1-.921.145-7.225.048-8.535a1.647,1.647,0,0,0-.727-1.261,4.118,4.118,0,0,0-.679-.436c-.243-.146-.533-.243-.776-.388-.97-.485-2.085-1.018-2.085-2.279v-1.067h3.3a1.7,1.7,0,0,0,1.552-.97,4.341,4.341,0,0,0,.34-.97,4.151,4.151,0,0,0,0-.776Z"/><path class="d" d="M804.8,1033.175h.727c.679,0,1.891.243,1.891,1.5,0,.582.049,2.474.1,3.2v.291c0,.1.049,1.018.1,1.212a2.582,2.582,0,0,0,2.474,1.892H811.3v-6.693a3.3,3.3,0,0,0-.776-1.939l-.1-.1a3.6,3.6,0,0,0,.921-2.668v-.678c0-5.189-.194-6.256-2.618-6.5h-8.147v18.38h4.17v-7.9Zm0-7.662h.824c1.115,0,1.5,0,1.455,1.94,0,1.552,0,1.649-.049,2.376v.145a.925.925,0,0,1-.242.631.44.44,0,0,1-.339.145h-1.7v-5.237Z"/><path class="d" d="M830.8,1022.6h-4.074v18.379H830.8Z"/><path class="d" d="M791.566,1041.031h4.219v-15.518h.145a2.416,2.416,0,0,0,1.795-.679,3.075,3.075,0,0,0,.727-2.085v-.146h-9.6v2.91h2.716Z"/><path class="d" d="M835.7,1041.031h4.219v-15.518h.145a2.412,2.412,0,0,0,1.794-.679,3.073,3.073,0,0,0,.728-2.085v-.146h-9.6v2.91H835.7v15.518Z"/><path class="d" d="M786.619,1038.073h-4.413v-4.51h3.007v-3.977h-3.007v-4.122h4.413V1022.6h-8.487l-.048,18.379h8.535Z"/><path class="d" d="M772.8,1022.6H762.324v.1a2.608,2.608,0,0,0,.533,1.892,2.71,2.71,0,0,0,1.94.872v15.47H772.6c1.795,0,2.959-1.5,2.959-3.782v-8.535c0-4.656,0-5.917-2.765-6.014m-1.454,15.47h-2.328v-12.56c1.455-.049,1.746.048,1.794.1.534.194.534,1.212.534,1.261.1,1.406,0,10.038,0,11.2"/><path class="d" d="M819.256,1022.6a12.314,12.314,0,0,0-2.716.243c-2.036.485-3.006,1.843-3.006,4.122v10.96c0,2.812,2.036,3.394,5.092,3.394,3.685,0,5.819-1.309,5.819-3.54v-11.445c.048-3.734-2.376-3.734-5.189-3.734m-1.358,4.171a3.783,3.783,0,0,1,.146-1.164l.1-.049a2.381,2.381,0,0,1,.582-.048h.1c1.406,0,1.454.436,1.454,2.958v8.39a2.434,2.434,0,0,1-.1.63l-.1.049a3.706,3.706,0,0,1-.727.048,1.468,1.468,0,0,1-1.115-.339,2.189,2.189,0,0,1-.34-1.552v-8.923"/></g><rect class="e" width="200" height="200"/></svg>