<svg xmlns="http://www.w3.org/2000/svg" width="200" height="200" viewBox="0 0 200 200"><defs><style>.a{fill:#707271;}.b{fill:#12173f;}.c{fill:#5d76a9;}.d{fill:#fb2;}.e{fill:none;mix-blend-mode:multiply;isolation:isolate;}</style></defs><g transform="translate(-717.307 -1267.664)"><path class="a" d="M886.282,1326.654a23.547,23.547,0,0,0,2.9-11.007c0-8.1-4.523-15.328-10.871-19.65-8.847-6.01-22.082-6.82-31.468,4.39a59.142,59.142,0,0,0-29.577,3.714,59.928,59.928,0,0,0-29.576-3.714c-9.387-11.21-22.689-10.4-31.468-4.39-6.348,4.323-10.872,11.547-10.872,19.65a23.547,23.547,0,0,0,2.9,11.007c-7.09,10.2-11.952,22.351-11.952,34.709,0,14.856,6.348,22.486,8.711,25.8l1.891-1.892c6.753,17.085,18.232,26.336,32.143,34.708,0,0,.337-1.687.607-3.174,14.991,12.966,22.081,9.792,37.612,27.348,15.464-17.489,22.824-14.519,37.612-27.348.271,1.487.609,3.174.609,3.174,6.212-3.714,23.633-13.1,32.142-34.708l1.891,1.89c1.485-2.025,8.711-10.129,8.711-25.794.067-12.357-4.861-24.444-11.952-34.709" transform="translate(0 0)"/><path class="b" d="M881.363,1326.258c14.248-21.879-18.1-44.7-33.763-22.622a55.885,55.885,0,0,0-30.995,3.782,55.742,55.742,0,0,0-30.995-3.782c-15.666-22.081-48.011.743-33.762,22.622-16.274,22.351-14.586,44.365-7.091,54.7l3.107-3.105s4.457,21.541,27.821,35.654l.809-4.66c14.384,15.4,27.552,15.058,40.044,29.1,12.425-14.046,25.593-13.708,40.044-29.1l.809,4.66c23.433-14.113,27.821-35.654,27.821-35.654l3.106,3.105c7.7-10.4,9.318-32.412-6.955-54.7" transform="translate(0.666 0.667)"/><path class="c" d="M804.918,1387.3s-11.276.2-12.9,1.215c0,0-1.958,3.377,12.9,3.31,14.113-.069,12.021-2.634,12.155-3.039a45.026,45.026,0,0,0-12.155-1.485" transform="translate(12.487 21.467)"/><path class="c" d="M797.952,1385.961s1.756-5.064,3.646-3.443c2.567,2.228,6.01,6.752,6.01,7.226v6.077l-4.119.2c-2.363.067-9.926,1.891-9.926,1.891-10.467-25.862-4.66-45.512-1.892-52.467-10.331,2.229-12.019-10.2-12.019-10.2,1.081-.2,2.634.271,4.457,1.081a55.416,55.416,0,0,1,8.643,5.6h0c.742.607,1.485,1.148,2.093,1.688,7.024,5.942,12.763,4.726,12.763,4.726v25.322c-.067,0-20.6-1.62-9.656,12.29" transform="translate(9.73 9.773)"/><path class="c" d="M812.072,1378.924c13.1-13.3-8.238-12.492-9.589-12.29,2.229.136,18.772.2,9.589,12.29" transform="translate(14.854 16.81)"/><path class="c" d="M819,1345.786c11.75,31.738-3.174,52.13-3.241,52.266,9.251-24.242,3.308-44.432-.742-51.928a36,36,0,0,1-4.592.067,45.857,45.857,0,0,0,5.132-3.781,2.879,2.879,0,0,1,.473-.405,32.273,32.273,0,0,1,8.778-5.672h0a20.258,20.258,0,0,1,4.524-1.148c.067,0-1.08,10.467-10.332,10.6" transform="translate(16.637 9.769)"/><path class="c" d="M852.436,1312.606s4.795-12.021,19.516-9.116c0,0-13.506-8.914-22.891,7.157,0,0-13.506-6.348-33.629,2.365,0,0-18.907-6.618-33.291-2.9,0,0-8.373-14.518-20.19-8.576-11.817,6.011-5.672,19.854-3.579,23.433,0,0-19.582,19.919-12.221,44.567l3.916-4.93s5.606,26.808,20.123,35.317l.878-6.618s15.126,18.232,32.953,26c1.689.811,11.143,5.47,11.412,7.766V1414.3s-12.357,1.013-15.6-4.659c-2.229-3.85-16.409-29.172-9.386-55.71,0,0-6.82-1.012-8.1-12.559a23.8,23.8,0,0,0-11.412-1.959s11.345-3.579,21.946.54,13.437,14.586,20.663,9.927l1.958-29.441,2.161,29.441c7.158,4.592,10.062-5.808,20.663-9.927s21.946-.54,21.946-.54a34.155,34.155,0,0,0-11.817-4.659c-6.077-1.216-14.99,2.7-14.99,2.7s1.215-8.373,5.266-12.83C842.173,1320.979,850.006,1320.1,852.436,1312.606Zm-91.5,10.2c-.405-3.984,4.659-7.968,4.659-7.968-2.093-2.161-5.739-.271-5.739-.271,3.309-6.482,10.736-3.308,10.736-3.308-2.836-3.445-8.778-3.241-8.778-3.241,7.36-7.293,16.274,3.849,16.274,3.849C770.122,1313.619,760.938,1322.8,760.938,1322.8Z" transform="translate(1.838 1.894)"/><path class="d" d="M791.882,1341.672c-1.149-.338-3.039.811-4.052,2.836-3.512-1.013-4.726-4.794-4.592-8.44h0a52.351,52.351,0,0,1,8.644,5.6" transform="translate(10.533 9.967)"/><path class="d" d="M819.311,1344.563c-1.08-2.161-3.105-3.309-4.254-2.769a32.27,32.27,0,0,1,8.778-5.672h0c.2,3.646-1.08,7.427-4.524,8.44" transform="translate(17.677 9.979)"/></g><rect class="e" width="200" height="200"/></svg>