<svg xmlns="http://www.w3.org/2000/svg" width="200" height="200" viewBox="0 0 200 200"><defs><style>.a{fill:#ff3c00;}.b{fill:#311d00;}.c{fill:#fff;}.d,.e{fill:none;}.e{mix-blend-mode:multiply;isolation:isolate;}</style></defs><g transform="translate(-388.648 -848.564)"><path class="a" d="M500.785,973.025c2.149,2.283,5.306,5.507,7.69,7.791a28.17,28.17,0,0,1,.034-10.209,19.009,19.009,0,0,1,2.25-5.776l-2.015-4.466c-.47.671-1.276,1.947-2.082,3.19.034,0-2.854,4.634-5.876,9.47Z" transform="translate(-19.791 -15.647)"/><path class="a" d="M506.383,992.935a26.481,26.481,0,0,1-5.977-4.869c-.033-.034-3.358-3.19-6.245-6.078-1.444,2.351-2.418,3.929-3.023,4.869l6.414,4.231c1.376.907,2.921,1.981,2.989,4,.067,2.081-1.747,4.5-2.317,5.271-.739,1.008-3.123,3.828-6.246,1.847,0,0-4.5-2.787-7.656-4.667l-2.451,3.593c2.317.37,14.944,2.385,25.286,4.03-.537-4-1.847-7.656-2.653-10.847a48.87,48.87,0,0,1,3.66,10.98c.706.1,1.41.236,2.082.337-.2-1.075-.436-2.015-.638-2.855-.336-1.712-1.847-5.373-3.224-9.839Z" transform="translate(-15.887 -20.11)"/><path class="a" d="M522.086,953.979a27.983,27.983,0,0,1,11.82-3.828c-.033,0,1.444-.2,1.444-.2,1.007-.134,2.888-.537,3.458-1.544a4.372,4.372,0,0,0,.4-2.216,107.6,107.6,0,0,0-18.4,5.172,24.3,24.3,0,0,0-5,2.686c.436.974.974,2.149,1.578,3.492a22.429,22.429,0,0,1,4.063-3.123,7.624,7.624,0,0,1,.638-.437Z" transform="translate(-22.892 -12.72)"/><path class="b" d="M474.029,1034.6c-6.212-.268-13.5-2.854-18.738-5.541-2.552-1.478-8.63-4.668-11.081-4.8,2.787.6,8.63,3.9,10.712,5.273,4.5,2.451,12.055,5.876,19.107,6.145,16.958,1.074,26.428-8.16,26.931-17.7-.471-.067-.94-.167-1.411-.235-1.377,12.123-14.2,17.9-25.521,16.857Z" transform="translate(-8.113 -27.491)"/><path class="b" d="M513.128,1008.372c.336.068.672.1,1.008.168a48.33,48.33,0,0,0-3.661-10.981C511.248,1000.716,512.557,1004.377,513.128,1008.372Z" transform="translate(-21.792 -23.325)"/><path class="b" d="M463.884,989.731a6.515,6.515,0,0,0-4.734,1.948c-2.754,2.82-2.552,7.656.436,10.779a8.013,8.013,0,0,0,5.642,2.552,6.547,6.547,0,0,0,2.149-.336l4.534-6.716a8.442,8.442,0,0,0-2.385-5.676,7.875,7.875,0,0,0-5.642-2.552Z" transform="translate(-10.796 -21.709)"/><path class="b" d="M453.646,1014.7c6.347,8.16,17.563,8.194,23.2,2.216C474.466,1018.089,464.425,1024.671,453.646,1014.7Z" transform="translate(-10.061 -26.862)"/><path class="b" d="M492.246,1021.335a2.175,2.175,0,0,0,1.981,1.309,2.107,2.107,0,0,0,1.578-.7,3.317,3.317,0,0,0,2.048-3.089,3.358,3.358,0,1,0-5.607,2.485Zm1.981.907a1.864,1.864,0,0,1-1.847-1.847,1.842,1.842,0,0,1,1.847-1.847,1.864,1.864,0,0,1,1.847,1.847A1.887,1.887,0,0,1,494.226,1022.242Zm1.444-3.727a2.017,2.017,0,0,0-2.351-.3c-.3.2-.638-.068-.235-.471a1.977,1.977,0,0,1,2.854.337C496.275,1018.582,495.939,1018.917,495.671,1018.515Zm-1.074-2.451a2.756,2.756,0,0,1,1.881,4.7c.806-1.712.134-3.862-1.948-3.962a2.516,2.516,0,0,0-2.518,3.224c-.739-.671-.5-3.929,2.585-3.962Z" transform="translate(-17.8 -27.02)"/><path class="c" d="M493.544,1018.217c-.4.4-.067.638.235.471a2.072,2.072,0,0,1,2.351.3c.268.4.6.067.268-.436A1.977,1.977,0,0,0,493.544,1018.217Z" transform="translate(-18.258 -27.495)"/><path class="c" d="M494.666,1016.96c2.082.1,2.754,2.25,1.948,3.962a2.764,2.764,0,0,0-1.881-4.7c-3.056,0-3.324,3.291-2.585,3.962a2.52,2.52,0,0,1,2.518-3.224Z" transform="translate(-17.937 -27.177)"/><path class="c" d="M496.354,1021.2a1.841,1.841,0,0,0-1.847-1.847,1.863,1.863,0,0,0-1.847,1.847,1.821,1.821,0,0,0,1.847,1.847A1.841,1.841,0,0,0,496.354,1021.2Zm-1.847,1.444a1.469,1.469,0,0,1-1.478-1.478,1.491,1.491,0,0,1,1.478-1.478,1.469,1.469,0,0,1,1.478,1.478A1.49,1.49,0,0,1,494.508,1022.643Z" transform="translate(-18.114 -27.823)"/><path class="b" d="M494.6,1019.817a1.469,1.469,0,0,0-1.478,1.478,1.491,1.491,0,0,0,1.478,1.478,1.478,1.478,0,0,0,0-2.955Zm-1.074,1.512c.033-.2.134-.1.168.033a1.252,1.252,0,0,0,1.847.2c.168-.235.168.1.168.1A1.133,1.133,0,0,1,493.529,1021.329Z" transform="translate(-18.21 -27.919)"/><path class="c" d="M495.648,1021.927a1.227,1.227,0,0,1-1.847-.2c-.034-.134-.135-.235-.168-.033a1.133,1.133,0,0,0,2.183.336S495.816,1021.692,495.648,1021.927Z" transform="translate(-18.314 -28.283)"/><path class="b" d="M456.42,1021.482a3.078,3.078,0,0,0-1.041,2.954,2.47,2.47,0,0,0,.638,2.653,2.31,2.31,0,0,0,2.754.672,2.423,2.423,0,0,0,1.813-.5c1.209-1.008,1.276-2.988.168-4.567-1.108-1.544-3.056-2.116-4.332-1.209Zm-.2,5.339a1.61,1.61,0,1,1,2.552.437A1.844,1.844,0,0,1,456.218,1026.821Zm3.023-2.015a2.633,2.633,0,0,0-1.344-1.175c-.4-.067-.268-.739.235-.571a3.338,3.338,0,0,1,1.344,1.04C459.912,1024.874,459.442,1025.243,459.241,1024.807Zm.537,2.317c2.25-2.922-2.116-6.314-3.862-3.627C457.393,1019.1,463.17,1024.638,459.778,1027.124Z" transform="translate(-10.383 -28.173)"/><path class="c" d="M458.77,1023.619c-.5-.168-.638.5-.235.571a2.637,2.637,0,0,1,1.344,1.175c.2.4.671.034.235-.7A3.527,3.527,0,0,0,458.77,1023.619Z" transform="translate(-11.021 -28.698)"/><path class="c" d="M456.143,1023.706c1.713-2.72,6.111.7,3.862,3.627C463.363,1024.847,457.587,1019.307,456.143,1023.706Z" transform="translate(-10.576 -28.382)"/><path class="c" d="M458.554,1025.456a1.61,1.61,0,1,0-2.25,2.116,1.844,1.844,0,0,0,2.552.437,1.879,1.879,0,0,0-.3-2.552Zm-.033,2.384c-.5.37-1.377.067-2.015-.5a1.479,1.479,0,0,1-.268-2.049c.537-.5,1.478-.2,2.015.47C458.722,1026.229,459.125,1027.4,458.521,1027.84Z" transform="translate(-10.469 -28.924)"/><path class="b" d="M456.318,1025.337a1.475,1.475,0,0,0,.268,2.048c.638.571,1.511.907,2.015.5.6-.436.2-1.612-.268-2.116-.537-.638-1.478-.94-2.015-.437Zm1.847,2.317c-1.041.1-1.982-1.175-1.612-1.747,0,0,.3-.4.336-.033a2,2,0,0,0,1.377,1.444c.168.067.2.3-.1.336Z" transform="translate(-10.55 -29.007)"/><path class="c" d="M457,1026.039c-.067-.369-.336.033-.336.033-.4.571.571,1.847,1.612,1.747.3-.068.269-.3.1-.336a2,2,0,0,1-1.377-1.444Z" transform="translate(-10.665 -29.171)"/><path class="c" d="M443.957,1029.572c.2-.134.436-.3.6-.437-2.888-1.847-6.447-3.056-12.257-1.108a.793.793,0,0,1-.268.067,20.152,20.152,0,0,1,4.533-.5,12.378,12.378,0,0,1,5.944,1.678l-1.074.572a32.743,32.743,0,0,1-11.753,3.324c-2.385.167-1.914-1.209-.37-2.015a3.768,3.768,0,0,0,1.914-2.787c-.268.134-.268.067-.638.134h-.033c-.5,3.727-7.825,3.358-7.018-1.746,0,0-1.041-2.149-1.645-3.425a2.881,2.881,0,0,1-.067-.806s1.78,2.888,2.519,3.828c-.974,3.458,4.1,4.9,5.44,2.317-4.466.84-4.634-1.444-4.567-2.216-.034-.1-.067-.235-.1-.37a54,54,0,0,1-6.179-9.436c-.4,3.089,3.089,10.208,3.392,10.913l.3.739c-1.041,2.922,1.981,6.75,7.421,5.843C435.36,1033.669,441.4,1031.419,443.957,1029.572Z" transform="translate(-2.89 -27.264)"/><path class="b" d="M546.123,1020.958s-.336.067-.907.135l.336.7c.235.436.471.873.739,1.276a15.772,15.772,0,0,0,1.646-2.283C547.332,1020.858,546.727,1020.925,546.123,1020.958Z" transform="translate(-28.963 -28.12)"/><path class="b" d="M549.458,998.886a28.729,28.729,0,0,1-.772,11.989c.772-.067,1.544-.168,2.317-.236a28.532,28.532,0,0,0,.906-5.742v-.538l17.394,2.955s-1.141-2.585-1.444-3.458l-15.984-2.754a2.563,2.563,0,0,0-.033-.5c-.034-.638-.1-1.309-.2-1.981-.706.134-1.444.2-2.183.268Z" transform="translate(-29.679 -23.543)"/><path class="b" d="M512.76,995.782c1.344,4.466,2.889,8.16,3.258,9.873.168.84.4,1.78.638,2.855.907.134,1.813.3,2.653.436a2.559,2.559,0,0,0-.033-.5,20.043,20.043,0,0,0,6.414-8.8l-.2-.436a1.887,1.887,0,0,1-.436-.034,28.228,28.228,0,0,1-9.84-2.116c.874,3.291,1.747,6.481,2.251,9.436-.6-2.552-2.015-6.011-3.291-9.906-.471-.3-.94-.537-1.411-.806Z" transform="translate(-22.263 -22.958)"/><path class="b" d="M510.359,981.977c.37.336.705.671,1.041.974.1.067.168.134.269.2-1.041-5.273-1.075-10.847,1.612-15.85l-.6-1.309a19.011,19.011,0,0,0-2.25,5.776,27.437,27.437,0,0,0-.068,10.209Z" transform="translate(-21.676 -16.808)"/><path class="c" d="M547.032,976.817c-1.041-4.9.067-14,3.627-16.622C545.555,960.833,544.144,973.628,547.032,976.817Z" transform="translate(-29.033 -15.612)"/><path class="b" d="M523.159,988.424l-8.8-19.342c-2.015,5.1-1.713,10.477-.7,15.749a18.571,18.571,0,0,0,9.5,3.593Z" transform="translate(-22.286 -17.446)"/><path class="c" d="M585.841,1000.289a121.718,121.718,0,0,0-7.119-32.17l-.47-1.142c-1.008-2.619-2.821-3.123-5.709-2.753l-2.485.268c-5.071.436-13.265,1.309-20.047.134l-9.268-21.961h-.236a2.632,2.632,0,0,0-.537.067c2.519,5.977,10.779,25.555,10.779,25.555a29.565,29.565,0,0,1-3.324.4l-10.443-24.513a5.363,5.363,0,0,0-.537.637.97.97,0,0,1-.1.135s3.492,8.328,7.421,17.663a6.8,6.8,0,0,1-1.142-.7,32.989,32.989,0,0,1-9.637-9.537,1.026,1.026,0,0,0-.067.236c-.033.167-.1.47-.167.839a29.014,29.014,0,0,0,11.551,10.41l1.645,4.03c-6.581-1.914-12.088-7.891-13.634-9.671v.94a29.786,29.786,0,0,0,13.835,9.839c-3.862.5-8.093.975-12.089,1.411-.772.067-1.511.167-2.25.235a39.171,39.171,0,0,0-1.847-5.507c-3.727-8.8-13.9-4.769-13.163.537-3.089-6.85-6.246-13.8-8.6-19.006a29.814,29.814,0,0,1,5.709-4.769,16.177,16.177,0,0,0-3.727,2.351,25.43,25.43,0,0,0-2.216,1.947c-.168-.4-.336-.772-.5-1.141-.6-1.344-1.141-2.519-1.578-3.493a24.317,24.317,0,0,1,5-2.686,110.8,110.8,0,0,1,18.4-5.172c.336-.067.705-.134,1.041-.2.2,3.123-1.377,4.3-4.1,4.869-1.779.369-3.223.436-3.928.671l1.679.068a14.646,14.646,0,0,0,4.534-.907c1.679-.638,2.955-1.779,2.418-4.835a8.031,8.031,0,0,1,.873-.168c.47,2.922.033,5.709-5.608,6.28.974.672,9.738-.974,15.044.236.135.067,2.35.805-.2,1.914,4.9-1.075,5.172-5.978,4.231-9.6l.2.034a16.933,16.933,0,0,1,2.317.3c.47.067,1.04.1,1.645.2,3.66.369,3.324-3.963,1.41-4.5a12.761,12.761,0,0,0-2.216-.5l-.5-.067-4.567-10.175,2.519-1.175,6.514,11.754c3.022,4.8-1.982,6.783-4.769,5.339a3.63,3.63,0,0,0-.84.571,5.019,5.019,0,0,0,2.854.84,4.631,4.631,0,0,0,4.164-2.182c.537-.974.873-2.653-.6-5l-6.85-12.526-5.541,2.451a1.211,1.211,0,0,1,.907.6l.974-.4,4.3,9.671c-.537-.1-1.982-.235-2.351-.269l-1.075-.033c-.94-2.855-2.149-6.514-2.989-8.663a9.9,9.9,0,0,0-1.545-.135c0,.034.034.034.034.067.638,1.209,2.619,7.321,3.291,9a9.764,9.764,0,0,1,.839,3.627l-4.265-.067a13.338,13.338,0,0,0-1.242-3.593l-1.578-3.19-.436-.906-1.646-3.459a8.783,8.783,0,0,1-.571-1.914,1.9,1.9,0,0,1,1.982-2.25,3.476,3.476,0,0,1,2.989,1.747h.6a42.487,42.487,0,0,0-2.954-4.9c-16.521-23.574-44.024-30.525-68.2-24.648,30.658-4.5,54.064,8.7,65.75,28.442-.975.471-2.586,1.309-3.358,1.713-.336,0-1.578-.033-2.015,0-.739.068-1.41.1-.906,1.813a23.765,23.765,0,0,0,.805,2.385c.336.94,1.444,3.827,2.284,6.245-.269.067-.571.1-.84.168-.134-.437-.3-.873-.5-1.377-.94-2.418-2.116-5.574-2.451-6.649a4.378,4.378,0,0,1-.134-2.518s-1.175.906-.134,3.358l2.619,7.253c-.369.068-.705.135-1.075.2-7.959,1.578-15.715,3.694-20.081,5.541a22.249,22.249,0,0,0-5.608,3.089c-.1.067-.134.135-.134.168a3.29,3.29,0,0,0-1.713,1.209,15.588,15.588,0,0,0-1.411,1.243c-.906,1.075-1.712,1.981-2.753,3.425-.907,1.344-4.131,6.447-6.985,11.082a2.942,2.942,0,0,0-.705.4,2.89,2.89,0,0,0-1.074,2.686c-2.316,3.795-3.693,5.977-4.265,6.884a2.512,2.512,0,0,0-1.981,1.242,55.561,55.561,0,0,1-3.459,5.575,3.219,3.219,0,0,0-.6,2.551l-.236.437-5.372,8.025a1.962,1.962,0,0,0-.2,2.082,3.239,3.239,0,0,0,2.686,1.713,2.387,2.387,0,0,0,1.612-.437c2.183.37,17.26,2.888,28.611,4.769.47.068.94.168,1.41.235.772.135,1.511.269,2.25.37q.957.151,1.813.3a23.5,23.5,0,0,1-2.351,8.663l.5.067c7.891.638,13.533-.773,17.428-3.392.336.638.706,1.242,1.075,1.847,3.794,6.045,9.57,10.04,17.159,12.055a47.316,47.316,0,0,0,25.084-.638,2.893,2.893,0,0,0,2.653-.134,1.954,1.954,0,0,0,.5-.37c9.2-2.082,10.745-2.854,11.316-3.358a.742.742,0,0,0,.167-.1c2.519-1.41,2.385-5.44,2.385-5.642Zm-13.23-2.116a95.719,95.719,0,0,0-1.847-11.384c2.116-.4,6.045-1.377,7.455-1.746l.1.6c.739,4,1.847,10.04,2.284,13.734a2.486,2.486,0,0,1-.067.906,9.074,9.074,0,0,0-1.377-.168,27.7,27.7,0,0,1-6.548-1.947Zm.369-28.879h.2a55.118,55.118,0,0,1,2.182,6.548l.706,2.82a57.47,57.47,0,0,1-7.119,1.109c-.974-3.19-2.048-6.213-3.156-8.9,5.473-.772,7.186-1.578,7.186-1.578Zm5.641,14.641s-1.41.7-7.858,1.88c0,0-.537-2.015-.772-3.055a76.614,76.614,0,0,0,7.589-1.948s-.033-.7-1.108-.7c0,0-5.541,1.41-6.817,1.511l-.3-.84s4.735-.907,6.347-1.276c0,0,3.358-1.142,4.1,1.41,0,0,.739,2.216-1.175,3.023Zm-.772-15.145c4.3,12.022,7.622,28.477,6.649,34.185,0-.739-1.142-2.081-3.089-2.485a16.126,16.126,0,0,0-.033-1.679c-.5-4.969-2.284-13.969-2.284-13.969,2.754-.906,2.519-6.548-2.182-6.514a66.536,66.536,0,0,0-2.787-9.2c2.552-1.411,1.377-3.762-.034-4.2C574.122,964.9,576.674,964.358,577.849,968.791Zm-4.768-3.358a1.472,1.472,0,0,1,1.344,1.377,1.417,1.417,0,0,1-1.209,1.478l-.4.1c-1.008.3-2.989.772-5,1.175a22.753,22.753,0,0,1-2.284.4c-.268-.571-.437-1.176-1.209-2.653A67.034,67.034,0,0,0,571.3,965.8a15.191,15.191,0,0,1,1.78-.369Zm-4.3.033a43.488,43.488,0,0,1-5.172.907,2.225,2.225,0,0,0-1.309-.537h0C563.947,965.937,568.783,965.466,568.783,965.466Zm-8.966.6a1.109,1.109,0,0,0-.975.974c-2.182.537-7.253,1.108-7.253,1.108l-1.04-2.384a41.438,41.438,0,0,0,9.268.3Zm-9.436-37.307h.068c.638.1,1.007.906.974,1.612a1.328,1.328,0,0,1-1.511,1.209c-1.142-.235-4.131-.537-5.642-.671a10.381,10.381,0,0,0-.773-3.123,67.622,67.622,0,0,1,6.884.974Zm-11.417,3.526s2.552,0,3.861.033c0,0-.974,1.813-5,1.511C537.822,933.834,538.9,933.1,538.964,932.289Zm-7.052-14.54,1.108-.571s.1-.067.1-.033a.919.919,0,0,0-.033.4c-.034.369,0,.571.4,1.678.637,1.747,4.029,8.731,4.4,9.772,1.947,5.071-3.089,6.01-3.627,3.761,5.372-.4,3.19-6.011.134-5.238-1.175-2.854-2.082-5.742-2.082-5.742s-1.209-3.055-.4-4.029Zm-.471,4.13,2.082,5.843-1.109.2s-1.343-3.761-2.216-6.347a4.169,4.169,0,0,1-.168-2.921l1.008-.47a7.3,7.3,0,0,0,.4,3.693Zm-23.17,13.4c5.407-2.25,16.589-5.138,26.293-6.716a1.791,1.791,0,0,1,2.015,1.309c.1.672-.236,1.444-1.512,1.646l-.6.1c-7.757,1.544-16.521,3.291-23.875,6.28a16.836,16.836,0,0,0-4.836,2.518s-.7-1.544-.974-2.015c-.4-.739-.47-.806-.806-.974A33.837,33.837,0,0,1,508.271,935.278Zm-6.985,4.231a2.166,2.166,0,0,1,1.78-1.075,1.69,1.69,0,0,1,.772.167l14.843,32.875a17.227,17.227,0,0,1-3.661-.236c-6.313-13.834-13.734-30.054-13.734-30.088a1.469,1.469,0,0,1,0-1.645Zm2.754,9.939.6,1.31c-2.653,5-2.62,10.544-1.612,15.85-.1-.067-.168-.134-.269-.2-.3-.3-.671-.638-1.041-.974-2.384-2.283-5.541-5.507-7.69-7.79,2.989-4.836,5.876-9.47,5.876-9.47.773-1.243,1.613-2.485,2.082-3.19Zm1.074,2.418,8.8,19.342a18.934,18.934,0,0,1-9.47-3.593C503.4,962.344,503.1,956.971,505.114,951.867Zm-7.857-7.858a46.83,46.83,0,0,1,2.954-3.929,3.49,3.49,0,0,0,.37,1.679c.336.7,1.041,2.418,1.041,2.418.1-.1-1.578,1.981-2.485,3.458L493.5,956.9l-1.511-1.679s-.638-.772-1.243-.772c2.889-4.835,5.575-9.1,6.515-10.443Zm8.73,30.289a29.02,29.02,0,0,0,9.84,2.116c.134,0,.268.033.436.033l.2.436a19.362,19.362,0,0,1-6.414,8.8c0,.168.033.336.033.5-.84-.135-1.746-.269-2.653-.436-.671-.1-1.377-.2-2.082-.336-.336-.067-.671-.1-1.007-.167-10.343-1.646-22.969-3.66-25.286-4.03l2.451-3.593c3.156,1.881,7.656,4.668,7.656,4.668,3.089,1.982,5.473-.873,6.245-1.847.571-.772,2.385-3.19,2.317-5.273-.067-2.015-1.612-3.089-2.989-4l-6.414-4.231c.6-.974,1.544-2.518,3.022-4.869,2.888,2.889,6.212,6.045,6.246,6.079a25.4,25.4,0,0,0,5.977,4.869c.47.269.94.537,1.41.772,1.276,3.9,2.686,7.354,3.291,9.906-.5-2.954-1.41-6.145-2.284-9.4Zm51.344,9.839a27.884,27.884,0,0,1-3.223.638c-.638-1.209-4.7-11.148-4.7-11.148.47-.068,3.19-.5,3.19-.5a115.291,115.291,0,0,0,4.734,11.014Zm.806-.235-1.209-2.82c4.1.067,7.018.033,7.018.033A1.326,1.326,0,0,1,562.738,983Zm-1.578-3.693-3.089-7.354c2.082-.336,4-.638,5.709-.974h.067a1.174,1.174,0,0,1,1.679.773v.067c.671,1.747,1.947,5.474,2.585,7.422-2.619.1-5.07.1-6.951.067Zm-5.608-.437-15.715-2.754v.268a2.558,2.558,0,0,0,.033.5l15.984,2.754c.3.873,1.444,3.458,1.444,3.458L535.3,981.048v.806l17.159,2.921c-5.709.975-11.653,1.881-18.033,2.552-.772.067-1.544.168-2.316.236a29.307,29.307,0,0,0,.772-11.988c.739-.067,1.478-.167,2.216-.235,4.432-.5,9.032-1.074,13.331-1.712.873,2.216,1.746,4.3,2.518,6.145ZM526.17,988.1a14.648,14.648,0,0,1-3.694.067c-1.108-2.081-2.317-4.9-5.407-11.652a17.243,17.243,0,0,0,3.694.033Zm-31.834-15.111c-1.41-.94-6.883-4.6-6.883-4.6l.571-.571c2.485,1.578,5.708,3.727,7.119,4.8a3.165,3.165,0,0,1,1.141,4.2c.269-1.344-.336-2.72-1.947-3.828Zm-10.443-7.421.033-.067c.067-.1.907-1.512,4.131-6.75a22,22,0,0,0,2.519,2.754l-3.929,6.212c-.537.4-1.645,0-2.317-.671-.134-.134-.906-.94-.436-1.478Zm-1.243.3c-.1,1.847,2.72,3.324,4.064,2.989l7.186,4.8a3.31,3.31,0,0,1,1.511,3.9c-.1-1.679-2.182-2.989-2.182-2.989s-7.724-4.534-10.074-6.011C481.81,967.649,481.944,966.474,482.649,965.869Zm-3.593,5.709c1.41-2.015,2.116-3.157,2.417-3.661a3.436,3.436,0,0,0,1.243,1.209c2.384,1.511,7.387,4.533,8.832,5.339a7.9,7.9,0,0,1,1.881,1.276,3.205,3.205,0,0,1,.571,4.6c-1.007,1.343-2.921,2.182-4.5,1.142l-2.149-1.344-.773-.47-6.716-4.131H479.8A2.791,2.791,0,0,1,478.385,974,3.1,3.1,0,0,1,479.057,971.578Zm-4.668,13.533a2.3,2.3,0,0,1-1.881-1.175,1.04,1.04,0,0,1,.135-1.109l5.1-7.824a15.025,15.025,0,0,0,2.889,2.149c-1.075,1.612-4.937,7.321-4.937,7.321A1.275,1.275,0,0,1,474.389,985.111Zm94.259,23.775s.034.1-1.242.537a47.955,47.955,0,0,1-23.472.268c-6.448-1.712-14.1-5.44-18.336-14.842a10.506,10.506,0,0,1-.671-1.511s2.183.033,3.593-.068c6.582,14.1,23.573,16.723,38.114,13a4.347,4.347,0,0,0,1.713-.638,8.882,8.882,0,0,0,.268-2.485c-.033-.4-.369-9.1-1.947-14.876a2.407,2.407,0,0,0-.5-1.141,3.773,3.773,0,0,0-.739-.2,8.416,8.416,0,0,0-1.813.2c-8.966,2.149-22.868,3.895-33.815,5-.033,0-.873.135-2.351.2l-1.175.034a49.6,49.6,0,0,1-8.731-.705s-40.867-6.649-40.7-6.649l2.182-2.989s39.322,6.447,39.356,6.447c6.011.907,8.8.471,8.865.436,10.611-.6,30.188-3.493,34.924-4.769a14.162,14.162,0,0,0,2.888-.94c.2-.2-.336-2.149-.336-2.149-.034-.067-1.948-6.347-2.889-8.765v.067c-.033-.1-.436-1.444-.873-1.646h-.336s-.571.1-1.243.269c-9.234,1.679-26.125,4.03-36.031,4.634.874-.067-4,.168-7.791-.1a23.524,23.524,0,0,1-17.327-8.093c-.067-.067-6.649-6.347-9.3-9.235a1.814,1.814,0,0,1,.37-2.519,1.5,1.5,0,0,1,2.015.067c1.175,1.544,7.824,8.429,11.115,11.518,3.66,2.855,6.28,4.332,11.351,4.9,2.753.336,6.011.269,6.179.3,6.716.167,31.162-2.821,38.348-4.231a7.732,7.732,0,0,0,1.444-.336v-.134l.033-.3c0-.1.436-.437.772-.6a2.147,2.147,0,0,1,2.284.3c5.138,9.436,10.174,27,9.033,40.263a1.793,1.793,0,0,1-.874,1.544,2.626,2.626,0,0,1-2.35-.067Zm-12.323-19.174c.671-.134,3.425-.739,3.425-.739a31.528,31.528,0,0,0,7.622,7.556c.135,1.108.236,3.895.236,3.895a28.5,28.5,0,0,1-11.283-10.712Zm4.466-1.041q2.266-.454,4.231-.907c.336-.1.471,0,.5.034a1.119,1.119,0,0,1,.336.739v.1A45.613,45.613,0,0,1,567,994.95,27.538,27.538,0,0,1,560.791,988.67Zm6.85,12.895c.1,1.276.134,2.082.134,2.116a1.593,1.593,0,0,1-.671,1.478c-13.465,3.66-29.449,1.779-36.669-9.974-.269-.4-.5-.84-.739-1.276l-.336-.7c.571-.068.906-.135.906-.135.6-.067,1.209-.134,1.847-.2,7.219-.772,15.816-1.914,23.271-3.19a26.948,26.948,0,0,0,12.257,11.888Zm5.171,6.85a17.739,17.739,0,0,0,.236-3.492c10.779-2.317.537-3.291.537-3.291,2.384.739,2.316,1.578,2.316,1.578a11.067,11.067,0,0,1-2.854-.47c.067-.671-.135-3.425-.135-3.425,2.788,1.209,3.258.873,6.146,1.511,2.989.671,1.511,1.881,1.511,1.881-1.511,1.88-7.119,2.686-7.119,2.686,9.369-1.208,8.53-3.795,8.53-3.795,3.827,2.486.067,4.265-1.881,4.8-1.679.571-7.287,2.015-7.287,2.015Z" transform="translate(-13.039 -0.231)"/><path class="c" d="M491.5,1001.272a5.222,5.222,0,0,0,.336.739,2.6,2.6,0,0,0,.94.974c2.821,1.679,4.365-.47,4.4-.47a2.652,2.652,0,0,0-.571-3.56,3.732,3.732,0,0,0-2.754-.873,3.221,3.221,0,0,0-3.324-2.384,2.464,2.464,0,0,0-2.519,1.713,2.935,2.935,0,0,0,.236,2.384,2.867,2.867,0,0,0,3.257,1.478Zm2.486-2.72c2.115-.067,3.761,2.048,2.686,3.593l-.37.067c-1.847.235-2.888-.5-3.19-2.116a2.325,2.325,0,0,0,.874-1.544Zm-2.451-2.25a2.322,2.322,0,0,1,1.746,2.182h.134a1.866,1.866,0,0,1-2.283,1.41,4.226,4.226,0,0,1-.1-.94,1.569,1.569,0,0,0,.806.1c0-.134.034-.436.034-.436a3.917,3.917,0,0,1-.84-.235,4.327,4.327,0,0,1,.5-2.081Zm-2.451.47a1.909,1.909,0,0,1,1.544-.537,3.983,3.983,0,0,0-.436,1.881c-.134-.135-.269-.135-.4-.269v.5c.1.167.235.2.436.336a4.9,4.9,0,0,0,.1,1.074,1.16,1.16,0,0,1-.268-.168c-1.478-.839-.974-2.82-.974-2.82Zm-.538.638c-.235,3.056,2.552,3.492,4.1,2.921.336,2.451,2.485,2.519,3.526,2.351a2.914,2.914,0,0,1-4.265-2.048C489.922,1001.238,487.707,999.66,488.545,997.41Z" transform="translate(-17.122 -22.94)"/><g transform="translate(459.366 915.906)"><path class="b" d="M554.577,929.07a3.448,3.448,0,0,1-1.411-2.854C554.61,926.216,555.013,928.332,554.577,929.07Z" transform="translate(-489.967 -924.503)"/><path class="b" d="M556.5,934.065a3.775,3.775,0,0,1-1.175-2.686A1.807,1.807,0,0,1,556.5,934.065Z" transform="translate(-490.417 -925.569)"/><path class="b" d="M548.847,930s.907,2.854,2.082,5.742c3.056-.806,5.205,4.8-.134,5.238.537,2.25,5.574,1.309,3.627-3.761-.4-1.007-3.761-8.026-4.4-9.771-.4-1.109-.437-1.31-.4-1.679a2.115,2.115,0,0,1,.033-.4l-.1.033-1.108.571c-.806.94.4,4.03.4,4.03Z" transform="translate(-488.939 -924.329)"/><path class="b" d="M546.146,927.11a4.2,4.2,0,0,0,.168,2.921c.839,2.586,2.216,6.347,2.216,6.347l1.108-.2-2.082-5.843a6.931,6.931,0,0,1-.4-3.693Z" transform="translate(-488.487 -924.591)"/><path class="b" d="M560.959,944.4c-1.309-.033-3.861-.033-3.861-.033-.067.805-1.175,1.544-1.175,1.544C560.018,946.217,560.959,944.4,560.959,944.4Z" transform="translate(-490.54 -928.251)"/><path class="b" d="M497.821,969.365l1.511,1.679,5.642-9.268c.94-1.478,2.619-3.559,2.485-3.458,0,0-.7-1.747-1.041-2.418a3.484,3.484,0,0,1-.369-1.679,46.762,46.762,0,0,0-2.955,3.929c-.906,1.377-3.627,5.641-6.582,10.444.638-.033,1.31.772,1.31.772Z" transform="translate(-478.276 -930.277)"/><path class="b" d="M593.293,986.219s-4.836.471-6.481.37a2.3,2.3,0,0,1,1.309.537A43.492,43.492,0,0,0,593.293,986.219Z" transform="translate(-496.916 -936.89)"/><path class="b" d="M586.8,986.685h0Z" transform="translate(-496.907 -936.986)"/><path class="b" d="M587.017,1005.929s-2.955.033-7.018-.033l1.209,2.82,4.6-.906a1.316,1.316,0,0,0,1.209-1.881Z" transform="translate(-495.51 -940.952)"/><path class="b" d="M573.753,995.867s-2.72.437-3.19.5c0,0,4.063,9.939,4.7,11.148a27.884,27.884,0,0,0,3.223-.638,115.268,115.268,0,0,1-4.734-11.014Z" transform="translate(-493.562 -938.881)"/><path class="b" d="M582.705,1015.84s-2.754.6-3.425.739a28.709,28.709,0,0,0,11.283,10.746s-.1-2.821-.236-3.9a32.781,32.781,0,0,1-7.622-7.589Z" transform="translate(-495.361 -943.004)"/><path class="b" d="M609.266,1031.241s.84,2.552-8.529,3.795c0,0,5.607-.806,7.119-2.687,0,0,1.443-1.209-1.512-1.88-2.888-.638-3.358-.3-6.144-1.511,0,0,.167,2.753.134,3.425a11.062,11.062,0,0,0,2.854.47s.067-.839-2.317-1.578c0,0,10.242.974-.537,3.291a17.709,17.709,0,0,1-.235,3.492s5.574-1.478,7.321-1.948c1.913-.6,5.708-2.385,1.847-4.869Z" transform="translate(-499.659 -945.712)"/><path class="b" d="M529.856,1000.141c3.089,6.784,4.3,9.6,5.406,11.652a16.948,16.948,0,0,0,3.694-.067l-5.372-11.552A21.032,21.032,0,0,1,529.856,1000.141Z" transform="translate(-485.159 -939.764)"/><path class="b" d="M523.6,984.921a17.264,17.264,0,0,0,3.661.235l-14.843-32.875a1.686,1.686,0,0,0-.772-.168,2.344,2.344,0,0,0-1.78,1.074,1.55,1.55,0,0,0,0,1.613c0,.067,7.388,16.286,13.734,30.121Z" transform="translate(-480.986 -929.849)"/><path class="b" d="M574.194,1025.559c1.175-13.264-3.9-30.826-9.033-40.263a2.148,2.148,0,0,0-2.283-.3c-.336.167-.772.5-.772.6l-.034.3v.134a7.729,7.729,0,0,1-1.443.336c-7.187,1.411-31.633,4.4-38.349,4.231a55.044,55.044,0,0,1-6.179-.3c-5.1-.571-7.724-2.048-11.35-4.9-3.291-3.089-9.939-9.94-11.115-11.518a1.5,1.5,0,0,0-2.015-.067,1.782,1.782,0,0,0-.369,2.518c2.653,2.888,9.234,9.167,9.3,9.235a23.525,23.525,0,0,0,17.328,8.093c3.794.268,8.663.033,7.791.1,9.906-.6,26.8-2.955,36.031-4.635.7-.167,1.242-.268,1.242-.268h.336c.436.2.839,1.544.873,1.645v-.067c.974,2.417,2.888,8.7,2.888,8.764,0,0,.537,1.914.336,2.149a14.171,14.171,0,0,1-2.888.94c-4.734,1.276-24.345,4.164-34.924,4.769a33.907,33.907,0,0,1-8.865-.437l-39.356-6.447-2.183,2.989c-.167,0,40.7,6.649,40.7,6.649a53.358,53.358,0,0,0,8.731.705l1.175-.033c1.478-.067,2.317-.2,2.35-.2,10.947-1.109,24.849-2.888,33.816-5a11.131,11.131,0,0,1,1.813-.2,2.274,2.274,0,0,1,.738.2,2.392,2.392,0,0,1,.5,1.142c1.612,5.776,1.947,14.472,1.947,14.875a8.757,8.757,0,0,1-.268,2.485,4.346,4.346,0,0,1-1.713.638c-14.541,3.728-31.532,1.109-38.114-13-1.41.135-3.593.067-3.593.067a10.51,10.51,0,0,0,.671,1.511c4.231,9.4,11.887,13.13,18.335,14.843a47.964,47.964,0,0,0,23.472-.269c1.276-.436,1.243-.537,1.243-.537a2.9,2.9,0,0,0,2.351.068,1.869,1.869,0,0,0,.873-1.545Z" transform="translate(-474.694 -934.255)"/><path class="b" d="M482.454,996.9l.033.034,6.716,4.13.772.47,2.149,1.344c1.578,1.074,3.493.2,4.5-1.142a3.234,3.234,0,0,0-.571-4.6,6.878,6.878,0,0,0-1.88-1.276c-1.444-.806-6.448-3.828-8.832-5.339a3.436,3.436,0,0,1-1.243-1.209c-.3.537-1.007,1.679-2.418,3.661a2.34,2.34,0,0,0,.773,3.928Zm4.1-.772a2.429,2.429,0,0,1,2.519-1.713,3.222,3.222,0,0,1,3.324,2.385,3.733,3.733,0,0,1,2.754.873,2.612,2.612,0,0,1,.571,3.559c0,.033-1.578,2.149-4.4.471a2.621,2.621,0,0,1-.94-.974,5.219,5.219,0,0,1-.336-.739,3.117,3.117,0,0,1-3.324-1.443,3.179,3.179,0,0,1-.168-2.418Z" transform="translate(-475.064 -937.527)"/><path class="b" d="M500.182,993.983c-1.411-1.075-4.668-3.19-7.119-4.8l-.571.571s5.473,3.66,6.883,4.6a3.786,3.786,0,0,1,1.982,3.828,3.194,3.194,0,0,0-1.175-4.2Z" transform="translate(-477.446 -937.501)"/><path class="b" d="M486.808,989.338c2.351,1.478,10.074,6.01,10.074,6.01s2.082,1.344,2.182,2.989a3.326,3.326,0,0,0-1.511-3.895l-7.186-4.769c-1.344.369-4.164-1.109-4.064-2.989-.7.638-.839,1.813.5,2.653Z" transform="translate(-476.061 -936.986)"/><path class="b" d="M494.48,1000.839c.3,1.646,1.343,2.385,3.19,2.116l.37-.067c1.074-1.544-.6-3.66-2.686-3.593a2.325,2.325,0,0,1-.874,1.544Z" transform="translate(-477.856 -939.589)"/><path class="b" d="M492.036,1001.08a2.914,2.914,0,0,0,4.265,2.048c-1.041.168-3.19.1-3.526-2.351-1.545.571-4.332.135-4.1-2.921C487.839,1000.106,490.054,1001.684,492.036,1001.08Z" transform="translate(-476.621 -939.292)"/><path class="b" d="M596.378,986.5a67.15,67.15,0,0,1-6.985,1.511c.772,1.478.94,2.082,1.209,2.653a22.1,22.1,0,0,0,2.284-.4,43.453,43.453,0,0,0,5-1.175l.4-.1a1.416,1.416,0,0,0,1.209-1.477,1.5,1.5,0,0,0-1.344-1.377c-.033.033-1.175.2-1.779.369Z" transform="translate(-497.449 -936.872)"/><path class="b" d="M602.045,1003.842c-1.578.369-6.347,1.276-6.347,1.276l.3.84c1.276-.134,6.817-1.511,6.817-1.511,1.041-.034,1.108.7,1.108.7a76.614,76.614,0,0,1-7.589,1.948c.235,1.04.772,3.055.772,3.055,6.448-1.141,7.858-1.88,7.858-1.88,1.881-.806,1.175-2.989,1.175-2.989-.739-2.586-4.1-1.444-4.1-1.444Z" transform="translate(-498.75 -940.476)"/><path class="b" d="M601.749,989.683a66.471,66.471,0,0,1,2.787,9.2c4.7-.034,4.97,5.607,2.183,6.514,0,0,1.779,9.033,2.283,13.969a15.908,15.908,0,0,1,.033,1.679c1.948.4,3.089,1.779,3.089,2.485.94-5.675-2.384-22.163-6.649-34.185-1.175-4.432-3.727-3.895-3.727-3.895C603.126,985.923,604.334,988.273,601.749,989.683Z" transform="translate(-500 -936.727)"/><path class="b" d="M580.3,987.876a1.109,1.109,0,0,1,.974-.974,41.443,41.443,0,0,1-9.268-.3l1.04,2.385s5.071-.571,7.253-1.109Z" transform="translate(-493.859 -936.968)"/><path class="b" d="M476.825,1007.749s3.861-5.742,4.937-7.321c0,0-2.586-1.544-2.889-2.149l-5.1,7.825a1.038,1.038,0,0,0-.135,1.108,2.456,2.456,0,0,0,1.881,1.175A1.4,1.4,0,0,0,476.825,1007.749Z" transform="translate(-473.532 -939.379)"/><path class="b" d="M514.116,949.592c.269.436.974,2.015.974,2.015a16.835,16.835,0,0,1,4.836-2.519c7.354-2.988,16.118-4.735,23.875-6.28l.6-.1c1.276-.2,1.612-.974,1.512-1.645a1.77,1.77,0,0,0-2.015-1.31c-9.671,1.578-20.887,4.466-26.293,6.716a24.024,24.024,0,0,0-4.3,2.183c.336.167.4.235.805.94Z" transform="translate(-481.743 -927.294)"/><path class="b" d="M490.754,986.722l3.929-6.212a22.017,22.017,0,0,1-2.518-2.754c-3.224,5.238-4.064,6.649-4.131,6.75l-.034.033-.033.033c-.47.537.3,1.344.471,1.478.671.671,1.779,1.108,2.316.671Z" transform="translate(-476.481 -935.143)"/><path class="b" d="M563.836,941.865c1.512.134,4.5.436,5.641.671,1.276,0,1.478-.84,1.511-1.209.067-.671-.3-1.511-.974-1.612h-.067a67.1,67.1,0,0,0-6.918-.974,9.411,9.411,0,0,1,.805,3.123Z" transform="translate(-492.007 -927.089)"/><path class="b" d="M562.919,935.812,556.4,924.058l-2.518,1.175,4.567,10.175.5.067a12.753,12.753,0,0,1,2.216.5c1.914.571,2.25,4.869-1.41,4.5-.6-.067-1.175-.134-1.646-.2-.638-.1-1.41-.236-2.316-.3l-.2-.034c.94,3.627.671,8.529-4.231,9.6,2.519-1.109.3-1.881.2-1.914-5.272-1.209-14.07.4-15.044-.236,5.641-.537,6.078-3.358,5.607-6.28a7.805,7.805,0,0,1-.873.168c.537,3.056-.739,4.2-2.417,4.835a15.943,15.943,0,0,1-4.534.907l-1.679-.067c.739-.235,2.183-.3,3.929-.671,2.72-.571,4.3-1.746,4.1-4.869-.336.067-.705.135-1.041.2a4.047,4.047,0,0,1-.4,2.216c-.537.974-2.451,1.377-3.458,1.544,0,0-1.478.2-1.444.2a27.983,27.983,0,0,0-11.82,3.828s-.47.3-.671.437a22.4,22.4,0,0,0-4.063,3.123c.167.369.336.739.5,1.141a25.7,25.7,0,0,1,2.216-1.947,16.2,16.2,0,0,1,3.727-2.351,28.555,28.555,0,0,0-5.708,4.769c2.351,5.205,5.507,12.156,8.6,19.006-.7-5.306,9.47-9.335,13.164-.537a40.832,40.832,0,0,1,1.847,5.507c.739-.067,1.478-.134,2.25-.235-.235-.974-.5-1.982-.84-2.955a39.427,39.427,0,0,1-.94-8.731v-.5c1.544,1.78,7.052,7.757,13.633,9.671l-1.645-4.03a28.785,28.785,0,0,1-11.551-10.41c.067-.369.134-.671.167-.839a17.431,17.431,0,0,1,3.157-7.421c.1-.134.2-.235.3-.37a5.364,5.364,0,0,1,.537-.638l10.443,24.514s1.746-.135,3.324-.4c0,0-8.261-19.577-10.779-25.555.167-.033.336-.033.537-.067.067,0,.167-.033.235-.033.168,0,.3-.033.369-.033a6.2,6.2,0,0,0,4.769-3.291,9.36,9.36,0,0,0,.806-5.037,2.86,2.86,0,0,1,.437-.471,3.614,3.614,0,0,1,.84-.571c2.787,1.444,7.824-.537,4.769-5.339Zm-21.625,33.546c-2.889-3.189-1.478-15.984,3.627-16.622C541.36,955.355,540.219,964.489,541.294,969.358Z" transform="translate(-482.661 -924.058)"/><path class="b" d="M492.62,999.256a2.961,2.961,0,0,1-.806-.1,4.281,4.281,0,0,0,.1.94,1.824,1.824,0,0,0,2.284-1.411h-.134a2.323,2.323,0,0,0-1.747-2.182,4.287,4.287,0,0,0-.5,2.116,1.864,1.864,0,0,0,.84.235s-.033.268-.033.4Z" transform="translate(-477.306 -939.012)"/><path class="b" d="M490.355,999.732c.1.034.167.135.268.168a3.437,3.437,0,0,1-.1-1.075c-.2-.134-.336-.168-.436-.336v-.5c.134.168.269.168.4.269a4.426,4.426,0,0,1,.436-1.881,1.91,1.91,0,0,0-1.544.537s-.5,1.982.974,2.82Z" transform="translate(-476.787 -938.985)"/></g><path class="d" d="M492.246,1021.335a2.175,2.175,0,0,0,1.981,1.309,2.107,2.107,0,0,0,1.578-.7,3.317,3.317,0,0,0,2.048-3.089,3.358,3.358,0,1,0-5.607,2.485Z" transform="translate(-17.8 -27.02)"/><path class="d" d="M453.4,889.713a62.219,62.219,0,0,1,25.824.94,62.193,62.193,0,0,0-25.824-.94,64.932,64.932,0,0,0-33.009,23.54A64.932,64.932,0,0,1,453.4,889.713Z" transform="translate(-3.195 -0.872)"/><path class="d" d="M440.444,1028.829c3.727-.571,6.85.2,11.384,3.593.268.2.537.4.84.6-.269-.2-.571-.4-.84-.6C447.261,1029.03,444.138,1028.258,440.444,1028.829Z" transform="translate(-7.335 -29.744)"/><path class="d" d="M540.1,929.39a9.7,9.7,0,0,0,.47,1.478C540.465,930.532,540.23,929.995,540.1,929.39Z" transform="translate(-27.906 -9.253)"/><path class="d" d="M537.1,920.913a.915.915,0,0,0-.2.167.346.346,0,0,1,.2-.167,59.294,59.294,0,0,0-16.219-17.462A59.294,59.294,0,0,1,537.1,920.913Z" transform="translate(-23.941 -3.898)"/><path class="d" d="M420.006,920.088c.033-.033.067-.1.1-.134C420.073,919.987,420.039,920.055,420.006,920.088Z" transform="translate(-3.116 -7.305)"/><path class="d" d="M494.734,891.18a.8.8,0,0,0,.269.067A1.045,1.045,0,0,1,494.734,891.18Z" transform="translate(-18.542 -1.365)"/><path class="d" d="M540.054,926.987a2.166,2.166,0,0,1,.3-.772c.033-.068.1-.1.134-.168-.034.068-.1.1-.134.168A1.687,1.687,0,0,0,540.054,926.987Z" transform="translate(-27.898 -8.562)"/><path class="d" d="M555.886,928.727c0-2.183-1.209-3.694-2.283-3.828a.988.988,0,0,0-.705.1c-.033,0-.033.033-.067.067a.033.033,0,0,0-.033.034.469.469,0,0,0-.1.134,1.65,1.65,0,0,0-.2.873c0,.2.034.47.067.772v.067a.832.832,0,0,0,.067.235,5.179,5.179,0,0,0,.571,1.175.877.877,0,0,0,.168.2,6.221,6.221,0,0,0,.805.907,4.966,4.966,0,0,0,.1,1.612l.033.1a4,4,0,0,0,.974,1.813c1.209,1.41,2.418.47,2.049-1.209a4.808,4.808,0,0,0-1.444-2.754v-.3Z" transform="translate(-30.465 -8.32)"/><path class="d" d="M432.036,1028.12a22.393,22.393,0,0,1,4.533-.537,12.377,12.377,0,0,1,5.944,1.678l-1.074.571a32.906,32.906,0,0,1-11.753,3.324c-2.385.167-1.914-1.209-.37-2.015a3.768,3.768,0,0,0,1.914-2.787c-.268.134-.268.067-.638.134h-.033c-.537,3.727-7.825,3.358-7.018-1.746,0,0-1.041-2.149-1.645-3.425a2.88,2.88,0,0,1-.067-.806s1.78,2.888,2.519,3.828c-.974,3.458,4.1,4.9,5.44,2.283-4.466.84-4.634-1.443-4.567-2.216-.034-.1-.067-.236-.1-.37a54.031,54.031,0,0,1-6.179-9.435c-.4,3.089,3.089,10.208,3.392,10.913l.3.739c-1.041,2.921,1.981,6.749,7.421,5.843,5.373-.5,11.384-2.754,13.969-4.6.2-.135.436-.3.6-.437-2.888-1.847-6.448-3.055-12.257-1.141a1.438,1.438,0,0,1-.336.2Z" transform="translate(-2.89 -27.256)"/><path class="d" d="M456.42,1021.482a3.078,3.078,0,0,0-1.041,2.954,2.47,2.47,0,0,0,.638,2.653,2.31,2.31,0,0,0,2.754.672,2.423,2.423,0,0,0,1.813-.5c1.209-1.008,1.276-2.988.168-4.567-1.108-1.544-3.056-2.116-4.332-1.209Z" transform="translate(-10.383 -28.173)"/><path class="d" d="M463.884,989.731a6.515,6.515,0,0,0-4.734,1.948c-2.754,2.82-2.552,7.656.436,10.779a8.013,8.013,0,0,0,5.642,2.552,6.547,6.547,0,0,0,2.149-.336l4.534-6.716a8.442,8.442,0,0,0-2.385-5.676,7.875,7.875,0,0,0-5.642-2.552Z" transform="translate(-10.796 -21.709)"/><path class="d" d="M453.646,1014.7c6.347,8.16,17.563,8.194,23.2,2.216C474.466,1018.089,464.425,1024.671,453.646,1014.7Z" transform="translate(-10.061 -26.862)"/><path class="a" d="M512.936,922.436a7.7,7.7,0,0,1-.47-1.478,4.193,4.193,0,0,1-.067-1.713,2.2,2.2,0,0,1,.3-.773c.034-.067.1-.1.134-.167a1.587,1.587,0,0,1,.336-.336c.067-.067.134-.1.2-.168a59.307,59.307,0,0,0-16.22-17.462,61.893,61.893,0,0,0-20.45-9.67.775.775,0,0,0-.268-.068c-.067,0-.1-.033-.168-.033a62.188,62.188,0,0,0-25.823-.94,65.5,65.5,0,0,0-32.975,23.606c-.067.1-.135.168-.2.269-.034.033-.067.1-.1.134-9.739,13.768-14,32.237-8.463,54.333,4.231,15.379,9.167,23.506,14.507,31.162,0,0-.235,3.694,6.145,1.78a31.208,31.208,0,0,1,4-.974c3.727-.571,6.85.2,11.383,3.593.269.2.537.4.84.6,10.645,7.422,28.174,10.679,39.558,4.735a19.385,19.385,0,0,0,7.32-6.481l.068-.134a14.242,14.242,0,0,0,1.847-3.627,18.386,18.386,0,0,0,.974-6.884c-.7-.134-1.478-.235-2.25-.369-.5,9.57-9.973,18.771-26.931,17.7-7.052-.269-14.607-3.694-19.107-6.145-2.082-1.377-7.891-4.668-10.712-5.272,2.417.134,8.529,3.324,11.081,4.8,5.238,2.686,12.525,5.272,18.737,5.541,11.317,1.074,24.144-4.735,25.521-16.858-11.35-1.88-26.428-4.4-28.611-4.768a2.6,2.6,0,0,1-1.612.436,3.243,3.243,0,0,1-2.686-1.713,1.957,1.957,0,0,1,.2-2.082l5.373-8.025.236-.436a3.013,3.013,0,0,1,.6-2.552,59.547,59.547,0,0,0,3.459-5.575,2.587,2.587,0,0,1,1.981-1.242c.571-.907,1.948-3.089,4.265-6.884a2.761,2.761,0,0,1,1.074-2.686,3.786,3.786,0,0,1,.706-.4c2.888-4.668,6.111-9.772,6.985-11.081,1.04-1.41,1.847-2.351,2.753-3.425a15.82,15.82,0,0,1,1.411-1.243,3.373,3.373,0,0,1,1.713-1.209c0-.068.033-.1.134-.168a22.921,22.921,0,0,1,5.608-3.089c4.365-1.813,12.156-3.928,20.081-5.541-.571-1.612-2.317-6.682-2.317-6.682.034-.067-.033-.168-.1-.336Zm-35.964,66.858a3.377,3.377,0,0,1,1.309,6.481,2.14,2.14,0,0,1-3.559-.6,3.375,3.375,0,0,1,2.25-5.877Zm-26.495,10.645a2.423,2.423,0,0,1-1.813.5,2.3,2.3,0,0,1-2.754-.672,2.458,2.458,0,0,1-.638-2.653,3.051,3.051,0,0,1,1.041-2.955c1.276-.907,3.224-.336,4.332,1.242s1.041,3.526-.168,4.534Zm16.589-9.033c-5.642,5.977-16.824,5.944-23.2-2.216C454.641,998.663,464.682,992.081,467.066,990.906Zm-10.208-7.119a6.527,6.527,0,0,1-2.149.336,7.817,7.817,0,0,1-5.642-2.551c-2.989-3.124-3.19-7.959-.436-10.78a6.514,6.514,0,0,1,4.734-1.947,7.818,7.818,0,0,1,5.642,2.552,8.5,8.5,0,0,1,2.385,5.675Z" transform="translate(-0.276 -0.854)"/><path class="b" d="M529.886,917.384l-.974.4a1.131,1.131,0,0,0-.907-.6c-.134-.033-.268-.033-.4-.067-35.562-63.5-145-28.308-118.639,55.675A92.07,92.07,0,0,0,415.278,988a8.281,8.281,0,0,0-.034,4.063,48.35,48.35,0,0,0,3.493,9.1c-.873,3.224,2.149,7.959,9.47,6.549,8.7-1.344,13.264-4.5,14.3-5.306.3.2.6.437.873.638,15.447,12.055,40.7,13,50-1.243a29.192,29.192,0,0,0,8.361.135,23.508,23.508,0,0,0,11.753-3.627c-.369-.6-.739-1.209-1.074-1.847-3.895,2.62-9.5,4.03-17.428,3.392l-.5-.067a23.52,23.52,0,0,0,2.351-8.664q-.856-.151-1.813-.3a18.382,18.382,0,0,1-.974,6.884,13.725,13.725,0,0,1-1.847,3.627s-.1.134-.067.134a19.665,19.665,0,0,1-7.321,6.481c-11.384,5.944-28.912,2.72-39.557-4.734-.269-.2-.571-.4-.84-.6-4.5-3.324-7.622-4.1-11.316-3.526a31.207,31.207,0,0,0-4,.974c-6.38,1.947-6.145-1.78-6.145-1.78-5.373-7.622-10.309-15.783-14.507-31.162-5.507-22.1-1.276-40.565,8.462-54.333.033-.033.067-.1.1-.134.067-.1.134-.168.2-.269a64.71,64.71,0,0,1,32.975-23.54,62.221,62.221,0,0,1,25.824.94c.067,0,.1.034.167.034a.8.8,0,0,0,.269.067,61.286,61.286,0,0,1,20.45,9.671,58.853,58.853,0,0,1,16.219,17.462c-.068.033-.134.1-.235.167a1.574,1.574,0,0,0-.336.336c-.033.067-.1.1-.134.167a2.2,2.2,0,0,0-.3.772,4.191,4.191,0,0,0,.067,1.713,9.706,9.706,0,0,0,.47,1.478,1.831,1.831,0,0,0,.135.269s1.779,5.07,2.316,6.682c.37-.067.706-.134,1.075-.2l-2.62-7.253c-1.041-2.451.134-3.358.134-3.358a4.386,4.386,0,0,0,.134,2.519c.337,1.074,1.478,4.23,2.451,6.648.168.47.336.94.5,1.377.269-.067.571-.1.84-.168-.806-2.451-1.914-5.3-2.283-6.245a23.938,23.938,0,0,1-.806-2.385c-.5-1.746.168-1.779.907-1.847.436-.033,1.678,0,2.014,0,.773-.4,2.385-1.209,3.358-1.712-11.686-19.712-35.058-32.909-65.75-28.442,24.211-5.876,51.68,1.074,68.2,24.648a57.226,57.226,0,0,1,2.955,4.9h-.6a3.474,3.474,0,0,0-2.989-1.746,1.9,1.9,0,0,0-1.982,2.25,7.36,7.36,0,0,0,.537,1.914h.034l1.645,3.459.437.906,1.578,3.19a13.359,13.359,0,0,1,1.243,3.593l4.265.1a9.775,9.775,0,0,0-.84-3.627c-.671-1.679-2.62-7.79-3.291-9,0-.033-.033-.033-.033-.067a6.867,6.867,0,0,1,1.511.134c.84,2.116,2.048,5.776,2.989,8.663,0,0,1.074.067,1.074.033.37.034,1.813.168,2.351.269ZM441.671,1001.9c-.167.135-.369.269-.6.437-2.586,1.847-8.6,4.1-13.969,4.6-5.441.873-8.5-2.955-7.421-5.843l-.3-.739c-.3-.705-3.795-7.825-3.392-10.914a54.618,54.618,0,0,0,6.179,9.436c.034.134.067.235.1.369-.067.773.1,3.056,4.567,2.216-1.344,2.62-6.414,1.175-5.44-2.283-.739-.907-2.519-3.828-2.519-3.828-.067.033.1.873.067.806.6,1.242,1.645,3.425,1.645,3.425-.805,5.07,6.515,5.473,7.018,1.746h.034c.369-.067.369,0,.638-.134a3.686,3.686,0,0,1-1.914,2.787c-1.578.806-2.015,2.182.369,2.015a31.875,31.875,0,0,0,11.753-3.324l1.074-.571a12.368,12.368,0,0,0-5.943-1.678,18.487,18.487,0,0,0-4.534.537c.1-.034.168-.068.269-.1,5.876-2.015,9.436-.806,12.323,1.04Zm85.193-78.476c.369,1.679-.84,2.585-2.049,1.209a4.77,4.77,0,0,1-.974-1.813l-.033-.1a4.966,4.966,0,0,1-.1-1.612,4.594,4.594,0,0,1-.805-.906.9.9,0,0,1-.168-.2,3.676,3.676,0,0,1-.571-1.175c-.034-.1-.034-.2-.068-.235v-.067a7.3,7.3,0,0,1-.067-.772,1.65,1.65,0,0,1,.2-.873.485.485,0,0,1,.1-.135.033.033,0,0,0,.033-.033l.068-.067a.988.988,0,0,1,.705-.1c1.075.135,2.283,1.679,2.283,3.828v.269a5.039,5.039,0,0,1,1.444,2.787Z" transform="translate(0 0)"/><path class="c" d="M557.33,931.749a4.809,4.809,0,0,0-1.444-2.754v-.268c0-2.183-1.209-3.694-2.283-3.828a.988.988,0,0,0-.705.1c-.033,0-.033.033-.067.067a.033.033,0,0,0-.033.034.469.469,0,0,0-.1.134,1.65,1.65,0,0,0-.2.873c0,.2.034.47.067.772v.067a.832.832,0,0,0,.067.235,5.179,5.179,0,0,0,.571,1.175.877.877,0,0,0,.168.2,6.221,6.221,0,0,0,.805.907,4.966,4.966,0,0,0,.1,1.612l.033.1a4,4,0,0,0,.974,1.813c1.209,1.343,2.451.436,2.048-1.243Zm-2.888-2.955a3.448,3.448,0,0,1-1.411-2.854C554.476,925.939,554.879,928.055,554.442,928.793Zm1.477,3.929a3.775,3.775,0,0,1-1.175-2.686A1.807,1.807,0,0,1,555.919,932.722Z" transform="translate(-30.465 -8.32)"/></g><rect class="e" width="200" height="200"/></svg>