<svg xmlns="http://www.w3.org/2000/svg" width="200" height="200" viewBox="0 0 200 200"><defs><style>.a{fill:#ab0003;}.b{fill:none;mix-blend-mode:multiply;isolation:isolate;}</style></defs><g transform="translate(-1607.73 -1820.385)"><path class="a" d="M1772.652,1844.8c-14.776-11.844-28.2,2.958-28.2,11.441,14.8,3.143,27.985,17.946,22.069,56.392-4.813,31.417-23.351,50.991-35.031,51.373a121.369,121.369,0,0,0,19.724-42.787c10.6-43.621-6.369-57.7-19.811-58.361-16.328-.814-32.659,21.418-37.217,47.651-3.6,20.791-3.158,42.013,9.495,57.578-11.173,14.121-38.045,18.481-33.331-15.533,3.959-28.47,18.1-59.856,25.92-75.3l.232-.413c4.2-8.6,7.531-14.7,8.963-17.121l-3.149-.041c-30.582.526-54.873,7.577-66.21,23.059-10.619,14.494-10.926,29.749-2.155,38.81l1.283,1.267a13.105,13.105,0,0,0,9.293,3.918h.025a11.776,11.776,0,0,0,11.85-11.864,13.133,13.133,0,0,0-3.922-9.3,13.512,13.512,0,0,0-4.6-3.021l.051-.092a14.227,14.227,0,0,1,.8-1.619,24.255,24.255,0,0,1,10.3-9.226,36.524,36.524,0,0,1,12.674-3.586l-.738,1.576c-6.483,12.009-15.957,34.88-18.94,46.807-9.323,37.293,5.746,59.134,22.038,62.185,19.615,3.66,34.684-5.854,42.642-18.141,9.494,6.019,34.551,9.493,53.387-24.047C1791.773,1917.758,1792.561,1860.767,1772.652,1844.8Zm-55.45,110.455c-3.725-9.06-5.426-19.729-5.426-29.851,0-12.225,2.437-23.593,6.657-30.262,2.785-4.392,6.077-6.515,9.813-6.277,1.325.1,2.831.536,3.892,3.091a21.3,21.3,0,0,1,1.258,8.008c0,15.947-9.525,43.129-16.194,55.291Zm52.666,10.411a3.465,3.465,0,1,1,3.475,3.371,3.31,3.31,0,0,1-3.475-3.371Zm3.475-2.711a2.715,2.715,0,1,0,2.566,2.711A2.576,2.576,0,0,0,1773.343,1962.957Zm-.577,4.556h-.8v-3.681h1.38c.965,0,1.516.258,1.516,1.114,0,.68-.391.948-1.02.98l.958,1.587h-.809l-.862-1.536h-.364Zm0-2.154h.7c.438,0,.6-.207.6-.495,0-.339-.252-.4-.649-.4h-.648v.9Z"/></g><rect class="b" width="200" height="200"/></svg>