<svg xmlns="http://www.w3.org/2000/svg" width="200" height="200" viewBox="0 0 200 200"><defs><style>.a{fill:#ede0c5;}.b{fill:#00471a;}.c{fill:#fff;}.d{fill:none;mix-blend-mode:multiply;isolation:isolate;}</style></defs><g transform="translate(-1323.521 -1258.518)"><path class="a" d="M1423.246,1445.727a70.688,70.688,0,0,1-49.6-121.094,2.227,2.227,0,0,1,.35-.281c-4.7-7.08-7.329-15.361-5.331-25.391,3.682-18.475,18.613-24.045,19.247-24.273a2.183,2.183,0,0,1,2.882,2.471,35.119,35.119,0,0,1,11.5-6.537,2.183,2.183,0,0,1,1.8,3.947,37.5,37.5,0,0,0-11.265,10.54,30.956,30.956,0,0,1,6.714-.9c.291,0,.441.01.441.01a2.184,2.184,0,0,1,.4,4.3,40.517,40.517,0,0,0-12.349,6.121,36.7,36.7,0,0,0,7.644,36.245c-.367-7.71,1.9-19.634,15.739-25.186a2.183,2.183,0,0,1,1.949,3.89l-.1.063a18.226,18.226,0,0,0-5.223,5.145,20.078,20.078,0,0,1,3.555-.685l.165-.02a2.316,2.316,0,0,1,.262-.016,2.184,2.184,0,0,1,1.164,4.03s-.131.083-.161.1c-4.433,2.557-6.9,5.53-7.328,8.839-.466,3.587,1.5,6.972,2.93,8.9,3.711-4.323,6.126-11.655,6.8-14.427a2.183,2.183,0,0,1,2.119-1.664,2.445,2.445,0,0,1,.256.014,2.184,2.184,0,0,1,1.929,2.155c.055,9.057-2.368,15.256-4.862,19.227a19.247,19.247,0,0,0,8.132,1.975c.09,0,.217,0,.245,0s.061,0,.093,0h.162a19.25,19.25,0,0,0,8.132-1.975c-2.5-3.971-4.918-10.17-4.862-19.227a2.185,2.185,0,0,1,1.929-2.155,2.208,2.208,0,0,1,.256-.014,2.183,2.183,0,0,1,2.119,1.664c.677,2.772,3.092,10.1,6.8,14.427,1.432-1.93,3.4-5.316,2.93-8.9-.43-3.308-2.9-6.282-7.328-8.839-.03-.017-.132-.081-.132-.081a2.206,2.206,0,0,1-.906-2.587,2.18,2.18,0,0,1,2.045-1.461,2.243,2.243,0,0,1,.258.015l.165.02a20.013,20.013,0,0,1,3.556.685,18.244,18.244,0,0,0-5.224-5.145l-.1-.063a2.183,2.183,0,0,1,1.949-3.89c13.838,5.552,16.106,17.475,15.739,25.186a37.026,37.026,0,0,0,7.645-36.245,40.045,40.045,0,0,0-12.35-6.12,2.185,2.185,0,0,1,.4-4.3s.149-.009.439-.009a30.9,30.9,0,0,1,6.715.9,37.5,37.5,0,0,0-11.266-10.54,2.183,2.183,0,0,1,1.129-4.052,2.21,2.21,0,0,1,.667.1,35.136,35.136,0,0,1,11.495,6.538,2.184,2.184,0,0,1,2.883-2.472c.634.228,15.565,5.8,19.247,24.274,2,10.03-.632,18.311-5.332,25.391a2.276,2.276,0,0,1,.352.28,70.689,70.689,0,0,1-49.6,121.094Z"/><path class="b" d="M1471.31,1326.189l-1.526,1.83a66.135,66.135,0,1,1-93.078,0l-1.525-1.829a68.542,68.542,0,1,0,96.129,0Zm-91.156,5.1A62.228,62.228,0,0,0,1361.919,1375a61.435,61.435,0,0,0,1.072,11.431l18.494-4.994a41.981,41.981,0,0,0,83.04-.227l18.975,5.22a61.291,61.291,0,0,0-17.049-54.927l1.624-1.755a63.732,63.732,0,1,1-89.584-.076Zm-9.343-31.905c3.483-17.478,17.844-22.646,17.844-22.646-5.258,3.886-10.626,11.19-12.844,21.447a30.166,30.166,0,0,1,6.514-6.293c5.823-12.545,15.76-17.631,20.635-19.195a39.3,39.3,0,0,0-14.827,16.067c7.313-2.611,11.725-2.367,11.725-2.367a42.362,42.362,0,0,0-13.68,6.886,39.274,39.274,0,0,0,4.8,35.21,34.008,34.008,0,0,0,7.861,8.151c-.987-2.482-4.742-21.648,13.385-28.921l-.129.078a20.469,20.469,0,0,0-8.718,12.176,13.748,13.748,0,0,1,8.637-3.719l-.086.056c-16.827,9.7-3.447,22.849-3.447,22.849,5.306-4.446,8.4-14.4,9.065-17.124.064,10.519-3.435,16.818-5.812,19.9a20.948,20.948,0,0,0,11.509,3.472h.011a20.947,20.947,0,0,0,11.509-3.472c-2.378-3.079-5.876-9.377-5.811-19.9.665,2.723,3.758,12.678,9.063,17.124,0,0,13.381-13.145-3.446-22.849l-.087-.056a13.75,13.75,0,0,1,8.638,3.719,20.47,20.47,0,0,0-8.719-12.176l-.128-.078c18.127,7.273,14.372,26.439,13.385,28.921a34.007,34.007,0,0,0,7.861-8.151,39.282,39.282,0,0,0,4.8-35.21,42.361,42.361,0,0,0-13.68-6.886s4.412-.243,11.725,2.367a39.283,39.283,0,0,0-14.827-16.067c4.875,1.564,14.812,6.65,20.635,19.195a30.145,30.145,0,0,1,6.514,6.293c-2.217-10.257-7.585-17.561-12.843-21.447,0,0,14.361,5.168,17.844,22.646,4.053,20.342-12.193,33.045-25.293,43.928l10-4.079c.677-.288,1.147.366,1.022,1.145l-.293,2.47c-.162,1.359-1.159,8.241-4.939,10.328-.817.451-2.225.968-6.373,1.274l-7.507.483,1.246,4.222-7.37,11.8,3.775-3.978,7.706,27.407-21.143,17.4,6.6-29.925-9.864,12-9.865-12,6.6,29.926-21.143-17.4,7.7-27.407,3.776,3.979-7.371-11.806,1.247-4.221-7.508-.483c-4.147-.307-5.556-.823-6.373-1.275-3.778-2.087-4.777-8.969-4.938-10.328l-.293-2.47c-.125-.779.344-1.432,1.022-1.144l10,4.078C1383,1332.433,1366.758,1319.73,1370.811,1299.388Zm94.791,21.86s8.279-13.091,2.627-20.407c-.58-.751-1.208-1.437-1.826-2.1C1468.723,1307.1,1465.6,1321.248,1465.6,1321.248Zm-84.712,0s-3.121-14.143-.8-22.511c-.618.667-1.246,1.353-1.826,2.1C1372.609,1308.157,1380.89,1321.248,1380.89,1321.248Z"/><path class="c" d="M1401.451,1415.975l.42-.658.04-.062-6.305-4.005-.03.047-7.962,12.469,1.931,1.232,3.5-5.482,2.433,1.554-3.5,5.482,1.931,1.233,6.732-10.541Zm-4.7,3.106-2.433-1.554,1.95-3.054,2.443,1.537Zm-2.242-8.663-11.37,9.665-1.567-1.546,2.742-4.136-4.09,2.805-1.566-1.546,9.521-11.492,1.529,1.509-3.848,4.846,5.221-3.49.527.519-3.424,5.265,4.785-3.921Zm-11.2-13.789-13.186,6.868-1.067-2.048,13.186-6.868Zm-2.077-3.977-14.061,4.831-.751-2.185,8.824-3.031-4.073-.128,3.134-2.6-8.823,3.031-.75-2.184,14.061-4.831.75,2.184-3.134,2.6,4.072.127Zm-5.708,15.12,2.837,3.961-1.934,1.385-4.181-5.839,12.087-8.657,1.345,1.878Zm34.6,10.889-5.311,13.807-1.5-.577-3.958-1.522-1.617-.622,5.4-13.774,2.156.829-4.464,11.6,2.694,1.037,4.464-11.6Zm60.972-10,1.293,1.031-3.635,4.556-1.024,1.283-10.241-8.172-1.321-1.055,4.658-5.838,1.322,1.055,2.208,1.762-1.429,1.79-1.67-1.333-1.8,2.257,7.859,6.271,1.8-2.256-1.685-1.346,1.428-1.79Zm-2.436-10.171,9.454,1.253-1.133,2.136-6.88-.869,5.73,3.036-1.08,2.042-13.138-6.961,1.081-2.042,3.646,1.932-2.716-3.686,1.141-2.152Zm13.1-9.152-2.145,7.155-1.584-.474-2.385-.716.657-2.2,1.709.512.829-2.765-3.953-1.184-1.521,4.95-1.588-.476-6.335-1.9.472-1.573,1.673-5.583,1.607.481,2.345.7-.657,2.195-1.692-.507-.828,2.765,3.418,1.024,1.5-4.955,1.586.475,5.3,1.59Zm-26.821,18.233,9.529,11.315-1.229,1.035-3.242,2.73-1.325,1.117-9.46-11.373,1.766-1.488,8.009,9.509,2.208-1.859-8.008-9.51Zm-16.893,23.508.454,2.315-7.011,1.377-2.85-14.516,7.011-1.377.454,2.315-4.762.936.687,3.5,4.763-.935.452,2.3-4.763.936.8,4.085Zm-10.861,1.711.039,2.361-7.144.118-.244-14.792,7.144-.118.039,2.361-4.853.08.059,3.567,4.853-.08.039,2.341-4.854.081.07,4.162Zm23.285-12.385.246-1.456-2.256-4.168-2.138-.6-5.129,2.767,7.035,13,5.129-2.768.64-2.163-2.185-4.035Zm-6.184-2.443,2.554-1.375,1.687,3.139-2.553,1.372Zm4.765,8.851-1.97-3.659,2.555-1.366,1.968,3.66Zm-30.715-6.6-3.851,5.343,1.725,9.379-2.382-.418-1.3-6.813-1.122,6.389-2.274-.4,2.57-14.643,2.275.4-.714,4.065,2.669-3.721Z"/><path class="c" d="M1416.38,1354.468c-1.072-.493-3.094-1.421-5.107-2.344a.668.668,0,0,0-.938.5,3.168,3.168,0,0,0,1.07,3.152,3.665,3.665,0,0,0,5.167-.233A.665.665,0,0,0,1416.38,1354.468Z"/><path class="c" d="M1388.655,1342.807s.73,6.137,3.3,7.559c1.737.959,5.984.867,9.693,1.152-4.107-1.593-10.156-5.94-13-8.711Z"/><path class="c" d="M1418.959,1379.5l2.059,2.794h4.456l2.058-2.794Z"/><path class="c" d="M1457.836,1342.807c-2.841,2.771-8.891,7.118-13,8.711,3.709-.285,7.955-.193,9.693-1.152,2.574-1.422,3.305-7.559,3.305-7.559Z"/><path class="c" d="M1427.514,1363.3l-1.978-6.483-2.29,1.111-2.29-1.112-1.978,6.484a8.166,8.166,0,0,1-3.5,4.388l-1.209,5.329,2.973,4.013h3.157l-2.923-4.3.461-2.655a7.249,7.249,0,0,0,10.609,0l.462,2.655-2.924,4.3h3.157l2.974-4.013-1.208-5.329A8.165,8.165,0,0,1,1427.514,1363.3Z"/><path class="c" d="M1435.218,1352.124l-5.107,2.344a.665.665,0,0,0-.192,1.078,3.665,3.665,0,0,0,5.168.233,3.167,3.167,0,0,0,1.069-3.152A.668.668,0,0,0,1435.218,1352.124Z"/></g><rect class="d" width="200" height="200"/></svg>