<svg xmlns="http://www.w3.org/2000/svg" width="200" height="200" viewBox="0 0 200 200"><defs><style>.a{fill:#fff;}.b{fill:#b3995d;}.c{fill:#a00;}.d{fill:none;mix-blend-mode:multiply;isolation:isolate;}</style></defs><g transform="translate(-1020.209 -1795.707)"><path class="a" d="M1120.212,1951.043c31.879,0,63.289-10.808,80.019-27.54,8.5-8.5,12.988-18.307,12.988-28.378,0-10-4.432-19.712-12.813-28.094-16.6-16.6-48.08-27.324-80.194-27.324-22.489,0-45.436,5.292-62.96,14.521-20.019,10.541-31.044,25.066-31.044,40.9,0,9.927,4.447,19.62,12.863,28.034s20.632,15.484,35.345,20.46a144.615,144.615,0,0,0,45.795,7.423"/><path d="M1058.893,1857.119c-18.993,10-29.453,23.589-29.453,38.26,0,9.119,4.148,18.084,11.993,25.93,8.087,8.084,19.911,14.912,34.191,19.741a141.625,141.625,0,0,0,44.842,7.268c31.128,0,61.712-10.469,77.913-26.669,7.925-7.921,12.114-17.006,12.114-26.27,0-9.19-4.128-18.176-11.941-25.987-16.069-16.068-46.721-26.45-78.086-26.45-22.018,0-44.461,5.167-61.572,14.177" transform="translate(-0.253 -0.253)"/><path class="b" d="M1121.419,1943.48c27.479,0,53.521-8.967,67.956-23.4,7.281-7.283,11.13-15.594,11.13-24.039s-3.848-16.756-11.13-24.036c-14.437-14.434-40.478-23.4-67.956-23.4-20.178,0-40.264,4.98-55.107,13.665-15.463,9.048-23.981,21.041-23.981,33.77,0,8.445,3.85,16.756,11.133,24.039,14.435,14.432,40.475,23.4,67.955,23.4" transform="translate(-1.262 -0.697)"/><path class="c" d="M1122.1,1941.937c40.279,0,72.933-20.865,72.933-46.007s-32.654-45.522-72.933-45.522-72.934,20.381-72.934,45.522,32.653,46.007,72.934,46.007" transform="translate(-1.797 -0.838)"/><path d="M1181.921,1890.876h-.2v-1.661h-28.938a15.594,15.594,0,0,0-5.165-8.632,19.4,19.4,0,0,0-10.811-6.164l-1.8-.372c-4.177-.878-7.477-1.573-20.749-1.5,0,0-2.552-.088-5.031-.416a10.839,10.839,0,0,1-1.648-.554c.182-1.1,2.2-2.626,4.482-2.92a43.5,43.5,0,0,1,29.382,6.888l.363.233h9.717v-14.867h-1.662v-1.661h-13.333l-2.247,1.716c-3.84-.961-22.641-5.076-38.879,2.032-6.824,2.82-11.059,8.14-10.756,13.544a9.525,9.525,0,0,0,3.713,6.944,14.876,14.876,0,0,0,7.663,4.665,56.6,56.6,0,0,0,12.824,2.181v6.777h1.66v1.662h5.071c2.1,0,2.641,1.162,2.77,1.6-6.471-.423-16.311-2.264-23.554-8.965l-.272-.294h-.052c-.4-.383-.792-.778-1.176-1.191l-.434-.468h-7.291v21.161h1.662v1.658h5.948c.871.062,3.633-.245,5.541-5.818a68.989,68.989,0,0,0,20.1,3.628v13.166c-.325,4.421-10.066,5.8-13.458,5.939l-1.4.055v6.546h1.66v1.658h42.763v-6.263l-1.089-.289c-.2-.05-.384-.1-.573-.154V1929.3l-1.334-.114a22.919,22.919,0,0,1-5.688-1.141c-2.69-1.507-3.15-2.728-3.208-2.926V1918.1h12.532a7.28,7.28,0,0,1,3.421,1.533,16.589,16.589,0,0,1,2.64,4.8l.321,1.028,1.076,0h.035c.149.378.227.617.231.63l.32,1.03,1.077,0h5.657v-25.464h-1.662V1900h-6.705l-.24,1.163c-1.756,8.462-11.543,8.338-20.245,7.069a48.131,48.131,0,0,0,5.129-1.705c4.658-1.851,8.154-4.368,10.334-7.317h18.784a6.372,6.372,0,0,1,3.359.983c1.968,2.886,1.771,7.141,1.769,7.189l-.083,1.541h1.747l0,.117-.084,1.541,1.542,0h5.943v-19.713h-1.462" transform="translate(-4.574 -1.503)"/><path class="a" d="M1152.086,1896.217c1.368-1.655,1.431-5.413,1.431-5.413h26.865v16.79H1175.9s.639-11.091-8.25-11.377h-15.567Zm-31.683,14.338a47.327,47.327,0,0,0,11.172-1.153c1.539-.34,22.352,5.768,25.169-7.809h4.053v22.54h-4.2s-2.489-8.108-8.958-9.033h-14.154v8.607s.054,6.033,11.892,7.059v3.678h-39.839v-3.678s14.4-.56,14.862-7.317v-12.894Zm12.429-22.178a35.182,35.182,0,0,0-7.922-.833c-11.475-.439-18.7.929-30.024-2.337-12.858-3.705-10.55-15.88,1.225-20.746,17.517-7.669,38.614-1.777,38.614-1.777l2.42-1.849h11.378v11.945H1140.7c-15.5-10.041-30.365-7.111-30.365-7.111-4.836.626-9.531,5.959-1.282,8.021,2.633.356,5.335.442,5.335.442,14.968-.078,17.042.814,22.26,1.848,13.561,2.688,21.062,19.833,1.351,27.661-20.348,8.08-41.746-.628-41.746-.628-1.777,6.685-4.55,6.259-4.55,6.259h-4.551v-18.238h5.189c12.164,13.15,33,10.9,33,10.9s6.187-.158,10.24-3.982c3.165-3.863,2.664-7.99-2.747-9.575Zm-17,7.4h-5.4v-4.843c4.189,0,12.735.037,18.782,0,6.081,0,6.9,3.517,4.331,5.9-2.417,2.243-7.478,3.838-13.472,2.747,0,0-.494-3.8-4.237-3.8Z" transform="translate(-4.698 -1.63)"/></g><rect class="d" width="200" height="200"/></svg>