<svg xmlns="http://www.w3.org/2000/svg" width="200" height="200" viewBox="0 0 200 200"><defs><style>.a{fill:#63727a;}.b{fill:#fff;}.c{fill:#bec0c2;}.d,.h{fill:none;}.e{fill:#f9a01b;}.f{fill:#e56020;}.g{fill:#b95915;}.h{mix-blend-mode:multiply;isolation:isolate;}</style></defs><g transform="translate(-1633.867 -1564.508)"><path class="a" d="M1817.756,1580.032a1.383,1.383,0,0,0-1.087-.526H1711.838c-12.5.026-20.187,5.425-22.837,16.047l-38.091,151.916a1.384,1.384,0,0,0,1.344,1.723h114.178a15.713,15.713,0,0,0,14.58-11.611l37-156.371A1.378,1.378,0,0,0,1817.756,1580.032Z"/><path d="M1652.254,1747.807h114.178a14.3,14.3,0,0,0,13.232-10.547l37.005-156.369H1711.841c-9.721.02-18.555,3.206-21.5,15Z"/><path class="a" d="M1774.814,1687.275H1674.225l22.126-87.607c2.826-11.327,9.838-13.649,19.494-13.649H1808.2l-21.153,91.506A13.178,13.178,0,0,1,1774.814,1687.275Zm-99.018-1.224h99.018a11.891,11.891,0,0,0,11.038-8.8l20.806-90.009h-90.813c-11.032,0-15.993,3.447-18.307,12.723Z"/><path class="b" d="M1690.7,1736.393l2.75,3.807H1714.3l8.465-33.529h-8.546l-7.269,28.8h-7.6l7.269-28.8h-10.763l-.684.608,2.141,2.886Z"/><path class="b" d="M1691.33,1718.422l2.042-8.083-2.75-3.812h-17.107l-4.674,3.812-2.847,11.283,14.446,6.071-1.961,7.774h-7.559l.92-3.648-7.548-3.463-2.028,8.036,2.749,3.807h17.108l4.672-3.807,2.85-11.286-14.449-6.075,1.963-7.773h7.559l-.939,3.725Z"/><path class="b" d="M1750.318,1710.339l-2.749-3.812h-20.851l-8.464,33.53h8.544l7.271-28.8h7.6l-7.269,28.8h10.758l.686-.613-2.139-2.881Z"/><path class="b" d="M1776.752,1718.422l2.04-8.083-2.749-3.812h-17.107l-4.672,3.812-2.851,11.283,14.451,6.071-1.965,7.774h-7.558l.92-3.648-7.546-3.463-2.028,8.036,2.751,3.807h17.106l4.671-3.807,2.85-11.286-14.448-6.075,1.965-7.773h7.557l-.942,3.725Z"/><path class="c" d="M1664.292,1728.356l3.095,4.68-.677,2.68,1.554,2.1h12.074l2.439-1.89,4.018.463-4.672,3.807h-17.108l-2.749-3.807Z"/><path class="c" d="M1678.479,1735.467l4.3.463,2.41-9.545-14.587-6.128,2.382-9.442-4.139-.476-2.847,11.283,14.446,6.071Z"/><path class="c" d="M1687.339,1708.893H1675.5l-2.515,1.922,4.178.443h7.559l-.939,3.725,4.495-1.388.647-2.559Z"/><path class="c" d="M1749.715,1728.356l3.094,4.68-.677,2.68,1.553,2.1h12.074l2.436-1.89,4.02.463-4.671,3.807h-17.106l-2.751-3.807Z"/><path class="c" d="M1763.9,1735.467l4.3.463,2.412-9.545-14.588-6.128,2.383-9.442-4.139-.476-2.851,11.283,14.451,6.071Z"/><path class="c" d="M1772.761,1708.893h-11.844l-2.514,1.922,4.18.443h7.557l-.942,3.725,4.5-1.388.646-2.557Z"/><path class="c" d="M1695.174,1707.279l6.69,1.625-6.768,26.811,1.578,2.122h13.909l3.715,2.363h-20.851l-2.75-3.807,6.618-26.228Z"/><path class="c" d="M1714.217,1706.671l3.711,2.222-7.345,28.944-3.635-2.37Z"/><path class="c" d="M1730.435,1708.892l-3.717-2.365-8.464,33.53h8.544l-3.709-2.222Z"/><path class="c" d="M1739.153,1737.824l6.77-26.811-1.578-2.121h-13.909l3.635,2.366h7.6l-7.269,28.8h10.758l.686-.613Z"/><path class="b" d="M1673.4,1692.413l-.219.181.713.932-2.156,8.82h2.979l.22-.183-.741-.85.581-2.383,4.61-1.436.948-3.878-.92-1.2Zm4.04,4.026-2.212.644.726-2.967,2.056,0Z"/><path class="b" d="M1698.092,1692.413h-2.2l-.874,3.575-2.165.52,1-4.094h-2.969l-.221.181.713.932-2.154,8.819h2.2l.96-3.928,2.154-.48-1.077,4.408h2.972l.218-.183-.734-.85Z"/><path class="b" d="M1710.363,1692.413l-1.505,1.191-1.842,7.535.921,1.206h4.044l1.5-1.2,1.842-7.538-.914-1.191Zm1.009,8.334h-2.055l1.632-6.684H1713Z"/><path class="b" d="M1749.637,1693.6l-.925-1.191h-5.334l-2.427,9.932h2.206l2.022-8.282h2.142l-2.024,8.282h2.971l.219-.183-.735-.85Z"/><path class="b" d="M1763.409,1692.413h-2.97l-.22.181.712.932-2.154,8.819h2.973l.219-.183-.733-.85Z"/><path class="b" d="M1779.372,1701.366l-1.18-3.88,3.929-5.073H1780l-2.283,3.067-.781-3.067h-2.968l-.225.177,1.209.89,1.121,4.042-3.731,4.823h2.146l2.176-2.915.75,2.915h2.971l.223-.183Z"/><path class="b" d="M1729.447,1700.747h-2.586l.62-2.542,2.141,0,.4-1.638-2.142,0,.613-2.5h2.417l.609.872.233-.165.576-2.356h-6.4l-.22.181.711.932-2.154,8.819h5.8l.567-2.325-.147-.161Z"/><path class="d" d="M1757.587,1662.453"/><path class="e" d="M1678.46,1684.438l56.588-30.987-38.374,30.987,46.564-26.756-.77,5.395,7.766-4.315,17.54,16.585,9.336-28.05,13.5-.868-6.868-17.014,12.229-9.571-15.815-6.159,4.007-17.013-13.46,6.161-6.935-14.636-10.777,10.766-19.4-8.7-2.67,17.322-17.287,3.748,10.23,6.164-10.292,5.164,8.741.758-35.965,27.975,36.177-19.219-38.811,29.544,41.313-21.533-44.129,33.177,48.637-25.916Z"/><path class="f" d="M1782.011,1629.663a28.179,28.179,0,1,1-27-29.319A28.176,28.176,0,0,1,1782.011,1629.663Z"/><path class="g" d="M1757.305,1652.812a28.179,28.179,0,0,1-19.078-47.758,28.174,28.174,0,1,0,35.865,43.042A28.015,28.015,0,0,1,1757.305,1652.812Z"/><path d="M1782.023,1628.827a27.937,27.937,0,0,0-.119-2.99,13,13,0,0,0-5.847-2.292c-.435-.054-.849-.08-1.271-.111a34.966,34.966,0,0,0-1.255-5.458c.292.019.587.031.882.051,1.983.148,3.935.373,5.863.652q-.408-1.074-.891-2.11c-2.168-.33-4.367-.585-6.6-.752h-.023a33.25,33.25,0,0,0-2.606-5.221,7.576,7.576,0,0,0,3.766-1.869c-.533-.539-1.087-1.059-1.66-1.554a6.116,6.116,0,0,1-3.423,1.452c-.207-.288-.411-.579-.627-.856a30.791,30.791,0,0,0-6.556-6.348,28.1,28.1,0,0,0-6.645-1.079c-.125-.005-.252,0-.378-.009a27.311,27.311,0,0,1,11.181,8.3,55.856,55.856,0,0,1-9.657-2.246c-.989-.292-1.957-.577-2.9-.837a37.936,37.936,0,0,0-13.355-1.539,28.359,28.359,0,0,0-6.572,5.176,29.232,29.232,0,0,1,19.387-1.6c.924.256,1.882.535,2.856.818,3.84,1.131,8.148,2.388,11.866,2.427a31.047,31.047,0,0,1,2.651,4.83c-.731-.034-1.456-.058-2.184-.07-18.094-.311-33.608,5.105-42.217,13.741a28.356,28.356,0,0,0,.586,5.026,31.75,31.75,0,0,1,10.665-9.245c8.757-4.922,20.379-7.513,32.729-7.3.423.006.853.025,1.276.04a31.678,31.678,0,0,1,1.384,5.53c-7.952.339-13.109,5.3-19.027,10.584a54.287,54.287,0,0,1-21.287,12.34,27.933,27.933,0,0,0,2.919,3.078c8.938-3.6,14.878-9.2,19.9-13.69,5.7-5.1,10.587-9.98,17.77-10.22a33.045,33.045,0,0,1,.012,6.051,31.345,31.345,0,0,1-16.079,25.017,27.829,27.829,0,0,0,6.448-1.391c.7-.578,1.38-1.184,2.038-1.833a34.475,34.475,0,0,0,9.991-21.585,36.114,36.114,0,0,0,.011-6.16c.36.038.714.069,1.083.131A10.944,10.944,0,0,1,1782.023,1628.827Z"/></g><rect class="h" width="200" height="200"/></svg>