<svg xmlns="http://www.w3.org/2000/svg" width="200" height="200" viewBox="0 0 200 200"><defs><style>.a{fill:#fff;}.b{fill:#061922;}.c{fill:#bbc4ca;}.d{fill:#0064b1;}.e{fill:none;mix-blend-mode:multiply;isolation:isolate;}</style></defs><g transform="translate(-78.225 -952.219)"><path class="a" d="M252.583,1054.1c.921-2.28,4.413-10.912,4.413-10.912l-14.694,8.244a117.187,117.187,0,0,1-10.62,5.092,205.653,205.653,0,0,0,8.632-26.235,380.16,380.16,0,0,0,8.1-42.675l1.115-8.826s-27.69,7.662-30.357,8.438a53.582,53.582,0,0,0-81.955.1c-2.765-.776-30.552-8.535-30.552-8.535l1.164,8.874a382.888,382.888,0,0,0,8.39,42.869,216.216,216.216,0,0,0,8.68,25.363c-6.644-2.813-12.221-5.48-12.269-5.48L99,1043.87s3.249,8.244,4.171,10.524c-.194-.049-4.947-1.892-4.947-1.892l4.559,12.318v-.049c.291.922,2.23,6.159,17.021,45.924l2.037,5.48s3.3-1.067,4.267-1.358c.825,2.183,2.959,7.953,2.959,7.953l5.964-3.055c4.559-2.327,14.258-6.3,22.162-7.565,9.36,12.851,16.682,19.495,17.022,19.786l4.025,3.637,3.976-3.734a152.2,152.2,0,0,0,16.876-19.737,58.377,58.377,0,0,1,20.077,6.837l5.819,3.2,2.522-6.11s.291-.728.63-1.552c.485.145,3.3,1.115,3.3,1.115l2.134-5.48c.436-1.066,9.844-23.131,18.913-44.42l6.061-14.209C258.5,1051.532,252.631,1054.1,252.583,1054.1Z"/><path class="b" d="M243.514,1053.569a135.3,135.3,0,0,1-16.245,7.42,214.182,214.182,0,0,0,10.717-31.328h0a392.684,392.684,0,0,0,8.05-42.384l.63-5.189-5.043,1.407s-62.024,17.215-63.867,17.7c-1.794-.485-68.232-19.107-68.232-19.107l.679,5.238a376.128,376.128,0,0,0,8.341,42.578,231.454,231.454,0,0,0,10.815,30.454c-8.875-3.491-17.7-7.71-17.846-7.759l-8-3.831,3.3,8.293c7.9,19.882,11.881,30.794,16.973,44.614l6.546,17.749,3.492-1.794c5.237-2.667,16.052-6.983,24.393-8,9.6,13.432,17.215,20.319,17.506,20.61l2.376,2.133,2.328-2.182a158.656,158.656,0,0,0,17.458-20.561,60.726,60.726,0,0,1,22.356,7.322l3.394,1.891,1.5-3.588c3.879-9.359,23.035-56.787,23.229-57.272l3.734-9.165Z"/><path class="a" d="M250.5,1055.848c-.145.049-15.518,6.6-28.078,9.748,4.9-11.3,9.166-21.483,13.094-36.565h0a396.572,396.572,0,0,0,8-42.045l.194-1.5-1.5.388s-63.964,17.749-64.5,17.894c-.533-.145-65.321-18.282-65.321-18.282l.193,1.552a375.131,375.131,0,0,0,8.293,42.238c3.54,13.045,7.662,22.938,11.687,32.492,0,0,.728,1.7,1.309,3.152-10.862-2.764-25.556-7.905-25.75-7.953l-2.085-.728.776,2.037c6.449,17.167,9.747,26.381,13.239,36.128l7.08,19.641.921-.291a211.912,211.912,0,0,1,31.085-6.644,125.885,125.885,0,0,0,18.137,21.24l.679.582.679-.63A142.236,142.236,0,0,0,196.62,1107.2c8.341.533,23.859,4.073,29.776,6.4l.921.388.388-.921c3.88-9.36,23.859-55.381,24.053-55.866l1.019-2.376Z"/><path class="c" d="M218.928,1068.505l.824-1.842c5.431-12.512,9.7-22.356,13.821-38.117h0a369.421,369.421,0,0,0,7.71-40.25c-2.861.776-63.285,17.555-63.285,17.555l-.291.1s-59.987-16.779-62.848-17.6a362.516,362.516,0,0,0,8,40.444c3.492,12.948,7.614,22.744,11.59,32.2l2.862,6.886,22.84,37.1.34.534a130.559,130.559,0,0,0,17.458,20.755,153.139,153.139,0,0,0,17.361-20.61l.339-.485Z"/><path class="b" d="M134.6,1046.052c-.631-.872-3.249-5.091-3.249-12.123h0v-.631h0a45.219,45.219,0,0,1-2.813-15.615h0a46.088,46.088,0,0,1,14.548-33.364h0a50.977,50.977,0,0,1,35.11-13.821h0a50.886,50.886,0,0,1,35.11,13.821h0a45.733,45.733,0,0,1,14.548,33.364h0a45.581,45.581,0,0,1-2.182,13.87h0a44.336,44.336,0,0,1-7.177,24.247h0a3.842,3.842,0,0,1-.921.63h0a.048.048,0,0,0-.049.049h0a.285.285,0,0,0-.1.242h0a8.37,8.37,0,0,1-.242.97h0l.1-.048-.194.291a47.067,47.067,0,0,1-38.165,19.2h0a46.644,46.644,0,0,1-44.324-31.085Z"/><path class="d" d="M245.357,1059.97c-.291.146-31.667,13.676-67.6,13.482h0c-31.618-.146-67.456-13.676-67.844-13.821l-7.565-2.91,2.716,7.274c.048.194.048.194,17.021,45.925l1.213,3.3,3.346-1.067a175.832,175.832,0,0,1,51.016-7.9c21.968,0,41.172,4.51,49.028,7.225l3.346,1.116,1.309-3.3c.485-1.212,11.59-27.254,18.913-44.518l3.637-8.535Z"/><path class="a" d="M245.7,1064.383l-3.2,1.164s-7.08,2.57-7.129,2.619a14.91,14.91,0,0,0-4.9,2.619,13.572,13.572,0,0,0-2.037,2.279,3.234,3.234,0,0,0,.194-.582l.97-2.619-2.715.728-6.45,1.7h0c-.631.145-4.995,1.067-6.3,1.358l-1.5.242-7.516,1.261c-.34.049-3.249.582-4.753,2.085a6.381,6.381,0,0,0-.873,1.116l.437-2.522-1.892.194-6.11.582-.194,1.6a2.747,2.747,0,0,0-.533-.533,6.032,6.032,0,0,0-3.637-.825l-8.923.243h0l-7.226-.049a6.517,6.517,0,0,0-4.122,1.6,4.9,4.9,0,0,0-.63.776c-.049-.873-.049-1.358-.049-1.358l-.048-1.31s-7.275-.679-7.565-.679h0l-8.826-1.115.388,1.988.1.534a11.6,11.6,0,0,0-5.285-3.2c-.049,0-9.069-2.037-9.069-2.037l.582,2.328.437,1.746a6.339,6.339,0,0,0-.825-1.261,9.842,9.842,0,0,0-4.995-3.879c-2.231-.825-6.74-1.892-6.934-1.94l-2.571-.582h0c-2.327-1.019-7.468-2.667-9.165-3.249l-2.861-.922,1.067,2.861,14.936,40.348s5.868-1.6,6.159-1.7h0s6.11-1.454,6.6-1.551c.291-.049,6.45-1.164,6.45-1.164v-.049c1.7-.242,5.14-.776,5.479-.824.291-.049,3.25-.485,4.9-.679h0l6.208-.63a7.492,7.492,0,0,0,3.734-1.116,6.28,6.28,0,0,0,.97-1.018l.1,1.7,7.322-.242h.049a6.032,6.032,0,0,0,3.491-1.5,4.334,4.334,0,0,0,.437-.485l-.049,1.892s5.626.145,5.868.145h0l6.692.194h0l4.8.388,6.111.679a8.036,8.036,0,0,0,4.364-.873,1.742,1.742,0,0,0,.485-.339l-.485,1.745,6.256,1.067v-.048c.194.048,4.51.824,5.528,1.018l.679.194a17.268,17.268,0,0,0,5.577.534,9.629,9.629,0,0,0,7.129-5.674l6.207-14.355h-.049C236.967,1084.6,245.7,1064.383,245.7,1064.383Z"/><path class="b" d="M190.558,1099.057l3.88.291,3.686-21.871-4.9.485Z"/><path class="b" d="M206.658,1079.126l-1.842,7.807,4.849-.145,3.2-11.445L205.4,1076.6s-2.716.436-3.977,1.7a9.883,9.883,0,0,0-2.134,4.85l-2.958,16.342,4.85.485a6.881,6.881,0,0,0,3.54-.582A5.075,5.075,0,0,0,207,1096.39c.388-1.164,1.5-5.82,1.5-5.82h-4.607l-.97,4.656a4.679,4.679,0,0,1-.824,1.843,2.446,2.446,0,0,1-1.988.824l3.2-14.645a13.056,13.056,0,0,1,1.213-3.007A2.783,2.783,0,0,1,206.658,1079.126Z"/><path class="b" d="M215,1087.321l4.171-13.239L214.9,1075l-7.469,25.847,3.346.534,3.492-11.057,1.018-.049a1,1,0,0,1,.631.873,4.355,4.355,0,0,1-.291,1.358l-2.958,9.165,3.928.728,3.249-9.505a8.236,8.236,0,0,0,.388-2.328,4.612,4.612,0,0,0-.825-2.085,3.029,3.029,0,0,0,1.892-1.067,5.209,5.209,0,0,0,1.358-2.619c.291-.775,4.607-12.754,4.607-12.754l-5.626,1.407-3.3,10.669a6.813,6.813,0,0,1-.776,1.891c-.534.776-.922,1.067-1.213,1.115A5.877,5.877,0,0,1,215,1087.321Z"/><path class="b" d="M234.494,1074.276l-3.637,9.8,5-.242,7.129-16.876-7.129,2.618a15.417,15.417,0,0,0-4.461,2.328,18.272,18.272,0,0,0-3.638,5.092,53.223,53.223,0,0,0-2.279,5.771c-.291,1.164-2.715,7.71-2.715,7.71h5.673l-2.424,6.4a6.953,6.953,0,0,1-1.213,2.618,3.679,3.679,0,0,1-2.279,1.31l3.249-8.244h-3.491l-3.783,10.28a15.7,15.7,0,0,0,4.995.582,8.144,8.144,0,0,0,5.965-4.8c1.212-2.764,5.237-12.172,5.237-12.172l-6.741.34,2.086-6.014a25.525,25.525,0,0,1,2.424-4.655A8.321,8.321,0,0,1,234.494,1074.276Z"/><path class="b" d="M112.337,1066.663l14.451,39.086,4.268-1.212-10.717-31.619s1.6.146,2.958,2.619a24.253,24.253,0,0,1,2.424,5.868c.388,1.552,7.226,22.695,7.226,22.695l4.365-1.018-8.341-27.787s1.066,0,2.133,1.842a16.457,16.457,0,0,1,1.5,3.4l6.4,22.21,4.17-.824-5.334-20.61a26.387,26.387,0,0,0-2.57-5.529,8.448,8.448,0,0,0-4.268-3.3c-2.133-.728-6.789-1.94-6.789-1.94l.679,2.085a14.3,14.3,0,0,0-2.958-2.521C120.678,1069.475,112.337,1066.663,112.337,1066.663Z"/><path class="b" d="M151.132,1100.609l3.638-.485-3.1-16.246a20.369,20.369,0,0,0-1.649-5.043c-1.6-2.522-5.043-3.4-5.043-3.4l-6.693-1.358,6.935,27.5,4.122-.678-2.57-10.281,2.376.048Zm-4.849-12.512-2.328-10.135a5.3,5.3,0,0,1,2.183,1.067c.824.776,1.066,2.958,1.066,2.958l1.213,6.062h-2.134Z"/><path class="b" d="M152.005,1076.555l4.607,23.375,4.947-.534a8.135,8.135,0,0,0,2.909-.582,3.593,3.593,0,0,0,1.358-2.618l-.582-18.137-4.752-.485,1.746,17.167a3.669,3.669,0,0,1-.679,2.376,1.548,1.548,0,0,1-1.358.533l-2.473-20.367Z"/><path class="b" d="M167.863,1098.96l5.819-.243a4.847,4.847,0,0,0,2.619-1.067,5,5,0,0,0,1.115-2.57l.1-3.3-3.928.048.049,3.249a2.641,2.641,0,0,1-.437,1.6c-.388.388-1.745.339-1.745.339v-6.547h6.061l.146-1.988-6.3.049v-5.771a1.59,1.59,0,0,1,.533-1.261,2.647,2.647,0,0,1,1.7-.34v5.965h4.171l.533-8.535-6.983-.145a5.358,5.358,0,0,0-3.1,1.164c-1.357,1.309-1.212,4.316-1.212,4.316Z"/><path class="b" d="M190.219,1079.077c-.776-.776-2.667-.679-2.667-.679l-7.565.194-.776,20.125,3.831.1.485-8.292s1.212-.388,1.794.436a2.11,2.11,0,0,1,.339,1.213l-.485,6.643,3.735.194.678-6.692a4.163,4.163,0,0,0-.194-2.037,1.828,1.828,0,0,0-1.163-.97s.533,0,1.357-.921a3.715,3.715,0,0,0,.825-2.231l.485-4.607A3.6,3.6,0,0,0,190.219,1079.077Zm-3.88,2.473-.291,5.141a2.109,2.109,0,0,1-.291,1.067,1.059,1.059,0,0,1-.63.436l-1.406-.048.436-7.614,1.018-.049a1.456,1.456,0,0,1,.873.194C186.388,1080.92,186.339,1081.55,186.339,1081.55Z"/><path class="b" d="M186.97,1107.786l4.752-1.164-4.849-.437c-.194,0-4.7-.436-6.935-.436-.291-.873-2.182-6.692-2.182-6.692l-.825,2.231c-.048.145-1.066,2.909-1.6,4.51-2.619,0-6.062.339-6.256.339l-5.092.533,4.995,1.067c1.5.34,4.607,1.407,4.9,2.716-.388,1.552-1.455,4.267-1.455,4.316l-.969,2.522s5.431-3.831,6.207-4.365c.776.534,6.062,4.268,6.062,4.268s-2.183-6.3-2.377-6.79C181.829,1109.532,184.545,1108.368,186.97,1107.786Z"/><path class="a" d="M180.035,1110.259c.34-1.358,2.57-2.376,4.413-2.958-1.794-.146-4.073-.34-5.189-.34h-.291s-.873-2.57-1.358-3.928c-.436,1.164-1.018,2.91-1.26,3.686l-.1.291h-.291c-1.261,0-3.007.1-4.365.194,1.6.63,3.443,1.649,3.637,3.2v.194a26.475,26.475,0,0,1-1.067,3.347c1.261-.873,3.54-2.474,3.54-2.474s2.377,1.649,3.589,2.522c-.485-1.358-1.261-3.589-1.261-3.589Z"/><path class="a" d="M131.1,1017.732c0-24.587,21.144-44.615,47.137-44.615s47.136,20.028,47.136,44.615-21.143,44.615-47.136,44.615C152.248,1062.3,131.1,1042.318,131.1,1017.732Z"/><path class="b" d="M149.581,987.811l.1-.1c.582-.485,1.067-.582,1.454-.1.34.436.049.921-.436,1.358l-.1.1Zm.194,3.443,1.988-1.6c1.261-1.019,1.7-2.377.97-3.3-.922-1.164-2.425-.727-3.88.436l-1.6,1.31Z"/><path class="b" d="M161.462,982.185l-.146-1.309.049-.048a2.684,2.684,0,0,0,.339.436l.485.582Zm0,1.019,1.406-.582.388.388,1.988-.825-3.394-3.006-2.086.873-.242,4.51,1.988-.825Z"/><path class="b" d="M171.306,976.706l2.037-.243.291,2.764,1.7-.194.146,1.31-3.734.436Z"/><path class="b" d="M182.9,976.463l2.037.291-.388,2.716,1.7.242-.194,1.31-3.685-.534Z"/><path class="b" d="M195.214,982.379l.824-.969.049.048c-.049.194-.049.34-.1.533l-.049.776Zm-.728.728,1.407.63-.049.534,1.988.873-.193-4.559-2.086-.921-3.394,2.958,1.988.873Z"/><path class="b" d="M204.622,987.811l.048.1a3.155,3.155,0,0,0,.728,1.115c.145.146.436.291.533.146s-.1-.34-.194-.485l-.242-.291c-.534-.582-.825-1.261-.437-1.746.631-.727,1.891-.388,2.813.388a4.637,4.637,0,0,1,1.164,1.406l-1.116.437a2.328,2.328,0,0,0-.727-.97c-.146-.1-.388-.243-.485-.1-.1.1.1.291.194.436l.291.34c.582.679.824,1.309.388,1.842-.631.728-1.891.34-2.813-.436a6.5,6.5,0,0,1-1.406-1.649Z"/><path class="b" d="M217.715,1006.336a6.6,6.6,0,0,0-.921-.679.47.47,0,0,1-.291-.291,4.627,4.627,0,0,0-.291-1.067,46.544,46.544,0,0,0-15.227-12.706,6.217,6.217,0,0,0-2.037-.533.537.537,0,0,1-.34-.146,5.858,5.858,0,0,0-1.794-1.212,47.626,47.626,0,0,0-17.894-3.492,43.408,43.408,0,0,0-5.674.34l2.473-3.3c-9.8-.291-16.827,7.371-16.827,7.371h0a45.266,45.266,0,0,0-6.693,3.832h0a11.107,11.107,0,0,0-6.6,5.964,36.415,36.415,0,0,0-3.831,4.51,11.088,11.088,0,0,0-1.746,1.358,18.6,18.6,0,0,0-4.461,8.729c-.049.1-.049.146-.1.243-.049.242-.1.582-.146.872l-.291,1.746.049-.048a.283.283,0,0,1-.049.194,29.1,29.1,0,0,0-.873,3.006c-.145.388-1.454,4.365-1.454,4.365h0v.048c-3.492,12.269,1.163,19.689,1.939,20.853a47.228,47.228,0,0,0,82.344,11.881h0a3.69,3.69,0,0,0,.339-1.164.525.525,0,0,1,.194-.388,3.859,3.859,0,0,0,.922-.63,44.917,44.917,0,0,0-.728-49.658Z"/><path class="a" d="M159.328,997.413l.339-.34c.146-.145.194-.194.243-.194l.048-.048a18.778,18.778,0,0,1,.582-4.219,21.14,21.14,0,0,1,11.251-7.517c.873-.242.291.146.291.146-4.413,4.946-3.928,9.02-3.928,9.02l4.219,15.372s-3.4-1.212-6.062-6.595c-1.212,10.766,8.923,19.495,8.923,19.495.437.388-.242-.049-.242-.049a30.188,30.188,0,0,1-6.256-4.7c.194.825,5.14,25.654,5.189,25.751a4.774,4.774,0,0,0,.145.533l1.7-4.267,1.406,12.56c-6.45,5.965-13.288,3.637-13.724,3.443a5.025,5.025,0,0,1,.291.485s5.577,10.911,28.224,9.747c0,0,.533,0,.485.049,0,0,0,.048-.146.1a8.033,8.033,0,0,1-1.115.242c-27.351,7.323-41.56-16-42.142-17.07a18.791,18.791,0,0,1-2.231-3.976c-.048-.049-.048-.243.049-.1,0,0,2.91,3.006,11.1,3.782h.1c-6.353-7.08-9.068-12.22-9.456-13h0a16.68,16.68,0,0,1-1.649-4.413s0-.146.1,0c.291.63,2.425,3.734,4.946,4.461h0a36.074,36.074,0,0,1-3.685-9.844c2.958,4.122,8.195,4.461,8.195,4.461a.047.047,0,0,0-.048-.048v.048c-8.632-8.583-6.741-17.943-3.249-24.732A43.264,43.264,0,0,1,159.328,997.413Z"/><path class="c" d="M185.127,1054.345l-5.674,5.965h0l6.983-5.335-3.588-12.463,1.6-14.984-2.764,14.305,3.443,12.512Z"/><path class="c" d="M183.721,1024.036a1.2,1.2,0,0,0,.339-.194h0a7.158,7.158,0,0,0,1.552-1.212h0a8.394,8.394,0,0,0,2.231-6.062h0a16.631,16.631,0,0,0-.776-4.7h0c-.1,2.085-.679,9.844-3.346,12.172Z"/><path class="c" d="M186.339,998.528a7.738,7.738,0,0,1,6.6-3.249h0a11.723,11.723,0,0,0-3.25-.485h0a10.037,10.037,0,0,0-3.346.533h0c-.582.194-.97.388-1.164.437h0a15.5,15.5,0,0,1,1.164,2.764Z"/><path class="c" d="M183.818,1004.784a.1.1,0,0,1,.1.1h0v.824h0a65.187,65.187,0,0,1-2.377,15.858h0a36.811,36.811,0,0,0,3.1-14.888h0a39.133,39.133,0,0,0-.436-5.674h0a12.341,12.341,0,0,0-.34-1.6h0c-.63,4.8-2.473,7.032-2.473,7.032h0c0,.048-.049.048-.1.048h0c-.049,0-.049,0-.1-.048h0a29.207,29.207,0,0,0-6.789-8.293h0a29.406,29.406,0,0,0-3.492-2.57h0a93.734,93.734,0,0,1,7.856,25.265h0v-1.115h0a62.191,62.191,0,0,0-1.309-11.493h0c-.631-3.4-1.309-5.771-1.309-5.771h0c0-.048,0-.1.048-.1h0a.067.067,0,0,1,.1,0h0c2.57,1.988,4.413,7.711,4.7,8.778h0a16.428,16.428,0,0,0,1.649-3.444h0c.533-1.5.97-2.861.97-2.861h0c.145,0,.145-.048.194-.048Zm-2.425,1.649.1-.049-.1.049Z"/><path class="c" d="M135.517,1030.728c0,5.917,1.019,12.124,6.159,20.077h0c4.8,10.184,13.724,15.615,17.846,17.749h0c1.358.679,2.231,1.018,2.231,1.018h0a42.775,42.775,0,0,0,18.331,4.268h0a43.473,43.473,0,0,0,24.1-7.517h0a23.341,23.341,0,0,0,1.892-1.406h0l.048.1-.048-.1c.242-.194.436-.34.581-.485h0a1.045,1.045,0,0,1-.242.145h0c-.242.146-.485.291-.485.34h0a47.44,47.44,0,0,1-24.15,6.934h0a38.1,38.1,0,0,1-17.555-3.976h0c-22.6-11.833-22.889-32.346-22.889-32.394h0a.1.1,0,0,1,.1-.1h0c.048,0,.1,0,.1.048h0c2.909,5.626,6.449,7.565,8,8.2h0c.243.1.388.145.534.194h0c-6.547-8.293-8.438-15.227-8.438-20.465h0a18.019,18.019,0,0,1,3.3-10.911h0a.15.15,0,0,1,.1-.049h0c.049,0,.049.049.049.1h0a33.231,33.231,0,0,0-.631,6.5h0a22.324,22.324,0,0,0,.97,6.837h0a18.914,18.914,0,0,0,.679,1.8h0a41.916,41.916,0,0,1-.291-4.85h0a38.137,38.137,0,0,1,11.008-26.866h0A16.561,16.561,0,0,0,152.2,999.5h0c-1.551,1.6-2.764,3.1-2.764,3.1h0c-.048.048-.048.048-.1.048h0c-.048,0-.048-.048-.048-.1h0a9.225,9.225,0,0,1,1.115-3.54h0a13.744,13.744,0,0,0-2.813,4.171h0a20.351,20.351,0,0,0-1.163,2.958h0v.048a31.094,31.094,0,0,0-4.947,7.711h0a24.688,24.688,0,0,0-1.358,3.637h0a3.69,3.69,0,0,1-.194.582h0s0,.048-.1.1h0c-.145-.049-.1-.1-.1-.146h0v-.145h0a2.663,2.663,0,0,1,.049-.437h0a23.389,23.389,0,0,1,1.746-7.419h0c-3.444,3.685-4.268,8.729-4.268,12.705h0a25.962,25.962,0,0,0,.776,6.692h0a44.773,44.773,0,0,0,.921,7.614h0c.437,2.328.922,4.074.922,4.074h0a3.234,3.234,0,0,1,.194.775h0v.049h0c0,.048-.049.048-.1.048h0c-.146-.048-.1-.1-.194-.145h0a1.063,1.063,0,0,1-.146-.242h0a3.816,3.816,0,0,1-.194-.34h0c-2.424-3.686-3.588-9.8-3.831-11.3h0a1.654,1.654,0,0,0-.1.727Z"/><path class="d" d="M211.7,1004.59A41.3,41.3,0,0,0,180.035,989.8H179.5a.249.249,0,0,0-.243.194c0,.146.1.194.243.243a31.808,31.808,0,0,1,4.655,4.413l.049.048.048-.048a8.238,8.238,0,0,1,1.358-.485,13.2,13.2,0,0,1,3.54-.485,13.348,13.348,0,0,1,6.644,1.745c-1.019.485-6.208,3.1-7.274,6.062v.049l.048.048s5.237,4.753,15.955,4.753a39.019,39.019,0,0,0,5.577-.388,5.92,5.92,0,0,0,.921-.194c.436-.146.97-.34.97-.825C211.9,1004.881,211.847,1004.735,211.7,1004.59Z"/><path class="d" d="M189.443,1025.3a.1.1,0,0,0-.146.145s.146.146.34.388a10.937,10.937,0,0,1,1.794,6.4,23.034,23.034,0,0,1-2.424,9.65,19.663,19.663,0,0,0-.388-3.492c-.388-1.988-1.116-4.17-2.716-4.655h-.1l-.049.048-.969,8.729v.049l3.54,13.045-6.935,5.577c-.049,0-.049.048-.049.1s.049.048.049.1a26.026,26.026,0,0,0,7.274.873,41.991,41.991,0,0,0,8.778-.97,1.675,1.675,0,0,0,1.115-1.019,45.319,45.319,0,0,0,.776-8.68C199.384,1044.064,197.687,1033.1,189.443,1025.3Z"/><path class="d" d="M200.839,1060.5a.606.606,0,0,1-.194-.534h0a1.2,1.2,0,0,1,.049-.388h0a22.017,22.017,0,0,0,.533-2.812h0a46.665,46.665,0,0,0,.534-7.274h0c0-7.857-1.892-18.865-10.669-27.4h0a.628.628,0,0,0-.146-.1h0a.3.3,0,0,1-.145-.242h0a.1.1,0,0,1,.1-.1h.1a1.378,1.378,0,0,1,.388.048h0a9.983,9.983,0,0,1,3.976,2.571h0a16.488,16.488,0,0,0-.485-2.328h0a13.772,13.772,0,0,0-2.715-5.189h0l-.194-.194h0c-.1-.146-.194-.194-.194-.34h0a.152.152,0,0,1,.048-.1h0c.049-.048.049-.048.1-.048h0c.1,0,.194.1.437.242h0c.533.243,22.55,10.912,23.325,32.443h0v.34h0a3.03,3.03,0,0,1-.776,2.182h0c-.193.291-5.431,6.741-13.093,9.262h0a1.5,1.5,0,0,1-.485.1h0a.821.821,0,0,1-.485-.145Zm-9.844-38.747Z"/><path class="d" d="M217.327,1044.695c-.436-17.749-17.167-29.873-25.508-34.819h0c-2.764-1.649-4.607-2.473-4.607-2.522h0l-.388-.194h.485a7.14,7.14,0,0,1,5.335,2.425h0a7.955,7.955,0,0,0-.437-2.279h0l-.1-.194.194.1a24.336,24.336,0,0,0,8.438,1.212h0a58.627,58.627,0,0,0,7.856-.582h0c2.134-.291,3.492-.582,3.54-.582h.291a1.719,1.719,0,0,1,1.649.776h0c2.861,3.152,6.353,10.523,6.935,19.3h0c.1,1.115.1,2.182.1,3.2h0c0,6.644-1.358,11.736-2.425,13.87h0c-.388.727-.63,1.115-.97,1.164h0c-.291,0-.339-.291-.388-.873h0"/><path class="b" d="M169.075,987.326l.049-.049h0c-.243.049-4.753,1.407-6.11,8.293,0,0,0,.145.048,0,.388-.679,1.843-2.813,3.1-2.182v-.146A13.511,13.511,0,0,1,169.075,987.326Z"/><path class="b" d="M165.632,1049.641c-.97-1.988-7.274-15.664-7.274-15.664-1.94.631-4.364-.969-4.364-.969h0c3.1,8.195,10.377,15.372,11.541,16.682h0c.194.194.194.145.194.145C165.729,1049.787,165.681,1049.738,165.632,1049.641Z"/><path class="b" d="M159.425,1004.978c-5.674,12.948,7.08,18.282,7.274,18.379h0l-.679-3.007-.388-1.7c-.339-.1-.63-.242-.921-.339l-.291-.146a1.207,1.207,0,0,1-.34-.194c-5.576-2.958-5.043-10.038-4.7-12.366v-.048a.292.292,0,0,1,.048-.194,1.953,1.953,0,0,1,.1-.437v-.048h0C159.522,1004.735,159.425,1004.929,159.425,1004.978Z"/><path class="c" d="M167.815,1041.446l-.922-16.3,5.48,18.137C172.373,1043.337,170.579,1039.021,167.815,1041.446Z"/><path class="c" d="M172.324,1009.633,168.1,994.261v.339l1.213,9.747a1.2,1.2,0,0,1,.048.34c0,.533-.339,1.261-2.909-1.455l-.194-.194C168.93,1008.469,172.324,1009.633,172.324,1009.633Z"/><path class="c" d="M162.335,1012.4a5.753,5.753,0,0,1-.485-2.182,4.856,4.856,0,0,1,1.746-3.685l.048-.049a34.733,34.733,0,0,1,.049-3.928c-1.407,2.037-4.365,6.935-.825,10.766-.048-.1-.1-.146-.145-.243A3.361,3.361,0,0,1,162.335,1012.4Z"/><path class="b" d="M166.02,1014.386a21.489,21.489,0,0,1-2.376-7.856v-.049l-.048.049a4.978,4.978,0,0,0-1.746,3.685,5.567,5.567,0,0,0,.485,2.182c.1.194.242.388.388.679a1.077,1.077,0,0,1,.145.243c.049.1.146.145.243.242a4.629,4.629,0,0,0,3.249,1.407A4.134,4.134,0,0,1,166.02,1014.386Z"/><path class="c" d="M171.112,1043.531s-2.667-.679-2.522,4.9h0a1.084,1.084,0,0,1,.146-.485c.824-1.843,1.552-2.57,2.231-2.619.582,0,1.018.534,1.357,1.261a16.426,16.426,0,0,1,.873,2.619c.194.776.34,1.551.437,2.182a11.756,11.756,0,0,1,.1,1.5v.049h0C173.828,1052.357,175.04,1044.6,171.112,1043.531Z"/><path class="b" d="M173.731,1052.987v-.048c-.049-.631-.049-1.116-.1-1.5-.1-.63-.243-1.406-.437-2.182a11.824,11.824,0,0,0-.873-2.619c-.339-.727-.775-1.212-1.357-1.26-.679,0-1.407.775-2.231,2.618-.049.146-.1.34-.146.485h0l1.358,2.91s.776-7.856,3.783,1.6Z"/></g><rect class="e" width="200" height="200"/></svg>