<svg xmlns="http://www.w3.org/2000/svg" width="200" height="200" viewBox="0 0 200 200"><defs><style>.a{fill:#fff;}.b{fill:#b3b2b1;}.c{fill:#003da6;}.d{fill:#ff671b;}.e{fill:none;mix-blend-mode:multiply;isolation:isolate;}</style></defs><g transform="translate(-390.77 -1552.395)"><path class="a" d="M490.739,1723.5l-11.687-15.178a38.355,38.355,0,0,1-26.236-33.995l-7.274-9.408a97.054,97.054,0,0,0-13.821,7.662l-21.774-21.822,9.166-20.174-16.343-21.337h26.09l5.043-11.009,12.9-5.189,1.406-3.879,10.523,4.752,2.474-8.729,1.7-.533a89.922,89.922,0,0,1,27.593-4.268c.291,0,3.395.049,3.492.049.339,0,1.843.1,1.843.1a86.372,86.372,0,0,1,23.083,4.073l1.7.534,2.279,8.341,3.783-2.861,21.241,7.468,5.091,11.154h26.236l-16.585,21.386,9.02,19.834-22.114,22.744s-8.1-5.917-13.675-8.1l-6.644,8.584a38.546,38.546,0,0,1-26.963,34.818Z"/><path class="b" d="M490.787,1712.928,566.2,1615.7H415.815Z"/><path class="c" d="M409.656,1612.691l81.083,105.281L572.4,1612.691ZM566.2,1615.7l-75.409,97.231L415.815,1615.7Z"/><path class="c" d="M555.285,1622.487l-.049-.049-.048-.048-4.85-3.25,1.795-3.443.048-.1-.048-.1-6.644-14.6-.049-.1-.1-.049-17.846-6.353-.1-.048-.1.1-4.752,3.637-.048.048v.049l-.825,2.037a145.3,145.3,0,0,0-18.331-2.959c-1.115-.1-4.073-.339-8.826-.727l-.436-.048-.534-.049h-.1l-.1.1-3.54,3.54v-3.637s-10.038.534-16.585,1.455-13,2.522-13,2.522l-1.213-2.522-.048-.1-.1-.049-8.438-3.879-.243-.1-.1.242-.969,2.668-.194-.534-.1-.194-.194.1-12.124,4.85-.1.048-.048.049-22.308,48.979,18.283,18.331.872-.485c.534-.291,1.31-.776,2.231-1.31,2.231-1.309,5.238-3.055,6.692-3.782l.291-.146c1.843-.921,2.813-1.357,11.688-5.189l.775-.291s1.019-.387,2.813-1.018c4.9-1.6,17.6-5.383,29.921-5.383h1.6c8.39.243,18.089,2.037,24.878,3.443,6.45,1.407,11.348,2.716,12.706,3.1l.921.291a122.9,122.9,0,0,1,20.513,10.669l.921.533,18.525-19.058Z"/><path class="d" d="M553.248,1624.184l-17.8-11.881-3.055-8.681,5.48,1.989,2.231,5.431,8.389,2.667-4.9-10.814-15.858-5.577-2.91,2.279,5.238,17.119,16.924,11.929,4.316,10.815-7.08-3.2-2.425-6.741L533.171,1627l4.656,15.227c1.406.485,2.812,1.067,4.219,1.6,3.831,1.552,7.613,3.3,11.3,5.14,2.57,1.31,5.043,2.668,7.516,4.122l3.686-3.782Z"/><path class="d" d="M433.176,1632.234l5.916-5.286,1.407,1.649-5.868,16.827c3.249-1.406,6.45-2.715,9.8-3.879l4.219-13.87-3.686-6.061,7.565-7.226,4.462-14.791-5.432-2.473-4.9,13.918-7.856,6.741,7.129-17.943-7.711,3.055L417.027,1649.4l3.346,3.346c1.989-1.164,3.977-2.279,6.014-3.3Z"/><path class="d" d="M486.908,1599.064l-6.5.339-3.055,34.916c2.764-.242,5.529-.436,8.39-.533Z"/><path class="d" d="M506.16,1627.045l-7.565-.436-1.213-21.386,6.4.291-.776-5.917-8.584-.582-3.831,3.831v26.721l4.025,4.122c4.171.145,8.293.436,12.366.97Z"/><path class="d" d="M463.388,1612.836l2.716,13.288-1.746,10.038c2.619-.485,5.286-.97,7.953-1.309h0l4.17-35.013-6.061.873-1.989,11.444-2.182-10.668-7.129,1.745-9.795,36.662c2.812-.921,5.77-1.649,8.632-2.376Z"/><path class="d" d="M515.859,1625.154l2.134-2.861,3.1,2.57,2.861,13c2.958.776,5.965,1.6,8.875,2.57l-5.335-19.058-5.479-4.51,3.1-4.17-2.618-9.7-6.6-1.455,2.619,9.747-4.122,5.48-3.055-16.051-6.159-.776s3.055,23.519,4.558,35.11c2.765.388,5.529.872,8.293,1.406Z"/><path class="b" d="M478.276,1640.914a21.131,21.131,0,0,1,7.662-2.085l-.146-4.025c-2.812.1-5.577.243-8.389.534.242,1.6.63,3.976.873,5.576"/><path class="b" d="M494.57,1638.587a45.111,45.111,0,0,1,6.256,1.454,30.394,30.394,0,0,1,5.237,1.843l.873-6.207c-4.122-.485-8-.824-12.221-.97-.1,1.309-.1,3.055-.145,3.88"/><path class="b" d="M467.607,1648.431c2.376-1.746,3.831-3.589,6.3-5.14-.436-2.28-1.115-5.189-1.552-7.42-2.715.339-5.431.824-8.1,1.309,1.067,3.443,2.376,7.9,3.346,11.251"/><path class="b" d="M508.148,1643.242a30.6,30.6,0,0,1,6.207,4.9l.388.291,3.3-10.863c-2.813-.582-5.528-1.115-8.438-1.5Z"/><path class="b" d="M518.477,1652.65l7.808,1.794,6.547-12.948c-3.007-1.018-5.965-1.794-9.02-2.57Z"/><path class="b" d="M455.677,1654.444c2.037-.776,4.9-1.745,7.517-2.473l-5.043-13.433c-3.056.776-5.771,1.5-8.729,2.473,1.939,4.51,4.025,9.166,6.255,13.433"/><path class="b" d="M443.942,1659.294c.436-.388,4.9-2.328,7.9-3.589-2.327-4.17-5.092-8.777-7.371-13-3.346,1.164-6.3,2.424-9.553,3.831Z"/><path class="b" d="M432.885,1665.113c1.406-.873,2.91-1.7,4.558-2.667l-10.329-12.221c-1.988,1.019-3.928,2.086-5.868,3.249Z"/><path class="b" d="M530.359,1656.045a121.636,121.636,0,0,1,18.379,9.6c1.6-1.5,10.232-10.571,11.445-11.832a137.469,137.469,0,0,0-22.6-10.669Z"/><path class="b" d="M493.357,1638.393l-2.958-.1-.1-7.226,3.1,3.249Z"/><path class="c" d="M491.078,1636.986a34.916,34.916,0,1,0,34.916,34.916,34.926,34.926,0,0,0-34.916-34.916"/><path class="d" d="M493.212,1639.6c-2.667.97-5.237,2.279-7.808,3.492-1.745-1.067-2.715-1.31-3.928-2.086a30.458,30.458,0,0,1,11.736-1.406"/><path class="d" d="M518.235,1654.444c-8.244-8.292-20.562-7.71-31.036-10.62a77.345,77.345,0,0,1,9.311-3.734,32.091,32.091,0,0,1,21.725,14.354"/><path class="d" d="M471.971,1655.657a40.574,40.574,0,0,0-2.667,40.153c-8.1-6.789-12.948-20.077-9.311-32.879,2.958-4.219,6.838-7.905,11.978-7.274"/><path class="d" d="M480.458,1664.337c4.219,12.657,5.189,26.672,16.246,39.426-8.632,1.746-17.119-.873-23.908-5.14-8.438-12.269-7.614-30.6.824-42.53,4.025,1.212,6.256,6.595,6.838,8.244"/><path class="d" d="M474.542,1654.784a35.671,35.671,0,0,1,4.316-5.092c17.894,5.043,34.964,23.617,37.874,41.8a37.01,37.01,0,0,1-4.268,4.7,31.518,31.518,0,0,1-14.015,7.177c-8.389-8.68-11.105-19.931-14.063-31.036-2.279-8.535-3.831-14.937-9.844-17.555Z"/><path class="d" d="M516.295,1654.687c-8.632-7.614-20.658-6.644-30.745-10.184a36.562,36.562,0,0,0-5.48,4.073c17.894,5.577,34.14,23.084,37.971,41.172a31.3,31.3,0,0,0,5.189-13.772c.436-7.662.388-14.646-6.935-21.289"/><path class="d" d="M477.4,1649.11a36.924,36.924,0,0,0-4.365,5.189h-.048c-4.753-1.067-8.487,1.406-11.445,4.461a30.046,30.046,0,0,1,7.614-10.668,27.809,27.809,0,0,1,8.244,1.018"/><path class="d" d="M478.664,1647.995A36.524,36.524,0,0,1,484,1643.97l-4.607-2.28a29.877,29.877,0,0,0-8.583,4.947,41.8,41.8,0,0,1,7.856,1.358"/><path class="c" d="M486.132,1594.166l-1.407,1.406-2.424.146-.922-.825-1.164.97-2.618.243-1.164-1.116,1.5-10.329,2.037-.242-1.067,9.165,1.406-.146,1.116-9.116,1.988-.194-.824,9.068,1.406-.146.727-9.019a15.012,15.012,0,0,1,2.037-.1Z"/><path class="c" d="M492.582,1583.74v6.5h1.26l-.1-6.45s1.358.049,1.94.1l.243,7.274-1.213,1.213h-.388l.049,3.1-2.182-.048v-3.1l-.437-.048-1.309-1.358.1-7.274c.727.1,2.037.1,2.037.1"/><path class="c" d="M476.481,1584.952l-.339,2.134-2.425.436-.436,2.473c.921-.145,1.406-.242,2.473-.388-.145.922-.194,1.261-.339,2.134l-2.425.34-.437,2.376,2.474-.34s-.243,1.6-.34,2.328c-1.7.194-3.491.437-5.14.776,0,0,1.843-8.68,2.327-11.348Z"/><path class="c" d="M467.413,1597.609l-2.522.485,1.164-4.753-.776-1.7-2.037,6.789-2.473.534c1.019-3.686,2.085-7.371,3.055-11.057.873-.291,1.455-.436,2.231-.727.243.582.97,1.842.97,1.842l.582-2.327,2.328-.582Z"/><path class="c" d="M502.765,1585.776c.243,2.958.776,5.82,1.067,8.535l-1.115,1.649-3.54-.242-1.261-1.407c-.194-3.006-.388-6.061-.534-9.068a14.156,14.156,0,0,1,1.213-1.212l2.958.291Zm-3.249.485.679,7.08,1.261.1-.679-7.031Z"/><path class="c" d="M514.258,1586.8c.437,1.7,1.31,5.189,1.31,5.189l.873.145.388-.533-1.067-4.316s1.067.291,2.182.582l1.115,4.17-.485.776.97,1.067,1.455,5.092-2.425-.534-.969-3.588-1.5-.34.825,3.589-2.474-.485c-.872-3.831-2.424-11.4-2.424-11.4s1.309.291,2.23.582"/><path class="c" d="M510.427,1587.231l.825,4.219-.437.679.825,1.018.727,4.171-2.376-.388-.679-3.492-1.406-.145.485,3.4-2.377-.291-1.551-11.591,4.558.825Zm-3.394.146.388,2.909,1.309.146-.533-2.861Z"/></g><rect class="e" width="200" height="200"/></svg>