<svg xmlns="http://www.w3.org/2000/svg" width="200" height="200" viewBox="0 0 200 200"><defs><style>.a{fill:#8b2332;}.b{fill:#f9a01b;}.c,.e{fill:none;}.c{stroke:#f9a01b;stroke-width:0.084px;}.d{fill:#fff;}.e{mix-blend-mode:multiply;isolation:isolate;}</style></defs><g transform="translate(-1008.336 -1252.801)"><path d="M1167.06,1309.208c-4.559-5.029-14.62-9.112-27.582-11.581.057-1.488.965-2.119,2.578-3.235a21.759,21.759,0,0,0,2.755-2.153c4.181-3.972-.726-10.057-.936-10.313l-2.7-3.294.648,4.213c.444,2.887-.616,3.909-3.754,6.1a6.185,6.185,0,0,0-1.043.913,20.8,20.8,0,0,0-.427-6.767,7.248,7.248,0,0,0-1.974-3.783l-.342,3.905c0,.024-.3,3.051-4.348,6.712a12.319,12.319,0,0,0,.966-1.222c1.98-2.881,1.406-6.16.744-9.958l-.139-.8c-.678-3.96.379-6.428,1.06-6.833.663-.809,1.981-2.153,1.981-2.153a5.636,5.636,0,0,0-2.645-.057c-2.529.348-6.776,1.862-6.663,5.32a14.707,14.707,0,0,0,.971,4.239c.464,1.365.9,2.655.511,3.318-.308.523-1.247.942-2.714,1.208-5.953,1.086-10.518,3.873-12.847,7.847a12.525,12.525,0,0,0-1.545,4.2c-14.775.045-28.762,1.886-39.608,5.243-12.155,3.76-18.858,8.882-19.381,14.808-.277,3.119,1.132,7.614,8.937,11.941l-.054.054,2.215,1.059.007.006,1.166.557.013-.013a74.013,74.013,0,0,0,12.519,4.14,26.512,26.512,0,0,0-4.6,3.264,32.666,32.666,0,1,0,52.748,31.839c2.636-7.887,2.332-16.353,2.217-19.545-.265-7.252,3.3-11.265,5.564-13.074,10.319-1.307,19.451-3.567,26.254-6.6l.01.013,1.1-.523.01,0,2.352-1.122-.062-.061c5.473-3.057,8.528-6.648,8.866-10.478a9.518,9.518,0,0,0-2.823-7.332m-10.6,6.341c.93,1.022.87,1.682.85,1.9-.1,1.179-1.578,2.6-4.048,3.9l-.007,0c-5.192,2.729-14.117,4.792-24.743,5.88a9.194,9.194,0,0,1,1.525-.79l.175-.07c3.053-1.24,6.515-2.646,6.68-7.693a14.321,14.321,0,0,1,.509-4.148,7.75,7.75,0,0,1,3.312-3.347c.021-.007-2.146-.43-2.146-.43-.115-.012-.225-.015-.335-.019a5.751,5.751,0,0,0,1.626-1.818c8.629,1.795,14.432,4.24,16.6,6.636M1063.2,1316.8c.369-4.167,15.389-9.672,39.665-10.532a13.928,13.928,0,0,0-5.582,9.388l-.248,1.8a15.361,15.361,0,0,1-.784,3.354c-.935,2.454-3.568,4.474-6.39,6.016-9.776-1.23-17.944-3.289-22.718-5.874h-.006c-2.61-1.415-4.043-2.926-3.936-4.149" transform="translate(-0.176)"/><path d="M1081.38,1423.794l4.167-17.03h-6.884l-4.188,17.03Z" transform="translate(-1.465 -7.45)"/><path d="M1096.969,1410.952l.408,6.952h-3.588l3.634,5.891h6.281l-.979-17.031h-10.36s-8.49,17.031-8.445,17.031h6.639l6.372-12.843Z" transform="translate(-1.975 -7.45)"/><path d="M1080.078,1440.652l-1.4,5.82h6.46l4.19-17.023h-6.462l-1.589,6.594-4.855.006,1.587-6.6h-6.463l-4.187,17.023h6.459l1.4-5.816Z" transform="translate(-1.081 -8.674)"/><path d="M1096.708,1442.639l.47-2.316h8l1.022-3.764h-8.036l.515-2.5h8.041l1.231-4.61h-14.594l-4.189,17.023h14.484l1.038-3.832Z" transform="translate(-2.259 -8.674)"/><path d="M1140.662,1423.794l4.168-17.03h-6.886l-4.187,17.03Z" transform="translate(-4.666 -7.45)"/><path d="M1151.8,1420.662c.911,1.272,1.917,3.757-2.342,5.687-4.939,2.239.022,7.951-6.754,7.951h-2.783l-2.8,11.7h-6.909l2.819-11.694-4.663,0,1.465-5.325h11.966c7.093,0,2.116-4.921,5.73-5.581,2.469-.452,3.994-.9,4.274-2.732" transform="translate(-4.375 -8.2)"/><path d="M1061.135,1415.536l-1.1-8.772h-8.514l-4.187,17.031h6.284l2.317-8.9h.039l1.253,8.9h3.7l5.13-8.9h.04l-2.006,8.9h5.927l4.189-17.031h-8.2l-4.834,8.772Z" transform="translate(0 -7.45)"/><path d="M1120.51,1415.536l-1.1-8.772H1110.9l-4.189,17.031H1113l2.317-8.9h.037l1.255,8.9h3.7l5.131-8.9h.038l-2,8.9h5.922l4.192-17.031h-8.2l-4.835,8.772Z" transform="translate(-3.206 -7.45)"/><path d="M1119.447,1433.637l.408,6.953h-3.586l3.633,5.882h6.281l-.98-17.022h-10.361s-8.49,17.022-8.447,17.022h6.64l6.375-12.835Z" transform="translate(-3.189 -8.675)"/><path class="a" d="M1060.71,1368.28a20.763,20.763,0,0,0,8.2,12.883,21.844,21.844,0,0,0,4.788,2.528c-1.054-1.8-2.284-3.615-3.535-5.461a59.114,59.114,0,0,1-6.285-10.844,22.657,22.657,0,0,1-1.326-12.281,31.409,31.409,0,0,0-1.936,10.867c0,.778.038,1.548.093,2.309" transform="translate(-0.717 -4.66)"/><path class="a" d="M1066.194,1364.332a57.548,57.548,0,0,0,6.06,10.418,74.328,74.328,0,0,1,4.772,7.676,26.913,26.913,0,0,0,4.44.641,38.088,38.088,0,0,1-4.1-7.686c-4.537-11.269-3.879-25.2,1.747-33.262a29.984,29.984,0,0,1,10.848-9.424c3.851-2.1,6.256-2.729,8.7-4.189,2.662-1.588,4.086-4.238,2.335-10.19a11.009,11.009,0,0,1-.5-4.182,12.81,12.81,0,0,0-1.3,4.133l.013-.015a25.738,25.738,0,0,1-1.11,5.421c-2.354,6.164-13.745,9.584-15.25,10.04a27.586,27.586,0,0,0-10.489,5.7,22.547,22.547,0,0,0-6.171,24.919" transform="translate(-0.938 -2.448)"/><path class="a" d="M1114.41,1308.321a7.459,7.459,0,0,1,.257,1.126c.3,2.152-.355,3.893-3,4.319-2.718.436-3.646-1.931-3.858-3.859a8.946,8.946,0,0,1,.086-1.595c-.459.007-.911.017-1.362.029a14.417,14.417,0,0,0-3.1,2.383c-.54,1.165-1.192,2.78-.188,6.559,1.775,6.665,1.021,10.692-4.335,12.994-6.823,2.935-11.186,4.658-17.035,12.018-2.784,3.5-4.306,9.3-4.56,15.142a41.572,41.572,0,0,0,2.921,16.689,38.1,38.1,0,0,0,4.733,8.656,31.16,31.16,0,0,0,5.526-.713,14.343,14.343,0,0,1-3.412-8.528c-.7-10.812,5.125-15.358,14.088-22.543l4.006-3.362c16-13.588,11.33-27.4,13.089-39.205q-1.9-.074-3.861-.109" transform="translate(-1.618 -2.134)"/><path class="a" d="M1121.506,1308.561a51.939,51.939,0,0,0-.865,7.36c-.634,10.278-.327,21.912-13.334,33.471l-3.934,3.182c-8.708,6.983-13.685,11.344-13.343,20.836a11.645,11.645,0,0,0,3.641,8.029,34.824,34.824,0,0,0,7.156-3.07c11.313-6.421,18.432-16.021,21.156-28.338a81.31,81.31,0,0,0,1.656-19.211c-.013-2.572.32-7.623.32-7.623a28.823,28.823,0,0,1,4.574-13.509c.119-.189.245-.38.372-.573q-3.533-.348-7.4-.553" transform="translate(-2.304 -2.147)"/><path class="a" d="M1125.647,1343.114l0-.038c0,.017-.007.038-.009.055-.351,1.843-.447,3.915-.67,5.98q-.16,1.185-.327,2.3c-.04.211-.08.419-.129.627-2.857,12.969-10.249,23.063-22.143,29.812a39.016,39.016,0,0,1-6.2,2.852,15.634,15.634,0,0,0,10.346,2.607c10.684-1.6,15.887-8.573,18.392-16.024,2.57-7.649,2.3-15.811,2.173-19.191-.406-11.289,8.325-15.454,8.325-15.454-6.788-.367-9.013,2.593-9.762,6.476" transform="translate(-2.637 -3.661)"/><path class="a" d="M1118.04,1387.492a22.158,22.158,0,0,1-11.216,4.778,17.636,17.636,0,0,1-13.588-3.828c-.072-.056-.139-.118-.209-.177a32.12,32.12,0,0,1-5.661,1c4.311,4.63,9.984,7.258,17.593,7.772.033,0,.067,0,.1.006h.009a31.543,31.543,0,0,0,13.11-9.668c-.045.041-.09.081-.136.12" transform="translate(-2.162 -6.402)"/><path class="a" d="M1077.033,1394.93a15.349,15.349,0,0,0-1.68-7.059,31.577,31.577,0,0,1-7.633-3.373,18.517,18.517,0,0,1-3.741-3.332l-.013-.013a31.583,31.583,0,0,0,13.068,13.778Z" transform="translate(-0.898 -6.067)"/><path class="a" d="M1099.619,1398.592a28.46,28.46,0,0,1-11.1-4.915,28.979,28.979,0,0,1-4.477-4.227,29.788,29.788,0,0,1-5.133-.506,15.527,15.527,0,0,1,1.116,7.507v0a31.5,31.5,0,0,0,19.638,2.156c-.014,0-.032-.013-.046-.019" transform="translate(-1.705 -6.487)"/><path class="a" d="M1138.86,1316.935c-.732,2.453-3.151,2.163-3.851.841-1.11-2.093-.69-3.712.468-4.816s3.05-1.7,4.887-2.527a.155.155,0,0,1,.025-.012q-3.181-.548-6.774-.972c-.031.039-.064.076-.1.112-.21.242-.425.483-.629.735a26.549,26.549,0,0,0-4.644,13.2l-.115,1a53.232,53.232,0,0,0-.188,6.354c0,.341.006.7.006,1.055-.026.872-.062,1.729-.1,2.568l.054.015c.026-.348.043-.483.04-.3a9.806,9.806,0,0,1,5.829-6.635c3.013-1.222,5.985-2.345,6.125-6.719a14.929,14.929,0,0,1,.612-4.589,3.941,3.941,0,0,1,2.118-2.136c-1.461-.141-3.058.469-3.764,2.828" transform="translate(-4.347 -2.195)"/><path class="b" d="M1143.233,1298.2c.221-2.925,2.993-3.472,5.675-6.019,3.443-3.271-1.034-8.728-1.034-8.728.563,3.67-1.136,5.07-4.24,7.234a3.887,3.887,0,0,0-1.8,2.866,36.807,36.807,0,0,1-.5,4.318c.64.105,1.269.215,1.895.327" transform="translate(-5.076 -0.791)"/><path class="c" d="M1143.233,1298.2c.221-2.925,2.993-3.472,5.675-6.019,3.443-3.271-1.034-8.728-1.034-8.728.563,3.67-1.136,5.07-4.24,7.234a3.887,3.887,0,0,0-1.8,2.866,36.807,36.807,0,0,1-.5,4.318C1141.978,1297.981,1142.607,1298.091,1143.233,1298.2Z" transform="translate(-5.076 -0.791)"/><path class="b" d="M1133.105,1293.139q-1.243.928-2.328,1.9c-.516.494-1.019.984-1.484,1.455,3.028.263,5.969.6,8.8,1.016,1.813-3.3,2.672-7.035,1.6-13.406,0,0-.255,4.315-6.593,9.036" transform="translate(-4.425 -0.826)"/><path class="c" d="M1133.105,1293.139q-1.243.928-2.328,1.9c-.516.494-1.019.984-1.484,1.455,3.028.263,5.969.6,8.8,1.016,1.813-3.3,2.672-7.035,1.6-13.406C1139.7,1284.1,1139.443,1288.418,1133.105,1293.139Z" transform="translate(-4.425 -0.826)"/><path class="b" d="M1115.388,1295.112c3.46.033,6.856.172,10.163.4.11-.112.214-.224.329-.331,2.221-2.384,5.659-4.4,7.5-7.071s1.094-5.939.417-9.9c-1.171-6.823,1.7-8.085,1.7-8.085s-5.766.793-5.655,4.127c.147,4.475,4.759,8.687-2.188,9.95-7.627,1.388-12.366,5.514-13.41,10.9.381,0,.761,0,1.144,0" transform="translate(-3.613 -0.072)"/><path class="c" d="M1115.388,1295.112c3.46.033,6.856.172,10.163.4.11-.112.214-.224.329-.331,2.221-2.384,5.659-4.4,7.5-7.071s1.094-5.939.417-9.9c-1.171-6.823,1.7-8.085,1.7-8.085s-5.766.793-5.655,4.127c.147,4.475,4.759,8.687-2.188,9.95-7.627,1.388-12.366,5.514-13.41,10.9C1114.625,1295.111,1115.005,1295.108,1115.388,1295.112Z" transform="translate(-3.613 -0.072)"/><path class="d" d="M1112.036,1298.427c-31.949-.316-58.6,7.931-59.53,18.418-.37,4.178,3.4,8.081,10.091,11.286a72.994,72.994,0,0,0,15.453,5.036,32.676,32.676,0,0,1,3.825-1.426,48.61,48.61,0,0,0,5.163-1.895c-8.947-1.305-16.189-3.312-20.643-5.721-3.288-1.781-5.058-3.782-4.871-5.88.622-7.043,22.99-12.535,49.961-12.271s48.33,6.191,47.707,13.231c-.17,1.917-1.953,3.723-5,5.324-5.632,2.96-15.586,5.236-27.673,6.3a9.791,9.791,0,0,0-1.087,1.926c5.5-2.086,11.834,1,11.834,1a4.327,4.327,0,0,1,.721.365,80.936,80.936,0,0,0,20.076-5.927c6.108-2.909,9.814-6.41,10.149-10.2.927-10.487-24.22-19.245-56.171-19.558" transform="translate(-0.278 -1.599)"/></g><rect class="e" width="200" height="200"/></svg>