<svg xmlns="http://www.w3.org/2000/svg" width="200" height="200" viewBox="0 0 200 200"><defs><style>.a{fill:#fff;}.b{fill:#0e3386;}.c{fill:#cc3433;}.d{fill:none;mix-blend-mode:multiply;isolation:isolate;}</style></defs><g transform="translate(-1607.219 -573.207)"><path class="a" d="M1613.218,673.357a94.144,94.144,0,1,1,94.136,94.148A94.145,94.145,0,0,1,1613.218,673.357Z"/><path class="b" d="M1619.289,672.987a88.044,88.044,0,1,1,88.04,88.052A88.045,88.045,0,0,1,1619.289,672.987Zm88.04,65.046a65.039,65.039,0,1,0-65.034-65.046,65.043,65.043,0,0,0,65.034,65.046Z"/><path class="c" d="M1735.96,691.377a34.026,34.026,0,1,1,.551-35.877l16.742-16.332a57.018,57.018,0,1,0-.34,68.1l-16.953-15.9Z"/><path class="c" d="M1697.263,678.643V657.961h10.246v20.931c0,7.517-1.773,9.274-7.737,9.274h-10.654c-4.913,0-6.5-3.178-6.5-9.825v-20.38h10.24v20.682c0,2.815,4.4,2.815,4.4,0m13.957,9.523V657.961h16.174c6.091,0,8.7,1.431,8.7,8.5,0,3.71-.707,5.639-2.828,6.707,2.828,1.583,2.828,4.589,2.828,7.239,0,6.7-2.963,7.759-8.7,7.759Z"/><path class="a" d="M1726.334,666.192c-.035-1.231-1.2-1.144-4.357-1.144v4.236c1.766,0,4.358.18,4.358-1.412v-1.68Zm-.074,12.3c-.537-1.447-.838-1.274-4.283-1.274v4.235c2.2,0,4.284.181,4.284-1.41a7.644,7.644,0,0,0,0-1.551Z"/><path class="c" d="M1756.533,688.166c5.514,0,8.369-1.5,8.369-6.372,0-.594-.03-6.156-.03-6.759.03-3.539-2.514-5.838-6.071-5.838h-7.377c-2,0-1.555-2.918-1.555-3.8,0-1.411,4.171-1.851,4.171.448v1.4H1764.9c0-7.051-1.287-9.29-8.369-9.29-1.637.027-7.667.027-9.545.027-4.536,0-7.016,1.774-7.188,7.06a36.884,36.884,0,0,0,0,4.952c0,1.929-.3,6.26,5.643,6.26h7.494c2.122,0,1.7,2.47,1.7,2.47v1.576c0,1.781-3.582,1.859-4.391.395a4.476,4.476,0,0,1-.25-2.5h-10.2c0,2.1-1.147,9.961,5.01,9.961h11.723Z"/><path class="b" d="M1753.924,693.513h-1.743v4.769H1751v-4.77h-1.739v-1.034h4.668v1.035Zm7.934,4.769h-1.187v-4.606h-.023l-1.678,4.606h-1.145l-1.615-4.606h-.044v4.606H1755v-5.8h2.041l1.352,3.8h.024l1.409-3.8h2.036v5.8Z"/></g><rect class="d" width="200" height="200"/></svg>