<svg xmlns="http://www.w3.org/2000/svg" width="200" height="200" viewBox="0 0 200 200"><defs><style>.a,.e{fill:none;}.b{fill:#f9a01b;}.c{fill:#e56020;}.d{fill:#b95915;}.e{mix-blend-mode:multiply;isolation:isolate;}</style></defs><g transform="translate(-1647.811 -1563.434)"><path class="a" d="M1758.094,1682.1" transform="translate(18.145 17.028)"/><g transform="translate(1666.81 1596.433)"><path class="b" d="M1666.81,1729.53l78.258-42.854L1692,1729.53l64.4-37-1.064,7.461,10.74-5.968,24.258,22.936,12.911-38.791,18.672-1.2-9.5-23.53,16.912-13.236-21.871-8.518,5.541-23.528-18.615,8.521-9.591-20.242-14.9,14.888-26.827-12.038-3.693,23.956-23.907,5.183,14.148,8.525-14.233,7.142,12.089,1.049-49.738,38.688,50.031-26.579-53.674,40.858,57.134-29.78-61.028,45.883,67.262-35.84Z" transform="translate(-1666.81 -1596.433)"/><g transform="translate(65.297 16.765)"><path class="c" d="M1799.189,1651a38.97,38.97,0,1,1-37.335-40.546A38.967,38.967,0,0,1,1799.189,1651Z" transform="translate(-1721.279 -1610.419)"/><path class="d" d="M1765.022,1681.927a38.969,38.969,0,0,1-26.385-66.046,38.964,38.964,0,1,0,49.6,59.524A38.735,38.735,0,0,1,1765.022,1681.927Z" transform="translate(-1721.28 -1609.333)"/><path d="M1799.2,1649.84a38.731,38.731,0,0,0-.164-4.136,18,18,0,0,0-8.086-3.169c-.6-.074-1.175-.11-1.757-.154a48.34,48.34,0,0,0-1.737-7.547c.405.025.811.043,1.22.071,2.742.2,5.441.514,8.109.9q-.565-1.487-1.232-2.919c-3-.455-6.041-.808-9.123-1.039h-.033a45.832,45.832,0,0,0-3.6-7.22,10.487,10.487,0,0,0,5.209-2.585q-1.106-1.119-2.3-2.151a8.434,8.434,0,0,1-4.734,2.008c-.284-.4-.568-.8-.865-1.183a42.629,42.629,0,0,0-9.068-8.779,38.806,38.806,0,0,0-9.19-1.491c-.171-.008-.348,0-.523-.012a37.753,37.753,0,0,1,15.464,11.481c-4.057-.39-8.73-1.751-13.357-3.107-1.366-.4-2.706-.8-4-1.157a52.44,52.44,0,0,0-18.469-2.129,39.205,39.205,0,0,0-9.089,7.159c4.905-2.046,14.8-5.542,26.812-2.218,1.278.354,2.6.741,3.95,1.132,5.311,1.565,11.269,3.3,16.409,3.357a42.74,42.74,0,0,1,3.666,6.679c-1.009-.047-2.013-.08-3.018-.1-25.025-.429-46.479,7.061-58.385,19a39,39,0,0,0,.812,6.951,43.912,43.912,0,0,1,14.749-12.785c12.111-6.807,28.183-10.39,45.262-10.095.586.01,1.179.035,1.764.056a43.768,43.768,0,0,1,1.915,7.648c-11,.468-18.129,7.329-26.313,14.636-7.352,6.575-16.313,13.126-29.439,17.066a38.629,38.629,0,0,0,4.036,4.258c12.362-4.977,20.576-12.73,27.517-18.932,7.878-7.049,14.641-13.8,24.574-14.135a45.68,45.68,0,0,1,.017,8.369c-1.337,15.268-10.177,28.208-22.236,34.6a38.444,38.444,0,0,0,8.917-1.924c.969-.8,1.91-1.638,2.82-2.534a47.669,47.669,0,0,0,13.816-29.851,49.929,49.929,0,0,0,.017-8.52c.5.053.987.095,1.5.181A15.132,15.132,0,0,1,1799.2,1649.84Z" transform="translate(-1721.275 -1610.416)"/></g></g></g><rect class="e" width="200" height="200"/></svg>