<svg xmlns="http://www.w3.org/2000/svg" width="200" height="200" viewBox="0 0 200 200"><defs><style>.a{fill:#134a8e;}.b{fill:#1d2d5c;}.c{fill:#fff;}.d{fill:#e8291c;}.e{fill:none;mix-blend-mode:multiply;isolation:isolate;}</style></defs><g transform="translate(-1316.48 -1819.443)"><path class="a" d="M1475.513,1937.931h1.421v3.893h.96v-3.893h1.429v-.85h-3.81m7.476,3.1h-.02l-1.107-3.1h-1.673v4.742h.967v-3.759h.023l1.325,3.759h.942l1.36-3.759h.025v3.759h.969v-4.742h-1.666m-105.918-40.832a7.675,7.675,0,0,1,.311-5.793,7.757,7.757,0,0,1,3.134-3.069c10.753-7.225,33.54.17,33.54.17a61.449,61.449,0,0,0-13.6.106c6.354,1.988,13.159,4.649,17.764,5.776a75.493,75.493,0,0,0,15.07,2.413l-.177-2.215,3.135.539,8.351,1.42,1.236-3.116,1.354-3.455,2.651,2.584c.07.048,4.166,4.053,6.329,6.155-.387-3.958-1.349-13.968-1.362-14.08l-.394-4.053,3.767,1.535,4.115,1.648,6.173-10.085,2.1-3.446,2.108,3.446,4.98,8.144c1.737-7.073,2.982-14.573,6.619-18.038-3.641.132-6.212,1.164-10.189,3.957,2.253-6.108,5.591-10.634,10.1-15.813a35.67,35.67,0,0,0-12.675,4.26,26.6,26.6,0,0,0,1.677-8.352c-19.238,22.33-72.9,22.064-86.788,26.609a30.49,30.49,0,0,0-17.035,12.859c-.317,5.057,3.367,9.9,7.7,9.9Z"/><path class="b" d="M1455.823,1928.265l-3.58,4.308,3.579-4.308"/><path class="b" d="M1446.591,1935.527l3.758-4.517,2.031-2.462-7.864-6.78c-4.274,6.525-8.446,13.617-10.434,19.09l8.659-.027c-4.45,5.5-13.025,14.61-18.786,24.714-5.771-14.166-19.274-32.383-43.665-42.393-7.063-2.906-13.731-6.741-12.869-12.337a369.1,369.1,0,0,0-40.729-3.655c-1.15-.018-2.22-.038-3.181-.048-.881-.008-1.108.342-.152,1.119,4.157,2.993,18.251,8.436,35.536,11.674,8.316,1.544,12.111,3.826,18.091,8,12.982,9.07,30.7,33.434,41.493,65.135,20.476-39.759,44.252-57.608,46.132-58.99l-12.178.994-5.842.483Zm-123.631-29.4c8.673-.379,20.85-.8,42.108-.095,1.8.028,3.573.057,5.293.095,1.064-1.411,3.025-2.68,6.732-2.68h1.1c6.914.106,8.192,7.187,15.53,7.187,7.305,0,8.6-7.035,15.453-7.177.185-.01.386-.01.573-.01h25.315l-.345-4.2h-25.354c-7.026,0-8.275-7.186-15.656-7.186-7.267,0-8.585,7.1-15.349,7.168-7.324-.438-10.227-6.572-10.8-11.78-3.2,1.362-4.848,2.954-7.262,6.76-26.168,4.328-35.129,8.513-37.477,11.126-.351.465-.194.692.137.8Zm67.949-10.815a12.308,12.308,0,0,0-.11,4.773h-2.46A5.85,5.85,0,0,1,1390.909,1895.312Z"/><path class="c" d="M1390.909,1895.312a5.852,5.852,0,0,0-2.571,4.773h2.461A12.269,12.269,0,0,1,1390.909,1895.312Z"/><path class="c" d="M1514.406,1908.407l-4.053-1.4-2.216-.757.791-9.45.252-3.163-3.136.539-8.355,1.42-1.232-3.116-1.354-3.455-2.66,2.584c-.057.048-4.157,4.053-6.332,6.155.4-3.958,1.366-13.968,1.371-14.08l.387-4.053-3.759,1.535-1.7.672c.166-.8.331-1.6.488-2.386,1-4.981,3.508-13.7,8.237-20.358a16.246,16.246,0,0,0-7.655.616c-1.311.388-.1.028-.151.047,1.542-3.665,8.388-13.067,8.388-13.067s-9.7-.171-13.352,2.045a24.092,24.092,0,0,0,.375-13.293l-7.532,8.74c-13,15.1-44.683,19.268-65.634,22.015-8.48,1.135-15.183,2.007-19.312,3.371a34.689,34.689,0,0,0-18.318,13.226l-1.993.844a17.2,17.2,0,0,0-8.105,6.789c-21.565,3.665-34.035,7.631-38.092,12.12l-.269.331a4.722,4.722,0,0,0-.85,4.032,4.909,4.909,0,0,0,2.161,4.558l.141.1c4.924,3.57,19.639,9.128,37.2,12.405,7.879,1.468,11.273,2.642,16.292,7.186,24.989,22.631,37.265,56.606,42.828,73.176l6.254-11.505c20.874-36.645,41.336-53.595,41.582-53.812l4.318-3.949.117.235,2.189,4.2,2.189-4.221.828-1.573,16.258,1.325,5.852.482-3.755-4.517-2.031-2.461,20.1-17.337,3.248-2.8ZM1387.547,1873.5c13.89-4.544,67.551-4.279,86.791-26.606a26.574,26.574,0,0,1-1.675,8.352,35.693,35.693,0,0,1,12.674-4.263c-4.512,5.179-7.849,9.706-10.1,15.814,3.977-2.793,6.547-3.826,10.189-3.958-3.636,3.467-4.882,10.966-6.62,18.039l-4.98-8.144-2.107-3.446-2.1,3.446-6.174,10.084-4.115-1.648-3.767-1.532.393,4.051c.014.113.975,10.123,1.362,14.08-2.162-2.1-6.258-6.108-6.329-6.155l-2.651-2.584-1.353,3.455-1.236,3.115-8.352-1.419-3.134-.54.177,2.216a75.482,75.482,0,0,1-15.071-2.413c-4.608-1.127-11.41-3.788-17.764-5.777a61.455,61.455,0,0,1,13.6-.1s-22.786-7.4-33.54-.17a7.034,7.034,0,0,0-3.445,8.863c-4.336,0-8.02-4.838-7.7-9.9a30.465,30.465,0,0,1,17.033-12.86Zm-64.726,31.834c2.349-2.613,11.312-6.8,37.479-11.124,2.413-3.807,4.061-5.4,7.262-6.762.569,5.208,3.471,11.343,10.8,11.78,6.765-.068,8.082-7.168,15.349-7.168,7.381,0,8.63,7.186,15.656,7.186h25.353l.345,4.2h-25.314c-.185,0-.388,0-.573.01-6.851.142-8.148,7.178-15.454,7.178-7.337,0-8.615-7.083-15.528-7.187h-1.1c-3.708,0-5.667,1.27-6.732,2.681-1.72-.038-3.49-.068-5.293-.1-21.258-.7-33.435-.285-42.108.1-.332-.105-.488-.332-.138-.8Zm95.656,87.71c-10.794-31.7-28.512-56.065-41.492-65.135-5.98-4.177-9.777-6.458-18.091-8-17.286-3.239-31.38-8.683-35.536-11.674-.957-.777-.729-1.127.151-1.118.961.01,2.031.029,3.182.047a369.113,369.113,0,0,1,40.729,3.656c-.86,5.6,5.806,9.43,12.87,12.337,24.392,10.009,37.9,28.226,43.665,42.392,5.761-10.1,14.336-19.213,18.786-24.713l-8.658.028c1.988-5.473,6.159-12.565,10.434-19.089l7.864,6.781-2.03,2.462-3.759,4.516,5.841-.482,12.178-.994c-1.88,1.381-25.656,19.231-46.132,58.99Zm69.132-64.776,3.59,4.309-17.9-1.448-.767,1.468-.814,1.572-.417-.8-.2-.386-.956-1.857-9.577.777h-.015l-7.049.577-1.259.095,3.579-4.308-21.931-18.928,4.015-1.373-.923-11.362,10.325,1.77,1.964-5s6.662,6.486,7.553,7.338a2.667,2.667,0,0,0,1.757.843c.858,0,1.5-.777,1.325-2.661l-.076-.8c-.331-3.428-1.416-14.611-1.416-14.639l6.038,2.433,7.262-11.864,7.263,11.864,2.774-1.117,3.276-1.317c-.008.028-1.085,11.212-1.421,14.639-.037.35-.06.645-.084.8-.165,1.884.474,2.661,1.337,2.661a2.742,2.742,0,0,0,1.76-.843c.88-.852,7.542-7.338,7.542-7.338l1.969,5,10.329-1.771-.933,11.361,4.016,1.373-21.934,18.929Z"/><path class="d" d="M1506.462,1896.6l-10.331,1.77-1.97-5s-6.661,6.487-7.542,7.338a2.747,2.747,0,0,1-1.76.843c-.861,0-1.5-.777-1.335-2.661.024-.159.046-.454.084-.8.337-3.427,1.413-14.611,1.421-14.639l-3.277,1.316-2.775,1.117-7.261-11.864-7.262,11.864-6.037-2.434c0,.028,1.084,11.212,1.416,14.639.032.351.06.645.075.8.175,1.884-.469,2.661-1.326,2.661a2.671,2.671,0,0,1-1.757-.843c-.891-.852-7.55-7.338-7.55-7.338l-1.965,5-10.326-1.771.924,11.361-4.015,1.373,21.928,18.929-3.578,4.308,1.259-.094,7.05-.577,9.592-.777.956,1.856.2.387.417.8.815-1.573.766-1.467,17.9,1.449-3.589-4.308,21.935-18.928-4.015-1.373.932-11.362Z"/></g><rect class="e" width="200" height="200"/></svg>