<svg xmlns="http://www.w3.org/2000/svg" width="200" height="200" viewBox="0 0 200 200"><defs><style>.a{fill:#132448;}.b{fill:none;mix-blend-mode:multiply;isolation:isolate;}</style></defs><g transform="translate(-1607.535 -1197.619)"><path class="a" d="M1772.923,1352.209c-2.227,2.675-15.387,15.627-26.754,23.417-1.89-27.167-14.956-44.65-36.358-59.557v.01c-.669,14.5-.741,27.225-.225,36.13.446,7.7,4.134,12.387,10.145,17.292-7.8,1.778-30.668,1.443-38.463-1,.9-.664,10.536-6.01,11.372-23.418.587-12.512.664-21.754.222-37.025l-.909-3.914a208.4,208.4,0,0,1-31.211-28.208c10.709,28.331-2.9,63.558-4.453,76.494-.528,4.347-1.9,13.164-1.456,22.2-3.338-2.01-16.841-10.819-23.3-19.292,18.844-32.226,32.443-63.885,2.894-92.659,5.583-8.368,13.83-15.839,20.4-19.07,6.929,19.955,22.084,35.793,33.02,42.7-8.373-31.005-19.09-41.142-25.875-44.6,4.446-10.441,19.175-21.3,26.984-24.079-3.573,11.589-3.876,19.177-.342,31.553,3.569,12.493,9.15,27.659,15.387,39.036,3.352-5.8,15.175-30.333,18.288-41.036a58.807,58.807,0,0,0,1.788-27.217c6.8,3.452,21.411,17.176,24.759,23.87-7.137,1.548-10.483,5.212-14.72,12.473-4.356,7.481-15.391,35.7-21.521,47.845,6.472,5.586,17.729,12.606,26.643,23.319-9.808-38.592.226-67.924,13.166-76.713,6.02,1.769,13.708,6.675,19.295,12.483-20.974,8.809-19.621,35.573-19.738,37.564-.956,15.349,5.237,42.621,16.854,49.267a33.5,33.5,0,0,0,4.1,2.144c-2.226,2.676-15.386,15.628-26.753,23.418"/><path class="a" d="M1773.225,1337.572h-2.2v5.982h-1.491v-5.982h-2.191v-1.307h5.879v1.307Zm9.964,5.982h-1.481v-5.79h-.038l-2.113,5.79h-1.437l-2.04-5.79h-.042v5.79h-1.476v-7.289h2.572l1.693,4.76h.04l1.759-4.761h2.564v7.289Z"/></g><rect class="b" width="200" height="200"/></svg>