<svg xmlns="http://www.w3.org/2000/svg" width="200" height="200" viewBox="0 0 200 200"><defs><style>.a{fill:#fff;}.b{fill:#ec174c;}.c{fill:#006bb5;}.d{fill:none;mix-blend-mode:multiply;isolation:isolate;}</style></defs><g transform="translate(-97.561 -1264.77)"><path class="a" d="M133.561,1364.917a64.146,64.146,0,1,1,64.147,64.147,64.146,64.146,0,0,1-64.147-64.147"/><path d="M197.705,1300.771a64.146,64.146,0,1,0,64.148,64.148,64.219,64.219,0,0,0-64.148-64.148m46.371,28.506a58.018,58.018,0,0,1,12.076,32.828H231.98a57.981,57.981,0,0,1,12.1-32.828m-92.736,0a57.989,57.989,0,0,1,12.093,32.828H139.262a57.987,57.987,0,0,1,12.077-32.828m0,71.28a57.969,57.969,0,0,1-12.076-32.828h24.171a58.015,58.015,0,0,1-12.094,32.828m49.178,22.8V1406.6H194.9v16.762a58.142,58.142,0,0,1-39.834-18.421,63.523,63.523,0,0,0,14-37.212v-5.623a63.516,63.516,0,0,0-14-37.211,58.141,58.141,0,0,1,39.834-18.421v16.61h5.622v-16.61a58.125,58.125,0,0,1,39.835,18.421,63.51,63.51,0,0,0-14,37.211v5.623a63.513,63.513,0,0,0,14,37.212,58.135,58.135,0,0,1-39.835,18.421m43.558-22.8a57.979,57.979,0,0,1-12.1-32.828h24.172a58.018,58.018,0,0,1-12.076,32.828" transform="translate(0 0)"/><path class="b" d="M174.879,1331.665v53.517H203.47v-7.358H182.53v-46.159Z" transform="translate(8.538 6.385)"/><path class="c" d="M214.858,1351.1v-22.053c0-3.3-1.331-4.649-4.59-4.649H171.348c-3.221,0-4.535,1.347-4.535,4.649v61.98c0,3.3,1.315,4.651,4.535,4.651h38.921c3.259,0,4.59-1.347,4.59-4.651v-22.077h-7.712v19.959h-32.68v-57.743h32.68V1351.1h7.712Z" transform="translate(6.872 4.882)"/><path class="b" d="M201.775,1375.753l.011-44.088H183.209l-.182,44.088h7.441l.119-13.741h3.782l-.054,13.741Zm-7.456-21.075h-3.727v-15.655h3.727Z" transform="translate(10.222 6.385)"/></g><rect class="d" width="200" height="200"/></svg>