<svg xmlns="http://www.w3.org/2000/svg" width="200" height="200" viewBox="0 0 200 200"><defs><style>.a{fill:#fd5a1e;}.b{fill:none;mix-blend-mode:multiply;isolation:isolate;}</style></defs><g transform="translate(-1607.404 -1508.088)"><path class="a" d="M1697.037,1598.484v17.954s22.819,1.47,29.805-2.76c-1.25,3.965-.856,16.934,0,19.094-8.83-4.529-29.805-2.724-29.805-2.724v18.066h33.807l7.2-8.374v-30.958l-8.344-9.685c-4.96-.549-22.692-.613-32.661-.613Zm-52.3-64.219c7.019-3.344,14.491-10.42,17.141-15.178,6.766,3.2,68.973,2.724,76.165,0,4.337,6.34,9,9.886,15.569,12.033-.615,6.084-.426,8.238,1.558,13.116h-17.127l-7.192-8.03h-61l-7.99,7.032v32.348l7.966,7.712,10.085.42c0-12.011.124-14.308-8.714-16.655,2.942-5.892,3.534-6.583,4.308-13.93,7.566,2.539,85.732,1.155,89.131-.793-.544,7.656,3.78,22.2,6.687,27.626h-17.131c-.87-5.955-4.629-10.556-10.61-11.675h-46.542v15.427s36.214.985,41-.655c2.38,6.183,10.943,15.249,17.127,17.76-2.076,12.618-1.69,34.195,0,47.284a41.539,41.539,0,0,0-17.125,17.14c-8.518-2.346-41-1.191-41-1.191v9.694c1.676,6.612,5.229,8.2,11.463,8.746,0,0-5.007,9.416-5.21,14.93h-29.266c-.129-5.378-5.218-14.93-5.218-14.93,5.627-.263,10.246-3.587,11.1-8.744v-9.695s-10.272-.385-18.036,1.191c-2.349-5.271-10.916-14.714-17.14-17.14,1.438-3.787.77-27.44-1.327-32.426h18.468l-.015,24.06,7.2,8.374h10.854V1598.49a167.787,167.787,0,0,0-18.035.179c-2.454-4.773-9.781-12.461-17.142-16.091,2.3-8.737,2.5-40.064,0-48.312Z"/><path class="a" d="M1715.844,1690.242h-2.079v5.656h-1.405v-5.656h-2.068V1689h5.553v1.24Zm9.426,5.656h-1.406v-5.479h-.043l-1.983,5.479h-1.363l-1.928-5.479h-.044v5.479h-1.394V1689h2.436l1.595,4.5h.035l1.67-4.5h2.423v6.9Z"/></g><rect class="b" width="200" height="200"/></svg>