<svg xmlns="http://www.w3.org/2000/svg" width="200" height="200" viewBox="0 0 200 200"><defs><style>.a{fill:#fff;}.b{fill:#e31837;}.c{fill:none;mix-blend-mode:multiply;isolation:isolate;}</style></defs><g transform="translate(-1024.416 -1175.656)"><path class="a" d="M1039.9,1312.249a7.1,7.1,0,0,1-3.883-2.926c-1.457-2.3-.944-3.98-.476-7.159a17.213,17.213,0,0,0-.507-8.479,52.715,52.715,0,0,1-1.694-7.7,51.78,51.78,0,0,1-.535-5.3c-.029-1.851.112-3.584.314-6.16a30.03,30.03,0,0,1,1.694-7.18c.406-1.219,1.506-4.1,2.178-5.471,1.127-2.286,2.335-3.418,1.772-7.45-.216-1.55-.805-2.382-1.048-4.462a10.448,10.448,0,0,1,.325-4.924,9.311,9.311,0,0,1,1.869-3.472,5.778,5.778,0,0,1,3.789-2.306,5.891,5.891,0,0,1,2.717-.091c3.075.267,2.621,2.984,7.21.137a8.938,8.938,0,0,1,9.772.459c1.624.954,2.983,4.2,1.236-1.15-.817-3.179-1.646-4.765-2.759-9.769-1.3-4.733-.247-9.562,3.609-12.175,2.783-2.445,8.429-1.356,14.978-.128,5.747,1.079,7.105-.732,11.019-.565a31.926,31.926,0,0,1,5.879.528,18.993,18.993,0,0,1,5.288,2.072c3.92,2.139,3.694.026,9.17.747,1.752.231,2.44-.027,4.215.485a20.323,20.323,0,0,1,5.137,2.327c5.078,2.958,5.083,3.624,13.54,3.253,1.565-.068,4.355,1.14,5.864,2.126,1.678,1.1,5.756,3.471,9.359,3.7,4.588.293,8.52-.292,14.178,3.733,4.132,3.678,9.267,3.505,13.851,6a22.022,22.022,0,0,1,6.725,6.273c.368.6,1.879,1.575,5.646,2.2,3.387.559,6.939,4.583,8.83,7.393,2.435,2.247,1.008.721,4.346,3.049,1.613,1.126,2.422,1.689,4,2.869,2.055,1.536.745.416,3.2,2.354.449.353,1.047,1.027,2.686,2.5a12.154,12.154,0,0,1,3.777,4.526c1.209,2.4.242,4.1-.875,6.093a23.582,23.582,0,0,1-4.246,5.813c-2.336,2.206-2.15,2.268-4.281,3.546-4.843,2.893-8.462,1.914-10.51,5.368-3.027,5.1-5.463,6.751-7.748,7.821-4.605,2.159-7.7,2.083-10.618,4.378a49.4,49.4,0,0,1-8.691,5.411c-4.9,2.183-5.5.9-8.854,2.993-1.138.712-.416.3-3.278,2.661a14.086,14.086,0,0,1-5.584,2.693,45.246,45.246,0,0,0-5.192.855c-4.022,1.077-4.46,2.492-8.893,3.343-5.173.994-7.311.5-12.25,2.858-1.288.614-2.694,1.229-4.581,2.254-1.552.845-6.323,2-10.008,2.183-1.605.082-3.113-.977-7,.875-5.016,2.391-5.087,2.149-9.063,2.955a23.354,23.354,0,0,1-4.585.126c-2.89-.007-5.9-1.007-8.99-.912a38.768,38.768,0,0,0-5.068.2l-1.867.305-2.753.613-1,.266a12.025,12.025,0,0,1-5.512.037c-2.482-.492-5.233-1.975-6.231-3.336-1.641-1.96-1.866-3.847-1.675-6.418a110.187,110.187,0,0,1,3.707-13.139s1.454-3.309-2.067-1.454c-3.567,1.315-6.355-.986-8.52-.25-2.135,1.074-3.455,2.055-6.124,2.446a10.514,10.514,0,0,1-4.921-.448"/><path d="M1079.749,1329.876a20.982,20.982,0,0,1,6.833.234,32.051,32.051,0,0,0,7.857.563,20.406,20.406,0,0,0,3.926-.818c3.7-1.185,5.422-2.795,9.885-3.4,3.7-.5,3.7.115,6.937-.039a13.5,13.5,0,0,0,6.713-2.386c1.733-.944,2.187-1.02,3.347-1.641,4.195-2.247,9.121-1.967,13.835-3.12,3.313-.81,4.611-2.373,8.312-3.365a39.872,39.872,0,0,1,4.657-.588,10.477,10.477,0,0,0,4.525-2.339c2.044-1.893,1.818-1.97,3.407-2.865,2.649-1.5,5.648-1.453,8.312-2.692,2.477-1.149,5.026-2.129,6.989-4.11,2.858-2.889,7.371-3.7,11.082-5.045a13.32,13.32,0,0,0,7.461-6.368c2.363-4.081,4.454-4.667,8.654-5.932a12.57,12.57,0,0,0,6.151-3.471,20.926,20.926,0,0,0,3.5-4.284c1-1.47,2.956-3.884.874-5.731a37.277,37.277,0,0,0-3.8-3.829,33.173,33.173,0,0,0-3.166-2.444,11.019,11.019,0,0,0-2.529-1.75c-1.533-.97-1.966-1.751-3.545-2.643-2.829-1.6-3.124-2.069-5.385-4.788-1.962-3.621-5.04-4.125-8.124-4.815a9.9,9.9,0,0,1-5.6-3.865,13.534,13.534,0,0,0-5.506-4.577c-4.221-2.291-9.088-1.925-12.892-5.31-5.732-4.076-7.241-3.321-13.266-3.506a18.857,18.857,0,0,1-9.1-3.408,11.129,11.129,0,0,0-3.8-2.028c-4.247-1.31-7.156.94-13.094-1.953-1.736-.847-3.3-2.009-5.009-2.992a10.645,10.645,0,0,0-3.535-1.265c-3.142-.68-5.878-.246-9.686.078-1.785.154-2.845-.8-4.486-1.682a16.867,16.867,0,0,0-5.11-1.786,23.066,23.066,0,0,0-8.509.46c-5.939,1.193-11.388-1.815-17.114-1.28a5.6,5.6,0,0,0-3.539,2.676,7.89,7.89,0,0,0-.737,4.7,12.747,12.747,0,0,0,.945,4.229c1.039,3.469,1.567,5.358,2.4,7.7.964,2.718.932,6.027-1.357,7.083a4.3,4.3,0,0,1-3.972-.269c-1.611-1.229-2.493-2.958-4.31-3.315-2.424-.479-5.333,2.011-7.91,2.689s-2.912-.724-4.708-1.557c-1.193-.554-2.341.252-3.01.624-1.209.675-1.5,2.067-1.782,3.549a8.348,8.348,0,0,0-.027,3.586c.424,1.88,1.05,3.008,1.1,4.318.115,3.293-.412,5.708-1.771,7.446a23.673,23.673,0,0,0-2.349,5.284,28.948,28.948,0,0,0-1.625,6.619c-.3,1.787-.247,3.794-.4,5.469-.029.308.2,4.114.382,5.249.455,2.812.982,4.625,1.574,7a27.805,27.805,0,0,1,1.133,8.206c-.086,2.713-1.8,5.264-.172,7.18a5.438,5.438,0,0,0,5.781,1.32c2.168-.961,3.749-2.093,5.453-2.327,3.14-.433,5.157.912,6.52.752,1.2-.141,3.313-1.349,4.308-1.433.794-.066,2.511-.143,3.116.309.955.717,1.546,1.51,1.386,3.989,0,.037-.581,2.641-.587,2.662-.988,3.26-2.056,6.285-2.567,8.524-.532,2.336-3.094,7.394,2.1,9.465,2.189.872,4.5.7,7.372-.035a31.733,31.733,0,0,1,3.414-.664c0-.1,2.036-.065,2.036-.165l1.807-.077" transform="translate(-0.098 -0.096)"/><path class="a" d="M1178.27,1251.544c1.408.92,3.024,3.293,4.383,5.255,1.658,1.51,1.808,2.385,5.92,3.12-.794-.143,3.7,1.409,4.377,1.787,1.767.982,2.218,1.585,3.784,3.373,1.621,1.849,2.265,2.344,5.534,4.53,1.269.851,1.5,1.156,3.915,2.877a9.2,9.2,0,0,1,2.708,2.8c1.143,2.4-.453,3.25-2.938,4.567-4.086,2.169-7.468,1.55-11.147,5.311-3.071,3.135-6.425,6.959-8.694,7.646a25.239,25.239,0,0,0-5.4,2.235c-1.773,1.1-2.273,1.068-3.863,2.486-1.887,1.683-2.942,2.891-6.412,4.092-2.141.737-4.667,1.081-6.91,1.754a20.929,20.929,0,0,0-4.462,2.029c-2.254,1.279-4.966,4.271-8.693,4.964-7.38,1.375-5.42,1.224-10.682,3.608a17.361,17.361,0,0,1-5.9,1.238,16.608,16.608,0,0,0-8.42,2.006c-2.029,1.082-4.1,3.068-8.076,3.6-4.919.654-5.192.037-11.3,1.343-1.853.4-4.192,1.75-5.959,2.389-1.984.719-6.658.809-9.96.506a32.894,32.894,0,0,0-10.256.544,37.542,37.542,0,0,1-9.058.64,2.416,2.416,0,0,1-1.894-1.409,4.143,4.143,0,0,1-.547-2.947,24.676,24.676,0,0,1,.772-4.524c.165-.645.975-4.85,1.117-5.493.9-4.045,1.182-8.124-2-9.965a9.631,9.631,0,0,0-5.256-.626c-5.391.957-4.261,1.864-7.7.644a10.309,10.309,0,0,0-2.9-.435c-1.724.069-4.182,1.279-6.356,1.621-1.526.241-1.925-1.461-1.884-2.678.063-1.886.26-3.7.176-5.807-.223-5.521-1.186-5.818-1.85-9.146-.6-3.019-.429-8.145-.574-8a23.12,23.12,0,0,1,3.155-10.355,19.424,19.424,0,0,0,2.251-4.341,10.134,10.134,0,0,0,.329-6.418c-.012-.057-.566-1.831-.366-1.831a5.969,5.969,0,0,1,.474-3.134,3.76,3.76,0,0,1,1.963-2.247,5.705,5.705,0,0,1,1.792-.594c2-.141,2.408,1.144,6.151-.428,1.938-.816,3.865.277,4.818.627,2.6.946,2.146.946,3.8,1a8.084,8.084,0,0,0,4.544-1.234,5.543,5.543,0,0,0,1.972-1.518,11.356,11.356,0,0,0,1.145-3.236,10.746,10.746,0,0,0,.186-4.33c-.829-3.17-1.131-3.851-1.7-5.857a42.69,42.69,0,0,1-1.252-4.7c0-.028-.066-1.821-.066-1.821a2.16,2.16,0,0,1,2.112-2.586c4.64-.037,8.993,1.286,13.9,1.255,4.047-.026,5.768-.855,10.531.88,1.659.6,2.639,1.962,5.237,2.694,4.939,1.393,8.863-1.94,13.088.051,3.512,1.655,2.773.656,6.075,2.763a21.293,21.293,0,0,0,8.511,3.248c2.844.42,7.354-.755,12,2.618a15.694,15.694,0,0,0,8.345,3.01c3.937.406,4.319-.149,7.423,2.1,2.283,1.657,1.654,1.288,3.958,3a16.018,16.018,0,0,0,3.371,2.246,29.433,29.433,0,0,0,4.071.846c2.942.15,3.77-.092,6.106.741-.05-.054,3.017,1.96,2.482,1.611" transform="translate(-0.228 -0.233)"/><path d="M1077.506,1280.037v6.251h23.48l2.338-2.191v-7.5h-3.468l.013-1.9,12.94-7.427,1.086,1.116a21.347,21.347,0,0,0-6.877,6.961,19,19,0,0,0-1.961,14.792,16.464,16.464,0,0,0,4.3,7.262,21.58,21.58,0,0,0,7.087,4.891,50.756,50.756,0,0,0,14.1,3.834,80.15,80.15,0,0,0,14.854-.227,44.646,44.646,0,0,0,11.613-3.155,35.7,35.7,0,0,0,6.452-3.486c4.676-3.365,9.606-8.44,9.682-14.779h-8.717c-2.745,9.737-29.136,14.191-39.69,6.657-7.693-6.054-5.506-11.412-2.264-13.9l.983,1.058-1.646,1.735.121,6.266h22.228l2.865-2.717v-6.8h-1.7l-7.69-8.3c14.777-3.168,22.092,3.32,26.405,10.415h5.789l2.925-2.868v-16.454l-6.166-.015-3.695,2.293c-13.121-5.81-22.846-5.145-33.026-1.764l-1.659-1.689,9.4-5.618,5.669-.029,2.775-2.643.015-5.6h-22.681l-2.412,2.448v3.817l-21.261,12.17v-9.375l3.435-3.473v-5.644h-22.287l-3.044,3.562v4.467h3.649v24.124h-1.117a42.951,42.951,0,0,0-2.835,3.442" transform="translate(-1.125 -0.736)"/><path class="b" d="M1081.56,1245.864h20.355v3.654l-3.467.031v15.818l27.747-15.85h-2.443v-3.654l20.993-.029v3.653l-4.676.061-14.211,8.392,19.127,20.681.664.015v4.213h-21.111v-4.257l2.94.029-13.1-13.977L1098.6,1273.7v4.92h3.317v4.2h-20.355v-4.2h3.468v-29.1h-3.468v-3.653Zm90.088,40.005c-.815,4.3-2.775,6.037-5.2,8.83a24.816,24.816,0,0,1-7.148,5.131,41.113,41.113,0,0,1-18.021,4.154,55.149,55.149,0,0,1-22.544-3.7,21.235,21.235,0,0,1-10.556-8.906c-2.337-4.755-1.191-9.812-.362-12.3,1.041-3.02,2.7-6.116,7.54-9.42l6.092,6.582c-3.09,2.685-5.353,7.592-.512,13.178,5.791,7.245,18.986,9.283,32.708,5.207,7.088-2.11,10.178-5.055,12.426-8.753h5.579Zm-40.626-24.606c4.145-1.285,15.834-5.285,32.271,1.962l3.469-2.266h4.854l-.06,14.613-5.4.062c-5.506-8.287-18.021-11.2-29.708-8.408l-5.429-5.963Z" transform="translate(-1.227 -0.771)"/></g><rect class="c" width="200" height="200"/></svg>