<svg xmlns="http://www.w3.org/2000/svg" width="200" height="200" viewBox="0 0 200 200"><defs><style>.a{fill:#8e9090;}.b,.e{fill:#fff;}.c{fill:#2e2a25;}.d{fill:#0055b8;}.e{fill-rule:evenodd;}.f{fill:none;mix-blend-mode:multiply;isolation:isolate;}</style></defs><g transform="translate(-1027.871 -1560.508)"><path class="a" d="M1105.034,1656.7c13.647-2.092,27.272-1.478,39.2,3.558l1.455-3.2c-19.3-6.21-43.549-5.892-61.615,4l5.148-11.959c-22.707,6.138-37.985,18.942-53.347,32.134,11.2-26.452,35.546-48.2,63.079-56.092l-1.4,4.39c24.112-7.869,50.577-9.36,72-5.82l-5.018-6.529,12.294,3.131,7.9-11.809,3.126,14.6,12.09,3.921s-8.807,3.682-8.383,3.861c45.78,18.856,31.124,81.511-12.406,81.843-22.02.185-39.1-19.713-38.358-40.526-11.193-7.368-22.425-10.914-35.769-15.508"/><path class="b" d="M1090.025,1641.614l2.568-1.271,2.132,1.908-.415-2.829,2.469-1.441-2.82-.485-.609-2.787-1.327,2.527-2.847-.281,2,2.042Z" transform="translate(10.647 5.233)"/><path class="c" d="M1186.111,1629.974l7.22-3.152.353-.154-.365-.12s-7.566-2.487-9.19-3.017c-.245-1.711-1.44-9.935-1.44-9.935l-.059-.4-2.751,4.474s-1.575,2.541-2.427,3.924l-9.61-2.448-.41-.1.258.337c.008.006,3.183,4.093,5.11,6.584a129.008,129.008,0,0,0-27.353-2.667q-5.12,0-10.674.318a146.346,146.346,0,0,0-41.529,8.289l1.53-4.555-.272.088c-20.953,6.547-43.871,26.188-54,45.613l.227.173c14.322-13.435,33.708-24.161,51.084-28.065l-4.564,10.638.353-.171c8.086-3.9,18.7-5.628,29.411-5.628,10.962,0,22.021,1.806,30.566,4.92l-3.275,7.143a74.266,74.266,0,0,0-28.419-5.982,45.843,45.843,0,0,0-4.782.235l-.024.287c11.045,3.119,22.481,6.642,31.543,13.906q-.083,1.157-.083,2.31c0,19.122,16.511,36.428,35.884,36.432.131,0,.26,0,.39,0,21.349-.25,37.171-19.827,37.172-40.233,0-15.029-8.6-30.521-29.874-39.038" transform="translate(0.925 0.937)"/><path class="a" d="M1156.632,1657.34c-7.881,0-15.769-2.891-23.691-5.8a31.921,31.921,0,0,0-3.152,13.751,32.375,32.375,0,0,0,.908,7.563q.981.022,1.97.023a89.724,89.724,0,0,0,44.637-12.025,59.623,59.623,0,0,0-5.329-7.967,27.891,27.891,0,0,1-15.343,4.456" transform="translate(18.758 8.595)"/><path class="a" d="M1131.814,1673.843h-.515c4.782,12.369,15.75,20.568,29.128,20.753,4.281-10.546,9.031-22.073,19.894-27.458a55.162,55.162,0,0,0-2.032-5.575,92.63,92.63,0,0,1-46.475,12.281" transform="translate(19.06 10.596)"/><path class="a" d="M1163.718,1641.187a48.52,48.52,0,0,0-8.069-2.432c-1.33.182-3.134.36-4.595.65a49.674,49.674,0,0,1,20.049,13.809,29.08,29.08,0,0,0,7.667-8.584c-5.5-5.346-15.856-11.9-41.683-13.932,10.906,2.6,20.932,6.093,26.766,10.231Z" transform="translate(20.216 4.432)"/><path class="a" d="M1098.926,1636.911c1.6-.036,3.332-.058,5.159-.058,18.35.008,46.668,2.166,57.651,15.2l-.184.223c-3.8-2.116-11.4-5.624-16.141-5.618-.152,0-.3,0-.449.012a41.371,41.371,0,0,0-4.36,5.851c7.341,2.707,14.772,5.39,22.136,5.39a25.744,25.744,0,0,0,13.774-3.833c-12.726-13.869-34.267-19.919-54.588-19.918a94.369,94.369,0,0,0-23,2.747" transform="translate(12.594 5.124)"/><path class="a" d="M1172.185,1660.951a46.249,46.249,0,0,0,9.4-8.182,36.188,36.188,0,0,0-6.955-8.994,32.194,32.194,0,0,1-7.759,9.1,72.53,72.53,0,0,1,5.313,8.078" transform="translate(26.165 7.044)"/><path class="a" d="M1158.172,1693.053a32.188,32.188,0,0,0,17.358-7.219,33.842,33.842,0,0,0,1.094-8.766,46.728,46.728,0,0,0-.807-8.421c-9.721,4.674-13.761,14.932-17.644,24.406" transform="translate(24.427 12.011)"/><path class="a" d="M1176.152,1679.443q0,1.462-.072,2.93a34.7,34.7,0,0,0,6.933-16.1,35.721,35.721,0,0,0-8.1,1.57,53.554,53.554,0,0,1,1.24,11.6" transform="translate(27.771 11.538)"/><path class="a" d="M1172.417,1661.648c.852,1.95,1.611,3.93,2.268,5.958a35.734,35.734,0,0,1,9.122-1.688c0-.226,0-.447,0-.669a32.852,32.852,0,0,0-1.978-11.409,58.266,58.266,0,0,1-9.414,7.809" transform="translate(27.272 9.054)"/><path class="a" d="M1183.806,1665.919a35.617,35.617,0,0,0-9.12,1.687c-.657-2.027-1.416-4.007-2.27-5.958a58.21,58.21,0,0,0,9.414-7.808,32.751,32.751,0,0,1,1.982,11.411c0,.22,0,.442-.006.668" transform="translate(27.272 9.054)"/><path class="a" d="M1183.806,1665.919a35.617,35.617,0,0,0-9.12,1.687c-.657-2.027-1.416-4.007-2.27-5.958a58.21,58.21,0,0,0,9.414-7.808,32.751,32.751,0,0,1,1.982,11.411c0,.22,0,.442-.006.668" transform="translate(27.272 9.054)"/><path class="a" d="M1174.631,1643.774a36.188,36.188,0,0,1,6.955,8.994,46.334,46.334,0,0,1-9.4,8.183,72.324,72.324,0,0,0-5.312-8.08,32.176,32.176,0,0,0,7.759-9.1" transform="translate(26.165 7.044)"/><path class="a" d="M1174.631,1643.774a36.188,36.188,0,0,1,6.955,8.994,46.334,46.334,0,0,1-9.4,8.183,72.324,72.324,0,0,0-5.312-8.08,32.176,32.176,0,0,0,7.759-9.1" transform="translate(26.165 7.044)"/><path class="a" d="M1137.085,1630.7c25.831,2.031,36.186,8.585,41.685,13.933a29.147,29.147,0,0,1-7.667,8.585,49.648,49.648,0,0,0-20.049-13.812c1.459-.287,3.264-.468,4.595-.649a48.645,48.645,0,0,1,8.069,2.43l.137-.254c-5.837-4.138-15.863-7.635-26.77-10.231" transform="translate(20.216 4.432)"/><path class="a" d="M1137.085,1630.7c25.831,2.031,36.186,8.585,41.685,13.933a29.147,29.147,0,0,1-7.667,8.585,49.648,49.648,0,0,0-20.049-13.812c1.459-.287,3.264-.468,4.595-.649a48.645,48.645,0,0,1,8.069,2.43l.137-.254c-5.837-4.138-15.863-7.635-26.77-10.231" transform="translate(20.216 4.432)"/><path class="a" d="M1132.664,1672.877c-.655,0-1.313-.01-1.969-.023a32.382,32.382,0,0,1-.906-7.564,31.969,31.969,0,0,1,3.148-13.753c7.923,2.912,15.813,5.8,23.693,5.8a27.876,27.876,0,0,0,15.341-4.452,59.085,59.085,0,0,1,5.332,7.965,89.729,89.729,0,0,1-44.64,12.025" transform="translate(18.758 8.594)"/><path class="a" d="M1132.664,1672.877c-.655,0-1.313-.01-1.969-.023a32.382,32.382,0,0,1-.906-7.564,31.969,31.969,0,0,1,3.148-13.753c7.923,2.912,15.813,5.8,23.693,5.8a27.876,27.876,0,0,0,15.341-4.452,59.085,59.085,0,0,1,5.332,7.965,89.729,89.729,0,0,1-44.64,12.025" transform="translate(18.758 8.594)"/><path class="a" d="M1160.428,1694.6c-13.378-.186-24.345-8.383-29.13-20.754.173,0,.344,0,.517,0a92.662,92.662,0,0,0,46.475-12.283,55.561,55.561,0,0,1,2.033,5.575c-10.863,5.387-15.616,16.913-19.9,27.458" transform="translate(19.06 10.597)"/><path class="a" d="M1160.428,1694.6c-13.378-.186-24.345-8.383-29.13-20.754.173,0,.344,0,.517,0a92.662,92.662,0,0,0,46.475-12.283,55.561,55.561,0,0,1,2.033,5.575c-10.863,5.387-15.616,16.913-19.9,27.458" transform="translate(19.06 10.597)"/><path class="a" d="M1176.08,1682.374q.07-1.467.072-2.93a53.562,53.562,0,0,0-1.24-11.6,35.854,35.854,0,0,1,8.1-1.572,34.7,34.7,0,0,1-6.933,16.1" transform="translate(27.771 11.537)"/><path class="a" d="M1176.08,1682.374q.07-1.467.072-2.93a53.562,53.562,0,0,0-1.24-11.6,35.854,35.854,0,0,1,8.1-1.572,34.7,34.7,0,0,1-6.933,16.1" transform="translate(27.771 11.537)"/><path class="a" d="M1176.513,1654.082a25.774,25.774,0,0,1-13.775,3.832c-7.363,0-14.8-2.685-22.135-5.393a41.332,41.332,0,0,1,4.36-5.849c.148-.011.3-.012.449-.012,4.74-.006,12.34,3.5,16.141,5.618l.182-.223c-10.981-13.039-39.3-15.195-57.65-15.2-1.828,0-3.558.023-5.16.058a94.333,94.333,0,0,1,23-2.746c20.321,0,41.862,6.048,54.588,19.918" transform="translate(12.594 5.124)"/><path class="a" d="M1176.513,1654.082a25.774,25.774,0,0,1-13.775,3.832c-7.363,0-14.8-2.685-22.135-5.393a41.332,41.332,0,0,1,4.36-5.849c.148-.011.3-.012.449-.012,4.74-.006,12.34,3.5,16.141,5.618l.182-.223c-10.981-13.039-39.3-15.195-57.65-15.2-1.828,0-3.558.023-5.16.058a94.333,94.333,0,0,1,23-2.746c20.321,0,41.862,6.048,54.588,19.918" transform="translate(12.594 5.124)"/><path class="a" d="M1175.53,1685.834a32.188,32.188,0,0,1-17.358,7.219c3.882-9.474,7.921-19.733,17.644-24.406a46.63,46.63,0,0,1,.809,8.421,33.8,33.8,0,0,1-1.1,8.766" transform="translate(24.427 12.011)"/><path class="a" d="M1175.53,1685.834a32.188,32.188,0,0,1-17.358,7.219c3.882-9.474,7.921-19.733,17.644-24.406a46.63,46.63,0,0,1,.809,8.421,33.8,33.8,0,0,1-1.1,8.766" transform="translate(24.427 12.011)"/><path class="a" d="M1151.567,1631.823l5.613-1.965,4.267,4.838-.5-6.317,5.438-2.367-5.918-1.945-.917-6.3-3.16,5.116-5.992-1.53,3.972,5.108Z" transform="translate(22.875 1.849)"/><path class="b" d="M1126.642,1635.018l3.9-1.922,3.25,2.89-.635-4.3,3.759-2.183-4.29-.734-.923-4.237-2.013,3.85-4.328-.44,3.038,3.106Z" transform="translate(17.874 3.2)"/><path class="b" d="M1090.014,1641.614l2.57-1.268,2.13,1.9-.413-2.827,2.467-1.442-2.82-.485-.609-2.789-1.325,2.527-2.847-.282,2,2.044Z" transform="translate(10.645 5.233)"/><path class="d" d="M1172.795,1672.884l0-.523-3.621,6.066,1.039-5.341-.257-.121a42.115,42.115,0,0,0-8.981,16.759l-.078.271.266-.092a32.927,32.927,0,0,0,10.29-5.454l.026-.021.014-.031c.885-1.924,1.307-5.818,1.31-10.589,0-.3,0-.614,0-.924" transform="translate(24.971 12.753)"/><path class="d" d="M1166.475,1662.267a97.875,97.875,0,0,1-18.753,1.867c-.929,0-1.846-.014-2.746-.045l13.294-3.933-.035-.286c-8.777-.412-15.552-.578-24.128-4.6l-.126-.061-.066.121a18.632,18.632,0,0,0-2,8.747,19.307,19.307,0,0,0,.737,5.418l.031.1.1,0s.308.008.873.008c3.832,0,19.582-.421,32.908-7.07Z" transform="translate(19.183 9.328)"/><path class="d" d="M1168.818,1670.615c-6.7,4.981-11.745,9.009-21.631,10.867,9.154-4.756,15.293-8.029,21.064-13.871l-.178-.228c-10.232,5.958-23.562,8.51-32.966,8.865l-.252.01.134.214c7.742,12.252,17.536,13.348,20.724,13.348h.017a10.244,10.244,0,0,0,1.037-.043l.07-.01.037-.059c4.151-6.57,6.794-12.892,12.142-18.879Z" transform="translate(19.77 11.759)"/><path class="e" d="M1181.856,1653.615c-.882.947-1.728,1.784-2.6,2.569a39.4,39.4,0,0,0-3.376-5.912c.678-.817,1.33-1.659,1.94-2.541a26.758,26.758,0,0,1,4.032,5.885m3.527,13c-1.031.138-1.987.284-2.935.489a38.9,38.9,0,0,0-.9-4.537c1.025-.861,2.006-1.738,3.005-2.677a26.7,26.7,0,0,1,.834,6.724m-3.3,13.883-.029-.514a39.4,39.4,0,0,0,.744-6.376c.559-.151,1.13-.264,1.708-.373a37.555,37.555,0,0,1-2.423,7.263m-24.386-44.322c-.488-.256-.983-.5-1.495-.726,7.915,2.344,13.251,5.4,16.234,7.723-.459.681-.969,1.338-1.5,1.976a38.588,38.588,0,0,0-13.241-8.973" transform="translate(24.033 5.381)"/></g><rect class="f" width="200" height="200"/></svg>