<svg xmlns="http://www.w3.org/2000/svg" width="200" height="200" viewBox="0 0 200 200"><defs><style>.a{fill:#fff;}.a,.b,.c{fill-rule:evenodd;}.b{fill:#0080c6;}.c{fill:#ffc20e;}.d{fill:none;mix-blend-mode:multiply;isolation:isolate;}</style></defs><g transform="translate(-711.682 -1796.352)"><path class="a" d="M905.462,1938.323c-10.434-14.051-28.644-31.216-50.338-40.851l4.43,10.208c-18.447-9.29-38.954-15.96-62.2-15.854l4.954,5.364c-42.94,1.682-68.131,22.975-84.627,41.133.387-24.587,18-46.79,41.211-60.345l-4.777-4.434c17.273-11.955,41.5-15.309,61.944-12.947l-2.907-5.246c67.733,5.034,96.423,55.582,92.309,82.972"/><path class="b" d="M797.254,1895.341l-5.2-5.635c19.722-.655,39.659,2.314,62.854,13.215l-4.273-9.845c17.462,6.765,36.808,19.393,53.031,38.98-1.428-29.658-31.38-68.088-85.858-73.583l3.029,5.464c-22.019-3.74-46.758.152-62.5,10.191l4.924,4.569c-23.7,12.71-39.267,32.928-42.609,53.358,19.56-20.431,44.991-34.542,76.609-36.714" transform="translate(-0.216 -0.228)"/><path class="c" d="M895.989,1916.627c-9.232-24.848-37-46.272-68.165-51.4l3.661,6.524c-18.773-5.807-46.052-5.455-63.985,3.9l5.144,4.775c-16.436,7.043-33.779,22.126-40.643,35.987,11.257-10.155,35.75-21.909,55.843-24.407l-4.993-5.405c19.31-3.828,45.047-.04,63.4,7.41l-3.56-8.2c13.514,2.77,38.627,14.844,53.3,30.815" transform="translate(-1.045 -0.721)"/></g><rect class="d" width="200" height="200"/></svg>