<svg xmlns="http://www.w3.org/2000/svg" width="200" height="200" viewBox="0 0 200 200"><defs><style>.a{fill:#e03a3e;}.b{fill:#fff;}.c{fill:none;mix-blend-mode:multiply;isolation:isolate;}</style></defs><g transform="translate(21 21)"><path class="a" d="M178.386,824.228a78.559,78.559,0,1,1,78.56-78.557A78.648,78.648,0,0,1,178.386,824.228Z" transform="translate(-99.826 -667.111)"/><path class="b" d="M178.386,820.6a74.934,74.934,0,1,1,74.935-74.932A75.018,75.018,0,0,1,178.386,820.6Z" transform="translate(-99.826 -667.111)"/><path class="a" d="M178.386,816.978A71.308,71.308,0,1,1,249.7,745.671,71.389,71.389,0,0,1,178.386,816.978Z" transform="translate(-99.826 -667.111)"/><g transform="translate(-99.826 -667.111)"><path class="b" d="M152.932,685.409l1.359,3.065-3.857-1.957-2.137.948,4.464,10.066,2.138-.949-2.835-6.392L156,692.321l1.4,3.154,2.139-.948L155.07,684.46Z"/><path class="b" d="M199.6,683.725l-1.643,5.167-2.6-.828,1.642-5.167-2.229-.708-1.643,5.167-.767-.244.353,1.546-1.279,4.024,2.229.709,1.06-3.333,2.6.827-1.061,3.334,2.228.708,3.337-10.494Z"/><path class="b" d="M236.144,714.4q-.628-.985-1.26-1.97a24.546,24.546,0,0,1-5.09,2.1l-.949-1.485,4.567-2.921-1.26-1.97-4.567,2.92-.435-.678-.717,1.416-3.557,2.274,1.259,1.97,2.948-1.884,1.1,1.718a22.316,22.316,0,0,1-2.575,2.467l1.261,1.971c.707-.577,2.928-2.51,3.349-3.637A22.525,22.525,0,0,0,236.144,714.4Z"/><path class="b" d="M239.054,720.894a11.676,11.676,0,0,0-4.711,1.14l-.644,5.741a14.026,14.026,0,0,1-1.4.351l-.942-2.414.809-.316-.852-2.178-2.755,1.076,2.462,6.309A13.054,13.054,0,0,0,236,729.355h0l.545-5.7c.4-.119.8-.221,1.22-.3l.95,2.435-.806.315.849,2.179,2.757-1.077S239.21,721.3,239.054,720.894Z"/><path class="b" d="M120.626,714.6l1.789,1.084,1.324-2.185,7.631,4.624,1.212-2L124.95,711.5l1.324-2.186-1.788-1.084Z"/><path class="b" d="M161.043,682.424l.466,2.039,2.49-.569,1.987,8.7,2.28-.521-1.987-8.7,2.491-.568-.466-2.04Z"/><path class="b" d="M129.843,701.708l-1.572,1.73,8.148,7.406,3.808-4.191-1.548-1.407-2.236,2.459Z"/><path class="b" d="M128.566,723.212l-5.029-1.815a13.8,13.8,0,0,0-5.783-.669c-.019.054-1.535,4.241-1.606,4.439a13.834,13.834,0,0,0,4.665,3.1l-.279.77,1.567-.293,3.943,1.431.8-2.2-3.27-1.183.93-2.569,3.269,1.183Zm-9.925,1.212.553-1.528a13.221,13.221,0,0,1,3.339.624l-.927,2.561A13.253,13.253,0,0,1,118.641,724.424Z"/><path class="b" d="M208.875,700.413l2.684-4.623a13.8,13.8,0,0,0,1.691-5.571l-4.08-2.374a13.847,13.847,0,0,0-3.888,4.036l-.708-.411.009,1.594-2.112,3.623,2.022,1.177,1.747-3.005,2.361,1.373-1.748,3.006Zm.581-9.982,1.4.817a13.171,13.171,0,0,1-1.21,3.174l-2.354-1.369A13.206,13.206,0,0,1,209.456,690.431Z"/><path class="b" d="M148.664,699.789l-3.249-4.246a13.784,13.784,0,0,0-4.5-3.69l-3.752,2.866a13.857,13.857,0,0,0,2.247,5.133l-.651.5,1.476.6,2.544,3.335,1.859-1.42-2.11-2.762,2.17-1.658,2.111,2.762Zm-9-4.348,1.291-.986a13.24,13.24,0,0,1,2.472,2.331l-2.164,1.652A13.166,13.166,0,0,1,139.66,695.441Z"/><path class="b" d="M176.023,691.211l-.04-3.476,2.732-.032.039,3.477,2.338-.027-.051-4.194.793-1.383-.818.009a13.87,13.87,0,0,0-1.393-5.428l-4.72.054a13.794,13.794,0,0,0-1.274,5.681l.055,5.345Zm2.664-5.6-2.723.031a13.277,13.277,0,0,1,.51-3.359l1.626-.018A13.236,13.236,0,0,1,178.687,685.612Z"/><path class="b" d="M226.506,701.255l-3.553,3.641a12.79,12.79,0,0,1-3.062,2.353l-.7-.683a13.322,13.322,0,0,1,2.1-3.174l3.62-3.71-1.677-1.635-3.576,3.666a13.33,13.33,0,0,1-3.167,2.223l-.7-.683a12.827,12.827,0,0,1,2.276-3.119l3.55-3.643-1.673-1.633-3.707,3.8a13.593,13.593,0,0,0-3.011,5.013c.04.041,2.7,2.633,2.848,2.78.321-.109.634-.231.941-.356-.118.31-.232.626-.333.949l2.849,2.778a13.6,13.6,0,0,0,4.939-3.134l3.707-3.8Z"/><path class="b" d="M132.4,775.16a11.709,11.709,0,0,0-4.229,2.366l.925,5.7q-.606.384-1.256.715l-1.558-2.071.693-.522-1.4-1.869-2.365,1.778s3.9,5.189,4.07,5.414a13.085,13.085,0,0,0,4.464-2.543h0l-1.012-5.64c.352-.221.716-.428,1.094-.618l1.571,2.089-.693.521,1.406,1.87,2.365-1.779S132.661,775.506,132.4,775.16Z"/><path class="b" d="M157.479,796.124,156.8,798.1l2.416.832-2.908,8.437,2.211.763,2.908-8.438,2.415.833.682-1.978Z"/><path class="b" d="M125.863,760.472c-.1-.476-1.513-7.163-1.513-7.163l-4.363.921-.174-.823-1.224,1.119-5.012,1.059s1.407,6.664,1.5,7.131a19.262,19.262,0,0,0,5.2-1.87A13.933,13.933,0,0,0,125.863,760.472Zm-3.076-4.443.535,2.532a12.091,12.091,0,0,1-2.4.116l-.455-2.158Zm-6.681,1.411,2.317-.489.437,2.069a19.587,19.587,0,0,1-2.234.879Z"/><path class="b" d="M153.508,796.577l1.041-1.815-6.35-3.642-2.219,3.868-.757-.434.02,1.719-2.523,4.4,6.351,3.642,1.041-1.815-4.322-2.479,1.177-2.053,2.672,1.532,1.041-1.815-2.672-1.533,1.178-2.053Z"/><path class="b" d="M222.154,790.337l.584.641-1.948,1.773-4.6-5.05,1.769-1.609c.227.2.461.417.7.64l1.729-1.573a20.412,20.412,0,0,0-2.344-1.971l-4.987,4.54,7.41,8.143,5.406-4.92-1.991-2.188Z"/><path class="b" d="M193.4,797.992l-2.257.614,2.894,10.625,5.463-1.488-.55-2.019-3.207.874Z"/><path class="b" d="M120.231,775.842l4.855-2.237a13.811,13.811,0,0,0,4.588-3.583l-1.972-4.29a13.851,13.851,0,0,0-5.5,1.065l-.343-.744-.91,1.308-3.813,1.748.977,2.126,3.159-1.453,1.141,2.482-3.159,1.453Zm6.217-7.831.679,1.477a13.235,13.235,0,0,1-2.816,1.9l-1.138-2.474A13.3,13.3,0,0,1,126.448,768.011Z"/><path class="b" d="M174.951,800.091l-7.256-.973-.592,4.419-.835-.111.645,1.527-.681,5.078s6.751.906,7.224.968a19.28,19.28,0,0,0-.022-5.526A13.9,13.9,0,0,0,174.951,800.091Zm-5.216,1.411,2.564.344a11.953,11.953,0,0,1-.693,2.295l-2.186-.293Zm-.907,6.767.315-2.347,2.1.281a19.526,19.526,0,0,1,.08,2.4Z"/><path class="b" d="M232.471,753.337c-.106.477-1.58,7.149-1.58,7.149l4.354.962-.181.822,1.576-.515,5,1.106,1.574-7.117a19.244,19.244,0,0,0-5.509-.444A13.946,13.946,0,0,0,232.471,753.337Zm.968,5.316.557-2.527a12.163,12.163,0,0,1,2.23.884l-.476,2.154Zm6.666,1.475-2.312-.512.457-2.065a19.606,19.606,0,0,1,2.4.122Z"/><path class="b" d="M187.584,810.519l-.525-5.319a13.779,13.779,0,0,0-1.884-5.508l-4.7.457a13.875,13.875,0,0,0-.794,5.548l-.815.08.939,1.288.4,4.175,2.327-.228-.339-3.46,2.72-.266.337,3.46Zm-5.363-8.438,1.617-.158a13.256,13.256,0,0,1,.872,3.282l-2.71.266A13.2,13.2,0,0,1,182.221,802.081Z"/><path class="b" d="M222.281,778.007l-1.4,1.874,8.823,6.588,3.388-4.537-1.677-1.253-1.99,2.664Z"/><path class="b" d="M202.454,794.48l-2.1,1.026,4.832,9.894,5.088-2.483-.918-1.881-2.987,1.458Z"/><path class="b" d="M228.443,767.3l4.634,2.1a12.808,12.808,0,0,1,3.258,2.072l-.709,1.568a12.809,12.809,0,0,1-3.708-1.073l-4.637-2.093-.961,2.131,4.837,2.185a13.593,13.593,0,0,0,5.742,1.118c.023-.051,1.88-4.162,1.979-4.38a13.628,13.628,0,0,0-4.635-3.57l-4.839-2.184Z"/><path class="b" d="M144.955,788.795l-1.738-1.565a24.5,24.5,0,0,1-4.347,3.382l-1.311-1.178,3.627-4.03-1.738-1.566-3.627,4.031-.6-.538-.316,1.554-2.825,3.139,1.738,1.565,2.34-2.6,1.517,1.364a22.237,22.237,0,0,1-1.826,3.063l1.738,1.564c.53-.744,2.157-3.2,2.261-4.4A22.512,22.512,0,0,0,144.955,788.795Z"/></g><path class="b" d="M227.094,745.671a48.71,48.71,0,1,1-48.708-48.712A48.709,48.709,0,0,1,227.094,745.671Z" transform="translate(-99.826 -667.111)"/><g transform="translate(-99.826 -667.111)"><path class="a" d="M178.411,700.5a45.356,45.356,0,0,0-36.43,18.281c1.212.348,3.5,1,6.313,1.813l-.012.009c4.452,1.311,19.222,5.642,21.982,6.524,8.064,2.587,10.183,3.6,12.455,6.031a61.174,61.174,0,0,0,9.083,7.6c3.371,2.349,5.014,4.931,5.014,9.008s-3.137,7.513-5.092,8.692c0,0,.705-1.958-.235-2.817s-3.913-2.508-11.516-1.96-17.779,4.231-24.67,7.911c0,0,3.288-5.17,8.224-7.519,0,0-4.073,0-26.809,9.913A45.43,45.43,0,1,0,178.411,700.5Zm0,80.825a35.3,35.3,0,0,1-25.3-10.638c18.343-9.463,29.763-7.022,29.763-5.177,0,1.874-2.819,6.261-2.819,6.261,14.956-2.114,25.848-11.121,25.848-23.257S194.541,730.5,191.643,728.7c-3.1-1.93-1.645-4.546-11.826-8.384-6.194-2.332-14.888-4.636-18.292-5.507a35.4,35.4,0,1,1,16.886,66.52Z"/><path class="a" d="M178.018,734.106a10.8,10.8,0,0,1-5.251-1.1c-2.662-1.332-6.733-4.307-10.259-1.02,0,0,2.976-.385,2.742.393s-.548,5.325,3.524,7.049S177.545,739.9,178.018,734.106Z"/></g></g><rect class="c" width="200" height="200"/></svg>