<svg xmlns="http://www.w3.org/2000/svg" width="200" height="200" viewBox="0 0 200 200"><defs><style>.a{fill:#bfc0bf;}.b{fill:#0085ca;}.c{fill:none;mix-blend-mode:multiply;isolation:isolate;}</style></defs><g transform="translate(-1324.617 -547.219)"><path d="M1502.057,607.921l0,0Zm-25.84,38.674a19.852,19.852,0,0,0,1.175-10.474s-4.06-1.5-11.436,0c0,0-3.528,7.905-8.02,11.753,0,0,3.424-8.016,1.388-14a34.812,34.812,0,0,1,13.8-1.924c7.588.534,9.295,2.139,9.295,2.139s-1.922,9.083-6.2,12.5Zm-4.9,16.56c3.528-2.579,3.153-7.633,3.153-7.633a11.455,11.455,0,0,1,.855,6.585c-.479,1.906-1.716,3.816-6.872,4.289s-8.113-1.144-8.113-1.144c2.294-2.288,4.519-8.49,4.519-8.49,1.148,4.394.173,6.426.173,6.426,2.481.76,6.286-.034,6.286-.034Zm8.12-.835c1.242,9.069-6.824,12.875-11.3,12.875s-10.647-1.9-13-9.517-2.352-17.026.672-21.618c0,0-2.014,9.072-.9,14.226s3.248,9.52,7.392,10.306,10.31.559,12.548-2.021,3.139-6.27.9-11.313-6.723-11.536.679-18.027a11.933,11.933,0,0,0-2.023,9.632c1.23,5.709,3.784,6.391,5.031,15.457Zm-28.954-37.508a90.067,90.067,0,0,0-30.729,1.126,78.088,78.088,0,0,1,32.058-3.136,11.108,11.108,0,0,0-1.329,2.01Zm-.792,4.2a89.788,89.788,0,0,0-29.583,2.9,77.949,77.949,0,0,1,29.646-4.994,6.472,6.472,0,0,0-.062,2.093Zm-27.79,23.855c-6.3-7.726-3.648-18.049-3.648-18.049a26.946,26.946,0,0,0,7.965,16.678,38.84,38.84,0,0,0,17.326,9.943s-15.344-.841-21.644-8.571Zm33.9-33.629a22.9,22.9,0,0,0-2.267,1.778,89.959,89.959,0,0,0-33.866-1.243A76.243,76.243,0,0,1,1455.8,619.235Zm-14.09-9.454,0,0,.005,0a20.586,20.586,0,0,1,11.384-1.138,19.7,19.7,0,0,1,9.331,5.213s-5.171-1.55-14.755-1.38c0,0-.377-.7.609-2.159a30.363,30.363,0,0,0-6.581-.531Zm42.406,1.6a8.257,8.257,0,0,1,6.9,2.1s-6.813-1.26-10.006,1.682C1481.01,615.16,1481.178,611.963,1484.117,611.378Zm32.47,22.469c-6.657-3.631-14.208-4.759-20-4.985,0,0-2.357.044-2.721.033a8.1,8.1,0,0,0-.064-2.591c1.438-.043,3.258-.1,3.525-.114l.219-.012c11.607-.38,17.744,2.687,17.744,2.687l-.589-.447a43.113,43.113,0,0,0-16.808-3.725h-.207s-2.5,0-4.4.031a7.133,7.133,0,0,0-2.048-2.532c2.444-.014,5.276-.006,6.906.067l.119,0c8.931.093,13.8,2.209,13.8,2.209l-.586-.461a40.374,40.374,0,0,0-13.2-3.029s-5.533-.3-9.8-.271a5.426,5.426,0,0,1,2.273,4.216c.289,5.959-5.866,8.361-5.866,8.361a9.035,9.035,0,0,0,3.369-8.459c-.676-4.227-6.154-6.235-6.154-6.235s-6.416,2.779-7.808,8.013c0,0,.109-5.447-8.981-8.976a28.154,28.154,0,0,1,8.876-.962,23.832,23.832,0,0,1,7.913,1.926s.847-2.24,5.356-3.006a27.9,27.9,0,0,1,9.393.338,10.966,10.966,0,0,0-6.475-5.893,12.242,12.242,0,0,0-8.6-.176s-.3-2.189-3.592-4.321c-5.356-3.464-19.522-5.527-22.255-5.676s2.049,1.614,3.962,2.706c2.176,1.237,4.609,3.342,4.818,5.339a2.195,2.195,0,0,1-.313,1.395,8.064,8.064,0,0,0-1.3-2.183c-3.88-4.983-13.722-7.138-21.11-6.645a40.538,40.538,0,0,0-13.255,3.286c.085.682-2.723,3.063-10.469,3.918a46.472,46.472,0,0,1-14.464-.818l-.142-.028c-.76-.094-1.33-.06-1.568.487l-.025.076-.016.1a2.332,2.332,0,0,0,.2.906l-.108-.207c.526,1.009,3.665,6.8,7.8,9.765,0,0,2.473-.524,5.406-.84,0,0-45.337,22.059-63.7,56.524a148.454,148.454,0,0,1,29.964-.537l-.077-.008h-.006a67.838,67.838,0,0,1,29.633-27.8,56.145,56.145,0,0,0-19.742,29.064,101.86,101.86,0,0,1,19.9,5.413c21.172,8.248,39.019,16.873,59.138,16.695l3.42-.15-.006-.016c-5.345-11.137-10.607-16.226-10.607-16.226a15.507,15.507,0,0,0,7.251-.44c.3-.109.558-.215.774-.314,6.581-3.547,7.678-9.551,8.218-13.851a22.817,22.817,0,0,0-.263-8.153s11.392-14.95,14.283-26.708a20.1,20.1,0,0,1,2.581-.176c13.574.153,20.993,3.924,20.993,3.924l-.506-.51ZM1501.9,608.4a2.419,2.419,0,0,0,.1-.271l.061-.218,0-.011c-.262-.748-.781-.8-1.88-.716-1.6.3-3.076.5-4.32.621h0l-.2.022-.145.012-.539.05-.077,0c-1.6.132-2.618.139-2.618.139a12.326,12.326,0,0,1,4.575,7.892l.21-.179c3.143-2.281,4.836-7.344,4.836-7.344Z" transform="translate(-1.882 -0.18)"/><path class="a" d="M1470.524,634.92c2.036,5.982-1.388,14-1.388,14,4.492-3.849,8.02-11.754,8.02-11.754,7.375-1.5,11.435,0,11.435,0a19.845,19.845,0,0,1-1.174,10.474c4.276-3.421,6.2-12.5,6.2-12.5s-1.707-1.605-9.3-2.139a34.811,34.811,0,0,0-13.8,1.924Zm24.792-22.5c-2.939.586-3.107,3.782-3.107,3.782,3.193-2.941,10.005-1.682,10.005-1.682A8.254,8.254,0,0,0,1495.316,612.422Zm-12.8,51.778s-3.8.794-6.286.034c0,0,.975-2.032-.173-6.426,0,0-2.224,6.2-4.519,8.49,0,0,2.958,1.624,8.112,1.144s6.392-2.383,6.872-4.289a11.454,11.454,0,0,0-.855-6.585s.376,5.054-3.153,7.633ZM1464.3,609.682a20.589,20.589,0,0,0-11.384,1.138,20.8,20.8,0,0,1,10.993-1.22,4.1,4.1,0,0,0-4.422,1.758c-.986,1.461-.609,2.159-.609,2.159,9.584-.171,14.755,1.38,14.755,1.38a19.7,19.7,0,0,0-9.331-5.213Z" transform="translate(-13.08 -1.225)"/><path class="b" d="M1491.637,630.429c-2.891,11.758-14.283,26.708-14.283,26.708l.005-.005c8.61-7.343,14.348-20.331,16.859-26.879a19.917,19.917,0,0,0-2.581.176Zm.347-1.714c.364.01,2.721-.033,2.721-.033.218-.734.484-1.668.74-2.672-.266.013-2.087.07-3.525.114a8.139,8.139,0,0,1,.064,2.591Zm-19.46,17.967a11.932,11.932,0,0,1,2.023-9.631c-7.4,6.491-2.922,12.99-.679,18.026s1.346,8.737-.9,11.314-8.4,2.8-12.548,2.02-6.272-5.153-7.392-10.3.9-14.226.9-14.226c-3.024,4.591-3.024,14-.672,21.617s8.515,9.518,13,9.518,12.546-3.807,11.3-12.875-3.8-9.747-5.031-15.458Zm27.724-39.55-.015-.148-.012-.076-.04-.128-.025-.067-.053-.111-.028-.053-.07-.1-.039-.043-.077-.081-.04-.036-.09-.068-.044-.029-.093-.051-.043-.025-.094-.042-.04-.02-.089-.031-.039-.012-.086-.023-.028-.009-.079-.014-.023-.005-.062-.008-.014,0-.069-.008a29.158,29.158,0,0,1-10.3-1.858l-.381-.137c-12.577-4.6-25.632-5.918-37.255-5.707l0-.012c-5.191.048-8.981.472-8.981.472a135.762,135.762,0,0,0-28.651,5.408,36.4,36.4,0,0,1-10.589.977s-2.246-.039-2.69,1.39c-.38.911-.431,1.993.423,4.364.986,2.734,4.932,7.874,4.962,7.912-11.936,4.847-43.02,22.277-70.868,57.323a123.716,123.716,0,0,1,15.141-2.612c18.368-34.465,63.7-56.524,63.7-56.524-2.933.316-5.406.841-5.406.841-4.139-2.971-7.277-8.757-7.8-9.766l.109.208a2.337,2.337,0,0,1-.2-.907l.016-.1.025-.076c.238-.547.809-.581,1.568-.487l.142.028a46.454,46.454,0,0,0,14.464.817c7.745-.854,10.554-3.235,10.469-3.917a40.526,40.526,0,0,1,13.255-3.286c7.387-.492,17.228,1.663,21.11,6.645a8.073,8.073,0,0,1,1.3,2.183,2.193,2.193,0,0,0,.313-1.395c-.209-2-2.643-4.1-4.818-5.339-1.913-1.092-6.689-2.849-3.962-2.706s16.9,2.212,22.255,5.676c3.3,2.131,3.591,4.32,3.591,4.32a12.249,12.249,0,0,1,8.6.176,10.969,10.969,0,0,1,6.475,5.894,12.326,12.326,0,0,0-4.575-7.893s1.016-.006,2.618-.138l.077,0,.539-.05.145-.012.2-.022h0c1.245-.123,2.722-.318,4.321-.622,1.1-.086,1.618-.031,1.88.717v.01l-.06.218a2.271,2.271,0,0,1-.1.272s-1.693,5.063-4.836,7.344l-.21.179a27.909,27.909,0,0,0-9.393-.338c-4.51.766-5.356,3.005-5.356,3.005s5.478,2.009,6.154,6.236a9.038,9.038,0,0,1-3.369,8.459s6.155-2.4,5.866-8.361a5.426,5.426,0,0,0-2.272-4.216c4.266-.025,9.8.271,9.8.271a8.376,8.376,0,0,0-.877-4.187,15.025,15.025,0,0,0,4.656-8.876l0,0v0c.016-.058.045-.213.051-.246l.009-.1a1.229,1.229,0,0,0,.011-.17v-.087Zm-36.817,10.318c9.088,3.528,8.981,8.976,8.981,8.976,1.392-5.234,7.808-8.014,7.808-8.014a23.811,23.811,0,0,0-7.913-1.925A28.151,28.151,0,0,0,1463.43,617.451Zm25.924,4.56a7.115,7.115,0,0,1,2.048,2.532c1.9-.036,4.4-.031,4.4-.031.181-.8.34-1.612.449-2.369l.009-.065c-1.631-.074-4.462-.081-6.906-.067Zm-20.729,57.444a15.518,15.518,0,0,1-7.252.439s5.261,5.09,10.606,16.227l.006.015.209-.013a110.3,110.3,0,0,0-3.185-15.148l-.385-1.52Zm-44.289-28.144a26.943,26.943,0,0,1-7.965-16.679s-2.651,10.325,3.647,18.049,21.644,8.571,21.644,8.571a38.842,38.842,0,0,1-17.326-9.942Zm-44.7,21.605h.006l.078.007c.288.025,1.21.111,1.262.119.125.011,1.709.176,1.724.177q3.373.378,6.822.959a56.145,56.145,0,0,1,19.742-29.064,67.836,67.836,0,0,0-29.633,27.8Zm38.149-53.329a89.981,89.981,0,0,1,33.866,1.243,23.272,23.272,0,0,1,2.266-1.778A76.254,76.254,0,0,0,1417.786,619.589Zm.086,6.168a90.039,90.039,0,0,1,30.729-1.126,10.98,10.98,0,0,1,1.329-2.01,78.069,78.069,0,0,0-32.058,3.136Zm32.959-17.383a20.8,20.8,0,0,0-10.992,1.22l-.005,0,0,0h0a30.275,30.275,0,0,1,6.58.531,4.1,4.1,0,0,1,4.422-1.758Zm-32.606,23.356a89.778,89.778,0,0,1,29.583-2.9,6.475,6.475,0,0,1,.062-2.093,77.949,77.949,0,0,0-29.646,4.993Z"/></g><rect class="c" width="200" height="200"/></svg>