<svg xmlns="http://www.w3.org/2000/svg" width="200" height="200" viewBox="0 0 200 200"><defs><style>.a{fill:#fff;}.b,.e,.g,.i,.k,.l,.m,.o{fill:none;}.b{stroke:#fff;stroke-width:0.94px;}.c{fill:#061922;}.d{fill:#008248;}.e{stroke:#008248;}.e,.g,.i,.k,.l,.m{stroke-width:0.235px;}.f{fill:#a63732;}.g{stroke:#a63732;}.h{fill:#ba9653;}.i{stroke:#ba9653;}.j{fill:#f9b282;}.k,.l{stroke:#f9b282;}.k{stroke-linecap:round;}.m{stroke:#00a55c;}.n{fill:#008348;}.o{mix-blend-mode:multiply;isolation:isolate;}</style></defs><g transform="translate(-391.051 -644.594)"><path class="a" d="M461.06,823.007a23.74,23.74,0,0,0,6.45,5.189,9.607,9.607,0,0,0,5.383,1.019c1.5-.146,1.212.485,0,.679a10.614,10.614,0,0,1-5.771-.776,18.779,18.779,0,0,1-6.5-5.383c-.437-.631,0-1.261.436-.728"/><path class="a" d="M568.96,739.064a77.929,77.929,0,0,0-69.541-77.494,8.424,8.424,0,0,0-1.406-1.116c-6.256-4.025-11.445-1.018-15.082.728a8.3,8.3,0,0,1-.921.436,77.094,77.094,0,0,0-19.495,4.85,18.71,18.71,0,0,0-2.522-3.055,19.946,19.946,0,0,0-29.63,26.623,78.127,78.127,0,0,0,30.164,120.848c-.485,4.122.145,6.934.921,8.05-1.164.97-1.649,1.552-1.794,2.667-1.794,2.473,2.57,5.625,4.413,6.983,3.734,2.861,5.674,2.376,8.535,2.231,3.588-.146,6.935-4.316,8.874-7.032,3.88-.533,4.559.049,4.7.534a20.545,20.545,0,0,0,5.189-1.455c5.189-2.182,3.734-4.9,3.2-5.383a2.494,2.494,0,0,1-.388-.533,77.13,77.13,0,0,0,34.77-9.748,8.882,8.882,0,0,1,1.116,1.455c1.163,1.7,1.745,7.177,1.988,9.99a40.308,40.308,0,0,0,2.085,9.214c1.406,4.461,1.94,1.212,1.988,0s.291-5.529.1-8.681-.242-7.662.34-9.6a2.2,2.2,0,0,0-.776-2.764c-.291-.339,0-.485-.776-2.958a1.429,1.429,0,0,1-.1-.436,78.176,78.176,0,0,0,11.2-9.311,77.084,77.084,0,0,0,22.841-55.041"/><path class="b" d="M568.96,739.064a77.929,77.929,0,0,0-69.541-77.494,8.424,8.424,0,0,0-1.406-1.116c-6.256-4.025-11.445-1.018-15.082.728a8.3,8.3,0,0,1-.921.436,77.094,77.094,0,0,0-19.495,4.85,18.71,18.71,0,0,0-2.522-3.055,19.946,19.946,0,0,0-29.63,26.623,78.127,78.127,0,0,0,30.164,120.848c-.485,4.122.145,6.934.921,8.05-1.164.97-1.649,1.552-1.794,2.667-1.794,2.473,2.57,5.625,4.413,6.983,3.734,2.861,5.674,2.376,8.535,2.231,3.588-.146,6.935-4.316,8.874-7.032,3.88-.533,4.559.049,4.7.534a20.545,20.545,0,0,0,5.189-1.455c5.189-2.182,3.734-4.9,3.2-5.383a2.494,2.494,0,0,1-.388-.533,77.13,77.13,0,0,0,34.77-9.748,8.882,8.882,0,0,1,1.116,1.455c1.163,1.7,1.745,7.177,1.988,9.99a40.308,40.308,0,0,0,2.085,9.214c1.406,4.461,1.94,1.212,1.988,0s.291-5.529.1-8.681-.242-7.662.34-9.6a2.2,2.2,0,0,0-.776-2.764c-.291-.339,0-.485-.776-2.958a1.429,1.429,0,0,1-.1-.436,78.176,78.176,0,0,0,11.2-9.311A77.084,77.084,0,0,0,568.96,739.064Z"/><path class="c" d="M568.96,739.064a77.929,77.929,0,0,0-69.541-77.494,8.424,8.424,0,0,0-1.406-1.116c-6.256-4.025-11.445-1.018-15.082.728a8.3,8.3,0,0,1-.921.436,77.094,77.094,0,0,0-19.495,4.85,18.71,18.71,0,0,0-2.522-3.055,19.946,19.946,0,0,0-29.63,26.623,78.127,78.127,0,0,0,30.164,120.848c-.485,4.122.145,6.934.921,8.05-1.164.97-1.649,1.552-1.794,2.667-1.794,2.473,2.57,5.625,4.413,6.983,3.734,2.861,5.674,2.376,8.535,2.231,3.588-.146,6.935-4.316,8.874-7.032,3.88-.533,4.559.049,4.7.534a20.545,20.545,0,0,0,5.189-1.455c5.189-2.182,3.734-4.9,3.2-5.383a2.494,2.494,0,0,1-.388-.533,77.13,77.13,0,0,0,34.77-9.748,8.882,8.882,0,0,1,1.116,1.455c1.163,1.7,1.745,7.177,1.988,9.99a40.308,40.308,0,0,0,2.085,9.214c1.406,4.461,1.94,1.212,1.988,0s.291-5.529.1-8.681-.242-7.662.34-9.6a2.2,2.2,0,0,0-.776-2.764c-.291-.339,0-.485-.776-2.958a1.429,1.429,0,0,1-.1-.436,78.176,78.176,0,0,0,11.2-9.311,77.084,77.084,0,0,0,22.841-55.041"/><path class="d" d="M472.553,811.8a32.133,32.133,0,0,0,8.778-1.794c.242.048.63.291,1.261.533.242-1.939-1.019-5.916-1.7-7.759-.436-1.212-.921-2.037-1.454-3.3a25.275,25.275,0,0,1-5.092-1.795c0,1.164.194,4.122.436,6.111-.582.048-1.455.1-2.473.1a74.288,74.288,0,0,1,.242,7.9"/><path class="e" d="M472.553,811.8a32.133,32.133,0,0,0,8.778-1.794c.242.048.63.291,1.261.533.242-1.939-1.019-5.916-1.7-7.759-.436-1.212-.921-2.037-1.454-3.3a25.275,25.275,0,0,1-5.092-1.795c0,1.164.194,4.122.436,6.111-.582.048-1.455.1-2.473.1A74.288,74.288,0,0,1,472.553,811.8Z"/><path class="d" d="M527.109,805.4c-.533-.534.679-2.231,1.213-5.383s.582-8.389-1.7-11.348a10.316,10.316,0,0,1-1.843-3.006,57.337,57.337,0,0,1-24,10.135,4.22,4.22,0,0,1-.291.485,21.433,21.433,0,0,1-5.528,4.946,29.452,29.452,0,0,1-5.044,2.037c-.242,1.94-.533,6.207-.048,7.711.194.533,2.425,1.891,3.2,3.3.1.146.146.291.243.437a74.911,74.911,0,0,0,34.043-9.214.287.287,0,0,1-.243-.1"/><path class="e" d="M527.109,805.4c-.533-.534.679-2.231,1.213-5.383s.582-8.389-1.7-11.348a10.316,10.316,0,0,1-1.843-3.006,57.337,57.337,0,0,1-24,10.135,4.22,4.22,0,0,1-.291.485,21.433,21.433,0,0,1-5.528,4.946,29.452,29.452,0,0,1-5.044,2.037c-.242,1.94-.533,6.207-.048,7.711.194.533,2.425,1.891,3.2,3.3.1.146.146.291.243.437a74.911,74.911,0,0,0,34.043-9.214A.287.287,0,0,1,527.109,805.4Z"/><path class="d" d="M544.567,685.477a75.118,75.118,0,0,0-43.4-21.483,19.931,19.931,0,0,1,1.649,7.469c2.328-1.019,4.17-1.552,5.14-3.153.97-1.551,2.279-1.26,3.152-.1.825,1.164.825,2.571-1.406,3.977a32.606,32.606,0,0,1-4.364,2.279c-.485.243-.049.679.484,1.552A15.591,15.591,0,0,1,508,683.877v.146a57.654,57.654,0,0,1,34.867,80.112c.485.243,1.164,1.989,1.406,4.316a8.384,8.384,0,0,1-.291,3.4,33.611,33.611,0,0,1-4.655,6.4,1.709,1.709,0,0,1-2.328-.339c-.533-.776-.582-.34-1.018.048-.437.437-1.843,2.522-2.231,3.055s-1.552,1.067-.776,3.249,1.7,3.783,1.407,4.995-.437,1.552,1.212,2.958a3.042,3.042,0,0,1,.824,4.171,13.212,13.212,0,0,0-1.454,4.364,75.727,75.727,0,0,0,9.6-115.271"/><path class="e" d="M544.567,685.477a75.118,75.118,0,0,0-43.4-21.483,19.931,19.931,0,0,1,1.649,7.469c2.328-1.019,4.17-1.552,5.14-3.153.97-1.551,2.279-1.26,3.152-.1.825,1.164.825,2.571-1.406,3.977a32.606,32.606,0,0,1-4.364,2.279c-.485.243-.049.679.484,1.552A15.591,15.591,0,0,1,508,683.877v.146a57.654,57.654,0,0,1,34.867,80.112c.485.243,1.164,1.989,1.406,4.316a8.384,8.384,0,0,1-.291,3.4,33.611,33.611,0,0,1-4.655,6.4,1.709,1.709,0,0,1-2.328-.339c-.533-.776-.582-.34-1.018.048-.437.437-1.843,2.522-2.231,3.055s-1.552,1.067-.776,3.249,1.7,3.783,1.407,4.995-.437,1.552,1.212,2.958a3.042,3.042,0,0,1,.824,4.171,13.212,13.212,0,0,0-1.454,4.364,75.727,75.727,0,0,0,9.6-115.271Z"/><path class="d" d="M457.569,794.978c-.194-2.037-.534-5.723.921-8.341a54.8,54.8,0,0,1-8.2-6.838,57.528,57.528,0,0,1,1.213-82.586,2.74,2.74,0,0,1,.388-.63,20,20,0,0,1-5.868.873,19.732,19.732,0,0,1-14.063-5.82,75.771,75.771,0,0,0,28.9,116.92,34.921,34.921,0,0,1,1.552-5.286c.679-1.746-.339-5.771-2.037-7.9a20.443,20.443,0,0,0-2.812-.388"/><path class="e" d="M457.569,794.978c-.194-2.037-.534-5.723.921-8.341a54.8,54.8,0,0,1-8.2-6.838,57.528,57.528,0,0,1,1.213-82.586,2.74,2.74,0,0,1,.388-.63,20,20,0,0,1-5.868.873,19.732,19.732,0,0,1-14.063-5.82,75.771,75.771,0,0,0,28.9,116.92,34.921,34.921,0,0,1,1.552-5.286c.679-1.746-.339-5.771-2.037-7.9A20.443,20.443,0,0,0,457.569,794.978Z"/><path class="d" d="M477.645,664.479a71.32,71.32,0,0,0-13.918,3.88,20,20,0,0,1-1.6,20.95,57.249,57.249,0,0,1,13.385-5.674c.29-.291.63-.582.921-.873-1.746-2.91-4.122-7.517-2.037-13.821a10.263,10.263,0,0,1,3.249-4.462"/><path class="e" d="M477.645,664.479a71.32,71.32,0,0,0-13.918,3.88,20,20,0,0,1-1.6,20.95,57.249,57.249,0,0,1,13.385-5.674c.29-.291.63-.582.921-.873-1.746-2.91-4.122-7.517-2.037-13.821A10.263,10.263,0,0,1,477.645,664.479Z"/><path class="a" d="M507.954,687.32a5.029,5.029,0,0,1,2.813,6.062c-.291,1.406-1.455,2.716-1.552,3.249-.194.922-2.085,2.425-2.667,3.637a4.338,4.338,0,0,0-.534,2.716h0a15.039,15.039,0,0,0,4.316,2.522c.922.339.873.582.485,1.212.679.048,1.019.485,1.649,1.212.679.776,2.425.291,3.492-.242a2.692,2.692,0,0,1,3.54.582,22.131,22.131,0,0,1,3.491,6.062,36.753,36.753,0,0,0,1.843,4.51c.243.339-.824,6.983-1.164,9.65-.291,2.667-.533,3.782-.582,4.219s1.7-1.5,1.746.776a93.1,93.1,0,0,0,1.891,12.026,24.761,24.761,0,0,0,.776,2.91c.728.1,1.31,1.552,1.746,3.783s1.31,3.637,1.407,4.7c.048,1.066.339,1.26.727,1.454.339.194.242.728-.824,1.989.242.194.581.533.824.776.291-.291,1.164-1.261,1.164-1.261s3.3,1.309,4.025,1.552,1.6-1.552,3.734-.582a4.379,4.379,0,0,1,1.7,1.891A56.279,56.279,0,0,0,508,685.332c0,.921-.049,1.7-.049,1.988"/><path class="a" d="M525.364,782.078c-.825-.436-1.407.194-1.8-3.152a5.663,5.663,0,0,0-1.5-2.813,2.76,2.76,0,0,1-.339-2.715,11.622,11.622,0,0,0,.533-4.074,3.258,3.258,0,0,1,1.843-3.443,5.065,5.065,0,0,1-1.067-2.182c-2.473-.825-2.958-.873-3.443-2.085a31.929,31.929,0,0,1-1.6-6.547,18.774,18.774,0,0,1-.243-2.182c-.776-1.5-2.57-4.8-3.928-7.323-.485-.921-.97-1.746-1.261-2.328-1.212-2.085,0-4.9.582-6.5.582-1.649,1.067-3.055.534-4.7a16.912,16.912,0,0,1-.679-2.667c-.1-.679-.679-1.5-1.407.776s-2.085,5.674-2.909,9.165a22.305,22.305,0,0,0-.631,6.256,12.071,12.071,0,0,0,1.067,4.558c1.552,3.25,3.443,6.256,3.2,8.05a5.161,5.161,0,0,1-.679,2.183,64.043,64.043,0,0,1-2.57,12.123c-.776,1.94-3.831,8.923-4.51,11.881a78.98,78.98,0,0,1-3.1,9.99A56.509,56.509,0,0,0,525.7,783.339c.194-.533.146-1.018-.339-1.261"/><path class="a" d="M458.393,703.032a8.1,8.1,0,0,0,2.667,2.231c2.958,1.5,3.54,2.57,3.54,5.189,0,2.57.485,7.9,1.31,8.778a8.352,8.352,0,0,0,1.26-1.552,17.107,17.107,0,0,0,5.238,6.255c.194.1.1.776.533.922.922.242,6.741,1.164,6.935,2.328a21.369,21.369,0,0,0,3.492-5.238,29.942,29.942,0,0,1,4.025-6.062,7.367,7.367,0,0,1,.048-1.309,8.637,8.637,0,0,1-2.037,1.7c-.97.437-4.316,1.892-6.74,3.056-.825.436-2.328.921-2.959-3.492-.581-4.413,0-6.692.437-7.711a2.127,2.127,0,0,1,2.716-1.5,41.153,41.153,0,0,0,4.558,1.309c.1-.485.534-1.406-1.067-1.551a9.148,9.148,0,0,1-5.868-3.347,6.349,6.349,0,0,1-1.212-3.588c-3.443.533-11.348,1.552-13.093,1.988s-3.25.776-3.783-3.2c-.242-1.7-.679-4.025.533-3.2a5.677,5.677,0,0,1,4.656-1.213,1.6,1.6,0,0,1,1.115.776,5.226,5.226,0,0,1-.388,2.425c-.533,1.6-1.551,2.764,1.746,2.037,3.443-.776,7.808-1.455,8.923-1.7a9.615,9.615,0,0,1,2.279-4.316,5.623,5.623,0,0,0,1.407-2.813c.048-.437-.34-.534-.922,0-.679.582-2.667,1.794-4.51,1.309-.727-.194-1.649-1.552-2.085-2.327a19.847,19.847,0,0,1,2.619-3.686,56.113,56.113,0,0,0-17.749,9.505,14.073,14.073,0,0,0,.485,3.928,11.561,11.561,0,0,0,1.891,4.073"/><path class="a" d="M462.564,785.327c2.473-.97,4.413-.921,6.3,1.649.533.728.97,2.813,5.625.97-2.473-2.958-3.928-6.45-5.286-11.154-2.133-7.419-6.983-15.857-5.189-19.688-1.018-.97-2.23-4.7-3.491-4.268-.873.291-2.037.291-1.067-2.522a17.316,17.316,0,0,1,2.522-4.655,41.712,41.712,0,0,1,8.486-8.244c.34-.291.437-.534.194-.776a6.9,6.9,0,0,0-1.261-1.164.928.928,0,0,0-1.212.243,12.207,12.207,0,0,1-1.309,1.018c-.34.242-3.25-2.57-4.753-4.655a9,9,0,0,0-3.54-2.959c.582-.679,1.94-2.085,1.455-1.939a3.788,3.788,0,0,1-4.122-1.213c-1.988-2.085-1.213-3.2-1.649-3.491s-2.57.194-4.219-2.328-2.279-3.637-.97-5.431a2.617,2.617,0,0,0,.728-2.474c-.194-1.164,0-1.891,1.5-3.3,1.5-1.455,2.425-2.764,3.055-2.667.533.1-1.018-1.843-1.94-3.25a5.237,5.237,0,0,1-.533-1.018,9.41,9.41,0,0,1-.728-2.667,56.2,56.2,0,0,0,.049,79.482,61.623,61.623,0,0,0,8,6.692,2.252,2.252,0,0,1,3.347-.194"/><path class="f" d="M430.557,666.516c4.947,1.261,8.632,5.238,10.281,7.468.437.582.824.485,1.018.049a19.714,19.714,0,0,0,1.067-6.013c0-5.044.679-7.081,1.94-9.408a18.883,18.883,0,0,0-14.306,7.9"/><path class="g" d="M430.557,666.516c4.947,1.261,8.632,5.238,10.281,7.468.437.582.824.485,1.018.049a19.714,19.714,0,0,0,1.067-6.013c0-5.044.679-7.081,1.94-9.408A18.883,18.883,0,0,0,430.557,666.516Z"/><path class="f" d="M427.551,682.034c9.311.825,12.172-4.364,12.8-5.14.582-.776-.1-1.261-.436-1.7-1.6-2.231-5.189-6.208-10.136-7.468a18.743,18.743,0,0,0-2.764,9.795,19.754,19.754,0,0,0,.534,4.51"/><path class="g" d="M427.551,682.034c9.311.825,12.172-4.364,12.8-5.14.582-.776-.1-1.261-.436-1.7-1.6-2.231-5.189-6.208-10.136-7.468a18.743,18.743,0,0,0-2.764,9.795A19.754,19.754,0,0,0,427.551,682.034Z"/><path class="f" d="M464.406,681.646c-3.928-1.648-8.583-.145-11.881,2.765s-4.995,5.092-6.159,11.978h-.436a18.809,18.809,0,0,1-12.706-4.947c5.674-1.455,10.427-4.025,15.81-9.117a31.8,31.8,0,0,0,8.729-13.724c.727-2.764-.291-1.163-.825.1a40.066,40.066,0,0,1-9.117,12.366c-5.48,5.141-9.7,7.663-15.421,9.6a19.216,19.216,0,0,1-4.316-6.983c1.94.1,8-.582,11.057-3.055,3.976-3.3,4.461-7.177,4.995-12.705s1.358-7.178,2.667-9.311a18.887,18.887,0,0,1,18.04,18.864,19.611,19.611,0,0,1-.437,4.17"/><path class="g" d="M464.406,681.646c-3.928-1.648-8.583-.145-11.881,2.765s-4.995,5.092-6.159,11.978h-.436a18.809,18.809,0,0,1-12.706-4.947c5.674-1.455,10.427-4.025,15.81-9.117a31.8,31.8,0,0,0,8.729-13.724c.727-2.764-.291-1.163-.825.1a40.066,40.066,0,0,1-9.117,12.366c-5.48,5.141-9.7,7.663-15.421,9.6a19.216,19.216,0,0,1-4.316-6.983c1.94.1,8-.582,11.057-3.055,3.976-3.3,4.461-7.177,4.995-12.705s1.358-7.178,2.667-9.311a18.887,18.887,0,0,1,18.04,18.864A19.611,19.611,0,0,1,464.406,681.646Z"/><path class="f" d="M463.873,683.538c-.922-1.261-4.122-1.892-9.263,1.309-.484.291-.824.533-.242,1.067a19.327,19.327,0,0,1,3.88,5.916,19.317,19.317,0,0,0,5.625-8.292"/><path class="g" d="M463.873,683.538c-.922-1.261-4.122-1.892-9.263,1.309-.484.291-.824.533-.242,1.067a19.327,19.327,0,0,1,3.88,5.916A19.317,19.317,0,0,0,463.873,683.538Z"/><path class="f" d="M456.744,693.043a26.336,26.336,0,0,0-3.006-5.917c-.534-.727-.679-1.018-1.7-.145-2.861,2.522-3.928,6.3-4.558,9.359a19.214,19.214,0,0,0,9.262-3.3"/><path class="g" d="M456.744,693.043a26.336,26.336,0,0,0-3.006-5.917c-.534-.727-.679-1.018-1.7-.145-2.861,2.522-3.928,6.3-4.558,9.359A19.214,19.214,0,0,0,456.744,693.043Z"/><path class="h" d="M479.973,811.563c.388-.194.921-.437,1.164-.243s1.7,1.213,2.57,1.989c.921.775,1.212,1.018.485,1.454s-1.406.825-1.261.485a1.3,1.3,0,0,0-.194-1.406,25.25,25.25,0,0,0-2.182-1.794,4.3,4.3,0,0,0-.582-.485"/><path class="i" d="M479.973,811.563c.388-.194.921-.437,1.164-.243s1.7,1.213,2.57,1.989c.921.775,1.212,1.018.485,1.454s-1.406.825-1.261.485a1.3,1.3,0,0,0-.194-1.406,25.25,25.25,0,0,0-2.182-1.794A4.3,4.3,0,0,0,479.973,811.563Z"/><path class="h" d="M476.53,812.533a.718.718,0,0,0,0,1.066c.339.34,2.376,2.037,2.716,2.377a1.473,1.473,0,0,0,1.357.339c.534-.1-.63.679-1.066.776a1.55,1.55,0,0,1-1.455-.339c-.485-.437-3.2-3.007-3.734-3.54s.145-.534.63-.582.921-.049,1.552-.1"/><path class="i" d="M476.53,812.533a.718.718,0,0,0,0,1.066c.339.34,2.376,2.037,2.716,2.377a1.473,1.473,0,0,0,1.357.339c.534-.1-.63.679-1.066.776a1.55,1.55,0,0,1-1.455-.339c-.485-.437-3.2-3.007-3.734-3.54s.145-.534.63-.582S475.9,812.581,476.53,812.533Z"/><path class="h" d="M473.184,797.111c.194.534.242,1.067-.582.922-.825-.1-4.413-.437-5.432-.437-.242,0-.145-.582-.533-.339-.339.242-.194.776-.194,1.406,0,.582-.048.97-.048,1.407.048.63.436,1.5,2.036,1.6a7.529,7.529,0,0,0,3.637-.437c.485-.339-.048-.872-.485-.872a24.1,24.1,0,0,1-3.734,0c-.582-.194-.921-.873-.533-1.164.485-.34,1.406.1,2.328.1a13,13,0,0,1,2.182-.1c.242.145.582.1.582,1.212,0,.242.582.339.824.339.291,0,.388.437.34,1.067-.049.582.048.728-1.067.728-1.067,0-5.771-.049-6.45-.049-.291,0-.291-.194-.339-.776-.049-.533-.194-4.316-.291-4.607-.049-.291.727-.339,1.358-.194a20.681,20.681,0,0,0,2.424.291c1.019.049,2.57.194,2.57.194s.776.1.873-.145c.243-.243.485-.34.534-.146"/><path class="i" d="M473.184,797.111c.194.534.242,1.067-.582.922-.825-.1-4.413-.437-5.432-.437-.242,0-.145-.582-.533-.339-.339.242-.194.776-.194,1.406,0,.582-.048.97-.048,1.407.048.63.436,1.5,2.036,1.6a7.529,7.529,0,0,0,3.637-.437c.485-.339-.048-.872-.485-.872a24.1,24.1,0,0,1-3.734,0c-.582-.194-.921-.873-.533-1.164.485-.34,1.406.1,2.328.1a13,13,0,0,1,2.182-.1c.242.145.582.1.582,1.212,0,.242.582.339.824.339.291,0,.388.437.34,1.067-.049.582.048.728-1.067.728-1.067,0-5.771-.049-6.45-.049-.291,0-.291-.194-.339-.776-.049-.533-.194-4.316-.291-4.607-.049-.291.727-.339,1.358-.194a20.681,20.681,0,0,0,2.424.291c1.019.049,2.57.194,2.57.194s.776.1.873-.145C472.893,797.014,473.135,796.917,473.184,797.111Z"/><path class="j" d="M451.555,714.186c-.776-.242-1.406.679-1.745,1.406s-.776,1.5.339,3.153c1.164,1.648,1.843,2.618,3.831,2.473a3.184,3.184,0,0,0,2.134-1.213c.291-.436.339.291-.1,1.019a3.323,3.323,0,0,0,.048,3.54c.922,1.164,2.764,2.085,5.238.679a10.222,10.222,0,0,0,3.928-3.977c.436-.776.436-1.164,0-1.649s-1.795-2.764-2.086-7.274c-.194-2.715.291-4.461-1.406-5.431s-5.528-3.249-6.013-7.711c-.194-1.7-.049-4.267-1.746-2.909a4.214,4.214,0,0,0-1.843,3.394c-.194,1.019.679,2.425,1.407,3.4s1.551,3.055,2.23,3.637c.679.533,1.067.97,1.649,1.018a24.471,24.471,0,0,1,3.249.243c.534.194.825.824-.485.824a31.664,31.664,0,0,0-4.267.485c-.922.1-1.746.194-2.182,1.988s-1.019,3.928-1.067,4.559c-.049.679-.437,1.018-.437,1.406,0,.34.728,2.086,2.328.34a11.647,11.647,0,0,0,2.57-4.316c.291-.825.679-.728.34.582-.291,1.309-.388,4.655.242,5.77.679,1.213,2.037,2.474,3.783,1.649a2.847,2.847,0,0,1,1.454-.436c.485.048-.1.921-.533,1.261s-1.794,1.891-4.267-.291a5.68,5.68,0,0,1-1.649-3.249.563.563,0,0,0-1.019-.243c-.291.437-1.939,1.94-3.055.825-1.164-1.067-1.6-1.7-.97-3.977.146-.436.388-.873.1-.97"/><path class="k" d="M451.555,714.186c-.776-.242-1.406.679-1.745,1.406s-.776,1.5.339,3.153c1.164,1.648,1.843,2.618,3.831,2.473a3.184,3.184,0,0,0,2.134-1.213c.291-.436.339.291-.1,1.019a3.323,3.323,0,0,0,.048,3.54c.922,1.164,2.764,2.085,5.238.679a10.222,10.222,0,0,0,3.928-3.977c.436-.776.436-1.164,0-1.649s-1.795-2.764-2.086-7.274c-.194-2.715.291-4.461-1.406-5.431s-5.528-3.249-6.013-7.711c-.194-1.7-.049-4.267-1.746-2.909a4.214,4.214,0,0,0-1.843,3.394c-.194,1.019.679,2.425,1.407,3.4s1.551,3.055,2.23,3.637c.679.533,1.067.97,1.649,1.018a24.471,24.471,0,0,1,3.249.243c.534.194.825.824-.485.824a31.664,31.664,0,0,0-4.267.485c-.922.1-1.746.194-2.182,1.988s-1.019,3.928-1.067,4.559c-.049.679-.437,1.018-.437,1.406,0,.34.728,2.086,2.328.34a11.647,11.647,0,0,0,2.57-4.316c.291-.825.679-.728.34.582-.291,1.309-.388,4.655.242,5.77.679,1.213,2.037,2.474,3.783,1.649a2.847,2.847,0,0,1,1.454-.436c.485.048-.1.921-.533,1.261s-1.794,1.891-4.267-.291a5.68,5.68,0,0,1-1.649-3.249.563.563,0,0,0-1.019-.243c-.291.437-1.939,1.94-3.055.825-1.164-1.067-1.6-1.7-.97-3.977C451.6,714.72,451.846,714.283,451.555,714.186Z"/><path class="j" d="M452.768,710.792c-.243.775-.485,1.794-.582,2.182-.1.339-.679,1.164-1.164.1a2.03,2.03,0,0,1,.291-2.57c.242-.243.582-.728.824-.485s.679.63.631.776"/><path class="k" d="M452.768,710.792c-.243.775-.485,1.794-.582,2.182-.1.339-.679,1.164-1.164.1a2.03,2.03,0,0,1,.291-2.57c.242-.243.582-.728.824-.485S452.816,710.646,452.768,710.792Z"/><path class="j" d="M455.483,708.027c-.485.243-1.551.243-1.939,1.067-.243.534-1.213-.048-.728-.727s.825-.582,1.164-.776c.291-.194.436-.728,1.018-.437.582.34.679.776.485.873"/><path class="k" d="M455.483,708.027c-.485.243-1.551.243-1.939,1.067-.243.534-1.213-.048-.728-.727s.825-.582,1.164-.776c.291-.194.436-.728,1.018-.437C455.58,707.494,455.677,707.93,455.483,708.027Z"/><path class="j" d="M495.152,678.2a11.209,11.209,0,0,0-4.8,2.28c-1.552,1.066-7.226,5.867-8.535,6.789,1.406.727,1.746,2.182,1.261,4.558-.1.534,0,.728.339.34.34-.34,2.037-2.183,1.988-3.637a4.611,4.611,0,0,0-.824-2.474c-.1-.194.485-.921,1.164.582s.485,3.637-1.5,5.965-3.54,2.279-4.412,2.716c-.825.436-1.7,1.067-.922,2.328s2.279.775,2.91.339a4.355,4.355,0,0,1,3.394-.727c1.94.194,2.571-1.067,1.261-2.328-.436-.437-1.5-1.406-.194-1.406.776,0,1.746,1.745,2.279,2.23s1.746.679,3.395.776,4.171.728,4.171,2.279c0,.97-.534,1.261-1.213.485-.291-.291-.679.194-.97.485-1.018,1.019-3.637,3.783-5.528,4.268s-2.57-.049-5.043-1.407c-2.474-1.309-4.753-2.667-5.432-3.055-.679-.436-2.037-1.406-1.406.534a8.126,8.126,0,0,0,5.528,4.995,24.261,24.261,0,0,1,4.462,1.794c.727.339.291.727-.679.582-.825-.1-1.746-.825-1.019.776s1.8,3.394,5.141,2.958c3.3-.436,3.394-1.115,5.48-4.559.339-.581.727-.193.485,1.407a16.481,16.481,0,0,1,3.491-1.261,7.961,7.961,0,0,0,5.141-4.171c.824-1.551,1.309-2.085,1.163-3.734-.048-.582.825-1.794,1.746-2.667.922-.824,3.4-4.025,2.086-6.3-1.261-2.279-3.395-1.164-4.413.533a11.97,11.97,0,0,0-2.231,6.45,1.479,1.479,0,0,0-1.794.582c-.194.291-2.813-.048-3.735.194s-1.212-.291-.242-1.552,4.364-5.868,4.171-9.262a6,6,0,0,1,.242-1.988c.194-1.019.291-1.019-.921-1.7-.825-.436-.873-1.7-.97-2.667-.146-1.018-.34-1.018-1.5-.776-.921.388-2.327-.436-3.006-1.552"/><path class="l" d="M495.152,678.2a11.209,11.209,0,0,0-4.8,2.28c-1.552,1.066-7.226,5.867-8.535,6.789,1.406.727,1.746,2.182,1.261,4.558-.1.534,0,.728.339.34.34-.34,2.037-2.183,1.988-3.637a4.611,4.611,0,0,0-.824-2.474c-.1-.194.485-.921,1.164.582s.485,3.637-1.5,5.965-3.54,2.279-4.412,2.716c-.825.436-1.7,1.067-.922,2.328s2.279.775,2.91.339a4.355,4.355,0,0,1,3.394-.727c1.94.194,2.571-1.067,1.261-2.328-.436-.437-1.5-1.406-.194-1.406.776,0,1.746,1.745,2.279,2.23s1.746.679,3.395.776,4.171.728,4.171,2.279c0,.97-.534,1.261-1.213.485-.291-.291-.679.194-.97.485-1.018,1.019-3.637,3.783-5.528,4.268s-2.57-.049-5.043-1.407c-2.474-1.309-4.753-2.667-5.432-3.055-.679-.436-2.037-1.406-1.406.534a8.126,8.126,0,0,0,5.528,4.995,24.261,24.261,0,0,1,4.462,1.794c.727.339.291.727-.679.582-.825-.1-1.746-.825-1.019.776s1.8,3.394,5.141,2.958c3.3-.436,3.394-1.115,5.48-4.559.339-.581.727-.193.485,1.407a16.481,16.481,0,0,1,3.491-1.261,7.961,7.961,0,0,0,5.141-4.171c.824-1.551,1.309-2.085,1.163-3.734-.048-.582.825-1.794,1.746-2.667.922-.824,3.4-4.025,2.086-6.3-1.261-2.279-3.395-1.164-4.413.533a11.97,11.97,0,0,0-2.231,6.45,1.479,1.479,0,0,0-1.794.582c-.194.291-2.813-.048-3.735.194s-1.212-.291-.242-1.552,4.364-5.868,4.171-9.262a6,6,0,0,1,.242-1.988c.194-1.019.291-1.019-.921-1.7-.825-.436-.873-1.7-.97-2.667-.146-1.018-.34-1.018-1.5-.776C497.237,680.143,495.831,679.319,495.152,678.2Z"/><path class="j" d="M488.12,697.068c-.339.776-1.261,1.454-3.346,1.212-1.067-.1-2.085-.146-2.279.679-.1.582-.582.533-1.261.533-.679-.048-1.455-.194-1.455.049-.048.242,2.958,2.037,3.928,2.473s2.425,1.552,3.637,1.406c1.552-.145,2.91-.921,5.238-3.394.969-1.019,1.7-1.552.824-1.94a4.625,4.625,0,0,0-2.037-.339,6.763,6.763,0,0,1-3.249-.679"/><path class="l" d="M488.12,697.068c-.339.776-1.261,1.454-3.346,1.212-1.067-.1-2.085-.146-2.279.679-.1.582-.582.533-1.261.533-.679-.048-1.455-.194-1.455.049-.048.242,2.958,2.037,3.928,2.473s2.425,1.552,3.637,1.406c1.552-.145,2.91-.921,5.238-3.394.969-1.019,1.7-1.552.824-1.94a4.625,4.625,0,0,0-2.037-.339A6.763,6.763,0,0,1,488.12,697.068Z"/><path class="j" d="M476.869,697.116c-.824-.048-.921-.63-.339-1.552a7.2,7.2,0,0,1,1.794-2.279,1.656,1.656,0,0,0,.728,1.067,2.93,2.93,0,0,0-1.019,2.425Z"/><path class="l" d="M476.869,697.116c-.824-.048-.921-.63-.339-1.552a7.2,7.2,0,0,1,1.794-2.279,1.656,1.656,0,0,0,.728,1.067,2.93,2.93,0,0,0-1.019,2.425Z"/><path class="c" d="M490.4,688.193c.146-.824.049-1.552-1.212-.533-1.164-.825-2.182-1.843-2.522-2.086a.588.588,0,0,1-.1-1.018c.437-.436,1.164.34,1.019-.921-.049-.437.921-.146,1.163-.291.243-.1-.1-.728,1.019-.437.339.1.194-.582.921-.485s1.067.388,1.213-.194.339-.921,1.212-.339c.63.388.873.145.921-.146s.631-.1,1.164.194a10.625,10.625,0,0,1,3.3,2.668c.339.436.533.872.291.921s-.534,0-.582.485-.291.921-.582.339c-.291-.533-.34.1-.534-.485s-.484.194-.63-.194c-.194-.484-.388.1-.582-.339-.1-.194-.679.291-.824-.049-.194-.339-.582.34-.873-.048s-.291.436-.776.242-.291.437-.776.243-.339.582-.776.485-.436.1-.533.582c-.1.533-.291,2.522-.291,2.958s1.018.339,2.521.145a13.088,13.088,0,0,0,5.529-2.182c.533-.436,1.018-.436,1.115-.291s-.145.631-.533.97a6.9,6.9,0,0,1-3.734,1.843,29.308,29.308,0,0,1-4.656.727c-.388-.1.146.582.825.437.388-.1,1.163,1.358,2.424,1.358,1.019,0,2.57-1.164,2.958-1.455.437-.34,1.94-1.019.922,0s-2.085,2.134-3.2,2.182a7.093,7.093,0,0,1-3.879-1.115c-1.164-.776-1.552-1.213-1.358-2.425a11.354,11.354,0,0,0,.436-1.746"/><path class="l" d="M490.4,688.193c.146-.824.049-1.552-1.212-.533-1.164-.825-2.182-1.843-2.522-2.086a.588.588,0,0,1-.1-1.018c.437-.436,1.164.34,1.019-.921-.049-.437.921-.146,1.163-.291.243-.1-.1-.728,1.019-.437.339.1.194-.582.921-.485s1.067.388,1.213-.194.339-.921,1.212-.339c.63.388.873.145.921-.146s.631-.1,1.164.194a10.625,10.625,0,0,1,3.3,2.668c.339.436.533.872.291.921s-.534,0-.582.485-.291.921-.582.339c-.291-.533-.34.1-.534-.485s-.484.194-.63-.194c-.194-.484-.388.1-.582-.339-.1-.194-.679.291-.824-.049-.194-.339-.582.34-.873-.048s-.291.436-.776.242-.291.437-.776.243-.339.582-.776.485-.436.1-.533.582c-.1.533-.291,2.522-.291,2.958s1.018.339,2.521.145a13.088,13.088,0,0,0,5.529-2.182c.533-.436,1.018-.436,1.115-.291s-.145.631-.533.97a6.9,6.9,0,0,1-3.734,1.843,29.308,29.308,0,0,1-4.656.727c-.388-.1.146.582.825.437.388-.1,1.163,1.358,2.424,1.358,1.019,0,2.57-1.164,2.958-1.455.437-.34,1.94-1.019.922,0s-2.085,2.134-3.2,2.182a7.093,7.093,0,0,1-3.879-1.115c-1.164-.776-1.552-1.213-1.358-2.425A11.354,11.354,0,0,0,490.4,688.193Z"/><path class="c" d="M507.954,692.024c-.679.485-1.067.679-1.164,1.5-.048.824-.242,2.279-.533,2.424-.388.146-.34-.776-.485-.485-.194.437-.679.243-.824-.145-.049-.146-1.552-.146-.388-1.891a7.555,7.555,0,0,1,2.715-2.765c.776-.388,2.086.34.679,1.358"/><path class="l" d="M507.954,692.024c-.679.485-1.067.679-1.164,1.5-.048.824-.242,2.279-.533,2.424-.388.146-.34-.776-.485-.485-.194.437-.679.243-.824-.145-.049-.146-1.552-.146-.388-1.891a7.555,7.555,0,0,1,2.715-2.765C508.051,690.278,509.361,691.006,507.954,692.024Z"/><path class="j" d="M537.439,763.6c-.291-.728.194-1.891,1.7-1.067s2.667,1.552,1.552,4.9c-1.067,3.3-1.891,5.237-2.279,6.644-.437,1.406-2.037,3.152-1.5.776a21.145,21.145,0,0,0,.582-6.644c-.436-2.667.437-2.473.146-3.686a4.4,4.4,0,0,0-.194-.921"/><path class="k" d="M537.439,763.6c-.291-.728.194-1.891,1.7-1.067s2.667,1.552,1.552,4.9c-1.067,3.3-1.891,5.237-2.279,6.644-.437,1.406-2.037,3.152-1.5.776a21.145,21.145,0,0,0,.582-6.644c-.436-2.667.437-2.473.146-3.686A4.4,4.4,0,0,0,537.439,763.6Z"/><path class="j" d="M543.113,766.463c.436,1.309.921,4.267.194,5.48a52.776,52.776,0,0,1-3.783,5.383c-.824.824-1.5.485-.97-.437a10.721,10.721,0,0,0,1.261-2.521,3.928,3.928,0,0,1,.679-2.28,52.4,52.4,0,0,0,2.085-6.4c.1-.339.437.437.534.776"/><path class="k" d="M543.113,766.463c.436,1.309.921,4.267.194,5.48a52.776,52.776,0,0,1-3.783,5.383c-.824.824-1.5.485-.97-.437a10.721,10.721,0,0,0,1.261-2.521,3.928,3.928,0,0,1,.679-2.28,52.4,52.4,0,0,0,2.085-6.4C542.676,765.348,543.016,766.124,543.113,766.463Z"/><path class="j" d="M527.594,777.617c-.339-1.067-.533-2.667-1.163-3.54.484-1.31,2.085-4.9,4.752-5.965a.505.505,0,0,0,.339-.679c-.1-.243.34-.437.582.436.243.825.679,3.249.679,3.249a4.617,4.617,0,0,1-.242,1.7,9.866,9.866,0,0,0-.243,3.2c.194.825.485,1.455,2.183,1.067.824-.194.776-.436,1.018-1.164s.921-2.764,1.164-3.928a14.451,14.451,0,0,0-.194-4.655c-.243-.728.1-3.152-.1-3.637a2.267,2.267,0,0,0-1.794-1.7c-1.5-.485-1.94-.582-2.959.436s-1.406,1.455-1.842,1.94c-.485.485-1.7.048-.679-.922s1.988-1.939,2.279-2.23l-.291-.776h-.533a11.47,11.47,0,0,1-5.238,2.909c-.533.1-1.552.194-.824,1.164.194.243.242.922.679.679s1.067-1.309,1.7-.824c.582.485-.1,1.649-.824,2.182s-1.5,1.067-2.037,1.406c-.534.291-.825.582-.776,1.552a10.128,10.128,0,0,1-.437,4.025,2.287,2.287,0,0,0,.243,2.57,9.093,9.093,0,0,1,1.5,3.152c.243,1.455.34,1.795,1.31,1.7a1.974,1.974,0,0,0,1.7-1.164Z"/><path class="k" d="M527.594,777.617c-.339-1.067-.533-2.667-1.163-3.54.484-1.31,2.085-4.9,4.752-5.965a.505.505,0,0,0,.339-.679c-.1-.243.34-.437.582.436.243.825.679,3.249.679,3.249a4.617,4.617,0,0,1-.242,1.7,9.866,9.866,0,0,0-.243,3.2c.194.825.485,1.455,2.183,1.067.824-.194.776-.436,1.018-1.164s.921-2.764,1.164-3.928a14.451,14.451,0,0,0-.194-4.655c-.243-.728.1-3.152-.1-3.637a2.267,2.267,0,0,0-1.794-1.7c-1.5-.485-1.94-.582-2.959.436s-1.406,1.455-1.842,1.94c-.485.485-1.7.048-.679-.922s1.988-1.939,2.279-2.23l-.291-.776h-.533a11.47,11.47,0,0,1-5.238,2.909c-.533.1-1.552.194-.824,1.164.194.243.242.922.679.679s1.067-1.309,1.7-.824c.582.485-.1,1.649-.824,2.182s-1.5,1.067-2.037,1.406c-.534.291-.825.582-.776,1.552a10.128,10.128,0,0,1-.437,4.025,2.287,2.287,0,0,0,.243,2.57,9.093,9.093,0,0,1,1.5,3.152c.243,1.455.34,1.795,1.31,1.7a1.974,1.974,0,0,0,1.7-1.164Z"/><path class="f" d="M527.934,780.381a6.46,6.46,0,0,0-1.164,2.91c0,1.018-1.018,2.085-.921,2.57s1.454,1.746,2.23,3.055a12.13,12.13,0,0,1,1.8,6.644A43.232,43.232,0,0,1,528.661,804c-.1.582-.436,1.066.485,1.939.922.825,2.328,2.425,2.91,5.965.533,3.54.921,5.432,1.164,5.625s.194.485.194,1.164a22.335,22.335,0,0,0,1.018,5.189c.437.728.34-4.073.291-5.48a88.276,88.276,0,0,1,.291-8.971,3.607,3.607,0,0,0-.339-3.249,7.163,7.163,0,0,1-1.213-6.789c1.067-3.492,2.813-3.443,2.279-4.8a10.693,10.693,0,0,0-2.23-3.152c-.728-.776-.146-2.668-.194-3.444-.049-1.454-1.213-1.7-1.31-3.3-.145-1.649-.242-2.958.97-4.559,1.213-1.648-.436-1.551-.97-2.57a6.24,6.24,0,0,1-.339-4.51c.242-1.067.1-1.406-.194-1.5s-1.552-.34-1.552-.34l-1.843,3.735a7.662,7.662,0,0,1,.437,2.521Z"/><path class="g" d="M527.934,780.381a6.46,6.46,0,0,0-1.164,2.91c0,1.018-1.018,2.085-.921,2.57s1.454,1.746,2.23,3.055a12.13,12.13,0,0,1,1.8,6.644A43.232,43.232,0,0,1,528.661,804c-.1.582-.436,1.066.485,1.939.922.825,2.328,2.425,2.91,5.965.533,3.54.921,5.432,1.164,5.625s.194.485.194,1.164a22.335,22.335,0,0,0,1.018,5.189c.437.728.34-4.073.291-5.48a88.276,88.276,0,0,1,.291-8.971,3.607,3.607,0,0,0-.339-3.249,7.163,7.163,0,0,1-1.213-6.789c1.067-3.492,2.813-3.443,2.279-4.8a10.693,10.693,0,0,0-2.23-3.152c-.728-.776-.146-2.668-.194-3.444-.049-1.454-1.213-1.7-1.31-3.3-.145-1.649-.242-2.958.97-4.559,1.213-1.648-.436-1.551-.97-2.57a6.24,6.24,0,0,1-.339-4.51c.242-1.067.1-1.406-.194-1.5s-1.552-.34-1.552-.34l-1.843,3.735a7.662,7.662,0,0,1,.437,2.521Z"/><path class="a" d="M510.524,707.057c-1.5,1.989-3.782,6.984-4.9,10.136-1.066,3.152-3.54,10.62-1.794,15.566s5.189,1.8,5.965-.048c.776-1.891,1.988-5.043,2.376-5.916.34-.825.534-1.31,1.213.679a56.021,56.021,0,0,1,1.648,7.177,28.584,28.584,0,0,1-1.406,3.491c-.727,1.892-1.164,3.2-.436,4.316.727,1.164,3.54,6.014,4.461,8.147.534,1.261,1.018,1.5,2.473,1.164a47.365,47.365,0,0,0,5.965-2.037c1.018-.485.534-1.309.243-2.327-.437-1.552-2.28-10.233-2.28-11.4s.291-2.668-1.212-.97c-.533.582-1.261,0-1.067-.825s1.988-12.608,2.085-14.015c-1.018-2.23-4.025-9.262-4.9-10.523-.824-1.261-1.163-1.309-2.424-.679-1.261.679-4.074,1.7-5.141-.727-.194-.437-.485-1.407.243-1.5l-.534-.194c0-.1-.388.243-.582.485"/><path class="a" d="M526.334,750.411a31.2,31.2,0,0,1-6.5,2.522c-1.6.243-1.212.679-.921,1.891s1.212,4.8,1.7,6.111c.485,1.26,1.164,1.26,2.425,1.212a12.489,12.489,0,0,0,7.517-3.055c-.679-.776-1.843-4.559-2.183-6.159-.388-1.746-.388-3.492-2.036-2.522"/><path class="a" d="M491.806,715.641a1.62,1.62,0,0,1-1.5.97c-.97,0-1.746-.291-2.376.533-.582.825-3.928,4.9-4.655,7.371.727,1.5,1.7,4.219,2.424,6.159,2.328-1.988,9.845-9.311,11.251-10.717.533-.534.582-1.018-.194-1.552s-3.686-2.376-4.17-2.667c-.437-.34-.679-.34-.776-.1"/><path class="a" d="M472.8,726.213a31.4,31.4,0,0,1-2.91,7.662,5.061,5.061,0,0,0,1.794,2.134,45.228,45.228,0,0,0,5.771-5.238,11.8,11.8,0,0,0,2.037-3.055c0-.339-.436-.485-.97-.339-.533.1-2.764-.776-4.946-1.213-.534-.194-.679-.194-.776.049"/><path class="a" d="M471.486,724.418c-.678-.145-2.958-2.57-3.734-3.928-.775-1.309-.921-1.212-1.212-.242a17.91,17.91,0,0,1-2.231,4.073c-.776,1.019-2.812,3.686-3.394,4.268-.534.582,0,.824.485,1.309s2.958,3.492,3.491,4.171,1.164,1.891,2.57.533a15.267,15.267,0,0,0,3.977-6.207c.776-2.473.824-3.783,1.5-3.637l.049-.534-.194-.291-.34-.291a.6.6,0,0,1-.048.631c-.146.339-.631.194-.922.145"/><path class="a" d="M508.342,668.989c-1.649,1.94-4.9,3.637-10.378,4.995s-10.717,5.238-12.9,7.129c-2.231,1.891-7.856,6.45-10.523,7.614-.728.291-2.28,1.309-.291,1.551,1.454.194,2.473-.679,5.625-2.958a65.825,65.825,0,0,0,7.953-6.256c2.231-2.182,6.256-4.219,10.62-5.431s10.039-3.1,11.687-4.9c.776-.824.825-1.261.1-1.988-.775-.727-1.212-.534-1.891.242"/><path class="a" d="M480.7,687.951c-.485.242-.679.533-1.212,2.279s-.485,2.764-.048,3.2a1.706,1.706,0,0,0,1.066.339c.194,0,.34.048.34-.436-.049-.534-.049-2.716,1.552-3.686.291-.194-.049-1.455-1.116-1.261-.339.049.049-.776-.582-.436"/><path class="a" d="M462.079,694.837c.824,0,1.406,0,1.309.97-.049.97-.485,2.279-.534,3.2s-.048,1.261.485,1.261-.775.534-1.5.679c-.727.1-1.843.534-2.425-2.522-.194-.969-.1-2.473-.242-2.812a6.486,6.486,0,0,1,2.91-.776"/><path class="a" d="M478.082,697.407c.242,1.212.533,1.212.291,1.358-.243.194-.485-.437-1.455-.291-.922.145-8.535,1.309-9.069,1.406-1.7.194-1.794-.1-.194-.436,1.552-.34,7.275-1.358,9.02-1.7Z"/><path class="a" d="M468.965,789.546c.776.485,2.667,1.019,5.868-.291s6.74-.436,7.274,1.843.582,5.237-.437,6.5a2,2,0,0,1-2.57.679c-1.746-.533-5.771-2.424-6.935-2.958a12.382,12.382,0,0,0-4.461-1.164,5.64,5.64,0,0,1-.1-3.879c.339-.728.339-1.455.679-1.261a5.55,5.55,0,0,0,.679.533"/><path class="a" d="M481.622,800.215a2.753,2.753,0,0,1,2.667,1.746c.339,1.164,2.716,1.455,3.734,1.406s.824.485.776,1.067-.243,2.425-.243,3.152.194,3.249.291,3.734c.146.485-.291.728-.824.97s-2.522.825-3.783-.048c-.678-.485-1.454-1.164-.678-1.213s-.97-6.886-1.455-8.05c-.485-1.261-1.892-2.764-.485-2.764"/><path class="a" d="M460.866,786.006c.34.1.485.437.728.825a.9.9,0,0,1-.049,1.212c-.679.727-1.455,4.025-1.309,6.4a5.521,5.521,0,0,0-1.794-.194c-.194-1.309-.049-5.48.533-6.789.582-1.358,1.164-1.7,1.891-1.455"/><path class="a" d="M461.012,822.765c1.5,1.7,4.316,4.267,6.449,5.189a9.615,9.615,0,0,0,5.383,1.018c1.5-.145,1.213.485,0,.679a10.612,10.612,0,0,1-5.77-.776,19.21,19.21,0,0,1-6.5-5.383c-.485-.63-.048-1.261.437-.727"/><path class="a" d="M492.388,818.546a30.746,30.746,0,0,1-5.674,2.231,8.828,8.828,0,0,1,.291,1.842,14.071,14.071,0,0,0,5.964-2.23c.485-.291.679-.679.485-1.067-.145-.437-.388-1.116-1.066-.776"/><path class="a" d="M478.13,813.6c-.291-.291,1.407-.678,1.794-.678.437.291,1.213.969,1.5,1.212.194.194.1.291-.1.436a8.522,8.522,0,0,1-1.7.437,16.123,16.123,0,0,1-1.5-1.407"/><path class="a" d="M481.331,788.528c-.485-.34-.437-.534-.194-.921a2.575,2.575,0,0,1,.727-.728c.243-.1.582-.194,1.019.437.436.581,2.715,4.413,3.2,5.431s1.067.339.825-.243a18.961,18.961,0,0,0-.922-1.939,27.028,27.028,0,0,0,1.31-7.226,13.807,13.807,0,0,0-.825-4.8,28.587,28.587,0,0,0,6.547-.436c1.406-.437.242-.534-.291-.485a56.5,56.5,0,0,1-7.274-.291c-4.947-.582-9.8-3.395-11.348-5.286-.242-.291-1.7-.194-.485.776s4.268,3.831,8.778,4.655c1.018.194,2.667.485,2.909,4.219a40.675,40.675,0,0,1-.1,6.5c0,.34-.242.485-.533.049a8.494,8.494,0,0,0-1.891-2.085,1.166,1.166,0,0,0-1.407.1,8.592,8.592,0,0,0-1.5,1.455Z"/><path class="a" d="M471.583,800.312a23.976,23.976,0,0,1-3.734,0c-.582-.194-.921-.873-.533-1.164.485-.339,1.406.1,2.328.1a13.115,13.115,0,0,1,2.182-.1c.242.146.582.1.582,1.213Z"/><path class="a" d="M465.037,816.849c-.776-.485-1.7-2.716-1.892-7.178a16.491,16.491,0,0,1,1.019-5.237c.485-1.212-.291-.727-.485-.291a16.825,16.825,0,0,0-.97,3.4,16.455,16.455,0,0,0,0,5.868c.485,2.715.727,3.54.824,4.025Z"/><path class="h" d="M489.72,668.892a4.61,4.61,0,0,1,.34-.872c-.437.242-.873.436-1.261.678.242.34.63.97.921.194"/><path class="i" d="M489.72,668.892a4.61,4.61,0,0,1,.34-.872c-.437.242-.873.436-1.261.678C489.041,669.038,489.429,669.668,489.72,668.892Z"/><path class="h" d="M500.583,669.474c-.194-.63-.776.34-1.5,1.261a1.138,1.138,0,0,1-1.94-.1,4.742,4.742,0,0,0-1.018-1.843c-.679-.872.63-2.085,1.163-2.23a7,7,0,0,0,1.407-.437c.145-.145-.1-1.018-.243-1.7a44.977,44.977,0,0,0-7.128,2.91c.727.291.485,1.648.436,1.842-.1.194-.339,1.407.194.679s.776-.97,1.309-1.164c.582-.194,1.213-.145,1.213.679.048.825-.34.776-.485,1.31-.1.533,0,.533.291.63s.436.485.242,1.067-1.115.63-1.94.533-.921.049-.63.291a2.379,2.379,0,0,1,.63,1.213,31.417,31.417,0,0,1,8-2.473,8.426,8.426,0,0,0,0-2.474"/><path class="i" d="M500.583,669.474c-.194-.63-.776.34-1.5,1.261a1.138,1.138,0,0,1-1.94-.1,4.742,4.742,0,0,0-1.018-1.843c-.679-.872.63-2.085,1.163-2.23a7,7,0,0,0,1.407-.437c.145-.145-.1-1.018-.243-1.7a44.977,44.977,0,0,0-7.128,2.91c.727.291.485,1.648.436,1.842-.1.194-.339,1.407.194.679s.776-.97,1.309-1.164c.582-.194,1.213-.145,1.213.679.048.825-.34.776-.485,1.31-.1.533,0,.533.291.63s.436.485.242,1.067-1.115.63-1.94.533-.921.049-.63.291a2.379,2.379,0,0,1,.63,1.213,31.417,31.417,0,0,1,8-2.473A8.426,8.426,0,0,0,500.583,669.474Z"/><path class="h" d="M481.525,681.355c-.291-.533-.679-.63-.825-.194s-.436,1.843-1.406,2.231a3.164,3.164,0,0,1-.727.243,7.3,7.3,0,0,0,1.115.97c.727-.776,1.406-1.5,2.085-2.134a1.947,1.947,0,0,0-.242-1.116"/><path class="i" d="M481.525,681.355c-.291-.533-.679-.63-.825-.194s-.436,1.843-1.406,2.231a3.164,3.164,0,0,1-.727.243,7.3,7.3,0,0,0,1.115.97c.727-.776,1.406-1.5,2.085-2.134A1.947,1.947,0,0,0,481.525,681.355Z"/><path class="h" d="M490.545,674.178c-.34-.1-.582.388-.825.728a1.534,1.534,0,0,1-1.454.873c-.776-.1-.97-.34-1.164-1.019a1.152,1.152,0,0,0-1.261-.873c-.582,0-.97-.679-.34-1.406.582-.727,1.213-.388,1.7-.388s.727-.533.339-.776a2.743,2.743,0,0,1-.97-1.309,57.549,57.549,0,0,0-6.353,4.8,4.953,4.953,0,0,1,1.067.242.984.984,0,0,1,.679,1.019c-.048.533.1.678.437.291.339-.34-.049-1.455,1.067-1.892s1.26.437,1.212.97c-.049.582,0,1.116.582,1.358s1.212,1.164-.049,1.7a15.513,15.513,0,0,1-2.473.825c-.533.145-.388.679.049.97a7.163,7.163,0,0,1,.582.533,43.619,43.619,0,0,1,4.8-3.831c.921-.63,1.794-1.212,2.667-1.7.145-.437.194-.922-.291-1.116"/><path class="i" d="M490.545,674.178c-.34-.1-.582.388-.825.728a1.534,1.534,0,0,1-1.454.873c-.776-.1-.97-.34-1.164-1.019a1.152,1.152,0,0,0-1.261-.873c-.582,0-.97-.679-.34-1.406.582-.727,1.213-.388,1.7-.388s.727-.533.339-.776a2.743,2.743,0,0,1-.97-1.309,57.549,57.549,0,0,0-6.353,4.8,4.953,4.953,0,0,1,1.067.242.984.984,0,0,1,.679,1.019c-.048.533.1.678.437.291.339-.34-.049-1.455,1.067-1.892s1.26.437,1.212.97c-.049.582,0,1.116.582,1.358s1.212,1.164-.049,1.7a15.513,15.513,0,0,1-2.473.825c-.533.145-.388.679.049.97a7.163,7.163,0,0,1,.582.533,43.619,43.619,0,0,1,4.8-3.831c.921-.63,1.794-1.212,2.667-1.7C490.981,674.857,491.03,674.372,490.545,674.178Z"/><path class="h" d="M478.761,679.8a.911.911,0,0,0-.728-.922c-.242-.048-.63-.485-.824-.873a6.412,6.412,0,0,0-.776,1.213c.145.388.242.776.388,1.115.727,0,1.891-.048,1.94-.533"/><path class="i" d="M478.761,679.8a.911.911,0,0,0-.728-.922c-.242-.048-.63-.485-.824-.873a6.412,6.412,0,0,0-.776,1.213c.145.388.242.776.388,1.115C477.548,680.337,478.712,680.289,478.761,679.8Z"/><path class="h" d="M504.22,707.93a16.2,16.2,0,0,0-6.547,1.116c.388.242.825.776,1.6.485,1.164-.388,1.552.824,1.018,1.164s-.727,1.163.291.533,1.94.291,1.5.921c-.436.679-.969.146-.824,1.067.1.922-.1,1.795-.921,1.94s-1.019-1.115-1.407-1.018.1,2.23-.1,2.279a3.142,3.142,0,0,0-1.455.921.048.048,0,0,1,.049.049c3.3,2.376,4.17,1.067,4.655-.049a47.053,47.053,0,0,0,1.892-6.3,17.406,17.406,0,0,0,.242-3.1"/><path class="i" d="M504.22,707.93a16.2,16.2,0,0,0-6.547,1.116c.388.242.825.776,1.6.485,1.164-.388,1.552.824,1.018,1.164s-.727,1.163.291.533,1.94.291,1.5.921c-.436.679-.969.146-.824,1.067.1.922-.1,1.795-.921,1.94s-1.019-1.115-1.407-1.018.1,2.23-.1,2.279a3.142,3.142,0,0,0-1.455.921.048.048,0,0,1,.049.049c3.3,2.376,4.17,1.067,4.655-.049a47.053,47.053,0,0,0,1.892-6.3A17.406,17.406,0,0,0,504.22,707.93Z"/><path class="h" d="M496.994,714.477c.194-.436-.29-.824-.824-.533-.533.339-1.261.824-1.794-.049s.582-.97.63-1.406-.339-.485-.145-1.164.97-.485,1.5-.146c.631.437.437-.581.34-.969a2.434,2.434,0,0,1-.049-.825,14.242,14.242,0,0,0-1.891,1.019c-3.1,1.891-3.2,3.491-2.473,4.122.63.533,1.988.775,4.219,2.279a10.126,10.126,0,0,1,.484-2.328"/><path class="i" d="M496.994,714.477c.194-.436-.29-.824-.824-.533-.533.339-1.261.824-1.794-.049s.582-.97.63-1.406-.339-.485-.145-1.164.97-.485,1.5-.146c.631.437.437-.581.34-.969a2.434,2.434,0,0,1-.049-.825,14.242,14.242,0,0,0-1.891,1.019c-3.1,1.891-3.2,3.491-2.473,4.122.63.533,1.988.775,4.219,2.279A10.126,10.126,0,0,1,496.994,714.477Z"/><path class="h" d="M487.15,712.683A8.716,8.716,0,0,1,483.756,709s.048-.242-.291-.242a12.63,12.63,0,0,1-3.928-.922c-2.231-.776-2.522-.291-2.813.679a22.715,22.715,0,0,0-.582,5.626c-.049,2.909,1.212,4.7,1.988,4.413.388-.146,1.358-.631,2.425-1.164,0-.582.048-1.552.1-2.037.1-.679-.631-.436-.921-.049-.291.34-.873.97-1.407.873s-.921-1.066-.824-1.939c.1-.922-.97-1.261-.291-2.474s1.212.291,1.794.194.291-.436,0-1.357.873-1.213,1.552-.534c.436.437.679-.533,1.309-.388.679.146,1.067.582.679,1.261-.291.533-.533,1.7.049,1.067s1.164-1.019,1.7-.582.194,1.309.048,1.746.97,1.018.194,1.552-1.648-.388-2.085-.291-.533.678.049,1.066a6.933,6.933,0,0,0,1.115.631,19.872,19.872,0,0,0,3.2-1.552l.776.049c0-1.116-.1-1.746-.437-1.94"/><path class="i" d="M487.15,712.683A8.716,8.716,0,0,1,483.756,709s.048-.242-.291-.242a12.63,12.63,0,0,1-3.928-.922c-2.231-.776-2.522-.291-2.813.679a22.715,22.715,0,0,0-.582,5.626c-.049,2.909,1.212,4.7,1.988,4.413.388-.146,1.358-.631,2.425-1.164,0-.582.048-1.552.1-2.037.1-.679-.631-.436-.921-.049-.291.34-.873.97-1.407.873s-.921-1.066-.824-1.939c.1-.922-.97-1.261-.291-2.474s1.212.291,1.794.194.291-.436,0-1.357.873-1.213,1.552-.534c.436.437.679-.533,1.309-.388.679.146,1.067.582.679,1.261-.291.533-.533,1.7.049,1.067s1.164-1.019,1.7-.582.194,1.309.048,1.746.97,1.018.194,1.552-1.648-.388-2.085-.291-.533.678.049,1.066a6.933,6.933,0,0,0,1.115.631,19.872,19.872,0,0,0,3.2-1.552l.776.049C487.587,713.507,487.49,712.877,487.15,712.683Z"/><path class="h" d="M482.689,725.922c-.485-1.067-.631-.243-1.989,1.843a44.1,44.1,0,0,1-4.51,5.285c1.5.291,4.656,1.067,2.765,2.668-2.037,1.7-1.164,1.551-.243,1.454s2.425.437,1.261,2.474-1.94,3.491-3.007,4.17-2.667.582-3.006-.97-1.407,0-1.455,1.019a20.271,20.271,0,0,0-.049,3.394l-2.279-.1a24.443,24.443,0,0,1,.1-3.782c.194-.922.146-1.989-1.261-1.552a2.157,2.157,0,0,1-1.843-.146,23.441,23.441,0,0,0-4.946,5.529,2.765,2.765,0,0,0,2.958.582c1.31-.534,3.492.1,2.182,2.182-1.309,2.037-1.26,3.055.049,1.794s3.443-3.443,4.122-1.164c.436,1.5-.97,1.989-.921,3.2s1.26,2.425-.437,3.88-2.425-1.019-3.54-.679a1.224,1.224,0,0,0-.776,1.406c1.5,2.134,3.686,5.14,4.462,6.4,1.212,1.988,1.212,4.413,1.7,4.025.485-.339,1.649-1.455,1.988-1.746a1.183,1.183,0,0,0,.534-1.309,25.7,25.7,0,0,1-.679-6.692,21.867,21.867,0,0,1,2.521-7.711c.922-1.7,3.734-7.177,4.413-8.632s1.892-3.152,2.183-4.461,1.454-4.413,1.939-5.868a31.853,31.853,0,0,0-2.23-6.5"/><path class="i" d="M482.689,725.922c-.485-1.067-.631-.243-1.989,1.843a44.1,44.1,0,0,1-4.51,5.285c1.5.291,4.656,1.067,2.765,2.668-2.037,1.7-1.164,1.551-.243,1.454s2.425.437,1.261,2.474-1.94,3.491-3.007,4.17-2.667.582-3.006-.97-1.407,0-1.455,1.019a20.271,20.271,0,0,0-.049,3.394l-2.279-.1a24.443,24.443,0,0,1,.1-3.782c.194-.922.146-1.989-1.261-1.552a2.157,2.157,0,0,1-1.843-.146,23.441,23.441,0,0,0-4.946,5.529,2.765,2.765,0,0,0,2.958.582c1.31-.534,3.492.1,2.182,2.182-1.309,2.037-1.26,3.055.049,1.794s3.443-3.443,4.122-1.164c.436,1.5-.97,1.989-.921,3.2s1.26,2.425-.437,3.88-2.425-1.019-3.54-.679a1.224,1.224,0,0,0-.776,1.406c1.5,2.134,3.686,5.14,4.462,6.4,1.212,1.988,1.212,4.413,1.7,4.025.485-.339,1.649-1.455,1.988-1.746a1.183,1.183,0,0,0,.534-1.309,25.7,25.7,0,0,1-.679-6.692,21.867,21.867,0,0,1,2.521-7.711c.922-1.7,3.734-7.177,4.413-8.632s1.892-3.152,2.183-4.461,1.454-4.413,1.939-5.868A31.853,31.853,0,0,0,482.689,725.922Z"/><path class="h" d="M508.973,752.691a11.345,11.345,0,0,1-2.086-6.256,31.569,31.569,0,0,1,.243-5.916c-.485-.049-1.067.048-1.116.775a11.769,11.769,0,0,1-.969,3.638c-.34.824-1.552.775-2.28.824s-.727-.437-.242-1.5a3.805,3.805,0,0,0,.533-2.522c-.145-.97-.582-.1-1.018.727s-1.649,2.522-3.007,2.328c-1.406-.194-1.018-2.279-.921-3.007s-.291-.824-.825-.969c-.533-.1-1.648-.34-1.018-2.134.582-1.746,1.261-1.552,2.085-1.261s.97-.243.194-.534-1.648-.969-1.552-1.794c.146-2.231,1.552-2.037,2.668-1.794a3.506,3.506,0,0,0,2.958-1.212c0-.049-.049-.1-.049-.146-1.6-6.11,1.455-13.675,2.28-15.761a90.29,90.29,0,0,1,5.237-9.844c-.582-.291-2.182-1.115-3.055-1.552s-1.358-.679-1.6-.339-.534.533-.97,1.115c-.825,1.212-.1,1.019.1,1.019.242,0,1.26,1.309,1.454,1.648.194.291,0,.534-.436,1.5-.533,1.261-.921,4.17-1.406,5.916-1.455,5.286-3.734,4.752-4.753,4.073s-1.309.34-2.376,1.795a19.431,19.431,0,0,1-1.649,1.794c.97.436,2.328,1.7.728,2.958-1.892,1.455-2.231,2.231-1.31,2.037s1.795-1.552,2.813-.582-.34,2.037-.921,2.376c-.534.291-1.649.825-1.31,1.989.291,1.163.485,2.715-1.018,3.055a1.975,1.975,0,0,1-2.522-1.067c-.436-.776-.824-.243-1.018.727a12.972,12.972,0,0,0-.291,2.037c0,.339-1.067-.194-1.552-.679s-1.067.824-1.649.194c-.533-.679.679-2.716,1.067-3.443.388-.679.242-1.649-2.182-.534a34.771,34.771,0,0,0-2.376,6.111,64.426,64.426,0,0,1-5.577,11.541c-3.249,5.238-3.831,10.136-3.346,13.239.485,3.056.921,2.813,1.551,2.813.679,0,2.28,2.037,3.4,3.3,1.067,1.261,1.5.727,2.037.291A57.087,57.087,0,0,1,492.1,763.7a58.963,58.963,0,0,1,7.662-2.958,21.644,21.644,0,0,1,.436-3.007c.1-.582-.485-.776-1.067,0s-2.23,2.716-3.3,2.231-1.989-1.7-1.407-2.716-.242-1.309-.679-1.843-.436-2.667.922-2.812c1.309-.194,1.746.97,2.667,1.26s1.649.243.485-1.018-2.522-.776-1.794-2.522,1.745-1.648,2.958-1.26c1.212.339,1.794-.291,2.57-.825s2.328-1.261,3.443,0c1.067,1.261-.776,2.425-1.212,2.813-.825.824-.97,2.328-.049,1.455s2.425-4.171,3.492-1.455c.582,1.552-.534,2.182-.34,3.152s1.8,2.279.485,3.492-3.2.194-3.976-.534-1.649-1.067-1.261.243a9.737,9.737,0,0,1,.388,2.618,22.127,22.127,0,0,1,6.11-1.067c1.7.146,3.007.679,2.958-.921-.242-1.649-1.067-2.764-2.618-5.334"/><path class="i" d="M508.973,752.691a11.345,11.345,0,0,1-2.086-6.256,31.569,31.569,0,0,1,.243-5.916c-.485-.049-1.067.048-1.116.775a11.769,11.769,0,0,1-.969,3.638c-.34.824-1.552.775-2.28.824s-.727-.437-.242-1.5a3.805,3.805,0,0,0,.533-2.522c-.145-.97-.582-.1-1.018.727s-1.649,2.522-3.007,2.328c-1.406-.194-1.018-2.279-.921-3.007s-.291-.824-.825-.969c-.533-.1-1.648-.34-1.018-2.134.582-1.746,1.261-1.552,2.085-1.261s.97-.243.194-.534-1.648-.969-1.552-1.794c.146-2.231,1.552-2.037,2.668-1.794a3.506,3.506,0,0,0,2.958-1.212c0-.049-.049-.1-.049-.146-1.6-6.11,1.455-13.675,2.28-15.761a90.29,90.29,0,0,1,5.237-9.844c-.582-.291-2.182-1.115-3.055-1.552s-1.358-.679-1.6-.339-.534.533-.97,1.115c-.825,1.212-.1,1.019.1,1.019.242,0,1.26,1.309,1.454,1.648.194.291,0,.534-.436,1.5-.533,1.261-.921,4.17-1.406,5.916-1.455,5.286-3.734,4.752-4.753,4.073s-1.309.34-2.376,1.795a19.431,19.431,0,0,1-1.649,1.794c.97.436,2.328,1.7.728,2.958-1.892,1.455-2.231,2.231-1.31,2.037s1.795-1.552,2.813-.582-.34,2.037-.921,2.376c-.534.291-1.649.825-1.31,1.989.291,1.163.485,2.715-1.018,3.055a1.975,1.975,0,0,1-2.522-1.067c-.436-.776-.824-.243-1.018.727a12.972,12.972,0,0,0-.291,2.037c0,.339-1.067-.194-1.552-.679s-1.067.824-1.649.194c-.533-.679.679-2.716,1.067-3.443.388-.679.242-1.649-2.182-.534a34.771,34.771,0,0,0-2.376,6.111,64.426,64.426,0,0,1-5.577,11.541c-3.249,5.238-3.831,10.136-3.346,13.239.485,3.056.921,2.813,1.551,2.813.679,0,2.28,2.037,3.4,3.3,1.067,1.261,1.5.727,2.037.291A57.087,57.087,0,0,1,492.1,763.7a58.963,58.963,0,0,1,7.662-2.958,21.644,21.644,0,0,1,.436-3.007c.1-.582-.485-.776-1.067,0s-2.23,2.716-3.3,2.231-1.989-1.7-1.407-2.716-.242-1.309-.679-1.843-.436-2.667.922-2.812c1.309-.194,1.746.97,2.667,1.26s1.649.243.485-1.018-2.522-.776-1.794-2.522,1.745-1.648,2.958-1.26c1.212.339,1.794-.291,2.57-.825s2.328-1.261,3.443,0c1.067,1.261-.776,2.425-1.212,2.813-.825.824-.97,2.328-.049,1.455s2.425-4.171,3.492-1.455c.582,1.552-.534,2.182-.34,3.152s1.8,2.279.485,3.492-3.2.194-3.976-.534-1.649-1.067-1.261.243a9.737,9.737,0,0,1,.388,2.618,22.127,22.127,0,0,1,6.11-1.067c1.7.146,3.007.679,2.958-.921C511.349,756.376,510.524,755.261,508.973,752.691Z"/><path class="h" d="M487.587,763.456c-1.455.437-1.7-.242-2.668-.582s-1.018.485-.339,1.5,1.406,1.988.582,1.988c-.776,0-1.406.1-1.5.727s-1.407-.1-1.7-1.406c-.291-1.261-.582-3.685-1.261-2.473s-1.26,3.2-2.958,2.279-.533-2.085-1.406-2.958c-.824-.824-1.649-1.94-.776-3.443.824-1.5,1.552-.243,2.376-.243.776,0,.922-.727.194-1.26s-1.649-3.153,1.7-2.959a5.889,5.889,0,0,0,3.735-1.163c1.066-.776,3.928-.34,2.764,1.648s-.776,2.425-.1,1.7,1.5-2.037,2.764-1.7.727,1.31-.049,2.425a1.433,1.433,0,0,0,.291,2.231c.582.436,1.7,2.715-1.648,3.685"/><path class="i" d="M487.587,763.456c-1.455.437-1.7-.242-2.668-.582s-1.018.485-.339,1.5,1.406,1.988.582,1.988c-.776,0-1.406.1-1.5.727s-1.407-.1-1.7-1.406c-.291-1.261-.582-3.685-1.261-2.473s-1.26,3.2-2.958,2.279-.533-2.085-1.406-2.958c-.824-.824-1.649-1.94-.776-3.443.824-1.5,1.552-.243,2.376-.243.776,0,.922-.727.194-1.26s-1.649-3.153,1.7-2.959a5.889,5.889,0,0,0,3.735-1.163c1.066-.776,3.928-.34,2.764,1.648s-.776,2.425-.1,1.7,1.5-2.037,2.764-1.7.727,1.31-.049,2.425a1.433,1.433,0,0,0,.291,2.231C489.817,760.207,490.933,762.486,487.587,763.456Z"/><path class="h" d="M493.7,749.248a11.519,11.519,0,0,1-2.425-.243c-.1,1.164-1.212,2.764-2.328,4.462-.1.193-.775.193-1.066-.049s-1.164-.679-.485-1.406,1.745-2.231,1.551-2.91-.678-1.261-1.406-.339-1.891,2.764-3.152,2.812-2.522-1.067-1.94-2.231.776-1.745-.048-2.764-.534-2.327,1.261-3.152a2.449,2.449,0,0,1,2.182.534c.679.533,1.018,0,.1-.534A2.989,2.989,0,0,1,484.192,741c-.1-1.163.582-2.327,2.182-1.7a2.828,2.828,0,0,0,3.2-.436c.679-.534,3.491-1.213,3.055,1.261-.291,1.794-1.164,1.842-1.406,2.812s.485.34.921-.339c.437-.728,1.406-3.686,3.4-1.455.485.533.291,1.455-.291,2.473a1.817,1.817,0,0,0,.242,2.182c.388.631,1.213,3.3-1.794,3.444"/><path class="i" d="M493.7,749.248a11.519,11.519,0,0,1-2.425-.243c-.1,1.164-1.212,2.764-2.328,4.462-.1.193-.775.193-1.066-.049s-1.164-.679-.485-1.406,1.745-2.231,1.551-2.91-.678-1.261-1.406-.339-1.891,2.764-3.152,2.812-2.522-1.067-1.94-2.231.776-1.745-.048-2.764-.534-2.327,1.261-3.152a2.449,2.449,0,0,1,2.182.534c.679.533,1.018,0,.1-.534A2.989,2.989,0,0,1,484.192,741c-.1-1.163.582-2.327,2.182-1.7a2.828,2.828,0,0,0,3.2-.436c.679-.534,3.491-1.213,3.055,1.261-.291,1.794-1.164,1.842-1.406,2.812s.485.34.921-.339c.437-.728,1.406-3.686,3.4-1.455.485.533.291,1.455-.291,2.473a1.817,1.817,0,0,0,.242,2.182C495.879,746.435,496.7,749.1,493.7,749.248Z"/><path class="d" d="M492.582,672.966c.824.1,1.7.048,1.939-.533.194-.582.049-.922-.242-1.067-.291-.1-.388-.1-.291-.631s.533-.485.485-1.309-.679-.873-1.213-.679c-.582.194-.775.436-1.309,1.164s-.291-.485-.194-.679.291-1.6-.436-1.843c-.437.194-.825.437-1.213.631a4.678,4.678,0,0,0-.339.872c-.291.776-.679.194-.922-.194h0c-.824.437-1.5.873-2.036,1.213a.375.375,0,0,1-.194.1,2.4,2.4,0,0,0,.97,1.309c.388.291.145.776-.34.776s-1.067-.339-1.7.388c-.582.727-.194,1.406.339,1.406a1.152,1.152,0,0,1,1.261.873c.194.679.388.922,1.164,1.019a1.589,1.589,0,0,0,1.455-.873c.194-.34.485-.873.824-.776.485.194.437.679.291,1.261.582-.34,1.164-.631,1.746-.97a2.621,2.621,0,0,0-.63-1.213c-.291-.194-.194-.339.582-.242"/><path class="m" d="M492.582,672.966c.824.1,1.7.048,1.939-.533.194-.582.049-.922-.242-1.067-.291-.1-.388-.1-.291-.631s.533-.485.485-1.309-.679-.873-1.213-.679c-.582.194-.775.436-1.309,1.164s-.291-.485-.194-.679.291-1.6-.436-1.843c-.437.194-.825.437-1.213.631a4.678,4.678,0,0,0-.339.872c-.291.776-.679.194-.922-.194h0c-.824.437-1.5.873-2.036,1.213a.375.375,0,0,1-.194.1,2.4,2.4,0,0,0,.97,1.309c.388.291.145.776-.34.776s-1.067-.339-1.7.388c-.582.727-.194,1.406.339,1.406a1.152,1.152,0,0,1,1.261.873c.194.679.388.922,1.164,1.019a1.589,1.589,0,0,0,1.455-.873c.194-.34.485-.873.824-.776.485.194.437.679.291,1.261.582-.34,1.164-.631,1.746-.97a2.621,2.621,0,0,0-.63-1.213C491.709,673.014,491.806,672.869,492.582,672.966Z"/><path class="d" d="M499.322,664.237a5.8,5.8,0,0,0-.873.242c.146.679.437,1.552.291,1.7a7.014,7.014,0,0,1-1.406.436c-.533.146-1.843,1.358-1.164,2.231a5.512,5.512,0,0,1,1.018,1.843,1.144,1.144,0,0,0,1.94.1c.776-.922,1.31-1.892,1.5-1.261a8.776,8.776,0,0,1,0,2.522c.145-.049.291-.049.485-.1a11.921,11.921,0,0,0-1.8-7.711"/><path class="m" d="M499.322,664.237a5.8,5.8,0,0,0-.873.242c.146.679.437,1.552.291,1.7a7.014,7.014,0,0,1-1.406.436c-.533.146-1.843,1.358-1.164,2.231a5.512,5.512,0,0,1,1.018,1.843,1.144,1.144,0,0,0,1.94.1c.776-.922,1.31-1.892,1.5-1.261a8.776,8.776,0,0,1,0,2.522c.145-.049.291-.049.485-.1A11.921,11.921,0,0,0,499.322,664.237Z"/><path class="d" d="M482.786,680.434c-.437-.339-.534-.824-.049-1.018a15.515,15.515,0,0,0,2.473-.825c1.261-.533.582-1.455.049-1.7-.582-.242-.631-.776-.582-1.358s-.1-1.406-1.212-.97-.728,1.5-1.067,1.892c-.34.339-.534.242-.437-.291a1.108,1.108,0,0,0-.679-1.019,4.351,4.351,0,0,0-1.067-.242,20.385,20.385,0,0,0-3.006,3.2,2.067,2.067,0,0,0,.824.873.872.872,0,0,1,.728.922c0,.533-1.164.533-1.94.582a9.186,9.186,0,0,0,1.843,3.3c.194-.048.388-.145.679-.242.921-.388,1.212-1.8,1.406-2.231.145-.436.533-.339.824.194a3.194,3.194,0,0,1,.291,1.067c.534-.534,1.067-1.019,1.552-1.5a3.909,3.909,0,0,0-.63-.63"/><path class="m" d="M482.786,680.434c-.437-.339-.534-.824-.049-1.018a15.515,15.515,0,0,0,2.473-.825c1.261-.533.582-1.455.049-1.7-.582-.242-.631-.776-.582-1.358s-.1-1.406-1.212-.97-.728,1.5-1.067,1.892c-.34.339-.534.242-.437-.291a1.108,1.108,0,0,0-.679-1.019,4.351,4.351,0,0,0-1.067-.242,20.385,20.385,0,0,0-3.006,3.2,2.067,2.067,0,0,0,.824.873.872.872,0,0,1,.728.922c0,.533-1.164.533-1.94.582a9.186,9.186,0,0,0,1.843,3.3c.194-.048.388-.145.679-.242.921-.388,1.212-1.8,1.406-2.231.145-.436.533-.339.824.194a3.194,3.194,0,0,1,.291,1.067c.534-.534,1.067-1.019,1.552-1.5A3.909,3.909,0,0,0,482.786,680.434Z"/><path class="d" d="M498.789,716.417c.194-.049-.291-2.182.1-2.279s.582,1.163,1.406,1.018,1.067-.97.921-1.94c-.1-.921.437-.436.825-1.067.436-.679-.485-1.551-1.5-.921s-.825-.194-.291-.533.145-1.552-1.019-1.164c-.824.291-1.261-.243-1.649-.485a7.38,7.38,0,0,0-.921.388,2.43,2.43,0,0,0,.049.824c.1.388.29,1.406-.34.97-.533-.388-1.309-.582-1.5.145-.194.679.194.776.145,1.164-.048.437-1.164.534-.63,1.407s1.261.388,1.794.048.97.049.824.534a8.286,8.286,0,0,0-.436,2.327c.243.146.485.34.776.534a2.441,2.441,0,0,1,1.455-.97"/><path class="m" d="M498.789,716.417c.194-.049-.291-2.182.1-2.279s.582,1.163,1.406,1.018,1.067-.97.921-1.94c-.1-.921.437-.436.825-1.067.436-.679-.485-1.551-1.5-.921s-.825-.194-.291-.533.145-1.552-1.019-1.164c-.824.291-1.261-.243-1.649-.485a7.38,7.38,0,0,0-.921.388,2.43,2.43,0,0,0,.049.824c.1.388.29,1.406-.34.97-.533-.388-1.309-.582-1.5.145-.194.679.194.776.145,1.164-.048.437-1.164.534-.63,1.407s1.261.388,1.794.048.97.049.824.534a8.286,8.286,0,0,0-.436,2.327c.243.146.485.34.776.534A2.441,2.441,0,0,1,498.789,716.417Z"/><path class="d" d="M482.349,714.332c.437-.1,1.31.824,2.085.291s-.339-1.067-.194-1.552c.146-.437.534-1.31-.048-1.746-.533-.436-1.115-.049-1.7.582s-.388-.582-.049-1.067c.388-.679,0-1.115-.679-1.212s-.873.824-1.309.388c-.727-.679-1.843-.388-1.552.533s.582,1.212,0,1.358c-.582.1-1.115-1.406-1.794-.194s.388,1.552.291,2.473.291,1.891.824,1.94c.534.1,1.116-.534,1.407-.873s1.018-.63.921.048c-.049.485-.1,1.455-.1,2.037a25.739,25.739,0,0,1,2.958-1.309c.049,0,.049,0,.1-.049a6.2,6.2,0,0,1-1.115-.582c-.582-.387-.485-.969-.049-1.066"/><path class="m" d="M482.349,714.332c.437-.1,1.31.824,2.085.291s-.339-1.067-.194-1.552c.146-.437.534-1.31-.048-1.746-.533-.436-1.115-.049-1.7.582s-.388-.582-.049-1.067c.388-.679,0-1.115-.679-1.212s-.873.824-1.309.388c-.727-.679-1.843-.388-1.552.533s.582,1.212,0,1.358c-.582.1-1.115-1.406-1.794-.194s.388,1.552.291,2.473.291,1.891.824,1.94c.534.1,1.116-.534,1.407-.873s1.018-.63.921.048c-.049.485-.1,1.455-.1,2.037a25.739,25.739,0,0,1,2.958-1.309c.049,0,.049,0,.1-.049a6.2,6.2,0,0,1-1.115-.582C481.816,715.011,481.913,714.429,482.349,714.332Z"/><path class="d" d="M469.013,741.779c1.407-.436,1.455.679,1.261,1.552a16.393,16.393,0,0,0-.1,3.783l2.279.1a27.357,27.357,0,0,1,.049-3.4c.048-1.018,1.067-2.57,1.455-1.018.339,1.552,1.939,1.649,3.006.97s1.892-2.086,3.007-4.171c1.164-2.037-.339-2.57-1.261-2.473s-1.794.242.243-1.455c1.891-1.552-1.31-2.376-2.765-2.667-2.424,2.57-5.431,5.431-8.05,7.71-.339.291-.679.582-.97.825a1.8,1.8,0,0,0,1.843.242"/><path class="m" d="M469.013,741.779c1.407-.436,1.455.679,1.261,1.552a16.393,16.393,0,0,0-.1,3.783l2.279.1a27.357,27.357,0,0,1,.049-3.4c.048-1.018,1.067-2.57,1.455-1.018.339,1.552,1.939,1.649,3.006.97s1.892-2.086,3.007-4.171c1.164-2.037-.339-2.57-1.261-2.473s-1.794.242.243-1.455c1.891-1.552-1.31-2.376-2.765-2.667-2.424,2.57-5.431,5.431-8.05,7.71-.339.291-.679.582-.97.825A1.8,1.8,0,0,0,469.013,741.779Z"/><path class="d" d="M466.589,756.958c1.163-.339,1.891,2.134,3.54.679,1.7-1.455.485-2.667.436-3.88s1.309-1.7.921-3.2c-.63-2.279-2.764-.1-4.073,1.164s-1.406.242-.049-1.795c1.31-2.036-.824-2.715-2.182-2.182a2.86,2.86,0,0,1-2.958-.582c-.485.825-.873,1.552-1.261,2.328-1.164,2.376-.339,2.425.485,2.425s2.667,3.54,2.91,4.219c.1.242.727,1.115,1.5,2.279a1.251,1.251,0,0,1,.728-1.455"/><path class="m" d="M466.589,756.958c1.163-.339,1.891,2.134,3.54.679,1.7-1.455.485-2.667.436-3.88s1.309-1.7.921-3.2c-.63-2.279-2.764-.1-4.073,1.164s-1.406.242-.049-1.795c1.31-2.036-.824-2.715-2.182-2.182a2.86,2.86,0,0,1-2.958-.582c-.485.825-.873,1.552-1.261,2.328-1.164,2.376-.339,2.425.485,2.425s2.667,3.54,2.91,4.219c.1.242.727,1.115,1.5,2.279A1.251,1.251,0,0,1,466.589,756.958Z"/><path class="d" d="M484.24,741.052c-.1-1.164.582-2.328,2.183-1.7a2.824,2.824,0,0,0,3.2-.437c.679-.533,3.492-1.212,3.056,1.261-.291,1.794-1.164,1.891-1.407,2.813-.242.97.485.339.922-.34.436-.727,1.406-3.685,3.394-1.455.485.534.291,1.455-.291,2.474a1.816,1.816,0,0,0,.243,2.182c.339.533,1.212,3.2-1.8,3.395a11.515,11.515,0,0,1-2.424-.243c-.1,1.164-1.213,2.764-2.328,4.462-.1.193-.776.193-1.067-.049s-1.164-.679-.485-1.406,1.746-2.231,1.552-2.91-.679-1.261-1.406-.339-1.892,2.764-3.153,2.812-2.521-1.067-1.939-2.23.776-1.746-.049-2.765-.533-2.327,1.261-3.152a2.449,2.449,0,0,1,2.182.534c.679.533,1.019,0,.1-.534a3.038,3.038,0,0,1-1.746-2.376"/><path class="m" d="M484.24,741.052c-.1-1.164.582-2.328,2.183-1.7a2.824,2.824,0,0,0,3.2-.437c.679-.533,3.492-1.212,3.056,1.261-.291,1.794-1.164,1.891-1.407,2.813-.242.97.485.339.922-.34.436-.727,1.406-3.685,3.394-1.455.485.534.291,1.455-.291,2.474a1.816,1.816,0,0,0,.243,2.182c.339.533,1.212,3.2-1.8,3.395a11.515,11.515,0,0,1-2.424-.243c-.1,1.164-1.213,2.764-2.328,4.462-.1.193-.776.193-1.067-.049s-1.164-.679-.485-1.406,1.746-2.231,1.552-2.91-.679-1.261-1.406-.339-1.892,2.764-3.153,2.812-2.521-1.067-1.939-2.23.776-1.746-.049-2.765-.533-2.327,1.261-3.152a2.449,2.449,0,0,1,2.182.534c.679.533,1.019,0,.1-.534A3.038,3.038,0,0,1,484.24,741.052Z"/><path class="d" d="M499.565,733.2c-1.067-.243-2.474-.437-2.667,1.794-.049.825.775,1.5,1.551,1.794s.679.825-.194.534c-.824-.291-1.5-.485-2.085,1.261s.485,1.988,1.018,2.085.97.242.825.97c-.1.727-.485,2.813.921,3.007s2.57-1.5,3.007-2.328.921-1.7,1.018-.728a3.8,3.8,0,0,1-.533,2.522c-.485,1.067-.485,1.552.242,1.5s1.94,0,2.28-.824a12.845,12.845,0,0,0,.969-3.637c.049-.727.679-.776,1.116-.776.145-1.212.339-2.425.485-3.443-2.376.339-4.365-2.522-5.092-5.043a3,3,0,0,1-2.861,1.309"/><path class="m" d="M499.565,733.2c-1.067-.243-2.474-.437-2.667,1.794-.049.825.775,1.5,1.551,1.794s.679.825-.194.534c-.824-.291-1.5-.485-2.085,1.261s.485,1.988,1.018,2.085.97.242.825.97c-.1.727-.485,2.813.921,3.007s2.57-1.5,3.007-2.328.921-1.7,1.018-.728a3.8,3.8,0,0,1-.533,2.522c-.485,1.067-.485,1.552.242,1.5s1.94,0,2.28-.824a12.845,12.845,0,0,0,.969-3.637c.049-.727.679-.776,1.116-.776.145-1.212.339-2.425.485-3.443-2.376.339-4.365-2.522-5.092-5.043A3,3,0,0,1,499.565,733.2Z"/><path class="d" d="M488.314,732.808c-.436.727-1.649,2.764-1.067,3.443.534.679,1.164-.679,1.649-.194s1.552,1.018,1.552.679a12.974,12.974,0,0,1,.291-2.037c.194-.97.582-1.5,1.018-.727a1.934,1.934,0,0,0,2.522,1.067c1.5-.34,1.309-1.94,1.018-3.055-.291-1.164.776-1.7,1.31-1.989s1.939-1.406.921-2.327c-1.018-.97-1.94.436-2.813.581-.921.194-.533-.581,1.31-2.036,1.6-1.261.242-2.474-.728-2.91-2.57,2.619-7.177,6.838-8.2,7.808a6.637,6.637,0,0,0-.97,1.26c2.424-1.212,2.57-.242,2.182.437"/><path class="m" d="M488.314,732.808c-.436.727-1.649,2.764-1.067,3.443.534.679,1.164-.679,1.649-.194s1.552,1.018,1.552.679a12.974,12.974,0,0,1,.291-2.037c.194-.97.582-1.5,1.018-.727a1.934,1.934,0,0,0,2.522,1.067c1.5-.34,1.309-1.94,1.018-3.055-.291-1.164.776-1.7,1.31-1.989s1.939-1.406.921-2.327c-1.018-.97-1.94.436-2.813.581-.921.194-.533-.581,1.31-2.036,1.6-1.261.242-2.474-.728-2.91-2.57,2.619-7.177,6.838-8.2,7.808a6.637,6.637,0,0,0-.97,1.26C488.556,731.159,488.7,732.129,488.314,732.808Z"/><path class="d" d="M503.25,757.007c.776.727,2.667,1.745,3.977.533s-.291-2.522-.485-3.492.97-1.551.339-3.152c-1.067-2.715-2.57.534-3.491,1.455s-.776-.63.048-1.455c.437-.436,2.279-1.552,1.213-2.812s-2.668-.534-3.444,0-1.406,1.212-2.57.824c-1.212-.339-2.23-.485-2.958,1.261s.679,1.261,1.794,2.522c1.164,1.26.437,1.309-.485,1.018s-1.309-1.455-2.667-1.261c-1.309.194-1.309,2.279-.921,2.813.436.533,1.261.824.679,1.891-.582,1.018.291,2.231,1.406,2.716,1.067.485,2.716-1.455,3.3-2.231s1.212-.582,1.067,0a22.992,22.992,0,0,0-.437,3.007c.922-.291,1.843-.582,2.716-.825a12.209,12.209,0,0,0-.388-2.618c-.34-1.261.533-.922,1.309-.194"/><path class="m" d="M503.25,757.007c.776.727,2.667,1.745,3.977.533s-.291-2.522-.485-3.492.97-1.551.339-3.152c-1.067-2.715-2.57.534-3.491,1.455s-.776-.63.048-1.455c.437-.436,2.279-1.552,1.213-2.812s-2.668-.534-3.444,0-1.406,1.212-2.57.824c-1.212-.339-2.23-.485-2.958,1.261s.679,1.261,1.794,2.522c1.164,1.26.437,1.309-.485,1.018s-1.309-1.455-2.667-1.261c-1.309.194-1.309,2.279-.921,2.813.436.533,1.261.824.679,1.891-.582,1.018.291,2.231,1.406,2.716,1.067.485,2.716-1.455,3.3-2.231s1.212-.582,1.067,0a22.992,22.992,0,0,0-.437,3.007c.922-.291,1.843-.582,2.716-.825a12.209,12.209,0,0,0-.388-2.618C501.6,755.94,502.474,756.279,503.25,757.007Z"/><path class="d" d="M479.779,754.679a5.894,5.894,0,0,0,3.734-1.164c1.067-.776,3.928-.339,2.764,1.649s-.776,2.425-.1,1.7,1.5-2.037,2.764-1.7.728,1.309-.048,2.425a1.432,1.432,0,0,0,.291,2.23c.582.437,1.7,2.716-1.649,3.686-1.455.436-1.7-.243-2.667-.582s-1.018.485-.34,1.5,1.407,1.989.582,1.989c-.776,0-1.406.145-1.5.727s-1.406-.1-1.7-1.406c-.291-1.261-.582-3.686-1.261-2.474s-1.261,3.2-2.958,2.28-.534-2.086-1.407-2.959c-.824-.824-1.648-1.939-.775-3.443.824-1.5,1.551-.242,2.327-.242s.922-.728.194-1.261c-.63-.582-1.552-3.152,1.746-2.958"/><path class="m" d="M479.779,754.679a5.894,5.894,0,0,0,3.734-1.164c1.067-.776,3.928-.339,2.764,1.649s-.776,2.425-.1,1.7,1.5-2.037,2.764-1.7.728,1.309-.048,2.425a1.432,1.432,0,0,0,.291,2.23c.582.437,1.7,2.716-1.649,3.686-1.455.436-1.7-.243-2.667-.582s-1.018.485-.34,1.5,1.407,1.989.582,1.989c-.776,0-1.406.145-1.5.727s-1.406-.1-1.7-1.406c-.291-1.261-.582-3.686-1.261-2.474s-1.261,3.2-2.958,2.28-.534-2.086-1.407-2.959c-.824-.824-1.648-1.939-.775-3.443.824-1.5,1.551-.242,2.327-.242s.922-.728.194-1.261C477.4,757.055,476.481,754.485,479.779,754.679Z"/><path class="h" d="M491.709,712.489c-.34.97-.825,2.182-1.067,2.764s-1.358.388-1.261-.049c.194-.921-1.115-.29-.97-1.018.1-.582-.1-1.552.533-1.552.679,0,1.94-.145,2.765-.145"/><path class="i" d="M491.709,712.489c-.34.97-.825,2.182-1.067,2.764s-1.358.388-1.261-.049c.194-.921-1.115-.29-.97-1.018.1-.582-.1-1.552.533-1.552C489.623,712.634,490.884,712.489,491.709,712.489Z"/><path class="h" d="M489.72,668.892a4.61,4.61,0,0,1,.34-.872c-.437.242-.873.436-1.261.678.242.34.63.97.921.194"/><path class="h" d="M500.583,669.474c-.194-.63-.776.34-1.5,1.261a1.138,1.138,0,0,1-1.94-.1,4.742,4.742,0,0,0-1.018-1.843c-.679-.872.63-2.085,1.163-2.23a7,7,0,0,0,1.407-.437c.145-.145-.1-1.018-.243-1.7a44.977,44.977,0,0,0-7.128,2.91c.727.291.485,1.648.436,1.842-.1.194-.339,1.407.194.679s.776-.97,1.309-1.164c.582-.194,1.213-.145,1.213.679.048.825-.34.776-.485,1.31-.1.533,0,.533.291.63s.436.485.242,1.067-1.115.63-1.94.533-.921.049-.63.291a2.379,2.379,0,0,1,.63,1.213,31.417,31.417,0,0,1,8-2.473,8.426,8.426,0,0,0,0-2.474"/><path class="h" d="M481.525,681.355c-.291-.533-.679-.63-.825-.194s-.436,1.843-1.406,2.231a3.164,3.164,0,0,1-.727.243,7.3,7.3,0,0,0,1.115.97c.727-.776,1.406-1.5,2.085-2.134a1.947,1.947,0,0,0-.242-1.116"/><path class="h" d="M490.545,674.178c-.34-.1-.582.388-.825.728a1.534,1.534,0,0,1-1.454.873c-.776-.1-.97-.34-1.164-1.019a1.152,1.152,0,0,0-1.261-.873c-.582,0-.97-.679-.34-1.406.582-.727,1.213-.388,1.7-.388s.727-.533.339-.776a2.743,2.743,0,0,1-.97-1.309,57.549,57.549,0,0,0-6.353,4.8,4.953,4.953,0,0,1,1.067.242.984.984,0,0,1,.679,1.019c-.048.533.1.678.437.291.339-.34-.049-1.455,1.067-1.892s1.26.437,1.212.97c-.049.582,0,1.116.582,1.358s1.212,1.164-.049,1.7a15.513,15.513,0,0,1-2.473.825c-.533.145-.388.679.049.97a7.163,7.163,0,0,1,.582.533,43.619,43.619,0,0,1,4.8-3.831c.921-.63,1.794-1.212,2.667-1.7.145-.437.194-.922-.291-1.116"/><path class="h" d="M478.761,679.8a.911.911,0,0,0-.728-.922c-.242-.048-.63-.485-.824-.873a6.412,6.412,0,0,0-.776,1.213c.145.388.242.776.388,1.115.727,0,1.891-.048,1.94-.533"/><path class="h" d="M504.22,707.93a16.2,16.2,0,0,0-6.547,1.116c.388.242.825.776,1.6.485,1.164-.388,1.552.824,1.018,1.164s-.727,1.163.291.533,1.94.291,1.5.921c-.436.679-.969.146-.824,1.067.1.922-.1,1.795-.921,1.94s-1.019-1.115-1.407-1.018.1,2.23-.1,2.279a3.142,3.142,0,0,0-1.455.921.048.048,0,0,1,.049.049c3.3,2.376,4.17,1.067,4.655-.049a47.053,47.053,0,0,0,1.892-6.3,17.406,17.406,0,0,0,.242-3.1"/><path class="h" d="M496.994,714.477c.194-.436-.29-.824-.824-.533-.533.339-1.261.824-1.794-.049s.582-.97.63-1.406-.339-.485-.145-1.164.97-.485,1.5-.146c.631.437.437-.581.34-.969a2.434,2.434,0,0,1-.049-.825,14.242,14.242,0,0,0-1.891,1.019c-3.1,1.891-3.2,3.491-2.473,4.122.63.533,1.988.775,4.219,2.279a10.126,10.126,0,0,1,.484-2.328"/><path class="h" d="M487.15,712.683A8.716,8.716,0,0,1,483.756,709s.048-.242-.291-.242a12.63,12.63,0,0,1-3.928-.922c-2.231-.776-2.522-.291-2.813.679a22.715,22.715,0,0,0-.582,5.626c-.049,2.909,1.212,4.7,1.988,4.413.388-.146,1.358-.631,2.425-1.164,0-.582.048-1.552.1-2.037.1-.679-.631-.436-.921-.049-.291.34-.873.97-1.407.873s-.921-1.066-.824-1.939c.1-.922-.97-1.261-.291-2.474s1.212.291,1.794.194.291-.436,0-1.357.873-1.213,1.552-.534c.436.437.679-.533,1.309-.388.679.146,1.067.582.679,1.261-.291.533-.533,1.7.049,1.067s1.164-1.019,1.7-.582.194,1.309.048,1.746.97,1.018.194,1.552-1.648-.388-2.085-.291-.533.678.049,1.066a6.933,6.933,0,0,0,1.115.631,19.872,19.872,0,0,0,3.2-1.552l.776.049c0-1.116-.1-1.746-.437-1.94"/><path class="h" d="M482.689,725.922c-.485-1.067-.631-.243-1.989,1.843a44.1,44.1,0,0,1-4.51,5.285c1.5.291,4.656,1.067,2.765,2.668-2.037,1.7-1.164,1.551-.243,1.454s2.425.437,1.261,2.474-1.94,3.491-3.007,4.17-2.667.582-3.006-.97-1.407,0-1.455,1.019a20.271,20.271,0,0,0-.049,3.394l-2.279-.1a24.443,24.443,0,0,1,.1-3.782c.194-.922.146-1.989-1.261-1.552a2.157,2.157,0,0,1-1.843-.146,23.441,23.441,0,0,0-4.946,5.529,2.765,2.765,0,0,0,2.958.582c1.31-.534,3.492.1,2.182,2.182-1.309,2.037-1.26,3.055.049,1.794s3.443-3.443,4.122-1.164c.436,1.5-.97,1.989-.921,3.2s1.26,2.425-.437,3.88-2.425-1.019-3.54-.679a1.224,1.224,0,0,0-.776,1.406c1.5,2.134,3.686,5.14,4.462,6.4,1.212,1.988,1.212,4.413,1.7,4.025.485-.339,1.649-1.455,1.988-1.746a1.183,1.183,0,0,0,.534-1.309,25.7,25.7,0,0,1-.679-6.692,21.867,21.867,0,0,1,2.521-7.711c.922-1.7,3.734-7.177,4.413-8.632s1.892-3.152,2.183-4.461,1.454-4.413,1.939-5.868a31.853,31.853,0,0,0-2.23-6.5"/><path class="h" d="M508.973,752.691a11.345,11.345,0,0,1-2.086-6.256,31.569,31.569,0,0,1,.243-5.916c-.485-.049-1.067.048-1.116.775a11.769,11.769,0,0,1-.969,3.638c-.34.824-1.552.775-2.28.824s-.727-.437-.242-1.5a3.805,3.805,0,0,0,.533-2.522c-.145-.97-.582-.1-1.018.727s-1.649,2.522-3.007,2.328c-1.406-.194-1.018-2.279-.921-3.007s-.291-.824-.825-.969c-.533-.1-1.648-.34-1.018-2.134.582-1.746,1.261-1.552,2.085-1.261s.97-.243.194-.534-1.648-.969-1.552-1.794c.146-2.231,1.552-2.037,2.668-1.794a3.506,3.506,0,0,0,2.958-1.212c0-.049-.049-.1-.049-.146-1.6-6.11,1.455-13.675,2.28-15.761a90.29,90.29,0,0,1,5.237-9.844c-.582-.291-2.182-1.115-3.055-1.552s-1.358-.679-1.6-.339-.534.533-.97,1.115c-.825,1.212-.1,1.019.1,1.019.242,0,1.26,1.309,1.454,1.648.194.291,0,.534-.436,1.5-.533,1.261-.921,4.17-1.406,5.916-1.455,5.286-3.734,4.752-4.753,4.073s-1.309.34-2.376,1.795a19.431,19.431,0,0,1-1.649,1.794c.97.436,2.328,1.7.728,2.958-1.892,1.455-2.231,2.231-1.31,2.037s1.795-1.552,2.813-.582-.34,2.037-.921,2.376c-.534.291-1.649.825-1.31,1.989.291,1.163.485,2.715-1.018,3.055a1.975,1.975,0,0,1-2.522-1.067c-.436-.776-.824-.243-1.018.727a12.972,12.972,0,0,0-.291,2.037c0,.339-1.067-.194-1.552-.679s-1.067.824-1.649.194c-.533-.679.679-2.716,1.067-3.443.388-.679.242-1.649-2.182-.534a34.771,34.771,0,0,0-2.376,6.111,64.426,64.426,0,0,1-5.577,11.541c-3.249,5.238-3.831,10.136-3.346,13.239.485,3.056.921,2.813,1.551,2.813.679,0,2.28,2.037,3.4,3.3,1.067,1.261,1.5.727,2.037.291A57.087,57.087,0,0,1,492.1,763.7a58.963,58.963,0,0,1,7.662-2.958,21.644,21.644,0,0,1,.436-3.007c.1-.582-.485-.776-1.067,0s-2.23,2.716-3.3,2.231-1.989-1.7-1.407-2.716-.242-1.309-.679-1.843-.436-2.667.922-2.812c1.309-.194,1.746.97,2.667,1.26s1.649.243.485-1.018-2.522-.776-1.794-2.522,1.745-1.648,2.958-1.26c1.212.339,1.794-.291,2.57-.825s2.328-1.261,3.443,0c1.067,1.261-.776,2.425-1.212,2.813-.825.824-.97,2.328-.049,1.455s2.425-4.171,3.492-1.455c.582,1.552-.534,2.182-.34,3.152s1.8,2.279.485,3.492-3.2.194-3.976-.534-1.649-1.067-1.261.243a9.737,9.737,0,0,1,.388,2.618,22.127,22.127,0,0,1,6.11-1.067c1.7.146,3.007.679,2.958-.921-.242-1.649-1.067-2.764-2.618-5.334"/><path class="n" d="M487.587,763.456c-1.455.437-1.7-.242-2.668-.582s-1.018.485-.339,1.5,1.406,1.988.582,1.988c-.776,0-1.406.1-1.5.727s-1.407-.1-1.7-1.406c-.291-1.261-.582-3.685-1.261-2.473s-1.26,3.2-2.958,2.279-.533-2.085-1.406-2.958c-.824-.824-1.649-1.94-.776-3.443.824-1.5,1.552-.243,2.376-.243.776,0,.922-.727.194-1.26s-1.649-3.153,1.7-2.959a5.889,5.889,0,0,0,3.735-1.163c1.066-.776,3.928-.34,2.764,1.648s-.776,2.425-.1,1.7,1.5-2.037,2.764-1.7.727,1.31-.049,2.425a1.433,1.433,0,0,0,.291,2.231c.582.436,1.7,2.715-1.648,3.685"/><path class="n" d="M493.7,749.248a11.519,11.519,0,0,1-2.425-.243c-.1,1.164-1.212,2.764-2.328,4.462-.1.193-.775.193-1.066-.049s-1.164-.679-.485-1.406,1.745-2.231,1.551-2.91-.678-1.261-1.406-.339-1.891,2.764-3.152,2.812-2.522-1.067-1.94-2.231.776-1.745-.048-2.764-.534-2.327,1.261-3.152a2.449,2.449,0,0,1,2.182.534c.679.533,1.018,0,.1-.534A2.989,2.989,0,0,1,484.192,741c-.1-1.163.582-2.327,2.182-1.7a2.828,2.828,0,0,0,3.2-.436c.679-.534,3.491-1.213,3.055,1.261-.291,1.794-1.164,1.842-1.406,2.812s.485.34.921-.339c.437-.728,1.406-3.686,3.4-1.455.485.533.291,1.455-.291,2.473a1.817,1.817,0,0,0,.242,2.182c.388.631,1.213,3.3-1.794,3.444"/><path class="a" d="M543.4,701.335l1.843-1.309,3.977,5.916,2.376-1.649-4.122-5.819,1.794-1.261,4.365,6.11,2.376-1.649-6.5-9.068-10.669,7.565,5.868,8.341,2.376-1.649Z"/><path class="a" d="M551.114,721.9l3.492-1.6-2.376-5.237,8.147-3.395-1.455-3.3L547.38,713.41Z"/><path class="a" d="M553.2,727.425l.388,3.2,7.759-.873.291,3.346,3.443-.242-.921-11.3-3.492.242.291,4.7Z"/><path class="a" d="M553.587,738.433l.049,3.831,11.4-.049-.049-3.831Z"/><path class="a" d="M558.97,747.7a7.407,7.407,0,0,0-5.771,1.164,6.065,6.065,0,0,0-2.473,4.122,9.62,9.62,0,0,0,.388,4.316l3.007-1.019a4.183,4.183,0,0,1-.1-2.812,3.626,3.626,0,0,1,4.316-2.668c2.182.34,3.394,2.328,3.006,4.656a3.41,3.41,0,0,1-1.7,2.424l1.843,2.231a6.936,6.936,0,0,0,2.91-4.025,7.054,7.054,0,0,0-1.116-5.431,5.913,5.913,0,0,0-4.316-2.958"/><path class="a" d="M556.885,763.6c-1.6-.388-3.783,1.358-4.8,2.328-.582.581-2.716,2.715-3.686,2.376-.872-.291-.581-1.6-.29-2.473a5.653,5.653,0,0,1,2.085-3.007L548.3,762a8.094,8.094,0,0,0-2.376,3.249,9.385,9.385,0,0,0-.485,4.17c.243,1.358.728,2.279,2.28,2.134,1.212-.1,4.219-2.085,5.964-3.686.873-.824,1.649-.921,2.037-.727.631.339.582,1.455.388,2.134a6,6,0,0,1-1.455,2.812l2.57,1.746a8.07,8.07,0,0,0,1.892-4.122c.727-3.685-1.213-5.868-2.231-6.11"/><path class="a" d="M542.579,687.951a8.712,8.712,0,0,0-2.182-4.656,6.568,6.568,0,0,0-5.286-1.455,7.277,7.277,0,0,0-4.8,2.959A7.527,7.527,0,0,0,529,690.521a5.877,5.877,0,0,0,2.764,3.928,10.443,10.443,0,0,0,4.073,1.455l.34-3.152a4.27,4.27,0,0,1-2.619-1.067,3.756,3.756,0,0,1-.679-5.044,3.879,3.879,0,0,1,5.529-.824,3.326,3.326,0,0,1,1.261,2.619Z"/><path class="a" d="M426,753.612c.1-.873.048-2.425.97-2.619s1.5.679,1.7,1.6c.291,1.309.63,2.327.1,3.443l2.425-.243a7.691,7.691,0,0,0,0-3.928,5.784,5.784,0,0,0-1.892-3.491,3.4,3.4,0,0,0-3.394-.873c-.922.194-2.619,1.891-2.667,5.237,0,.631-.146,1.843-.728,1.891-.727.049-1.261-.824-1.406-1.551a8.235,8.235,0,0,1,.436-3.783h-2.521a11.364,11.364,0,0,0-.194,4.946c.679,3.3,2.667,4.365,4.267,4.171,1.746-.243,2.667-2.037,2.91-4.8"/><path class="a" d="M420.907,739.791l9.02-.1-.048-2.813-9.02.1v-3.831l-2.91.048.145,10.717,2.861-.049Z"/><path class="a" d="M437.152,711.567l-6.935-4.025h.048l9.165-.145L441.614,704l-11.3-6.547-1.746,2.667,7.759,4.849-10.572.291-1.455,2.861,11.154,6.45Z"/><path class="a" d="M425.9,728.734a6.983,6.983,0,1,0-6.983-6.983,6.984,6.984,0,0,0,6.983,6.983m0-10.571a3.637,3.637,0,1,1-3.637,3.637,3.632,3.632,0,0,1,3.637-3.637"/><path class="a" d="M437.395,767.578a6.983,6.983,0,1,0-6.983,6.984,6.985,6.985,0,0,0,6.983-6.984m-6.983,3.637a3.637,3.637,0,1,1,3.637-3.637,3.663,3.663,0,0,1-3.637,3.637"/><path class="a" d="M438.8,775.531a3.9,3.9,0,0,0-.582,4.7c-1.115-.533-3.3-.727-4.316.146-2.521,2.182.534,5.334,3.007,7.807l3.492,3.444,9.262-7.663L445.93,779.6c-1.358-1.6-4.995-5.965-7.129-4.074m.388,12.173c-.921-1.116-3.685-3.25-2.473-4.365,1.115-1.067,3.88,2.279,4.219,2.716Zm4.316-3.88-.242-.291c-.776-.921-3.346-3.686-2.279-4.655.969-.922,3.443,2.23,4.122,3.055l.291.339Z"/></g><rect class="o" width="200" height="200"/></svg>