<svg xmlns="http://www.w3.org/2000/svg" width="200" height="200" viewBox="0 0 200 200"><defs><style>.a{fill:#a0a1a2;}.b{fill:#0d2240;}.c{fill:#276092;}.d{fill:#77bc1f;}.e{fill:#fff;}.f{fill:none;mix-blend-mode:multiply;isolation:isolate;}</style></defs><g transform="translate(-1635.402 -1259.047)"><path class="a" d="M1810.464,1335.383h0l-.784-2.351a78.823,78.823,0,0,0-74.435-52.985h0a78.85,78.85,0,1,0,75.218,55.336" transform="translate(0)"/><g transform="translate(1659.166 1282.811)"><path class="b" d="M1735.246,1434.967a76.078,76.078,0,1,1,71.865-101.012l.342,1.028h0a76.088,76.088,0,0,1-72.207,99.984" transform="translate(-1659.166 -1282.811)"/><g transform="translate(4.73 5.14)"><g transform="translate(19.568 21.849)"><g transform="translate(1.109)"><path class="c" d="M1742.287,1324.322c-.436-.049-.873-.049-1.406-.1a46.307,46.307,0,0,1-12.366-2.328,25.157,25.157,0,0,0-2.619,3.492c1.358,1.406,3.928,4.073,5.189,5.528,2.182,1.309,4.413,2.764,6.6,4.316,3.492-3.928,6.6-7.129,9.651-10.329-1.5-.194-3.007-.388-4.607-.534Z" transform="translate(-1683.765 -1308.267)"/><path class="c" d="M1709.6,1337.27a56.812,56.812,0,0,0-10.329,31.57c6.207-6.838,11.3-13.142,14.791-16.488a27.24,27.24,0,0,1,7.08-4.995c-2.328-5.335-5.383-9.7-9.505-11.736a18.736,18.736,0,0,0-2.037,1.649" transform="translate(-1684.573 -1308.267)"/><path class="c" d="M1726.09,1317.436c3.443-1.407,7.177-2.861,10.814-4.025a63.241,63.241,0,0,1,11.785-3.055c-.1,0-.146-.049-.243-.1a47.765,47.765,0,0,0-6.741-1.455,49.666,49.666,0,0,0-18.185.679,8.27,8.27,0,0,0-.048,5.14,6.287,6.287,0,0,0,2.618,2.813" transform="translate(-1683.778 -1308.267)"/><path class="c" d="M1718.913,1331.451c-1.358.63-2.861,1.406-4.316,2.23,4.074,2.667,7.08,7.177,9.359,12.463a20.055,20.055,0,0,1,5.48-1.164c2.183-2.764,4.171-5.188,6.062-7.371-2.182-1.5-4.364-2.958-6.547-4.219a63.822,63.822,0,0,0-10.038-1.939" transform="translate(-1683.99 -1308.267)"/><path class="c" d="M1731.231,1319.424a41.418,41.418,0,0,0,9.844,1.6c.582.049,1.067.1,1.5.1l.34.049c1.552.145,3.782.388,6.352.824a11.728,11.728,0,0,1,5.82-4.17,5.539,5.539,0,0,1,3.443,3.3,10.429,10.429,0,0,1,5.383,5.189,42.269,42.269,0,0,1,16.391,12.027,49.54,49.54,0,0,0-24.781-25.46v.049c-.145,0-10.62-.243-23.616,6.062a7.955,7.955,0,0,0-.679.436" transform="translate(-1683.041 -1308.267)"/><path class="c" d="M1784.186,1354c-1.26-5.916-5.479-16.827-18.912-23.713,1.5,6.789-.194,14.5-.194,14.5a10.6,10.6,0,0,1,4.607,6.208,2.053,2.053,0,0,1,.872.824c1.019,1.261,2.328,4.171.243,9.893,0,0-1.261-2.667-3.928.194-.243.339-.437.63-.679.97,5.043,6.935,8.923,14.209,10.863,21.289a49.7,49.7,0,0,0,7.128-30.164" transform="translate(-1683.041 -1308.267)"/><path class="c" d="M1695.975,1372.38a63.771,63.771,0,0,1,2.861-20.659,58.7,58.7,0,0,1,6.644-14.112c.388-.776,1.018-1.939,1.794-3.3-9.6-1.019-18.33,9.214-21.677,13.821a49.617,49.617,0,0,0,3.638,30.987c2.327-2.182,4.606-4.461,6.74-6.74" transform="translate(-1684.573 -1308.267)"/><path class="c" d="M1759.212,1384.746c-.1,4.8,2.231,8.438,4.025,14.16a49.715,49.715,0,0,0,11.4-11.154c-1.455-7.128-5.189-14.693-10.378-21.967-3.249,5.285-4.849,10.232-5.043,18.961" transform="translate(-1683.041 -1308.267)"/><path class="c" d="M1716.876,1321.364c1.6-.728,3.589-1.6,5.771-2.522a7.943,7.943,0,0,1-2.134-3.1,10.557,10.557,0,0,1-.485-5.382,50.492,50.492,0,0,0-19.2,10.911h.776c4.7-.243,11.444-.049,15.275.1" transform="translate(-1684.254 -1308.267)"/><path class="c" d="M1708.923,1331.4c.679-1.212,1.358-2.376,1.988-3.443-2.667-1.746-4.316-3.007-8.874-3.4a42.236,42.236,0,0,0-4.558.1,50.127,50.127,0,0,0-9.748,16c5.092-5.334,12.754-10.959,21.192-9.262" transform="translate(-1684.573 -1308.267)"/><path class="d" d="M1724.732,1320.685l-3.443,4.995a28.154,28.154,0,0,1,4.753,4.267c-3.734-.776-7.856-1.455-7.856-1.455l-6.547,3.54,3.055-5.091a48.109,48.109,0,0,0-4.413-3.3c2.619.1,7.565.485,7.565.485Z" transform="translate(-1684.105 -1308.267)"/></g><g transform="translate(0 11.745)"><path class="d" d="M1727.5,1350.606a18.844,18.844,0,0,0-1.019,4.849s-5.674.825-8.438,2.716c.049-.049,5.722-5.722,9.457-7.565" transform="translate(-1683.464 -1320.012)"/><path class="e" d="M1765.807,1350.315a4.269,4.269,0,0,1,1.455-.146,3.992,3.992,0,0,0-.631-1.163,4.947,4.947,0,0,0-1.212-1.067,4.238,4.238,0,0,1,.388,2.376" transform="translate(-1683.464 -1320.012)"/><path class="e" d="M1760.667,1352.934c.727-.485,1.406-.922,1.988-1.261-.1-.243-.291-.631-.534-1.116a5.856,5.856,0,0,0-1.745-1.648,8.616,8.616,0,0,1,.291,4.025" transform="translate(-1683.464 -1320.012)"/><path class="a" d="M1699.709,1391.293c-4.849,1.988-16.245-.728-16.245-.728,11.541-.679,22.841-8.923,22.841-8.923a.048.048,0,0,1-.049.049,30.827,30.827,0,0,1-8.05,8.195,9.6,9.6,0,0,0,1.5,1.407" transform="translate(-1683.464 -1320.012)"/><path class="d" d="M1757.321,1322.382s-2.862-2.231-6.062,1.212c3.443-6.3,5.431-2.667,6.062-1.212" transform="translate(-1683.464 -1320.012)"/><path class="a" d="M1768.523,1352.837s-.291-.194-.34-.243c-1.794-.97-5.043,1.843-7.128,3.007s-5.189,3.637-6.644.242c-1.5-3.394,1.94-8.729,3.152-12.075,2.619-7.42,2.716-11.736,2.182-14.112,2.425,2.764,3.2,8,3.2,8s.921-9.893-3.928-12.463a12.551,12.551,0,0,1-.1,2.57h0c-2.231.388-7.226-.145-8.826-1.018a151.6,151.6,0,0,0-17.749,24c-2.182,4.413-4.316,9.6-4.849,13.821a18.748,18.748,0,0,1-.873-4.461c-2.765,1.067-12.172,5.674-14.209,19.882,0,0,5.965-6.158,12.608-8.583,0,0-4.17,10.96,3.831,30.406,0,0,3.249-11.93,9.99-14.936,4.122,20.367,16.149,20.707,19.64,34.576,0,0,3.686-7.177-.727-19.4a6.6,6.6,0,0,1,2.813,1.94s-.194-3.588-3.54-11.251a32.757,32.757,0,0,1-2.862-9.7c-1.939,1.745-2.473,7.759-2.473,7.759-5.965-16.2,10.96-32.249,14.064-34.625,1.5-1.164,2.424-1.164,3.006-.922.534-1.115.485-1.891-.242-2.424" transform="translate(-1683.464 -1320.012)"/></g></g><path class="a" d="M1780.616,1324.506a56.755,56.755,0,0,0-37.6-22.1,60.425,60.425,0,0,0-7.865-.541,57.071,57.071,0,0,0-50.777,82.823c.64-.541,1.278-1.083,1.967-1.673a54.595,54.595,0,0,1,48.859-78.64,55.127,55.127,0,0,1,7.521.542,54.6,54.6,0,0,1,46.55,61.514,54.773,54.773,0,0,1-23.84,37.942c.148.836.345,1.722.443,2.657a56.912,56.912,0,0,0,14.746-82.528" transform="translate(-1663.896 -1287.951)"/><path class="e" d="M1698.933,1298.038a4.9,4.9,0,1,0,4.9,4.9,4.885,4.885,0,0,0-4.9-4.9m0,7.614a2.667,2.667,0,1,1,2.668-2.668,2.692,2.692,0,0,1-2.668,2.668" transform="translate(-1663.545 -1287.951)"/><path class="e" d="M1687.925,1310.307l-1.164.63c-.436.243-.679.243-.921.049-.291-.243-.243-.63.145-1.018h0a2.219,2.219,0,0,1,1.455-.728h.194l-.145-2.182h-.194a4.261,4.261,0,0,0-3.007,1.552,3.835,3.835,0,0,0-1.018,2.085,2.5,2.5,0,0,0,.921,2.231c1.018.97,2.279,1.018,3.734.194l1.019-.582c.533-.291.872-.437,1.163-.146.34.291.243.728-.242,1.31h0a2.415,2.415,0,0,1-1.94.776h-.194l-.242,2.376h.194a4.9,4.9,0,0,0,3.831-1.746l.048-.049a4.234,4.234,0,0,0,1.213-2.473,2.75,2.75,0,0,0-1.019-2.23c-1.018-.97-2.182-.97-3.831-.049" transform="translate(-1663.896 -1287.687)"/><rect class="e" width="9.553" height="2.134" transform="matrix(1, -0.024, 0.024, 1, 0, 71.83)"/><path class="e" d="M1682.2,1326.65l3.637-5.431-1.794-1.164-2.425,3.589-1.309-.873,2.085-3.1-1.794-1.164-2.085,3.1-1.309-.873,2.425-3.637-1.746-1.164-3.589,5.383Z" transform="translate(-1663.896 -1287.561)"/><path class="e" d="M1713.53,1300.851l-2.764-6.886,2.473-1.018-.824-1.94-6.886,2.813.776,1.94,2.473-1.018,2.764,6.935Z" transform="translate(-1663.417 -1287.951)"/><path class="e" d="M1674.3,1332.13l-6.741,3.1-.1.291,8.923,3.637.776-1.94-4.607-1.891,6.741-3.1.145-.339-8.923-3.637-.824,1.988Z" transform="translate(-1663.896 -1287.388)"/><path class="e" d="M1669.934,1346.435l-5.868,4.51-.048.388,9.5,1.455.339-2.085-4.946-.776,5.868-4.558.048-.339-9.5-1.5-.339,2.134Z" transform="translate(-1663.896 -1287.186)"/><rect class="e" width="9.554" height="2.134" transform="matrix(0.284, -0.959, 0.959, 0.284, 88.171, 11.687)"/><path class="e" d="M1803.487,1372.671l.485-2.085-9.311-2.182-1.406,6.207,2.085.485.97-4.073Z" transform="translate(-1662.364 -1286.868)"/><path class="e" d="M1800.141,1353.564a4.9,4.9,0,1,0,4.9,4.9,4.884,4.884,0,0,0-4.9-4.9m0,7.614a2.667,2.667,0,1,1,2.667-2.668,2.66,2.66,0,0,1-2.667,2.668" transform="translate(-1662.364 -1287.043)"/><path class="e" d="M1780.792,1318.648l4.025,5.092,1.7-1.309-2.716-3.443,1.261-.97,2.328,2.958,1.649-1.358-2.328-2.91,1.261-.97,2.667,3.395,1.649-1.309-4.025-5.092Z" transform="translate(-1662.364 -1287.604)"/><path class="e" d="M1787.387,1388.431l-3.443,5.48,1.794,1.115,2.328-3.637,1.358.824-2.037,3.2,1.843,1.115,1.988-3.152,1.309.824-2.328,3.686,1.794,1.115,3.492-5.48Z" transform="translate(-1662.364 -1286.419)"/><path class="e" d="M1743.888,1298.038l.97-7.371,2.619.339.291-2.085-7.371-.97-.291,2.085,2.619.339-.97,7.371Z" transform="translate(-1663.021 -1287.951)"/><path class="e" d="M1795.534,1382.806l5.189-.242.873-2.182-10.572.436-.1.291,7.323,7.662.873-2.182Z" transform="translate(-1662.364 -1286.688)"/><path class="e" d="M1765.08,1300.22l-1.7-6.4v-.048l-.291-.146-4.461,8.535,1.891,1.018,2.037-3.977.97,3.686.242.1,3.589-1.261-2.085,3.928,1.891.97,4.461-8.535-.242-.145Z" transform="translate(-1662.763 -1287.951)"/><path class="e" d="M1670.273,1372.186l-3.88,5.383-.048.049.048.291,9.456-1.988-.437-2.085-4.364.921,2.182-3.055-.048-.291-3.249-1.891,4.365-.921-.436-2.085-9.456,1.988.1.291Z" transform="translate(-1663.896 -1286.848)"/><path class="e" d="M1799.123,1345.562l4.025-3.346-.1-.339-5.14-1.212,4.122-2.716-.533-2.182-8.535,5.674.1.291,5.722,1.358-4.51,3.782.1.339,10.184,1.164-.533-2.231Z" transform="translate(-1662.364 -1287.272)"/><path class="e" d="M1793.012,1331.5a2.824,2.824,0,0,0,3.346.388c1.795-.873,2.328-2.667,1.358-4.655l-1.6-3.2-8.584,4.219.97,1.94,3.977-1.94-2.716,4.51,1.116,2.279c.048,0,1.988-3.3,2.133-3.54m.388-2.182-.582-1.213,2.377-1.163.582,1.212a1.233,1.233,0,0,1-.534,1.891,1.278,1.278,0,0,1-1.843-.727" transform="translate(-1662.364 -1287.446)"/><path class="e" d="M1779.87,1310.4a2.653,2.653,0,0,0,1.407-.921,2.894,2.894,0,0,0,.679-2.377,3.239,3.239,0,0,0-1.116-1.842l-1.212-1.019-1.6-1.406-1.407,1.6-.97,1.116-.1.1-1.309,1.5-.1.1-1.067,1.212-1.406,1.6,1.6,1.406,1.406,1.212a3.152,3.152,0,0,0,2.086.825,2.894,2.894,0,0,0,2.327-1.019,2.627,2.627,0,0,0,.776-2.085m-1.6-4.558,1.212,1.018c.485.436.582.824.243,1.261-.437.485-.97.194-1.309-.1l-1.116-.97Zm-2.085,5.237-1.407-1.212,1.116-1.31,1.309,1.164c.534.485.679,1.018.34,1.406a.983.983,0,0,1-1.358-.048" transform="translate(-1662.634 -1287.951)"/><path class="e" d="M1778.416,1400.119a6.143,6.143,0,0,1,1.406-1.019,8.018,8.018,0,0,1,2.764-.533v2.182a5.782,5.782,0,0,0-1.794.291,2.184,2.184,0,0,0-1.261,1.309.709.709,0,0,0,.194.728.5.5,0,0,0,.582.1c.194-.049.533-.243.873-.388a6.977,6.977,0,0,1,2.424-.873,2.485,2.485,0,0,1,2.134.727,2.833,2.833,0,0,1,.873,2.182,3.579,3.579,0,0,1-1.94,2.862,7.309,7.309,0,0,1-2.376.776l-.291-2.134a6.507,6.507,0,0,0,1.5-.437c1.116-.533,1.164-1.794.243-1.745a6.489,6.489,0,0,0-1.7.678,11.517,11.517,0,0,1-1.164.534,2.715,2.715,0,0,1-2.764-.582,2.856,2.856,0,0,1-.776-2.861,3.56,3.56,0,0,1,1.067-1.794" transform="translate(-1662.364 -1286.419)"/><path class="e" d="M1722.744,1293.673l2.91,4.268,2.328-.388-5.916-8.777-.291.1-2.667,10.232,2.328-.436Z" transform="translate(-1663.257 -1287.951)"/></g></g></g><rect class="f" width="200" height="200"/></svg>