<svg xmlns="http://www.w3.org/2000/svg" width="200" height="200" viewBox="0 0 200 200"><defs><style>.a{fill:#fff;}.b{fill:#d3bc8d;}.c{fill:none;mix-blend-mode:multiply;isolation:isolate;}</style></defs><g transform="translate(-719.66 -1488.672)"><path d="M874.171,1570.8c-12.483-7.245-24.771-5.569-34.089-1.422a54.847,54.847,0,0,0-2.546-10.35c-1.976-5.847-4.142-11.434-6.05-16.366-2.51-6.476-4.42-12.025-5.468-15.737l-6.792-23.253-7.051,23.268c-1.077,3.7-2.936,9.275-5.432,15.757-1.9,4.935-4.049,10.529-6.013,16.375a55.167,55.167,0,0,0-2.519,10.364c-9.329-4.128-21.622-5.78-34.089,1.493-10.192,5.953-15.649,16.3-14.245,27a23.6,23.6,0,0,0,17.391,19.981l7.034,1.929,1.722-7.078c.247-.961,2.784-9.824,10.774-9.662,5.543.115,10.144,5.008,12.446,8.172a17.549,17.549,0,0,0-.761,7.808l-3.13-4.168-5.659,4.214c-5.1,3.791-12.5,13.163-7.924,24.223,1.994,4.823,6.282,8.108,12.072,9.261a28.328,28.328,0,0,0,11.291-.279,39.153,39.153,0,0,0,9.005,15.475l5.13,5.355,5.113-5.367a39.248,39.248,0,0,0,8.974-15.5,28.383,28.383,0,0,0,11.29.248c5.787-1.162,10.066-4.46,12.051-9.287,4.549-11.072-2.88-20.427-7.981-24.206l-5.67-4.2-3.119,4.174a17.555,17.555,0,0,0-.78-7.81c2.3-3.166,6.884-8.072,12.426-8.2,7.991-.18,10.546,8.677,10.813,9.688l1.735,7.076c-.011-.054,7.017-2,7.017-2a23.584,23.584,0,0,0,17.344-20.025c1.379-10.7-4.1-21.034-14.31-26.96"/><path class="a" d="M816.885,1527.934c-.86,4.049-3.079,9.811-5.648,16.488-1.883,4.889-4.014,10.429-5.942,16.175a41.733,41.733,0,0,0-2.6,13.474,30.516,30.516,0,0,0,.285,3.633c-7.114-4.879-21.132-11.55-36.42-2.625-8.492,4.961-13.053,13.473-11.9,22.222a18.856,18.856,0,0,0,13.895,15.977l2.24.614.556-2.259c.14-.553,3.5-13.58,15.554-13.338,9.7.195,16.038,9.614,17.75,12.509a12.665,12.665,0,0,0-1.491,5.961,13.8,13.8,0,0,0,3.09,8.369c-.885,1.2-2.335,2.668-4.027,2.808-2.414.2-4.856-2.34-6.479-4.507l-1.355-1.805-1.812,1.35c-3.706,2.76-9.809,10.184-6.356,18.534,1.383,3.338,4.343,5.543,8.564,6.381a24.479,24.479,0,0,0,13.783-1.7,35.175,35.175,0,0,0,9.054,18.291l1.642,1.715,1.637-1.718a35.193,35.193,0,0,0,9.012-18.318,24.469,24.469,0,0,0,13.8,1.667c4.213-.848,7.167-3.062,8.539-6.4,3.429-8.356-2.683-15.768-6.4-18.518l-1.813-1.344-1.352,1.811c-1.62,2.167-4.058,4.714-6.472,4.519-1.691-.138-3.144-1.6-4.032-2.795a13.807,13.807,0,0,0,3.068-8.347,12.642,12.642,0,0,0-1.5-5.988c1.706-2.9,8.027-12.337,17.721-12.553,12.049-.269,15.446,12.751,15.584,13.305l.564,2.25,2.239-.613a18.856,18.856,0,0,0,13.856-16.007c1.129-8.752-3.451-17.256-11.953-22.2-15.319-8.9-29.33-2.179-36.428,2.719a31.224,31.224,0,0,0,.269-3.536,41.667,41.667,0,0,0-2.616-13.576c-1.941-5.736-4.084-11.267-5.976-16.148-2.587-6.673-4.817-12.435-5.687-16.483l-2.228-10.382-2.2,10.386"/><path d="M819.268,1662.918a33.1,33.1,0,0,0,8.78-20.585c3.838,3.822,18.755,6.378,22.1-1.762,3.669-8.938-5.648-15.843-5.648-15.843-9.03,12.092-15.089.257-15.089.257,6.876-7.423,1.717-14.116,1.717-14.116.449-1.344,8.076-14.643,20.286-14.915,14.073-.318,17.833,15.023,17.833,15.023,14.758-4.086,17.608-24.636,1.369-34.066-20.607-11.969-38.561,6.265-38.561,6.265,1.67-6.824,2.146-11.925-1.223-21.89-4.567-13.512-10.166-25.585-11.731-32.882-1.55,7.3-7.124,19.391-11.658,32.912-3.343,9.975-2.852,15.075-1.172,21.894,0,0-18-18.19-38.574-6.175-16.219,9.469-13.319,30.009,1.447,34.061,0,0,3.724-15.348,17.8-15.061,12.213.242,19.867,13.523,20.32,14.864,0,0-5.144,6.707,1.751,14.112,0,0-6.034,11.854-15.087-.217,0,0-9.308,6.925-5.616,15.854,3.367,8.133,18.274,5.541,22.1,1.71a33.1,33.1,0,0,0,8.825,20.563"/><path class="b" d="M856.182,1576.269c-16.77.017-30.521,19.041-30.521,19.041.6-3.113,7.766-17.118,1.277-33.857s-7.812-23.482-7.812-23.482l-.031.192v-.187s-1.311,6.745-7.759,23.5.755,30.745,1.356,33.851c0,0-13.8-18.989-30.566-18.967s-30.728,19.081-15.232,30.339c0,0,4.535-14.066,20.163-14.095,11.494-.024,23.01,12.292,23.5,18.4,0,0-5.262,7.422,2.054,13.633,0,0-7.9,16.61-18.863,4.645,0,0-8.427,10.532,2.593,13.082,8.743,2.019,17.355-6.84,17.355-6.84s-.939,13.995,5.537,21.644v-.069l.032.066c6.459-7.663,5.486-21.659,5.486-21.659s8.633,8.841,17.376,6.8c11.012-2.574,2.559-13.088,2.559-13.088-10.928,11.989-18.868-4.6-18.868-4.6,7.3-6.229,2.016-13.638,2.016-13.638.473-6.1,11.956-18.446,23.455-18.449,15.631,0,20.2,14.049,20.2,14.049,15.469-11.293,1.462-30.329-15.3-30.308"/></g><rect class="c" width="200" height="200"/></svg>