<svg xmlns="http://www.w3.org/2000/svg" width="200" height="200" viewBox="0 0 200 200"><defs><style>.a{fill:#cd1141;}.b{fill:none;mix-blend-mode:multiply;isolation:isolate;}</style></defs><g transform="translate(-1032.51 -1889.898)"><path class="a" d="M1129.249,2033.437c.108.133.187.3.257.3.362-.021,1.087-.135,1.087-.135l.727-.311,2.043-.8s5.1-2.43,5.119-2.446.9-.478.9-.478l.463-.2.547-.372.907-.564,1.077-.591,1.386-.906,2.409-1.694,1.178-.928,1.693-1.228,1.543-1.146.726-.535,1.018-.946,1.061-1.053,1.7-1.824,1.986-1.909,2.3-2.646,1.255-1.685.442-.6,1.348-1.667,2.631-3.781.736-1.238,1.772-3.482,1-1.9,1.706-3.455.922-2.1,1-3.22s1.182-4.253,1.824-6.478a.767.767,0,0,0-.06-.715c-.365-.512-.633-1.161-.974-1.737-.178-.3-.434-.6-.6-.854s-.614-.809-.786-1.014a4.112,4.112,0,0,0-.641-.575,18.665,18.665,0,0,0-1.494-1.367,5.1,5.1,0,0,1-.616-.428,21.2,21.2,0,0,0-4.519-2.7c-.682-.295-1.387-.547-2.1-.788a13.8,13.8,0,0,0-1.819-.452.966.966,0,0,0-.768.1c-.223.152-.233.5-.272.835-.094.885-.129,1.863-.2,2.749-.082.924-.147,1.845-.22,2.769-.069.831-.108,1.671-.216,2.5-.129,1.1-.281,2.193-.489,3.28-.386,2.031-.82,4.052-1.242,6.079a8.95,8.95,0,0,1-.417,1.654,12.575,12.575,0,0,0-.81,2.655,37.718,37.718,0,0,1-1.733,5.555,22.545,22.545,0,0,1-1.909,4.35,1.4,1.4,0,0,0-.129.289c-.4.936-.776,1.88-1.2,2.806-.268.6-.653,1.151-.908,1.753a14.256,14.256,0,0,1-1.192,2.152c-.71,1.092-1.454,2.162-2.065,3.314a19.692,19.692,0,0,1-1.448,2.3c-.138.189-.26.386-.389.577-.424.619-.818,1.264-1.282,1.847-.891,1.136-1.814,2.252-2.752,3.348-.591.688-1.24,1.321-1.86,1.979-.563.593-1.125,1.192-1.693,1.787a5.183,5.183,0,0,1-.406.338c-.338.291-.7.559-1.009.875a15.842,15.842,0,0,1-2.356,2.013,12.687,12.687,0,0,0-1.088.779,15.346,15.346,0,0,1-3.086,1.971" transform="translate(26.958 21.351)"/><path class="a" d="M1166.748,1985.349c.035,0,.051-.066.06-.149.022-.177.049-.484.049-.484l.5-4.439.3-4.161.014-4.123-.01-.646-.49-4.675s-.57-4.214-1.008-6.379a2,2,0,0,0-1.261-1.468,4.124,4.124,0,0,0-.657-.277c-.459-.144-.966-.364-1.429-.486-1.052-.262-2.052-.609-3.124-.792-1.26-.216-2.543-.351-3.817-.463-1.045-.1-2.1-.133-3.15-.147-.839-.012-1.341-.027-2.182-.027-.451,0-.928.018-1.13.289s-.058.783.017,1.283c.157,1.022.334,1.532.5,2.545a70.831,70.831,0,0,1,1.157,9.06c.052,1.367.133,2.742.19,4.109.018.39.014.646.021,1.041a1.416,1.416,0,0,0,.17.66c.121.191.312.222.536.291.26.084.512.108.772.169s.748.166,1.081.269c1.217.395,2.512.827,3.691,1.307a26.664,26.664,0,0,1,2.423,1.239,2.207,2.207,0,0,1,.271.179c.466.35.938.7,1.407,1.047a14.356,14.356,0,0,1,3.086,2.711,4.182,4.182,0,0,0,.552.585c.333.293.891,1.346,1.294,1.823a.26.26,0,0,0,.168.111" transform="translate(35.06 14.838)"/><path class="a" d="M1163.779,1950.3c.417-.031.793-.039,1.114-.079.24-.029.464-.038.573-.286s-.091-.515-.143-.632c-.091-.2-.893-1.618-.893-1.618l-.778-1.216-3.292-4.751-.684-.806-.637-.862-1.08-1.19-2.666-2.923-1.143-1.126-4.129-3.82-3.389-2.612-1.216-.646-3.973-2.426-2.78-1.505-.541-.222-2.26-.827-3.361-1.255-.264-.061-1.078-.269-.289-.048-.945-.243-2-.368-.955-.035-1.783-.329-2.134-.137-.745-.092-1.338-.022-2.239.064-2.213.249-1.71.04-1.516.168-1.554.312-1.174.365-1.914.366-.43-.007-1.784.636-1.052.295-.645.389-1.554.426-.75.432-.939.358-2.31.967-2.936,1.144-.966.462-2.057,1.109-1.784,1.172-1.667.862-.606.351-1.828.971-.293.191-2.073,1.627-1.72,1.166-.338.22-1.949,1.537-.711.588a10.3,10.3,0,0,0-1.072,1.023l.735-.218s1.338-.494,1.365-.484.258.017.258.017l1.933-.779h.281l2.113-.837s1.1-.364,1.1-.337,1.126-.417,1.126-.417l1.571-.559,3.8-1.459.345-.017,1.949-.675,1.542-.636.216.163,2.985.07,1.9.147.059.039,3.833.3.039-.028,5.3.276.027.128,1.88,1.613.138,0,1.915,1.849.177-.087,2.637.079.129-.1,6.622.386.039.152,2.95,1.71.128-.021,5.211,2.537.038.277,2.954-1.15,4.331,1.458.734,1.2,1.587.1,1.529,1.727.16.01,1.23,1.4.018.093h.172l3.417.778,1.259,1.94,3.162,1.153s3.388.862,5.123,1.082a26.489,26.489,0,0,0,4.571.037" transform="translate(6.736 0)"/><path class="a" d="M1166.924,1963.349c-.1-.5-.459-1.527-.459-1.527l-.2-.546-.178-.667-.563-1.667-.514-1.46-1.625-3.615-.737-1.776-.927-2.054-1.108-1.82-.26-.522-.74-1.491-.689-1.12-.288-.387-4.731-6.408-.689-.814c-.11-.139-.147-.247-.295-.247-.013,0-.021,0-.035,0a34.2,34.2,0,0,1-2.065,3.061c-.6.667-1.822,1.784-1.822,1.784s-1.028.845-1.2.974-.958.65-.958.65l-1.078.619s-.817.382-.952.43a.838.838,0,0,0-.368.215.4.4,0,0,0-.08.373,2.592,2.592,0,0,0,.14.407c.437.917.834,1.853,1.311,2.745.719,1.325,1.178,2.754,1.772,4.132.2.453.4.918.553,1.385.4,1.221.781,2.446,1.169,3.671.169.544.351,1.085.508,1.63s.281,1.1.427,1.654a.649.649,0,0,0,.708.524c.354,0,.713-.021,1.067-.035,1.269-.034,2.536-.077,3.8-.094.362-.01,2.9.225,2.9.225s.909.092,1.342.166c.966.177,1.922.393,2.884.593a11.657,11.657,0,0,1,2.387.788,8.87,8.87,0,0,0,1.16.39,1.238,1.238,0,0,0,.354.048.3.3,0,0,0,.073-.216" transform="translate(33.061 7)"/><path class="a" d="M1159.774,1941.875a3.518,3.518,0,0,0-.372-.7l-.243-.43-.685-.787-.462-.667-.862-.848s-.189-.166-.289-.239c-1.508-1.23-4.525-3.668-4.531-3.677s-.835-.668-.835-.668l-1.564-1.367-7.843-4.7-6.184-2.933s-3.282-1.286-3.286-1.276-1.191-.428-1.2-.421-4.039-1.39-4.039-1.39l-2.854-.723-2.767-.6-.432-.037-.248.241.11.121s.282.139.413.195c.856.337,1.727.656,2.579,1,.564.219,1.1.524,1.671.692a4.64,4.64,0,0,1,1.127.463c1.317.761,2.625,1.523,3.927,2.3a12.625,12.625,0,0,1,2.17,1.637,8.534,8.534,0,0,0,1.65,1.251,5.281,5.281,0,0,1,.75.606c.133.11.268.225.407.339a21.872,21.872,0,0,1,2.281,1.918c.727.783,1.494,1.529,2.26,2.273a21.357,21.357,0,0,1,2.086,2.218,19.459,19.459,0,0,0,1.628,1.915c1.139,1.126,2.006,2.463,3.042,3.662a5.247,5.247,0,0,1,.316.5,28.423,28.423,0,0,0,2.069,3.118,10.106,10.106,0,0,1,1.446,2.18,9.68,9.68,0,0,0,.855,1.352.812.812,0,0,0,.622.372,1.991,1.991,0,0,0,.444-.142l.553-.222s.733-.328.98-.437a5.217,5.217,0,0,0,.913-.55c.178-.16.914-.667,1.329-1.047s1.258-1.369,1.258-1.369l.6-.81,1.049-1.741a1.38,1.38,0,0,0,.166-.578" transform="translate(23.656 0.208)"/><path class="a" d="M1180.16,1960.813c-.424-1.307-.758-2.542-1.22-3.832-.382-1.047-.677-2.134-1.167-3.152a17.972,17.972,0,0,1-.678-1.905c-.122-.32-.282-.621-.389-.939a35.847,35.847,0,0,0-2.145-4.526c-.039-.083-.077-.16-.15-.293a.785.785,0,0,0-.336-.386c-.193-.112-.358-.039-.709.009-.675.077-1.516.17-1.866.17-.313,0-1.637.1-2.686.184l-.247-.073h-1.282l-3.382-.438c-1.234-.181-4.07-.9-4.07-.9l-2.075-.71-2.559-.879-.2.108-3.98-.316-.128.073-2.239-1.71-.26-.014-1.4-1.259-.051-.251-1.554-.239-.147.066-1.279-.438-.142-.135-2.927.212-2.655-1.078-9.2.486-.147-.094-1.735.129-.182.139-4.529.343-.126-.114-6.46,3.729-.074.277-.3.265-.147-.108-3.242-.3-.178.077-5.742.035-.122-.061-1.635-.052-.5-.291-6.019,4.656-.021.111-2.11,1.664-2.361-1.116-.138.069-.875-.264s-4.334,1.105-4.291,1.135-4.055-.64-4.055-.64l-.282-.23-.767.789-1.619.773-.043.139-3.235,2.468-4.6,3.312-5.169,3.847-2.331,1.695-.116.994-.979,2.271-.424,1.953-.65,3.949-.382,1.706-.142,2.048-.563,4.267-.243,9.336.253.549.168,2.569s.038.447.143.466c0,.005.007,0,.007.005l11.445-11.835,3.756-1.512,3.157-.163,1.905-2.189.183-.411.233.108,5.148-.578.226-.166h1.922l.291.118.615-.82,2.308-1.425,2.472-1.692,6.937.09.049.152,2.719.247,2.121-.42,3.89-3.966.073,0,3.091-2.94,4.641-.594.183-.126.2.2,2.412,1.138.173-.16,2.14-.254.1-.122,2-.334.182-.111,2.182,1.862.121-.143,4.474-.083.376-.281,3.6.173.2.077.555-.139.1-.164,1.432-.646.17.018,1.654-.75.139-.143,1.768-.671.129-.2,4.9-1.877.039-.072.861-.27.191-.191.247.265,1.419.7.438.013,1.594.893.105-.153.488-.227.052.021.795-.372.036-.058,1.141-.271,2.934.761.619-.137.535.355,2.152.323,2.106.816,1.229-.09c.018,0,.4.267.4.267l.307-.181s4.143-.515,6.226-.684c1.352-.108,2.693-.253,4.046-.386.761-.074,1.525-.143,2.287-.234.407-.052.616-.206.468-.681" transform="translate(0 7.378)"/><path class="a" d="M1180.382,1974.506c0-.287-.05-.473-.07-.754-.046-.8-.081-1.6-.123-2.4-.014-.264-.049-.528-.065-.8-.066-1-.087-2-.187-2.988-.129-1.261-.312-2.512-.5-3.758-.146-.972-.333-1.936-.507-2.9-.185-1.012-.351-1.936-.567-2.94-.219-1.021-.437-1.157-1.484-1.035-.087.017-.178.03-.266.048-.386.078-.927.13-1.317.181-2.03.264-3.949.376-5.983.615l-5.833,2.031-8.436-.222-.914-.3,0,.147-2.485,1.836-.347.031-1.966,1.826-.108.251-5.05.677-4.608,3.553-.48-.012-2.457,1.446-.964.11-.965.813-.253-.2-4.7-.317-.816.917.017.149-4.06,4.433-.053.257-.154.034-5.182,5.912-1.419.013-.116.147-4.248.737-.33-.018a1.46,1.46,0,0,1-.107.208c-.021.014-7,3.889-7,3.889l-3.143-.372-.663.237-3.135-.189-3.106,3.355-1.857.378-1.049-.046-1.1.462-.657-.069.034.129-3.862,2.993-.368.073-6.028,4.685.052.282-3.729,9.025.152.38-6.152.557-2.023,1.742-.189.654,2.736,3.8,2.026,3.1,1.746,2.225,2.84,3.093s.018.217.079.228.376.039.389.057,1.7.57,1.716.58,2.092.654,2.092.654.021.1.048.1.208-.031.208-.031l3.479,1.346.262-.011.191.229s.295,0,.312,0,.818.544.818.544l1.454-.8.069,0,.656-.421,5.275,1.333,3.865-1.978,8.594-.854,3.52-5.663c.559-.559,1.56-1.573,1.56-1.573l.133-.014s1.213-1.112,1.234-1.133a.478.478,0,0,0,0-.156l2.214-2.013,1.033-1.084a2.9,2.9,0,0,1,.26-.137c.031,0,1.192-1.234,1.192-1.234l.956-.987.253-.056-.247-.875,1-3.633,1.922-.576.074-.073.576-.131.01-.317,2.58-4.192.243-.1,1.056-2.065,1.759-.993.233-.285.345.046s1.024-.6,1.053-.592h.122l1.9-.835.156-.225,6.312-2.892.379-.041.07-.347.247-.185.649-2.2,2-.858,2.3-.282,2.1-1.452,2.987.126.3.249.142-.188,4.175-1.866-.022-.538,1-1.913,2.048-.545.1-.13,2.812-.593,1.077-1.277.139-.031s.65-.632.668-.646,1.93.265,1.93.265l.1.07,1.053.15.656.075s2.836-1.331,4.022-1.781c.5-.2.991-.32,1.46-.49.654-.233,1.307-.462,1.971-.684.333-.108.653-.194.981-.289l1.322-.243,1.537-.26.934-.056s.456-.056.625-.085a1.08,1.08,0,0,0,.636-.208.713.713,0,0,0,.216-.542,4.541,4.541,0,0,0,.021-.521" transform="translate(2.805 14.944)"/><path class="a" d="M1165.759,1973.662a1.164,1.164,0,0,0-.143-.792.718.718,0,0,0-.563-.219c-.147,0-.875.094-.875.094l-1.22.185c-.141.021-.274.043-.409.077-.731.18-1.463.326-2.182.529a17.838,17.838,0,0,0-2.385.781c-.806.356-1.707.639-2.512,1.026-.289.133-3,1.459-4.236,2.073l-1.581,1.684-.06.365-.209-.092-.993.056-.045.077-3.226,1.07.039.356-.339.329,0,.208-1.506,2.641-.2.014-.039.277s-.308.5-.646,1.071l-6.787,4.355-.149-.011-1.025.859-.72,2.86-.661.637-2.646,9.8.354,1.1-3.922,1.882h-.632l-.748,3.411-.128.118-.967,3.1.055.16-.4,2.673-.142.185.129.243-3.763,5.98-.286.087-.924,1.446-.021.289s-3.212,4.539-3.218,4.525-3.393,2.01-3.393,2.01l.185.289c0,.029-.178,1.367-.178,1.367l.295.508-.489.15-2.447,1.452-.268-.056-3.6,2.13-.425.672a11.585,11.585,0,0,0,1.408.214l2.338.185,1.589.082,1.85.031.856.034,1.394.035,1.391-.035,5.04-.607,3-.528,2.266-.614,2.458-.72,3.127-1.238.23-.138.883-.494a38.094,38.094,0,0,0,3.664-2.2,64.293,64.293,0,0,0,5.7-4.622c.611-.578,1.212-1.161,1.81-1.752.571-.564,1.133-1.134,1.7-1.7a1.114,1.114,0,0,0,.276-.324,3.842,3.842,0,0,1,.9-1.122,5.633,5.633,0,0,0,.662-.767,9.691,9.691,0,0,1,1.46-1.554,9.9,9.9,0,0,0,1.1-1.3c.6-.844,1.153-1.719,1.718-2.579.755-1.152,1.581-2.265,2.225-3.469.693-1.286,1.377-2.581,2.106-3.85a29.837,29.837,0,0,0,1.728-3.322c.785-1.892,1.607-3.771,2.335-5.689a61.849,61.849,0,0,0,1.949-6.224c.42-1.571.661-3.182,1.234-4.706a3.575,3.575,0,0,0,.142-.625c.218-1.28.438-2.563.637-3.848.189-1.219.364-2.436.536-3.652.122-.825.255-1.658.326-2.49.094-1.157.151-2.312.2-3.468,0-.131.016-.376.016-.376l.02-.593" transform="translate(17.363 21.308)"/></g><rect class="b" width="200" height="200"/></svg>