<svg xmlns="http://www.w3.org/2000/svg" width="200" height="200" viewBox="0 0 200 200"><defs><style>.a{fill:#002d62;}.b{fill:#eb6e1f;}.c{fill:#f4911e;}.d{fill:#fff;}.e{fill:#e7e9ea;}.f{fill:none;mix-blend-mode:multiply;isolation:isolate;}</style></defs><g transform="translate(-1317.293 -884.842)"><path class="a" d="M1416.45,1079.138a94.148,94.148,0,1,1,94.143-94.148,94.262,94.262,0,0,1-94.143,94.148"/><path class="a" d="M1462.733,958.005H1493.7a81.828,81.828,0,0,0-75.831-54.8l13.237,40.726h31.631Zm-92.56,74.135V1018.1l11.1-3.991-2.58.911,2.58-.911V991.587l-42.9-31.175a81.895,81.895,0,0,0,28.843,89.933l5.911-18.2Zm0-88.214H1401.8l13.237-40.726a81.829,81.829,0,0,0-75.848,54.8h30.986Zm52.332,77.639-6.054-4.415-6.067,4.415v10.577h-14.559l-26.829,19.5a81.777,81.777,0,0,0,94.907,0l-26.841-19.5H1422.5v-10.576Zm72.02-61.129-42.884,31.15v22.521l11.093,3.99v14.044h-2.975l5.917,18.2a81.925,81.925,0,0,0,28.848-89.909"/><path class="b" d="M1416.45,897.213a87.777,87.777,0,1,0,87.777,87.778,87.754,87.754,0,0,0-87.777-87.778m49.226,153.132-5.918-18.2h-22.694l26.84,19.489a81.712,81.712,0,0,1-94.9,0l26.823-19.491h-14.11l-15.589,21.583,1.092-3.379a81.869,81.869,0,0,1-28.844-89.933l42.9,31.174v-5.4l-32.765-23.817-13.479-4.365h4.16a81.822,81.822,0,0,1,75.834-54.8l1.427-4.365v80.2H1433.6V961.968l-11.1-3.965V943.926h8.591L1417.865,903.2a81.82,81.82,0,0,1,75.831,54.8h4.184l-13.481,4.378h-32.758v29.2l42.884-31.15a81.922,81.922,0,0,1-28.85,89.909"/><path class="b" d="M1433.6,1014.107V997.062h-26.531l-7.774,10.749v6.3l11.085,3.979v3.479l6.061-4.415,6.065,4.415v-3.478"/><path class="c" d="M1451.647,961.97v.413h32.746l13.48-4.378h-35.14m-52.349-14.079v14.08l-11.085,3.962v17.047h17.145v-80.18l-1.409,4.365L1401.8,943.926m-2.5,63.885,7.768-10.749H1399.3m-20.6,17.967,2.58-.922-2.58.923Zm-11.478,35.316-1.091,3.38,15.6-21.584h-8.6m-2.958-74.136h-35.145l13.479,4.365,32.772,23.817V961.97"/><path class="d" d="M1370.173,1018.086v14.054l3.561-3.58h33.071v-7.968l3.58-2.505-11.085-3.979-3.587,2.519V993.484h41.47l-3.58,3.579v17.045l-11.1,3.98v14.053l3.584-3.579h33.065v-7.968l3.58-2.506-11.093-3.979-3.6,2.52V959.453l11.111-3.98v-7.955l3.58-3.592h-40.229V958l3.584-2.531,11.093,3.978-3.58,2.517v17.047h-34.3l-3.587,3.591V959.453l11.092-3.98v-7.955l3.58-3.592h-40.211V958l3.561-2.531,11.117,3.978-3.572,2.517V1014.1"/><path class="e" d="M1462.733,958.005V943.926l-3.585,3.592v7.955l-11.1,3.979v57.172l3.6-2.518V961.971m11.086,56.115-3.585,2.507v7.967h-33.059l-3.59,3.58h40.235M1399.3,997.062h34.3l3.573-3.58h-41.462v23.145l3.587-2.531v-6.285m11.085,13.754v-3.479l-3.571,2.507v7.967h-33.074l-3.566,3.58h40.211m-25.533-72.687-11.117-3.98-3.56,2.531,11.1,3.979m44.815-6.51L1422.505,958l11.1,3.979,3.579-2.532m-26.8-1.446V943.926l-3.571,3.592v7.955l-11.108,3.98v23.155l3.593-3.591V961.97"/><path class="a" d="M1490.217,1062.054h-1.951v5.289h-1.311v-5.289h-1.95v-1.146h5.212v1.147Zm8.809,5.289h-1.314v-5.127h-.038l-1.865,5.127h-1.265l-1.808-5.127h-.026v5.127h-1.322v-6.436h2.276l1.509,4.2h.018l1.566-4.2h2.269v6.435Z"/></g><rect class="f" width="200" height="200"/></svg>