<svg xmlns="http://www.w3.org/2000/svg" width="200" height="200" viewBox="0 0 200 200"><defs><style>.a,.c{fill:#e81828;}.b{fill:#fff;}.b,.c{fill-rule:evenodd;}.d{fill:none;mix-blend-mode:multiply;isolation:isolate;}</style></defs><g transform="translate(-734.652 -1508.17)"><path class="a" d="M859.568,1692.471H856.86v7.384h-1.84v-7.384h-2.705v-1.609h7.253Zm12.318,7.384h-1.839v-7.161h-.041l-2.612,7.16h-1.773l-2.519-7.16h-.049v7.16h-1.827v-8.992H864.4l2.094,5.88h.049l2.176-5.88h3.165v8.992Z"/><path class="b" d="M909.261,1555.706c-1.295-19.643-17.95-34.552-33.539-40.386-5.03-1.585-10.212-3.219-15.242-4.284-16.565-3.586-34.7-1.621-49.632,2.652-20.5,5.81-40.286,21.854-48.479,42.764-3.249,8.567-4.029,20.127.142,29.4,5,10.722,16.11,14.7,25.7,14.7,10.621,0,17.714-7.857,21.755-14.968v42.266l-.225,28.648c-1.65,2.072-3.633,4.178-5.248,6.39-3.7,5.692-8.7,13.465-9.016,22.873,0,2.781.158,7.562,2.679,11.536,3.42,6.131,10.011,8.758,14.874,9.669a35.846,35.846,0,0,0,17.294-1.822c11.254-4.261,21.312-14.934,23.216-27.725l.082-.45.238-54.5c4.23-1.668,8.507-3.336,12.725-5.194a111.365,111.365,0,0,0,16.01-8.531,54.264,54.264,0,0,0,26.665-53.033Zm-37.617,13.81c-1.165,5.844-7.253,11.572-14.151,13.926a27.056,27.056,0,0,1-3.586.995l.2-36.3c7.123-.118,12.625,2,15.258,6.2l1.615,3.845a47.983,47.983,0,0,1,.993,6.013A15.359,15.359,0,0,1,871.644,1569.516Z"/><path class="c" d="M904.576,1556.049c-1.072-17.489-16.488-31.073-30.352-36.267l-.089-.036c-4.254-1.349-9.555-3.054-14.649-4.117-18.985-4.118-37.825-.153-47.361,2.568-20.31,5.763-38.131,21.441-45.391,39.947-3.212,8.448-3.194,18.541.04,25.761,3.5,7.49,11.515,11.975,21.436,11.975,8.005,0,15.354-6.2,19.66-16.6.065-.153.492-1.527.492-1.527a22.769,22.769,0,0,0,1.414-7.028v-1.763h-1.757a11.865,11.865,0,0,1-3.644-.875l-.871-.3a2.94,2.94,0,0,1-.838-1.881c.921-5.349,5.329-10.662,11.991-14.627v76.63s-.248,28.967-.254,30.138c-.492.639-2.775,3.455-2.775,3.455l-3.237,4.023c-3.568,5.444-7.928,12.153-8.224,20.293v.012c0,2.854.242,6.367,2.064,9.135,1.934,3.622,6.172,6.354,11.574,7.385a30.7,30.7,0,0,0,14.891-1.609c10.543-3.988,18.649-13.632,20.21-24.01.03-.248.244-52.311.266-57.223.089-.153.107-.166.2-.343.568-.214,1.378-.532,1.378-.532,9.927-3.847,20.181-7.845,29.4-13.9a49.587,49.587,0,0,0,24.707-43.19,53.38,53.38,0,0,0-.289-5.49Zm-28.346,14.485c-1.7,8.507-9.84,14.815-17.182,17.335a49.344,49.344,0,0,1-9.875,2.072c.031-3.751.26-46.209.26-46.242.326,0,2.929-.191,2.929-.191,5.829-.342,16.325.367,21.216,8.757.131.3,1.965,4.663,1.965,4.663a46.611,46.611,0,0,1,1.225,9.075A17.912,17.912,0,0,1,876.23,1570.534Z"/></g><rect class="d" width="200" height="200"/></svg>