<svg xmlns="http://www.w3.org/2000/svg" width="145" height="145" viewBox="0 0 145 145"><defs><style>.a{fill:#b1babf;}.a,.b,.c,.d,.e,.f,.g{fill-rule:evenodd;}.c{fill:#a71930;}.d{fill:#fff;}.e{fill:#0a0b09;}.f{fill:#c2242b;}.g{fill:#dc4405;}.h{fill:none;mix-blend-mode:multiply;isolation:isolate;}</style></defs><g transform="translate(6.525 13.776)"><path class="a" d="M1755.368,1905.1c-2.992,4.525-5.837,8.7-8.151,12.043a6.73,6.73,0,0,1,2.518,5.535,8.959,8.959,0,0,1-3.078,6.476,10.623,10.623,0,0,1-6.853,2.3,21.136,21.136,0,0,1-2.571-.2,3.649,3.649,0,0,1-1.665,1.241,3.563,3.563,0,0,1-.4.8,3.705,3.705,0,0,1-3.08,1.656,4.385,4.385,0,0,1-2.053-.614,3.7,3.7,0,0,1-1.667-3.086v-.033a3.66,3.66,0,0,1,.418-1.68c-.125-.3-.562-2.063-.562-2.063l1.142-1.007a3.733,3.733,0,0,0,.692-1.569,33.874,33.874,0,0,1,1.58-4.476,53.634,53.634,0,0,1,3.645-6.422,1.313,1.313,0,0,0-1.072-.879,2.909,2.909,0,0,1-1.458-.9,2.609,2.609,0,0,1-.625-2.3,2.78,2.78,0,0,1,1.523-2.006v0a3.1,3.1,0,0,1,1.807-.22,6.939,6.939,0,0,1,4.14,2.429c2.369-3.306,7.882-11.505,8-11.684a61.439,61.439,0,0,1-20.889.54c-11.274-1.87-19.946-7.873-25.548-10.608a41.9,41.9,0,0,0-27.285-2.734c-11.007,2.8-18.276,12.942-18.276,12.942,3.287-23.159,17.633-27.062,19.009-27.453,2.09-1.957,4.831-7.928-1.661-11.957a29.765,29.765,0,0,1-4.08-3.119,17.345,17.345,0,0,0,6.319-.961,20.326,20.326,0,0,1,4.079-1.119,12.45,12.45,0,0,0-4.24-2.4,30.389,30.389,0,0,0,9.04-2.16c2.478-1.119,3.838-3.119,3.436-4s-2.638-.4-2.638-.4a5.282,5.282,0,0,1,2.72-1.681,15.772,15.772,0,0,0-9.538,2.685,24.285,24.285,0,0,1,2.63-3.684c-.765.252-2.885.915-3.019.956,8.64-6.672,18.284-12.538,31.8-12.624s26.671,5.966,35.441,8.773,13.43,4.223,22.906,2.822a31.648,31.648,0,0,0,11.417-4.275,40,40,0,0,0,2.191-12.608,24.879,24.879,0,0,1,2.451,11.188c.024,23.382-11.305,40.458-14.927,46.674C1765.479,1889.347,1760.929,1896.67,1755.368,1905.1Zm24.914-85.862a48.411,48.411,0,0,1-.755,10.767c-1.026,4.973-1.591,6.868-1.591,6.868a31.493,31.493,0,0,1-10.825,3.693c-9.59,1.6-18.292-.976-27.792-4.707s-22.217-7.746-34.014-6.391a52.638,52.638,0,0,0-23.972,8.968c-4.351,3.018-5.152,3.816-8.881,4.884a17.521,17.521,0,0,0,4.44,1.153s-.711,2.934-.445,3.908c0,0,6.216-2.842,6.927-1.508s-2.22,2.222-4.261,2.752-7.373.442-7.373.442a19.886,19.886,0,0,1,3.383,3.28,20.828,20.828,0,0,1-9.954,1.341s-.174,1.941,4.134,5.119a7.366,7.366,0,0,0-2.8,1.628s4.514-.931,7.351,2.229a3.713,3.713,0,0,1,.906,2.834c-.154,1.919-.89,2.651-2.7,3.846a22.249,22.249,0,0,0-3.2,1.6,30.379,30.379,0,0,0-11.2,13.069,41.709,41.709,0,0,0-2.625,7.429,41.1,41.1,0,0,0-1,5.98c-.146,1.354-.347,5.624-.347,5.624s2.24-3.137,3.29-4.641,7.668-9.826,17.314-12.239a36.917,36.917,0,0,1,9.1-1.113,40.7,40.7,0,0,1,17.1,3.737c5.418,2.622,14.318,8.811,25.988,10.745a54.055,54.055,0,0,0,8.777.679,67.3,67.3,0,0,0,9.039-.629q-2.581,3.85-4.94,7.19a6.725,6.725,0,0,0-3.749-1.672,4.607,4.607,0,0,0-3.927,1.346,4.318,4.318,0,0,0-1.08,2.193,4.635,4.635,0,0,0,.188,2.236,4.269,4.269,0,0,0,2.38,2.539,29.642,29.642,0,0,0-4.935,10.963l-1.745,1.539.629,2.552a5.154,5.154,0,0,0,2.533,6.448,5.73,5.73,0,0,0,3.884.416,5.289,5.289,0,0,0,2.977-2.167,4.9,4.9,0,0,0,.3-.5,5.522,5.522,0,0,0,1.056-.733c.551.062,1.962.106,1.962.106a12.211,12.211,0,0,0,7.88-2.677,10.558,10.558,0,0,0,3.634-7.654,7.793,7.793,0,0,0-2.093-5.683c13.977-20.521,23.05-33.731,28.843-47.173,15.347-35.629,2.255-50.484,2.2-50.611Z" transform="translate(-1653.688 -1819.236)"/><path class="b" d="M1734.942,1925.834l-.008.019,0,.007.009-.016A.074.074,0,0,1,1734.942,1925.834Zm27.915-32.122c-6.151,2.866-20.345,7.619-34.479,4.981a55.475,55.475,0,0,1-19.953-7.644c-5.616-3.4-11.68-6.652-25.816-6.59a34.572,34.572,0,0,0-21.625,7.337c6.354-20.732,25.138-17.7,25.138-17.7a14.661,14.661,0,0,0-7.543-1.016c5.884-9.258-3.6-13.593-3.6-13.593a39.278,39.278,0,0,0,6.235-1.681,34.943,34.943,0,0,1,5.217-1.08c-1.178-1.084-4.818-1.958-4.818-1.958a12.291,12.291,0,0,0,8.719-3.922c.754-.785,2.82-4.713.477-6.235-2.155-1.4-6.43.155-6.433.157s12.8-13.789,39.2-7.9c12.525,2.8,26.641,10.131,39.676,10.209,4.381.028,14.046-1.395,19.815-7.2C1782.763,1850.91,1780.709,1866.359,1762.857,1893.712Zm-16.617,24.271-.055-.04c-.334-.3-.765-.671-1.243-1.07.779-1.11,9.7-14.38,12.32-18.5.915-.324,1.8-.676,2.685-1.046C1758.177,1900.131,1748.523,1914.681,1746.24,1917.984Zm-.467,11.618a8.3,8.3,0,0,1-5.417,1.688,9.291,9.291,0,0,1-4.482-1.01.139.139,0,0,0-.01.041c-.1.082-.288.524-1.7.733a3.238,3.238,0,0,1-1.55-.055,2.432,2.432,0,0,0,3.164.622,2.632,2.632,0,0,0,.175.5s-.5.734-2.02.48a2.545,2.545,0,0,1-.5-.138c.029.018.057.028.087.047a1.278,1.278,0,1,1-.342-.155,2.827,2.827,0,0,1-1.434-1.693c1.459-1.292,1.411-3.632,2.9-6.884.068-.149.143-.3.217-.454a.038.038,0,0,1-.006.017,7.473,7.473,0,0,0-.5,3.211,4.627,4.627,0,0,0,.122.616v0c.022.089.521,2.112,1.887,1.783-.014.03-.212.474-.215.481a8.28,8.28,0,0,0,4.294,1.051,5.548,5.548,0,0,0,5.551-3.711c.386-1.246-.211-2.631-1.443-3.844a1.8,1.8,0,0,0,.339-1.8c.111.372-.586,1.034-1.323.969a1.1,1.1,0,0,1-.2-.035c-1.11-.31-2.375-1.662-3.447-2.462a3.554,3.554,0,0,1-1.357-2.921,3.627,3.627,0,0,0-1.122-2.712,3.433,3.433,0,0,0-1.829-.928c-.241-.065-.31-.214-.285-.375.05-.262.389-.214.389-.214a6.663,6.663,0,0,1,3.852,3.016c.3.543,3.517,3.053,4.761,4.153.581.423,3.1,2.353,3.547,4.331A6.163,6.163,0,0,1,1745.773,1929.6Zm-3.627-5.369a2.734,2.734,0,0,1,1.241,1.148,1.03,1.03,0,0,1,.1.454,2.381,2.381,0,0,1-1.409,1.87,4.828,4.828,0,0,1-1.781.3c-.2,0-.4-.008-.592-.027.18-.3.4-.667.638-1.061C1740.89,1926.03,1741.563,1924.995,1742.146,1924.233Zm-5.668-3.906c.538-.913,1.1-1.808,1.675-2.7.028-.04.054-.082.082-.123a5.65,5.65,0,0,0,.252,2.215,3.945,3.945,0,0,0,1.01,1.428c.445.41.817.738,1.126,1-1.5,1.942-3.635,5.577-3.635,5.577-.912.054-1.368-.247-1.884-1.347a2.717,2.717,0,0,1-.174-.512v0a7.83,7.83,0,0,1-.019-2.63C1734.951,1923.154,1735.963,1921.2,1736.478,1920.327Zm15.025-20.252c1.248-.3,2.484-.635,3.7-1.015.036-.011.071-.021.106-.036-1.24,1.881-11.006,15.855-11.68,16.762-.054-.044-1.732-1.48-1.791-1.532C1744.323,1910.8,1751.362,1900.29,1751.5,1900.075Zm30.64-72.378a40.037,40.037,0,0,1-2.191,12.608,31.639,31.639,0,0,1-11.417,4.275c-9.476,1.4-14.131-.016-22.907-2.822s-21.931-8.863-35.441-8.773-23.156,5.952-31.8,12.624c.133-.041,2.253-.7,3.019-.956a24.281,24.281,0,0,0-2.631,3.685,15.767,15.767,0,0,1,9.539-2.685,5.279,5.279,0,0,0-2.72,1.681s2.239-.484,2.638.4-.958,2.88-3.436,4a30.382,30.382,0,0,1-9.04,2.161,12.443,12.443,0,0,1,4.24,2.4,20.313,20.313,0,0,0-4.079,1.119,17.352,17.352,0,0,1-6.319.96,29.743,29.743,0,0,0,4.08,3.119c6.492,4.028,3.752,10,1.661,11.957-1.376.39-15.722,4.294-19.009,27.453,0,0,7.269-10.141,18.276-12.942a41.9,41.9,0,0,1,27.285,2.734c5.6,2.735,14.274,8.738,25.547,10.608a61.442,61.442,0,0,0,20.89-.541c-.117.18-5.63,8.379-8,11.685a6.938,6.938,0,0,0-4.14-2.429,3.1,3.1,0,0,0-1.807.22v0a2.781,2.781,0,0,0-1.523,2.006,2.611,2.611,0,0,0,.625,2.3,2.908,2.908,0,0,0,1.458.9,1.317,1.317,0,0,1,1.072.879,53.5,53.5,0,0,0-3.646,6.422,33.8,33.8,0,0,0-1.58,4.477,3.74,3.74,0,0,1-.692,1.569l-1.143,1.007s.437,1.766.562,2.063a3.658,3.658,0,0,0-.418,1.68v.034a3.7,3.7,0,0,0,1.666,3.086,4.393,4.393,0,0,0,2.053.613,3.708,3.708,0,0,0,3.081-1.656,3.6,3.6,0,0,0,.4-.8,3.658,3.658,0,0,0,1.664-1.24,21.19,21.19,0,0,0,2.57.2,10.62,10.62,0,0,0,6.854-2.3,8.959,8.959,0,0,0,3.078-6.476,6.729,6.729,0,0,0-2.519-5.535c2.315-3.347,5.16-7.518,8.152-12.043,5.561-8.428,10.11-15.752,13.571-21.866,3.621-6.216,14.951-23.292,14.926-46.673A24.872,24.872,0,0,0,1782.143,1827.7Zm-47.209,98.156,0,.007.009-.016a.074.074,0,0,1,0-.01l-.008.019Z" transform="translate(-1654.416 -1821.563)"/><path class="c" d="M1755.327,1881.6c-6.319,4.47-16.213,5.835-16.213,5.835-.111.429-.766.88-.766.88a17.178,17.178,0,0,1,3.5,2.244c2.484,1.87,1.81,1.778,2.6,2.313s1.243.383,1.243.383a3.544,3.544,0,0,1,.269,1.194c.331.312,1.952,1.86.445,3.461a2.347,2.347,0,0,1-3.251.113,2.582,2.582,0,0,1-1.216-.074,6.078,6.078,0,0,1-6.428-.181c-2.606-1.8-2.448-3.927-2.3-4.663a14.061,14.061,0,0,1-2.794,1.2,15.177,15.177,0,0,1-9.264.056,14.121,14.121,0,0,1-5.4-3.412,16.406,16.406,0,0,1-3.165-4.373c-.1-.214-.2-.426-.288-.633-.228.543-1.319,2.6-4.7,2.457a6.084,6.084,0,0,1-5.238-3.733,2.6,2.6,0,0,1-1.013-.673,2.347,2.347,0,0,1-2.524-2.051c-.236-2.188,1.993-2.444,2.446-2.492a3.47,3.47,0,0,1,.931-.792s.271.393,1.224.445.361-.283,3.472-.274a16.958,16.958,0,0,1,4.142.319,2.187,2.187,0,0,1-.078-1.164s-7.066-7.057-9.408-14.435-1.626-10.114,1.219-17.893c0,0,2.109,13.254,8.582,21.582a65.891,65.891,0,0,0,10.741,10.765l.2,0a5.7,5.7,0,0,1-1.32-2.416c-.578-2.28-1.525-4.4-1.96-6.088s.533-5.07.533-5.07c-1.3-2.079-.666-5.5-.666-5.5a4.079,4.079,0,0,0,1.238-.982c.532-.652.347-2.574.781-5.4s2.275-5.754,6.352-7.418c4.055-1.656,10.145.515,10.2.535s6.224,1.957,8.46,5.724c2.247,3.786,1.949,7.234.589,9.75s-2.669,3.938-2.634,4.781a4.025,4.025,0,0,0,.394,1.528s-1.558,3.113-3.851,3.992c0,0-1.267,3.276-2.636,4.362s-3.4,2.2-5.236,3.676a5.683,5.683,0,0,1-2.446,1.12l.176.131a65.751,65.751,0,0,0,15-2.1c10.188-2.742,19.864-12.041,19.864-12.041C1762.724,1874.51,1761.644,1877.126,1755.327,1881.6Zm9.69-31.6c-13.034-.078-27.151-7.413-39.676-10.209-26.4-5.89-39.192,7.894-39.2,7.9s4.278-1.558,6.433-.157c2.343,1.522.277,5.45-.477,6.235a12.293,12.293,0,0,1-8.719,3.921s3.64.874,4.819,1.957a34.981,34.981,0,0,0-5.218,1.08,39.28,39.28,0,0,1-6.235,1.681s9.481,4.335,3.6,13.593a14.651,14.651,0,0,1,7.543,1.016s-18.783-3.032-25.138,17.7a34.572,34.572,0,0,1,21.625-7.337c14.136-.062,20.2,3.19,25.817,6.591a55.451,55.451,0,0,0,19.953,7.643c14.133,2.639,28.327-2.114,34.477-4.981,17.853-27.353,19.908-42.8,20.212-53.834-5.769,5.807-15.434,7.229-19.815,7.2Z" transform="translate(-1656.18 -1824.487)"/><path class="d" d="M1751.658,1929.3a.034.034,0,0,1-.005.016,7.456,7.456,0,0,0-.505,3.212,4.6,4.6,0,0,0,.122.616v0c-.763,3.5-2.239,3.561-2.631,3.509a.574.574,0,0,1-.1-.019c1.458-1.292,1.412-3.632,2.9-6.884C1751.509,1929.608,1751.585,1929.457,1751.658,1929.3Zm3.368-5.819a5.724,5.724,0,0,0,.253,2.215,34.627,34.627,0,0,0-3.555,6.143c.027-.07.012-.036,0-.011l0,.007a7.8,7.8,0,0,1-.019-2.63c.038-.076,1.049-2.031,1.566-2.906.537-.911,1.1-1.807,1.675-2.7ZM1772.1,1905c-1.241,1.881-11.008,15.853-11.68,16.76-.055-.044-1.732-1.479-1.792-1.531,2.49-3.458,9.527-13.964,9.669-14.178,1.249-.3,2.484-.635,3.7-1.015C1772.026,1905.028,1772.062,1905.018,1772.1,1905Zm-16.173-10.175s.547.439.592.473c.209.157.653.569.859.771.169.167.337.334.506.5.122.124.631.6.8.732a2.5,2.5,0,0,0,.4.251,1.927,1.927,0,0,0,.394.144h0l-.013.009a1.522,1.522,0,0,1-1.349.3,2.189,2.189,0,0,1-.48-.18c-.1-.05-.191-.1-.281-.165-.055-.038-.111-.079-.169-.121l0-.007a1.438,1.438,0,0,0,.034-.24,2.346,2.346,0,0,0-.166-.979A7,7,0,0,0,1755.924,1894.829Zm-3.284-2.042.135.075c.221.124.442.248.662.373.462.268.919.544,1.367.833.321.207.639.418.949.64l.118.087a3.859,3.859,0,0,1,.755,1.173,2.3,2.3,0,0,1,.119,1.205,25.467,25.467,0,0,0-3.634-2.769A2.514,2.514,0,0,0,1752.64,1892.787Zm-16.524-8.111c.315.04.621.087.921.136q-.257.352-.489.724.5.09,1.011.205c.138-.254.283-.5.432-.747.286.062.569.128.846.2-.127.251-.251.51-.374.771.317.084.637.177.957.277.1-.269.2-.535.3-.8.27.084.536.173.8.269-.077.269-.155.54-.237.816q.474.17.932.354.09-.422.165-.836c.265.11.529.227.8.352q-.041.421-.1.848.477.213.929.438c.025-.286.04-.572.044-.856.271.14.543.29.817.446.013.287.014.573,0,.859.165.091.328.181.488.273,0,.045,0,.09,0,.135,0,.253,0,.507-.01.762,0,.073-.007.146-.011.22q-.287-.147-.583-.291a8.189,8.189,0,0,1-.329,1.307c-.292-.17-.591-.332-.891-.489a10.426,10.426,0,0,0,.314-1.243q-.482-.219-.985-.43-.133.6-.318,1.188c-.307-.142-.619-.279-.932-.407q.185-.575.334-1.149c-.329-.126-.661-.25-1-.368q-.172.555-.36,1.121c-.318-.114-.637-.223-.96-.323q.191-.563.389-1.111-.513-.163-1.02-.308c-.149.364-.293.736-.426,1.115-.327-.087-.657-.166-.988-.238.137-.387.292-.765.459-1.134-.353-.089-.7-.173-1.047-.248a10.269,10.269,0,0,0-.494,1.173c-.334-.057-.67-.106-1.006-.148a8.1,8.1,0,0,1,.52-1.227c-.216-.041-.432-.08-.645-.117.046-.07.093-.139.14-.208q.221-.319.459-.618l.056-.07c.184.022.37.046.558.073Q1735.835,1885.016,1736.116,1884.676Zm40.924-10.272c-.05.118-2.063,4.741-10.433,8.373-.373.161-.752.322-1.15.479a58.926,58.926,0,0,1-10.023,2.706c-1.916.346-3.854.581-5.793.745l-1.28.095a16.806,16.806,0,0,0-1.162-1.334,59.188,59.188,0,0,0,7.8-.834,45.109,45.109,0,0,0,20.388-8.87c.287-.228.54-.434.772-.624C1776.694,1874.7,1777.029,1874.425,1777.04,1874.4Zm-55.332,9.038c.1,0,.285,0,.271,0a4.434,4.434,0,0,0-1.787.512l-.008.005a2.069,2.069,0,0,0-.75.743c-.01.019-.068.127-.083.144a1.818,1.818,0,0,1-1.931-1.259,1.95,1.95,0,0,0,.413.124h0l.113.018a2.605,2.605,0,0,0,.349.023,11.029,11.029,0,0,0,1.565-.165A13.9,13.9,0,0,1,1721.708,1883.443Zm.345,0c.215,0,.428.011.642.022.336.016.674.04,1.01.069.677.062,1.466.151,2.136.257a2.426,2.426,0,0,0-1.334.99l-.014.015a25.422,25.422,0,0,0-4.571.014,2.312,2.312,0,0,1,.821-.889A3.866,3.866,0,0,1,1722.052,1883.446Zm-4.585-29.033c.584,2.459,2.321,11.615,11.411,21.462a59.176,59.176,0,0,0,5.76,5.405,16.742,16.742,0,0,0-1.739.375c-1.4-1.231-4.628-4.415-4.8-4.58l-.006-.006a44.558,44.558,0,0,1-6.242-7.771c-.316-.518-.563-.945-.758-1.264h0l-.3-.541C1716.6,1859.815,1717.467,1854.413,1717.467,1854.413Zm18.224,16.675c.425-.356,1.383-.19,1.383-.19a2.7,2.7,0,0,1,.53.789,9.4,9.4,0,0,0,.728,3.466h0v-.03a1.415,1.415,0,0,1,.191-.366c.157-.232.46-.559.644-.43s.158.493.153.883a1.87,1.87,0,0,1-.233.925,1.239,1.239,0,0,0,.564.507,1.5,1.5,0,0,1,.013-.36,6.244,6.244,0,0,1,.373-1.023.218.218,0,0,1,.326-.148s.345.178.647.329a.4.4,0,0,1,.133.488c-.005.011-.005.018-.009.026s-.011.026-.014.039c-.114.284-.211.544-.356.845,0,0-.074.278-.2.29a3.742,3.742,0,0,0,.368.216,4.863,4.863,0,0,0,.5.193.716.716,0,0,1-.087-.436c.07-.366.179-.87.271-1.291a.254.254,0,0,1,.324-.2c.229.094.463.184.7.269a.317.317,0,0,1,.187.342c-.107.466-.227,1.023-.354,1.469a.849.849,0,0,1-.1.2,1.484,1.484,0,0,0,.351.184c.14.037.405.091.405.091a.686.686,0,0,1,.015-.372v-.012c.1-.3.209-.6.314-.9.025-.077.1-.247.142-.357a.279.279,0,0,1,.322-.183c.274.083.548.158.826.227.2.06.086.375.086.375s-.3.728-.489,1.2h0a.772.772,0,0,1-.172.252,1.958,1.958,0,0,0,.334.112,3.188,3.188,0,0,0,.556.06.7.7,0,0,1,.016-.494.249.249,0,0,0,.014-.037c.093-.213.187-.426.276-.639.026-.06.048-.121.072-.182a.366.366,0,0,1,.419-.2c.008,0,.013,0,.021,0,.192.036.384.068.576.1h0a.283.283,0,0,1,.22.394c-.175.387-.358.774-.565,1.164.215.017.431.029.648.035,0,0-.026-.019.063-.26s.349-.754.375-.83.126-.374.25-.388.619.38.49,1.139a9.474,9.474,0,0,0,2.666-2.32,2.519,2.519,0,0,1,.868-.3c.209.12.814.5.917.946a9.46,9.46,0,0,1-2.27,1.487,32.575,32.575,0,0,0-3.9,2.248,3.105,3.105,0,0,1-1.154.441,5.334,5.334,0,0,0-2.712-1.664,5,5,0,0,0-3.242-.273,3.151,3.151,0,0,1-.742-1.139,32.327,32.327,0,0,0-1.754-4.143A9.446,9.446,0,0,1,1735.691,1871.088Zm4.1-15.567c.027-1.409,1.517-7.206,9.245-5.89,1.425.3,2.568.64,2.867.735l.087.03c.147.046.348.112.59.2.07.026.143.053.219.084.1.037.207.078.318.124.146.06.3.125.464.2s.329.149.5.234c.377.182.779.4,1.183.641.041.022.082.047.12.07a.2.2,0,0,1,.035.022c3.146,1.914,4.009,4.251,4.009,6.184a6.724,6.724,0,0,1-1.034,3.6c-.516.717-.98,1.208-1.219,1.569a4.885,4.885,0,0,1-.589-1.6v.008a7.027,7.027,0,0,0,1.45,3.891l.064.063a13.842,13.842,0,0,0-.882,2.621,4.737,4.737,0,0,0,.236,2.039s-.1.157-.239.375c-.77.909-2.119,1.7-2.844,1.563-.823-.151-2.8-.825-3.953-.589a2.653,2.653,0,0,0-1.82,1.265l.006,0a1.3,1.3,0,0,0-.218.342,2.871,2.871,0,0,0-.312,1c-.168-.073-.312-.13-.312-.13a.386.386,0,0,1-.005.113,2.041,2.041,0,0,1-.055.24.2.2,0,0,1-.011.059c-.019.076-.04.152-.06.228-.075.277-.143.5-.23.774a.061.061,0,0,0-.011.019.272.272,0,0,1-.347.173l-.03-.011c-.19-.1-.4-.2-.616-.3a.391.391,0,0,1-.207-.379.027.027,0,0,1,0-.019c0-.011,0-.02.006-.027s.013-.05.022-.068c.067-.244.211-.768.23-.89a2.08,2.08,0,0,1,.179-.51,1.014,1.014,0,0,0-.234-.195.491.491,0,0,0-.269-.047.408.408,0,0,0-.111.2c0,.033-.089.3-.185.6s-.209.633-.257.782a.263.263,0,0,1-.266.2.47.47,0,0,1-.131-.02l-.01,0c-.19-.077-.448-.168-.652-.244-.014,0-.024-.011-.038-.013a.319.319,0,0,1-.212-.385c.106-.315.241-.714.345-1.026.022-.073.049-.147.071-.223l.006-.011a.658.658,0,0,1,.242-.336,1.788,1.788,0,0,0-.416-.193,4.27,4.27,0,0,0-.478-.108.7.7,0,0,1,.035.382c-.035.122-.361,1.26-.374,1.3s-.073.179-.162.212a.821.821,0,0,1-.332-.046.279.279,0,0,1-.04-.008c-.206-.062-.5-.109-.7-.162,0,0-.32-.093-.219-.386,0,0,.208-.765.311-1.13a.166.166,0,0,1,.005-.032,1.929,1.929,0,0,0,.071-.41.237.237,0,0,0-.252-.285c-.109,0-.229.2-.256.31s-.1.325-.1.325h0l-.007.019c-.007.019-.017.038-.022.054-.112.3-.2.541-.3.837a.369.369,0,0,1-.408.224h-.01c-.234-.049-.458-.1-.668-.133l-.029-.011a.27.27,0,0,1-.174-.347.044.044,0,0,1,0-.024c.093-.269.171-.486.28-.755a4.417,4.417,0,0,1,.2-.428.565.565,0,0,1,.151-.155c0-.06-.086-.171-.249-.228-.019-.006-.04-.011-.065-.017a5.405,5.405,0,0,0,.272-.836,2.635,2.635,0,0,0-.615-2.484c-.773-.882-2.763-1.538-3.506-1.914s-1.417-2.174-1.328-3.417a4.732,4.732,0,0,0,1.415-1.485,13.3,13.3,0,0,0,.879-2.618c1.805-.2,3.493-2.126,3.6-2.245a5.225,5.225,0,0,1-1.642,1C1739.837,1857.244,1739.769,1856.549,1739.788,1855.521Z" transform="translate(-1671.207 -1827.542)"/><path class="a" d="M1751.381,1918.6c.049-.263.388-.215.388-.215a6.667,6.667,0,0,1,3.852,3.016c.3.543,3.517,3.054,4.761,4.153.581.423,3.1,2.354,3.548,4.332a6.162,6.162,0,0,1-2.1,5.651,8.3,8.3,0,0,1-5.418,1.689,9.3,9.3,0,0,1-4.481-1.01.18.18,0,0,0-.012.04c-.094.082-.287.525-1.7.734a3.24,3.24,0,0,1-1.55-.055,2.434,2.434,0,0,0,3.165.622,2.679,2.679,0,0,0,.174.5s-.5.734-2.019.481a2.557,2.557,0,0,1-.5-.138c.03.017.056.028.087.047a1.281,1.281,0,1,1-.342-.155,2.828,2.828,0,0,1-1.433-1.695.671.671,0,0,0,.1.018c.391.052,1.868,0,2.631-3.509.022.09.521,2.112,1.887,1.783-.014.03-.212.475-.215.481a8.266,8.266,0,0,0,4.294,1.051,5.549,5.549,0,0,0,5.552-3.711c.386-1.246-.211-2.63-1.445-3.844a1.8,1.8,0,0,0,.339-1.8c.111.371-.586,1.034-1.322.969a1.146,1.146,0,0,1-.2-.035c-1.111-.31-2.376-1.661-3.448-2.462a3.554,3.554,0,0,1-1.357-2.921,3.627,3.627,0,0,0-1.122-2.712,3.429,3.429,0,0,0-1.829-.928C1751.424,1918.907,1751.356,1918.758,1751.381,1918.6Zm6.818,11.568a2.747,2.747,0,0,1,1.241,1.149,1.026,1.026,0,0,1,.1.453,2.376,2.376,0,0,1-1.409,1.87,4.815,4.815,0,0,1-1.781.3,5.659,5.659,0,0,1-.592-.027c.179-.3.4-.667.638-1.061C1756.942,1931.964,1757.616,1930.929,1758.2,1930.166Zm-3.659-4.51a3.955,3.955,0,0,0,1.01,1.428c.445.41.817.739,1.126,1-1.5,1.944-3.635,5.578-3.635,5.578-.912.054-1.368-.246-1.884-1.346a2.744,2.744,0,0,1-.174-.513A34.67,34.67,0,0,1,1754.54,1925.656ZM1776,1903.269c-1.769,2.8-11.425,17.346-13.709,20.649-.015-.013-.041-.03-.053-.041-.335-.3-.766-.671-1.244-1.069.779-1.111,9.7-14.381,12.322-18.495C1774.231,1903.991,1775.122,1903.638,1776,1903.269Zm-24.189-13.768s.159-.118.254,0a.183.183,0,0,1-.043.266,2,2,0,0,0-.676.964,2.076,2.076,0,0,0,.165,1.68,2.121,2.121,0,0,1,.247,1.367,1.864,1.864,0,0,1-.148.481c-.174.373-.311.763-.47,1.144a3.113,3.113,0,0,1-.612,1.034.768.768,0,0,1-.988-.038c-.011-.01-.025-.015-.036-.024a.924.924,0,0,0,.74.756,1.985,1.985,0,0,0,1.376,2.266,4.432,4.432,0,0,0,4.852-.9,4.076,4.076,0,0,0-.526-.449l-.008-.006a.746.746,0,0,0,.378-.225.812.812,0,0,0,.124-.315h0l.006.005c.057.043.114.083.169.121a2.978,2.978,0,0,0,.282.164,2.174,2.174,0,0,0,.479.18,1.526,1.526,0,0,0,1.349-.3l.01-.006s.027.174.028.212a1.619,1.619,0,0,1-.222.923.727.727,0,1,1-.207.266,1.748,1.748,0,0,1-.18.17,1.4,1.4,0,0,1-.931.352.666.666,0,0,1-.224-.049.755.755,0,0,0-.032-.24c-.005-.02-.009-.038-.016-.061a1.129,1.129,0,0,0,.253-.01,1.461,1.461,0,0,0,1.188-1.165,2.23,2.23,0,0,1-.181.2,1.914,1.914,0,0,1-1.475.564,5.265,5.265,0,0,1-4.972,1.074c-2.757-.977-2.778-2.679-2.709-3.235a6.972,6.972,0,0,1,.249-.99c.225-.7,1.362-3.214,1.367-3.6A3.811,3.811,0,0,1,1751.812,1889.5Zm.562,4.857a25.591,25.591,0,0,1,3.634,2.769.936.936,0,0,1-.136.375.763.763,0,0,1-.362.23,24.54,24.54,0,0,0-3.566-1.994c.086-.214.184-.479.3-.809A4.132,4.132,0,0,0,1752.374,1894.359Zm-25.447-13.291c.148-.039.205.151.205.151a3.823,3.823,0,0,1-.641,2.734c-.23.314-.843,3.008-1.084,3.7,0,0-.285.71-.4.939-.25.5-1.324,1.829-4.112.944a5.289,5.289,0,0,1-3.331-3.85,1.991,1.991,0,0,1-.846-1.613,1.408,1.408,0,0,0,.441,1.807c-.019-.012-.166.141-.183.161a.348.348,0,0,1-.038.049.861.861,0,0,1-.481-.372,1.76,1.76,0,0,1-.257-.566,1.728,1.728,0,0,1-.05-.263c0,.01,0,.02,0,.029a.724.724,0,1,1-.005-.243,1.6,1.6,0,0,1,.54-1.126,1.817,1.817,0,0,0,1.931,1.259.794.794,0,0,0-.092.326.736.736,0,0,0,.166.407h-.08a2.465,2.465,0,0,0-.621.043,4.428,4.428,0,0,0,3.327,3.646,1.983,1.983,0,0,0,2.46-.974.93.93,0,0,0,1.05-.161.755.755,0,0,1-.856-.567,7.975,7.975,0,0,1,.452-2.391,2.043,2.043,0,0,1,1.193-1.412,2.076,2.076,0,0,0,1.145-1.239,1.984,1.984,0,0,0,.042-1.177C1726.776,1881.165,1726.837,1881.093,1726.926,1881.068Zm49.375-6.708-.051.149a14.751,14.751,0,0,1-3.042,4.874,25.726,25.726,0,0,1-2.989,2.814,26.848,26.848,0,0,1-5.4,3.292,36.754,36.754,0,0,1-5.878,2.156,46.542,46.542,0,0,1-9.763,1.515,14.926,14.926,0,0,0-.888-1.488,43.169,43.169,0,0,0,17.526-4.9h0l.054-.042C1774.238,1879.1,1776.251,1874.478,1776.3,1874.36Zm-57.118,10.411a25.429,25.429,0,0,1,4.571-.015l.014-.015a2.322,2.322,0,0,0-.258.547c-.107.332-.188.6-.25.826a24.26,24.26,0,0,0-4.046-.561.771.771,0,0,1-.148-.4A.9.9,0,0,1,1719.184,1884.771Zm-2.455-30.4s-.865,5.4,3.328,13.081l-.013-.024-.011-.02a42.888,42.888,0,0,0,10.825,14.324l.239.209a16.025,16.025,0,0,0-1.6.652c-.079.038-.87-.75-.967-.836q-1.184-1.049-2.3-2.167a41.637,41.637,0,0,1-4.745-5.632,33.138,33.138,0,0,1-2.994-5.18,27.155,27.155,0,0,1-1.882-5.522,20.745,20.745,0,0,1-.464-5.482,12.158,12.158,0,0,1,.541-3.249Zm18.866,13.322s.737.357.967.492l0,.024c-.028.205-.222,1.676-.232,2.384a1.88,1.88,0,0,0,.01.264s-.957-.167-1.382.19a9.453,9.453,0,0,0,.913,2.557,32.278,32.278,0,0,1,1.754,4.143,3.163,3.163,0,0,0,.742,1.139,4.993,4.993,0,0,1,3.243.273,5.323,5.323,0,0,1,2.711,1.664,3.092,3.092,0,0,0,1.154-.441,32.51,32.51,0,0,1,3.9-2.247,9.47,9.47,0,0,0,2.27-1.488c-.1-.448-.709-.826-.918-.947l.029,0a19.886,19.886,0,0,0,1.422-2.245l.012-.022c.265.033,1.066.191,1.066.191s-.835,1.94-1.329,2.776a4.048,4.048,0,0,1-1.374,1.455c-.48.338-2.6,1.737-3.159,2.133s-2.046,1.73-3.345,1.96a5.951,5.951,0,0,1-1.733.069,7.6,7.6,0,0,1-1.563-.371l-.01,0-.011,0a6.174,6.174,0,0,1-2.81-1.749,8.414,8.414,0,0,1-1.4-3.28c-.032-.118-.061-.221-.088-.3-.207-.653-1.051-3.046-1.23-3.606a4,4,0,0,1-.218-1.989c.1-.9.552-2.763.607-2.992Zm12.053,5.568a2.258,2.258,0,0,1,1.34-.3l0,.007h0l0,0a5.31,5.31,0,0,0-.272,1.069c-.029.29-.17,1.024-.17,1.029a2,2,0,0,1-1.175,1.317c-.09-.057-.207-.271.173-1.488,0-.059.2-.13.239-.127l.236-.038a1.32,1.32,0,0,0-.1-.163.541.541,0,0,0-.185-.125c-.065-.036-.4-.181-.4-.185a2.914,2.914,0,0,1,.307-.987Zm-12.83-10.3c-.09,1.244.581,3.043,1.328,3.418s2.733,1.031,3.507,1.914a2.633,2.633,0,0,1,.614,2.484,5.568,5.568,0,0,1-.272.836.987.987,0,0,0-.161-.027c-.157-.019-.407-.036-.459.16l-.006.013a.647.647,0,0,1,.033.245.963.963,0,0,1-.046.146c-.426,1.2-.652,1.3-.757,1.292a2,2,0,0,1-.144-1.759.049.049,0,0,0,.005-.016,7.726,7.726,0,0,1,.478-.907,4.9,4.9,0,0,0,.432-1.023h0l.006.011v-.009a3.08,3.08,0,0,1,.58.529c.005.006.008.009.008.011.078.131.2.231.271.37a.282.282,0,0,1,.033.109,1.233,1.233,0,0,0-.035-.728.094.094,0,0,1-.008-.025,3.872,3.872,0,0,0-1.936-1.84,17.459,17.459,0,0,0-1.6-.787c-1.6-.7-1.623-1.171-1.838-1.908a2.693,2.693,0,0,1-.062-.321,6.6,6.6,0,0,1-.039-.8C1734.747,1863.65,1734.818,1862.957,1734.818,1862.957Zm21.656,7.723a.194.194,0,0,1-.019.03,5.147,5.147,0,0,1-1.279,1.578c-.614.461-.914.817-2.616.415a18.439,18.439,0,0,0-2.025-.388,3,3,0,0,0-2.661.592c0,.006-.006.006-.011.011s-.008.006-.011.009a2.665,2.665,0,0,1,1.827-1.272c1.148-.236,3.13.438,3.952.589C1754.357,1872.377,1755.7,1871.589,1756.474,1870.68Zm-10.509-4.389a1.176,1.176,0,0,1,.77,1.415,2.385,2.385,0,0,0-.062,1.009h0l0,.011v.006a1.972,1.972,0,0,0,.154.667,1.162,1.162,0,0,1,.049.814h0l-.144.429a1.192,1.192,0,0,1-1.549.643h0a.919.919,0,0,0,.589-.543.04.04,0,0,0,.006-.016.72.72,0,0,0,.6-.465h0l.152-.448c.152-.459-.188-.666-.207-1.406a2.851,2.851,0,0,1,.1-1.2A.762.762,0,0,0,1745.965,1866.291Zm-1.625.608a1.178,1.178,0,0,1,1.477-.657.76.76,0,0,0-.923.456,2.862,2.862,0,0,1-.651,1.01c-.465.581-.861.54-1.012,1h0l-.153.448a.724.724,0,0,0,.2.728.049.049,0,0,0-.005.018.9.9,0,0,0,.143.787,1.191,1.191,0,0,1-.846-1.444h0l.144-.428a1.148,1.148,0,0,1,.532-.621,1.958,1.958,0,0,0,.527-.437h0l.007-.012A2.287,2.287,0,0,0,1744.341,1866.9Zm11.613-1.373.024,0a11.839,11.839,0,0,1-.9,3.19c-.56.9-1.093,1.732-2.484,1.656,0,0,.806-.233.549-.866a.784.784,0,0,1-.043-.141,3.892,3.892,0,0,0,1.009-.684,4.972,4.972,0,0,0,.956-1.472,5.8,5.8,0,0,0,.254-.724s.179-.823.526-.945l.109-.017Zm-10.894-2.24a4.037,4.037,0,0,0,3.266,1.1c0,.013-.062.852-.06,1.352s.174,2.444,1.024,2.951h0s-.21.252.063,1.042a2.821,2.821,0,0,1-1.512-1.276c-.4-.885-.011-3.262-1.433-3.759-1.434-.463-2.56,1.668-3.413,2.134a2.87,2.87,0,0,1-1.978.106c.654-.436.681-.752.681-.791v0c.982.108,2.286-1.336,2.592-1.738S1745.06,1863.286,1745.06,1863.286Zm-6.794-3.7.016.011.005,0c.025.024.052.051.077.078.2.306-.149,1.07-.149,1.07a5.483,5.483,0,0,0-.221.682,4.223,4.223,0,0,0,.046,2.556c.014.028.221.386.21.4a.694.694,0,0,1-.06.046c-.022.016-.043.03-.066.042-.564.331-.122.966-.087,1.016-1.151-.774-1.081-1.759-.98-2.815a11.891,11.891,0,0,1,1.208-3.087Zm15.075-8.393.315.133c8.092,3.893,6.308,10.041,5.844,11.217a17.15,17.15,0,0,1-1.622,2.693,10.772,10.772,0,0,1-1.442-1.955c.239-.361.7-.852,1.219-1.569a6.727,6.727,0,0,0,1.034-3.6c0-1.933-.863-4.27-4.009-6.184a.179.179,0,0,0-.035-.022c-.038-.024-.078-.048-.119-.07C1754.12,1851.587,1753.718,1851.372,1753.341,1851.19Zm-12.55,6.968c1.352-.336,3.547,1.71,4.839,2.788a3.994,3.994,0,0,0,3.673,1.231c1.683-.078,4.668-.387,5.546.7a20.035,20.035,0,0,0-3.554.022,6.065,6.065,0,0,1-7.684-2.578A20.121,20.121,0,0,0,1740.791,1858.158Zm4.595-8.882a14.768,14.768,0,0,1,2.089.153c.269.045.529.1.782.149l.038.008h0c-7.727-1.317-9.218,4.481-9.245,5.89-.019,1.028.049,1.723.016,2.136a10.82,10.82,0,0,1-2.326.641,21.372,21.372,0,0,1,.342-3.225C1737.345,1853.962,1739.126,1849.3,1745.385,1849.277Z" transform="translate(-1670.469 -1827.497)"/><path class="e" d="M1740.938,1847.476c4.055-1.656,10.145.516,10.2.535s6.225,1.956,8.461,5.723c2.248,3.788,1.949,7.235.59,9.752s-2.669,3.938-2.633,4.78a4.019,4.019,0,0,0,.394,1.529s-1.558,3.112-3.852,3.992c0,0-1.267,3.277-2.635,4.361s-3.4,2.2-5.237,3.676a5.689,5.689,0,0,1-2.445,1.121l.176.13a65.727,65.727,0,0,0,15-2.1c10.187-2.743,19.863-12.041,19.863-12.041-2.421,7.92-3.5,10.538-9.817,15.011s-16.213,5.835-16.213,5.835c-.111.43-.765.88-.765.88a17.16,17.16,0,0,1,3.5,2.244c2.484,1.87,1.811,1.779,2.6,2.313a1.6,1.6,0,0,0,1.238.385h0a3.531,3.531,0,0,1,.269,1.194c.331.312,1.951,1.859.445,3.46a2.348,2.348,0,0,1-3.251.114,2.583,2.583,0,0,1-1.216-.073,6.078,6.078,0,0,1-6.428-.183c-2.606-1.8-2.448-3.927-2.3-4.663a14.081,14.081,0,0,1-2.794,1.2,15.173,15.173,0,0,1-9.264.056,14.113,14.113,0,0,1-5.4-3.411,16.406,16.406,0,0,1-3.165-4.373c-.1-.214-.2-.427-.288-.633-.228.543-1.319,2.6-4.7,2.457a6.085,6.085,0,0,1-5.239-3.732,2.616,2.616,0,0,1-1.013-.673,2.348,2.348,0,0,1-2.524-2.053c-.235-2.188,1.994-2.443,2.446-2.492a3.488,3.488,0,0,1,.931-.792s.271.394,1.224.445.361-.282,3.473-.274a16.966,16.966,0,0,1,4.142.319,2.174,2.174,0,0,1-.078-1.164s-7.066-7.058-9.409-14.435-1.626-10.113,1.219-17.893c0,0,2.109,13.255,8.583,21.582a65.891,65.891,0,0,0,10.741,10.765c.065,0,.133,0,.2,0a5.7,5.7,0,0,1-1.32-2.416c-.578-2.28-1.525-4.4-1.96-6.089s.532-5.069.532-5.069c-1.3-2.08-.665-5.5-.665-5.5a4.076,4.076,0,0,0,1.238-.982c.531-.652.348-2.574.782-5.4S1736.86,1849.14,1740.938,1847.476Zm10.517,41.361c-.094-.12-.252,0-.252,0a3.826,3.826,0,0,0-1.14,2.568c-.006.391-1.142,2.907-1.365,3.6a6.833,6.833,0,0,0-.25.988c-.067.556-.046,2.258,2.709,3.235a5.268,5.268,0,0,0,4.972-1.071,1.917,1.917,0,0,0,1.474-.565,1.793,1.793,0,0,0,.18-.2,1.449,1.449,0,0,1-1.186,1.161,1.151,1.151,0,0,1-.253.011.538.538,0,0,1,.017.063.765.765,0,0,1,.033.239.61.61,0,0,0,.222.049,1.413,1.413,0,0,0,.934-.353,1.883,1.883,0,0,0,.176-.168.7.7,0,1,0,.208-.269,1.6,1.6,0,0,0,.22-.922,1.807,1.807,0,0,0-.027-.21l0,0a2.11,2.11,0,0,1-.393-.144,2.538,2.538,0,0,1-.4-.252c-.173-.128-.681-.609-.806-.734-.166-.168-.337-.333-.505-.5-.2-.2-.651-.614-.857-.77l-.578-.46a6.7,6.7,0,0,1,1.109,1.483,2.34,2.34,0,0,1,.169.976,1.415,1.415,0,0,1-.036.242l.005.005-.007,0a.823.823,0,0,1-.123.315.776.776,0,0,1-.377.225l.008.006a3.766,3.766,0,0,1,.524.449,4.432,4.432,0,0,1-4.854.9,1.985,1.985,0,0,1-1.374-2.267.923.923,0,0,1-.74-.755.238.238,0,0,1,.035.025.768.768,0,0,0,.988.038,3.089,3.089,0,0,0,.613-1.035c.158-.38.294-.771.47-1.143a1.894,1.894,0,0,0,.147-.48,2.127,2.127,0,0,0-.247-1.368,2.08,2.08,0,0,1-.166-1.68,2,2,0,0,1,.676-.964A.181.181,0,0,0,1751.455,1888.837Zm-.162,3.241a2.516,2.516,0,0,1,.469,1.615,4.107,4.107,0,0,1-.127.57c-.117.329-.218.595-.3.809a24.455,24.455,0,0,1,3.567,1.995.767.767,0,0,0,.36-.23.943.943,0,0,0,.137-.374,2.3,2.3,0,0,0-.12-1.206,3.786,3.786,0,0,0-.754-1.172c-.038-.029-.079-.057-.117-.087-.31-.223-.628-.435-.95-.64q-.672-.431-1.368-.83c-.221-.128-.44-.25-.663-.375C1751.38,1892.125,1751.336,1892.1,1751.293,1892.079Zm-11.686-9.626c-5.379-1.805-11.216.864-12.5,2.484a1.314,1.314,0,0,0-.144.207c-.005.008-.009.024-.017.03a.736.736,0,0,0-.067.149c-.511,1.526,2.581,8.007,8.417,9.967s12.155-1.172,12.725-2.871a1.03,1.03,0,0,0,.048-.223,3.882,3.882,0,0,0-.255-1.645A13.929,13.929,0,0,0,1739.607,1882.453Zm3.408,5.382a17.625,17.625,0,0,1,4.353,3.422,31.643,31.643,0,0,0-4.362-2.659C1743.017,1888.341,1743.019,1888.088,1743.015,1887.835Zm-16.667-7.438-.032,0a.185.185,0,0,0-.125.239,1.946,1.946,0,0,1-.043,1.175,2.06,2.06,0,0,1-1.143,1.24,2.05,2.05,0,0,0-1.195,1.415,7.971,7.971,0,0,0-.45,2.389.756.756,0,0,0,.855.57.935.935,0,0,1-1.051.16,1.983,1.983,0,0,1-2.461.971,4.423,4.423,0,0,1-3.325-3.645,2.569,2.569,0,0,1,.621-.041h.079a.755.755,0,0,1-.165-.407.792.792,0,0,1,.092-.327c.014-.018.071-.124.082-.142a2.062,2.062,0,0,1,.749-.744l.008-.006a4.435,4.435,0,0,1,1.788-.51c.014,0-.176-.008-.271-.005a13.667,13.667,0,0,0-1.849.149,11.028,11.028,0,0,1-1.563.166,2.894,2.894,0,0,1-.464-.041,2.059,2.059,0,0,1-.412-.125,1.6,1.6,0,0,0-.541,1.127.719.719,0,1,0,.006.243.092.092,0,0,0,0-.029,1.948,1.948,0,0,0,.051.262,1.69,1.69,0,0,0,.258.566.864.864,0,0,0,.48.374.473.473,0,0,0,.038-.051c.016-.018.152-.16.179-.16a1.417,1.417,0,0,1-.441-1.806,1.992,1.992,0,0,0,.847,1.612,5.289,5.289,0,0,0,3.334,3.849c2.788.888,3.86-.442,4.112-.944.111-.227.4-.939.4-.939.241-.693.855-3.385,1.085-3.7a3.828,3.828,0,0,0,.641-2.733s-.057-.191-.206-.153Zm49.344-6.7c-.011.022-.345.3-.885.735-.23.19-.486.4-.774.625a45.112,45.112,0,0,1-20.385,8.87,59.168,59.168,0,0,1-7.8.833,16.271,16.271,0,0,1,1.165,1.336s1.124-.084,1.279-.1c1.938-.164,3.876-.4,5.792-.745a58.611,58.611,0,0,0,10.021-2.705c.4-.158.778-.318,1.151-.481h0l-.051.044a43.2,43.2,0,0,1-17.527,4.9,15.192,15.192,0,0,1,.887,1.487,46.5,46.5,0,0,0,9.761-1.514,36.883,36.883,0,0,0,5.879-2.158,26.781,26.781,0,0,0,5.405-3.293,25.979,25.979,0,0,0,2.988-2.814,14.786,14.786,0,0,0,3.042-4.872h0l.046-.142Zm-54.988,9.042a3.822,3.822,0,0,0-1.308.479,2.319,2.319,0,0,0-.823.888.948.948,0,0,0-.117.382.8.8,0,0,0,.149.4,24.2,24.2,0,0,1,4.047.562c.06-.223.141-.5.247-.828a2.355,2.355,0,0,1,1.594-1.536c-.673-.11-1.46-.2-2.136-.259-.336-.029-.673-.054-1.012-.069C1721.134,1882.746,1720.919,1882.741,1720.7,1882.736Zm7.223,2.034a18.339,18.339,0,0,1,5.695-.105q-.238.3-.458.618A31.941,31.941,0,0,0,1727.927,1884.77ZM1716.12,1853.7l-.054.155a12.2,12.2,0,0,0-.54,3.249,20.758,20.758,0,0,0,.464,5.48,26.931,26.931,0,0,0,1.884,5.524,32.825,32.825,0,0,0,2.993,5.18,41.618,41.618,0,0,0,4.745,5.632c.744.747,1.515,1.469,2.3,2.169a6.936,6.936,0,0,0,.966.836,15.842,15.842,0,0,1,1.6-.654,43.037,43.037,0,0,1-11.062-14.528h0l.021.038c.1.179.2.359.3.541.2.32.44.745.757,1.264a44.512,44.512,0,0,0,6.243,7.771c.008.008,3.369,3.323,4.8,4.585a16.794,16.794,0,0,1,1.74-.375,59.7,59.7,0,0,1-5.762-5.4c-9.087-9.848-10.825-19-11.409-21.462Zm18.865,13.322a.145.145,0,0,0,0,.022c-.057.23-.505,2.09-.609,2.994-.014.12-.022.232-.027.337a3.911,3.911,0,0,0,.247,1.652c.179.559,1.024,2.953,1.229,3.6.028.08.057.185.09.3a8.4,8.4,0,0,0,1.4,3.281,6.2,6.2,0,0,0,2.812,1.749l.008,0c.005,0,.008,0,.011,0a7.4,7.4,0,0,0,1.563.37,5.958,5.958,0,0,0,1.732-.068c1.3-.232,2.788-1.564,3.347-1.96s2.68-1.794,3.157-2.133a4.049,4.049,0,0,0,1.376-1.455c.494-.836,1.327-2.776,1.327-2.776s-.8-.158-1.067-.19a.193.193,0,0,1-.011.022,20.494,20.494,0,0,1-1.422,2.248.1.1,0,0,0-.027.005,2.486,2.486,0,0,0-.869.3,9.528,9.528,0,0,1-2.666,2.321c.128-.761-.363-1.153-.491-1.14s-.223.312-.25.388-.288.589-.375.83-.062.261-.062.261c-.217-.009-.434-.019-.648-.036.205-.39.391-.779.565-1.164a.277.277,0,0,0-.209-.391l-.009,0,0,0c-.193-.029-.385-.059-.578-.1h-.02a.361.361,0,0,0-.417.2c-.025.059-.049.122-.074.18-.09.212-.185.427-.277.639a.089.089,0,0,1-.014.038.706.706,0,0,0-.016.494,3.219,3.219,0,0,1-.556-.06,2.165,2.165,0,0,1-.331-.114.742.742,0,0,0,.171-.252c.193-.469.489-1.2.489-1.2s.117-.315-.088-.375c-.276-.068-.551-.143-.825-.224a.272.272,0,0,0-.321.182c-.043.108-.116.279-.143.354q-.159.453-.311.9a.018.018,0,0,1,0,.012.691.691,0,0,0-.014.372s-.266-.054-.4-.092a1.444,1.444,0,0,1-.354-.185.75.75,0,0,0,.107-.2c.124-.446.247-1,.353-1.468a.312.312,0,0,0-.187-.34c-.233-.087-.467-.176-.7-.272a.257.257,0,0,0-.325.2c-.093.421-.2.926-.269,1.292a.7.7,0,0,0,.087.434,4.524,4.524,0,0,1-.5-.193,3.411,3.411,0,0,1-.369-.217c.13-.011.2-.288.2-.288.143-.3.242-.561.356-.846a.381.381,0,0,1,.013-.039c0-.008.006-.013.011-.027a.4.4,0,0,0-.133-.485c-.3-.152-.646-.332-.649-.332a.218.218,0,0,0-.325.15,6.192,6.192,0,0,0-.372,1.023,1.6,1.6,0,0,0-.014.359,1.237,1.237,0,0,1-.565-.508,1.851,1.851,0,0,0,.233-.922c0-.391.028-.755-.155-.885s-.485.2-.643.432a1.4,1.4,0,0,0-.191.367h0v.03a9.437,9.437,0,0,1-.73-3.466,2.68,2.68,0,0,0-.53-.79,2.466,2.466,0,0,1-.011-.263c.011-.708.207-2.177.234-2.383a.162.162,0,0,0,0-.025C1735.723,1867.38,1734.984,1867.025,1734.984,1867.025Zm9.792-18.414c-6.26.027-8.041,4.685-8.3,5.752a21.429,21.429,0,0,0-.342,3.224,10.843,10.843,0,0,0,2.327-.64,5.213,5.213,0,0,0,1.642-1.005c-.1.12-1.791,2.042-3.6,2.246a13.292,13.292,0,0,1-.88,2.618,4.725,4.725,0,0,1-1.414,1.486s-.071.692-.071,1.39a6.537,6.537,0,0,0,.039.8,2.576,2.576,0,0,0,.062.32c.214.738.239,1.2,1.837,1.908a17.332,17.332,0,0,1,1.6.787,3.869,3.869,0,0,1,1.935,1.841.106.106,0,0,0,.009.025,1.238,1.238,0,0,1,.035.727.268.268,0,0,0-.033-.108c-.07-.139-.192-.239-.271-.369,0,0,0-.005-.008-.012a3.113,3.113,0,0,0-.581-.529h0v.008l-.006-.011a4.913,4.913,0,0,1-.431,1.024,7.939,7.939,0,0,0-.478.906.034.034,0,0,1-.006.017,2,2,0,0,0,.145,1.759c.106.008.331-.1.757-1.292a.986.986,0,0,0,.047-.147.645.645,0,0,0-.033-.245l.006-.013c.051-.2.3-.179.458-.16a1.121,1.121,0,0,1,.16.027l.066.016c.163.057.253.168.25.229a.543.543,0,0,0-.151.155,4.425,4.425,0,0,0-.2.429c-.109.269-.187.485-.28.754a.048.048,0,0,0,0,.025.265.265,0,0,0,.164.343l.01,0,.029.011c.209.038.435.085.668.133a.377.377,0,0,0,.418-.222c.1-.3.187-.541.3-.837a.36.36,0,0,1,.021-.051h0v0l.008-.019s.068-.2.1-.325.146-.31.255-.31a.237.237,0,0,1,.252.285,1.888,1.888,0,0,1-.07.41.189.189,0,0,0-.006.032c-.1.364-.312,1.13-.312,1.13-.1.293.22.385.22.385.2.054.488.1.695.162a.4.4,0,0,0,.04.008.819.819,0,0,0,.332.047c.09-.032.146-.168.163-.212s.339-1.18.374-1.3a.694.694,0,0,0-.035-.382,4.269,4.269,0,0,1,.478.109,1.763,1.763,0,0,1,.415.193.661.661,0,0,0-.242.336l-.006.011c-.021.076-.049.149-.071.223-.1.312-.238.711-.344,1.026a.319.319,0,0,0,.212.385h0l.037.013c.2.076.462.168.652.245a.445.445,0,0,0,.142.024.262.262,0,0,0,.266-.2c.049-.15.161-.48.257-.782s.182-.57.185-.6a.407.407,0,0,1,.111-.2.491.491,0,0,1,.269.046,1.066,1.066,0,0,1,.234.2,2.112,2.112,0,0,0-.18.51c-.018.122-.163.645-.23.89-.009.019-.014.047-.022.068s0,.015-.005.027a.026.026,0,0,0,0,.019.391.391,0,0,0,.207.379c.217.1.426.2.616.3l.03.01a.272.272,0,0,0,.348-.173.05.05,0,0,1,.011-.02c.087-.272.156-.5.231-.773.02-.076.041-.152.06-.228a.176.176,0,0,0,.011-.059,2.225,2.225,0,0,0,.054-.24.4.4,0,0,0,.005-.114s.144.057.313.13c0,0,.33.15.4.185s.15.068.186.128a1.214,1.214,0,0,1,.1.16h0l-.236.038c-.043,0-.238.068-.238.126-.38,1.218-.263,1.431-.174,1.489a1.992,1.992,0,0,0,1.175-1.315c0-.007.141-.74.172-1.031a5.134,5.134,0,0,1,.271-1.069h0l-.005,0,.005-.009a2.269,2.269,0,0,0-1.341.3,1.31,1.31,0,0,1,.218-.342c0-.006.007-.006.011-.011a2.991,2.991,0,0,1,2.66-.593,18.275,18.275,0,0,1,2.024.389c1.7.4,2,.046,2.617-.416a5.123,5.123,0,0,0,1.281-1.578c.006-.011.014-.019.019-.029.142-.218.239-.375.239-.375a4.729,4.729,0,0,1-.236-2.039,13.825,13.825,0,0,1,.882-2.621c-1.357-1.287-1.515-3.963-1.515-3.963a4.884,4.884,0,0,0,.589,1.6,10.788,10.788,0,0,0,1.442,1.955,17.043,17.043,0,0,0,1.623-2.692c.464-1.176,2.248-7.323-5.844-11.217h0l-.315-.133c-.174-.084-.342-.159-.5-.233s-.318-.138-.464-.2c-.111-.046-.217-.087-.318-.125-.079-.031-.151-.057-.219-.084-.242-.09-.442-.156-.59-.2l-.086-.031c-.3-.095-1.441-.439-2.867-.735h0l-.037-.007c-.253-.053-.513-.1-.782-.149A14.913,14.913,0,0,0,1744.776,1848.61Zm-.491,17.423a.76.76,0,0,1,.923-.457.481.481,0,0,1,.071.019.771.771,0,0,1,.077.03.763.763,0,0,1,.454.92,2.835,2.835,0,0,0-.095,1.2c.018.741.358.948.207,1.407h0l-.153.448a.717.717,0,0,1-.6.464.927.927,0,0,1-.4-.026.772.772,0,0,1-.526-.954.129.129,0,0,0-.085-.159.126.126,0,0,0-.159.075.776.776,0,0,1-1,.443.846.846,0,0,1-.336-.223.717.717,0,0,1-.2-.727h0l.152-.448c.151-.46.548-.418,1.013-1A2.863,2.863,0,0,0,1744.285,1866.033Zm3.431-2.316.016.022a4.217,4.217,0,0,0,.521.6h0c.051.051.106.1.163.149a.044.044,0,0,1,.01.012,2.34,2.34,0,0,0,.75.434,7.963,7.963,0,0,0,3.526-.162c.119-.019.236-.035.353-.049a7.228,7.228,0,0,1,2.311.13h0l0,.008-.024,0-.109.018c-.347.122-.526.944-.526.944a5.793,5.793,0,0,1-.253.725,5.036,5.036,0,0,1-.956,1.472,3.9,3.9,0,0,1-1.009.683l0,0a3.023,3.023,0,0,1-.325.078,6.38,6.38,0,0,1-3.461-.75.094.094,0,0,1-.019-.007h0c-.852-.508-1.023-2.449-1.026-2.951S1747.714,1863.73,1747.716,1863.717Zm-10.052-4.8a7.079,7.079,0,0,1,1.916,1.285c.087.082.171.166.253.252a7.981,7.981,0,0,0,2.714,2.258,2.378,2.378,0,0,0,.861.1.026.026,0,0,0,.014,0c.075,0,.149-.008.219-.016h0a4.7,4.7,0,0,0,.809-.176s-.466.714-.77,1.112-1.61,1.846-2.593,1.738c-.008,0-.016-.006-.024-.006a6.406,6.406,0,0,1-3.215-1.491c-.08-.081-.206-.257-.208-.257a.632.632,0,0,1-.06.044.75.75,0,0,0,.06-.046c.011-.011-.2-.37-.21-.4a4.223,4.223,0,0,1-.046-2.556,5.394,5.394,0,0,1,.22-.681s.353-.764.149-1.071c-.025-.027-.052-.054-.076-.078h0l-.005,0Z" transform="translate(-1669.859 -1826.831)"/><path class="f" d="M1752.865,1907.156a14.834,14.834,0,0,1-11.635,1.064,15.03,15.03,0,0,1-8.563-7.8.952.952,0,0,1,.522-1.22,1.8,1.8,0,0,0-.8.372.669.669,0,0,0-.067.15c-.51,1.523,2.58,8.007,8.417,9.966s12.155-1.173,12.725-2.87a1.16,1.16,0,0,0,.047-.224,1.853,1.853,0,0,0-.386-.674.922.922,0,0,1-.26,1.241" transform="translate(-1675.298 -1841.225)"/><path class="g" d="M1748.49,1901.871c0,.073-.007.146-.011.22-.193-.1-.387-.195-.584-.291a8.08,8.08,0,0,1-.329,1.306c-.292-.169-.591-.332-.891-.488a10.361,10.361,0,0,0,.315-1.243q-.483-.22-.986-.43c-.088.4-.2.793-.319,1.187q-.461-.213-.932-.407c.123-.383.233-.767.334-1.149q-.492-.19-1-.369c-.116.371-.236.745-.36,1.122q-.478-.172-.961-.323.192-.562.389-1.111c-.343-.109-.682-.211-1.021-.308-.149.365-.292.736-.426,1.115-.326-.087-.657-.166-.988-.238.137-.387.292-.764.46-1.133q-.53-.134-1.048-.249a10.33,10.33,0,0,0-.495,1.173q-.5-.086-1.006-.149a8.183,8.183,0,0,1,.52-1.227q-.325-.062-.645-.118l.14-.207a31.935,31.935,0,0,0-5.236-.514,18.323,18.323,0,0,1,5.7-.1c.018-.024.036-.047.056-.071q.275.033.559.073c.166-.241.344-.476.531-.7.315.041.621.087.922.137q-.257.351-.49.723.5.09,1.011.205c.139-.255.284-.5.433-.746.286.061.569.128.846.2-.127.252-.252.51-.374.771q.476.126.957.277.153-.4.3-.8c.27.084.537.174.8.269-.077.269-.155.541-.237.816.317.114.626.232.932.354q.09-.421.165-.836c.266.11.53.227.8.352q-.04.421-.1.848.476.214.929.438c.024-.286.039-.571.044-.856q.406.211.818.447.019.43,0,.859.248.136.488.274c0,.045,0,.09,0,.135a17.631,17.631,0,0,1,4.353,3.421A31.7,31.7,0,0,0,1748.49,1901.871Zm-3.4-6.143c-5.378-1.8-11.215.862-12.5,2.482a1.616,1.616,0,0,0-.143.208.124.124,0,0,1-.016.029,1.8,1.8,0,0,1,.8-.372.953.953,0,0,0-.523,1.22,15.033,15.033,0,0,0,8.563,7.8,14.832,14.832,0,0,0,11.635-1.064.921.921,0,0,0,.26-1.24,1.847,1.847,0,0,1,.386.674,3.879,3.879,0,0,0-.256-1.645,13.917,13.917,0,0,0-8.209-8.1Z" transform="translate(-1675.343 -1840.105)"/></g><rect class="h" width="145" height="145"/></svg>