<svg xmlns="http://www.w3.org/2000/svg" width="200" height="200" viewBox="0 0 200 200"><defs><style>.a{fill:#fff;}.b{fill:#03202f;}.c{fill:#a71930;}.d{fill:none;mix-blend-mode:multiply;isolation:isolate;}</style></defs><g transform="translate(-101.576 -1176.619)"><path class="a" d="M243.417,1224.574c37.078,28.235,8.861,32.462-20.094,36.586,0,0-12.218-3.373-33.391-13.9-48.019-23.866-32.9-35.111,4.839-41.915-60.4-26.332-110.745,19.514-55.208,64.094l-15.24,10.9c12.519,7.68,38.456,23.789,34.687,48.458l-12.873,9.207,39.314,17.827,31.022-14.067c.225-13.662,24.625-20.758,35.124-48.548,57.794-13.269,43.074-64.142-8.18-68.645"/><path class="b" d="M198.716,1308.916l-11.146-12.685-12.8,1.909,5.914-9.75L169.546,1275.7l14.8,6.666,5.9-9.753,3.228,13.866,14.8,6.656-12.8,1.914,3.241,13.871ZM217,1263.763c-72.547-28.039-77.352-51.043-32.068-58.992-56.633-15.4-89.666,25.673-33.632,64.842l-15.035,10.755c15.965,10.673,32.884,26.482,27.145,51.361l-7.576,5.412,29.1,13.2c27.079-29.681,41.242-58.518,32.068-86.578Z"/><path class="c" d="M253.828,1228.991c24.9,19.506,7.61,31.969-22.744,35.356,7.679,32.393-15.868,62.063-40.8,85.037l22.858-10.363c1.691-13.166,24.882-20.013,35.872-49.226,51.616-11.524,43.192-48.593,4.812-60.8"/></g><rect class="d" width="200" height="200"/></svg>