<svg xmlns="http://www.w3.org/2000/svg" width="200" height="200" viewBox="0 0 200 200"><defs><style>.a{fill:#b0b7bc;}.b{fill:#fff;}.c{fill:#0076b6;}.d{fill:none;mix-blend-mode:multiply;isolation:isolate;}</style></defs><g transform="translate(-1324.775 -855.768)"><path class="a" d="M1493.417,930.968a8.083,8.083,0,0,1,4.578-1.879,6.682,6.682,0,0,1,4.846,1.762,10.854,10.854,0,0,1,3.89.3c2.023.559,4.881,2.229,5.994,4.175a6.263,6.263,0,0,1,.085,6.3,4.789,4.789,0,0,1-.562,3.227,7.623,7.623,0,0,1-2.509,2.721,7.9,7.9,0,0,1-3.84,3.877c-2.782,1.232-6.435-.16-6.435-.16a23.2,23.2,0,0,1-3.628.4,13.551,13.551,0,0,1-4.439-1s-1.863,2.735-2.383,3.387a17.527,17.527,0,0,0,5.328,3.087c2.778.872,4.963,1.271,6.236,2.182a6.278,6.278,0,0,1,1.75,1.811,11.294,11.294,0,0,1,3.807.138,10.311,10.311,0,0,1,5.478,3.856,8.362,8.362,0,0,1,1.708,6.826,5.448,5.448,0,0,1-1.956,3.255,9.748,9.748,0,0,1-2.015,3.538,5.418,5.418,0,0,1-3.27,1.446,5.94,5.94,0,0,1-3.8,1.854,6.533,6.533,0,0,1-4.7-1.078,13.724,13.724,0,0,1-5.11-.67,10.831,10.831,0,0,1-4.948-3.922,15.239,15.239,0,0,0-5.45-1.083c-3.535-.161-11.429-1.75-14.945-3.8,0,0-2.067,1-8.332,1.323a10.287,10.287,0,0,0-2.744-4.249s-5.385,2.989-7.087,3.778a23.365,23.365,0,0,1-7.621,2.34,27.892,27.892,0,0,1-2.034,6.918,11.113,11.113,0,0,1-5.958,4.937,10.755,10.755,0,0,1,4.736,3.524c1.623,2.427,2.181,5.087,1.071,7.23a6.042,6.042,0,0,1-2.37,2.729,5.771,5.771,0,0,1-3.144,3.291,10.931,10.931,0,0,1-5.664.53,9.54,9.54,0,0,1-4.138.9c-2.4-.021-5.4-2.059-5.4-2.059s-7.852.718-10.188.522a6.974,6.974,0,0,1-6.421-4.609,19.043,19.043,0,0,1-3.575,2.233,67.658,67.658,0,0,0-9.123,5.1l.1,1.551s4.265,1.607,4.538,5.976-2.106,5.993-2.783,6.456a6.961,6.961,0,0,1-2.854,2.962,6.872,6.872,0,0,1-4.094.533s-4.795,2.13-8.45-1.368a8.665,8.665,0,0,1-2.58-8.186c.035-.91.3-8.919.264-9.29a7.822,7.822,0,0,1-1.419-5.17c.4-2.74,2.5-4.452,3.492-5.283a8.646,8.646,0,0,0,2.778-4.329c.595-2.1.636-6.4.835-7.988s.284-4.252.284-4.252-7.187-1.982-10.922-6.155a22.175,22.175,0,0,1-5.725-11.319c-.947-4.131-1.619-8.307-5.413-10.649a8.937,8.937,0,0,1-5.338-.439c-2.857-1.151-4.608-3.456-6.431-5.72s-8.333-3.3-10.644-3.415a31.681,31.681,0,0,1,11.477-7.71c6.589-2.3,9.725-1.391,11.91-.158a10.039,10.039,0,0,1,4.71,6.124,22.465,22.465,0,0,1,7.24,5.319,23.674,23.674,0,0,1,5.283,10.286c.952,3.779,2.151,8.355,9.725,10.017a71.764,71.764,0,0,1,6.189-5.609,18.05,18.05,0,0,1,4.469-1.919c.613-.182,3.5-1.121,3.5-1.121s4.534-3.7,5.273-4.439c0,0,1.691-3.006,2.762-4.753a24,24,0,0,1,2.751-3.481,19.383,19.383,0,0,1-2.08-8.572,9.027,9.027,0,0,0,2.055.633,11.815,11.815,0,0,1,2.081-6.377,31.017,31.017,0,0,1,4.306-4.982,14.958,14.958,0,0,1,2.278-7.85s-1.86-2.982-2.02-4.888a34.79,34.79,0,0,0,5.44-.954c2.345-.675,3.494-1.149,4.686-2.586s4.047-4.924,7.661-6.635a22.037,22.037,0,0,1,10.5-2.1,12.67,12.67,0,0,0-3.717-2.148s3.33-2.452,9.884-3.153a18.472,18.472,0,0,1,.757-5.071s8.7,5.958,13.066,7.67,7.542,2.265,9.806,3.38a8.584,8.584,0,0,1,4.229,4.421,23.2,23.2,0,0,1,4.3,2.25c1.864,1.31,2.946,4.473,2.946,4.473a54.3,54.3,0,0,1,7.182,3.63,51.867,51.867,0,0,1,8.132,6.915,14.034,14.034,0,0,0-5.224,4.714s-1.1,3.85-2.922,5.747" transform="translate(0 0)"/><path class="b" d="M1488.885,933.079a12.385,12.385,0,0,1,3.084.369,13.465,13.465,0,0,1,2.359.879,17.754,17.754,0,0,0,1.6-1.143,5.079,5.079,0,0,1,3.589-1.078,4.316,4.316,0,0,1,2.734,1.705,23.529,23.529,0,0,0,2.373.011,7.824,7.824,0,0,1,4.934,1.677c1.688,1.344,3.224,3.329,1.177,5.979a3.7,3.7,0,0,1-2.333,4.764s-.962,2.868-3.208,3.6-5.073-.642-5.073-.642a18.556,18.556,0,0,1-4.565.51,9.126,9.126,0,0,1-4.005-1.754,3.229,3.229,0,0,0-.892.909c-.441.641-3.736,5.263-4.5,6.077a24.67,24.67,0,0,0,6.414,4.441,31.065,31.065,0,0,0,5.647,1.747,5.445,5.445,0,0,1,3.358,3.3,13.567,13.567,0,0,1,3.389-.406c1.344.1,2.654.366,5,2.785s1.815,4.609,1.445,5.612a4.925,4.925,0,0,1-1.766,1.872,5.081,5.081,0,0,1-1.327,3.1,8.667,8.667,0,0,0-5.168,2.622,5.177,5.177,0,0,1-4.34-1.045,12.907,12.907,0,0,1-5.7-.806,7.94,7.94,0,0,1-3.3-3.284,24,24,0,0,0-7.777-1.591c-3.961-.032-11.634-2.175-14.148-4.011a21.1,21.1,0,0,1-6.89,1.786,10,10,0,0,0-4.274-4.879s-7.125,3.951-9.677,5.127-7.042,1.6-7.7,1.673a7.083,7.083,0,0,1-.052,2.828c-.347,1.746-1.415,5.178-2.321,6.319a13.976,13.976,0,0,1-4.9,3.089,47.132,47.132,0,0,0-4.873,1.778,23.194,23.194,0,0,0-4.244,3.089,19.935,19.935,0,0,0,3.094.571,13.9,13.9,0,0,0,2.937-1.1,6.293,6.293,0,0,1,5.708.7c2.115,1.579,3.223,3.626,3.15,5.177a103.407,103.407,0,0,1-4.826,6.282c-1.855.67-4.927.063-4.927.063a7.358,7.358,0,0,1-3.2,1.044c-1.745.1-4.094-1.409-4.464-1.609a2.565,2.565,0,0,0-1.38-.4c-.642,0-7.552.572-9.7.572a4.874,4.874,0,0,1-4.532-2.723c-.908-1.681.365-4.369,1.176-5.439s2.083-2.56,2.243-2.864a.823.823,0,0,0-.23-1.106c-.437-.3-1.838-.994-1.838-.994s-2.124,4.256-2.929,5.7a10.932,10.932,0,0,1-3.861,4.3c-2.018,1.245-6.284,3.129-8.528,4.5a23.142,23.142,0,0,0-3.587,2.645s.023,4.049.145,4.549a8.08,8.08,0,0,1,2.838,1.1,4.395,4.395,0,0,1,1.574,3.43c-.028,1.578-.239,3.436-2.205,4.17a4.274,4.274,0,0,1-2.091,2.648,5.048,5.048,0,0,1-3.126.07,7.357,7.357,0,0,1-4.329.6,5.491,5.491,0,0,1-4.1-5.075c-.032-2.321.366-10.717.366-11.26a3.436,3.436,0,0,0-.4-1.843c-.405-.739-1.348-2.586-1.106-3.764a7.524,7.524,0,0,1,2.549-3.5,8.6,8.6,0,0,0,3.124-3.762,23.854,23.854,0,0,0,1.311-6.451c.067-1.978.308-8.429.743-10.177,0,0-8.335-1.85-12.095-6.15s-4.4-7.732-5.472-12.333-2.447-8.126-6.824-10.417a6.777,6.777,0,0,1-5.361-.166c-3.025-1.312-4.672-4.739-6.28-5.953s-6-1.9-6.877-1.876c0,0,5.227-3.63,8.823-4.706s7.492-1.41,9.939.542a8.683,8.683,0,0,1,2.818,5.307s5.04,2.083,7.964,5.676a22.064,22.064,0,0,1,4.36,9.206c.573,2.251,2.345,6.752,5.188,8.738a17.24,17.24,0,0,0,7.912,2.94s4.9-5.125,6.583-6.235a14.955,14.955,0,0,1,4.358-1.781c.809-.232,3.6-1.158,3.6-1.158s4.941-4.257,5.891-4.992c0,0,2.865-4.969,3.671-6.148s2.972-3.937,2.972-3.937a8.645,8.645,0,0,1-1.956-5.192,8.34,8.34,0,0,0,1.906.16,5.984,5.984,0,0,1-.5-3.965c.471-2.318,2.983-6.084,6.344-8.975a15.725,15.725,0,0,1,.569-4.762,14.728,14.728,0,0,1,2.14-4.176,9.52,9.52,0,0,1-1.774-3.385,27.119,27.119,0,0,0,4.91-.94,12,12,0,0,0,3.626-2.106s3.856-5.326,8.555-7.006a24.066,24.066,0,0,1,9.5-1.162,25.959,25.959,0,0,1,3.358-1.889,12.767,12.767,0,0,0-3.414-2.749,22.139,22.139,0,0,1,6.965-.839,19.535,19.535,0,0,1,.441-3.674s5.821,4.2,8.475,5.373,7.718,2.857,9.436,3.4,4.615,1.652,5.228,4.755c0,0,2.823,1.188,3.936,1.8a6.926,6.926,0,0,1,2.484,2.657,11.869,11.869,0,0,0,.752,1.813,2.448,2.448,0,0,0,1.259.968,45.232,45.232,0,0,1,7.29,3.868c2.144,1.619,5.072,4.4,5.072,4.4a27.16,27.16,0,0,0-3.63,3.4,21.357,21.357,0,0,1-2.281,5,8.406,8.406,0,0,1-3.524,2.9v.7" transform="translate(-0.573 -0.505)"/><path class="c" d="M1483.392,955.589s-7.64,7.7-14.535,11.422a24.914,24.914,0,0,1-5.709,1.877,10.839,10.839,0,0,0-5.887-4.91s-8.312-3.184-20.33-.68c0,0,11.433-.836,17.161,2.468a89.078,89.078,0,0,1-8.07,4.1c-3.212,1.252-7.4,1.164-9.01,1.432a18.383,18.383,0,0,1,.714,3.747c-.087.89-.978,5.358-2.491,6.607s-5.444,2.495-7.493,3.215-6.6,3.566-8.03,7.492c0,0,5.353,1.165,6.779,1.337s2.765-.624,3.749-1.067a3.614,3.614,0,0,1,3.566.087,4.986,4.986,0,0,1,2.229,2.857c.268.891-.709,1.691-2.319,1.964,0,0,.18,1.875-.8,2.318s-3.391.182-4.734-.269a3.448,3.448,0,0,1-2.76,1.255c-1.871,0-3.123-1.967-5.083-2.055s-8.116.714-10.347.537-2.407-1.517-1.961-2.771,3.21-4.012,3.657-5.265c.386-1.088.728-2.989-3.726-4.762a34.839,34.839,0,0,1,8.444-7.243,72.7,72.7,0,0,1,15.583-7.58,37.954,37.954,0,0,0-10.5,3.043,39.65,39.65,0,0,0-10.969,6.758s.515-2.011,6.533-7.363l-.063.043c-8.227,3.749-11.664,12.216-11.726,12.347-1.038,2.115-3.908,7.881-5,9.043-1.334,1.427-5.079,2.767-7.842,4.37s-6.338,3.663-6.783,5,.1,7.4.267,7.767c0,0,3.125.266,3.746,1.068a2.978,2.978,0,0,1,.176,2.857c-.352.451-1.691.451-1.691.451s.089,1.777-.8,2.313-2.852-.262-2.852-.262a2.687,2.687,0,0,1-1.872.977,2.82,2.82,0,0,1-2.944-1.336c-.625-.983-.354-2.321-.354-3.395s.441-8.568.263-10.352-1.694-3.03-1.426-4.194,3.566-3.036,4.634-5a20.219,20.219,0,0,0,2.318-9.1c.268-4.553.268-8.751.984-11.07.092-.292.179-.568.258-.838-2.9-.545-9.1-2.253-12-4.793a15.29,15.29,0,0,1-5.418-9.379,37.709,37.709,0,0,0-3.678-10.5c-1.559-2.746-6.323-5.211-6.323-5.211a4.486,4.486,0,0,1-4.921.161,10.709,10.709,0,0,1-4.541-4.24,5.685,5.685,0,0,0-3.4-1.742c6.547-2.555,9.789.966,9.789.966s-.165-1.771-2.686-2.421a16.435,16.435,0,0,0-2.733-.525,12.551,12.551,0,0,1,1.279-.428,7.561,7.561,0,0,1,5.679.789c1.839,1.244,2.5,5.006,2.5,5.006.9.556,6.25,3.218,7.99,5.442a19.438,19.438,0,0,1,3.753,7.485c.766,2.991,1.8,7.371,6.249,11.055,3.412,2.82,8.449,3.48,10.615,3.634.087-.118.171-.235.266-.355,1.515-1.965,6.066-6.245,7.4-6.867s6.693-1.971,7.319-2.591,5.888-4.822,6.331-5.445,2.856-4.908,4.28-7.054a74.062,74.062,0,0,1,5-6.061s-3.029-.094-3.828-1.434c0,0,3.3-1.454,3.6-3.328.169-1.107-.593-1.9-2.832-.983a12.16,12.16,0,0,1,2.162-4.789,35.074,35.074,0,0,1,6.87-6.694c1.789-1.292,2.408-2.942,1.96-3.835s-2.41-.986-3.75.535c0,0,1.254-3.75,3.571-5.352a3.579,3.579,0,0,1-2.317-1.7,9.9,9.9,0,0,0,4.37-.894c1.786-.977,6.426-3.92,8.2-4.01a4.867,4.867,0,0,0-3.654.09,15.523,15.523,0,0,1,8.651-4.911c5.24-.8,9.9.624,12.037-.357a4.22,4.22,0,0,0-3.3-1.246s2.858-1.7,4.642-1.7a10.078,10.078,0,0,0-3.661-2.589s4.638.181,6.336.985a4.181,4.181,0,0,1-.98-2.859,28,28,0,0,0,8.825,5c5.262,1.785,8.476,2.409,9.368,3.835s.358,2.232.358,2.232,3.832,1.612,5.172,2.317a4.931,4.931,0,0,1,2.048,2.864,5.05,5.05,0,0,0,1.784,2.319,53.9,53.9,0,0,1,6.777,3.3,33.794,33.794,0,0,1,4.193,3.214s-2.049,1.156-2.49,2.141-1.344,5.708-5.179,6.958a4.662,4.662,0,0,0,.278-3.925s-4.557-.269-7.77,1.7c0,0-.578,3.838,1.473,4.913s4.412-2.153,4.684-2.865c0,0-.068,1.808,0,3.028l.547.089a17.369,17.369,0,0,1-.1,3.133,5.342,5.342,0,0,1,4.017-.715c2.494.444,3.118,1.249,3.924,1.249a6.315,6.315,0,0,0,2.935-1.607,2.288,2.288,0,0,1,2.235-.625c.8.267,1.248,1.519,1.248,1.519a25.717,25.717,0,0,0,4.016.086c.978-.18,2.939.9,3.475,1.339s1.162,1.164.977,1.7-1.426,1.335-1.426,1.335a5.661,5.661,0,0,1,.625,2.318c-.087.894-1.961,1.248-1.961,1.248s-.624,2.411-1.782,3.032-4.461-.71-4.461-.71a12.455,12.455,0,0,1-4.189.627,4.862,4.862,0,0,1-3.483-1.788,4.05,4.05,0,0,0-3.035.894c-1.328,1.163-4.095,6.249-6.863,8.746Zm-18.684-15.009c3.165,3.411.893,6.52.893,6.52,3.3-.688,12.618-4.093,17.7-8.2,0,0-3.677-1.962-6.332-2.112-2.367-.135-3.823,2.458-3.986,5.015a16.719,16.719,0,0,1-4.632,1.71l.007-.049c.066-.413.4-3.476-3.325-5.388-3.892-2-11.475-3.282-19.667,1.152,8.191-3.08,16.792-1.384,19.339,1.352Zm-32.563-1.009c5.29-1.253,8.619-4.266,11.434-5.642a21.645,21.645,0,0,1,13.178-2.195s-8.043-3.38-15.654.664-11.247,6.21-18.925,6.481a16.677,16.677,0,0,0,9.966.692Zm19.206-16.223a15.889,15.889,0,0,0-13.2,3.651,29.247,29.247,0,0,1,12.337-1.722c6.355.669,12.323,5.478,12.323,5.478A17.528,17.528,0,0,0,1451.352,923.348Zm26.828-8.439a31.391,31.391,0,0,0-3.6.646,16.076,16.076,0,0,1,3.464,1.084c.72.5,3.021,2.235,3.021,2.235s-.572-.722-.436-1.082a18.838,18.838,0,0,1,1.154-1.736c-1.154-.071-2.809-1.148-3.6-1.148Zm31.787,56.208c.271,1.159-.977,1.875-2.047,1.875,0,0,.27,2.5-.628,3.123s-2.583-.272-2.583-.272-.09,1.788-1.427,2.233-2.942-1.16-2.942-1.16a10.625,10.625,0,0,1-5.26-.445,4.686,4.686,0,0,1-2.59-2.942,25.508,25.508,0,0,0-6.868-1.961c-2.9-.31-9.172-.628-14.477-3.159a67.192,67.192,0,0,0,7.983-5.435,76.513,76.513,0,0,0,6.078-5.658,27.657,27.657,0,0,0,5.95,4.346,29.13,29.13,0,0,0,6.774,2.318,3.361,3.361,0,0,1,2.138,1.963,2.892,2.892,0,0,0,2.592,1.519c1.25-.092,2.855-.8,4.28,0a6.863,6.863,0,0,1,3.027,3.658Z" transform="translate(-1.33 -1.05)"/></g><path class="d" d="M0,0H200V200H0Z"/></svg>