<svg xmlns="http://www.w3.org/2000/svg" width="200" height="200" viewBox="0 0 200 200"><defs><style>.a{fill:#fff;}.b{fill:#002a5c;}.c{fill:#4495d1;}.d{fill:#bbc4ca;}.e{fill:#da2128;}.f{fill:none;mix-blend-mode:multiply;isolation:isolate;}</style></defs><g transform="translate(-92.932 -2099.01)"><path class="a" d="M156.693,2209.949a32.071,32.071,0,0,0,3.47,11.419c3.1,6.009,9.629,14.032,23.1,18.548a54.41,54.41,0,0,0,7.5,9.329,54.069,54.069,0,1,0,46.909-91.653,37.088,37.088,0,0,0-33.587-8.584q-.392.112-1.119.336c-5.449,1.791-8.248-.261-10.076-1.679a58.559,58.559,0,0,0-6.345-4.4c-7.24-4.068-17.5-4.217-26.122-.709-5.71,1.94-8.584-.56-10.263-1.754-11.27-7.8-25.152-9.666-39.857-6.419-9.926,2.164-13.882,4.179-13.882,4.179a63.3,63.3,0,0,1,13.882,3.955c5.822,2.427,10.45,5.561,13.957,11.158,0,0,2.2,3.247.784,4.18-1.605,1.082-3.284-1.53-3.284-1.53-.037,1.866-.037,3.769.075,5.187.821,14.964,3.881,23.958,11.083,30.788,3.284,3.134,8.808,6.157,17.391,9.516,3.881,1.567,5.971,3.583,6.382,8.136" transform="translate(0 0)"/><path class="b" d="M266.3,2175.553a50.229,50.229,0,0,0-28.586-14.292,33.8,33.8,0,0,0-31.05-8.509c3.62.522,6.009,2.687,5.075,5.075-.6,1.567-3.209,1.642-4.44,1.679-3.806.037-7.091-2.276-9.7-4.4-2.724-2.2-7.166-6.158-11.121-8.36-7.389-4.179-19.182-3.657-27.691,1.791,5.075.336,11.2,1.829,14.853,4.852,2.052,1.679,4.627,5.075,2.5,6.68-1.866,1.38-6.457.671-8.808-.672a38.524,38.524,0,0,1-9.068-7.763c-13.4-15.935-32.5-16.831-48.215-12.949,10.337,2.911,17.241,8.77,21.5,18.921s7.576,14.479,14.591,17.2c4.4,1.717,5.6,2.052,5.225,3.993-.522,2.836-5.71,1.492-9.665-.075-4.851-1.9-11.2-7.091-15-16.868.709,12.651,3.1,21.607,10.226,28.4,3.022,2.874,8.583,5.859,17.316,9.218,5.561,2.127,9.964,3.433,14.106,7.128,4.814,4.329,2.761,7.165-.448,6.643-3.619-.6-6.195-4.329-6.195-4.329s0,20.6,25.488,28.549a51.889,51.889,0,0,0,7.688,9.778,50.6,50.6,0,1,0,71.428-71.689" transform="translate(-1.609 -0.46)"/><path class="c" d="M266.847,2179.971a46.364,46.364,0,0,0-27.877-13.4c-9.069-9.031-18.1-8.621-18.1-8.621,3.956,2.5,1.9,8.024-6.9,9.255-8.733,1.194-19.854-1.753-25.227-8.061-5.561-6.493-9.778-6.792-9.778-6.792,4.814,3.022,5.187,6.643,8.1,12.166,2.948,5.523,8.956,7.5,14.218,7.837,5.561.373,5.673,2.874,1.194,5.523-4.888,2.874-9.181.15-12.315-2.91-4.963-4.888-9.89-5.822-16.682-5.748-6.83.075-15.823.971-23.436-1.865s-12.613-12.838-12.613-12.838c3.768,13.285,12.128,19.593,19.853,21.085,10.263,2.015,17.316,4.441,21.645,7.949a23.384,23.384,0,0,1,8.061,11.569c1.231,3.658,1.455,8.472.224,8.77-1.418.336-1.717-1.6-3.358-5a18.425,18.425,0,0,0-8.472-9.031c-6.009-3.209-11.867-3.023-17.839-2.948a39.327,39.327,0,0,1-7.538-.485s.186.634,7.912,2.388c8.62,1.94,16.943,6.792,22.465,18.622,4.7,10.076,2.239,17.13-8.173,13.92,0,0,4.889,10.859,20.824,14.7a46.776,46.776,0,1,0,73.816-56.09" transform="translate(-4.842 -2.302)"/><path class="a" d="M240.728,2170.72a44.467,44.467,0,1,1-31.459,13.024,44.239,44.239,0,0,1,31.459-13.024" transform="translate(-11.787 -4.471)"/><path class="b" d="M241.28,2256.321a40.621,40.621,0,1,1,40.566-40.677,40.629,40.629,0,0,1-40.566,40.677" transform="translate(-12.301 -4.985)"/><path class="a" d="M232.528,2210.729H220.512l-3.993,7.09-5.336-15.15h62.471l-5.337,15.15-3.918-7.09H252.531l-10,43.886Z" transform="translate(-13.551 -8.243)"/><path class="d" d="M273.653,2202.668H211.182l1.045,2.873h29.78l-9.479,5.188,10,43.886v-49.074h30.117Z" transform="translate(-13.551 -8.243)"/><g transform="translate(120.979 2138.914)"><path class="e" d="M207.5,2161.006c-9.068-.261-12.763-3.844-18.361-8.359a18.964,18.964,0,0,0-14.516-3.993c4.59-2.612,13.546-2.724,20.04,2.948,5.785,5.075,8.621,7.837,12.837,9.4" transform="translate(-130.213 -2140.575)"/><path class="e" d="M124.267,2140.228s8.471-.186,15.86,13.1c6.233,11.158,18.1,13.4,26.8,10.934a22.416,22.416,0,0,1-17.727-11.382c-6.382-11.382-14.852-14.517-24.928-12.651" transform="translate(-124.267 -2139.725)"/><path class="e" d="M173.445,2209.394s-1.194-12.352-18.808-15.935c-17.727-3.62-20-12.838-20-12.838s.112,13.286,15.375,17.391c10.673,2.836,18.473,4.478,23.435,11.382" transform="translate(-125.491 -2144.554)"/><path class="e" d="M251.443,2195.769l-2.389-7.128,6.046-4.4h-7.5l-2.351-7.128-2.276,7.128-7.5.112,6.12,4.33-2.276,7.165,6.046-4.478Z" transform="translate(-137.398 -2144.139)"/><path class="e" d="M221.455,2226.829l-4.963,5.635-6.9-3.022,3.844,6.456-5,5.6,7.315-1.6,3.806,6.456.709-7.464,7.352-1.6-6.9-2.985Z" transform="translate(-134.205 -2150.01)"/><path class="e" d="M263.1,2237.433l7.39,1.493.821,7.464,3.694-6.531,7.352,1.53-5.075-5.56,3.732-6.493-6.83,3.1-5.075-5.561.858,7.464Z" transform="translate(-140.661 -2150.015)"/></g></g><rect class="f" width="200" height="200"/></svg>