<svg xmlns="http://www.w3.org/2000/svg" width="200" height="200" viewBox="0 0 200 200"><defs><style>.a{fill:#024;}.b{fill:#fb4f14;}.c{fill:#fff;}.d{fill:none;mix-blend-mode:multiply;isolation:isolate;}</style></defs><g transform="translate(-1017.102 -858.543)"><path class="a" d="M1118.289,1011.042a1.5,1.5,0,0,1-.261.738,1.3,1.3,0,0,1-.719.337,1.433,1.433,0,0,1-1.193-.254,1.143,1.143,0,0,1-.476-.8l0-.016,0,0-3.187-10.365a38.449,38.449,0,0,0-9.718-16.064c-6.323-6.093-15.643-10.308-28.495-12.879-11.2-2.242-18.574-4.17-23.905-6.249a36.028,36.028,0,0,1-11.095-6.575c-7.539-6.38-12.794-14.514-13.135-24.76,0,0,7.5,10.59,15.744,5.533,3.9-2.39,6.7-2.049,6.7-2.049a19.311,19.311,0,0,1-4.906-10.417,29.305,29.305,0,0,1,.773-10.475,27.714,27.714,0,0,1,6.116-11.208s-1.778,15.436,5.609,20.912a14.279,14.279,0,0,0,9.229,1.529s-6.134-2.838-6.993-11.948a28.423,28.423,0,0,1,.373-7.957s8.1,11.421,16.21,6.73c1.814-1.048,11.389-5.993,15.516-7.09a36.039,36.039,0,0,1,17.825-.335,40.011,40.011,0,0,1,13.895,6.5,59.516,59.516,0,0,1,14.85,15.866s15.9-.7,24.605,10.414l.012.017,20.128,8.877-2.282,1.458-.1.065.1.065c6.514,4.137,17.909,11.468,21.011,14.112l.007.006.011.005,5.766,2.74-1.052,2.789v0c-.07.187-1.634,4.658,1.318,6.87l1.484,1.112.031.024-.014.035-4.532,12-1.149-1.54c-6.323-8.708-12.3-10.316-15.3-10.377-3.4-.072-3.639,1.738-3.217,2.518,1.366,2.523,8.984,3.83,11.807,4.118l1.921.25-7.337,6.568-13.3-.835-.055,0,.005-.055.224-2.61v-.016c-.068-.495-.968-4.952-11.846-9.426l-.031-.011-.031.013a28.947,28.947,0,0,1-10.3,2.576,24.016,24.016,0,0,1-15.47-4.492l-.031-.019-.039.009a39.051,39.051,0,0,0-9.232,4.6c-6.834,4.695-10.563,10.834-11.082,18.249,0,0-.6,6.111-.784,11.184" transform="translate(0 0)"/><path class="b" d="M1075.482,929.052c14.814-4.545,24.841-3.837,28.264,1.983a123.443,123.443,0,0,0-37.384,10.606c-6.126-.417-11.754-2.915-15.057-6.689-4.165-4.758-5.541-11.852-2.669-20.8.205,7.717,2.451,12.247,6.179,14.8,4.373,2.993,11.133,3.025,20.667.1Zm46.045-12.111a58.809,58.809,0,0,1,13.789,15.129,106.118,106.118,0,0,0-23.478-1.667c-2.329-4.655-6.272-8.068-10.558-9.133-4.758-1.181-10.856-.27-18.127,2.708-6.528,2.674-11.735,2.969-15.479.88a11.467,11.467,0,0,1-4.852-5.671,22.392,22.392,0,0,1-1.467-5.235l.09.092c1.985,2.056,7.256,7.518,15.41,3.3,3.1-1.606,11.381-5.668,15.043-6.653a32.284,32.284,0,0,1,16.652-.159,37.41,37.41,0,0,1,12.977,6.413Zm-89.933,25.145s4.476,4.261,12.008.406c8.468-4.334,9.911.452,16.984,2.684-25.55,14.668-28.992-3.089-28.992-3.089Z" transform="translate(-0.571 -0.413)"/><path class="c" d="M1203.679,975.493a12.789,12.789,0,0,1,.656-3.876l-3.432-1.6-.013,0-.007-.011c-2.119-2.29-25.065-16.709-25.3-16.856l-.087-.054.085-.055,1.7-1.129-15.551-6.581-.017-.009-.012-.016c-6.312-9.433-18.751-9.808-21.14-9.79,4.739,1.463,6.186,2.9,6.551,3.863a1.221,1.221,0,0,1-.011,1.057l-.026.042-.046-.012c-53.655-14.613-97.548,19.008-99.388,20.445,2.107,2.124,6.843,4.986,23.863,8.763,3.8-2.965,21.9-15.828,49.232-15.071l-4.433-6.693s16.926,4.4,26.589,9.76a15.225,15.225,0,0,0,25.02,13.133l12.142,7.742-11.649-4.516a19.83,19.83,0,0,1-31.363-14.164c-26.222-6.579-45.555,9.988-49.418,13.635a66.613,66.613,0,0,1,8.619,3.361,46.937,46.937,0,0,1,8.567,5.229c1.943-2.367,9.685-10.5,24.535-10.621,0,0-14.579,3.769-19.228,15.635a41.92,41.92,0,0,1,7.89,14.65,25.51,25.51,0,0,1,4.377-12.5,31.02,31.02,0,0,1,8.287-8.075,40.922,40.922,0,0,1,11.61-5.422l.031-.009.025.021c11.814,9.514,24.819,2.022,24.949,1.944l.026-.014.031.011a42.745,42.745,0,0,1,9.125,4.628,18.841,18.841,0,0,1,4.535,4.25,7.325,7.325,0,0,1,1.7,4.276l8.81.577,2.585-2.205c-8.007-1.037-10.434-3.523-10.93-5.652-.861-5.138,4.389-5.772,6.781-5.461,5.577.728,12.358,5.719,14.911,9.191l1.89-5.069a8.078,8.078,0,0,1-3.075-6.748" transform="translate(-2.241 -3.117)"/><path class="a" d="M1185.695,956.519a2,2,0,1,1-3.34-1.749c-5.89-2.888-8.971-3.327-8.971-3.327,7.134,4.731,10.178,8.677,10.178,8.677l1.928-1.314,18.04,10.06a122.91,122.91,0,0,0-17.834-12.346" transform="translate(-15.321 -4.775)"/><path class="b" d="M1182.7,956.457a2,2,0,0,0,3.967.447q-.426-.236-.839-.458l-1.969,1.444.547-2.193q-.554-.286-1.08-.542a2,2,0,0,0-.626,1.3" transform="translate(-16.289 -5.161)"/><path class="a" d="M1183.989,957.953l1.969-1.444c-.488-.265-.962-.513-1.421-.748l-.547,2.193" transform="translate(-16.425 -5.224)"/><path class="a" d="M1218.452,976.232c-4.247,1.7,1.227,6.563,1.227,6.563-11.9-9.387-1.227-6.563-1.227-6.563" transform="translate(-19.552 -7.312)"/><path class="a" d="M1161.176,941.7c7.7.156.058-3.106.058-3.106a13.715,13.715,0,0,1,8.763,5.984,80.009,80.009,0,0,0-8.821-2.878" transform="translate(-14.051 -3.438)"/></g><rect class="d" width="200" height="200"/></svg>