<svg xmlns="http://www.w3.org/2000/svg" width="200" height="200" viewBox="0 0 200 200"><defs><style>.a{fill:#005c5c;}.b{fill:#c4ced4;}.c{fill:#0c2c56;}.d{fill:#fff;}.e{fill:#d50032;}.f{fill:none;mix-blend-mode:multiply;isolation:isolate;}</style></defs><g transform="translate(-152.316 -1819.543)"><path class="a" d="M258.761,1894.225a22.812,22.812,0,0,1,3.933,1.459l3.344-2.132c-2.7-1.447-5.481-3.027-8.134-4.73l.858,5.4Zm-15.01,42.825h.013l-.013-.013Zm-1.672-.834.006.01c-.006-.01-.013-.01-.013-.01Z"/><path class="a" d="M294.737,1919.492c-1.421.244-2.954.513-4.578.784l-.2.035c3.861,7.009,6.175,15.671,6.175,26.467,0,32.433-21.08,55.407-45.469,55.407-15.629,0-21.743-6.163-25.529-7.339l-16.872,6.1v-53.225c4.037.466,7.474,4.14,9.367,7.927,7.492,14.975,15.984,27.678,32.089,27.678,9.473,0,15.746-8.735,15.746-21.159,0-6.912-3.087-12.4-7.652-17.082-.042.257-.079.513-.123.772-.361,2.242-.7,4.362-.955,5.869,2.671,3.811,4.061,7.609,4.061,11.285,0,4.62-1.193,15.342-12.263,15.342-15.145,0-23.717-19.14-27.374-27.312-2.832-6.324-10.782-10.415-15.433-10.93l-2.418-.27v68.273s19.775-7.093,21.245-7.633c.489.221,1,.429,1,.429,5.876,2.512,14.753,6.287,24.163,6.287,25.277,0,51.431-22.423,51.431-59.953a58.975,58.975,0,0,0-6.419-27.752Zm-20.057-21.15c-.351.784-.73,1.618-1.146,2.512,0,0-.27.6-.675,1.482-.043.085-.079.171-.121.269a51.753,51.753,0,0,1,11.555,9.643l.214.038c2.156.368,4.344.734,6.476,1.114a56.788,56.788,0,0,0-16.3-15.057Zm-2.164-60.553a41.489,41.489,0,0,0-23.979-8.247c-18.429,0-45.7,16.934-45.7,53.3,0,12.314,2.677,22.471,8.344,31.036,1.469-.245,3.038-.527,4.693-.8l.632-.111c-5.313-7.412-8.694-17.191-8.694-31.318,0-27.226,21.786-47.553,41.086-47.553,7.931,0,17.6,5.293,22.807,9.434,3.07-1.041,14.3-5.66,14.3-5.66v48.4a15.065,15.065,0,0,1-8.809-6.274c-7.339-12.548-11.954-26.688-24.272-26.688-9.472,0-13.969,6.8-13.969,16.272,0,6.6,3.443,12.486,8.975,17.646.025-.136.045-.283.074-.417.319-2.034.625-3.921.839-5.28-3.129-3.384-5.176-7.182-5.176-11.47,0-3.5.82-11.652,8.43-11.652,8.3,0,12.459,7.78,14.2,12.413a45.3,45.3,0,0,0,10.972,16.407l3-1.729-1.347,2.953h0a19.215,19.215,0,0,0,9.708,4.143l2.39.221v-61.88s-16.672,6.175-18.5,6.849Z"/><path class="b" d="M241.89,1897.044h.006m19.837,39.932h0m7.086,25.338c0,16.3-8.951,24.653-18.52,24.653-27.784,0-33.958-30.485-38.579-33.376v42.457c3.9-.846,12.652-5.441,12.652-5.441,3.86,0,11.26,8.369,25.148,8.369,21,0,43.21-20.585,43.21-51.45,0-11.457-2.67-19.935-6.854-26.566-2.917.468-7.278,1.164-10.844,1.729a23.132,23.132,0,0,1-2.959,6.543c.343.771.57,1.274.57,1.274.582,1.287,7.467,18.011,7.467,18.011s-11.426-7.179-17.521-11a22.209,22.209,0,0,1-3.768,1.409c-.123.723-.244,1.519-.373,2.34,6.151,5.147,10.372,11.443,10.372,21.051Zm1.791-32.459H270.6m-40.295-7.24a1.033,1.033,0,0,1-.189-.024c.079.061.159.123.238.2-.011-.062-.036-.111-.049-.172Zm2.04-20.83a123.608,123.608,0,0,1-6.34-16.431s10.622,6.567,16.671,10.317a23.751,23.751,0,0,1,4.141-1.519c.129-.785.269-1.642.411-2.536-6.888-5.209-11.749-11.616-11.749-21.935,0-12.423,7.558-19.933,15.9-19.933,20.058,0,22.5,24.811,31.172,31.085V1842.9c-3.279,1.312-10.49,4.5-10.49,4.5-1.855,0-4.324-2.353-8.02-4.927a27.533,27.533,0,0,0-15.13-4.717c-17.75,0-37.843,17.791-37.843,44.148,0,13.6,3.577,23.206,8.943,30.509,2.769-.442,6.827-1.1,10.232-1.643a22.883,22.883,0,0,1,3.05-6.86c-.552-1.228-.944-2.121-.944-2.121Zm26.62,36.209h0m16.13-27.3c.688.124,1.417.245,2.146.368-.888-.771-1.8-1.519-2.733-2.229.22.612.417,1.237.588,1.861Zm-43.937-.086v0"/><path class="b" d="M237.908,1899.849c-.313.282-.619.563-.918.859.323-.319.654-.625,1-.92A.273.273,0,0,0,237.908,1899.849Z"/><path class="c" d="M286.865,2001.952h3.05v8.284h2.058v-8.284h3.047v-1.8h-8.154m15.958,6.593h-.05l-2.348-6.593h-3.565v10.086h2.052v-8.027h.056l2.819,8.027h1.99l2.923-8.027h.044v8.027h2.064V2000.15h-3.546"/><path class="d" d="M246.546,1906.22a2.294,2.294,0,0,1-.38.235,1.779,1.779,0,0,1-.611-.234h-.008a.164.164,0,0,1-.061-.084s.759-.527,1.193-.809c.209-1.411.454-3.038.736-4.827s.59-3.774.908-5.82c-.558.124-1.108.245-1.655.393a22.628,22.628,0,0,0-3.124,1.139c-.562.257-1.114.527-1.647.834h-.013c-.306.171-.606.342-.9.527l-.055.036c-.276.173-.538.345-.8.528-.036.024-.079.049-.122.074-.24.17-.479.342-.71.513-.056.049-.111.086-.16.122-.276.209-.546.429-.816.651a1.321,1.321,0,0,1,.306.343,6.4,6.4,0,0,1-.594,1.556s-.16-.148-.276-.27c-.185.049-1.182.355-1.6.454-.247.268-.484.552-.71.82a.234.234,0,0,0-.032.037c-.221.269-.442.55-.651.845a16.994,16.994,0,0,0-1.058,1.543c-.258.4-.49.821-.718,1.25-.036.061-.073.135-.11.195-.227.444-.44.884-.641,1.325,0,.025-.007.025-.007.036-.207.467-.393.944-.569,1.421a.172.172,0,0,1-.013.039c-.185.5-.346,1.016-.484,1.518v.012c-.148.541-.282,1.081-.392,1.644,2.681-.429,5.242-.834,7.484-1.177,3.885-.6,6.826-1.029,7.793-1.115.013-.134.032-.305.055-.513.089-.7.243-1.815.451-3.237Zm-9.2-3.542s-.465-.28-.442-.477c0,0,1.776-.55,1.869-.539l.38.232.386-1.42.03-.135.124.073s.448.258.5.379a7.548,7.548,0,0,1-.587,1.63,3.72,3.72,0,0,1-.4-.27c-.112.025-1.766.527-1.857.527Zm1.348.675s1.726-.649,1.819-.637l.416.207.24-1.432.024-.148.136.074a2.275,2.275,0,0,1,.538.345,7.357,7.357,0,0,1-.424,1.667,3.217,3.217,0,0,1-.439-.258c-.081.036-1.722.637-1.809.637,0,0-.513-.257-.5-.454Zm2.059,1.056s1.684-.711,1.77-.711l.454.183.116-1.434,0-.148.135.061a2.568,2.568,0,0,1,.582.306,7.283,7.283,0,0,1-.284,1.691,3.464,3.464,0,0,1-.465-.233c-.036.012-1.677.71-1.763.71,0,0-.55-.219-.55-.427Zm2.779,1.334a1.647,1.647,0,0,1-.569-.269h-.006a.2.2,0,0,1-.059-.1s1.529-.881,1.61-.893l.5.134-.168-1.409-.016-.171.16.049a2.514,2.514,0,0,1,.649.246,7.027,7.027,0,0,1,.042,1.7s-.349-.1-.539-.172c-.031.012-1.519.871-1.608.882Z"/><path class="d" d="M237.688,1900.818l.3-1.03c-.343.3-.674.6-1,.92a1.5,1.5,0,0,1,.439-.1l.257.209Zm-6.876,20.3c.116.565.259,1.115.411,1.656a22.135,22.135,0,0,0,2.6,5.746c.335.526.685,1.041,1.065,1.532.251.331.513.661.784.968.03.05.056.074.079.111.282.318.569.637.864.943a1.3,1.3,0,0,1-.069-.306s.381-.319.546-.282a10.846,10.846,0,0,1,.444,1.385l-.057.049c.16.16.326.306.5.454l.986.379-.148.121a1.468,1.468,0,0,0-.122.1c.25.207.513.4.784.6a.629.629,0,0,0,.123.084c.232.171.466.331.711.5l.074.035c.256.185.525.345.789.513.013,0,.019.014.037.014.276.16.563.331.851.49a.025.025,0,0,1,.019.01c.545.3,1.1.552,1.665.809l.013.014a22.572,22.572,0,0,0,2.866,1.016q.817.24,1.653.406c-.311-1.973-.611-3.872-.881-5.625-.164-1.09-.323-2.119-.471-3.074a1.914,1.914,0,0,1-.362.049,12.2,12.2,0,0,1-1.293-1.213l-.042-.024.013-.014a.157.157,0,0,1-.043-.1s.361-.1.557-.122a9.222,9.222,0,0,1,.281-1.384,4.607,4.607,0,0,1,.461-.089c-.135-.93-.247-1.714-.326-2.338l-.018.012a.106.106,0,0,0,.012-.037c-.061-.466-.1-.845-.128-1.09-.962-.086-3.86-.515-7.689-1.1-2.256-.353-4.834-.758-7.543-1.2Zm8.136,10.587-.269.232,1.685.651-.14.108a2.368,2.368,0,0,1-.454.333,11.669,11.669,0,0,1-1.652-.762h-.006a.236.236,0,0,1-.069-.085s.2-.159.331-.256a11.772,11.772,0,0,1-.416-1.325s.387-.32.552-.27a11.487,11.487,0,0,1,.438,1.371Zm4.406-2.537a10.665,10.665,0,0,1,.281-1.4s.552-.222.7-.1a13.657,13.657,0,0,1-.289,1.435l-.367.134,1.551,1.029-.195.074a3.394,3.394,0,0,1-.62.2,12.407,12.407,0,0,1-1.452-1.09l-.036-.024h.013a.189.189,0,0,1-.056-.1,4.509,4.509,0,0,1,.466-.158Zm-1.76-.587s.5-.257.664-.16a12.509,12.509,0,0,1-.02,1.433l-.323.173,1.617.931-.184.086a2.666,2.666,0,0,1-.582.22,13.681,13.681,0,0,1-1.507-.98l-.05-.023.013-.013a.18.18,0,0,1-.061-.1s.24-.108.417-.183a10.349,10.349,0,0,1,.018-1.385Zm-1.132.7a11.977,11.977,0,0,1,.1,1.435l-.3.172,1.654.834-.171.1a3.16,3.16,0,0,1-.545.269,12.423,12.423,0,0,1-1.582-.932l-.023-.01h.012c-.037-.04-.061-.062-.061-.089,0,0,.209-.12.369-.194a10.741,10.741,0,0,1-.087-1.384s.479-.283.638-.2Z"/><path class="d" d="M246.049,1928.484l.784.651-.187-1.312a2.5,2.5,0,0,1-.136.54l-.46.122Zm13.515-5.06c-.019.148-.037.355-.069.6-.084.686-.232,1.727-.428,3.039.148-.087.247-.148.269-.16a1.748,1.748,0,0,1,.606.232l.006.013a.135.135,0,0,1,.069.084s-.644.442-1.079.735c-.214,1.421-.472,3.078-.754,4.9-.276,1.738-.569,3.6-.882,5.549h.006c.558-.122,1.109-.257,1.654-.428h.006a19.837,19.837,0,0,0,2.756-1.018h.006c.569-.257,1.127-.527,1.667-.821.311-.185.618-.355.925-.552a.093.093,0,0,0,.042-.024c.27-.172.545-.345.814-.527l.117-.074c.244-.17.49-.341.723-.526.054-.036.1-.073.152-.108.276-.21.552-.43.821-.651a.58.58,0,0,1-.123-.16,6.338,6.338,0,0,1,.589-1.556s.17.148.28.27c.142-.037.681-.208,1.135-.331.3-.319.582-.637.858-.957a.354.354,0,0,1,.086-.108c.269-.332.526-.661.779-.994h.006q.552-.754,1.047-1.542a23.453,23.453,0,0,0,1.4-2.634c0-.014.006-.014.006-.014.2-.44.373-.882.539-1.322a.7.7,0,0,1,.037-.1c.171-.453.331-.932.466-1.408.16-.54.294-1.092.416-1.643-2.622.405-5.11.8-7.3,1.14-3.771.578-6.632,1-7.655,1.093Zm1.11,6.9-.16-.037a3.079,3.079,0,0,1-.651-.244,7.125,7.125,0,0,1-.049-1.7s.362.1.546.173c.043-.024,1.52-.882,1.6-.9a1.559,1.559,0,0,1,.577.282h.007a.137.137,0,0,1,.056.1s-1.519.881-1.6.894l-.5-.148.187,1.581Zm2.308-.649-.453-.185-.129,1.582-.134-.059a2.426,2.426,0,0,1-.588-.32,7.537,7.537,0,0,1,.282-1.679,3.664,3.664,0,0,1,.479.234c.043-.024,1.68-.722,1.759-.722,0,0,.545.231.545.429,0,0-1.68.722-1.76.722Zm2.011.98-.424-.209-.257,1.569-.134-.061s-.483-.232-.545-.356a7.09,7.09,0,0,1,.424-1.653,3.962,3.962,0,0,1,.44.245c.092-.025,1.726-.625,1.808-.625a1.554,1.554,0,0,1,.459.343h.006a.262.262,0,0,1,.043.11s-1.736.636-1.82.636Zm3.608.513s-1.789.553-1.874.527l-.375-.221-.422,1.557-.123-.074s-.44-.257-.5-.38a8.169,8.169,0,0,1,.582-1.63,3.827,3.827,0,0,1,.4.27c.128-.038,1.776-.54,1.862-.528,0,0,.472.283.448.478Z"/><path class="d" d="M267.644,1933.128c.136-.123.27-.256.4-.379l-.245-.2Zm-9.494-32.654c.166,1.1.325,2.144.471,3.113a1.158,1.158,0,0,1,.3-.037,12.728,12.728,0,0,1,1.3,1.2l.05.037-.017.013c.03.038.049.074.042.1a5.008,5.008,0,0,1-.558.121,10.914,10.914,0,0,1-.276,1.385,4.157,4.157,0,0,1-.415.073c.134.944.25,1.729.33,2.342.061.5.11.9.135,1.139.987.1,3.841.5,7.622,1.09,2.224.342,4.767.734,7.438,1.152-.049-.282-.123-.563-.19-.846s-.134-.538-.214-.809a22.156,22.156,0,0,0-2.474-5.647c-.333-.527-.681-1.042-1.056-1.545-.249-.342-.513-.686-.789-1.006a1.18,1.18,0,0,0-.116-.146c-.281-.342-.569-.674-.876-.98a1.5,1.5,0,0,1,.092.368s-.379.332-.551.282a11.255,11.255,0,0,1-.444-1.385l.1-.073-.385-.365-1.121-.431.135-.123s.085-.074.177-.148c-.258-.207-.515-.414-.785-.611-.03-.025-.066-.05-.1-.074-.243-.184-.488-.356-.734-.527a.087.087,0,0,1-.042-.024c-.55-.381-1.115-.725-1.7-1.055-.539-.294-1.092-.575-1.655-.821a22.059,22.059,0,0,0-2.936-1.09c-.544-.16-1.1-.294-1.653-.416.31,2.022.61,3.958.893,5.746Zm4,3.726a12.379,12.379,0,0,1-.281,1.4s-.559.221-.706.1c0,0,.214-1.348.283-1.446l.361-.134-1.551-1.018.2-.073a3.628,3.628,0,0,1,.619-.2,13.142,13.142,0,0,1,1.445,1.08l.042.023-.01.013a.217.217,0,0,1,.055.1s-.269.1-.46.16Zm1.753.587s-.5.257-.663.16a12.3,12.3,0,0,1,.02-1.434l.323-.172-1.611-.931.178-.085a3.32,3.32,0,0,1,.582-.233,12.8,12.8,0,0,1,1.519,1.006l.041.012-.009.011a.2.2,0,0,1,.054.1s-.239.111-.416.172a10.229,10.229,0,0,1-.02,1.4Zm1.771-.894s-.48.27-.639.2a11.032,11.032,0,0,1-.1-1.434l.3-.172-1.653-.833.172-.111a3.358,3.358,0,0,1,.538-.256,11.844,11.844,0,0,1,1.594.93h.012l-.006.013a.139.139,0,0,1,.067.085s-.213.124-.378.2a11.818,11.818,0,0,1,.091,1.387Zm1.706-2.792h.007a.468.468,0,0,1,.069.059,3.3,3.3,0,0,1-.332.283,9.964,9.964,0,0,1,.416,1.322s-.38.32-.551.271a11.368,11.368,0,0,1-.447-1.372l.276-.232-1.685-.652.135-.12a2.266,2.266,0,0,1,.459-.318A11.384,11.384,0,0,1,267.379,1901.1Z"/><path class="d" d="M259.454,1904.885l-.73-.6c.056.381.111.75.168,1.1a1.461,1.461,0,0,1,.1-.38Z"/><path class="e" d="M267.462,1931.976a6.378,6.378,0,0,0-.589,1.556.56.56,0,0,0,.123.16c.05-.05.1-.086.154-.135s.134-.124.2-.172a.336.336,0,0,1,.074-.062c.074-.074.148-.134.221-.2l.158-.577.247.2c.079-.074.158-.16.239-.234.1-.1.2-.195.3-.294s.19-.207.289-.306c-.453.123-.993.294-1.134.332a3.8,3.8,0,0,0-.283-.271Z"/><path class="e" d="M265.893,1930.946a8.169,8.169,0,0,0-.582,1.63c.056.123.5.38.5.38l.123.074.424-1.557.373.221c.085.025,1.874-.527,1.874-.527.024-.195-.448-.478-.448-.478-.084-.01-1.732.49-1.862.527a3.847,3.847,0,0,0-.4-.271Zm.875-1.041h-.005a1.55,1.55,0,0,0-.46-.342c-.079,0-1.717.6-1.808.625a4.06,4.06,0,0,0-.44-.245,7.035,7.035,0,0,0-.424,1.652c.061.124.545.356.545.356l.134.061.257-1.569.424.207c.085,0,1.818-.636,1.818-.636a.248.248,0,0,0-.042-.108Zm-2.572-1.383c-.079,0-1.717.7-1.758.723a3.82,3.82,0,0,0-.479-.233,7.518,7.518,0,0,0-.282,1.679,2.379,2.379,0,0,0,.587.319l.134.059.131-1.581.453.185c.079,0,1.758-.723,1.758-.723C264.74,1928.753,264.2,1928.522,264.2,1928.522Zm-1.6-.528a.136.136,0,0,0-.055-.1h0a1.568,1.568,0,0,0-.577-.281c-.078.013-1.555.871-1.6.9-.184-.074-.545-.172-.545-.172a7.132,7.132,0,0,0,.049,1.7,3.08,3.08,0,0,0,.651.244l.16.037-.184-1.578.5.146c.085-.012,1.6-.9,1.6-.9Zm-2.646-.845-.006-.013a1.721,1.721,0,0,0-.606-.232l-.269.16c-.036.294-.086.587-.128.905.434-.294,1.078-.735,1.078-.735A.14.14,0,0,0,259.95,1927.149Zm-14.188,1.2c-.195.025-.558.123-.558.123a.164.164,0,0,0,.042.1l-.013.012.043.024a12.116,12.116,0,0,0,1.292,1.213,1.738,1.738,0,0,0,.361-.049c-.032-.221-.067-.43-.1-.638l-.784-.649.46-.123a2.251,2.251,0,0,0,.136-.54c-.05-.318-.1-.637-.14-.943a4.266,4.266,0,0,0-.461.087,9.379,9.379,0,0,0-.281,1.384Zm-2.831,1.078.036.025a12.316,12.316,0,0,0,1.452,1.091,3.312,3.312,0,0,0,.62-.195l.195-.074-1.551-1.029.368-.134a13.468,13.468,0,0,0,.29-1.435c-.153-.123-.705.1-.705.1a10.375,10.375,0,0,0-.282,1.4,4.311,4.311,0,0,0-.466.16.2.2,0,0,0,.056.1h-.013Zm-1.771.724a.194.194,0,0,0,.062.1l-.013.012.05.023a13.7,13.7,0,0,0,1.507.98,2.641,2.641,0,0,0,.582-.221l.183-.087-1.617-.931.325-.172a12.74,12.74,0,0,0,.02-1.433c-.161-.1-.664.16-.664.16a10.5,10.5,0,0,0-.017,1.383c-.177.075-.416.185-.416.185Zm-1.336-.673a10.915,10.915,0,0,0,.087,1.384c-.16.074-.368.195-.368.195,0,.025.025.049.062.087h-.012l.023.01a12.344,12.344,0,0,0,1.581.933,3.25,3.25,0,0,0,.546-.27l.171-.1-1.654-.834.3-.171a12.017,12.017,0,0,0-.1-1.434c-.158-.085-.638.2-.638.2Zm-1.868,1.127a11.4,11.4,0,0,0,.416,1.322c-.134.1-.331.258-.331.258a.219.219,0,0,0,.069.085h.005a11.835,11.835,0,0,0,1.653.76,2.315,2.315,0,0,0,.454-.331l.138-.11-1.684-.649.269-.232a11.23,11.23,0,0,0-.44-1.371c-.163-.05-.55.268-.55.268Zm-.858.881c-.165-.037-.545.282-.545.282a1.2,1.2,0,0,0,.069.306c.109.122.213.231.329.341.135.135.269.257.4.38.05.049.086.086.128.124l.057-.049A10.9,10.9,0,0,0,237.1,1931.486Zm1.87,2.266-.986-.379a2.822,2.822,0,0,0,.244.207c.085.075.16.148.245.222l.055.038c.055.049.111.085.172.135a1.57,1.57,0,0,1,.123-.1l.146-.122Zm-.938-32.358a6.407,6.407,0,0,0,.594-1.556,1.436,1.436,0,0,0-.306-.343c-.111.1-.227.195-.332.294l-.3,1.03-.259-.207a1.39,1.39,0,0,0-.44.1c-.092.085-.184.184-.276.282s-.2.2-.3.307-.177.183-.263.281c.424-.1,1.42-.405,1.606-.454C237.87,1901.247,238.03,1901.394,238.03,1901.394Z"/><path class="e" d="M239.6,1902.422a7.443,7.443,0,0,0,.587-1.63c-.049-.121-.495-.379-.495-.379l-.123-.073-.03.133-.387,1.42-.38-.231c-.092-.011-1.869.54-1.869.54-.023.2.442.478.442.478.093,0,1.746-.5,1.857-.526a3.752,3.752,0,0,0,.4.268Zm1.844,1.006a7.411,7.411,0,0,0,.424-1.667,2.277,2.277,0,0,0-.539-.345l-.136-.072-.024.148-.24,1.432-.416-.209c-.092-.01-1.819.637-1.819.637-.014.2.5.454.5.454.087,0,1.726-.6,1.808-.637a3.043,3.043,0,0,0,.44.256Zm2.088.93a7.278,7.278,0,0,0,.283-1.691,2.568,2.568,0,0,0-.582-.306l-.136-.061-.005.148-.117,1.433-.454-.185c-.086,0-1.77.711-1.77.711,0,.207.55.429.55.429.085,0,1.726-.7,1.764-.71a3.743,3.743,0,0,0,.466.231Zm2.1-1.028a2.472,2.472,0,0,0-.649-.247l-.16-.049.017.172.166,1.409-.5-.134c-.079.01-1.61.894-1.61.894a.223.223,0,0,0,.059.1h.007a1.667,1.667,0,0,0,.569.268c.087-.012,1.575-.871,1.606-.882.19.074.539.172.539.172a6.877,6.877,0,0,0-.041-1.7Zm-.086,2.89h.007a1.809,1.809,0,0,0,.611.235,2.187,2.187,0,0,0,.381-.234c.042-.293.085-.586.134-.893-.434.281-1.193.809-1.193.809a.188.188,0,0,0,.059.085Zm14.188-1.2a5.274,5.274,0,0,0,.558-.121.139.139,0,0,0-.042-.1l.018-.012-.05-.036a12.706,12.706,0,0,0-1.3-1.2,1.27,1.27,0,0,0-.3.038c.038.233.069.467.106.7l.73.6-.467.122a1.521,1.521,0,0,0-.1.379c.056.38.111.748.153,1.09a3.755,3.755,0,0,0,.411-.072,10.544,10.544,0,0,0,.28-1.385Zm2.831-1.09-.042-.023a13.337,13.337,0,0,0-1.445-1.08,3.6,3.6,0,0,0-.619.2l-.2.073,1.549,1.018-.36.134a14.52,14.52,0,0,0-.283,1.445c.146.123.7-.1.7-.1a12.487,12.487,0,0,0,.281-1.4c.189-.062.46-.16.46-.16a.211.211,0,0,0-.056-.1l.01-.012Zm1.717-.807.009-.013-.041-.013a12.858,12.858,0,0,0-1.519-1.006,3.311,3.311,0,0,0-.582.234l-.178.086,1.612.931-.325.173a12.73,12.73,0,0,0-.018,1.434c.16.1.663-.161.663-.161a10.4,10.4,0,0,0,.018-1.4c.177-.06.416-.171.416-.171a.246.246,0,0,0-.055-.1Zm1.677-.809a.134.134,0,0,0-.067-.085l.006-.013h-.013a11.875,11.875,0,0,0-1.594-.931,3.472,3.472,0,0,0-.537.256l-.172.112,1.654.832-.3.172a10.854,10.854,0,0,0,.1,1.433c.158.075.637-.194.637-.194a11.787,11.787,0,0,0-.092-1.385c.167-.076.38-.2.38-.2Zm-.691-1.655-.136.122,1.685.651-.276.232a11.368,11.368,0,0,0,.447,1.372c.171.049.551-.269.551-.269a10.071,10.071,0,0,0-.416-1.322c.14-.1.331-.27.331-.27a.308.308,0,0,0-.069-.074h0a11.34,11.34,0,0,0-1.652-.759A2.286,2.286,0,0,0,265.269,1900.658Zm3.123,1.214c.172.049.551-.283.551-.283a1.452,1.452,0,0,0-.092-.368l-.341-.368c-.105-.11-.215-.207-.326-.305a1.075,1.075,0,0,0-.134-.135l-.1.074a11.333,11.333,0,0,0,.442,1.385Zm-1.85-2.256,1.121.43c-.1-.086-.2-.171-.3-.257a1.361,1.361,0,0,1-.171-.161c-.062-.049-.119-.1-.18-.148a1.531,1.531,0,0,1-.16-.133c-.091.073-.177.148-.177.148l-.134.122Z"/><path class="c" d="M246.178,1924.538a.057.057,0,0,0-.006-.023.077.077,0,0,1-.012.037l.02-.013Zm-13.834-22.753s.393.894.943,2.121c.335-.527.691-1.018,1.071-1.508-3.113-6.911-6.237-13.857-6.126-13.895,0,0,6.469,4.032,12.84,8.026.521-.306,1.048-.589,1.6-.858-6.047-3.749-16.671-10.317-16.671-10.317A123.738,123.738,0,0,0,232.344,1901.785Zm44.822,42.971s-6.4-3.995-12.939-8.1c-.532.306-1.085.589-1.642.858,6.094,3.824,17.519,11,17.519,11s-6.885-16.725-7.467-18.011c0,0-.227-.5-.568-1.274q-.507.79-1.066,1.507c3.191,7.106,6.284,13.968,6.162,14.018Z"/><path class="b" d="M237.356,1899.212a22.955,22.955,0,0,1,3.719-2.683c-6.372-3.995-12.842-8.025-12.842-8.025l9.123,10.709Zm30.572-.06a23.126,23.126,0,0,1,3.111,3.319c3.123-6.787,6.474-13.735,6.457-13.992l-9.568,10.674Zm-30.26,35.066a23.9,23.9,0,0,1-3.173-3.284c-3.125,6.934-6.212,13.8-6.1,13.846l9.271-10.562Zm30.3-.256a23.206,23.206,0,0,1-3.743,2.695c6.538,4.106,12.939,8.1,12.939,8.1Z"/><path class="d" d="M259.356,1909.946c-.184.171-.789.771-1.545,1.544-1.881,1.911-4.777,4.888-5.04,5.207-.173.222-.792.883-1.608,1.728.816-.845,1.435-1.507,1.608-1.726.243-.3,3.153-3.3,5.04-5.209.76-.772,1.362-1.371,1.545-1.543Z"/><path class="d" d="M252.764,1916.71c.017.013.055.049.079.073a.818.818,0,0,1-.056-.073Z"/><path class="b" d="M259.356,1909.946c.043,0,.1.013.153.013-.024-.245-.073-.638-.134-1.14-.079-.613-.2-1.4-.331-2.341-.043-.342-.1-.71-.153-1.09q-.084-.532-.166-1.1c-.037-.232-.069-.466-.105-.7-.148-.969-.3-2.01-.471-3.113-.282-1.788-.582-3.724-.895-5.746-.049-.293-.092-.588-.14-.894-1.876-11.9-4.185-25.853-4.343-25.791V1916.7c.263-.319,3.16-3.3,5.04-5.207.755-.775,1.362-1.375,1.545-1.546Z"/><path class="a" d="M230.765,1912.262c.11-.562.244-1.1.391-1.643v-.012c.138-.5.3-1.016.478-1.508a.276.276,0,0,0,.02-.049c.175-.479.36-.957.568-1.422a.154.154,0,0,0,.006-.037c.2-.439.416-.881.641-1.322.039-.061.075-.135.111-.2.227-.428.459-.845.717-1.249a16.666,16.666,0,0,1,1.059-1.543c.207-.3.429-.576.651-.845.012-.013.017-.025.03-.037.226-.269.465-.552.71-.821.086-.1.177-.184.264-.282s.2-.207.3-.307.184-.2.276-.281c.3-.294.606-.576.918-.859a.26.26,0,0,1,.079-.059c.105-.1.222-.2.332-.3.268-.22.539-.439.815-.649.049-.036.1-.073.16-.121.231-.173.47-.346.71-.515.042-.025.085-.05.123-.074.264-.184.527-.355.8-.527l.055-.037c.3-.185.6-.356.9-.527h.011c.533-.306,1.085-.576,1.647-.834a22.6,22.6,0,0,1,3.124-1.139c.546-.148,1.1-.269,1.656-.393-.318,2.046-.632,4.019-.908,5.82s-.526,3.418-.734,4.828c-.049.306-.091.6-.134.894-.207,1.42-.361,2.537-.448,3.235-.023.208-.042.379-.055.513a.416.416,0,0,1,.116-.011c1.685,1.555,6.1,6.089,6.612,6.737v-48.649c-.117-.026-2.421,13.879-4.307,25.754-.558.1-1.109.221-1.648.355a23.945,23.945,0,0,0-4.143,1.52c-.552.269-1.078.552-1.6.858a22.984,22.984,0,0,0-3.719,2.683l-9.121-10.711c-.11.038,3.014,6.984,6.126,13.895-.378.49-.734.98-1.071,1.508a22.944,22.944,0,0,0-3.05,6.86c-.135.526-.251,1.079-.355,1.628.293-.049.587-.085.882-.133Z"/><path class="b" d="M252.764,1916.71l.006-.013c-.173.222-.791.883-1.608,1.728-.115.124-.231.245-.355.368-.33.343-.673.7-1.034,1.066-.651.661-1.324,1.348-1.944,1.961-.66.661-1.248,1.226-1.671,1.617a.386.386,0,0,1-.116-.012c.025.246.069.624.128,1.09l.007.013c.079.637.19,1.42.326,2.352.041.306.09.625.138.943.062.415.124.858.19,1.31.032.207.069.417.1.638.148.956.306,1.984.47,3.074.27,1.754.57,3.652.882,5.626.052.294.094.587.143.882,1.887,11.922,4.227,26.025,4.344,26l0-48.642Z"/><path class="a" d="M264.227,1936.657a23.2,23.2,0,0,0,3.743-2.695l9.2,10.794c.123-.05-2.971-6.911-6.164-14.018a18.369,18.369,0,0,0,1.066-1.507,23.117,23.117,0,0,0,2.959-6.543c.14-.539.276-1.09.387-1.642l-.895.148c-.123.55-.256,1.1-.416,1.642-.135.476-.3.955-.466,1.408a.7.7,0,0,0-.037.1c-.166.439-.343.881-.539,1.31a.046.046,0,0,0-.007.024,23.385,23.385,0,0,1-1.4,2.634q-.495.79-1.045,1.543H270.6c-.253.331-.509.661-.779.992a.443.443,0,0,0-.086.11c-.276.319-.558.638-.858.957-.1.1-.19.207-.289.306s-.2.194-.3.293c-.079.074-.16.16-.24.234-.134.124-.268.258-.4.38-.073.062-.148.122-.221.2a.349.349,0,0,0-.073.061c-.069.049-.136.121-.2.172s-.1.084-.153.134c-.27.221-.546.44-.822.651-.05.035-.1.072-.153.108-.231.185-.478.355-.722.527-.037.025-.079.049-.117.074-.269.184-.544.355-.814.527-.019.012-.031.023-.042.023-.306.2-.614.367-.927.552-.538.294-1.1.562-1.659.821h-.012a20.091,20.091,0,0,1-2.756,1.018h-.006c-.545.17-1.1.305-1.654.428H257.3c.313-1.946.606-3.81.882-5.549.282-1.825.54-3.48.754-4.9.042-.317.092-.611.128-.9.2-1.312.343-2.353.429-3.039.03-.246.05-.453.067-.6-.069,0-.123.012-.177.012-1.631-1.506-5.815-5.807-6.544-6.652-.024-.024-.061-.059-.079-.073l.006,48.642c.115.026,2.481-14.114,4.392-26.036.558-.122,1.108-.245,1.654-.392a22.333,22.333,0,0,0,3.766-1.408c.557-.268,1.11-.55,1.643-.856Z"/><path class="b" d="M252.771,1916.7c-.513-.649-4.927-5.182-6.612-6.737a.386.386,0,0,0-.116.012c-.967.085-3.908.513-7.793,1.115-2.242.343-4.8.747-7.485,1.176-.3.049-.589.085-.882.134-11.647,1.874-25.175,4.143-25.112,4.3h48Z"/><path class="c" d="M290.16,1920.277c1.623-.27,3.155-.541,4.578-.785,9.494-1.692,14.488-2.917,14.488-2.917s-8.614-1.519-18.245-3.174c-2.131-.38-4.321-.747-6.475-1.114l-.213-.038a51.872,51.872,0,0,0-11.554-9.643c.043-.1.078-.184.122-.269.4-.882.675-1.483.675-1.483.416-.893.795-1.726,1.144-2.51,3.443-7.559,4.242-9.888,4.242-9.888l1.346-2.952-14.225,8.05-3.346,2.132c.553.27,1.085.551,1.606.859,6.383-4.08,13.055-8.271,13.2-8.063.018.257-3.334,7.2-6.458,13.992q.568.738,1.065,1.51a22.873,22.873,0,0,1,2.4,4.85c.931.71,1.845,1.46,2.733,2.229-.73-.122-1.458-.243-2.145-.367.134.551.257,1.1.355,1.654,10.6,1.692,22.888,3.726,25.485,4.228a3.916,3.916,0,0,1,.5.123c.022.111-14.1,2.464-26.02,4.35-.111.553-.247,1.1-.387,1.643,3.567-.563,7.928-1.261,10.845-1.727,4.185,6.629,6.854,15.107,6.854,26.564,0,30.866-22.215,51.449-43.209,51.449-13.889,0-21.289-8.37-25.148-8.37,0,0-8.755,4.595-12.652,5.441v-42.457c4.621,2.893,10.795,33.377,38.581,33.377,9.568,0,18.519-8.355,18.519-24.653,0-9.606-4.222-15.9-10.372-21.051.128-.819.249-1.616.373-2.338-.546.146-1.1.268-1.654.39-1.911,11.923-4.277,26.063-4.392,26.038-.119.025-2.457-14.077-4.345-26-.558-.1-1.109-.221-1.647-.368.152.967.323,2.034.5,3.124l1.9,11.873c2.01,12.193,3.585,19.715,3.585,19.715s1.592-7.522,3.614-19.7l.361-2.266c.251-1.507.594-3.627.955-5.869.044-.257.079-.513.123-.772,4.565,4.681,7.652,10.171,7.652,17.082,0,12.425-6.274,21.159-15.744,21.159-16.108,0-24.6-12.7-32.091-27.677-1.894-3.788-5.33-7.462-9.367-7.928v53.225l16.871-6.1c3.786,1.177,9.9,7.339,25.529,7.339,24.388,0,45.469-22.974,45.469-55.406,0-10.8-2.316-19.458-6.175-26.467l.2-.037Z"/><path class="c" d="M223.922,1921.585c.244.049.483.087.73.123a78.055,78.055,0,0,0,7.473,5.539,23.136,23.136,0,0,1-1.771-4.459,3.035,3.035,0,0,0-.238-.2.938.938,0,0,0,.189.025c-.148-.527-.276-1.079-.385-1.643-11.634-1.874-25.167-4.166-25.148-4.276-.06-.16,13.465-2.427,25.113-4.3.1-.55.22-1.1.355-1.63-3.406.54-7.463,1.2-10.232,1.643-5.366-7.3-8.943-16.91-8.943-30.509,0-26.356,20.094-44.148,37.843-44.148a27.551,27.551,0,0,1,15.132,4.718c3.694,2.575,6.162,4.926,8.02,4.926,0,0,7.211-3.186,10.486-4.5v37.935c-8.669-6.276-11.112-31.088-31.171-31.088-8.338,0-15.9,7.512-15.9,19.936,0,10.317,4.863,16.725,11.749,21.932-.142.9-.282,1.752-.411,2.536.539-.134,1.09-.257,1.648-.356,1.887-11.87,4.19-25.779,4.307-25.753.159-.061,2.468,13.894,4.343,25.791.557.11,1.108.234,1.647.393-.256-1.63-.557-3.517-.858-5.4l-1.507-9.447c-2.015-12.242-3.713-18.612-3.713-18.612s-1.494,6.456-3.5,18.624c0,0-.128.834-.343,2.145-.214,1.361-.521,3.247-.839,5.28-.031.134-.049.281-.075.417-5.532-5.16-8.975-11.041-8.975-17.645,0-9.472,4.5-16.272,13.969-16.272,12.32,0,16.933,14.14,24.272,26.688a15.064,15.064,0,0,0,8.809,6.274v-48.4s-11.23,4.62-14.3,5.66c-5.209-4.14-14.876-9.435-22.811-9.435-19.3,0-41.084,20.328-41.084,47.554,0,14.128,3.38,23.906,8.691,31.318l-.63.111c-1.655.269-3.224.552-4.693.8-9.456,1.629-14.858,2.693-14.858,2.693s7.442,1.667,20,3.775c.166.036.331.061.5.087Zm17.337,15.146c-6.432,4.094-12.805,8.148-12.86,8.049-.116-.049,2.971-6.91,6.1-13.844-.38-.479-.743-.969-1.086-1.483-.465,1.042-.789,1.776-.789,1.776l-.558,1.227c-4.564,10.108-7.48,15.951-7.48,15.951s4.227-1.875,15.817-9.237c0,0,.608-.392,1.477-.944.313-.195.656-.4,1.018-.637-.552-.258-1.105-.552-1.637-.858Z"/><path class="a" d="M248.426,1939.353c-.049-.3-.091-.589-.142-.882-.557-.11-1.108-.247-1.653-.4a23.173,23.173,0,0,1-2.867-1.016h-.013v-.014c-.569-.257-1.12-.513-1.667-.809l-.005-.01h-.012c-.288-.161-.578-.332-.852-.491-.019,0-.024-.013-.037-.013-.265-.172-.533-.332-.789-.515-.026-.013-.052-.024-.075-.036-.245-.171-.479-.331-.711-.5a.749.749,0,0,1-.123-.083c-.271-.2-.535-.392-.785-.6-.061-.05-.117-.087-.172-.135l-.055-.037c-.085-.074-.16-.148-.245-.221s-.165-.135-.244-.209c-.172-.148-.338-.294-.5-.454-.043-.036-.079-.073-.129-.122-.135-.123-.269-.245-.4-.38-.117-.111-.221-.221-.331-.343-.3-.306-.582-.625-.865-.943-.023-.037-.049-.061-.079-.111-.269-.305-.532-.637-.784-.966-.38-.492-.73-1.007-1.065-1.533a22.055,22.055,0,0,1-2.6-5.746c-.152-.54-.295-1.09-.41-1.656,2.708.442,5.288.846,7.541,1.2,3.829.589,6.727,1.018,7.688,1.1a.383.383,0,0,0,.116.012c.425-.391,1.012-.956,1.672-1.617.619-.612,1.293-1.3,1.944-1.96q.54-.552,1.034-1.066c.124-.124.24-.246.355-.369.817-.845,1.435-1.507,1.608-1.726h-48c-.02.108,13.514,2.4,25.148,4.275.111.563.239,1.115.385,1.643.013.061.038.11.049.171a22.947,22.947,0,0,0,1.772,4.459,78.5,78.5,0,0,1-7.474-5.538c-.247-.036-.484-.073-.73-.123l-7.1-1.15c-.171-.025-.335-.05-.5-.087a66.885,66.885,0,0,0,15.746,12.107l.557-1.226s.326-.735.789-1.776c.344.513.707,1,1.086,1.482a24.023,24.023,0,0,0,3.174,3.284l-9.27,10.561c.055.1,6.427-3.957,12.86-8.049.532.306,1.083.6,1.635.856-.361.234-.705.442-1.018.637q2.916,1.932,5.4,3.885c-.172-1.09-.345-2.156-.5-3.124.54.145,1.091.268,1.649.365Z"/><path class="b" d="M252.788,1916.71a.7.7,0,0,0,.056.073c.73.845,4.912,5.146,6.543,6.653.055,0,.11-.012.177-.012,1.024-.1,3.885-.513,7.658-1.09,2.187-.343,4.676-.735,7.3-1.14l.895-.148c11.922-1.886,26.042-4.239,26.019-4.35Z"/><path class="a" d="M257.114,1893.833c.049.306.092.6.14.9.557.123,1.109.256,1.653.416a22.279,22.279,0,0,1,2.936,1.09c.562.247,1.115.527,1.655.822.582.33,1.145.673,1.7,1.053.013.01.03.024.042.024.247.171.491.345.735.527.032.024.069.049.1.074.268.2.526.4.783.613a1.434,1.434,0,0,0,.16.134c.061.05.116.1.178.148a1.692,1.692,0,0,0,.172.158c.1.089.2.173.3.26.128.122.257.246.385.367a1.244,1.244,0,0,1,.135.135,4.438,4.438,0,0,1,.326.305c.114.123.224.244.341.367.306.306.6.638.876.98a1.072,1.072,0,0,1,.116.148c.276.318.54.661.789,1,.375.5.724,1.018,1.056,1.545a22.211,22.211,0,0,1,2.473,5.647c.079.27.154.539.214.809s.142.563.19.845c-2.671-.415-5.214-.809-7.437-1.151-3.781-.589-6.635-.993-7.622-1.09-.055,0-.11-.013-.153-.013-.184.171-.784.771-1.545,1.544-1.887,1.912-4.8,4.915-5.04,5.209l-.007.012h.022l48.645-.013a3.742,3.742,0,0,0-.5-.124c-2.6-.5-14.886-2.535-25.485-4.227-.1-.553-.221-1.1-.355-1.655-.171-.624-.368-1.249-.589-1.864a22.971,22.971,0,0,0-2.4-4.85q-.5-.77-1.065-1.508a23.072,23.072,0,0,0-3.112-3.319l9.568-10.674c-.141-.207-6.812,3.984-13.2,8.064-.52-.308-1.053-.589-1.605-.858a22.719,22.719,0,0,0-3.933-1.458c-.536-.158-1.087-.282-1.644-.392Z"/></g><rect class="f" width="200" height="200"/></svg>