<svg xmlns="http://www.w3.org/2000/svg" width="200" height="200" viewBox="0 0 200 200"><defs><style>.a{fill:#061922;}.b{fill:#fff;}.c{fill:#bbc4ca;}.d{fill:#0064b1;}.e{fill:none;mix-blend-mode:multiply;isolation:isolate;}</style></defs><g transform="translate(-96.391 -952.975)"><path class="a" d="M258.062,1015.279a10.37,10.37,0,0,0-1.448-1.068.739.739,0,0,1-.458-.458,7.223,7.223,0,0,0-.458-1.677,73.138,73.138,0,0,0-23.94-19.975,9.776,9.776,0,0,0-3.2-.839.842.842,0,0,1-.534-.229,9.222,9.222,0,0,0-2.821-1.906,74.894,74.894,0,0,0-28.134-5.489,68.227,68.227,0,0,0-8.92.534l3.889-5.185c-15.4-.457-26.456,11.589-26.456,11.589h0a70.957,70.957,0,0,0-10.522,6.024h0a17.465,17.465,0,0,0-10.368,9.378c-2.059,1.677-6.024,7.09-6.024,7.09a17.15,17.15,0,0,0-2.744,2.135,29.229,29.229,0,0,0-7.014,13.723c-.077.153-.077.229-.153.382-.076.381-.152.915-.229,1.371l-.457,2.745.076-.076a.445.445,0,0,1-.076.3,45.574,45.574,0,0,0-1.373,4.727c-.229.61-2.287,6.861-2.287,6.861h0v.076c-5.49,19.29,1.829,30.955,3.05,32.785,9.758,28.362,37.205,48.8,69.609,48.8a73.851,73.851,0,0,0,59.851-30.116h0a5.8,5.8,0,0,0,.534-1.83.824.824,0,0,1,.3-.61,6.1,6.1,0,0,0,1.448-.99,70.621,70.621,0,0,0-1.144-78.073Z" transform="translate(0)"/><path class="b" d="M163.105,1000.885l.534-.534c.229-.229.3-.3.381-.3l.077-.076a29.475,29.475,0,0,1,.915-6.634c6.71-9.3,17.689-11.818,17.689-11.818,1.371-.381.457.229.457.229-6.937,7.777-6.176,14.182-6.176,14.182l6.634,24.168s-5.337-1.906-9.531-10.369c-1.906,16.926,14.029,30.65,14.029,30.65.686.61-.382-.076-.382-.076a47.458,47.458,0,0,1-9.834-7.4c.3,1.3,8.081,40.332,8.157,40.484a7.433,7.433,0,0,0,.229.839l2.669-6.71,2.211,19.747c-10.14,9.379-20.89,5.719-21.577,5.414a7.985,7.985,0,0,1,.458.762s8.768,17.155,44.373,15.326c0,0,.839,0,.763.076,0,0,0,.076-.229.152a12.587,12.587,0,0,1-1.753.382c-43,11.513-65.34-25.16-66.255-26.837a29.56,29.56,0,0,1-3.508-6.252c-.076-.077-.076-.382.077-.153,0,0,4.574,4.727,17.46,5.947h.152c-9.987-11.131-14.257-19.213-14.868-20.432h0s-1.219-1.83-2.592-6.939c0,0,0-.229.153,0,.457.992,3.812,5.871,7.776,7.014h0c-3.431-5.49-5.565-14.181-5.794-15.477,4.65,6.481,12.884,7.015,12.884,7.015a.074.074,0,0,0-.076-.076v.076c-13.571-13.5-10.6-28.21-5.108-38.884A68.107,68.107,0,0,1,163.105,1000.885Z" transform="translate(3.159 0.364)"/><g transform="translate(128.829 997.132)"><g transform="translate(69.076 51.464)"><path class="c" d="M196.949,1081.653l-8.921,9.378h0l10.979-8.387-5.642-19.594,2.516-23.56-4.345,22.492,5.413,19.671Z" transform="translate(-188.028 -1039.49)"/></g><g transform="translate(75.786 26.838)"><path class="c" d="M193.86,1037.222a1.925,1.925,0,0,0,.534-.306h0a11.321,11.321,0,0,0,2.44-1.905h0a13.2,13.2,0,0,0,3.507-9.531h0a26.116,26.116,0,0,0-1.22-7.4h0c-.153,3.278-1.068,15.477-5.261,19.137Z" transform="translate(-193.86 -1018.085)"/></g><g transform="translate(78.073)"><path class="c" d="M197.678,1000.628c3.126-4.65,8.158-5.108,10.368-5.108h0a18.441,18.441,0,0,0-5.108-.763h0a15.788,15.788,0,0,0-5.26.839h0c-.916.306-1.526.611-1.83.687h0a24.332,24.332,0,0,1,1.83,4.345Z" transform="translate(-195.848 -994.757)"/></g><g transform="translate(55.658 1.221)"><path class="c" d="M196.646,1010.3a.163.163,0,0,1,.152.153h0v1.3h0c0,10.14-2.668,21.2-3.736,24.932h0a57.891,57.891,0,0,0,4.879-23.406h0a61.528,61.528,0,0,0-.686-8.921h0a19.668,19.668,0,0,0-.534-2.516h0c-.992,7.548-3.889,11.055-3.889,11.055h0c0,.077-.076.077-.152.077h0c-.077,0-.077,0-.153-.077h0a45.9,45.9,0,0,0-10.674-13.037h0a46.289,46.289,0,0,0-5.489-4.041h0c9,19.594,11.665,34.766,12.352,39.723h0v-1.755h0a97.755,97.755,0,0,0-2.059-18.069h0c-.991-5.337-2.058-9.073-2.058-9.073h0c0-.076,0-.152.076-.152h0a.106.106,0,0,1,.153,0h0c4.04,3.126,6.937,12.123,7.4,13.8h0a25.781,25.781,0,0,0,2.592-5.414h0c.839-2.363,1.526-4.5,1.526-4.5h0c.228,0,.228-.076.3-.076Zm-3.813,2.592.153-.076-.153.076Z" transform="translate(-176.365 -995.818)"/></g><g transform="translate(0 1.754)"><path class="c" d="M127.987,1051.024c0,9.3,1.6,19.06,9.684,31.565h0c7.547,16.011,21.576,24.55,28.057,27.9h0c2.135,1.068,3.508,1.6,3.508,1.6h0a67.247,67.247,0,0,0,28.82,6.709h0a68.351,68.351,0,0,0,37.892-11.818h0a36.638,36.638,0,0,0,2.974-2.211h0l.076.153-.076-.153c.381-.3.686-.533.915-.762h0a1.714,1.714,0,0,1-.381.229h0c-.382.228-.763.457-.763.533h0c-14.181,8.311-27.3,10.9-37.969,10.9h0c-16.7,0-27.6-6.252-27.6-6.252h0c-35.529-18.6-35.986-50.854-35.986-50.931h0a.163.163,0,0,1,.152-.152h0c.077,0,.153,0,.153.076h0c4.574,8.844,10.14,11.894,12.581,12.885h0c.381.152.61.229.838.3h0c-10.292-13.037-13.266-23.94-13.266-32.174h0c0-10.9,5.185-17.155,5.185-17.155h0a.235.235,0,0,1,.152-.076h0c.077,0,.077.076.077.152h0a52.217,52.217,0,0,0-.992,10.216h0a35.109,35.109,0,0,0,1.526,10.751h0a29.738,29.738,0,0,0,1.066,2.821h0a65.932,65.932,0,0,1-.457-7.624h0a59.946,59.946,0,0,1,17.307-42.239h0c-2.287.915-4.956,3.355-7.243,5.642h0c-2.439,2.516-4.345,4.879-4.345,4.879h0c-.076.076-.076.076-.153.076h0c-.076,0-.076-.076-.076-.152h0a14.5,14.5,0,0,1,1.753-5.566h0a21.6,21.6,0,0,0-4.421,6.557h0a32.089,32.089,0,0,0-1.83,4.651h0v.076a48.88,48.88,0,0,0-7.776,12.123h0a38.753,38.753,0,0,0-2.135,5.718h0a5.874,5.874,0,0,1-.3.916h0s0,.076-.153.152h0c-.228-.076-.152-.152-.152-.229h0v-.229h0a4.224,4.224,0,0,1,.076-.686h0c.076-4.574,1.982-9.759,2.745-11.665h0c-5.413,5.794-6.71,13.723-6.71,19.976h0a40.813,40.813,0,0,0,1.22,10.521h0a70.26,70.26,0,0,0,1.45,11.97h0c.686,3.66,1.448,6.4,1.448,6.4h0a5.042,5.042,0,0,1,.3,1.219h0v.077h0c0,.076-.076.076-.153.076h0c-.229-.076-.152-.153-.3-.229h0a1.714,1.714,0,0,1-.229-.381h0a6.12,6.12,0,0,1-.3-.534h0c-3.812-5.8-5.642-15.4-6.023-17.765h0a2.594,2.594,0,0,0-.153,1.144Z" transform="translate(-127.987 -996.282)"/></g></g><g transform="translate(197.6 989.28)"><path class="d" d="M238.77,1011.185s-17.307-23.254-49.786-23.254h-.839a.39.39,0,0,0-.382.3c0,.229.153.3.382.381a50.017,50.017,0,0,1,7.319,6.938l.076.076.076-.076a12.978,12.978,0,0,1,2.135-.763,21.051,21.051,0,0,1,16.01,1.982c-1.6.763-9.758,4.879-11.436,9.531v.076l.076.076s8.234,7.472,25.084,7.472a61.447,61.447,0,0,0,8.768-.61,9.3,9.3,0,0,0,1.448-.3c.687-.229,1.526-.534,1.526-1.3C239.074,1011.643,239,1011.414,238.77,1011.185Z" transform="translate(-187.763 -987.932)"/><g transform="translate(3.279 55.752)"><path class="d" d="M203.345,1036.45a.161.161,0,0,0-.229.228,8.028,8.028,0,0,1,.534.611,17.188,17.188,0,0,1,2.821,10.063c0,3.889-.915,8.921-3.812,15.173a30.885,30.885,0,0,0-.611-5.489c-.61-3.127-1.753-6.558-4.269-7.319h-.152l-.077.076-1.524,13.724v.076l5.566,20.51-10.9,8.768c-.076,0-.076.076-.076.152s.076.076.076.153a40.916,40.916,0,0,0,11.437,1.373,65.965,65.965,0,0,0,13.8-1.526,2.635,2.635,0,0,0,1.753-1.6,71.294,71.294,0,0,0,1.219-13.647C218.975,1065.955,216.307,1048.724,203.345,1036.45Z" transform="translate(-190.613 -1036.392)"/></g><g transform="translate(18.147 41.323)"><path class="d" d="M219.318,1093.689a.951.951,0,0,1-.306-.839h0a1.874,1.874,0,0,1,.077-.61h0a34.892,34.892,0,0,0,.839-4.422h0a73.467,73.467,0,0,0,.839-11.437h0c0-12.35-2.974-29.658-16.774-43.076h0a.912.912,0,0,0-.229-.153h0a.474.474,0,0,1-.228-.381h0a.164.164,0,0,1,.152-.153h.153a2.126,2.126,0,0,1,.61.077h0a15.688,15.688,0,0,1,6.252,4.041h0a25.953,25.953,0,0,0-.763-3.66h0a21.643,21.643,0,0,0-4.269-8.158h0l-.3-.3h0c-.152-.229-.3-.3-.3-.534h0a.239.239,0,0,1,.076-.153h0c.077-.076.077-.076.153-.076h0c.152,0,.3.153.686.382h0c.839.381,35.453,17.154,36.673,51.005h0v.534h0a4.761,4.761,0,0,1-1.219,3.431h0c-.3.458-8.539,10.6-20.586,14.563h0a2.353,2.353,0,0,1-.763.153h0a1.287,1.287,0,0,1-.762-.229Zm-15.477-60.918Z" transform="translate(-203.536 -1023.85)"/></g><g transform="translate(11.894 27.218)"><path class="d" d="M246.058,1070.679c-.686-27.9-26.989-46.966-40.1-54.742h0c-4.345-2.593-7.242-3.889-7.242-3.964h0l-.611-.306h.763a11.221,11.221,0,0,1,8.387,3.813h0a12.521,12.521,0,0,0-.687-3.584h0l-.152-.3.3.153c3.736,1.448,8.539,1.905,13.266,1.905h0a92.148,92.148,0,0,0,12.352-.915h0c3.355-.457,5.489-.915,5.566-.915h.457a2.7,2.7,0,0,1,2.592,1.22h0c4.5,4.956,9.988,16.545,10.9,30.345h0c.153,1.753.153,3.431.153,5.032h0c0,10.445-2.135,18.45-3.813,21.805h0c-.61,1.144-.991,1.753-1.524,1.83h0c-.458,0-.534-.458-.611-1.373h0" transform="translate(-198.101 -1011.59)"/></g></g><path class="a" d="M175.092,984.562l.077-.076h0c-.382.076-7.472,2.21-9.607,13.037,0,0,0,.229.076,0,.61-1.068,2.9-4.422,4.879-3.431v-.229A21.261,21.261,0,0,1,175.092,984.562Z" transform="translate(6.497 0.829)"/><g transform="translate(157.878 1057.213)"><path class="a" d="M171.534,1073.129C170.01,1070,160.1,1048.5,160.1,1048.5c-3.05.991-6.863-1.524-6.863-1.524h0c4.88,12.884,16.316,24.168,18.147,26.228h0c.3.3.3.228.3.228C171.687,1073.358,171.611,1073.282,171.534,1073.129Z" transform="translate(-153.236 -1046.979)"/></g><g transform="translate(164.132 1012.908)"><path class="a" d="M160.958,1008.7c-8.921,20.357,11.131,28.743,11.436,28.9h0l-1.068-4.727-.61-2.668c-.534-.153-.991-.382-1.448-.534l-.457-.229a1.9,1.9,0,0,1-.534-.3c-8.768-4.651-7.929-15.782-7.4-19.442v-.076a.457.457,0,0,1,.077-.306,3.146,3.146,0,0,1,.152-.686v-.076h0C161.11,1008.324,160.958,1008.629,160.958,1008.7Z" transform="translate(-158.673 -1008.469)"/></g><path class="c" d="M172.312,1061.861l-1.448-25.618,8.616,28.514C179.48,1064.833,176.659,1058.048,172.312,1061.861Z" transform="translate(7.294 8.618)"/><g transform="translate(177.168 996.294)"><path class="c" d="M179.534,1018.2,172.9,994.029v.533l1.906,15.326a1.87,1.87,0,0,1,.076.534c0,.839-.534,1.982-4.574-2.287l-.3-.306C174.2,1016.368,179.534,1018.2,179.534,1018.2Z" transform="translate(-170.003 -994.029)"/></g><path class="c" d="M164.87,1020.839a9.073,9.073,0,0,1-.763-3.432,7.636,7.636,0,0,1,2.745-5.794l.076-.076a54.937,54.937,0,0,1,.076-6.176c-2.21,3.2-6.861,10.9-1.3,16.926-.076-.153-.153-.229-.229-.382A5.268,5.268,0,0,1,164.87,1020.839Z" transform="translate(6.122 3.971)"/><path class="a" d="M170.529,1023.156a33.823,33.823,0,0,1-3.736-12.352v-.076l-.076.076a7.828,7.828,0,0,0-2.745,5.794,8.784,8.784,0,0,0,.763,3.432c.152.3.381.61.61,1.066a1.68,1.68,0,0,1,.229.382c.076.152.229.229.381.381a7.286,7.286,0,0,0,5.108,2.211A6.684,6.684,0,0,1,170.529,1023.156Z" transform="translate(6.257 4.779)"/><g transform="translate(180.818 1073.715)"><path class="c" d="M177.15,1061.364s-4.194-1.068-3.965,7.7h0a1.7,1.7,0,0,1,.229-.763c1.3-2.9,2.439-4.042,3.507-4.118.915,0,1.6.839,2.135,1.982a26.108,26.108,0,0,1,1.371,4.118c.306,1.219.534,2.44.687,3.431a18.41,18.41,0,0,1,.152,2.363v.077h0C181.419,1075.24,183.326,1063.042,177.15,1061.364Z" transform="translate(-173.176 -1061.323)"/><path class="a" d="M181.265,1075.848v-.076c-.076-.992-.076-1.754-.152-2.364-.153-.99-.381-2.211-.687-3.431a18.609,18.609,0,0,0-1.371-4.116c-.534-1.145-1.221-1.906-2.135-1.983-1.068,0-2.211,1.221-3.507,4.118-.077.229-.153.534-.229.763h0l2.134,4.574s1.221-12.352,5.947,2.516Z" transform="translate(-173.175 -1060.939)"/></g></g><rect class="e" width="200" height="200"/></svg>