<svg xmlns="http://www.w3.org/2000/svg" width="200" height="200" viewBox="0 0 200 200"><defs><style>.a{fill:#8b2332;}.b{fill:#0d2240;}.c{fill:#ffc627;}.d{fill:#fff;}.e{fill:none;mix-blend-mode:multiply;isolation:isolate;}</style></defs><g transform="translate(-403.627 -955.855)"><path class="a" d="M503.616,1126.9a71.024,71.024,0,1,0-70.988-71.06,71.068,71.068,0,0,0,70.988,71.06" transform="translate(0 0)"/><path class="b" d="M436.45,1055.064a66.27,66.27,0,1,1,66.271,66.27,66.334,66.334,0,0,1-66.271-66.27" transform="translate(0.826 0.851)"/><path class="c" d="M559.818,1068.618c.07-11.339-6.057-26.974-11.479-37.326l-8.029,4.508-.775-1.269h0l-2.042,1.269-79.933,50.283v.071l-3.663,4.437-.069-.141c-1.127-.212-2.606-1.408-3.733-3.31-1.2-1.832-1.69-3.732-1.408-4.718l-.07-.141,5.493-1.479.07.071,41.129-26.762-27.747-17.465h0l-3.451-2.184h0l-.845,1.268-8.028-4.508c-5.494,10.422-11.55,25.988-11.479,37.326-4.226-13.17.141-31.128,6.056-42.748l.071-.071-1.479-.845,4.789-7.395,1.409.986c8.028-10.212,22.394-21.55,36.058-23.311-10.283,4.718-21.9,16.691-29.016,25.986l7.465,5.424-.916,1.338h0l1.9,1.268,31.62,20.564,31.2-20.283,2.4-1.549h0l-.916-1.338,7.465-5.424c-7.114-9.225-18.664-21.268-28.945-25.986,13.662,1.761,28.029,13.1,36.128,23.311l1.338-.986,4.789,7.395-1.479.845c5.986,11.831,10.353,29.79,6.128,42.889M549.465,1080.8l-.071.071-37.818-24.578-6.62,3.944,41.128,25.916-.07.07,3.663,4.438.141-.141c1.127-.211,2.606-1.408,3.732-3.31,1.127-1.831,1.69-3.732,1.409-4.718l.07-.141Z" transform="translate(2.041 2.227)"/><path class="c" d="M497.708,1001.725l-2.817,3.733-3.944-9.367v43.382l13.24-16.9,13.31,3.451Z" transform="translate(12.599 2.427)"/><path class="d" d="M495.214,996.091,471.2,1025.317l10.564-2.676,13.451,16.832Z" transform="translate(8.332 2.427)"/><path class="c" d="M479.844,1089.056a21.412,21.412,0,0,1,12.677-5.844v-6.62H474.21a20.442,20.442,0,0,0,5.634,12.464" transform="translate(8.983 19.818)"/><path class="c" d="M490.969,1093.34v-7.887a17.124,17.124,0,0,0-9.577,4.365,21.9,21.9,0,0,0,9.577,3.522" transform="translate(10.534 21.732)"/><path class="d" d="M492.627,1058.407v7.817a16.72,16.72,0,0,0,9.508-4.367,20.919,20.919,0,0,0-9.508-3.45" transform="translate(12.962 15.889)"/><path class="d" d="M505.3,1063.5a20.927,20.927,0,0,1-12.677,5.775v6.057h18.311A20.536,20.536,0,0,0,505.3,1063.5" transform="translate(12.962 16.99)"/><path class="d" d="M490.957,1066.224v-7.818a20.226,20.226,0,0,0-9.507,3.522,17.307,17.307,0,0,0,9.507,4.3" transform="translate(10.547 15.889)"/><path class="c" d="M492.627,1076.592v6.62a20.621,20.621,0,0,1,12.677,5.844,20.523,20.523,0,0,0,5.7-12.464Z" transform="translate(12.962 19.818)"/><path class="d" d="M474.268,1075.335h18.311v-6.057A21.524,21.524,0,0,1,479.9,1063.5a19.716,19.716,0,0,0-5.634,11.832" transform="translate(8.995 16.99)"/><path class="c" d="M492.627,1093.328a20.92,20.92,0,0,0,9.508-3.451,16.939,16.939,0,0,0-9.508-4.367Z" transform="translate(12.962 21.744)"/></g><rect class="e" width="200" height="200"/></svg>