<svg xmlns="http://www.w3.org/2000/svg" width="200" height="200" viewBox="0 0 200 200"><defs><style>.a{fill:#fff;}.b{fill:#97233f;}.c{fill:#ffb612;}.d{fill:none;mix-blend-mode:multiply;isolation:isolate;}</style></defs><g transform="translate(-102.518 -552.934)"><path class="a" d="M290.609,705.223c-13.2-2.781-39.394-.072-54.333,31.543,0,0-25.546-30.505-61.04-35.865,1.393-16.973-21.086-21.485-25.387-50.686,0,0-17.464-14.3-26.195-36.83l4.649,1.494a74.687,74.687,0,0,1-12.01-20.487l4.916,1.624s-4.973-6.743-7.691-26.083c60.246,41.454,91.985,26.988,128.628,47.729,24.871,14.092,30.8,30.455,32.878,46.788,0,0,18.411,16.686,15.586,40.772"/><path d="M288.1,701.692c.394-20.5-15.7-35.064-15.7-35.064-1.738-12.961-6.445-31.705-31.527-45.545-38.086-21-59.159-3.848-119.2-40.642,1.249,6.879,5.206,16.4,10.247,22.311l-6.208-2.037c4.513,9.516,11.74,18.148,15.525,20.95l-6.959-2.188a74.462,74.462,0,0,0,21.772,28.817c3.282,27.706,23.6,32.427,25.237,49.468,26.465,4.106,54.437,32.459,54.437,32.459,14.645-25.189,35.068-30.071,52.377-28.529"/><path class="a" d="M254.2,666.032c-5.755,9.268-15.485,6.685-18.953-4.871l7.015.428a63.741,63.741,0,0,1-16.056-14.437c-1.271,25.529,22.741,36.988,30.684,19.06a23.543,23.543,0,0,1-2.69-.18"/><path class="b" d="M237.683,624.557c-27.592-15.131-61.312-5.306-104.4-32.014,4.269,12.763,30.938,27.71,30.938,27.71l-23.6-7.676c6.01,10.435,30.611,23.51,30.611,23.51l-22.009-7.116c9.116,15.149,29.8,25.372,29.8,25.372l-12.71-.919c1.644,14.242,21.312,26.506,22.357,37.5,8.9,3.4,20.361,9.333,29.3,17.02,17.084-8.4,12.373-36.83-20.2-77.156,44.8,2.708,43.565,35.94,69.28,31.162-1.885-8.927-3.1-22.979-29.362-37.391"/><path class="c" d="M284.879,696.4c-6.273-6.247-19.449-12.623-35.473-14.545,6.825-1.9,14.6-6.086,17.78-12.6,6.792,4.3,16.253,16.6,17.693,27.146Zm-34.295,8.711c2.638-8.995-2.162-17.16-2.162-17.16,14.042-1.376,29.538,5.144,35.811,10.453-9.806-1.98-23.23.855-33.649,6.706Z"/><path class="a" d="M254.2,666.032c-5.755,9.268-15.485,6.685-18.953-4.871l7.015.428a63.741,63.741,0,0,1-16.056-14.437c-1.271,25.529,22.741,36.988,30.684,19.06a23.543,23.543,0,0,1-2.69-.18"/></g><rect class="d" width="200" height="200"/></svg>