<svg xmlns="http://www.w3.org/2000/svg" width="200" height="200" viewBox="0 0 200 200"><defs><style>.a{fill:#e3d4ad;}.b{fill:#a71930;}.c{fill:none;mix-blend-mode:multiply;isolation:isolate;}</style></defs><g transform="translate(-152.66 -573.707)"><path class="a" d="M339.755,741.815h-1.787V746.7H336.75v-4.885h-1.8v-1.058h4.8v1.058Zm8.126,4.885h-1.214v-4.728h-.024l-1.724,4.729h-1.165l-1.668-4.73h-.035V746.7h-1.214v-5.944h2.109l1.382,3.877h.034l1.44-3.877h2.08V746.7Zm-127.3-21.813L243.258,686.8c.593,2.34,1.782,7,1.963,7.715-1.164,2.007-18.706,32.351-18.706,32.351s25.878-21.384,27.068-22.365c.435.52,19.175,23.254,19.175,23.254s-8.811-29.433-9.408-31.438c.449-.716,3.391-5.415,5.252-8.4l8.025,37.039L260.594,747h68.9l-32.934-147.3-45.831.029L157.66,747.005h73.448l-10.531-22.118Zm23.494-39.449,14.457-24.274h4.279l5.258,24.274Z"/><path d="M257.593,605.5h34.126L321.945,741.2h-49.1l10.972-14.843-15.75-70.437-13.018-.01-42.009,69.106,7.838,16.125H172.223l-4.772,2.957h58.667l-9.282-19.142,39.84-66.441h8.679L280.4,725.622l-13.515,18.485h58.868L294.26,602.527l-38.637-.03"/><path d="M206.83,716.428l5.087-3.212-9.047-21.531,28.82-18.055-9.9-17.761,27.875-13.453-9-15.851,21.461-9.537L254.287,605.5l-1.82-2.662-89.5,141.205"/><path class="b" d="M248.428,694.955l-10.99,18.995s14.491-11.973,16.547-13.668c1.419,1.724,11.657,14.129,11.657,14.129s-5.063-16.919-5.548-18.534l4.656-7.432H246.768s1.352,5.326,1.661,6.511Z"/><path class="b" d="M213.038,725.014l42.009-69.106,13.018.01,15.749,70.437L272.843,741.2h49.1L291.718,605.5H257.592L266,618.419l-21.2,9.537,9.129,15.812L226.075,657.1l9.322,17.281-28.831,18.173,8.881,21.786-43.223,26.8h48.652"/></g><rect class="c" width="200" height="200"/></svg>