<svg xmlns="http://www.w3.org/2000/svg" width="200" height="200" viewBox="0 0 200 200"><defs><style>.a{fill:#002b5c;}.b{fill:#d31145;}.c{fill:none;mix-blend-mode:multiply;isolation:isolate;}</style></defs><g transform="translate(-1316.246 -1196.742)"><path class="a" d="M1413.837,1323.275a60.163,60.163,0,0,0,10.056.658c1.234-.017,2.441-.092,3.644-.184l.284-78.283c11.345.333,23.269,1.641,33.95,4.741.817,4.6,7.449,13.507,14.474,14.473,0,0-2.709-16.731-1.954-25.405-15.39-4.316-65.266-9.649-107.132-.558,0,0-.15,21.4-3.013,25.68,0,0,13.753-3.582,16.841-15.8a255.173,255.173,0,0,1,33.584-3.134l-.25,27.132-.01,1.057-.475,49.619Zm-.169,17.488-.048,5.674-7.862,13.066,31.509-.608-9.81-11.991.019-5.832c-1.263.084-2.525.167-3.808.192a72.075,72.075,0,0,1-10-.5Zm27.635,4.842-.679,1.85h-.029l-1.145-3.249h-1.755v4.958h1.008v-3.934h.022l1.391,3.934h.971l.218-.6,1.225-3.334h.016v3.934h1.016V1344.2h-1.741m-6.524,4.958V1345.1h1.492v-.9h-4v.9h1.5v4.057"/><path class="b" d="M1427.789,1255.482l-.062,17.5c18,1.034,32.482,9.732,35.211,21.089l17.7-.341c-2.651-20.632-25.011-36.755-52.853-38.247Z"/><path class="b" d="M1427.539,1323.75c-1.2.091-2.412.166-3.644.183a60.065,60.065,0,0,1-10.058-.658c-17.269-2.515-30.2-12.232-30.421-24.115-.234-12.206,13-22.647,30.9-25.505l.008-1.058.145-15.841a65.638,65.638,0,0,0-37.389,18.84c-7.577,9.167-19.772,21.2-24.829,23.131,0,0,19,15.573,22.718,21.706,8.1,10.208,21.327,18.316,38.7,20.331a72.265,72.265,0,0,0,10,.5c1.283-.024,2.545-.108,3.808-.192,26.139-1.749,47.307-16.189,52.306-34.787l-18.731.359c-5.1,9.089-17.969,15.913-33.511,17.106Z"/></g><rect class="c" width="200" height="200"/></svg>