<svg xmlns="http://www.w3.org/2000/svg" width="200" height="200" viewBox="0 0 200 200"><defs><style>.a{fill:#bdbfc1;}.b{fill:#006bb5;}.c{fill:#ec174c;}.d{fill:#fff;}.e{fill:none;mix-blend-mode:multiply;isolation:isolate;}</style></defs><g transform="translate(-75 -1518)"><g transform="translate(-5.889 260.322)"><path d="M94.447,1349.09a7.81,7.81,0,0,0-2.558,6.041v44.491a7.879,7.879,0,0,0,8.852,8.114q5.97-.5,11.953-.927v-8.41q-5.982.306-11.953.663v-43.37q5.97.359,11.953.663v-8.41q-5.982-.424-11.953-.927a7.789,7.789,0,0,0-6.294,2.072"/><path d="M123.356,1348.644q-4.443-.266-8.885-.574v58.615q9.693-.674,19.409-1.148v-8.046q-5.265.186-10.524.409Z"/><path d="M135.662,1405.452q4.53-.211,9.065-.382v-55.385q-4.535-.17-9.065-.383Z"/><path d="M161.477,1350.165q-7.487-.15-14.968-.416V1405q4.458-.159,8.916-.276v-23.444q3.027-.012,6.052-.021a9.269,9.269,0,0,0,6.274-2.253,6.935,6.935,0,0,0,2.65-5.5v-15.472a6.973,6.973,0,0,0-2.65-5.468,9.317,9.317,0,0,0-6.274-2.4m0,23.324q-3.027-.009-6.052-.02v-15.63q3.027.059,6.052.1Z"/><path d="M240.113,1379.117a7.62,7.62,0,0,0,2.639-5.889v-16.593a7.112,7.112,0,0,0-2.639-5.68,8.287,8.287,0,0,0-6.252-2.081q-7.467.417-14.944.715v55.575q4.455.177,8.907.4v-23.918q3.7,11.99,7.393,24.312,4.448.255,8.89.55-3.88-12.921-7.765-25.375a8.492,8.492,0,0,0,3.771-2.013m-12.289-21.872q3.02-.107,6.037-.225,0,8.141,0,16.286-3.015.024-6.037.044Z"/><path d="M187.167,1350.332q-7.493.051-14.981-.014v54.119q4.462-.039,8.925-.037v-23.163q3.029,0,6.056,0a9.231,9.231,0,0,0,6.275-2.23,6.935,6.935,0,0,0,2.648-5.512v-15.512a6.8,6.8,0,0,0-2.648-5.418,9.054,9.054,0,0,0-6.275-2.237m0,23.182-6.055,0v-15.442q3.028,0,6.055-.015Z"/><path d="M197.875,1404.555q9.739.175,19.467.548v-7.921q-5.27-.147-10.545-.249v-15.644c2.017.008,5.616.016,7.63.025q0-3.937,0-7.875c-2.014.01-5.613.018-7.63.027v-15.645q5.277-.1,10.545-.248v-7.922q-9.726.372-19.467.548v54.356"/><path d="M269.314,1364.03v-8.9a8.076,8.076,0,0,0-8.85-8.113q-3.739.312-7.481.6a9.511,9.511,0,0,0-6.309,2.945,8.254,8.254,0,0,0-2.568,6.011v16.645a7.841,7.841,0,0,0,2.568,5.927,8.987,8.987,0,0,0,6.309,2.485q3.744.04,7.481.085v17.349q-3.739-.227-7.481-.427v-8.5q-4.434-.144-8.877-.272v8.322a8.323,8.323,0,0,0,2.568,6.077,9.635,9.635,0,0,0,6.309,2.878q3.744.285,7.481.6a7.977,7.977,0,0,0,8.85-8.114v-17.8a8.355,8.355,0,0,0-2.627-6.242,8.214,8.214,0,0,0-6.223-2.544q-3.739.047-7.481.086V1356.12q3.744-.205,7.481-.427v8.673q4.428-.162,8.85-.336"/><path class="a" d="M101.229,1348c3.5.295,7.162.58,10.872.849v-.356c-3.791-.272-7.63-.571-11.41-.888-.278-.025-.553-.037-.816-.037a6.989,6.989,0,0,0-5.021,1.949,7.264,7.264,0,0,0-2.373,5.609v44.492a7.533,7.533,0,0,0,1.543,4.789,7.852,7.852,0,0,1-1.148-4.261v-44.492a7.4,7.4,0,0,1,2.415-5.707,7.118,7.118,0,0,1,5.111-1.983c.269,0,.547.013.827.036"/><path class="a" d="M122.763,1349.565v-.363c-2.568-.155-5.159-.323-7.7-.5v57.345l.395-.027v-56.932l.071.006c2.335.159,4.769.317,7.234.468"/><path class="a" d="M144.134,1350.63v-.375c-2.581-.1-5.232-.209-7.879-.332v54.908l.395-.017v-54.5l.069,0c2.4.111,4.9.217,7.415.315"/><path class="a" d="M161.995,1351.152a9.107,9.107,0,0,1,4.781,1.379,8.857,8.857,0,0,0-5.311-1.774c-4.769-.095-9.6-.227-14.364-.394v54.029l.4-.014v-53.624l.067,0c4.783.168,9.638.3,14.43.4"/><path class="a" d="M234.993,1349.846a7.78,7.78,0,0,1,4.248,1.156,7.561,7.561,0,0,0-4.775-1.552c-.188,0-.379.006-.572.016-4.718.264-9.556.5-14.384.693v54.436l.4.017V1350.56l.063,0c4.871-.2,9.731-.432,14.445-.7.2-.01.391-.015.58-.015"/><path class="a" d="M181.139,1351.342c2.189,0,4.4-.007,6.558-.021h.081a8.732,8.732,0,0,1,4.795,1.3,8.478,8.478,0,0,0-5.322-1.7h-.08c-2.2.015-4.407.022-6.56.022-2.571,0-5.207-.01-7.832-.031v52.923l.395,0V1351.31h.066c2.628.021,5.286.031,7.9.031"/><path class="a" d="M216.748,1350.267c-6.043.228-12.194.4-18.28.515v53.192l.4.007v-52.8h.065c5.888-.111,11.884-.278,17.819-.5Z"/><path class="a" d="M261.029,1348.005c.266-.022.534-.034.794-.034a7.137,7.137,0,0,1,3.872,1.056,6.948,6.948,0,0,0-4.4-1.452c-.253,0-.517.01-.782.032-2.481.209-5,.411-7.484.6a8.959,8.959,0,0,0-5.929,2.766,7.632,7.632,0,0,0-2.4,5.6v16.644a7.153,7.153,0,0,0,1.526,4.561,7.289,7.289,0,0,1-1.132-4.034V1357.1a7.763,7.763,0,0,1,2.438-5.691,9.092,9.092,0,0,1,6.014-2.8c2.476-.188,4.993-.388,7.483-.6"/><path class="b" d="M91.888,1417.371a717.856,717.856,0,0,1,177.426,0v-3.081a774.679,774.679,0,0,0-177.426,0Z"/><path class="c" d="M113.3,1425.568a266.643,266.643,0,0,1,134.608,0v-2.907a273.832,273.832,0,0,0-134.608,0q0,1.453,0,2.907"/><path class="b" d="M162.982,1341.613c-23.779-.583-47.526-2.343-71.094-5.284v3.08c25.062,2.9,50.323,4.554,75.613,4.981a29.612,29.612,0,0,1-4.519-2.777"/><path class="b" d="M198.22,1341.613a29.519,29.519,0,0,1-4.518,2.776c25.289-.426,50.55-2.083,75.612-4.981v-3.08c-23.568,2.942-47.314,4.7-71.094,5.285"/><path class="c" d="M157.066,1335.709a269.953,269.953,0,0,1-43.768-7.577q0,1.455,0,2.908a276.424,276.424,0,0,0,46.28,7.585,29.444,29.444,0,0,1-2.512-2.916"/><path class="c" d="M204.136,1335.71a29.549,29.549,0,0,1-2.512,2.915,276.426,276.426,0,0,0,46.281-7.586v-2.907a269.853,269.853,0,0,1-43.769,7.578"/><path class="d" d="M153.253,1318.026a27.348,27.348,0,1,1,27.349,27.349,27.348,27.348,0,0,1-27.349-27.349"/><path d="M180.6,1290.678a27.348,27.348,0,1,0,27.349,27.349,27.38,27.38,0,0,0-27.349-27.349m19.769,12.153a24.736,24.736,0,0,1,5.149,14h-10.3a24.724,24.724,0,0,1,5.156-14m-39.537,0a24.729,24.729,0,0,1,5.156,14h-10.3a24.721,24.721,0,0,1,5.149-14m0,30.39a24.721,24.721,0,0,1-5.149-14h10.3a24.736,24.736,0,0,1-5.156,14m20.967,9.722V1335.8h-2.4v7.146a24.789,24.789,0,0,1-16.983-7.853,27.076,27.076,0,0,0,5.967-15.865v-2.4a27.074,27.074,0,0,0-5.967-15.865,24.786,24.786,0,0,1,16.983-7.854v7.082h2.4v-7.082a24.78,24.78,0,0,1,16.983,7.854,27.08,27.08,0,0,0-5.967,15.865v2.4a27.083,27.083,0,0,0,5.967,15.865,24.783,24.783,0,0,1-16.983,7.853m18.57-9.722a24.724,24.724,0,0,1-5.156-14h10.3a24.733,24.733,0,0,1-5.149,14"/><path class="c" d="M174.509,1306.572v22.817H186.7v-3.137h-8.927v-19.679Z"/><path class="b" d="M190.843,1314.216v-9.4c0-1.409-.567-1.983-1.956-1.983H172.293c-1.373,0-1.933.574-1.933,1.983v26.424c0,1.409.56,1.983,1.933,1.983h16.593c1.39,0,1.957-.575,1.957-1.983v-9.412h-3.288v8.509H173.623v-24.618h13.932v8.5Z"/><path class="c" d="M186.694,1325.368l0-18.8h-7.92l-.077,18.8h3.172l.051-5.859h1.613l-.024,5.859Zm-3.179-8.986h-1.589v-6.674h1.589Z"/></g></g><rect class="e" width="200" height="200"/></svg>