<svg xmlns="http://www.w3.org/2000/svg" width="200" height="200" viewBox="0 0 200 200"><defs><style>.a,.f{fill:#041e41;}.a,.g{fill-rule:evenodd;}.b{fill:#0071ce;}.c{fill:#f42534;}.d,.g{fill:#fff;}.e{fill:#ffb819;}.h{fill:none;mix-blend-mode:multiply;isolation:isolate;}</style></defs><g transform="translate(-702.115 -1564.904)"><path class="a" d="M873.057,1612.214l-7.533,15.411,4.659,2.28,7.533-15.412Zm-24.184,37.812,21.806-44.75,9.267,4.51a5.136,5.136,0,0,1,2.379,6.888l-8.028,16.5c-1.041,2.131-2.825,3.023-4.857,2.032l-5.5,22.1-4.658-2.28,5.5-22.152-1.487-.744-9.762,20.071Zm13.034-48.269-9.762-3.171a5.131,5.131,0,0,0-6.492,3.32l-12.141,37.415a5.131,5.131,0,0,0,3.32,6.492l9.762,3.172,1.586-4.906-9.812-3.172,5.3-16.255,7.334,2.379,1.586-4.906-7.334-2.379,5.3-16.255,9.812,3.171Zm-36.177-3.964,5.1.793-6.195,38.852-5.054-.793Zm-12.042,43.115,10.16,1.586a5.121,5.121,0,0,0,5.9-4.262l6.146-38.852a5.158,5.158,0,0,0-4.262-5.9l-10.209-1.586Zm-19.228-.347,5.155.1.247-14.371c.1-4.361-.2-13.232-.4-17.394h.149c1.338,11.1,3.816,21.408,5.4,31.864l4.856.1.892-49.656-5.154-.1-.248,14.372c-.1,4.36.2,13.231.4,17.394h-.148c-1.339-11.1-3.816-21.409-5.4-31.865l-4.857-.1Zm-10.853-48.714-5.1.792,6.988,43.958-5.1.793-6.988-43.958-5.054.793,6.64,41.827a7.724,7.724,0,0,0,15.263-2.379Zm-25.869,57.04,4.906-1.586-6.889-21.161,4.906-1.586,6.889,21.161,4.906-1.586L757.144,1596.9l-4.906,1.586,6.889,21.161-4.906,1.586-6.938-21.161-4.906,1.585Zm-10.258,5,4.609-2.23-19.477-40.042,4.609-2.28-2.23-4.559-13.876,6.74,2.23,4.609,4.609-2.28Z" transform="translate(0)"/><path class="b" d="M850.464,1679.031a248.821,248.821,0,0,1,33.352-5.1c-11.943,3.668-24.135,7.732-36.425,12.191,1.09-2.28,2.082-4.658,3.073-7.087M729.99,1739.193a242.584,242.584,0,0,1,32.064-23.836c2.23-1.141,4.411-2.231,6.64-3.32.892-.447,2.726-1.339,4.956-2.379,1.536,1.685,3.072,3.369,4.708,4.955-16.849,7.88-33.055,16.106-48.368,24.58" transform="translate(0.194 1.819)"/><path class="c" d="M855.349,1665.154a247.948,247.948,0,0,1,28.594.446q-14.867,2.082-30.229,4.906.892-2.6,1.635-5.352m-133.457,40.885a243.307,243.307,0,0,1,36.523-18.981c.445.892.892,1.784,1.338,2.627-.694,1.437-1.437,2.924-2.131,4.36-12.29,3.816-24.234,7.781-35.73,11.993" transform="translate(0.017 1.623)"/><path class="d" d="M792.184,1701.168l1.635-.744,4.113-3.32.941-2.527c.595,1.24.942,1.685,1.537,2.875l1.338-.595c.049,1.338.049,2.577.049,3.816a45.1,45.1,0,0,1-9.514,1.09Zm11.893-5.352c1.735-.744,3.419-1.487,5.155-2.231l.793-.842a8.877,8.877,0,0,0,1.188.049,15.854,15.854,0,0,0,2.379-.644,30.659,30.659,0,0,0-1.09,5.5c-2.428.842-5.154,1.685-8.275,2.478-.05-1.438-.1-2.826-.149-4.311m-1.833-46.088c18.634,0,33.253,4.36,49.755,12.587-8.077,30.429-22.846,50.9-49.755,67.5a118.526,118.526,0,0,1-25.869-21.161c3.172-1.537,6.79-3.222,9.961-4.708,1.289.1,2.478.2,3.668.2a5.8,5.8,0,0,1-1.536,3.964c.495.595,1.04,1.189,1.585,1.734a7.635,7.635,0,0,0,2.379-5.7,47.11,47.11,0,0,0,9.366-1.041c-.148,4.807-.842,8.326-2.18,9.713l-.1.1c-.347.4-.645.644-.892.892,1.289-.248,2.626-.545,3.865-.892,1.636-3.419,1.685-9.366,1.685-10.407,3.023-.743,5.749-1.536,8.226-2.378.1,2.774,1.24,5.451,3.37,6.442.941-.694,1.883-1.388,2.825-2.131-.545.1-3.915.3-3.865-5.1,7.185-2.726,11.844-5.948,15.957-10.8a45.074,45.074,0,0,0,2.576-7.682c-4.906,7.731-9.416,12.241-18.237,15.809a34.969,34.969,0,0,1,1.438-5.649c2.577-1.09,5.253-2.379,6.889-3.024l3.865-4.063c.991-3.767,1.932-7.484,2.875-11.249l-3.023.941,3.567-3.717c.744-2.924,1.487-5.9,2.23-8.821-1.783.247-3.568.545-5.352.793.3-1.487.5-2.924.644-4.362-.842-.2-1.734-.446-2.576-.595a46.006,46.006,0,0,1-.991,5.452l-.248.049a10.041,10.041,0,0,0-4.856,2.082l.5-1.437c-2.875.5-5.7,1.04-8.574,1.586l-2.825,2.973.1-.247.942-2.379-8.475,1.784c-.595-3.816-1.19-7.235-1.685-10.011l-2.378.3c.495,2.825,1.139,6.343,1.734,10.209l-1.983.446-2.527,2.676c-1.784-1.883-5.4-.694-7.682-.1-2.478.644-4.906,1.289-7.383,1.932-.744.2-1.487.447-2.181.694a64.531,64.531,0,0,1-5.005-8.375l-.248-.546c-.743.3-1.486.595-2.23.942l.3.644a65.133,65.133,0,0,0,4.857,8.226,21.859,21.859,0,0,0-7.236,5.153s-3.468,3.619-3.865,4.064a22.874,22.874,0,0,0-2.329,3.221,118.3,118.3,0,0,1-8.673-23.886c16.354-8.276,30.973-12.637,49.607-12.637" transform="translate(0.691 1.289)"/><path class="c" d="M791.9,1701.034l1.635-.744,4.113-3.32.941-2.527c.595,1.24.942,1.685,1.537,2.924l1.338-.595c.049,1.339.049,2.577.049,3.816a45.051,45.051,0,0,1-9.514,1.09Zm11.893-5.352c1.735-.744,3.419-1.487,5.155-2.231l.793-.842a8.493,8.493,0,0,0,1.139.049,15.889,15.889,0,0,0,2.379-.644,30.569,30.569,0,0,0-1.09,5.5c-2.428.842-5.155,1.685-8.276,2.478,0-1.438-.049-2.826-.1-4.311m-32.509-31.816a106.163,106.163,0,0,1,25.324-6.938c.495,2.825,1.139,6.343,1.734,10.209l-1.983.446-2.527,2.676c-1.784-1.883-5.4-.694-7.632-.1-2.478.644-4.906,1.289-7.384,1.932-.743.2-1.487.447-2.181.694a67.548,67.548,0,0,1-5.005-8.325Zm-2.032,12.885a102.374,102.374,0,0,1-3.518-10.407c1.089-.546,2.23-1.041,3.369-1.536l.3.644a65.141,65.141,0,0,0,4.857,8.226,20.919,20.919,0,0,0-5.005,3.073m18.931,31.221c-1.041-1.239-2.082-2.478-3.073-3.717l.941-.446c1.289.1,2.527.2,3.668.2a6.035,6.035,0,0,1-1.536,3.964m10.109,5.748a37.123,37.123,0,0,1-4.113.546c-1.536-1.487-3.023-3.023-4.411-4.56a7.635,7.635,0,0,0,2.379-5.7,47.11,47.11,0,0,0,9.366-1.041c-.148,4.807-.842,8.326-2.18,9.713l-.1.1a8.116,8.116,0,0,1-.942.941m17.147-7.185a43.81,43.81,0,0,1-13.281,6.343c1.635-3.419,1.685-9.366,1.685-10.407,3.023-.743,5.748-1.536,8.226-2.378.1,2.775,1.239,5.451,3.369,6.442m14.868-18.089a44.5,44.5,0,0,1-12.042,15.958c-.546.1-3.915.3-3.866-5.1,7.136-2.776,11.795-6,15.908-10.854m-18.287-32.608a99.938,99.938,0,0,1,11.646.645,88.706,88.706,0,0,1,8.673,2.23,44.154,44.154,0,0,1,.545,22.053c-4.906,7.731-9.416,12.24-18.237,15.808a35,35,0,0,1,1.438-5.649c2.577-1.09,5.253-2.379,6.889-3.023l3.865-4.064c.991-3.766,1.932-7.483,2.875-11.249l-3.023.942,3.567-3.718c.744-2.924,1.487-5.9,2.23-8.821-1.783.248-3.568.546-5.352.793.3-1.486.5-2.924.644-4.36-.842-.2-1.734-.447-2.576-.595a46.03,46.03,0,0,1-.991,5.451l-.248.05a10.031,10.031,0,0,0-4.856,2.082l.5-1.438c-2.875.5-5.7,1.041-8.574,1.586l-2.825,2.974.1-.248.942-2.378-8.475,1.783c-.595-3.816-1.19-7.235-1.685-10.011a92.125,92.125,0,0,1,12.934-.842" transform="translate(0.978 1.423)"/><path class="e" d="M765.565,1680.5a113.586,113.586,0,0,1-5.848-15.809,107.844,107.844,0,0,1,43.313-10.456,103.237,103.237,0,0,1,20.764,2.23,113.055,113.055,0,0,0-11.646-.644,102.73,102.73,0,0,0-13.034.793l-2.378.3a106.16,106.16,0,0,0-25.324,6.939c-.743.3-1.487.595-2.23.941-1.14.5-2.231.991-3.37,1.536a102.675,102.675,0,0,0,3.518,10.407,28.881,28.881,0,0,0-2.181,2.082Zm37.365,44.155a106,106,0,0,1-21.062-18.782l3.419-1.586c.991,1.238,2.033,2.527,3.073,3.717.5.595,1.04,1.189,1.586,1.734a105.5,105.5,0,0,0,14.966,13.579c-.694.5-1.338.892-1.982,1.338" transform="translate(0.846 1.388)"/><path class="f" d="M792.294,1701.24l.1.595a45.1,45.1,0,0,0,9.514-1.09c0-1.239,0-2.478-.049-3.816l-1.338.595c-.595-1.189-.892-1.685-1.537-2.875l-.941,2.527-4.113,3.321Zm11.893-5.352c.05,1.486.1,2.874.1,4.261a84.393,84.393,0,0,0,8.276-2.478,30.572,30.572,0,0,1,1.09-5.5,14.468,14.468,0,0,1-2.379.645,3.123,3.123,0,0,1-1.19-.05l-.793.843c-1.685.793-3.369,1.536-5.1,2.28m-1.833-46.088c-18.634,0-33.253,4.36-49.805,12.587a115.334,115.334,0,0,0,8.673,23.887,21.285,21.285,0,0,1,2.329-3.222c.4-.446,3.865-4.063,3.865-4.063a21.357,21.357,0,0,1,7.236-5.154,56.9,56.9,0,0,1-4.857-8.227l-.3-.644c.744-.3,1.487-.644,2.23-.941l.248.545a64.479,64.479,0,0,0,5.005,8.376c.694-.248,1.437-.447,2.181-.694,2.477-.645,4.906-1.289,7.383-1.934,2.28-.594,5.9-1.783,7.632.1l2.528-2.675,1.982-.447c-.595-3.915-1.19-7.433-1.734-10.209l2.379-.3c.5,2.774,1.09,6.244,1.685,10.01l8.474-1.783-.941,2.378-.1.248,2.825-2.974c2.875-.545,5.7-1.09,8.573-1.586l-.445,1.438a10.03,10.03,0,0,1,4.856-2.082l.248-.05a46.059,46.059,0,0,0,.991-5.451c.842.2,1.734.4,2.576.595a33.08,33.08,0,0,1-.644,4.361c1.784-.3,3.568-.545,5.352-.793-.743,2.925-1.486,5.9-2.23,8.821l-3.568,3.718,3.023-.942c-.991,3.717-1.933,7.484-2.875,11.249l-3.865,4.064c-1.636.694-4.311,1.983-6.889,3.023a36.308,36.308,0,0,0-1.438,5.649c8.821-3.568,13.331-8.077,18.237-15.808a45.071,45.071,0,0,1-2.576,7.681c-4.113,4.857-8.772,8.127-15.957,10.8-.05,5.451,3.369,5.2,3.865,5.1a30.1,30.1,0,0,1-2.825,2.131c-2.131-.991-3.271-3.667-3.37-6.442-2.428.842-5.154,1.586-8.226,2.379-.049,1.04-.049,6.987-1.685,10.407q-1.931.519-3.865.891l.892-.891a.106.106,0,0,1,.1-.1c1.388-1.388,2.031-4.906,2.18-9.713a51.143,51.143,0,0,1-9.366,1.04,7.289,7.289,0,0,1-2.379,5.7c-.545-.595-1.04-1.14-1.585-1.734a6.039,6.039,0,0,0,1.536-3.965c-1.14-.049-2.379-.1-3.668-.2-3.171,1.487-6.789,3.221-9.961,4.708a118.5,118.5,0,0,0,25.869,21.161c26.909-16.6,41.678-37.069,49.755-67.5-16.3-8.177-30.923-12.538-49.557-12.538m-53.72,10.8c17.841-9.169,33.5-14.174,53.769-14.174,20.22,0,35.93,5.005,53.77,14.174-8.326,33.4-24.184,55.553-53.819,73.295a122.959,122.959,0,0,1-29.041-23.639c-2.23,1.09-4.063,1.932-4.955,2.428-2.776,1.388-5.6,2.776-8.376,4.212-3.122,1.586-6.64,4.014-10.258,3.073-3.965-1.735-1.338-6.542-.149-9.268,3.073-6.938,6.294-13.777,9.614-20.615a106.111,106.111,0,0,1-9.366-24.63Z" transform="translate(0.581 1.217)"/><path class="g" d="M824.342,1663.571a7.972,7.972,0,0,0-4.559,2.131,10.677,10.677,0,0,0-2.082,3.915c-1.388,4.262-2.725,8.574-4.113,12.835-.545,1.685-1.437,4.757,1.289,4.559a13.065,13.065,0,0,0,2.676-.891c2.725-1.19,5.5-2.33,8.276-3.469.694-2.676,1.388-5.4,2.082-8.078-1.437.447-2.875.892-4.362,1.388-.346,1.24-.693,2.428-1.04,3.668-.991.346-2.032.743-3.023,1.09,1.289-4.361,2.527-8.673,3.816-13.033l2.676-.595c-.2.743-.447,1.536-.645,2.28,1.289-.3,2.626-.645,3.915-.942.5-1.932.991-3.915,1.487-5.9q-3.122.521-6.393,1.041M812,1665.652c-3.072,4.014-6.095,8.078-9.119,12.142,1.388-3.718,2.826-7.434,4.262-11.151-3.172.645-6.393,1.339-9.515,2.082-.842,1.932-1.635,3.816-2.478,5.748.694-.2,1.388-.4,2.033-.545-2.478,6.046-4.956,12.092-7.335,18.187-.991,2.478-1.932,4.956-2.924,7.434,3.172-1.487,6.393-2.974,9.565-4.461,1.437-4.014,2.924-7.979,4.411-11.993q2.007,4.09,4.014,8.177c2.081-.892,4.113-1.833,6.194-2.725-1.239-2.875-2.527-5.749-3.816-8.574,2.28-3.468,4.609-6.938,6.939-10.357.644-.148,1.338-.3,1.981-.445.5-1.487.991-2.974,1.487-4.51-1.883.3-3.816.644-5.7.99m-37.96,33.3c-2.231.991-4.411,1.982-6.641,3.023q4.833-11.15,10.011-22.152c1.934-.595,3.915-1.24,5.848-1.833q-4.833,10.48-9.218,20.962m5.3-25.621a21.8,21.8,0,0,0-10.953,6.244,30.934,30.934,0,0,0-4.113,6.542q-5.054,10.258-9.663,20.665c-.793,1.784-3.271,6.195-.645,7.334,2.925.743,6.542-1.685,9.119-2.974,2.776-1.437,5.6-2.825,8.376-4.212,4.757-2.379,9.068-5.253,11.943-9.861a46.379,46.379,0,0,0,2.875-6.145c1.833-4.51,3.667-8.97,5.6-13.43.694-1.685,1.932-3.767,1.536-5.6-.793-2.478-4.955-.942-6.74-.5-2.429.644-4.906,1.289-7.334,1.932" transform="translate(0.694 1.57)"/><path class="b" d="M835.216,1659.929c1.239.4,2.478.842,3.668,1.288-1.19-.446-2.429-.891-3.668-1.288m-.2-.3c1.289.446,2.527.842,3.767,1.338,3.072,1.139,5.748,2.28,8.028,3.37a106.353,106.353,0,0,1-41.034,57.783l-1.635,1.139a102.115,102.115,0,0,1-9.317-7.83l2.776-.446a44.146,44.146,0,0,0,23.044-11.4,44.661,44.661,0,0,0,13.628-39.943,7.068,7.068,0,0,0-.2-.991l-.05-.149-.049-.148-.05-.1-.049-.149-.05-.148-.049-.149-.05-.148-.049-.149-.05-.148-.049-.149-.05-.2-.049-.148-.05-.148-.049-.1-.05-.149c-.1-.5-.247-.941-.346-1.338a13.523,13.523,0,0,1,2.032.5" transform="translate(1.615 1.495)"/></g><rect class="h" width="200" height="200"/></svg>