<svg xmlns="http://www.w3.org/2000/svg" width="200" height="200" viewBox="0 0 200 200"><defs><style>.a{fill:#2f241c;}.b{fill:none;mix-blend-mode:multiply;isolation:isolate;}</style></defs><g transform="translate(-1317.184 -1508.045)"><path class="a" d="M1449.518,1562.761l-64.084.005s3.831,5.509,3.831,15.978v8.1H1375.7a5.894,5.894,0,0,1-5.894-5.894V1548a5.912,5.912,0,0,1,5.894-5.894h43.981c3.384.045,5.609,3.405,5.147,6.757a10.677,10.677,0,0,1-2.143,5.19h17.452V1546.5a17.455,17.455,0,0,0-17.455-17.455h-52.043a17.455,17.455,0,0,0-17.455,17.455v36.276a17.455,17.455,0,0,0,17.455,17.455h48.019a5.894,5.894,0,0,1,5.894,5.894v31.43a5.907,5.907,0,0,1-5.89,5.89h-12.778V1606.51h-16.619v36.934h-14.509a5.89,5.89,0,0,1-5.89-5.89v-3.137c0-10.44,2.806-12.853,2.806-12.853h-17.451v17.81a17.453,17.453,0,0,0,17.452,17.452h17.591v14.664c0,10.468-3.83,15.978-3.83,15.978h64.092a22.763,22.763,0,0,0,22.763-22.763V1585.53a22.769,22.769,0,0,0-22.771-22.769Zm6.152,102.261a8.989,8.989,0,0,1-8.989,8.989h-40.8v-17.185h17.838a17.453,17.453,0,0,0,17.452-17.452V1604.3a17.455,17.455,0,0,0-17.455-17.455h-17.835v-10.63h40.8a8.988,8.988,0,0,1,8.987,8.988v79.817Zm18.369,16.623v1.054h-1.333v4.769h-1.29V1682.7H1470v-1.054Zm4.375,0-1.273,3.222-1.272-3.222h-1.29v5.825h1.29v-3.233l1.162,2.878h.221l1.162-2.878v3.233h1.29v-5.825Z"/></g><rect class="b" width="200" height="200"/></svg>