<svg xmlns="http://www.w3.org/2000/svg" width="200" height="200" viewBox="0 0 200 200"><defs><style>.a{fill:#fff;}.b{fill:#c60c30;}.c{fill:#024;}.d{fill:#b0b7bc;}.e{fill:none;mix-blend-mode:multiply;isolation:isolate;}</style></defs><g transform="translate(-404.424 -1485.643)"><path class="a" d="M597.93,1550.793c-24.028,5.666-25.077-8.228-61.214-10.776-48.642-3.429-89.516,17.729-122.181,20.441-7.1.589-6.176,6.486-1.077,7.487,12.312,2.869,25.016,2.5,36.644.948a2.8,2.8,0,0,0,.516,3.482c4.606,3.909,23.118,4.244,31.245,3.776,2.76-.157,8.65-.713,8.65-.713-1.68.159-4.3,5.271,1.245,6.71,34.3,9.589,50.442,25.074,68.97,49.461,7.528-.961,14.618-10.006,11.6-16.91l1.5-3.706,5.546-2.564-1.589-12.368,8.454-3.976s13.166-35.33,13.937-37.9-.825-3.722-2.245-3.387" transform="translate(0 0)"/><path class="b" d="M503.032,1556c-23.784,1.4-52.32,14.824-88.654,8.842,32.2-4.341,56.755-14.975,86.7-19.21L503.032,1556Zm2.563,13.876c-13.155,1.548-28.417,5.22-50.435,1.078,18.978-.515,33.183-6.857,48.819-9.974l1.616,8.9Z" transform="translate(-0.283 -0.342)"/><path class="c" d="M511.8,1569.619c9.641-1.034,18.144-.706,27.413,4.937-19.331-2.095-28.8,3.3-40.845,4.5,42.566,11.152,58.15,34.984,68.7,48.191,7.378-3.13,7.777-9.531,5.9-11.816l1.9-4.065.088-2.612,5.086-2.375-1.609-12.652,9.523-3.895,12.618-34.488c-21.379,4.429-28.307-9.375-58.723-11.258a175.267,175.267,0,0,0-34.025,1.174l1.708,10.556a43.356,43.356,0,0,1,19.844,3.488,76.749,76.749,0,0,0-19.1,1.262l1.515,9.057" transform="translate(-5.088 -0.234)"/><path class="d" d="M547.45,1601.27c11.5,8.044,17.414,16.957,23.411,24.759,3.049-1.265,4.007-4.8,3-6.048l-2.9-3.568,3.3.194,1.515-2.629-4.1-.242-4.625.833,4.69-3.207,3.571.209.132-2.03-3.648-1.744,1.254-1.37,6.748.42-1.939-15c-2.668-.325-4.911,1.071-5.879,4.922l-11.961-.7c1.683-3.809,4.3-5.523,9.28-4.89-2.791-3.9-16.393-4.265-18.315,1.859l10.56,8.641,1.366,7.9-4.339-6.287c-3.9-3.373-8-5.736-11.117-2.012" transform="translate(-7.896 -2.785)"/><path class="a" d="M584.078,1561.014l.849,7.536,8.5,3.184-7.97,1.993.786,10.161-6.892-8.585-10.3,2.424,6.368-7.4-5.25-6.947,8.8,3.014,5.121-5.375" transform="translate(-9.131 -1.223)"/></g><rect class="e" width="200" height="200"/></svg>