<svg xmlns="http://www.w3.org/2000/svg" width="200" height="200" viewBox="0 0 200 200"><defs><style>.a{fill:#fff;}.b{fill:#006bb5;}.c{fill:#ec174c;}.d{fill:none;mix-blend-mode:multiply;isolation:isolate;}</style></defs><g transform="translate(-1322.715 -1563.816)"><path class="a" d="M1501.365,1663.643a78.825,78.825,0,1,1-78.825-78.825,78.825,78.825,0,0,1,78.825,78.825"/><path class="b" d="M1498.431,1663.643a75.891,75.891,0,1,1-75.891-75.892,75.892,75.892,0,0,1,75.891,75.892"/><g transform="translate(1351.544 1675.99)"><path class="a" d="M1358.467,1677.4l1.569,5h5.312l-4.3,3.138,1.569,4.906-4.15-3.006-4.192,3.006,1.577-4.924-4.308-3.121h5.3Z" transform="translate(-1351.544 -1677.402)"/><path class="a" d="M1488.068,1677.4l1.568,5h5.313l-4.3,3.138,1.569,4.906-4.149-3.006-4.193,3.006,1.578-4.924-4.308-3.121h5.3Z" transform="translate(-1352.956 -1677.402)"/><path class="a" d="M1377.068,1704.184l1.569,5h5.312l-4.3,3.139,1.569,4.905-4.15-3.006-4.192,3.006,1.578-4.922-4.308-3.122h5.3Z" transform="translate(-1351.544 -1677.402)"/><path class="a" d="M1471.193,1704.184l1.568,5h5.313l-4.3,3.139,1.569,4.905-4.15-3.006-4.192,3.006,1.577-4.922-4.308-3.122h5.3Z" transform="translate(-1352.956 -1677.402)"/><path class="a" d="M1406.089,1721.612l1.568,5h5.313l-4.3,3.139,1.569,4.906-4.149-3.006-4.192,3.006,1.578-4.923-4.308-3.121h5.3Z" transform="translate(-1352.063 -1677.402)"/><path class="a" d="M1441.36,1721.612l1.569,5h5.312l-4.3,3.139,1.569,4.906-4.15-3.006-4.192,3.006,1.577-4.923-4.308-3.121h5.3Z" transform="translate(-1352.447 -1677.402)"/></g><path class="a" d="M1479.265,1664.007a56.724,56.724,0,1,1-56.724-56.723,56.724,56.724,0,0,1,56.724,56.723"/><path class="b" d="M1369.214,1675.146a54.471,54.471,0,0,0,64.465,42.183,53.546,53.546,0,0,0,34.444-23.489,55.513,55.513,0,0,0,7.741-40.971,53.542,53.542,0,0,0-23.506-34.421,54.458,54.458,0,0,0-83.144,56.7"/><g transform="translate(1370.81 1612.269)"><path class="a" d="M1442.037,1621.711c.183,2.146-.821,4.243-2.977,6.248-10.351-7.592-20.209-11.331-29.883-11.367a38.3,38.3,0,0,0-6.061.466,52.085,52.085,0,0,1,9.555-2.97,51.294,51.294,0,0,1,25.622,1.145c1.787,1.7,3.526,3.976,3.744,6.478" transform="translate(-1371.516 -1612.984)"/><path class="a" d="M1431.238,1710.851c10.879-9.985,15.921-31.4,18.933-44.187l.471-2c1.549-6.515,4.292-11.368,7.233-14.284,10.915,16.95,9.436,34.464,6.677,45.453a51.361,51.361,0,0,1-30.732,19.506,52.141,52.141,0,0,1-10.6,1.1,34.963,34.963,0,0,0,8.02-5.591" transform="translate(-1371.516 -1612.984)"/><path class="a" d="M1451,1638.223c4.411-3.7,7.962-6.525,10.453-8.359a51.194,51.194,0,0,1,11.615,20.99c-2.041-2.727-4.647-5.321-7.466-5.9a9.284,9.284,0,0,0-7.268,1.846,66.161,66.161,0,0,0-7.334-8.577" transform="translate(-1371.516 -1612.984)"/><path class="a" d="M1372.527,1662.377c5.021-13.488,23.439-18.991,30.372-21.062l.308-.093a88.207,88.207,0,0,1,9.322-1.876c8.934-1.512,19.944-3.393,26.584-8.357a106.278,106.278,0,0,1,8.316,7.095,824.57,824.57,0,0,0-63.155,60.657,51.371,51.371,0,0,1-11.65-23.456,51.9,51.9,0,0,1-1.108-10.549c.589-1.369,1.005-2.342,1.011-2.359" transform="translate(-1371.516 -1612.984)"/><path class="a" d="M1449.261,1636.537q-4.2-3.96-8.277-7.125c2.517-2.454,3.669-5.111,3.423-7.915a10.448,10.448,0,0,0-1.716-4.7,52.518,52.518,0,0,1,17.1,11.327c-2.61,1.924-6.174,4.761-10.526,8.409" transform="translate(-1371.516 -1612.984)"/><path class="a" d="M1437.115,1629.508c-6.247,4.311-16.571,6.065-24.982,7.492a89.654,89.654,0,0,0-9.608,1.943l-.307.093c-6.648,1.985-23.388,6.995-30.285,19.042a51.472,51.472,0,0,1,8.041-21.686,54.122,54.122,0,0,1,13.859-14.495c12.245-5.171,25.988-4.818,43.282,7.611" transform="translate(-1371.516 -1612.984)"/><path class="a" d="M1465.125,1647.287c3.613.743,7.5,6.809,9.346,10.31a51.263,51.263,0,0,1-6.281,32.694c.279-1.752.508-3.6.651-5.531a57.184,57.184,0,0,0-9.13-35.941,7.089,7.089,0,0,1,5.414-1.532" transform="translate(-1371.516 -1612.984)"/></g><path class="a" d="M1449.178,1639.764a63.232,63.232,0,0,1,7.311,8.563c-3.53,3.373-6.537,8.945-8.161,15.783l-.474,2.008c-2.95,12.526-7.885,33.492-18.226,42.978a30.219,30.219,0,0,1-12.183,7.031,51.514,51.514,0,0,1-22.52-8.14,52.265,52.265,0,0,1-9.037-7.486,822.14,822.14,0,0,1,63.29-60.737" transform="translate(-0.673 -0.938)"/><path class="a" d="M1437.517,1680.075l1.4-.383c.842-.222,1.419-.51,1.419-1.739,0-1.016-.288-2.873-1.507-2.873-1.311,0-1.311,2.2-1.311,3.4v1.594Z" transform="translate(-0.848 -0.827)"/><path class="a" d="M1420.693,1679.285c0-4.42-.16-8.239-3.161-8.239-2.444,0-2.863,3.819-2.863,8.239s-.127,8.247,2.863,8.247c2.546,0,3.161-3.83,3.161-8.247" transform="translate(-0.655 -0.854)"/><path class="a" d="M1437.517,1680.075l1.4-.383c.842-.222,1.419-.51,1.419-1.739,0-1.016-.288-2.873-1.507-2.873-1.311,0-1.311,2.2-1.311,3.4v1.594Z" transform="translate(-0.848 -0.827)"/><path class="a" d="M1414.339,1669.168h.05a8.039,8.039,0,0,1,6.854-3.309c6.076,0,9.806,5.235,9.806,12.284,0,8.343-5.66,13.308-12.641,13.308-10.752,0-14.655-8.671-14.655-18.715,0-11.567,5.025-21.121,17.544-21.121,4.874,0,8.891,3.153,8.891,7.957a4.511,4.511,0,0,1-4.712,4.639c-3.377,0-4.452-2.828-4.933-5.294-.2-1.052.2-3.371-1.551-3.371-3.634,0-4.23,7.124-4.386,9.745Z" transform="translate(-0.643 -0.791)"/><path class="a" d="M1420.693,1679.285c0-4.42-.16-8.239-3.161-8.239-2.444,0-2.863,3.819-2.863,8.239s-.127,8.247,2.863,8.247c2.546,0,3.161-3.83,3.161-8.247" transform="translate(-0.655 -0.854)"/><g transform="translate(1351.202 1592.711)"><path class="a" d="M1355.572,1652.024c2.037.242,2.884,1.677,2.568,4.341l-.228,1.928,1.1.13c1.411.167,1.938.135,2.1-1.006l1.3.154-.62,5.234-1.3-.154c.1-1.147-.4-1.3-1.812-1.47l-4.074-.483c-1.41-.168-1.939-.135-2.106,1.005l-1.3-.153.682-5.751C1352.21,1653.04,1353.473,1651.776,1355.572,1652.024Zm1.085,5.595c.205-1.739-.3-2.673-1.541-2.82-1.081-.128-1.859.542-2.014,1.843-.111.924.217,1.106,1.2,1.224l2.272.269C1356.616,1657.964,1356.636,1657.791,1356.657,1657.619Z" transform="translate(-1351.202 -1592.711)"/><path class="a" d="M1363.235,1646.246c.416-1.075-.027-1.363-1.337-1.911l-3.785-1.585c-1.31-.548-1.827-.662-2.3.388l-1.207-.5,2.035-4.861,1.179.493c-.416,1.075.028,1.364,1.338,1.912l.975.408,1.523-3.639-.975-.409c-1.311-.547-1.826-.661-2.3.389l-1.179-.493,2.035-4.863,1.209.506c-.416,1.075.028,1.364,1.338,1.912l3.784,1.584c1.31.549,1.828.662,2.3-.388l1.208.506-2.035,4.861-1.18-.494c.415-1.075-.027-1.363-1.339-1.912l-1.643-.688-1.524,3.639,1.645.689c1.31.547,1.827.661,2.3-.389l1.181.494-2.036,4.861Z" transform="translate(-1351.202 -1592.711)"/><path class="a" d="M1368.328,1620.4c-.664.942-.3,1.329.832,2.181l3.287,2.46c1.138.851,1.61,1.087,2.327.184l1.048.786-3.149,4.207-1.049-.784c.665-.942.294-1.318-.843-2.169l-3.285-2.46c-1.138-.851-1.6-1.1-2.318-.2l-1.049-.784,3.151-4.209Z" transform="translate(-1351.202 -1592.711)"/><path class="a" d="M1380.189,1621.021l-.841-1c.86-.765.587-1.215-.325-2.3l-2.64-3.144c-.912-1.088-1.308-1.437-2.211-.72l-.842-1,4.027-3.378.842,1c-.862.764-.6,1.225.314,2.313l2.941,3.507c.681.81.993.939,1.829.238,1.111-.933,1.582-2.607,1.182-4.682l1.152-.245,1.186,3.868Z" transform="translate(-1351.441 -1592.711)"/><path class="a" d="M1392.7,1611.4l-.543-1.192c.989-.608.943-1.28.906-2.427l-.284-8.147,2.2-1,6.07,5.923c.689.674,1.065,1.005,1.968.7l.543,1.192-4.8,2.189-.531-1.163c.027-.013.072-.032.1-.046.661-.3.912-.589.721-1.005a1.309,1.309,0,0,0-.282-.392l-1.113-1.106-3.1,1.416.193,1.525a1.288,1.288,0,0,0,.087.343c.21.459.659.5,1.413.17l.532,1.163Zm3.91-7.442-2.273-2.433.191,3.384Z" transform="translate(-1351.637 -1592.711)"/><path class="a" d="M1408.952,1603.526c1.136-.193,1.157-.723.958-2.13l-.577-4.064c-.2-1.408-.367-1.91-1.514-1.779l-.184-1.3,5.315-.756c4.081-.579,6.526,1.019,7,4.4.482,3.392-1.406,5.591-5.5,6.172l-5.316.756Zm3.8-1.879c.15,1.047.332,1.325,1.427,1.169,2.11-.3,3.246-1.96,2.884-4.509s-1.912-3.811-4.023-3.512c-1.095.156-1.192.473-1.044,1.52Z" transform="translate(-1351.806 -1592.711)"/><path class="a" d="M1427.464,1601.969c1.145.135,1.314-.366,1.52-1.771l.593-4.059c.2-1.406.188-1.935-.948-2.133l.19-1.295,8.759,1.28.971,3.4-1.06.371a4.845,4.845,0,0,0-3.69-3.011c-1.046-.153-1.231.139-1.382,1.17l-.221,1.515.5.072c1.108.162,1.439-.14,1.69-1.426l1.11.161-.7,4.762-1.108-.161c.037-1.239-.318-1.865-1.192-1.993l-.5-.073-.36,2.467c-.151,1.03-.054,1.347,1.008,1.5a5.455,5.455,0,0,0,4.808-2.247l.92.692-2.122,3.39-8.977-1.312Z" transform="translate(-1352.009 -1592.711)"/><path class="a" d="M1443.995,1606.631l.526-1.2c1.068.434,1.348-.012,1.919-1.312l1.647-3.758c.569-1.3.706-1.809-.336-2.3l.526-1.2,4.812,2.109-.526,1.2c-1.067-.434-1.362.006-1.933,1.3l-1.837,4.192c-.423.968-.4,1.305.6,1.743,1.329.582,3.038.263,4.717-1.016l.733.924-2.94,2.777Z" transform="translate(-1352.183 -1592.711)"/><path class="a" d="M1471.015,1614.443c-1.29,1.595-2.955,1.548-5.041-.138l-1.511-1.221-.7.859c-.891,1.1-1.145,1.569-.27,2.318l-.823,1.019-4.1-3.313.823-1.019c.916.7,1.317.354,2.21-.75l2.579-3.192c.893-1.1,1.146-1.57.27-2.318l.824-1.019,4.5,3.641C1471.946,1611.056,1472.345,1612.8,1471.015,1614.443Zm-5.313-2.062c1.363,1.1,2.423,1.168,3.208.2a1.789,1.789,0,0,0-.488-2.687c-.723-.585-1.052-.4-1.677.369l-1.439,1.78C1465.432,1612.162,1465.567,1612.271,1465.7,1612.381Z" transform="translate(-1352.357 -1592.711)"/><path class="a" d="M1471.82,1624.02c.685.926,1.166.7,2.33-.109l3.365-2.353c1.163-.814,1.536-1.19.9-2.153l1.073-.751,3.023,4.321-1.048.733c-.687-.927-1.168-.7-2.332.109l-.867.606,2.263,3.234.866-.606c1.164-.814,1.537-1.191.9-2.153l1.047-.733,3.022,4.32-1.074.751c-.686-.926-1.168-.7-2.332.11l-3.363,2.353c-1.164.813-1.537,1.19-.9,2.153l-1.074.75-3.021-4.32,1.047-.733c.686.927,1.168.705,2.331-.109l1.463-1.023-2.262-3.233-1.463,1.022c-1.163.814-1.536,1.191-.9,2.153l-1.048.733-3.022-4.32Z" transform="translate(-1352.614 -1592.711)"/><path class="a" d="M1490.963,1642.112c-.444-1.064-.963-.966-2.29-.456l-3.832,1.473c-1.327.51-1.779.785-1.395,1.872l-1.223.47-1.887-4.907,1.223-.471c.444,1.065.958.952,2.285.442l3.831-1.473c1.327-.51,1.785-.771,1.4-1.858l1.224-.47,1.886,4.908Z" transform="translate(-1352.614 -1592.711)"/><path class="a" d="M1484.086,1651.225l1.3-.169c.289,1.124.946,1.276,2.053,1.578l7.871,2.125.312,2.394-7.445,4.061c-.847.461-1.273.724-1.246,1.675l-1.3.17-.682-5.228,1.268-.166c.005.032.011.079.014.11.1.72.3,1.044.75.985a1.265,1.265,0,0,0,.458-.156l1.384-.737-.442-3.381-1.516-.264a1.342,1.342,0,0,0-.352-.018c-.5.065-.669.485-.579,1.3l-1.268.166Zm5.964,5.924,2.994-1.458-3.29-.812Z" transform="translate(-1352.614 -1592.711)"/></g><g transform="translate(1377.644 1647.17)"><path class="a" d="M1455.518,1671.431a3.576,3.576,0,0,0-2.749,1.263q-.105-.243-.227-.48l-.577-1.121-8.262,2.42v4.519h1.525c.148,0,.232.018.248.008a4.891,4.891,0,0,1,.2,1.939v5.254l-1.509.213v4.967h11.441v-4.966l-1.5-.213v-1.54a19.485,19.485,0,0,1,.417-3.556,5.276,5.276,0,0,0,1.495.229c2.051,0,3.484-1.844,3.484-4.484C1459.5,1673.22,1457.9,1671.431,1455.518,1671.431Z" transform="translate(-1378.375 -1647.952)"/><path class="a" d="M1469.849,1676.7a2.662,2.662,0,0,1-.133-.72c0-1.354-.54-4.5-5.545-4.5-2.769,0-8.2,2.131-8.2,7.057a6.463,6.463,0,0,0,1.328,4.155,3.814,3.814,0,0,0-1.759,3.416c0,1.777.9,4.758,6.889,4.758,5.124,0,8.065-2.657,8.065-7.291A23.9,23.9,0,0,0,1469.849,1676.7Z" transform="translate(-1378.375 -1647.952)"/><path class="a" d="M1409.435,1650.127a1.647,1.647,0,0,0-1.25-.572,3,3,0,0,0-2.082,1.242,12.775,12.775,0,0,1-9.537,3.939,21.322,21.322,0,0,1-14.385-6.281,1.759,1.759,0,0,0-1.225-.5c-2.031,0-2.57,3.27-2.573,3.3l-.008,16.381,1.3.193a31.694,31.694,0,0,0,13.082-.465c-4.193,3.756-13.632,13.963-13.493,23.7.023,1.8,1.134,1.989,1.61,1.989a1.9,1.9,0,0,0,1.242-.526c.069-.056.155-.127.261-.206a10.389,10.389,0,0,1,5.991-1.565,13.337,13.337,0,0,1,5.558,1.126,2.393,2.393,0,0,0,1.027.273,1.632,1.632,0,0,0,1.22-.534,2.162,2.162,0,0,0,.423-1.78c-.692-7.059.863-14.785,3.874-19.232l.45-.669c2.561-3.789,7.889-11.675,8.9-18.186A1.941,1.941,0,0,0,1409.435,1650.127Z" transform="translate(-1378.375 -1647.952)"/><path class="a" d="M1447.452,1681.419l-.075-1.241a12.136,12.136,0,0,0-.359-2.317l-.055-1.423-.263.407a7.852,7.852,0,0,0-7.547-5.415c-5.3,0-9,4.191-9,10.192,0,4.6,2.694,9.241,8.71,9.241a9.51,9.51,0,0,0,8.243-4.527l.227-.385-.171-4.453Zm-6.419,2.87a1.414,1.414,0,0,1-1.226-.812l2.935-.79A6,6,0,0,1,1441.033,1684.289Z" transform="translate(-1378.375 -1647.952)"/><path class="a" d="M1427.733,1666.928c-.3-.427-.638-.9-.918-1.325a5.906,5.906,0,0,0,4.9-6.032c0-5.405-4.478-9.481-10.416-9.481-11.94,0-19.069,8.466-19.069,22.646,0,12.863,5.9,20.24,16.18,20.24,8.341,0,14.167-6.1,14.167-14.834C1432.575,1673.8,1429.661,1669.662,1427.733,1666.928Z" transform="translate(-1378.375 -1647.952)"/><g transform="translate(1.557 3.045)"><path class="b" d="M1441.065,1685.829c-1.854,0-2.945-1.69-3.133-3.4l7.955-2.141c-.234-3.881-2.479-7.315-6.7-7.315-4.5,0-7.478,3.5-7.478,8.665,0,4.033,2.313,7.717,7.184,7.717a7.941,7.941,0,0,0,6.929-3.774l-1.573-1.869A3.731,3.731,0,0,1,1441.065,1685.829Zm-3.516-7.333c0-1.2,0-3.4,1.312-3.4,1.219,0,1.506,1.858,1.506,2.874,0,1.229-.576,1.516-1.419,1.738l-1.4.383V1678.5Z" transform="translate(-1379.932 -1650.997)"/><path class="b" d="M1454.116,1688.9h-8.391v-2.116l1.51-.213v-6.579c0-2.349-.309-3.473-1.975-3.473v-1.85l5.957-1.745a10.991,10.991,0,0,1,.989,4.347h.059c.595-1.788,1.34-4.3,3.284-4.3,1.705,0,2.461,1.318,2.461,2.926,0,1.628-.713,2.959-1.959,2.959a5.724,5.724,0,0,1-2-.5c-1.09-.37-1.441,4.37-1.441,5.353v2.864l1.5.212v2.116Z" transform="translate(-1379.932 -1650.997)"/><path class="b" d="M1468.223,1675.994a2.062,2.062,0,0,1-2.311,1.953,2.9,2.9,0,0,1-2.725-2.578c-.615,0-1.052.315-1.052,1.36,0,2.436,6.868.7,6.868,6.86,0,4.615-3.334,5.765-6.54,5.765-1.952,0-5.364-.257-5.364-3.233a2.114,2.114,0,0,1,2.09-2.375c2.084,0,2.443,1.909,2.794,3.263.1.358.408.414.7.414,1.1,0,1.9-.454,1.9-1.179,0-2.765-7.05-1.693-7.05-7.693,0-3.812,4.506-5.533,6.674-5.533,2.469,0,4.02.827,4.02,2.976" transform="translate(-1379.932 -1650.997)"/><path class="b" d="M1421.276,1665.874a8.042,8.042,0,0,0-6.854,3.308h-.051l.268-3.877c.156-2.619.751-9.743,4.385-9.743,1.747,0,1.354,2.318,1.552,3.371.481,2.465,1.555,5.293,4.932,5.293a4.511,4.511,0,0,0,4.713-4.639c0-4.8-4.017-7.956-8.891-7.956-12.519,0-17.545,9.553-17.545,21.121,0,10.044,3.9,18.714,14.655,18.714,6.981,0,12.641-4.964,12.641-13.307C1431.081,1671.108,1427.352,1665.874,1421.276,1665.874Zm-3.711,21.673c-2.99,0-2.863-3.83-2.863-8.247s.419-8.239,2.863-8.239c3,0,3.16,3.819,3.16,8.239S1420.11,1687.547,1417.565,1687.547Z" transform="translate(-1379.932 -1650.997)"/><path class="c" d="M1379.932,1651.426v14.908c8.352,1.232,18.319.414,25.365-9.891.3-.439.47-.131.28.252-1.969,4.008-6.624,7.712-10.649,10.871-3.869,3.034-14.241,13.921-14.1,23.493.01.736.034.534.68.053,3.15-2.338,9.315-2.413,13.1-.6.532.248.571.173.509-.51-.728-7.421.941-15.528,4.125-20.231,2.189-3.262,8.087-11.652,9.1-18.236.105-.683-.245-.577-1.1.322-6.683,7.057-18.762,6.886-26.556-.592-.493-.475-.712-.262-.755.158" transform="translate(-1379.932 -1650.997)"/></g></g><g transform="translate(1379.737 1627.713)"><circle class="a" cx="14.292" cy="14.292" r="14.292"/><g transform="translate(0.629 0.505)"><path class="b" d="M1394.41,1628.688l.477,1.523h1.615l-1.313.951.481,1.5-1.259-.916-1.28.916.477-1.5-1.306-.945h1.615Z" transform="translate(-1380.76 -1628.688)"/><path class="b" d="M1403.923,1634.239l.49,1.51h1.619l-1.314.958.482,1.493-1.271-.922-1.276.922.493-1.493-1.33-.958h1.623Z" transform="translate(-1380.76 -1628.688)"/><path class="b" d="M1399.84,1629.955l.486,1.517h1.623l-1.313.958.476,1.5-1.267-.93-1.268.93.477-1.505-1.313-.952h1.615Z" transform="translate(-1380.76 -1628.688)"/><path class="b" d="M1405.48,1639.481l.485,1.516h1.615l-1.305.952.474,1.5-1.26-.927-1.271.927.485-1.5-1.322-.952h1.607Z" transform="translate(-1380.76 -1628.688)"/><path class="b" d="M1404.8,1645.021l.485,1.512h1.619l-1.313.965.481,1.5-1.268-.924-1.263.924.472-1.5-1.309-.956h1.615Z" transform="translate(-1380.76 -1628.688)"/><path class="b" d="M1401.74,1649.445l.477,1.517h1.623l-1.314.957.477,1.492-1.255-.92-1.276.92.481-1.492-1.322-.957h1.623Z" transform="translate(-1380.76 -1628.688)"/><path class="b" d="M1396.929,1651.92l.489,1.517h1.606l-1.309.96.485,1.5-1.267-.923-1.272.923.477-1.5-1.313-.958h1.615Z" transform="translate(-1380.76 -1628.688)"/><path class="b" d="M1384.714,1633.747l-.489,1.511h-1.611l1.305.962-.477,1.494,1.264-.927,1.28.927-.485-1.494,1.321-.962H1385.2Z" transform="translate(-1380.76 -1628.688)"/><path class="b" d="M1388.7,1629.955l-.485,1.517H1386.6l1.314.958-.485,1.5,1.272-.93,1.272.93-.477-1.505,1.313-.952h-1.619Z" transform="translate(-1380.76 -1628.688)"/><path class="b" d="M1382.856,1638.8l-.476,1.51h-1.62l1.318.951-.481,1.5,1.259-.92,1.272.92-.477-1.5,1.322-.951h-1.615Z" transform="translate(-1380.76 -1628.688)"/><path class="b" d="M1383.358,1644.335l-.494,1.521h-1.615l1.314.96-.477,1.5,1.263-.927,1.272.927-.485-1.5,1.313-.956h-1.615Z" transform="translate(-1380.76 -1628.688)"/><path class="b" d="M1386.412,1648.86l-.481,1.518h-1.619l1.313.956-.485,1.493,1.272-.926,1.281.926-.49-1.5,1.313-.952H1386.9Z" transform="translate(-1380.76 -1628.688)"/><path class="b" d="M1391.223,1651.73l-.481,1.521h-1.619l1.313.955-.477,1.492,1.255-.912,1.284.912-.49-1.5,1.323-.945h-1.619Z" transform="translate(-1380.76 -1628.688)"/></g></g></g><rect class="d" width="200" height="200"/></svg>