<svg xmlns="http://www.w3.org/2000/svg" width="200" height="200" viewBox="0 0 200 200"><defs><style>.a{fill:#ff5910;}.b{fill:none;mix-blend-mode:multiply;isolation:isolate;}</style></defs><g transform="translate(-152.031 -1508.506)"><path class="a" d="M300.887,1636.551a10.055,10.055,0,0,0-1.759-5.639,7.124,7.124,0,0,1-7.97,3.318c-2.9-.687-5.2-2.773-5.232-4.7V1585.45l.617.245a10.967,10.967,0,0,1,6.387,8.413,12.842,12.842,0,0,1,.2,2.3,10.71,10.71,0,0,1-2.618,6.959c3.013-.621,11.887-3.307,11.887-14.528,0-10.345-8.353-16.682-16.122-18.192l-.354-.066v-30.811c.028-1.931,2.33-4.018,5.233-4.707a7.122,7.122,0,0,1,7.969,3.319,10.043,10.043,0,0,0,1.76-5.638,11.485,11.485,0,0,0-2.969-7.646c-4.329-4.773-11.477-4.784-19.136-.044l-.242.166-.233-.167c-7.667-4.741-14.821-4.729-19.143.043a11.421,11.421,0,0,0-2.964,7.647,9.969,9.969,0,0,0,1.76,5.639,7.135,7.135,0,0,1,7.982-3.319c2.891.689,5.194,2.775,5.221,4.706v34.44l-.244.133a51.826,51.826,0,0,0-15.95,13.019l-.339.41-.354-.421s-39.358-47.724-39.446-48.1c.432-2.02,3.068-3.94,5.992-4.363a7.129,7.129,0,0,1,7.154,3.5,10.085,10.085,0,0,0,1.753-5.638,11.45,11.45,0,0,0-2.969-7.647c-4.328-4.773-11.486-4.784-19.145-.045l-.234.167-.232-.167c-7.664-4.74-14.816-4.728-19.141.044a11.446,11.446,0,0,0-2.973,7.647,10,10,0,0,0,1.759,5.638,7.15,7.15,0,0,1,7.986-3.319c2.891.69,5.2,2.776,5.222,4.707v30.91l-.354.067c-7.765,1.72-15.619,7.98-15.619,18.092,0,11.221,8.913,13.917,11.91,14.528a10.816,10.816,0,0,1-2.62-6.992,12.6,12.6,0,0,1,.145-1.877,11.1,11.1,0,0,1,5.9-8.546l.631-.323v43.9c-.021,1.931-2.33,4.017-5.221,4.7a7.149,7.149,0,0,1-7.986-3.319,10.007,10.007,0,0,0-1.759,5.626,11.416,11.416,0,0,0,2.974,7.649c4.323,4.784,11.477,4.795,19.14.067l.232-.156.234.156c7.664,4.728,14.816,4.716,19.146-.067a11.433,11.433,0,0,0,2.969-7.648,10.066,10.066,0,0,0-1.755-5.627,7.161,7.161,0,0,1-8,3.319c-2.892-.688-5.183-2.775-5.223-4.706v-40.655l.71.478c10.911,7.437,19.335,22.642,20.345,32.232v50.3c0,5.36-3.625,9.456-7.109,10.345-2.464.61-4.617-.458-6.116-2.72a9.719,9.719,0,0,0-1.73,5.428,9.881,9.881,0,0,0,2.58,6.659c4.246,4.694,11.548,4.539,19.511-.4l.245-.155.245.155c7.963,4.94,15.261,5.1,19.512.4a9.888,9.888,0,0,0,2.58-6.659,9.724,9.724,0,0,0-1.737-5.428c-1.448,2.164-3.5,3.186-5.895,2.587-3.545-.9-7.329-5.206-7.329-10.212v-49.622a36.541,36.541,0,0,1,3.73-12.409l.3-.642.46.554s15.989,19.644,16.09,19.978c-.2,1.975-2.641,3.984-5.573,4.574a7.214,7.214,0,0,1-7.658-3.32,10.051,10.051,0,0,0-1.714,5.572,11.367,11.367,0,0,0,2.964,7.625c4.322,4.784,11.475,4.8,19.14.067l.232-.156.244.156c7.659,4.728,14.807,4.716,19.134-.067a11.458,11.458,0,0,0,2.971-7.637ZM243.2,1608.282l-.4-1.033c-7.408-19.535-19.206-28.834-27.8-33.2l-.25-.111v-13.7l31.981,39.291.155.232-3.7,8.514Zm27.963-.445-8.752-10.62.245-.278a43.816,43.816,0,0,1,7.8-7.214l.711-.511v18.623Zm47.914,18.27-1.665,4.516h-.043l-1.594-4.516h-2.447v6.9h1.4v-5.5h.039l1.926,5.5h1.365l2-5.5h.021v5.5h1.422v-6.9m-15.013,1.242h2.075v5.662h1.416v-5.662h2.076v-1.242H306.5"/></g><rect class="b" width="200" height="200"/></svg>