<svg xmlns="http://www.w3.org/2000/svg" width="200" height="200" viewBox="0 0 200 200"><defs><style>.a{fill:#fff;}.b{fill:none;mix-blend-mode:multiply;isolation:isolate;}</style></defs><g transform="translate(-702.434 -643.959)"><path d="M866.4,696.661c.013-1.358.013-2.125.013-2.125v-1.67l-1.51-.759c-1.061-.538-26.43-13.149-61.655-13.149h-1.635c-35.2,0-60.593,12.611-61.653,13.149l-1.509.759v1.67s0,.764.011,2.041c-.284,15,1.555,53.068,24.842,82.65,18.886,24,36.585,29.575,38.539,30.128l.762.219.755-.214c.761-.214,18.791-5.478,38.2-30.133,23.31-29.59,25.142-67.617,24.844-82.566"/><path class="a" d="M839.88,777.909c22.8-28.96,24.6-66.263,24.3-80.956.018-1.365.018-2.121.018-2.126v-.552l-.505-.25c-1.038-.527-25.876-12.872-60.457-12.872h-1.627c-34.556,0-59.413,12.345-60.456,12.872l-.5.25v.552s0,.76.013,2.043c-.284,14.74,1.517,52.091,24.309,81.039,18.417,23.41,35.488,28.789,37.373,29.32l.253.072.248-.067c.733-.2,18.1-5.282,37.027-29.325M802.6,805.5c-1.439-.406-18.289-5.591-36.393-28.608-23.855-30.3-23.962-69.98-23.782-79.324-.015-1.312-.015-2.054-.015-2.054s.026-.011.075-.037v-.08l.536-.248c1.263-.579,4.088-1.814,8.18-3.284a149.5,149.5,0,0,1,50.419-8.945h1.608a149.452,149.452,0,0,1,50.343,8.915c4.133,1.482,6.988,2.732,8.262,3.313l.533.244v.085c.05.026.076.037.076.037s0,.742-.015,2.054c.184,9.344.089,49.022-23.78,79.324C820.5,799.952,803.98,805.118,802.6,805.5"/><path class="a" d="M774.409,691.007c-1.587.319-2.355.485-3.911.846a.661.661,0,0,0-.514.654l.323,29.008c0,1.927.052,3.693.129,5.279-3.919-10.023-8-20.4-12.166-30.9a.665.665,0,0,0-.827-.386c-2.314.766-3.437,1.163-5.712,2.022a.665.665,0,0,0-.432.622v39.876a.668.668,0,0,0,.287.546.65.65,0,0,0,.379.117.692.692,0,0,0,.236-.04c1.406-.533,2.113-.79,3.608-1.309a.664.664,0,0,0,.446-.632q-.081-14.148-.158-28.295c0-2.483-.03-3.87-.109-5.626,4.091,10.408,8.072,20.6,11.858,30.347a.658.658,0,0,0,.78.4c2.427-.6,3.615-.865,6.046-1.356a.663.663,0,0,0,.532-.65V691.659a.663.663,0,0,0-.795-.652m26.4-2.858a145.7,145.7,0,0,0-20.65,1.819.661.661,0,0,0-.561.654V730.5a.667.667,0,0,0,.664.665.626.626,0,0,0,.106-.009,144.833,144.833,0,0,1,20.381-1.8.664.664,0,0,0,.651-.665v-2.484a.664.664,0,0,0-.2-.475.69.69,0,0,0-.477-.191,120.9,120.9,0,0,0-15.868,1.141V710.906a118.08,118.08,0,0,1,13.017-1.072.667.667,0,0,0,.639-.664v-2.43a.673.673,0,0,0-.2-.479.65.65,0,0,0-.485-.184,120.294,120.294,0,0,0-12.886,1.05V693.1a118.24,118.24,0,0,1,15.891-1.139.665.665,0,0,0,.653-.665v-2.486a.664.664,0,0,0-.675-.664m28.654,2.31a146.146,146.146,0,0,0-24.592-2.378.667.667,0,0,0-.672.666v2.541a.664.664,0,0,0,.657.664c3.853.043,5.833.13,9.481.419v36.78a.664.664,0,0,0,.61.662c1.607.13,2.394.207,4.009.383a.616.616,0,0,0,.072,0,.666.666,0,0,0,.445-.17.659.659,0,0,0,.221-.493V692.888c3.658.409,5.669.713,9.527,1.419a.661.661,0,0,0,.786-.652v-2.542a.665.665,0,0,0-.544-.654m17.074,23.782c-8.485-8.77-9.457-10.189-9.457-13.8,0-3.569,1.563-4.05,3.09-4.05a10.84,10.84,0,0,1,2.907.49c6.134,1.762,6.134,5.108,6.134,7.59v3.56a.666.666,0,0,0,.451.629c1.484.5,2.224.766,3.773,1.34a.661.661,0,0,0,.611-.076.67.67,0,0,0,.283-.547V706.4c0-3.757,0-10.044-10.968-13.191-7.669-2.2-11.583.152-11.583,6.809,0,5.528,3.39,8.838,9,14.32l1.134,1.109c6.662,6.532,8.01,8.69,8.01,12.824a5.572,5.572,0,0,1-.685,3.175,2.654,2.654,0,0,1-2.369.968,12.625,12.625,0,0,1-3.346-.579,13.168,13.168,0,0,1-6.287-3.4c-1.532-1.726-1.532-3.192-1.532-6.109v-3.162a.665.665,0,0,0-.517-.648c-1.639-.367-2.422-.534-4-.842a.671.671,0,0,0-.551.14.662.662,0,0,0-.242.512v5.592c0,5.258,4.3,9.267,12.439,11.589a22.177,22.177,0,0,0,5.906.99c6.377,0,6.377-5.14,6.377-7.335,0-5.779-2.943-9.09-8.582-14.92"/><path class="a" d="M827.269,761.556a6.042,6.042,0,0,0,1.083-1.525c2.093-4.019.218-8.526-.569-10.093a29.828,29.828,0,0,0-28.288-14.17c11.874.643,23.373,11.265,27.774,25.788M788.456,749.77c2.864,1.2,6.619,3.216,10.593,5.352,6.272,3.367,12.751,6.854,17.139,7.946,3.908.968,7.12.879,9.375-.251-.01-.042-.017-.087-.026-.128-.033-.161-.066-.318-.11-.479-1.907-7.992-11.905-25.488-29.228-25.488-.727,0-1.47.043-2.21.105A29.385,29.385,0,0,0,778.046,748.2a8.2,8.2,0,0,1,2.583-.384,21.089,21.089,0,0,1,7.827,1.953m-4.31,24.119c7.035,2.321,10.942,3.063,16.073,3.063,1.871,0,4-.106,6.706-.331a62.477,62.477,0,0,0,19.665-5.19,37.171,37.171,0,0,0-.561-6.234,8.25,8.25,0,0,1-4.439,1.122,32.536,32.536,0,0,1-7.368-1.167c-4.095-.972-9.946-4.457-15.108-7.531-2.832-1.688-5.51-3.281-7.719-4.372-8.428-4.17-13.217-3.586-14.49-3.31a29.226,29.226,0,0,0-4.132,16.952c.568.811,3.445,4.389,11.373,7M828.6,770.3c.076-.052.149-.1.216-.152a8.423,8.423,0,0,0,3.228-5.013,29.405,29.405,0,0,0-.9-7.149c-.023-.1-.053-.188-.08-.282a9.724,9.724,0,0,1-3.216,6.045,29.173,29.173,0,0,1,.753,6.551m.72,1.62-.3.221c-.162.12-.326.242-.506.363a26.252,26.252,0,0,1-1.024,5.551c.936-.328,1.259.05,1.348.267.012.03.02.062.03.093a29.264,29.264,0,0,0,2.965-9.708,7.247,7.247,0,0,1-2.508,3.213m-1.136,7.358c-.026-.118-.051-.123-.115-.123a1.49,1.49,0,0,0-.713.313c-.074.052-.154.107-.235.158s-.143.094-.206.14a26.665,26.665,0,0,1-2.842,5.473,29.585,29.585,0,0,0,4.2-5.727h-.042Zm-30.4,12.5a26.714,26.714,0,0,0,9.381-2.859c.469-.229.923-.465,1.381-.7.387-.2.774-.4,1.167-.6,2.709-1.421,5.611-2.96,9.131-4.846,1.243-.667,2.478-1.372,3.675-2.056l1.4-.781c.543-.291,1.055-.566,1.567-.879l.173-.107a28,28,0,0,0,.875-5.324c-3.455,1.731-8.648,3.253-16.268,4.78a47.263,47.263,0,0,1-27.81-2.525c-5.725-2.411-8.438-5.751-9.567-7.589a29.337,29.337,0,0,0,13.109,21.354l-.03-.05.842.5a10.728,10.728,0,0,0,2.513,1.035,19.247,19.247,0,0,0,5.61.83,24.353,24.353,0,0,0,2.847-.178m26.991-10.506c-.383.271-.77.549-1.193.842-1.117.778-2.207,1.436-3.364,2.131-.542.326-1.1.659-1.671,1.017A60.781,60.781,0,0,1,804.738,792a29.645,29.645,0,0,1-4.164,1,23.634,23.634,0,0,1-3.522.271h-.223a24.619,24.619,0,0,1-4.363-.41,29.821,29.821,0,0,0,26.369-3.2,19.763,19.763,0,0,0,6.12-8.51c-.06.041-.12.083-.176.124"/><path class="a" d="M814.12,771.129c0-2.16,0-5.372-2.553-7.863a8.311,8.311,0,0,0,.688-1.578,10.959,10.959,0,0,0,.441-3.618l-.012-5.948v-.09a9.723,9.723,0,0,0-2.208-6.578,9.1,9.1,0,0,0-7.062-2.789l-8.074.022a3.378,3.378,0,0,0-3.388,3.373l.076,39.065a3.3,3.3,0,0,0,1.587,2.837,3.55,3.55,0,0,0,1.83.513l8.212-.012a10.985,10.985,0,0,0,7.386-2.52l.027-.018c2.708-2.429,3-5.292,3.067-8.03v-.033Z"/><path d="M812.027,771.394c0-2.182,0-4.852-2.276-6.741a6.33,6.33,0,0,0-1.72-1.008,5.445,5.445,0,0,0,2.178-2.913,9.653,9.653,0,0,0,.333-2.98l-.02-6.209a7.927,7.927,0,0,0-1.637-5.261,7.018,7.018,0,0,0-5.455-2.054l-8.419.021a.983.983,0,0,0-.679.284.907.907,0,0,0-.277.665l.072,40.763a.94.94,0,0,0,.459.809.976.976,0,0,0,.533.154l8.564-.023a9.139,9.139,0,0,0,6.026-1.991c2.06-1.869,2.272-4.069,2.333-6.542Zm-5.948,10.364c-.6.432-1.336.683-3.215.747l-3.473.008c-.294,0-.407-.173-.407-.451,0-2.377-.034-15.477-.034-15.588a.252.252,0,0,1,.282-.287c.241,0,1.62-.014,1.62-.014a10.133,10.133,0,0,1,4.661.951,3.306,3.306,0,0,1,1.417,1.743,7.971,7.971,0,0,1,.3,2.463l.012,5.777c0,2.634-.16,3.873-1.166,4.651m-2.837-20.282a8.508,8.508,0,0,1-2.536.308l-1.5.005c-.257.01-.326-.114-.326-.313,0-.119-.019-12.553-.019-12.553,0-.2.076-.323.284-.344h2.507a6.9,6.9,0,0,1,3.142.562,1.615,1.615,0,0,1,.718.851,9.835,9.835,0,0,1,.28,2.125l.014,4.863a2.569,2.569,0,0,0-.014.367c-.035,1.259-.061,3.385-2.551,4.129"/></g><rect class="b" width="200" height="200"/></svg>