<svg xmlns="http://www.w3.org/2000/svg" width="200" height="200" viewBox="0 0 200 200"><defs><style>.a{fill:#8b2332;}.b{fill:#f9a01b;}.c,.e{fill:none;}.c{stroke:#f9a01b;stroke-width:0.084px;}.d{fill:#fff;}.e{mix-blend-mode:multiply;isolation:isolate;}</style></defs><g transform="translate(-1025.381 -1267.768)"><path d="M1198.865,1339.634c-5.85-6.456-18.766-11.7-35.4-14.864.073-1.91,1.239-2.721,3.309-4.154a27.835,27.835,0,0,0,3.535-2.763c5.367-5.1-.931-12.907-1.2-13.236l-3.468-4.229.83,5.407c.571,3.706-.789,5.017-4.817,7.827a7.886,7.886,0,0,0-1.339,1.171,26.689,26.689,0,0,0-.547-8.684,9.3,9.3,0,0,0-2.534-4.857l-.44,5.012c0,.03-.389,3.916-5.579,8.615a15.611,15.611,0,0,0,1.239-1.569c2.541-3.7,1.805-7.907.956-12.781l-.178-1.026c-.872-5.083.486-8.249,1.361-8.769.851-1.038,2.541-2.764,2.541-2.764a7.213,7.213,0,0,0-3.394-.074c-3.247.448-8.7,2.391-8.552,6.83a18.8,18.8,0,0,0,1.246,5.44c.594,1.753,1.158,3.409.654,4.261-.395.67-1.6,1.209-3.482,1.549-7.642,1.4-13.5,4.971-16.489,10.073a16.08,16.08,0,0,0-1.983,5.393c-18.965.06-36.917,2.421-50.839,6.729-15.6,4.826-24.2,11.4-24.874,19.007-.356,4,1.452,9.772,11.469,15.326l-.069.07,2.844,1.359.007.007,1.5.714.017-.017a95.008,95.008,0,0,0,16.068,5.313,34.022,34.022,0,0,0-5.9,4.19,41.927,41.927,0,1,0,67.7,40.864c3.383-10.123,2.992-20.989,2.844-25.085-.339-9.308,4.234-14.459,7.143-16.781,13.245-1.677,24.964-4.578,33.7-8.468l.015.017,1.407-.671.012-.006,3.02-1.439-.08-.079c7.024-3.922,10.947-8.533,11.38-13.447.291-3.272-.927-6.438-3.623-9.41m-13.605,8.139c1.192,1.31,1.116,2.158,1.092,2.437-.132,1.512-2.026,3.335-5.2,5l-.008,0c-6.664,3.5-18.121,6.15-31.759,7.546a11.852,11.852,0,0,1,1.959-1.014l.224-.089c3.918-1.593,8.362-3.4,8.572-9.875.033-1.031.083-4.194.653-5.324.733-1.452,2.6-3.7,4.252-4.3.027-.008-2.756-.551-2.756-.551-.146-.017-.288-.021-.43-.025a7.355,7.355,0,0,0,2.087-2.334c11.077,2.3,18.525,5.443,21.31,8.519m-119.7,1.606c.474-5.349,19.75-12.415,50.91-13.518a17.87,17.87,0,0,0-7.165,12.05l-.318,2.306a19.711,19.711,0,0,1-1.006,4.3c-1.2,3.15-4.58,5.743-8.2,7.723-12.546-1.579-23.031-4.223-29.158-7.539h-.007c-3.351-1.816-5.191-3.756-5.052-5.325" transform="translate(0 0)"/><path class="a" d="M1059.523,1390.983a26.638,26.638,0,0,0,10.527,16.535,28.082,28.082,0,0,0,6.144,3.245c-1.351-2.315-2.931-4.641-4.536-7.011-3-4.423-6.1-9-8.068-13.917a29.092,29.092,0,0,1-1.7-15.763,40.3,40.3,0,0,0-2.483,13.946c0,1,.048,1.986.119,2.964" transform="translate(2.147 18.486)"/><path class="a" d="M1065.4,1397.532c1.855,4.631,4.867,9.075,7.78,13.371a95.255,95.255,0,0,1,6.124,9.853,34.69,34.69,0,0,0,5.7.822,48.943,48.943,0,0,1-5.259-9.865c-5.822-14.462-4.977-32.344,2.243-42.692a38.5,38.5,0,0,1,13.923-12.095c4.943-2.7,8.031-3.5,11.168-5.376,3.416-2.037,5.244-5.441,3-13.079a14.088,14.088,0,0,1-.639-5.369,16.44,16.44,0,0,0-1.671,5.3l.017-.019a33.122,33.122,0,0,1-1.424,6.959c-3.021,7.912-17.644,12.3-19.574,12.886a35.409,35.409,0,0,0-13.464,7.317,28.945,28.945,0,0,0-7.92,31.984" transform="translate(3.024 9.71)"/><path class="a" d="M1123.721,1327.291a9.582,9.582,0,0,1,.33,1.445c.382,2.764-.456,5-3.845,5.543-3.49.561-4.679-2.477-4.953-4.953a11.713,11.713,0,0,1,.11-2.046c-.589.008-1.168.021-1.748.036a18.445,18.445,0,0,0-3.977,3.06c-.693,1.495-1.531,3.569-.242,8.417,2.277,8.554,1.31,13.723-5.565,16.678-8.756,3.768-14.357,5.979-21.864,15.426-3.572,4.491-5.526,11.94-5.851,19.433a53.354,53.354,0,0,0,3.749,21.421,48.84,48.84,0,0,0,6.075,11.111,39.993,39.993,0,0,0,7.091-.917,18.418,18.418,0,0,1-4.38-10.945c-.892-13.877,6.579-19.714,18.082-28.934l5.142-4.316c20.533-17.44,14.542-35.174,16.8-50.32q-2.437-.095-4.956-.14" transform="translate(5.718 8.463)"/><path class="a" d="M1129.222,1327.529a66.491,66.491,0,0,0-1.111,9.448c-.815,13.191-.42,28.123-17.115,42.958l-5.049,4.085c-11.177,8.963-17.566,14.561-17.126,26.743a14.939,14.939,0,0,0,4.673,10.306,44.66,44.66,0,0,0,9.185-3.941c14.521-8.241,23.656-20.562,27.153-36.371a104.358,104.358,0,0,0,2.126-24.658c-.017-3.3.41-9.783.41-9.783a36.98,36.98,0,0,1,5.871-17.34c.153-.243.315-.488.477-.735q-4.535-.446-9.5-.711" transform="translate(8.444 8.517)"/><path class="a" d="M1132.788,1363.927l.006-.05c0,.022-.008.05-.011.072-.45,2.364-.573,5.024-.86,7.675-.138,1.013-.276,2-.42,2.947-.052.271-.1.539-.165.806-3.668,16.644-13.155,29.6-28.422,38.263a50.005,50.005,0,0,1-7.958,3.661,20.058,20.058,0,0,0,13.28,3.346c13.713-2.058,20.39-11,23.605-20.566,3.3-9.819,2.948-20.293,2.79-24.632-.522-14.489,10.685-19.835,10.685-19.835-8.713-.47-11.569,3.328-12.531,8.313" transform="translate(9.763 14.524)"/><path class="a" d="M1125.522,1406.5a28.436,28.436,0,0,1-14.394,6.132,22.63,22.63,0,0,1-17.44-4.912c-.094-.072-.178-.151-.268-.227a41.266,41.266,0,0,1-7.266,1.278c5.533,5.944,12.815,9.317,22.579,9.977.044,0,.086,0,.127.007h.011a40.488,40.488,0,0,0,16.826-12.41c-.057.054-.115.1-.176.156" transform="translate(7.877 25.398)"/><path class="a" d="M1079.525,1417.8a19.7,19.7,0,0,0-2.156-9.059,40.473,40.473,0,0,1-9.8-4.33,23.734,23.734,0,0,1-4.8-4.276l-.017-.017a40.519,40.519,0,0,0,16.773,17.684Z" transform="translate(2.864 24.066)"/><path class="a" d="M1104.276,1420.3a36.563,36.563,0,0,1-14.244-6.309,37.242,37.242,0,0,1-5.746-5.425,38.089,38.089,0,0,1-6.588-.651,19.946,19.946,0,0,1,1.432,9.636v.006a40.415,40.415,0,0,0,25.207,2.766c-.018-.006-.041-.017-.061-.023" transform="translate(6.066 25.735)"/><path class="a" d="M1140.769,1338.025c-.939,3.15-4.045,2.777-4.942,1.081-1.427-2.686-.885-4.766.6-6.183s3.916-2.177,6.274-3.243a.17.17,0,0,1,.032-.016q-4.085-.7-8.695-1.246c-.04.05-.084.1-.126.143-.271.31-.546.62-.807.943a34.06,34.06,0,0,0-5.961,16.945l-.149,1.285a68.346,68.346,0,0,0-.24,8.156c0,.439.007.895.007,1.354q-.053,1.679-.129,3.3l.07.02c.034-.447.055-.619.051-.391,1.378-4.392,3.91-7.063,7.48-8.515,3.867-1.57,7.683-3.01,7.862-8.626a19.147,19.147,0,0,1,.787-5.889,5.064,5.064,0,0,1,2.717-2.743c-1.875-.181-3.926.6-4.831,3.629" transform="translate(16.547 8.707)"/><path class="b" d="M1142.557,1321.353c.284-3.755,3.842-4.457,7.284-7.726,4.418-4.2-1.328-11.2-1.328-11.2.724,4.708-1.457,6.506-5.442,9.284a4.993,4.993,0,0,0-2.311,3.68,47.26,47.26,0,0,1-.635,5.543c.821.135,1.628.276,2.432.42" transform="translate(19.437 3.14)"/><path class="c" d="M1142.557,1321.353c.284-3.755,3.842-4.457,7.284-7.726,4.418-4.2-1.328-11.2-1.328-11.2.724,4.708-1.457,6.506-5.442,9.284a4.993,4.993,0,0,0-2.311,3.68,47.26,47.26,0,0,1-.635,5.543C1140.946,1321.068,1141.753,1321.208,1142.557,1321.353Z" transform="translate(19.437 3.14)"/><path class="b" d="M1132.973,1314.67q-1.6,1.189-2.988,2.436c-.662.635-1.309,1.264-1.905,1.869,3.887.337,7.662.774,11.3,1.3,2.325-4.231,3.43-9.03,2.057-17.205,0,0-.328,5.537-8.46,11.6" transform="translate(16.857 3.278)"/><path class="c" d="M1132.973,1314.67q-1.6,1.189-2.988,2.436c-.662.635-1.309,1.264-1.905,1.869,3.887.337,7.662.774,11.3,1.3,2.325-4.231,3.43-9.03,2.057-17.205C1141.434,1303.072,1141.106,1308.609,1132.973,1314.67Z" transform="translate(16.857 3.278)"/><path class="b" d="M1114.5,1321.164c4.442.041,8.8.22,13.044.512.141-.143.274-.288.423-.425,2.85-3.058,7.263-5.644,9.621-9.076s1.4-7.623.534-12.7c-1.5-8.755,2.188-10.376,2.188-10.376s-7.4,1.019-7.26,5.3c.189,5.743,6.11,11.151-2.808,12.772-9.788,1.781-15.872,7.078-17.21,14,.488,0,.977,0,1.468,0" transform="translate(13.634 0.284)"/><path class="c" d="M1114.5,1321.164c4.442.041,8.8.22,13.044.512.141-.143.274-.288.423-.425,2.85-3.058,7.263-5.644,9.621-9.076s1.4-7.623.534-12.7c-1.5-8.755,2.188-10.376,2.188-10.376s-7.4,1.019-7.26,5.3c.189,5.743,6.11,11.151-2.808,12.772-9.788,1.781-15.872,7.078-17.21,14C1113.519,1321.162,1114.008,1321.16,1114.5,1321.164Z" transform="translate(13.634 0.284)"/><path class="d" d="M1127.705,1317.4c-41-.407-75.216,10.179-76.406,23.638-.476,5.362,4.364,10.372,12.952,14.485a93.554,93.554,0,0,0,19.834,6.464,41.575,41.575,0,0,1,4.908-1.828,62.389,62.389,0,0,0,6.628-2.432c-11.484-1.677-20.779-4.251-26.5-7.344-4.219-2.286-6.491-4.856-6.251-7.547.8-9.038,29.507-16.088,64.124-15.748s62.033,7.944,61.233,16.981c-.219,2.462-2.506,4.778-6.424,6.835-7.227,3.8-20,6.719-35.518,8.082a12.519,12.519,0,0,0-1.4,2.472c7.054-2.677,15.187,1.28,15.187,1.28a5.529,5.529,0,0,1,.927.469c10.294-1.835,19.137-4.448,25.768-7.606,7.839-3.735,12.595-8.229,13.025-13.1,1.19-13.46-31.085-24.7-72.1-25.1" transform="translate(0.404 6.344)"/></g><rect class="e" width="200" height="200"/></svg>