<svg xmlns="http://www.w3.org/2000/svg" width="200" height="200" viewBox="0 0 200 200"><defs><style>.a{fill:#ffc52f;}.b{fill:#12284b;}.c{fill:#fff;}.d{fill:none;mix-blend-mode:multiply;isolation:isolate;}</style></defs><g transform="translate(-1025.732 -1197.072)"><path class="a" d="M1199.319,1263.009v20.32c0,16.959-2.774,27.233-16.09,55.394-14.022,29.647-31.311,38.45-52,38.45a58.343,58.343,0,0,1-36.728-12.757l-.093.035-2.3-2.064-.427-.377a55.509,55.509,0,0,1-7.586-8.338c-.181-.237-.359-.478-.532-.721a.689.689,0,0,1-.085-.124c-.133-.175-.256-.353-.384-.528a57.7,57.7,0,0,1-3.4-5.409c-.119-.2-.232-.4-.338-.6a120.923,120.923,0,0,1-7.534-17.336c-.54-1.459-1.048-2.837-1.548-4.117-3.9-10.029-11.463-29.628-15.121-39.505-3.8-10.256-4.385-17.534-1.951-24.343,2.606-7.287,8.439-13.118,16.393-19.625,7.969-6.522,14.805-11.934,24.254-18.755,5.916-4.274,12.264-6.535,18.355-6.535a21.084,21.084,0,0,1,7.251,1.23c.4.147.842.306,1.421.524a19.122,19.122,0,0,1,5.448,3.13c.163-.093.318-.186.469-.276a27.992,27.992,0,0,1,14.092-3.875,25.5,25.5,0,0,1,10.934,2.409c.714.341,1.129.551,1.6.807l.83.431a23.265,23.265,0,0,1,6.624,5,26.373,26.373,0,0,1,8.361-1.455,20.758,20.758,0,0,1,11.314,3.3l.819.52c1.571,1,2.363,1.5,3.585,2.355,9.322,6.453,14.374,13.6,14.374,32.833"/><path class="b" d="M1181.5,1235.151c-1.312-.907-2.076-1.381-4.214-2.747-4.155-2.65-9.665-3.523-17.181-.163-.5.221-.963.427-1.42.633a16.151,16.151,0,0,0-7.2-7.035c-1.052-.54-1.343-.714-2.29-1.165a20.863,20.863,0,0,0-19.364,1.231c-1.385.807-3.2,1.881-4.757,2.8a12.3,12.3,0,0,0-6.344-5.219c-.551-.205-.974-.361-1.362-.5-5.082-1.854-12.516-.869-19.989,4.521-8.9,6.429-15.427,11.547-23.963,18.535-15.613,12.777-18.93,20.118-12.6,37.187,3.476,9.385,10.856,28.541,15.085,39.412,2.425,6.232,4.959,14.314,9.534,22.116h0q.632,1.082,1.308,2.134c.12.187.248.369.369.551a51.785,51.785,0,0,0,7.519,9.04c.237.225.477.458.718.679.124.113.233.229.357.338l.011-.012a52.288,52.288,0,0,0,35.506,13.638,46.01,46.01,0,0,0,46.008-46v-.051a43.913,43.913,0,0,0-43.913-43.914c-13.177,0-26.415,7.617-34.222,19.63q-7.869-19.272-15.772-38.528c-2.879-7.008-2.219-10.558,2.18-14.635a67.881,67.881,0,0,1,8.012-6.224c3.1-2.1,6.6-.861,6.6,3.236v43.4c7.076-7.143,15.756-11.8,26.872-13.847l-.17-35.824c.792-.488,1.532-.943,2.088-1.265,2.835-1.645,4.865.179,4.865,2.821v33.353c.175,0,.353-.008.528-.008a50.784,50.784,0,0,1,25.709,6.969v-37.389c.709-.287,1.377-.554,1.894-.76,2.84-1.129,4.76.633,4.76,3.2s-.2,39.638-.2,39.638a50.815,50.815,0,0,1,18.279,35.568c4.978-10.6,8.525-20.467,8.525-37.159v-20.32c0-16.92-3.84-22.371-11.766-27.858m-48.581,64.032a26.52,26.52,0,1,1-26.516,26.52,26.521,26.521,0,0,1,26.516-26.52"/><path class="c" d="M1112.812,1325.7a20.038,20.038,0,0,1,4.52-12.7,21.227,21.227,0,0,1,0,25.4,20.037,20.037,0,0,1-4.52-12.7m8.035,16.082a26.087,26.087,0,0,0,0-32.168,20.046,20.046,0,0,1,24.145,0,26.081,26.081,0,0,0,0,32.168,20.052,20.052,0,0,1-24.149,0m27.665-3.387a21.227,21.227,0,0,1,0-25.4,20.081,20.081,0,0,1,0,25.4"/><path class="a" d="M1182.069,1362.338h-1.926v5.257h-1.3v-5.257h-1.929V1361.2h5.156Zm8.756,5.257h-1.3V1362.5h-.035l-1.856,5.093h-1.266l-1.783-5.093h-.034v5.093h-1.312v-6.4h2.27l1.489,4.178h.035l1.549-4.178h2.243v6.4Z"/></g><rect class="d" width="200" height="200"/></svg>