<svg xmlns="http://www.w3.org/2000/svg" width="200" height="200" viewBox="0 0 200 200"><defs><style>.a{fill:#ab9157;}.a,.b,.c,.d{fill-rule:evenodd;}.b{fill:#002344;}.c{fill:#d12138;}.d{fill:#fff;}.e{fill:none;mix-blend-mode:multiply;isolation:isolate;}</style></defs><g transform="translate(-5 17.701)"><g transform="translate(34 0.298)"><g transform="translate(0)"><path class="a" d="M147.074,264.036a33.8,33.8,0,1,1,33.813-33.81,33.851,33.851,0,0,1-33.813,33.81" transform="translate(-75.995 -131.897)"/><path class="a" d="M60.375,149.188c-8.854-2.394-13.323-12.576-13.323-12.576.2-.1,9.013-5.273,11.852-12.021H32.07V103.528l5.943-.038H41.84C40.695,98.422,38.2,93,32.795,92.892c-11.236-.224-4.424,17.574-4.424,17.574S-.058,111.859,0,82.92C.025,71.595,7.193,59.3,23.209,57.374a29.049,29.049,0,0,1,3.5-.215c8.533,0,15.2,4.226,19.762,9.874C36.358,33.929,71,.3,71,.3s36.582,35.244,23.98,66.736a25.056,25.056,0,0,1,20.383-9.874,29.017,29.017,0,0,1,3.5.215c16.017,1.927,23.166,14.221,23.207,25.551.1,27.176-28.038,27.761-28.038,27.761.495-1.864,5.714-16.7-4.712-17.794-5.4-.565-7.92,5.533-9.066,10.6h5.924v.038h3.808v21.063H82.992c2.307,7.043,11.869,11.948,11.869,11.948s-3.551,9.74-13.46,12.738c-1.484,7.185-10.486,15.442-10.486,15.442s-9.164-8.55-10.54-15.53" transform="translate(0 -0.298)"/><path class="b" d="M185.658,122.514c-2.43-7.621-5.971-12.23-8.876-16.02-3.7-4.816-5.931-7.725-5.931-15.758,0-13.451,9.036-28.185,14.9-36.316,5.85,7.939,14.837,22.322,14.837,35.713,0,8.075-2.395,11.262-6.019,16.08a50.662,50.662,0,0,0-8.909,16.3" transform="translate(-114.635 -36.612)"/><path class="b" d="M126.152,72.628c-25.915-3.133-30.185,33.712-30.882,46.18H83.491C83.628,83.64,101.3,88.857,101.3,65.3c0-23.586-22.516-47.893-22.516-47.893S56.362,42.322,56.362,65.9c0,23.555,17.593,17.735,17.69,52.9H62.291c-.677-12.468-4.972-49.313-30.877-46.18-27.987,3.365-24.949,42.126,0,45.181,0,0-4.725-17.231,9.128-17.231,10.035,0,12.8,11.8,13.531,18.23H43.614v13.469h28.7c-3.781,12.972-12.407,16.9-12.407,16.9s3.652,7.276,11.6,8.363a23.9,23.9,0,0,0,7.148,12.445,23.9,23.9,0,0,0,7.117-12.4c7.958-1.115,11.9-8.406,11.9-8.406s-8.659-3.923-12.44-16.9h28.7V118.808H103.508c.735-6.428,3.45-18.23,13.553-18.23,13.783,0,9.091,17.231,9.091,17.231,24.946-3.055,27.977-41.815,0-45.181" transform="translate(-7.747 -11.781)"/><path class="c" d="M183.839,136.978H153.381l.02-4.36c.079-20.757,6.209-28.906,11.131-35.45,3.732-4.957,6.678-8.87,6.678-18.036,0-16.4-12.15-33.634-18.121-41.111-5.946,7.634-18.132,25.291-18.132,41.712,0,9.137,2.769,12.747,6.608,17.738,4.911,6.4,11.027,14.362,11.079,35.152l.013,4.355H122.214v2.9h61.625v-2.9" transform="translate(-82.001 -25.609)"/><path class="c" d="M192.256,364.705l-.785-2.7-3.009.005-.787,2.694a33.769,33.769,0,0,1-10.4,16.686,10.678,10.678,0,0,0,6.145,3.078l1.3.161.994.855c.416.356,1.585,1.357,4.078,6.6,2.971-5.505,4.215-6.446,4.654-6.774l.929-.7,1.15-.141a10.729,10.729,0,0,0,6.163-3.07,33.709,33.709,0,0,1-10.434-16.694" transform="translate(-118.943 -242.99)"/><path class="b" d="M182.856,399.044s6.05-3.956,6.155-13.185l1.759-1.1s.878,13.4-1.1,16.259c0,0-2.86.658-6.817-1.978" transform="translate(-122.69 -258.259)"/><path class="b" d="M232.51,399.044s-6.047-3.956-6.158-13.185l-1.757-1.1s-.876,13.4,1.1,16.259c0,0,2.857.658,6.815-1.978" transform="translate(-150.565 -258.259)"/><path class="b" d="M154.824,207.972a30,30,0,1,0,30.011,30,30.038,30.038,0,0,0-30.011-30" transform="translate(-83.744 -139.64)"/><path class="d" d="M187.078,242.381a27.846,27.846,0,1,1-27.843-27.839,27.844,27.844,0,0,1,27.843,27.839" transform="translate(-88.156 -144.048)"/><path class="a" d="M193.069,271.636a22.085,22.085,0,1,1-22.084-22.077,22.083,22.083,0,0,1,22.084,22.077" transform="translate(-99.905 -167.543)"/><path class="b" d="M169.473,259.039c-1.108-.871-2.706-2.424-2.989-4.339-.027-.171-.043-.341-.058-.512A29.385,29.385,0,0,0,180.1,242.481a25.684,25.684,0,0,1-10.623,16.557Zm-39.93-16.575a29.412,29.412,0,0,0,13.682,11.723c-.02.172-.033.341-.063.512a7.454,7.454,0,0,1-2.988,4.344,25.71,25.71,0,0,1-10.631-16.58Zm5.918-21.325c-1.156,6.335,1.477,12.316,3.892,17.775,1.679,3.8,3.281,7.462,3.8,11.161a25.784,25.784,0,0,1-13.54-16.963,25.568,25.568,0,0,1,5.853-11.973Zm27.165,30.437a25.227,25.227,0,0,1-5.947,1.161V212.38A25.428,25.428,0,0,1,168,215.947c5.1,7.359,2.231,13.923-1.1,21.469-1.994,4.528-4.043,9.186-4.273,14.16Zm-5.947,4.874a30.286,30.286,0,0,0,6.176-1.014,10.333,10.333,0,0,0,3.266,5.591,25.481,25.481,0,0,1-9.442,2.553V256.45Zm-9.884-1.014a30.162,30.162,0,0,0,6.171,1.014v7.129a25.461,25.461,0,0,1-9.436-2.551,10.378,10.378,0,0,0,3.265-5.593Zm-5.146-39.489a25.409,25.409,0,0,1,11.317-3.567v40.362a26.385,26.385,0,0,1-5.943-1.12c-.215-4.99-2.266-9.66-4.278-14.206-3.323-7.543-6.2-14.11-1.1-21.469Zm38.385,17.193a26.036,26.036,0,0,1-13.53,16.842c.527-3.666,2.127-7.291,3.793-11.068,2.408-5.467,5.038-11.441,3.887-17.775a25.583,25.583,0,0,1,5.85,12Zm-25.211-25.167a30,30,0,1,0,30.011,30,30.038,30.038,0,0,0-30.011-30Z" transform="translate(-83.744 -139.64)"/><path class="b" d="M184.32,67.6,173.079,54.413,162.322,67.427c-2.738,2.5-8.634,9.195-10.163,21.614-1.491,12.064,6.193,23.843,6.193,23.843l2.769-2.957h13l10.832,1.12,2.3.462s6.65-10.46,6.65-22.7c0-12.147-6.287-18.637-9.581-21.209" transform="translate(-101.964 -36.607)"/><path class="d" d="M197.729,126.538a22.3,22.3,0,0,0-5.436-14.781s-.086,1.829-3.163-.219a15.9,15.9,0,0,0-18.265.013c-2.968,2.018-3.112.207-3.112.207a22.352,22.352,0,0,0-5.431,14.781c0,5.333,1.3,7.967,1.761,8.714,2.65,6.8,8.778,11.572,15.926,11.572,7.064,0,13.131-4.672,15.829-11.355.159-.219,1.891-2.78,1.891-8.931" transform="translate(-108.912 -73.004)"/><path class="b" d="M187.465,170.2a.493.493,0,0,1-.062-.1s-1.755-3.293,1.128-5.571c0,0,6.534,1.365,6.68-7.286a5.144,5.144,0,0,1,.762-2.735s-1.678-1.524-5.313,1.213c-3.657,2.727-5.621,10.475-7.6,8.656-1.954-1.8-1.244-11.895-2.247-12.271h-.038c-1.012.376-.3,10.467-2.246,12.271-1.976,1.819-3.958-5.929-7.6-8.656s-5.313-1.213-5.313-1.213a4.973,4.973,0,0,1,.754,2.735c.162,8.651,6.693,7.286,6.693,7.286,2.883,2.278,1.138,5.586,1.138,5.586-.017.03-.038.068-.058.1-7.8-8.371-12.329-7.232-10.091,2.142,2.2,9.2,10.626,48.741,11.979,57.911-.2,8.239-1.144,11.183-1.4,11.829l-.843,1.691.937,1.879a29.344,29.344,0,0,1,2.872,5.5l3.223,8.154,3.17-8.136a30.74,30.74,0,0,1,2.9-5.518l.976-1.786-.891-1.784c-.245-.618-1.177-3.454-1.391-11.408,1.116-8.222,9.734-48.965,11.971-58.332s-2.3-10.513-10.091-2.152" transform="translate(-109.69 -102.152)"/><path class="c" d="M185.619,256.614c-2.794-14.715-5-25.6-6.782-33.49-1.356-6.032,2.264-3.62,4.21.154l2.572,33.336" transform="translate(-119.794 -147.349)"/><path class="c" d="M232.2,256.614c2.8-14.715,5-25.6,6.787-33.49,1.358-6.032-2.269-3.62-4.227.154l-2.56,33.336" transform="translate(-155.796 -147.349)"/><path class="c" d="M183.012,174.841a1.039,1.039,0,0,1-.729-1.274,1,1,0,0,1,.371-.52,7.975,7.975,0,0,0-1.315-1.2s-.916,4.248,2.882,3.8a6.015,6.015,0,0,0-.413-.921,1.042,1.042,0,0,1-.8.114" transform="translate(-121.606 -115.404)"/><path class="c" d="M244.836,171.852a8.065,8.065,0,0,0-1.315,1.2,1.091,1.091,0,0,1,.374.517,1.042,1.042,0,0,1-1.535,1.168,6.8,6.8,0,0,0-.4.916c3.8.451,2.88-3.8,2.88-3.8" transform="translate(-162.343 -115.404)"/><path class="c" d="M208.108,248.342c1.206-22.725,3.026-38.818,3.026-40.826a9.385,9.385,0,0,0-.383-2.649l-1.328,4.322-.4-7.642a13.167,13.167,0,0,0-2.713-2.538h-.066a12.271,12.271,0,0,0-2.6,2.538l-.4,7.642-1.338-4.327a9.976,9.976,0,0,0-.376,2.654c0,2.008,1.807,18.1,3.013,40.826s-1.607,26.948-1.607,26.948a46.361,46.361,0,0,1,3.4,6.569,45.92,45.92,0,0,1,3.4-6.569s-2.814-4.223-1.62-26.948" transform="translate(-135.216 -133.625)"/><path class="c" d="M329.861,215.473c0-7.518-4.222-16.055-16.036-17.481a21.329,21.329,0,0,0-2.524-.156c-10.191,0-15.979,8.734-19.273,18.515A36.44,36.44,0,0,1,300.65,205.5c11.111-9.882,25.943-2.409,25.943,10.7,0,8.386-3.14,13.308-5.408,15.775,5.9-3.665,8.685-10.411,8.677-16.509" transform="translate(-195.94 -132.838)"/><path class="c" d="M53.957,205.5a36.273,36.273,0,0,1,8.727,11.045c-3.276-9.862-9.083-18.712-19.378-18.712a21.332,21.332,0,0,0-2.521.156c-11.814,1.423-16.034,9.96-16.039,17.476-.008,6.1,2.779,12.854,8.682,16.517-2.266-2.467-5.411-7.387-5.411-15.778,0-13.114,14.83-20.586,25.94-10.7" transform="translate(-16.603 -132.838)"/></g></g></g><rect class="e" width="200" height="200"/></svg>