<svg xmlns="http://www.w3.org/2000/svg" width="200" height="200" viewBox="0 0 200 200"><defs><style>.a{fill:#fff;}.b{fill:#b3b2b1;}.c{fill:#003da6;}.d{fill:#ff671b;}.e{fill:none;mix-blend-mode:multiply;isolation:isolate;}</style></defs><g transform="translate(-392.365 -1563.795)"><path class="a" d="M492.448,1740.966l-12.1-15.716a39.709,39.709,0,0,1-27.163-35.2l-7.531-9.741a100.49,100.49,0,0,0-14.31,7.933L408.8,1665.651l9.489-20.888-16.92-22.092h27.013l5.221-11.4,13.356-5.373,1.456-4.016,10.9,4.92,2.562-9.038,1.757-.552A93.1,93.1,0,0,1,492.2,1592.8c.3,0,3.515.051,3.616.051.351,0,1.907.1,1.907.1a89.424,89.424,0,0,1,23.9,4.217l1.757.553,2.36,8.636,3.917-2.962,21.992,7.732,5.272,11.549h27.164l-17.172,22.143,9.339,20.536-22.9,23.549s-8.385-6.126-14.159-8.385l-6.879,8.888a39.911,39.911,0,0,1-27.917,36.05Z" transform="translate(0)"/><path class="b" d="M492.036,1728.771,570.113,1628.1h-155.7Z" transform="translate(0.462 1.249)"/><path class="c" d="M408.252,1625.093,492.2,1734.1l84.553-109.006Zm162.079,3.112-78.077,100.671-77.625-100.671Z" transform="translate(0.244 1.143)"/><path class="c" d="M558.877,1635.905l-.05-.051-.051-.05-5.021-3.365,1.857-3.565.051-.1-.051-.1-6.878-15.113-.051-.1-.1-.051-18.477-6.578-.1-.05-.1.1-4.92,3.766-.051.05v.051l-.853,2.109a150.423,150.423,0,0,0-18.98-3.064c-1.154-.1-4.217-.351-9.138-.753l-.451-.05-.553-.051h-.1l-.1.1-3.665,3.665v-3.766s-10.393.553-17.172,1.506-13.456,2.611-13.456,2.611l-1.256-2.611-.05-.1-.1-.051-8.737-4.016-.252-.1-.1.25-1,2.762-.2-.553-.1-.2-.2.1-12.552,5.021-.1.05-.051.051-23.1,50.712,18.929,18.98.9-.5c.553-.3,1.356-.8,2.31-1.356,2.31-1.355,5.422-3.163,6.929-3.916l.3-.151c1.908-.954,2.913-1.406,12.1-5.373l.8-.3s1.055-.4,2.913-1.054c5.071-1.656,18.226-5.573,30.98-5.573h1.657c8.687.252,18.729,2.109,25.758,3.565,6.678,1.457,11.749,2.812,13.155,3.214l.955.3a127.26,127.26,0,0,1,21.239,11.047l.954.552,19.18-19.732Z" transform="translate(0.4 0.473)"/><path class="d" d="M552.85,1637.537l-18.428-12.3-3.163-8.988,5.674,2.059,2.31,5.623,8.686,2.761-5.071-11.2-16.418-5.774-3.013,2.36,5.422,17.725,17.524,12.351,4.469,11.2-7.331-3.314L541,1643.06l-8.937-2.61,4.82,15.766c1.457.5,2.912,1.1,4.369,1.657,3.967,1.607,7.882,3.415,11.7,5.322,2.661,1.356,5.221,2.762,7.782,4.268l3.816-3.916Z" transform="translate(4.319 0.599)"/><path class="d" d="M432.343,1645.878l6.125-5.473,1.456,1.707-6.075,17.422c3.364-1.456,6.677-2.811,10.142-4.016l4.368-14.361-3.815-6.276,7.833-7.482L457,1612.087l-5.623-2.561-5.071,14.41-8.134,6.98,7.381-18.578-7.984,3.163-21.942,48.151,3.464,3.464c2.059-1.205,4.118-2.36,6.227-3.415Z" transform="translate(0.504 0.592)"/><path class="d" d="M485.841,1611.466l-6.728.351-3.163,36.151c2.862-.25,5.724-.451,8.687-.552Z" transform="translate(2.639 0.661)"/><path class="d" d="M505.307,1640.439l-7.833-.452-1.256-22.143,6.629.3-.8-6.126-8.888-.6-3.967,3.967v27.667l4.167,4.268c4.319.15,8.586.452,12.8,1Z" transform="translate(3.107 0.659)"/><path class="d" d="M462.482,1625.7l2.811,13.758-1.807,10.393c2.711-.5,5.473-1,8.234-1.355h0l4.318-36.252-6.276.9-2.058,11.849-2.259-11.046-7.381,1.808-10.143,37.959c2.913-.954,5.975-1.707,8.937-2.46Z" transform="translate(1.647 0.688)"/><path class="d" d="M514.833,1638.448l2.208-2.962,3.214,2.661,2.962,13.456c3.063.8,6.176,1.658,9.189,2.661l-5.524-19.732-5.674-4.67,3.214-4.318-2.712-10.042L514.882,1614l2.712,10.092-4.268,5.674-3.163-16.619-6.377-.8s3.163,24.351,4.719,36.352c2.862.4,5.725.9,8.586,1.456Z" transform="translate(3.624 0.692)"/><path class="b" d="M476.9,1653.532a21.887,21.887,0,0,1,7.934-2.159l-.151-4.167c-2.913.1-5.774.251-8.686.553.251,1.657.652,4.117.9,5.773" transform="translate(2.641 1.925)"/><path class="b" d="M493.166,1651.126a46.645,46.645,0,0,1,6.476,1.505,31.462,31.462,0,0,1,5.423,1.908l.9-6.427c-4.268-.5-8.285-.853-12.653-1-.1,1.355-.1,3.163-.15,4.017" transform="translate(3.248 1.922)"/><path class="b" d="M466.321,1661.278c2.46-1.808,3.967-3.716,6.527-5.322-.451-2.361-1.154-5.373-1.607-7.683-2.811.351-5.623.853-8.385,1.355,1.1,3.565,2.46,8.185,3.464,11.649" transform="translate(2.176 1.963)"/><path class="b" d="M506.744,1655.9a31.682,31.682,0,0,1,6.427,5.071l.4.3,3.415-11.247c-2.913-.6-5.725-1.154-8.737-1.556Z" transform="translate(3.728 1.97)"/><path class="b" d="M517.073,1665.538l8.084,1.857,6.779-13.406c-3.113-1.054-6.176-1.857-9.339-2.661Z" transform="translate(4.094 2.071)"/><path class="b" d="M454.494,1667.409c2.109-.8,5.071-1.808,7.783-2.56l-5.222-13.908c-3.163.8-5.974,1.556-9.038,2.561,2.009,4.67,4.167,9.49,6.477,13.908" transform="translate(1.651 2.057)"/><path class="b" d="M442.857,1672.283c.451-.4,5.07-2.41,8.184-3.716-2.41-4.318-5.272-9.088-7.632-13.456-3.464,1.205-6.527,2.51-9.891,3.967Z" transform="translate(1.138 2.205)"/><path class="b" d="M431.893,1678.042c1.456-.9,3.012-1.757,4.719-2.761l-10.694-12.653c-2.058,1.055-4.067,2.16-6.076,3.364Z" transform="translate(0.654 2.471)"/><path class="b" d="M528.954,1668.9a125.913,125.913,0,0,1,19.03,9.941c1.657-1.556,10.594-10.945,11.849-12.251a142.29,142.29,0,0,0-23.4-11.047Z" transform="translate(4.514 2.22)"/><path class="b" d="M492.061,1651.054l-3.063-.1-.1-7.481,3.213,3.364Z" transform="translate(3.097 1.793)"/><path class="c" d="M490.909,1649.388a36.151,36.151,0,1,0,36.151,36.151,36.161,36.161,0,0,0-36.151-36.151" transform="translate(1.889 2.002)"/><path class="d" d="M492.223,1652.008c-2.761,1-5.423,2.36-8.084,3.616-1.808-1.1-2.812-1.356-4.067-2.16a31.537,31.537,0,0,1,12.151-1.456" transform="translate(2.785 2.094)"/><path class="d" d="M517.929,1667.354c-8.536-8.585-21.29-7.983-32.135-11a80.185,80.185,0,0,1,9.64-3.866,33.229,33.229,0,0,1,22.495,14.862" transform="translate(2.987 2.112)"/><path class="d" d="M471.034,1668.062a42.01,42.01,0,0,0-2.761,41.574c-8.386-7.029-13.406-20.787-9.64-34.042,3.063-4.368,7.08-8.185,12.4-7.531" transform="translate(1.981 2.661)"/><path class="d" d="M479.535,1677.031c4.368,13.1,5.373,27.616,16.82,40.821-8.937,1.808-17.724-.9-24.753-5.322-8.737-12.7-7.883-31.683.853-44.035,4.167,1.255,6.477,6.828,7.08,8.536" transform="translate(2.268 2.678)"/><path class="d" d="M473.137,1667.366a37.072,37.072,0,0,1,4.469-5.272c18.528,5.221,36.2,24.453,39.214,43.281a38.31,38.31,0,0,1-4.418,4.87,32.632,32.632,0,0,1-14.511,7.431c-8.686-8.987-11.5-20.636-14.561-32.134-2.36-8.837-3.967-15.465-10.193-18.176Z" transform="translate(2.539 2.452)"/><path class="d" d="M516.173,1667.449c-8.937-7.883-21.39-6.879-31.833-10.544a37.8,37.8,0,0,0-5.674,4.217c18.527,5.774,35.348,23.9,39.315,42.629a32.411,32.411,0,0,0,5.373-14.259c.451-7.933.4-15.164-7.18-22.042" transform="translate(2.735 2.268)"/><path class="d" d="M476.56,1661.548a38.232,38.232,0,0,0-4.519,5.373h-.05c-4.921-1.1-8.787,1.456-11.85,4.619a31.1,31.1,0,0,1,7.883-11.045,28.793,28.793,0,0,1,8.536,1.054" transform="translate(2.08 2.395)"/><path class="d" d="M477.537,1660.62a37.885,37.885,0,0,1,5.524-4.167l-4.77-2.36a30.949,30.949,0,0,0-8.888,5.122,43.262,43.262,0,0,1,8.134,1.406" transform="translate(2.407 2.169)"/><path class="c" d="M485.071,1606.93l-1.457,1.456-2.51.151-.955-.854-1.205,1-2.711.252-1.205-1.156,1.556-10.694,2.109-.252-1.1,9.49,1.456-.151,1.155-9.439,2.058-.2-.854,9.389,1.457-.151.753-9.338a15.564,15.564,0,0,1,2.109-.1Z" transform="translate(2.606 0.125)"/><path class="c" d="M491.253,1596.145v6.728h1.306l-.1-6.678s1.406.051,2.009.1l.251,7.531-1.255,1.256h-.4l.051,3.213-2.26-.05v-3.214l-.451-.05-1.355-1.406.1-7.531c.753.1,2.108.1,2.108.1" transform="translate(3.102 0.115)"/><path class="c" d="M475.322,1597.354l-.351,2.209-2.511.451-.451,2.561c.954-.15,1.456-.251,2.56-.4-.151.955-.2,1.306-.352,2.209l-2.51.352-.452,2.46,2.561-.352s-.251,1.658-.351,2.41c-1.757.2-3.616.453-5.322.8,0,0,1.907-8.987,2.409-11.75Z" transform="translate(2.363 0.161)"/><path class="c" d="M466.244,1610.418l-2.611.5,1.205-4.921-.8-1.757-2.109,7.029-2.561.553c1.054-3.816,2.159-7.632,3.163-11.448.9-.3,1.506-.451,2.31-.753.251.6,1,1.907,1,1.907l.6-2.409,2.409-.6Z" transform="translate(2.052 0.202)"/><path class="c" d="M501.551,1598.24c.252,3.063.8,6.026,1.1,8.837l-1.154,1.707-3.665-.251-1.306-1.457c-.2-3.112-.4-6.276-.553-9.389a14.647,14.647,0,0,1,1.256-1.255l3.063.3Zm-3.364.5.7,7.331,1.306.1-.7-7.28Z" transform="translate(3.348 0.129)"/><path class="c" d="M512.933,1599.218c.452,1.757,1.356,5.373,1.356,5.373l.9.15.4-.552-1.1-4.469s1.1.3,2.259.6l1.154,4.318-.5.8,1,1.1,1.506,5.272-2.511-.553-1-3.715-1.556-.352.853,3.716-2.56-.5c-.9-3.966-2.51-11.8-2.51-11.8s1.355.3,2.309.6" transform="translate(3.866 0.206)"/><path class="c" d="M509.234,1599.719l.854,4.368-.452.7.854,1.054.753,4.319-2.46-.4-.7-3.616-1.456-.15.5,3.515-2.46-.3-1.607-12,4.72.854Zm-3.514.151.4,3.012,1.355.151-.553-2.962Z" transform="translate(3.598 0.156)"/></g><path class="e" d="M0,0H200V200H0Z"/></svg>