<svg xmlns="http://www.w3.org/2000/svg" width="200" height="200" viewBox="0 0 200 200"><defs><style>.a{fill:#fff;}.b{fill:#cf0a2c;}.c{fill:none;mix-blend-mode:multiply;isolation:isolate;}</style></defs><g transform="translate(-73.828 -1866.498)"><g transform="translate(142.5 1892.499)"><path d="M205.273,1912.7a28.192,28.192,0,0,0-3.819-4.6,23.562,23.562,0,0,0-1.933-1.749l13.9-13.849H173.067l-15.6,15.6h0l-.046.046a33.251,33.251,0,0,0-3.819,4.6,32.583,32.583,0,0,0-2.853,5.291,31.244,31.244,0,0,0,0,24.2,32.579,32.579,0,0,0,2.853,5.291,28.244,28.244,0,0,0,3.819,4.6,23.9,23.9,0,0,0,1.933,1.749l-13.849,13.849h40.351l15.643-15.643h0a30.29,30.29,0,0,0,6.625-9.846,31.244,31.244,0,0,0,0-24.2,27.076,27.076,0,0,0-2.853-5.338" transform="translate(-145.507 -1892.499)"/><path class="a" d="M200,1910.736c-.6-.6-1.242-1.2-1.886-1.749l-16.932,16.978a5.581,5.581,0,0,1,2.3,1.334h0a5.277,5.277,0,0,1,0,7.408L152.1,1966.085h3.681l29.538-29.538a7.832,7.832,0,0,0,.046-11.043l1.841-1.84a10.4,10.4,0,0,1-.046,14.723l-27.7,27.7h3.681L189,1940.228a13.052,13.052,0,0,0,.046-18.4l1.841-1.84a15.621,15.621,0,0,1-.046,22.084l-24.017,24.017h3.68l22.176-22.176a18.231,18.231,0,0,0,.046-25.766l1.841-1.84a20.84,20.84,0,0,1-.046,29.446l-20.336,20.337h3.68l18.5-18.5a23.451,23.451,0,0,0,.046-33.127l1.841-1.841a26.021,26.021,0,0,1-.046,36.808l-16.655,16.655h3.68l14.815-14.815h0a28.728,28.728,0,0,0-.046-40.535" transform="translate(-145.845 -1893.344)"/><path class="b" d="M159.6,1950.516c.6.6,1.243,1.2,1.887,1.749l16.932-16.932a5.583,5.583,0,0,1-2.3-1.334h0a5.277,5.277,0,0,1,0-7.408l31.425-31.424h-3.681l-29.584,29.583a7.832,7.832,0,0,0-.046,11.043l-1.841,1.841a10.4,10.4,0,0,1,.046-14.723l27.744-27.744H196.5l-25.9,25.9a13.052,13.052,0,0,0-.046,18.4l-1.841,1.84a15.62,15.62,0,0,1,.046-22.084l24.062-24.062h-3.68l-22.223,22.222a18.23,18.23,0,0,0-.046,25.765l-1.841,1.841a20.841,20.841,0,0,1,.046-29.446l20.382-20.382h-3.68l-18.543,18.542a23.451,23.451,0,0,0-.046,33.127l-1.841,1.84a26.019,26.019,0,0,1,.046-36.807l16.7-16.7h-3.68l-14.861,14.86h0a28.672,28.672,0,0,0,.046,40.488" transform="translate(-145.799 -1892.636)"/></g><g transform="translate(86.829 1974.902)"><g transform="translate(37.084 54.015)"><path d="M127.894,2038.263h-1.978v-1.978h6.165v1.978h-2.024v9.754h-2.162Z" transform="translate(-125.915 -2036.285)"/><path d="M139,2041.53l.46-.506v-2.577l-.46-.506h-1.426v3.588Zm-3.635-5.245h4.877l1.427,1.426v4.095l-1.2,1.151,1.288,5.015h-2.209l-1.2-4.786h-.828v4.831h-2.209v-11.732Z" transform="translate(-126.397 -2036.285)"/><path d="M147.356,2043.462h1.427l-.691-5.8Zm-.782-7.177h3.175l1.794,11.732h-2.162l-.322-2.714h-1.887l-.322,2.714h-2.07Z" transform="translate(-126.882 -2036.285)"/><path d="M154.527,2046.315h1.288v-8.374h-1.288v-1.656h4.785v1.656h-1.288v8.374h1.288v1.7h-4.785Z" transform="translate(-127.382 -2036.285)"/><path d="M162.771,2036.285h2.208v9.8h2.485v1.932h-4.693Z" transform="translate(-127.804 -2036.285)"/><path d="M179.214,2046.269l.46-.46v-2.392l-.552-.552h-1.288v3.359h1.38Zm-.092-5.107.552-.552v-2.07l-.46-.46h-1.335v3.129h1.243Zm-3.451-4.877h4.785l1.426,1.426v3.129l-1.15,1.15,1.15,1.151v3.4l-1.426,1.427h-4.785Z" transform="translate(-128.465 -2036.285)"/><path d="M185.66,2036.285h2.162v9.8h2.531v1.932H185.66Z" transform="translate(-128.977 -2036.285)"/><path d="M195.751,2043.462h1.426l-.736-5.8Zm-.828-7.177H198.1l1.794,11.732H197.73l-.322-2.714h-1.887l-.322,2.714h-2.07Z" transform="translate(-129.36 -2036.285)"/><path d="M202.876,2046.407l2.991-8.144h-2.945v-1.978h5.337v1.564l-2.991,8.144h2.991v2.025h-5.383Z" transform="translate(-129.859 -2036.285)"/><path d="M211.75,2036.285H216.9v1.932h-2.945v2.853h2.669V2043h-2.669v3.083h2.991v1.932h-5.2Z" transform="translate(-130.314 -2036.285)"/><path d="M224.211,2041.53l.46-.506v-2.577l-.46-.506h-1.426v3.588Zm-3.635-5.245h4.878l1.426,1.426v4.095l-1.15,1.151,1.288,5.061h-2.209l-1.2-4.784h-.828v4.784h-2.209Z" transform="translate(-130.766 -2036.285)"/><path d="M230.275,2046.591v-2.116h2.162v1.242l.506.506h.782l.46-.506v-2.255l-.368-.368h-2.3l-1.2-1.242v-4.141l1.426-1.426h3.221l1.426,1.426v2.07h-2.208v-1.2l-.46-.506h-.736l-.506.506v2.162l.414.368h2.3l1.2,1.2v4.279l-1.426,1.426H231.7Z" transform="translate(-131.263 -2036.285)"/></g><path d="M99.39,1984.966h1.565c1.564,0,2.622.506,2.622,2.3v10.076c0,1.7-.506,2.577-2.945,2.577h-1.2v-14.953Zm11.135,3.451c0-6.809-3.681-9.063-10.859-9.063H86.829l5.613,5.613v40.948H99.39v-20.429h.368c6.993,0,10.628-2.162,10.812-8.6h0v-8.466Z" transform="translate(-86.829 -1979.353)"/><path d="M123.925,2025.868c4.325,0,9.063-1.748,9.063-7.822v-30.872c0-6.074-4.785-7.822-9.063-7.822-4.232,0-9.018,1.748-9.018,7.822v30.872c0,6.074,4.786,7.822,9.018,7.822m-2.07-38.1c0-2.346.736-2.852,2.162-2.852,1.38,0,2.07.506,2.07,2.852v29.676c0,2.346-.736,2.853-2.07,2.853-1.426,0-2.162-.507-2.162-2.853Z" transform="translate(-88.268 -1979.353)"/><path d="M208.944,2011.007H213.5l1.472,14.86h6.993l-5.291-46.515h-10.4l-5.29,46.515h6.257Zm2.209-23.465h.414l1.335,17.9h-3.313Z" transform="translate(-92.679 -1979.353)"/><path d="M268.965,2017.448v-27.56c0-8.19-2.9-10.536-9.754-10.536h-8.374v46.515h9.846c5.429,0,8.282-4,8.282-8.419m-6.9-.6c0,2.99-.827,3.451-2.622,3.451h-1.657v-35.335h1.657c1.749,0,2.622.46,2.622,3.451Z" transform="translate(-95.233 -1979.353)"/><path d="M144.109,2005.394c3.22-.138,4.279.967,4.279,3.773v16.7H155.1s.138-5.014,0-18.45c-.046-4.187-2.669-4.831-2.669-4.831,3.037-1.288,2.669-2.806,2.669-6.257l-.046-9.018c0-6.027-3.267-7.959-8.834-7.959h-9.156v46.515h6.993v-20.474Zm-.092-20.473h1.657c1.564,0,2.622.506,2.622,2.3v9.617c0,1.7-.507,2.99-2.945,2.99h-1.334V1984.92Z" transform="translate(-89.403 -1979.353)"/><path d="M197.029,2020.3h-8.834v-40.948h-6.947v46.516h15.781Z" transform="translate(-91.667 -1979.353)"/><path d="M163.985,1984.966v40.9h6.947v-40.9h5.981v-5.613H154.139l5.613,5.613Z" transform="translate(-90.278 -1979.353)"/><path d="M232.5,2000.057l7.822,25.811h6.3v-46.516h-6.257v26.087l-7.868-26.087h-6.3v46.516h6.3Z" transform="translate(-93.971 -1979.353)"/></g></g><rect class="c" width="200" height="200"/></svg>