<svg xmlns="http://www.w3.org/2000/svg" width="200" height="200" viewBox="0 0 200 200"><defs><style>.a{fill:#fff;}.b,.d,.e{fill:none;}.b{stroke:#fff;stroke-miterlimit:40;stroke-width:1.094px;}.c{fill:#ce1141;}.d{stroke:#ce1141;stroke-width:0.274px;}.e{mix-blend-mode:multiply;isolation:isolate;}</style></defs><g transform="translate(-1318.664 -644)"><path class="a" d="M1504.186,699.611c-.68-11.982-6.053-22.667-9.2-29.09l-.371-.742-1.42-2.779.309,3.088c.37,4.262,1.358,18.9-3.027,27.238-5.435,11.241-21.308,10.129-26.558,9.82h-.371c-8.585-.556-36.5-1.544-45.087-1.544-11.3.062-23.779.988-33.846,1.729-4.941.371-9.141.68-12.044.8-.247,0-.556.062-1.05.062-14.082,1.3-22.976-2.841-26.434-12.353-2.1-5.8-2.1-17.355-2.039-22.852v-4.015l-1.111,2.039a73.948,73.948,0,0,0-9.2,29.09c-.927,17.788,8.338,24.211,15.379,27.423a50.289,50.289,0,0,0,17.355,4.076h.124a7.29,7.29,0,0,0,1.668.124,16.838,16.838,0,0,1,2.408.247c-1.358.247-3.088.556-4.632.8-1.668.309-3.212.556-4.015.741-1.667.371-8.77,1.976-12.537,3.335-3.212,1.112-6.733,2.78-6.794,2.78l-.618.308.432.556c.062.062,1.236,1.668,2.409,2.9a22.885,22.885,0,0,0,17.788,5.806c6.67-.8,10.314-2.409,11.673-3.088.432,1.42,1.482,4.755,2.532,7.349,3.027,7.474,9.882,21.8,12.477,26.744,2.1,4.015,4.138,7.6,5.558,9.944l.494.865a6.92,6.92,0,0,1-2.347,3.211c-.247.186-.37.371-.556.494l-.123.186v.247c-.062,1.358-.371,13.835,8.091,22.914l.062.123.123.062a48.465,48.465,0,0,0,18.529,3.274c9.018,0,16.614-2.162,19.27-3.459l.124-.062.062-.062c5.867-6.979,8.585-17.479,8.646-21.246v-.247l-.185-.186-.432-.432a8.5,8.5,0,0,1-2.718-4.57c.741-1.236,2.1-4.2,3.274-6.547.617-1.359,1.173-2.471,1.482-3.088,2.471-4.88,9.759-20.506,12.661-27.856,1.853-4.694,2.842-6.979,3.274-7.967,1.3.679,4.756,2.223,11.241,2.9,8.461.864,16.491-4.756,18.714-7.844.371-.494.988-1.235,1.05-1.3l.494-.618-.679-.309c-.062,0-.309-.123-1.606-.556l-4.694-1.544L1483.557,735c-1.3-.432-6.98-1.667-11.118-2.594l-3.15-.679,1.05-.185c9.7-2.039,35.329-6.547,33.847-31.932"/><path class="b" d="M1504.186,699.611c-.68-11.982-6.053-22.667-9.2-29.09l-.371-.742-1.42-2.779.309,3.088c.37,4.262,1.358,18.9-3.027,27.238-5.435,11.241-21.308,10.129-26.558,9.82h-.371c-8.585-.556-36.5-1.544-45.087-1.544-11.3.062-23.779.988-33.846,1.729-4.941.371-9.141.68-12.044.8-.247,0-.556.062-1.05.062-14.082,1.3-22.976-2.841-26.434-12.353-2.1-5.8-2.1-17.355-2.039-22.852v-4.015l-1.111,2.039a73.948,73.948,0,0,0-9.2,29.09c-.927,17.788,8.338,24.211,15.379,27.423a50.289,50.289,0,0,0,17.355,4.076h.124a7.29,7.29,0,0,0,1.668.124,16.838,16.838,0,0,1,2.408.247c-1.358.247-3.088.556-4.632.8-1.668.309-3.212.556-4.015.741-1.667.371-8.77,1.976-12.537,3.335-3.212,1.112-6.733,2.78-6.794,2.78l-.618.308.432.556c.062.062,1.236,1.668,2.409,2.9a22.885,22.885,0,0,0,17.788,5.806c6.67-.8,10.314-2.409,11.673-3.088.432,1.42,1.482,4.755,2.532,7.349,3.027,7.474,9.882,21.8,12.477,26.744,2.1,4.015,4.138,7.6,5.558,9.944l.494.865a6.92,6.92,0,0,1-2.347,3.211c-.247.186-.37.371-.556.494l-.123.186v.247c-.062,1.358-.371,13.835,8.091,22.914l.062.123.123.062a48.465,48.465,0,0,0,18.529,3.274c9.018,0,16.614-2.162,19.27-3.459l.124-.062.062-.062c5.867-6.979,8.585-17.479,8.646-21.246v-.247l-.185-.186-.432-.432a8.5,8.5,0,0,1-2.718-4.57c.741-1.236,2.1-4.2,3.274-6.547.617-1.359,1.173-2.471,1.482-3.088,2.471-4.88,9.759-20.506,12.661-27.856,1.853-4.694,2.842-6.979,3.274-7.967,1.3.679,4.756,2.223,11.241,2.9,8.461.864,16.491-4.756,18.714-7.844.371-.494.988-1.235,1.05-1.3l.494-.618-.679-.309c-.062,0-.309-.123-1.606-.556l-4.694-1.544L1483.557,735c-1.3-.432-6.98-1.667-11.118-2.594l-3.15-.679,1.05-.185C1480.036,729.5,1505.668,725,1504.186,699.611Z"/><path d="M1504.186,699.611c-.68-11.982-6.053-22.667-9.2-29.09l-.371-.742-1.42-2.779.309,3.088c.37,4.262,1.358,18.9-3.027,27.238-5.435,11.241-21.308,10.129-26.558,9.82h-.371c-8.585-.556-36.5-1.544-45.087-1.544-11.3.062-23.779.988-33.846,1.729-4.941.371-9.141.68-12.044.8-.247,0-.556.062-1.05.062-14.082,1.3-22.976-2.841-26.434-12.353-2.1-5.8-2.1-17.355-2.039-22.852v-4.015l-1.111,2.039a73.948,73.948,0,0,0-9.2,29.09c-.927,17.788,8.338,24.211,15.379,27.423a50.289,50.289,0,0,0,17.355,4.076h.124a7.29,7.29,0,0,0,1.668.124,16.838,16.838,0,0,1,2.408.247c-1.358.247-3.088.556-4.632.8-1.668.309-3.212.556-4.015.741-1.667.371-8.77,1.976-12.537,3.335-3.212,1.112-6.733,2.78-6.794,2.78l-.618.308.432.556c.062.062,1.236,1.668,2.409,2.9a22.885,22.885,0,0,0,17.788,5.806c6.67-.8,10.314-2.409,11.673-3.088.432,1.42,1.482,4.755,2.532,7.349,3.027,7.474,9.882,21.8,12.477,26.744,2.1,4.015,4.138,7.6,5.558,9.944l.494.865a6.92,6.92,0,0,1-2.347,3.211c-.247.186-.37.371-.556.494l-.123.186v.247c-.062,1.358-.371,13.835,8.091,22.914l.062.123.123.062a48.465,48.465,0,0,0,18.529,3.274c9.018,0,16.614-2.162,19.27-3.459l.124-.062.062-.062c5.867-6.979,8.585-17.479,8.646-21.246v-.247l-.185-.186-.432-.432a8.5,8.5,0,0,1-2.718-4.57c.741-1.236,2.1-4.2,3.274-6.547.617-1.359,1.173-2.471,1.482-3.088,2.471-4.88,9.759-20.506,12.661-27.856,1.853-4.694,2.842-6.979,3.274-7.967,1.3.679,4.756,2.223,11.241,2.9,8.461.864,16.491-4.756,18.714-7.844.371-.494.988-1.235,1.05-1.3l.494-.618-.679-.309c-.062,0-.309-.123-1.606-.556l-4.694-1.544L1483.557,735c-1.3-.432-6.98-1.667-11.118-2.594l-3.15-.679,1.05-.185c9.7-2.039,35.329-6.547,33.847-31.932"/><path class="c" d="M1342.057,673.917c-.309,6.609-.247,13.835,1.3,20.135-1.42-1.3-2.841-2.779-4.323-4.014-1.3,1.482-2.533,3.026-3.891,4.447a81.491,81.491,0,0,1,6.917-20.568Z"/><path class="d" d="M1342.057,673.917c-.309,6.609-.247,13.835,1.3,20.135-1.42-1.3-2.841-2.779-4.323-4.014-1.3,1.482-2.533,3.026-3.891,4.447a81.491,81.491,0,0,1,6.917-20.568Z"/><path class="c" d="M1501.592,691.52l.432,1.791-3.459-2.47c-1.544.679-3.026,1.667-4.509,2.347a86.145,86.145,0,0,0,.927-19.641c3.088,5.62,4.756,11.8,6.609,17.973"/><path class="d" d="M1501.592,691.52l.432,1.791-3.459-2.47c-1.544.679-3.026,1.667-4.509,2.347a86.145,86.145,0,0,0,.927-19.641C1498.071,679.167,1499.739,685.344,1501.592,691.52Z"/><path class="c" d="M1418.582,754.148c3.644,5.559,10.191,7.1,16.3,5.559a30.492,30.492,0,0,0,6.547-2.286,55.451,55.451,0,0,0-3.088,18.776,51.377,51.377,0,0,0,2.718,16.368,27.83,27.83,0,0,1-2.718-1.359c-12.106-6.115-29.214-5.868-41.134.432.556-1.914,1.173-4.014,1.606-5.991,1.852-9.2.494-18.838-2.656-27.237,6.485,2.717,15.873,3.273,21.061-2.656a18.41,18.41,0,0,1,1.359-1.606"/><path class="d" d="M1418.582,754.148c3.644,5.559,10.191,7.1,16.3,5.559a30.492,30.492,0,0,0,6.547-2.286,55.451,55.451,0,0,0-3.088,18.776,51.377,51.377,0,0,0,2.718,16.368,27.83,27.83,0,0,1-2.718-1.359c-12.106-6.115-29.214-5.868-41.134.432.556-1.914,1.173-4.014,1.606-5.991,1.852-9.2.494-18.838-2.656-27.237,6.485,2.717,15.873,3.273,21.061-2.656A18.41,18.41,0,0,1,1418.582,754.148Z"/><path class="c" d="M1391.529,758.718c-.247,2.594-1.173,5.5-3.891,6.486-2.285.617-4.323-.618-5.8-2.224a6.4,6.4,0,0,1-1.359-2.656c3.459,2.224,7.967.433,10.994-1.667Z"/><path class="d" d="M1391.529,758.718c-.247,2.594-1.173,5.5-3.891,6.486-2.285.617-4.323-.618-5.8-2.224a6.4,6.4,0,0,1-1.359-2.656c3.459,2.224,7.967.433,10.994-1.667Z"/><path class="c" d="M1456.69,759.027c-.8,2.347-2.841,4.694-5.25,5.25a4.648,4.648,0,0,1-4.571-2.223,7.489,7.489,0,0,1-1.111-2.9c3.15,2.409,7.9,1.853,10.932-.124"/><path class="d" d="M1456.69,759.027c-.8,2.347-2.841,4.694-5.25,5.25a4.648,4.648,0,0,1-4.571-2.223,7.489,7.489,0,0,1-1.111-2.9C1448.908,761.56,1453.663,761,1456.69,759.027Z"/><path class="c" d="M1449.957,765.7a8.089,8.089,0,0,0,3.83-.433c-3.459,8.585-7.6,16.923-11.859,25.138-1.482-4.076-1.111-8.585-.864-13.156a84.739,84.739,0,0,1,3.582-16c1.112,2.038,3.026,4.138,5.311,4.447"/><path class="d" d="M1449.957,765.7a8.089,8.089,0,0,0,3.83-.433c-3.459,8.585-7.6,16.923-11.859,25.138-1.482-4.076-1.111-8.585-.864-13.156a84.739,84.739,0,0,1,3.582-16C1445.758,763.289,1447.672,765.389,1449.957,765.7Z"/><path class="c" d="M1395.915,790.341l-.062.062c-5.188-7.906-9.141-16.244-12.909-24.705,1.73.926,4.509,1.544,6.3.308a9.106,9.106,0,0,0,3.335-4.941c4.2,8.524,5.189,19.641,3.336,29.276"/><path class="d" d="M1395.915,790.341l-.062.062c-5.188-7.906-9.141-16.244-12.909-24.705,1.73.926,4.509,1.544,6.3.308a9.106,9.106,0,0,0,3.335-4.941C1396.779,769.589,1397.768,780.706,1395.915,790.341Z"/><path class="c" d="M1444.646,797.073a37.157,37.157,0,0,1-8.215,19.7c-10.808,4.2-25.323,4.632-36.131.062-5.25-5.744-7.226-13.156-7.535-21.062,11.426-8.338,29.337-10.191,42.431-4.2a43.888,43.888,0,0,1,9.45,5.5"/><path class="d" d="M1444.646,797.073a37.157,37.157,0,0,1-8.215,19.7c-10.808,4.2-25.323,4.632-36.131.062-5.25-5.744-7.226-13.156-7.535-21.062,11.426-8.338,29.337-10.191,42.431-4.2A43.888,43.888,0,0,1,1444.646,797.073Z"/><path class="c" d="M1488.992,737.595a98.084,98.084,0,0,0-30.326-5.682c-.926-10.932-2.162-17.788-4.323-23.964-5.065-.309-27.423-1.173-36.07-1.173s-30.635,1.358-35.637,1.667a99.8,99.8,0,0,0-5.436,24.026,122.873,122.873,0,0,0-32.24,6.794c-1.359.494-1.915.988-1.976.926a21.04,21.04,0,0,0,15.687,7.783c2.965.061,8.524-.495,12.106-2.1.988-.433,3.026-1.3,3.026-1.3a18.431,18.431,0,0,1,.989,2.1c.988,2.779,2.223,6.794,3.088,8.523,1.3,2.594,3.4,4.632,6.732,4.694a7.4,7.4,0,0,0,5.62-2.965c-8.708-.432-12.352-5.126-12.908-12.1-2.038-.371-2.656-.556-2.9-1.668a4.781,4.781,0,0,1,.927-3.644c.988-1.3,2.655-2.594,6.793-1.3a18.4,18.4,0,0,1,6.424,3.953c1.791,1.606,7.041,7.041,10.191,8.894,3.335,1.976,9.758,3.767,13.9-.309a16.833,16.833,0,0,0,5-9.388,169.882,169.882,0,0,1-19.579-1.729c-1.791-.247-.988-1.915.371-1.545,0,0,11.426,1.483,19.455,1.545.062-.927.062-2.595.124-4.386a123.824,123.824,0,0,1-20.32-2.161c-1.544-.309-1.235-2.039.185-1.668a152.3,152.3,0,0,0,20.135,2.038c0-1.42.062-3.459.062-5.373a131.542,131.542,0,0,1-19.95-1.791c-1.606-.247-1.3-1.73,0-1.606a160,160,0,0,0,19.95,1.606v-4.385c0-1.73,1.482-1.792,1.482-.124,0,.618.062,2.285.062,4.447a148.317,148.317,0,0,0,18.776-1.791c1.976-.371,1.791,1.235.864,1.42a133.507,133.507,0,0,1-19.7,2.224c0,1.606.062,3.644.062,5.373,6.053-.247,13.094-.432,19.146-1.791,2.286-.494,2.471,1.235.556,1.544a153.7,153.7,0,0,1-19.641,2.038c.062,1.483.062,3.274.124,4.447a174.222,174.222,0,0,0,20.444-1.853c1.606-.247,1.914,1.421.247,1.668-1.73.247-13.094,1.729-20.382,1.915.741,2.47.865,6.052,4.385,9.079,3.4,2.965,9.2,2.656,13.279.309,3.15-1.853,8.215-7.35,10.006-8.956,1.482-1.3,5-4.57,9.758-4.509,4.694.124,4.756,2.533,5,3.212a2.259,2.259,0,0,1-.617,2.718c-.865.494-1.606.37-2.409.741-.618,3.829-1.791,8.152-4.818,10.438-3.273,2.47-8.338,2.779-8.338,2.779a11.122,11.122,0,0,0,.927.988,6.577,6.577,0,0,0,4.508,1.174,10.369,10.369,0,0,0,5.559-2.841c1.544-2.039,3.026-6.3,4.138-9.08.433-1.049,1.359-2.9,1.668-3.705.988.432,1.42.741,3.212,1.42a30.419,30.419,0,0,0,11.364,1.977c4.817-.124,10.314-3.027,13.588-6.115.556-.556,1.667-1.853,1.667-1.853s-3.149-1.3-4.014-1.606"/><path class="d" d="M1488.992,737.595a98.084,98.084,0,0,0-30.326-5.682c-.926-10.932-2.162-17.788-4.323-23.964-5.065-.309-27.423-1.173-36.07-1.173s-30.635,1.358-35.637,1.667a99.8,99.8,0,0,0-5.436,24.026,122.873,122.873,0,0,0-32.24,6.794c-1.359.494-1.915.988-1.976.926a21.04,21.04,0,0,0,15.687,7.783c2.965.061,8.524-.495,12.106-2.1.988-.433,3.026-1.3,3.026-1.3a18.431,18.431,0,0,1,.989,2.1c.988,2.779,2.223,6.794,3.088,8.523,1.3,2.594,3.4,4.632,6.732,4.694a7.4,7.4,0,0,0,5.62-2.965c-8.708-.432-12.352-5.126-12.908-12.1-2.038-.371-2.656-.556-2.9-1.668a4.781,4.781,0,0,1,.927-3.644c.988-1.3,2.655-2.594,6.793-1.3a18.4,18.4,0,0,1,6.424,3.953c1.791,1.606,7.041,7.041,10.191,8.894,3.335,1.976,9.758,3.767,13.9-.309a16.833,16.833,0,0,0,5-9.388,169.882,169.882,0,0,1-19.579-1.729c-1.791-.247-.988-1.915.371-1.545,0,0,11.426,1.483,19.455,1.545.062-.927.062-2.595.124-4.386a123.824,123.824,0,0,1-20.32-2.161c-1.544-.309-1.235-2.039.185-1.668a152.3,152.3,0,0,0,20.135,2.038c0-1.42.062-3.459.062-5.373a131.542,131.542,0,0,1-19.95-1.791c-1.606-.247-1.3-1.73,0-1.606a160,160,0,0,0,19.95,1.606v-4.385c0-1.73,1.482-1.792,1.482-.124,0,.618.062,2.285.062,4.447a148.317,148.317,0,0,0,18.776-1.791c1.976-.371,1.791,1.235.864,1.42a133.507,133.507,0,0,1-19.7,2.224c0,1.606.062,3.644.062,5.373,6.053-.247,13.094-.432,19.146-1.791,2.286-.494,2.471,1.235.556,1.544a153.7,153.7,0,0,1-19.641,2.038c.062,1.483.062,3.274.124,4.447a174.222,174.222,0,0,0,20.444-1.853c1.606-.247,1.914,1.421.247,1.668-1.73.247-13.094,1.729-20.382,1.915.741,2.47.865,6.052,4.385,9.079,3.4,2.965,9.2,2.656,13.279.309,3.15-1.853,8.215-7.35,10.006-8.956,1.482-1.3,5-4.57,9.758-4.509,4.694.124,4.756,2.533,5,3.212a2.259,2.259,0,0,1-.617,2.718c-.865.494-1.606.37-2.409.741-.618,3.829-1.791,8.152-4.818,10.438-3.273,2.47-8.338,2.779-8.338,2.779a11.122,11.122,0,0,0,.927.988,6.577,6.577,0,0,0,4.508,1.174,10.369,10.369,0,0,0,5.559-2.841c1.544-2.039,3.026-6.3,4.138-9.08.433-1.049,1.359-2.9,1.668-3.705.988.432,1.42.741,3.212,1.42a30.419,30.419,0,0,0,11.364,1.977c4.817-.124,10.314-3.027,13.588-6.115.556-.556,1.667-1.853,1.667-1.853S1489.857,737.9,1488.992,737.595Z"/><path d="M1436.925,798.247c.865,1.667.186,3.582-.8,5a7.146,7.146,0,0,1-7.536,2.47,7.467,7.467,0,0,1-4.138-3.15c-.432,1.421.556,2.409.494,3.706a.531.531,0,0,1-.8.062c-1.544-2.038-2.161-5.188-.8-7.535a8.143,8.143,0,0,1,8.4-4.077,6.915,6.915,0,0,1,5.188,3.521"/><path class="d" d="M1436.925,798.247c.865,1.667.186,3.582-.8,5a7.146,7.146,0,0,1-7.536,2.47,7.467,7.467,0,0,1-4.138-3.15c-.432,1.421.556,2.409.494,3.706a.531.531,0,0,1-.8.062c-1.544-2.038-2.161-5.188-.8-7.535a8.143,8.143,0,0,1,8.4-4.077A6.915,6.915,0,0,1,1436.925,798.247Z"/><path d="M1413.085,799.3c1.359,2.285.741,5.311-.556,7.411-.185.309-.494.68-.926.371-.556-.741.247-1.359.308-2.038a4.094,4.094,0,0,0,.062-1.73,7.535,7.535,0,0,1-7.659,3.212,6.922,6.922,0,0,1-4.941-4.2,4.541,4.541,0,0,1,.618-4.076c2.038-2.718,5.744-3.4,8.894-2.347a7.608,7.608,0,0,1,4.2,3.4"/><path class="d" d="M1413.085,799.3c1.359,2.285.741,5.311-.556,7.411-.185.309-.494.68-.926.371-.556-.741.247-1.359.308-2.038a4.094,4.094,0,0,0,.062-1.73,7.535,7.535,0,0,1-7.659,3.212,6.922,6.922,0,0,1-4.941-4.2,4.541,4.541,0,0,1,.618-4.076c2.038-2.718,5.744-3.4,8.894-2.347A7.608,7.608,0,0,1,1413.085,799.3Z"/><path d="M1436.74,814.3a5.167,5.167,0,0,1-.741.989c-1.112-.309-2.285-.742-3.4-1.174-9.882-3.768-22.482-2.718-31.808,1.174a1.976,1.976,0,0,1-.556-.927c10.809-4.879,25.632-5.435,36.5-.062"/><path class="d" d="M1436.74,814.3a5.167,5.167,0,0,1-.741.989c-1.112-.309-2.285-.742-3.4-1.174-9.882-3.768-22.482-2.718-31.808,1.174a1.976,1.976,0,0,1-.556-.927C1411.047,809.488,1425.87,808.932,1436.74,814.3Z"/><path d="M1438.531,761.807c-1.667,7.782-6.608,16.737-14.823,19.023-6.547,1.729-13.9.37-18.282-5.065a24.661,24.661,0,0,1-5.25-13.65,1.408,1.408,0,0,1,.989-.247c.679,7.412,4.508,15.565,11.92,17.85a17.425,17.425,0,0,0,18.591-5.435,33.18,33.18,0,0,0,5.867-12.909,1.746,1.746,0,0,1,.988.433"/><path class="d" d="M1438.531,761.807c-1.667,7.782-6.608,16.737-14.823,19.023-6.547,1.729-13.9.37-18.282-5.065a24.661,24.661,0,0,1-5.25-13.65,1.408,1.408,0,0,1,.989-.247c.679,7.412,4.508,15.565,11.92,17.85a17.425,17.425,0,0,0,18.591-5.435,33.18,33.18,0,0,0,5.867-12.909A1.746,1.746,0,0,1,1438.531,761.807Z"/><path class="a" d="M1345.022,699.117c4.261,8.214,12.847,10.87,21.617,10.438,4.879-.062,9.573-.556,14.391-.865V709a104.3,104.3,0,0,0-5.065,21.247c-12.661.494-25.632-.556-34.958-9.018-6.361-6.423-7.967-15.255-6.547-24.026,1.483-1.791,3.088-3.273,4.633-5.064,2.1,2.223,5.373,4.014,5.929,6.979"/><path class="a" d="M1502.394,695.473a26,26,0,0,1,.495,3.829c.617,9.759-3.583,18.714-11.921,23.655-9.079,5.5-19.579,7.35-30.758,7.659-.185-.988-.309-2.285-.432-3.4a131.534,131.534,0,0,0-3.891-19.023c11.92-.123,26.434,3.026,34.34-7.967,1.05-1.544,2.1-2.9,3.026-4.571,1.792-.8,3.459-1.915,5.189-2.841,1.482.679,2.532,1.853,3.952,2.656"/><path class="a" d="M1457.06,744.76c.062,3.767-1.173,7.6-4.508,9.388a9.894,9.894,0,0,1-5.127,1.112,2.23,2.23,0,0,1-.062-1.112,7.626,7.626,0,0,0,6.794-3.15,11.334,11.334,0,0,0,1.421-5.62,3.956,3.956,0,0,1,1.482-.618"/><path class="a" d="M1389.677,754.889a3.663,3.663,0,0,1-1.668,0,8.746,8.746,0,0,1-8.709-9.45,2.594,2.594,0,0,1,1.668.062c0,3.4,1.359,8.029,8.523,8.029.494.741,0,.8.186,1.359"/></g><rect class="e" width="200" height="200"/></svg>