<svg xmlns="http://www.w3.org/2000/svg" width="200" height="200" viewBox="0 0 200 200"><defs><style>.a{fill:#fff;}.b{fill:#fb4f14;}.c{fill:none;mix-blend-mode:multiply;isolation:isolate;}</style></defs><g transform="translate(-101.516 -865.129)"><path class="a" d="M271.209,963.052a.971.971,0,0,1-.142-1.782c7.8-5.771,13.066-13.177,13.066-24.608,0-13.536-9.7-32.533-47.6-32.533h-97.71l-22.13,38.494h16.25a3.273,3.273,0,0,1,3.281,3.269v38.427a3.276,3.276,0,0,1-3.281,3.273H115.516l22.365,38.355,103.282-.012c33.332,0,47.743-17.362,47.743-36,0-12.343-8.778-22.344-17.7-26.884"/><path class="b" d="M213.335,956.535H197.284V941.109a2.947,2.947,0,0,1,2.949-2.921h13.1c7.689,0,10.545,3.914,10.545,9.023,0,5.419-2.856,9.324-10.545,9.324Zm0,35.488h-13.1a2.944,2.944,0,0,1-2.949-2.941v-15.4h16.051c7.689,0,10.545,3.763,10.545,9.026,0,5.41-2.856,9.318-10.545,9.318Zm45.813-28.1a1.064,1.064,0,0,1-.124-2.038c10.6-4,16.781-11.133,16.781-23.7.147-16.844-14.761-28.42-39.007-28.42h-91.89l-16.124,28.438h11.1a3.96,3.96,0,0,1,3.968,3.959v45.887a3.96,3.96,0,0,1-3.968,3.959H128.908l16.244,28.3,96.012-.012c27.413,0,38.708-18.193,38.708-31.578,0-11.763-8.684-21.917-20.724-24.8Z"/><path d="M176.168,1012.275C159.131,980.3,154.653,943.538,161,909.768H144.908l-16.124,28.438h11.1a3.96,3.96,0,0,1,3.968,3.959v35.209a126.725,126.725,0,0,0,32.319,34.9Zm80.35-99.342c-19.5,28.874-30.066,65.675-25.323,99.2a125.6,125.6,0,0,1,44.579-73.1c.006-.28.03-.551.03-.837.1-11.608-6.95-20.718-19.286-25.255Zm-32.689-3.164a248.512,248.512,0,0,0-8.971,28.477c-.483-.036-.992-.058-1.523-.058h-13.1a2.947,2.947,0,0,0-2.949,2.921v15.426h13.781c-.911,5.53-1.647,11.259-2.135,17.145H197.284v15.4a2.944,2.944,0,0,0,2.949,2.941h8.045a171.321,171.321,0,0,0,2.675,28.273H198.976c-9.45-22.784-22.455-61.332-9.52-110.527Z"/></g><rect class="c" width="200" height="200"/></svg>