<svg xmlns="http://www.w3.org/2000/svg" width="200" height="200" viewBox="0 0 200 200"><defs><style>.a{fill:#006bb5;}.b{fill:#ec174c;}.c{fill:none;mix-blend-mode:multiply;isolation:isolate;}</style></defs><g transform="translate(-1341.049 -1578.832)"><path class="a" d="M1459.671,1673.764c-6.737,0-13.638,2.692-17.27,8.336h-.128l.676-9.769c.392-6.6,1.892-24.551,11.048-24.551,4.4,0,3.413,5.841,3.91,8.494,1.213,6.213,3.92,13.337,12.429,13.337,5.8,0,11.873-3.84,11.873-11.687,0-12.1-10.121-20.048-22.4-20.048-31.542,0-44.2,24.071-44.2,53.218,0,25.306,9.832,47.153,36.922,47.153,17.591,0,31.85-12.51,31.85-33.531C1484.376,1686.952,1474.979,1673.764,1459.671,1673.764Zm-9.35,54.606c-7.533,0-7.213-9.649-7.213-20.777s1.056-20.758,7.213-20.758c7.561,0,7.963,9.621,7.963,20.758S1456.733,1728.37,1450.321,1728.37Z" transform="translate(20.546 19.762)"/><path class="b" d="M1376.048,1637.906v37.563c21.044,3.1,46.156,1.044,63.911-24.922.745-1.1,1.184-.33.705.637-4.961,10.1-16.689,19.427-26.832,27.389-9.749,7.644-35.883,35.076-35.538,59.194.024,1.852.083,1.343,1.711.132,7.938-5.89,23.471-6.08,33.011-1.5,1.34.624,1.437.436,1.281-1.284-1.832-18.7,2.373-39.126,10.393-50.974,5.517-8.222,20.377-29.36,22.939-45.949.263-1.72-.62-1.453-2.77.811-16.838,17.782-47.273,17.351-66.91-1.492-1.24-1.2-1.793-.659-1.9.4" transform="translate(0 19.217)"/><g transform="translate(1378.133 1599.831)"><path class="a" d="M1401.873,1599.831l1.2,3.837h4.069l-3.309,2.4,1.212,3.768-3.173-2.308-3.226,2.308,1.2-3.784-3.289-2.381h4.069Z" transform="translate(-1367.478 -1599.831)"/><path class="a" d="M1417.646,1609.036l1.234,3.8h4.08l-3.311,2.415,1.213,3.762-3.2-2.324-3.215,2.324,1.242-3.762-3.352-2.415h4.09Z" transform="translate(-1359.284 -1595.05)"/><path class="a" d="M1410.869,1601.932l1.224,3.822h4.088l-3.309,2.415,1.2,3.777-3.193-2.343-3.194,2.343,1.2-3.792-3.309-2.4h4.069Z" transform="translate(-1362.794 -1598.74)"/><path class="a" d="M1420.221,1617.729l1.222,3.82h4.069l-3.289,2.4,1.194,3.773-3.175-2.335-3.2,2.335,1.223-3.773-3.332-2.4h4.048Z" transform="translate(-1357.936 -1590.534)"/><path class="a" d="M1419.087,1626.917l1.223,3.81h4.079l-3.309,2.43,1.212,3.768-3.194-2.329-3.183,2.329,1.19-3.789-3.3-2.409h4.069Z" transform="translate(-1358.52 -1585.762)"/><path class="a" d="M1414.027,1634.252l1.2,3.823h4.09l-3.31,2.412,1.2,3.758-3.161-2.319-3.216,2.319,1.212-3.758-3.331-2.412h4.09Z" transform="translate(-1361.165 -1581.951)"/><path class="a" d="M1406.046,1638.356l1.233,3.822h4.047l-3.3,2.419,1.223,3.778-3.193-2.325-3.206,2.325,1.2-3.784-3.309-2.413h4.069Z" transform="translate(-1365.305 -1579.82)"/><path class="a" d="M1385.786,1608.221l-1.233,3.806h-4.059l3.289,2.424-1.2,3.763,3.184-2.335,3.224,2.335-1.222-3.763,3.33-2.424h-4.09Z" transform="translate(-1375.824 -1595.473)"/><path class="a" d="M1392.389,1601.932l-1.223,3.822H1387.1l3.31,2.415-1.223,3.777,3.2-2.343,3.205,2.343-1.2-3.792,3.309-2.4h-4.079Z" transform="translate(-1372.393 -1598.74)"/><path class="a" d="M1382.7,1616.605l-1.2,3.805h-4.081l3.321,2.4-1.212,3.79,3.172-2.319,3.2,2.319-1.2-3.79,3.331-2.4h-4.069Z" transform="translate(-1377.42 -1591.118)"/><path class="a" d="M1383.545,1625.779l-1.244,3.832h-4.069l3.31,2.419-1.2,3.773,3.182-2.335,3.206,2.335-1.223-3.783,3.309-2.409h-4.069Z" transform="translate(-1376.998 -1586.353)"/><path class="a" d="M1388.6,1633.282l-1.212,3.826h-4.079l3.309,2.409-1.222,3.762,3.2-2.334,3.227,2.334-1.234-3.773,3.309-2.4h-4.068Z" transform="translate(-1374.36 -1582.455)"/><path class="a" d="M1396.579,1638.041l-1.212,3.832h-4.079l3.309,2.407-1.2,3.759,3.161-2.3,3.235,2.3-1.234-3.784,3.333-2.382h-4.078Z" transform="translate(-1370.216 -1579.984)"/></g></g><rect class="c" width="200" height="200"/></svg>