<svg xmlns="http://www.w3.org/2000/svg" width="200" height="200" viewBox="0 0 200 200"><defs><style>.a{fill:#8e9090;}.b{fill:#2e2a25;}.c,.e{fill:#fff;}.d{fill:#0055b8;}.e{fill-rule:evenodd;}.f{fill:none;mix-blend-mode:multiply;isolation:isolate;}</style></defs><g transform="translate(-1012.082 -1562.762)"><path class="a" d="M1094.822,1689.693c9.557-1.465,19.1-1.035,27.449,2.492l1.019-2.24c-13.515-4.349-30.5-4.126-43.15,2.8l3.6-8.375c-15.9,4.3-26.6,13.266-37.361,22.5,7.843-18.525,24.894-33.755,44.177-39.284l-.98,3.075a110.536,110.536,0,0,1,50.427-4.076l-3.515-4.572,8.61,2.193,5.535-8.27,2.19,10.227,8.467,2.745s-6.169,2.579-5.871,2.7c32.061,13.206,21.8,57.086-8.689,57.319-15.421.129-27.384-13.807-26.863-28.382-7.84-5.16-15.706-7.644-25.05-10.861"/><path class="a" d="M1075.322,1630.628a12.9,12.9,0,0,1,3.078-8.854,12.718,12.718,0,0,1,8.489-3.912c6.523-.606,13.153-.977,19.711-1.106h0l4.841-.107v55.671l-.075,4.794-4.829-.085c-.848,0-7.282.226-8.474.309-.071,0-.092.007-.142.011l-5.217.467v-.1l-3.261.149c-.442.015-8.206.8-8.587.875l-5.52.872Zm13.475.541.01-.121a4.183,4.183,0,0,1,1.577-2.958,5.285,5.285,0,0,1,2.947-.991l1.8-.114,2.757-.175v19.83l-2.414.166c-1.444.1-2.333.165-3.924.264l-2.752.172v-16.073Z"/><path class="a" d="M1194.83,1690.073c-.008-.005-6.472-1.976-7.447-2.285-.06-.019-.067-.019-.115-.035l-.014,0c-2.917-.835-5.542-1.563-7.469-2.084l-3.478-.861a14.182,14.182,0,0,1-7.961-4.77,13.824,13.824,0,0,1-2.8-8.791v-36.187c-.02-3.556,1.061-6.792,3.624-8.8a9.247,9.247,0,0,1,5.85-1.9,14.691,14.691,0,0,1,3.47.444c.434.1,1.7.46,3.7,1.02,1.961.552,4.488,1.266,6.986,1.974,5,1.415,9.878,2.806,9.878,2.806l1.883.534v24.591l-15.764-4.853-.253-1.6c0-.005-.449-2.858-.865-5.506l0,27.393v.061l0,.066a.155.155,0,0,1,.006.034.668.668,0,0,0,.065.188c.024,0-.071.04.432.2,0,0,1.026.266,1.7.452.422-1.865.856-3.773.856-3.775l.617-2.7,13.2,3.962.046,22.274Z"/><path class="a" d="M1023.082,1638.236a9.594,9.594,0,0,1,2.811-6.643,12.16,12.16,0,0,1,4.882-3.124,145.451,145.451,0,0,1,17.987-4l2.765-.431a12.927,12.927,0,0,1,3.77-1.427c3.566-.747,14.341-2.777,14.831-2.867h0l5.617-1.046-.014,56.611-.091,4.214-4.181.489c-.35.022-8.195,1.354-8.557,1.453l-5.837,1.313v-9.144l-16.279,3.855v5.586l-.055,3.692-3.563.878c-.068.014-1.243.361-2.506.749-1.293.4-2.8.859-3.872,1.2-.69.217-1.271.408-1.3.42l-6.413,2.352Z"/><path class="a" d="M1159.992,1681.292l-.094-.021c-.074-.013-.182-.032-.311-.058-.254-.047-.6-.107-.988-.174-.791-.138-1.792-.308-2.8-.472-1.969-.329-4.1-.666-4.242-.678l-1.956-.214-2.311-.252v-60.131l5.15.406c.535.055,1.681.244,3.294.5,1.565.255,3.384.559,4.689.786.9.158,1.434.249,1.846.343l3.586.912v54.452l-.069,5.881Z"/><path class="a" d="M1141.729,1678.616c-.515-.108-3.762-.416-7.137-.679-3.232-.255-6.78-.5-9.034-.644l-2.495-.092a12.453,12.453,0,0,1-8.7-3.454,12.233,12.233,0,0,1-3.145-8.773v-37.659a10.412,10.412,0,0,1,2.908-7.731h0a10.8,10.8,0,0,1,7.676-2.68c.535,0,1,.022,1.3.037l.317.011c.125,0,.246,0,.369,0,.664,0,1.518.037,2.741.114l1.385.049-.024.041c1.357.095,3.072.224,5.276.392,7.365.571,9.3.77,10.428,1a4.494,4.494,0,0,1,1.021.343l2.747,1.328-.023,3.018v16.588l-15.593-2.014-.39-1.779s-.441-2-.826-3.752l-.669-.043.051,7.181,0,1.544.954-.036h.066l.057,0h.07c.457.005,1.031.053,1.986.125.924.073,2.091.174,3.31.283,2.442.218,5.062.472,6.359.622.4.052.572.062.942.136l3.727.825-.045,36.754Z"/><path class="b" d="M1076.878,1630.628c-.084-6.342,3.865-10.72,10.155-11.217,6.483-.6,13.079-.971,19.6-1.1l3.257-.072V1672.3l-.052,3.24-3.254-.066h0c-.842,0-8.233.263-8.8.324l-3.52.324v-21.109c-.649.043-1.213.083-1.839.126l0,18.014-.042,3.031-3.032.137c-.588.023-8.164.792-8.734.889l-3.72.587Zm15.545,12.752c.654-.043,1.213-.082,1.839-.124v-12.585c-.42.028-.708.044-.7.044a1.865,1.865,0,0,0-.962.246c-.085.078-.131.111-.173.4v12.022Z"/><path class="b" d="M1195.286,1688.585s-5.717-1.751-7.2-2.209c-.153-.049-.22-.068-.287-.09l-.034-.01c-3.21-.921-6.073-1.711-8.055-2.243l0,.006-3.029-.747c-6.111-1.43-9.64-5.851-9.573-12.049v-36.189c-.006-3.293.959-5.959,3.035-7.579a7.721,7.721,0,0,1,4.883-1.562,13.266,13.266,0,0,1,3.122.4c1.016.237,20.466,5.774,20.49,5.78l.751.213v21.3l-12.824-3.944-.1-.636s-.981-6.241-1.388-8.844c-.767-.228-1.36-.4-1.762-.516l-.028.01-.325-.09-.456-.13h0l0,31.721,0,.143a2.32,2.32,0,0,0,.233.879,2.024,2.024,0,0,0,1.416,1.01s1.724.446,3.271.894c.486-2.157,1.215-5.375,1.215-5.375l.246-1.08,10.5,3.154.041,19.019Z"/><path class="b" d="M1024.639,1638.235c.073-4.642,4.04-7.437,6.611-8.285a144.364,144.364,0,0,1,17.749-3.941l3.061-.478a11.331,11.331,0,0,1,3.556-1.4c3.522-.734,14.328-2.772,14.8-2.858h0l3.775-.7-.018,54.728-.055,2.836-2.814.322c-.577.06-8.174,1.347-8.739,1.486l-3.937.888v-44.281l-.087.014c-1.107.346-1.309.558-1.557,1.807v.045c0,2.956,0,32.818,0,32.818v.817l-15.437,3.655v-35.29c-.112.026-.2.05-.26.067a4.319,4.319,0,0,0-1.506.74,1.316,1.316,0,0,0-.546,1.073v40.754l-.04,2.491-2.4.591c-.527.13-7.338,2.223-7.829,2.415l-4.32,1.585Z"/><path class="b" d="M1160.36,1679.773c-.529-.135-8.057-1.374-8.631-1.431l-1.958-.215-.922-.1v-57.051l3.454.273c.86.082,8.751,1.4,9.585,1.592l2.413.614,0,53.222-.045,3.963Z"/><path class="b" d="M1142.023,1677.088c-1.507-.294-11.714-1.066-16.358-1.35l-2.54-.092a10.9,10.9,0,0,1-7.638-2.983,10.7,10.7,0,0,1-2.708-7.7v-37.65a8.835,8.835,0,0,1,2.438-6.614,9.3,9.3,0,0,1,6.6-2.244c.49,0,.918.02,1.249.037l.354.014c.123-.005.252-.006.394-.006,1.368,0,3.851.181,9.242.591,7.33.563,9.33.783,10.217.972a2.823,2.823,0,0,1,.667.22l1.863.9-.009,2.051v14.816l-12.745-1.647-.157-.708s-.669-3.02-1.081-4.89l-.678-.052c-.1-.009-2.05-.131-2.062-.131-.1-.008-.19-.009-.28-.009a2.246,2.246,0,0,0-.467.037.686.686,0,0,0,0,.077s-.012.34-.015.431l0,.337.056,7.917,0,3.162,2.608-.1a.343.343,0,0,1,.09,0h.012c.636,0,3.386.239,6.215.5s5.469.518,6.039.633l2.506.555-.037,33.627Zm-13.665-13.938a1.557,1.557,0,0,0,.152.654c.081.129.226.294.984.361l.791.054v-10.7l-1.408-.1-.516-.041Zm-2.106-32.463h0"/><path class="c" d="M1106.67,1620.571h0l-.01-.516c-6.475.133-13.022.5-19.471,1.094-5.492.46-8.616,3.911-8.563,9.482l.013,45.139,1.7-.3c.466-.075,8.453-.886,8.929-.9l.9-.023.505-.015V1653.5c1.322-.094,3.912-.27,5.341-.367v21.094l1.606-.178c.436-.061,7.822-.336,8.91-.335h.06l.021,0,.975.039.534.024.011-1.5v-52.258l-1.47.03Zm-10.655,8.241v16.078c-1.334.09-3.907.264-5.341.355V1631.2c.141-.964.488-2.026,2.768-2.235,0,0,1.41-.086,2.573-.154"/><path class="c" d="M1197.627,1672.108l-7.462-2.243-.118.542s-.915,4.064-1.332,5.907c-2.991-.885-4.3-1.269-5.016-1.4v-.01a3.8,3.8,0,0,1-2.535-1.918,4.04,4.04,0,0,1-.422-1.7v-32.122a2.377,2.377,0,0,1,.316-1.194,1.014,1.014,0,0,1,.893-.354,3.792,3.792,0,0,1,.988.157l.071.019h.052l.028.005c.115.021,1.362.374,3.544,1.026.291,1.848,1.429,9.159,1.43,9.167l.049.319,9.514,2.932v-17.593l-.372-.106c-.016,0-18.559-5.3-19.5-5.517a11.349,11.349,0,0,0-2.739-.366,5.981,5.981,0,0,0-3.8,1.187c-1.616,1.263-2.371,3.409-2.369,6.21v36.183c-.041,5.422,2.839,9.042,8.186,10.329l.1.05.207,0c.62.1,5.739,1.488,10.892,2.974l7.556,2.308,1.872.569Z"/><path class="c" d="M1055.979,1625.849a9.74,9.74,0,0,0-5.041,2.782v-1.156l-1.668.265a141.354,141.354,0,0,0-17.49,3.88c-2.24.74-5.355,3.152-5.394,6.614v49.433l1.966-.767c.408-.15,7.574-2.355,8.025-2.465l.7-.164.4-.093v-41.873c-.022-2.123,1.98-3.084,3.315-3.495.445-.135,1.518-.336,2.5-.5v35.186l11.944-2.817v-1.144c0-3.022.008-28.095.008-31.141v-.173a3.519,3.519,0,0,1,2.911-3.36c.022,0,0,0,.06-.008.279-.046,1.265-.2,2.17-.344v44.184l1.795-.456c.459-.118,8.464-1.468,8.951-1.52l.812-.067.466-.04.024-1.316.01-52.606-1.7.312s-11.267,2.112-14.757,2.853"/><path class="c" d="M1152.159,1623l-1-.074-.555-.043v53.607l.47.042.845.075c.45.029,8.4,1.347,8.84,1.461l1.782.441.009-1.84v-51.852l-1.09-.273c-.686-.167-8.595-1.478-9.3-1.544"/><path class="c" d="M1131.113,1644.224h-.016a.311.311,0,0,0-.069.005l-.864.027-.5.017v7.443l.479.035s1.1.082,1.884.144v14.2c-1.157-.075-2.652-.176-2.654-.176a2.73,2.73,0,0,1-2.376-1.228,3.2,3.2,0,0,1-.39-1.537l0-23.739-.05-7.9c0-.013-.006-.324-.006-.324v-.088l.021-.381a1.867,1.867,0,0,1,.39-1.262,2.343,2.343,0,0,1,1.837-.593c.125,0,.253,0,.387.013h.012l.03,0,.139-.005c.241,0,1.594.1,3.871.29.326,1.485,1.17,5.3,1.17,5.306l.078.353,9.555,1.237v-12.834l.007-.588,0-.314-.824-.443c-.4-.15-.767-.308-10.313-1.035-5.761-.441-8.122-.593-9.213-.593-.112,0-.211,0-.3.005l-.414-.019c-.338-.016-.753-.037-1.213-.037a7.5,7.5,0,0,0-5.34,1.763v0a7.133,7.133,0,0,0-1.9,5.35v37.657c-.062,5.495,3.124,8.771,8.659,8.926h.1l.125-.014h.026c1.432-.005,16.743,1.076,18.9,1.482l1.707.317.035-30.117-1.137-.255c-.773-.154-10.769-1.073-11.829-1.082"/><path class="d" d="M1131.111,1650.383c.468.03,2.363.165,2.363.165v17.092c-1.4-.108-2.805-.2-4.193-.292a4.113,4.113,0,0,1-3.527-1.938,4.653,4.653,0,0,1-.587-2.26c0-.378.008-14.385.008-23.738,0-4.541-.062-7.956-.062-8.185-.009-.067.01-.26.01-.539a3.342,3.342,0,0,1,.756-2.185,4,4,0,0,1,3.4-1.065c0-.038,2.391.146,5.137.377l1.262,5.707,6.921.905v-11.241c-.58-.268-19.334-1.682-19.348-1.488l-.323-.023c-1.485-.067-3.961-.156-5.5,1.325a5.748,5.748,0,0,0-1.459,4.316v37.651c0,4.845,2.449,7.293,7.28,7.493.008-.155,16.909,1.036,19.348,1.487,0-.591.038-26.637.038-27.23-.567-.118-10.947-1.078-11.528-1.058v4.724Zm-41.876-19.236c.081-.991.645-3.363,4.111-3.619,1.368-.09,2.732-.179,4.107-.251v18.965c-2.733.138-5.48.323-8.218.545v-15.64Zm-9.166-.518s.02,42.815.02,43.423c.56-.1,8.582-.9,9.145-.919v-20.971c2.738-.234,5.485-.42,8.218-.568v21.019c.568-.064,8.681-.363,9.244-.332v-50.786q-9.7.2-19.37,1.086c-4.82.449-7.257,3.216-7.257,8.048m71.97,44.536c.562.049,8.518,1.364,9.074,1.5v-50.721c-.556-.147-8.512-1.463-9.074-1.508Zm-102.548-40.649v-5.355a143.448,143.448,0,0,0-17.265,3.833c-1.8.577-4.4,2.638-4.4,5.243v47.326c.531-.206,7.665-2.4,8.212-2.524v-40.733c0-2.851,2.336-4.272,4.328-4.871,1.1-.333,4.363-.827,4.363-.827v35.065l9.051-2.142s.008-31.306.008-31.43a4.977,4.977,0,0,1,4.048-4.648c2.3-.39,3.974-.646,3.974-.646l.008,2.741v41.294c.555-.141,8.6-1.511,9.161-1.56,0-10.157.021-50.867.021-50.867s-11.22,2.109-14.734,2.84a8.864,8.864,0,0,0-6.777,7.261m146.7,38.662-4.96-1.482-1.447,6.445c-3.221-.957-6.456-1.886-6.465-1.844a5.174,5.174,0,0,1-4.021-5.026.466.466,0,0,1,.012-.123h-.012c0-.321-.005-31.931-.005-31.976a3.582,3.582,0,0,1,.6-2.038c.465-.632,1.442-1.292,3.418-.753.018-.035,2.114.579,4.6,1.326l1.484,9.492,6.794,2.09v-14.5s-17.9-5.161-18.76-5.36c-4.726-1.163-7.142.793-7.142,5.629v36.185c0,4.847,2.416,7.793,7.142,8.944.018-.1,6,1.536,11.206,3.024l7.575,2.313Z"/><path class="d" d="M1131.111,1650.38c.468.032,2.363.168,2.363.168v17.091c-1.4-.107-2.805-.2-4.195-.291a4.123,4.123,0,0,1-3.531-1.943,4.684,4.684,0,0,1-.581-2.257c0-.376.008-14.384.008-23.737,0-4.54-.062-7.955-.062-8.184-.009-.068.02-.26.02-.539a3.325,3.325,0,0,1,.746-2.187,3.976,3.976,0,0,1,3.4-1.063c0-.038,2.392.146,5.139.377l1.262,5.707,6.921.9v-11.24c-.581-.268-19.334-1.683-19.352-1.487l-.323-.025c-1.483-.067-3.958-.155-5.493,1.326a5.737,5.737,0,0,0-1.464,4.31v37.656c0,4.844,2.451,7.291,7.28,7.492.011-.154,16.914,1.038,19.352,1.488,0-.589.038-26.636.038-27.23-.571-.12-10.946-1.077-11.528-1.057v4.721Zm20.93,24.785c.56.049,8.518,1.361,9.067,1.5v-50.73c-.549-.138-8.507-1.454-9.067-1.5Zm-102.551-40.649v-5.355a143.208,143.208,0,0,0-17.263,3.834c-1.805.571-4.4,2.638-4.4,5.242v47.326c.53-.206,7.664-2.4,8.212-2.525V1642.3c0-2.846,2.337-4.267,4.328-4.872,1.095-.327,4.364-.821,4.364-.821v35.064l9.051-2.141s.008-31.306.008-31.439a4.977,4.977,0,0,1,4.048-4.64c2.3-.39,3.972-.645,3.972-.645l.01,2.741v41.294c.551-.141,8.6-1.511,9.16-1.56,0-10.156.025-50.867.025-50.867s-11.227,2.108-14.738,2.84a8.863,8.863,0,0,0-6.778,7.261"/><path class="b" d="M1084.195,1603.255a1.814,1.814,0,0,0-.971-.62h0a3.048,3.048,0,0,0-.817-.1,6.744,6.744,0,0,0-1.153.12c-.973.177-1.95.366-2.919.557a5.233,5.233,0,0,0-1.857.7,2.894,2.894,0,0,0-.875.871,2.667,2.667,0,0,0-.39,1.425v9.46a2.148,2.148,0,0,0,.408,1.351,1.755,1.755,0,0,0,.978.6,2.963,2.963,0,0,0,.694.074,6.5,6.5,0,0,0,1.253-.148q1.458-.289,2.9-.553a5.347,5.347,0,0,0,1.869-.652,2.771,2.771,0,0,0,.887-.832,2.582,2.582,0,0,0,.406-1.429v-9.455a2.159,2.159,0,0,0-.416-1.365m-3.149,10.989s.013.109-.131.241l0,0h0a1.184,1.184,0,0,1-.606.257c-.23.049-.758.15-1.167.228a.947.947,0,0,1-.195.021c-.155-.005-.163-.033-.165-.033h0c-.017-.013-.02-.086-.026-.086v-8.927c0-.014-.016-.1.119-.238a1.305,1.305,0,0,1,.634-.277c.326-.062.666-.126,1.009-.194a1.353,1.353,0,0,1,.26-.024.512.512,0,0,1,.233.04c.04.007.034.074.042.074v8.916Z"/><path class="b" d="M1128.627,1601.435a2.513,2.513,0,0,0-.94-.784,5.164,5.164,0,0,0-1.92-.45q-2.9-.192-5.812-.293l-.568-.019v14.323l.531.019c.839.03,1.681.068,2.527.109l.573.025v-11.94l1.177.066c1.384.157,1.16.581,1.233.74V1614.5l.51.038c.834.06,1.668.121,2.5.192l.6.05v-.6c0-1.348,0-10.4,0-11.342a2.418,2.418,0,0,0-.406-1.4"/><path class="b" d="M1140.131,1602.759a2.676,2.676,0,0,0-.9-.83l0,0h0a5.06,5.06,0,0,0-1.9-.579c-.8-.124-4.716-.583-5.775-.677l-.6-.051.009,14.352.495.05c1.913.191,3.826.414,5.725.672a6.979,6.979,0,0,0,.9.064,3.731,3.731,0,0,0,1.021-.129,1.942,1.942,0,0,0,1-.625,2.12,2.12,0,0,0,.436-1.371v-9.456a2.528,2.528,0,0,0-.4-1.417m-3.312,10.268a1.085,1.085,0,0,1-.527.1,4.187,4.187,0,0,1-.454-.031l-1.3-.161v-9.525l1.165.141a2.228,2.228,0,0,1,.951.3.631.631,0,0,1,.3.6c0,1,0,8.034,0,8.252-.014.263-.056.263-.134.33"/><path class="b" d="M1096.022,1614.453c-.005-1.616-.005-3.222-.005-4.833a1.519,1.519,0,0,0-.7-1.271v0c-.058-.038-.114-.074-.173-.107a1.927,1.927,0,0,0,.848-1.486v-3.648a2.147,2.147,0,0,0-.438-1.382,2.016,2.016,0,0,0-.989-.655,3.648,3.648,0,0,0-1.156-.165,6.461,6.461,0,0,0-.781.051c-1.9.221-3.806.467-5.7.746l-.469.072v14.373l.631-.094q1.24-.187,2.485-.352l.478-.062v-5.526l1.253-.162c.023,0,.046-.005.065-.007l.064-.006c.12-.011.226-.017.322-.017a1.014,1.014,0,0,1,.559.109c.08.052.1.134.108.341v4.966l.61-.067c.833-.092,1.666-.183,2.5-.268l.5-.05Zm-3.63-7.72v.036a.519.519,0,0,1-.216.406l-.006.007a1.932,1.932,0,0,1-1.041.373c-.361.045-.721.093-1.08.139v-4c.4-.052.809-.1,1.213-.152a4.382,4.382,0,0,1,.537-.041,1.046,1.046,0,0,1,.547.1c.032.033.016-.019.041.161,0,.013,0,.026,0,.035v2.343c0,.323,0,.524,0,.6"/><path class="b" d="M1106.022,1611.2v-1.855l-.585.037-2.189.14-.827,2.511-.964.062v-11.937l-.589.04c-.843.057-1.686.123-2.526.191l-.5.042v14.349l.595-.05q3.517-.289,7.064-.447l.525-.024v-.525c0-.432,0-.871,0-1.313V1611.2Z"/><path class="b" d="M1116.933,1599.8c-.7-.022-2.65-.037-4.14-.037-.778,0-1.42.005-1.707.013a4.9,4.9,0,0,0-1.924.358,2.235,2.235,0,0,0-1.378,2.15c0,.942.008,9.991.008,11.342v.564l.568-.015c.831-.024,1.67-.043,2.5-.052l.542-.006V1608.8q1.062-.012,2.126-.011h.3v5.324l.546,0q1.268.009,2.53.034l.563.014v-14.347Zm-3.107,6.6h-.64c-.6,0-1.189,0-1.784.008v-3.7l0-.037a.365.365,0,0,1,.16-.253,1.786,1.786,0,0,1,1.053-.244l.875,0h.333v4.23Z"/><path class="b" d="M1151.248,1604.8v0a2.807,2.807,0,0,0-.843-.869,5.477,5.477,0,0,0-1.917-.713c-.966-.2-1.939-.382-2.913-.564a6.036,6.036,0,0,0-1.078-.109,3.247,3.247,0,0,0-.851.1,1.883,1.883,0,0,0-.99.6,2.1,2.1,0,0,0-.436,1.368v9.463a2.512,2.512,0,0,0,1.238,2.251,5.568,5.568,0,0,0,1.92.655c.966.179,1.933.364,2.892.563a6.351,6.351,0,0,0,1.2.134,3.273,3.273,0,0,0,.695-.071,1.857,1.857,0,0,0,1.016-.587,2.057,2.057,0,0,0,.431-1.357v-9.458a2.722,2.722,0,0,0-.362-1.412m-3.171,10.073c0,.007,0,.023,0,.045,0,0,0,.014-.008.024h0a.49.49,0,0,1-.221.037,2.08,2.08,0,0,1-.311-.032c-.222-.042-.744-.142-1.158-.219a.746.746,0,0,1-.539-.318.417.417,0,0,1-.055-.181v-8.966l.013-.009a.481.481,0,0,1,.23-.042,1.526,1.526,0,0,1,.285.032c.348.065.688.131,1.023.2a1.162,1.162,0,0,1,.584.26.432.432,0,0,1,.161.283v8.89Z"/><path class="c" d="M1091.766,1682.791l1.8-.89,1.493,1.336-.29-1.981,1.729-1.009-1.975-.34-.427-1.952-.929,1.77-1.994-.2,1.4,1.43Z"/><path class="b" d="M1152.251,1671.63l5.056-2.207.247-.108-.256-.083s-5.3-1.743-6.435-2.114c-.172-1.2-1.009-6.958-1.009-6.958l-.041-.279-1.926,3.134s-1.1,1.779-1.7,2.748l-6.73-1.714-.287-.072.181.236c.006,0,2.229,2.866,3.579,4.61a90.372,90.372,0,0,0-19.157-1.867q-3.585,0-7.475.223a102.48,102.48,0,0,0-29.084,5.805l1.071-3.19-.191.06c-14.675,4.586-30.724,18.341-37.818,31.945l.159.121c10.03-9.409,23.606-16.921,35.776-19.656l-3.2,7.451.247-.121c5.663-2.732,13.1-3.941,20.6-3.941a64.992,64.992,0,0,1,21.407,3.446l-2.294,5a52.011,52.011,0,0,0-19.9-4.19,32,32,0,0,0-3.35.165l-.017.2c7.736,2.184,15.744,4.651,22.091,9.739-.038.54-.057,1.08-.057,1.617,0,13.393,11.563,25.513,25.13,25.515.092,0,.183,0,.273,0,14.952-.175,26.033-13.886,26.034-28.177,0-10.526-6.024-21.376-20.922-27.34"/><path class="a" d="M1144.095,1696.158c-5.52,0-11.045-2.024-16.592-4.062a22.348,22.348,0,0,0-2.207,9.631,22.664,22.664,0,0,0,.636,5.3q.687.015,1.379.016a62.839,62.839,0,0,0,31.261-8.421,41.6,41.6,0,0,0-3.732-5.58,19.529,19.529,0,0,1-10.745,3.12"/><path class="a" d="M1126.925,1709.118h-.361c3.35,8.663,11.031,14.405,20.4,14.534,3-7.385,6.325-15.458,13.932-19.23a38.477,38.477,0,0,0-1.423-3.9,64.875,64.875,0,0,1-32.548,8.6"/><path class="a" d="M1150.078,1681.931a33.913,33.913,0,0,0-5.652-1.7c-.931.128-2.194.252-3.217.455a34.8,34.8,0,0,1,14.04,9.671,20.359,20.359,0,0,0,5.37-6.011c-3.851-3.744-11.1-8.335-29.192-9.758,7.638,1.819,14.659,4.267,18.745,7.165Z"/><path class="a" d="M1099.364,1679.421c1.121-.026,2.333-.041,3.613-.041,12.851.006,32.684,1.516,40.375,10.647l-.129.157c-2.661-1.482-7.985-3.939-11.3-3.935-.107,0-.211,0-.314.008a29.022,29.022,0,0,0-3.054,4.1c5.141,1.9,10.346,3.775,15.5,3.775a18.033,18.033,0,0,0,9.647-2.685c-8.912-9.712-24-13.95-38.23-13.949a66.053,66.053,0,0,0-16.107,1.925"/><path class="a" d="M1160.174,1697.6a32.4,32.4,0,0,0,6.584-5.73,25.337,25.337,0,0,0-4.871-6.3,22.534,22.534,0,0,1-5.434,6.372,50.7,50.7,0,0,1,3.721,5.657"/><path class="a" d="M1149.144,1723.563a22.542,22.542,0,0,0,12.156-5.056,23.707,23.707,0,0,0,.766-6.139,32.671,32.671,0,0,0-.566-5.9c-6.808,3.273-9.637,10.457-12.356,17.092"/><path class="a" d="M1164.077,1713.7q0,1.023-.05,2.052a24.3,24.3,0,0,0,4.856-11.275,24.92,24.92,0,0,0-5.673,1.1,37.536,37.536,0,0,1,.867,8.123"/><path class="a" d="M1161.113,1699.5c.6,1.366,1.127,2.753,1.588,4.173a24.963,24.963,0,0,1,6.388-1.182c0-.158,0-.313,0-.469a23.008,23.008,0,0,0-1.386-7.991,40.771,40.771,0,0,1-6.592,5.469"/><path class="a" d="M1169.088,1702.488a24.97,24.97,0,0,0-6.387,1.182c-.46-1.42-.992-2.807-1.589-4.172a40.8,40.8,0,0,0,6.592-5.468,22.907,22.907,0,0,1,1.389,7.99c0,.155,0,.31-.005.468"/><path class="a" d="M1169.088,1702.488a24.97,24.97,0,0,0-6.387,1.182c-.46-1.42-.992-2.807-1.589-4.172a40.8,40.8,0,0,0,6.592-5.468,22.907,22.907,0,0,1,1.389,7.99c0,.155,0,.31-.005.468"/><path class="a" d="M1161.887,1685.572a25.337,25.337,0,0,1,4.871,6.3,32.466,32.466,0,0,1-6.584,5.731,50.72,50.72,0,0,0-3.721-5.659,22.536,22.536,0,0,0,5.434-6.371"/><path class="a" d="M1161.887,1685.572a25.337,25.337,0,0,1,4.871,6.3,32.466,32.466,0,0,1-6.584,5.731,50.72,50.72,0,0,0-3.721-5.659,22.536,22.536,0,0,0,5.434-6.371"/><path class="a" d="M1131.426,1674.586c18.09,1.422,25.342,6.012,29.193,9.757a20.4,20.4,0,0,1-5.369,6.013,34.784,34.784,0,0,0-14.041-9.674c1.021-.2,2.286-.327,3.217-.454a34.012,34.012,0,0,1,5.652,1.7l.095-.178c-4.087-2.9-11.108-5.347-18.747-7.165"/><path class="a" d="M1131.426,1674.586c18.09,1.422,25.342,6.012,29.193,9.757a20.4,20.4,0,0,1-5.369,6.013,34.784,34.784,0,0,0-14.041-9.674c1.021-.2,2.286-.327,3.217-.454a34.012,34.012,0,0,1,5.652,1.7l.095-.178c-4.087-2.9-11.108-5.347-18.747-7.165"/><path class="a" d="M1127.309,1707.039q-.688,0-1.379-.016a22.671,22.671,0,0,1-.635-5.3,22.39,22.39,0,0,1,2.206-9.632c5.548,2.04,11.073,4.064,16.592,4.064a19.527,19.527,0,0,0,10.745-3.119,41.416,41.416,0,0,1,3.733,5.579,62.831,62.831,0,0,1-31.262,8.421"/><path class="a" d="M1127.309,1707.039q-.688,0-1.379-.016a22.671,22.671,0,0,1-.635-5.3,22.39,22.39,0,0,1,2.206-9.632c5.548,2.04,11.073,4.064,16.592,4.064a19.527,19.527,0,0,0,10.745-3.119,41.416,41.416,0,0,1,3.733,5.579,62.831,62.831,0,0,1-31.262,8.421"/><path class="a" d="M1146.964,1723.652c-9.37-.13-17.05-5.87-20.4-14.535.121,0,.241,0,.362,0a64.9,64.9,0,0,0,32.549-8.6,38.774,38.774,0,0,1,1.424,3.9c-7.608,3.772-10.936,11.845-13.934,19.23"/><path class="a" d="M1146.964,1723.652c-9.37-.13-17.05-5.87-20.4-14.535.121,0,.241,0,.362,0a64.9,64.9,0,0,0,32.549-8.6,38.774,38.774,0,0,1,1.424,3.9c-7.608,3.772-10.936,11.845-13.934,19.23"/><path class="a" d="M1164.027,1715.752q.05-1.029.05-2.052a37.536,37.536,0,0,0-.867-8.123,25.015,25.015,0,0,1,5.673-1.1,24.3,24.3,0,0,1-4.856,11.276"/><path class="a" d="M1164.027,1715.752q.05-1.029.05-2.052a37.536,37.536,0,0,0-.867-8.123,25.015,25.015,0,0,1,5.673-1.1,24.3,24.3,0,0,1-4.856,11.276"/><path class="a" d="M1153.7,1691.447a18.055,18.055,0,0,1-9.648,2.683c-5.156,0-10.362-1.881-15.5-3.776a28.938,28.938,0,0,1,3.054-4.1c.1-.007.208-.008.314-.008,3.319,0,8.642,2.453,11.3,3.935l.128-.157c-7.69-9.131-27.523-10.641-40.374-10.647-1.281,0-2.492.016-3.614.041a66.02,66.02,0,0,1,16.108-1.924c14.232,0,29.318,4.236,38.23,13.95"/><path class="a" d="M1153.7,1691.447a18.055,18.055,0,0,1-9.648,2.683c-5.156,0-10.362-1.881-15.5-3.776a28.938,28.938,0,0,1,3.054-4.1c.1-.007.208-.008.314-.008,3.319,0,8.642,2.453,11.3,3.935l.128-.157c-7.69-9.131-27.523-10.641-40.374-10.647-1.281,0-2.492.016-3.614.041a66.02,66.02,0,0,1,16.108-1.924c14.232,0,29.318,4.236,38.23,13.95"/><path class="a" d="M1161.3,1718.507a22.538,22.538,0,0,1-12.156,5.056c2.718-6.635,5.547-13.82,12.356-17.092a32.671,32.671,0,0,1,.567,5.9,23.666,23.666,0,0,1-.767,6.139"/><path class="a" d="M1161.3,1718.507a22.538,22.538,0,0,1-12.156,5.056c2.718-6.635,5.547-13.82,12.356-17.092a32.671,32.671,0,0,1,.567,5.9,23.666,23.666,0,0,1-.767,6.139"/><path class="a" d="M1143.431,1673.563l3.931-1.376,2.988,3.388-.349-4.424,3.809-1.658-4.145-1.362-.643-4.413-2.213,3.583-4.2-1.072,2.782,3.577Z"/><path class="c" d="M1122.473,1676.748l2.733-1.346,2.276,2.024-.445-3.011,2.632-1.529-3-.514-.646-2.967-1.41,2.7-3.031-.308,2.127,2.176Z"/><path class="c" d="M1091.757,1682.791l1.8-.888,1.492,1.334-.289-1.979,1.727-1.01-1.975-.339-.426-1.953-.928,1.77-1.994-.2,1.4,1.432Z"/><path class="d" d="M1159.764,1709.957l0-.366-2.535,4.248.727-3.741-.179-.084a29.505,29.505,0,0,0-6.291,11.736l-.054.191.186-.066a23.037,23.037,0,0,0,7.207-3.819l.019-.014.01-.022c.62-1.348.915-4.074.917-7.416,0-.213,0-.43,0-.647"/><path class="d" d="M1151.286,1700.122a68.464,68.464,0,0,1-13.133,1.308q-.977,0-1.923-.032l9.31-2.754-.025-.2c-6.146-.289-10.892-.405-16.9-3.22l-.088-.043-.046.085a13.03,13.03,0,0,0-1.4,6.125,13.546,13.546,0,0,0,.516,3.8l.022.07.073,0s.215.006.611.006c2.684,0,13.714-.3,23.047-4.952Z"/><path class="d" d="M1153.338,1707.672c-4.693,3.488-8.226,6.31-15.149,7.611,6.411-3.331,10.71-5.623,14.751-9.715l-.124-.159c-7.166,4.172-16.5,5.959-23.088,6.208l-.176.006.094.15c5.422,8.581,12.282,9.348,14.514,9.348h.012a7.166,7.166,0,0,0,.725-.03l.05-.006.026-.042c2.906-4.6,4.758-9.029,8.5-13.221Z"/><path class="e" d="M1165.455,1691.3c-.618.663-1.211,1.249-1.818,1.8a27.589,27.589,0,0,0-2.365-4.14c.474-.573.932-1.162,1.359-1.78a18.751,18.751,0,0,1,2.824,4.122m2.47,9.1c-.722.1-1.391.2-2.055.343a27.289,27.289,0,0,0-.634-3.178c.718-.6,1.405-1.217,2.1-1.875a18.7,18.7,0,0,1,.584,4.71m-2.313,9.723-.02-.36a27.456,27.456,0,0,0,.52-4.465c.392-.106.792-.185,1.2-.262a26.3,26.3,0,0,1-1.7,5.087m-17.078-31.04c-.343-.179-.689-.348-1.047-.509a35.046,35.046,0,0,1,11.369,5.409c-.322.478-.679.937-1.049,1.384a27.021,27.021,0,0,0-9.273-6.284"/></g><rect class="f" width="200" height="200"/></svg>