<svg xmlns="http://www.w3.org/2000/svg" width="200" height="200" viewBox="0 0 200 200"><defs><style>.a{fill:#005a9c;}.b{fill:none;mix-blend-mode:multiply;isolation:isolate;}</style></defs><g transform="translate(-443.514 -1196.787)"><path class="a" d="M575.533,1304.513v15.325l-6.789.008c-.313-1.33-14.735-61.609-14.735-61.609H532.391s-14.4,60.28-14.707,61.61h-5.127V1236.3h11.307v-14.507l-36.771.1V1236.3h10.652v84.263H486.513V1335.2h27.5c-.456,1.9-4.709,19.662-4.984,20.859H497.85v15.4l38.176-.076v-15.324H525.278c.408-1.889,4.492-19.635,4.756-20.859h26.34c.294,1.224,4.357,18.969,4.775,20.859H550.393v15.324l38.176.076-.01-15.4H577.394c-.274-1.2-4.529-18.96-4.974-20.859h18.485v-30.686Zm-41.992,15.333c.454-1.917,8.563-37.285,9.664-42.155,1.12,4.87,9.218,40.237,9.656,42.156h-19.32Zm65.424,46.722c0-1.044-.617-1.225-1.519-1.225h-1.908v3.94h.817v-1.566h.684l.911,1.566h.9l-.95-1.567a1.036,1.036,0,0,0,1.063-1.149Zm-1.509.446h-1.1v-.949h.911c.39,0,.883,0,.883.437C598.149,1366.91,597.9,1367.014,597.456,1367.014Z"/><path class="a" d="M597.114,1363.558a3.77,3.77,0,1,0,3.751,3.789,3.743,3.743,0,0,0-3.751-3.789Zm0,6.742a2.963,2.963,0,1,1,2.934-2.953A2.9,2.9,0,0,1,597.114,1370.3Z"/></g><rect class="b" width="200" height="200"/></svg>