<svg xmlns="http://www.w3.org/2000/svg" width="200" height="200" viewBox="0 0 200 200"><defs><style>.a{fill:#cd1141;}.b{fill:#070b0c;}.c{fill:#fff;}.d{fill:#a0a0a3;}.e{fill:none;mix-blend-mode:multiply;isolation:isolate;}</style></defs><g transform="translate(-1012.955 -1871.5)"><path class="a" d="M1191.6,1971.324a78.825,78.825,0,1,1-78.825-78.825,78.824,78.824,0,0,1,78.825,78.825" transform="translate(0 0)"/><path class="b" d="M1112.765,2046.091a74.765,74.765,0,0,1-.813-149.526c.281,0,.564-.008.844-.008a74.767,74.767,0,0,1,.807,149.53c-.278,0-.561,0-.838,0" transform="translate(0)"/><g transform="translate(1048.861 1902.865)"><path class="c" d="M1119.3,1919.753l-2.565,2.591h-7.217l-2.592-2.591v-14.3l2.592-2.593h7.191l2.591,2.593Zm-7.5-12.657-.775.776v9.433l.775.776h2.631l.776-.776v-9.433l-.776-.776Z" transform="translate(-1048.097 -1902.865)"/><path class="c" d="M1161.085,1953.468l-3.442-1.192-3.115-6.51,1.22-3.455,12.894-6.17,3.455,1.219,3.1,6.482-1.221,3.461Zm8.182-12.227-1.036-.363-8.509,4.07-.366,1.036,1.135,2.37,1.035.363,8.512-4.069.364-1.036Z" transform="translate(-1047.363 -1902.443)"/><path class="c" d="M1081.057,1930.557l.073,3.645-5.028,5.175-3.668.05-10.249-9.963-.052-3.665,5.013-5.153,3.663-.052Zm-14.3-3.444.015,1.094,6.766,6.578,1.095-.015,1.835-1.887-.015-1.1-6.765-6.575-1.1.016Z" transform="translate(-1048.861 -1902.865)"/><path class="c" d="M1145.834,1911.114l-7.59,17.9-3.112-1.329-.823-12.7-4.434,10.473-3.4-1.432,7.6-17.9,4.2,1.782.053,11.147,4-9.436Z" transform="translate(-1047.774 -1902.865)"/><path class="c" d="M1095.786,1915.195l-.865,3.027,5.428,5.358-3.782,1.645-5.038-4.833-1.839.815,2.563,5.9-3.466,1.506-7.746-17.87,8.331-3.624,3.52,1.427Zm-7.941,1.773,3.071-1.337c.027-.011.405-1.014.405-1.014l-1.059-2.433-1.02-.4-3.071,1.333Z" transform="translate(-1048.41 -1902.865)"/><path class="c" d="M1161.064,1928.545l-2.531-2.486-10.721,10.9-2.907-2.857,10.721-10.905-2.533-2.49,2.938-2.988,7.973,7.834Z" transform="translate(-1047.363 -1902.865)"/><path class="c" d="M1057.248,1939.648l-1.449,3.237,13.959,6.248-1.667,3.72-13.958-6.243-1.448,3.237-3.824-1.711,4.567-10.2Z" transform="translate(-1048.861 -1902.429)"/><path class="c" d="M1163.935,1989.332l-1.924,3.658-1.349-.708-.379.716-1.218,2.314.335,1.036,1.911,1.01-.242-.133,1.046-.313,2.287-4.351,3.59-1.078,5.845,3.073,1.088,3.5-3.355,6.389s-3.529,1.077-3.552,1.065l-2.925-1.54,1.905-3.627,1.48.779,1.586-3.022-.327-1.048-1.537-.814-1.064.323-2.243,4.27-3.623,1.1-.013.024-5.849-3.074-1.142-3.566,3.356-6.389,3.559-1.025Z" transform="translate(-1047.363 -1901.784)"/><path class="c" d="M1063.911,2002.735l-3.076-.651-4.965,5.788-1.9-3.656,4.465-5.367-.939-1.776-5.7,2.967-1.747-3.35,17.288-8.974,4.195,8.057-1.179,3.611Zm-2.321-7.8,1.547,2.97c.014.026,1.044.332,1.044.332l2.352-1.224.33-1.044-1.548-2.973Z" transform="translate(-1048.861 -1901.762)"/><path class="c" d="M1089.4,2026.261l-2.807,6.719-3.382-1.405,7.476-17.986,8.226,3.419,1.366,3.528-2.723,6.551-2.718,1.444Zm1.446-3.481,2.751,1.142c.023.011,1-.418,1-.418l1.017-2.451-.407-1.009-2.751-1.142Z" transform="translate(-1048.39 -1901.367)"/><path class="c" d="M1118.92,2022.91l-3.548.042.171,15.29-4.078.044-.171-15.289-3.546.036-.047-4.187,11.175-.124Z" transform="translate(-1048.095 -1901.367)"/><path class="c" d="M1141.541,2029.273l-1.474,3.333-6.747,2.559-3.344-1.505L1124.9,2020.3l1.505-3.343,6.719-2.552,3.343,1.5Zm-11.5-9.175-.448,1,3.348,8.823,1,.449,2.461-.935.449-1-3.346-8.821-1-.452Z" transform="translate(-1047.822 -1901.367)"/><path class="c" d="M1155.807,2010.429l.052,3.144,6.746,3.553-3.141,2.675-6.224-3.162-1.524,1.31,4.163,4.9-2.878,2.447-12.6-14.856,6.918-5.882,3.785.345Zm-7.084,4,2.552-2.17c.021-.018.091-1.088.091-1.088l-1.718-2.022-1.09-.088-2.552,2.167Z" transform="translate(-1047.363 -1901.367)"/><path class="c" d="M1073.324,2026.4l-3.044-2.8,1.412-2.871-4.167-3.834-2.749,1.643-3.045-2.8,17.6-10.55,3.044,2.8Zm.109-9.236,2.666-5.394-5.171,3.087Z" transform="translate(-1048.861 -1901.367)"/></g><g transform="translate(1071.807 1929.588)"><path class="d" d="M1127.2,2009.695c.065.08.111.181.153.179.218-.013.652-.081.652-.081l.436-.187,1.224-.477s3.059-1.457,3.068-1.466.539-.286.539-.286l.277-.122.329-.223.543-.338.646-.355.831-.542,1.443-1.016.706-.557,1.015-.736.925-.687.436-.32.609-.568.637-.631,1.02-1.093,1.191-1.145,1.376-1.586.753-1.01.265-.361.808-1,1.577-2.266.441-.742,1.062-2.087.6-1.138,1.023-2.071.553-1.26.6-1.93s.709-2.55,1.093-3.884a.457.457,0,0,0-.036-.428c-.218-.308-.379-.7-.584-1.041-.107-.182-.26-.361-.359-.512s-.369-.485-.472-.607a2.431,2.431,0,0,0-.384-.346,11.179,11.179,0,0,0-.9-.819,3.072,3.072,0,0,1-.369-.257,12.723,12.723,0,0,0-2.709-1.617c-.409-.177-.832-.328-1.257-.473a8.528,8.528,0,0,0-1.091-.271.578.578,0,0,0-.459.058c-.134.091-.14.3-.164.5-.056.53-.077,1.116-.122,1.647-.049.554-.088,1.106-.132,1.659-.041.5-.065,1-.13,1.5-.077.657-.168,1.315-.293,1.966-.231,1.218-.491,2.429-.745,3.644a5.316,5.316,0,0,1-.249.991,7.529,7.529,0,0,0-.486,1.592,22.519,22.519,0,0,1-1.039,3.33,13.5,13.5,0,0,1-1.144,2.607.865.865,0,0,0-.077.173c-.239.562-.466,1.127-.722,1.683-.161.36-.392.69-.545,1.051a8.526,8.526,0,0,1-.714,1.29c-.426.655-.873,1.3-1.238,1.987a11.854,11.854,0,0,1-.868,1.378c-.083.113-.155.231-.233.345-.255.372-.491.758-.768,1.108-.535.681-1.088,1.35-1.65,2.007-.354.412-.743.792-1.115,1.187-.337.355-.674.714-1.015,1.071a2.969,2.969,0,0,1-.243.2c-.2.174-.419.335-.6.524a9.5,9.5,0,0,1-1.413,1.207,7.859,7.859,0,0,0-.652.467,9.225,9.225,0,0,1-1.849,1.182" transform="translate(-1071.037 -1928.836)"/><path class="d" d="M1154.538,1976.964c.021,0,.03-.039.036-.089.013-.107.029-.291.029-.291l.3-2.66.178-2.495.008-2.472-.006-.387-.293-2.8s-.342-2.526-.6-3.824a1.2,1.2,0,0,0-.755-.879,2.378,2.378,0,0,0-.394-.166c-.275-.087-.579-.219-.857-.292-.631-.157-1.231-.365-1.872-.475-.755-.129-1.524-.21-2.289-.277-.626-.058-1.257-.08-1.888-.088-.5-.008-.8-.016-1.308-.016-.27,0-.556.011-.677.173s-.035.47.009.769c.094.613.2.919.3,1.526a42.441,42.441,0,0,1,.693,5.431c.031.82.08,1.643.114,2.463.011.234.008.387.013.623a.838.838,0,0,0,.1.4c.073.114.188.133.322.175.156.049.307.064.463.1s.448.1.648.162c.73.236,1.5.5,2.212.783a15.793,15.793,0,0,1,1.453.743,1.367,1.367,0,0,1,.162.107c.279.21.563.42.843.628a8.617,8.617,0,0,1,1.85,1.625,2.556,2.556,0,0,0,.331.351c.2.176.535.807.776,1.093a.156.156,0,0,0,.1.066" transform="translate(-1071.037 -1928.836)"/><path class="d" d="M1135.78,1947.062c.25-.019.476-.023.668-.047.143-.018.278-.023.343-.171s-.055-.31-.086-.379c-.055-.122-.535-.971-.535-.971l-.467-.729-1.973-2.848-.41-.482-.382-.517-.647-.714-1.6-1.752-.684-.675-2.475-2.29-2.032-1.566-.729-.386-2.381-1.455-1.667-.9-.324-.133-1.355-.5-2.015-.752-.158-.037-.646-.161-.174-.028-.566-.146-1.2-.221-.572-.021-1.069-.2-1.28-.082-.446-.055-.8-.013-1.342.039-1.327.148-1.025.024-.909.1-.931.187-.7.218-1.147.221-.258-.005-1.069.382-.631.176-.386.234-.932.254-.449.26-.563.214-1.384.58-1.76.686-.579.277-1.233.664-1.069.7-1,.516-.364.211-1.1.581-.176.115-1.243.976-1.031.7-.2.132-1.167.922-.426.353a6.159,6.159,0,0,0-.644.613l.442-.131s.8-.3.818-.29.155.01.155.01l1.158-.467h.169l1.266-.5s.663-.218.663-.2.675-.249.675-.249l.942-.335,2.276-.875.208-.01,1.168-.4.924-.382.129.1,1.789.042,1.14.088.036.024,2.3.179.023-.018,3.177.166.016.077,1.127.967.082,0,1.148,1.109.106-.052,1.581.047.078-.058,3.969.232.024.091,1.768,1.025.076-.013,3.124,1.521.023.166,1.771-.69,2.6.875.44.718.951.063.917,1.035.1.006.737.841.01.055h.1l2.049.467.755,1.163,1.9.69s2.031.517,3.07.649a15.9,15.9,0,0,0,2.741.022" transform="translate(-1071.037 -1928.836)"/><path class="d" d="M1153.445,1959.078c-.059-.3-.275-.916-.275-.916l-.117-.327-.106-.4-.338-1-.308-.875-.974-2.167-.441-1.065-.556-1.231-.664-1.09-.156-.314-.443-.894-.413-.671-.173-.232-2.836-3.841-.413-.488c-.066-.084-.089-.149-.177-.149-.007,0-.013,0-.021,0a20.54,20.54,0,0,1-1.238,1.835c-.363.4-1.093,1.07-1.093,1.07s-.616.506-.719.583-.574.39-.574.39l-.646.371s-.49.229-.571.257a.5.5,0,0,0-.22.13.237.237,0,0,0-.048.223,1.4,1.4,0,0,0,.084.244c.262.55.5,1.111.786,1.646.431.794.706,1.651,1.062,2.477.118.271.239.55.332.83.242.732.467,1.467.7,2.2.1.326.21.65.3.977s.168.659.256.992a.39.39,0,0,0,.424.313c.212,0,.428-.013.64-.02.761-.021,1.519-.048,2.28-.057.217-.006,1.737.134,1.737.134s.544.055.8.1c.579.106,1.153.235,1.729.355a6.931,6.931,0,0,1,1.43.472,5.3,5.3,0,0,0,.7.234.725.725,0,0,0,.212.028.172.172,0,0,0,.043-.129" transform="translate(-1071.037 -1928.836)"/><path class="d" d="M1143.522,1942.135a2.12,2.12,0,0,0-.224-.418l-.145-.258-.411-.472-.277-.4-.516-.509s-.114-.1-.173-.143c-.905-.737-2.713-2.2-2.716-2.2s-.5-.4-.5-.4l-.938-.82-4.7-2.819-3.707-1.758s-1.968-.771-1.97-.765-.714-.257-.722-.252-2.422-.834-2.422-.834l-1.71-.434-1.659-.358-.259-.023-.149.145.066.072s.168.084.247.117c.514.2,1.035.393,1.546.6.338.132.656.314,1,.415a2.8,2.8,0,0,1,.676.278c.789.457,1.574.913,2.354,1.381a7.588,7.588,0,0,1,1.3.981,5.1,5.1,0,0,0,.989.75,3.154,3.154,0,0,1,.449.364c.08.065.161.135.244.2a13.235,13.235,0,0,1,1.368,1.15c.436.47.9.916,1.355,1.363a12.967,12.967,0,0,1,1.251,1.329,11.639,11.639,0,0,0,.976,1.148c.682.675,1.2,1.477,1.823,2.2a3.044,3.044,0,0,1,.19.3,16.909,16.909,0,0,0,1.241,1.869,6.1,6.1,0,0,1,.866,1.307,5.932,5.932,0,0,0,.512.81.487.487,0,0,0,.374.223,1.156,1.156,0,0,0,.265-.085l.332-.132s.439-.2.587-.263a3.032,3.032,0,0,0,.548-.329c.106-.1.547-.4.8-.628s.753-.821.753-.821l.361-.485.628-1.044a.84.84,0,0,0,.1-.346" transform="translate(-1071.037 -1928.836)"/><path class="d" d="M1141.562,1957.785c-.254-.784-.455-1.524-.732-2.3a19.825,19.825,0,0,0-.7-1.89,10.735,10.735,0,0,1-.406-1.141c-.073-.193-.17-.373-.234-.564a21.335,21.335,0,0,0-1.286-2.712c-.023-.05-.046-.1-.09-.177a.467.467,0,0,0-.2-.231c-.117-.068-.215-.024-.426.005-.405.047-.909.1-1.119.1-.187,0-.981.06-1.609.111l-.148-.044h-.769l-2.027-.262c-.74-.109-2.44-.537-2.44-.537l-1.243-.426-1.535-.527-.119.065-2.386-.189-.077.044-1.342-1.026-.155-.008-.839-.755-.031-.151-.932-.143-.088.04-.767-.263-.085-.08-1.755.127-1.591-.647-5.516.291-.088-.056-1.041.078-.11.083-2.714.2-.076-.068-3.872,2.235-.045.166-.179.159-.088-.065-1.944-.182-.106.047-3.443.02-.073-.035-.98-.032-.3-.174-3.608,2.791-.013.067-1.265,1-1.415-.669-.082.041-.524-.158s-2.6.662-2.573.68-2.43-.385-2.43-.385l-.169-.137-.459.473-.971.464-.026.083-1.939,1.48-2.755,1.985-3.1,2.306-1.4,1.015-.07.6-.587,1.361-.254,1.17-.39,2.368-.228,1.022-.086,1.228-.337,2.557-.145,5.6.151.329.1,1.54s.023.268.085.279l.005,0,6.861-7.094,2.25-.906,1.893-.1,1.143-1.311.109-.247.139.065,3.087-.347.135-.1h1.152l.174.07.369-.491,1.383-.854,1.483-1.014,4.158.054.029.091,1.63.148,1.272-.252,2.332-2.377.044,0,1.853-1.763,2.783-.356.109-.075.122.119,1.446.683.1-.1,1.282-.153.063-.072,1.2-.2.11-.066,1.308,1.115.072-.085,2.682-.05.225-.168,2.158.1.116.046.333-.083.057-.1.859-.387.1.011.991-.45.084-.085,1.059-.4.078-.122,2.936-1.125.024-.043.516-.162.114-.114.148.159.851.417.263.008.955.535.063-.091.293-.137.031.013.476-.223.022-.034.685-.163,1.758.456.371-.082.321.212,1.29.194,1.262.489.737-.054c.011,0,.237.16.237.16l.185-.109s2.483-.308,3.732-.409c.81-.065,1.614-.152,2.425-.232.456-.044.914-.086,1.371-.14.244-.031.37-.124.281-.408" transform="translate(-1071.037 -1928.836)"/><path class="d" d="M1143.376,1970.529c0-.172-.031-.284-.042-.453-.028-.48-.049-.957-.074-1.441-.008-.158-.03-.316-.039-.477-.039-.6-.052-1.2-.112-1.791-.077-.756-.186-1.506-.3-2.253-.088-.582-.2-1.161-.3-1.737-.112-.607-.211-1.161-.34-1.762s-.262-.693-.89-.621c-.052.01-.107.018-.159.029-.231.047-.555.078-.789.109-1.218.158-2.367.225-3.587.368l-3.5,1.218-5.057-.133-.548-.179,0,.089-1.49,1.1-.208.019-1.178,1.095-.065.151-3.027.405-2.762,2.131-.287-.008-1.473.867-.579.065-.578.488-.151-.119-2.816-.19-.489.55.01.089-2.434,2.657-.032.154-.093.021-3.1,3.543-.851.008-.07.088-2.547.442-.2-.011a.835.835,0,0,1-.064.125l-4.2,2.331-1.884-.223-.4.142-1.88-.113-1.861,2.011-1.113.226-.629-.028-.659.278-.394-.042.02.078-2.315,1.793-.22.045-3.614,2.808.031.169-2.235,5.41.091.228-3.688.334-1.212,1.044-.114.393,1.64,2.278,1.214,1.86,1.047,1.334,1.7,1.853s.01.13.047.137.226.024.233.034,1.021.342,1.028.348,1.255.392,1.255.392.012.062.028.062.125-.019.125-.019l2.085.808.157-.007.115.137s.176,0,.187,0,.491.325.491.325l.871-.477.042,0,.392-.252,3.162.8,2.317-1.186,5.151-.511,2.11-3.4c.335-.335.935-.943.935-.943l.08-.008.74-.68a.286.286,0,0,0,0-.093l1.327-1.207.619-.649s.138-.08.156-.083.714-.74.714-.74l.574-.591.151-.034-.148-.525.6-2.177,1.152-.345.044-.044.346-.078.005-.19,1.547-2.513.145-.063.633-1.238,1.055-.594.14-.172.207.028s.614-.36.631-.355H1114l1.137-.5.093-.134,3.783-1.734.228-.024.042-.208.148-.111.389-1.321,1.2-.515,1.381-.169,1.257-.87,1.791.075.179.149.085-.112,2.5-1.118-.013-.322.6-1.148,1.228-.327.061-.078,1.686-.355.646-.765.083-.019s.39-.379.4-.387,1.158.159,1.158.159l.059.041.631.091.393.045s1.7-.8,2.411-1.068c.3-.117.6-.192.875-.293.392-.14.784-.277,1.182-.41.2-.065.392-.117.588-.174l.793-.145.921-.156.56-.034s.273-.033.374-.051a.65.65,0,0,0,.382-.124.431.431,0,0,0,.13-.325,2.749,2.749,0,0,0,.012-.312" transform="translate(-1071.037 -1928.836)"/><path class="d" d="M1143.337,1973.838a.7.7,0,0,0-.085-.475.436.436,0,0,0-.338-.132c-.088,0-.524.057-.524.057l-.732.111a2.381,2.381,0,0,0-.244.047c-.439.107-.878.195-1.308.316a10.886,10.886,0,0,0-1.431.468c-.483.215-1.022.384-1.505.616-.173.08-1.8.874-2.539,1.243l-.948,1.009-.035.218-.126-.054-.595.034-.027.046-1.934.641.024.214-.2.2,0,.125-.9,1.583-.122.009-.024.166s-.184.3-.386.642l-4.068,2.611-.089-.008-.615.516-.431,1.714-.4.382-1.586,5.871.213.661-2.352,1.127h-.378l-.449,2.045-.076.071-.581,1.856.034.1-.242,1.6-.085.111.077.146-2.256,3.585-.171.052-.554.867-.012.173s-1.926,2.721-1.929,2.713-2.035,1.2-2.035,1.2l.111.173c0,.018-.106.82-.106.82l.177.3-.293.09-1.467.87-.161-.033-2.16,1.277-.254.4a6.829,6.829,0,0,0,.844.128l1.4.111.953.05,1.109.018.513.02.836.021.834-.021,3.021-.364,1.8-.316,1.358-.368,1.474-.431,1.874-.742.138-.083.53-.3a22.62,22.62,0,0,0,2.2-1.316,38.6,38.6,0,0,0,3.416-2.77c.366-.347.727-.7,1.084-1.051.343-.337.68-.68,1.021-1.02a.658.658,0,0,0,.166-.194,2.312,2.312,0,0,1,.537-.673,3.394,3.394,0,0,0,.4-.459,5.8,5.8,0,0,1,.874-.932,5.8,5.8,0,0,0,.657-.782c.357-.506.691-1.03,1.031-1.546.452-.69.947-1.357,1.334-2.079.415-.772.825-1.547,1.261-2.308a17.848,17.848,0,0,0,1.037-1.991c.47-1.134.963-2.261,1.4-3.411a37.043,37.043,0,0,0,1.168-3.73c.252-.942.4-1.908.74-2.821a2.092,2.092,0,0,0,.085-.374c.13-.768.262-1.537.382-2.307.114-.731.218-1.46.322-2.189.073-.495.153-.994.2-1.493.056-.693.091-1.386.119-2.079,0-.078.01-.226.01-.226l.011-.354" transform="translate(-1071.037 -1928.836)"/></g></g><rect class="e" width="200" height="200"/></svg>