<svg xmlns="http://www.w3.org/2000/svg" width="200" height="200" viewBox="0 0 200 200"><defs><style>.a{fill:#125740;}.b{fill:#fff;}.c{fill:none;mix-blend-mode:multiply;isolation:isolate;}</style></defs><g transform="translate(-1339.869 -1490.926)"><path class="a" d="M1439.923,1606.123h-1.047l-.285.286a51.972,51.972,0,0,1,0,5.423l.285.285h1.047l.285-.285a25.774,25.774,0,0,0,0-5.423l-.285-.286Z" transform="translate(4.226 3.296)"/><path class="a" d="M1433.845,1606.123H1432.8l-.286.286a25.906,25.906,0,0,0,0,5.423l.286.285h1.046l.285-.285a51.375,51.375,0,0,1,0-5.423c-.191-.1-.285-.191-.285-.286Z" transform="translate(3.93 3.296)"/><path class="a" d="M1436.835,1606.123h-1.047l-.285.286v5.423l.285.285h1.047l.286-.285v-5.423l-.286-.286Z" transform="translate(4.079 3.296)"/><path class="a" d="M1450.607,1570.466a1.534,1.534,0,0,0,.857-.286,3.331,3.331,0,0,0,.571-.856l1.141-2.188a1.515,1.515,0,0,0,.286-.76c0-.38-.191-.571-.666-.571a1.081,1.081,0,0,0-.761.285,9.069,9.069,0,0,0-.666.857l-1.142,2.188a1.525,1.525,0,0,0-.285.762c0,.38.285.571.665.571Z" transform="translate(4.767 1.376)"/><path class="a" d="M1504.434,1588.74h-11.511a3.567,3.567,0,0,0,.476-1.712c0-.857-.951-1.427-2.664-1.427-2.093,0-3.14.856-3.14,1.807,0,.856.952,1.142,5.9,2.283s6.754,2.284,6.754,4.947a9.1,9.1,0,0,1-2.854,6.375c-2.378,2.378-5.994,3.9-14.746,3.9-10.465,0-13.509-1.713-13.509-5.327a6.44,6.44,0,0,1,.857-3.33h11.7a3.543,3.543,0,0,0-.476,1.9c0,.951.856,1.522,2.664,1.522,2,0,3.14-.76,3.14-2,0-1.141-1.047-1.427-6.28-2.758-4.947-1.237-6.374-2.189-6.374-4.852a8.675,8.675,0,0,1,2.758-5.8c2.569-2.569,6.184-3.9,14.747-3.9,9.514,0,13.034,1.522,13.034,5.137a5.533,5.533,0,0,1-.476,3.234Zm-47.283,14.842a36.443,36.443,0,0,0-4-2.474,25.859,25.859,0,0,0-8.086-2.664l6.183-11.7h-7.9l3.14-5.994h29.872l-3.14,5.994H1466.1l-8.944,16.84Zm-11.225,11.321c.1.1.191.19.191.285h1.045a1.315,1.315,0,0,1,.381-.285c.094-.571.19-1.142.285-1.618,1.047,0,2.093,0,3.14-.1,3.425-.1,6.754-.19,10.179-.476l.571.666h0c-.761,2.569-4,5.708-9.038,8.372a29.232,29.232,0,0,1-12.367,3.044h-.1a29.236,29.236,0,0,1-12.367-3.044c-5.042-2.664-8.276-5.708-9.038-8.372l.571-.666c3.425.191,6.755.38,10.18.476,1.141,0,2.378.1,3.52.1a4.823,4.823,0,0,0,.285,1.618,1.327,1.327,0,0,0,.38.285h1.047c.1-.1.191-.19.191-.285a16.638,16.638,0,0,1,0-5.327c-.1-.1-.191-.191-.191-.286h-1.047a1.311,1.311,0,0,1-.38.286c-.1.57-.191,1.046-.285,1.616-1.142,0-2.379,0-3.52.1-3.425.1-6.755.191-10.18.476l-.571-.76v-.191c.762-2.569,4-5.709,9.038-8.372a27.854,27.854,0,0,1,12.367-3.044h.1a28.927,28.927,0,0,1,12.367,3.044c5.042,2.663,8.277,5.8,9.038,8.372v.285l-.571.762c-3.425-.191-6.754-.38-10.179-.476-1.047,0-2.093-.1-3.14-.1a4.457,4.457,0,0,0-.285-1.618,1.334,1.334,0,0,0-.381-.285h-1.045c-.1.1-.191.191-.191.285a16.114,16.114,0,0,1,0,5.233Zm-27.4-1.618Zm-2.188-32.441h27.78l-3.14,5.9h-14.271l-1.617,2.855h14.365l-3.044,5.708h-14.27l-1.618,2.949h14.746l-.1.1a27.266,27.266,0,0,0-8.276,2.759,31.638,31.638,0,0,0-4.756,3.044h-18.267l12.463-23.308Zm-27.97,23.974c-9.514,0-13.414-2.283-13.414-6.564a12.06,12.06,0,0,1,1.807-6.089l1.522-2.854h12.273l-3.044,5.8a5.277,5.277,0,0,0-.666,2.092c0,.857.38,1.427,1.522,1.427,1.618,0,2.378-1.045,3.425-3.043l7.8-14.937h14.365l-6.565,12.464c-1.9,3.519-3.044,5.423-4.852,7.325-2.76,2.949-7.326,4.376-14.176,4.376Zm4.376-39.862h4.757l.856,3.71,1.9-3.71h4.186l-4.567,8.562h-4.567l-.856-4-2.093,4h-4.185l4.566-8.562Zm23.88,0-1.142,2.188h-5.233l-.665,1.046h4.852l-1.047,2.093h-4.852l-.571,1.047h5.423l-1.142,2.188h-10.465l4.567-8.562Zm5.9,0-1.047,4,2.949-4h4.852l-1.141,4,3.139-4h4.662l-7.706,8.562h-5.137l.761-3.33-2.854,3.33h-5.138l1.618-8.562Zm16.934,0h5.232l-.094,2.664,2.663-2.664h4.853l-6.85,5.9-1.427,2.664h-5.423l1.522-2.855-.476-5.708Zm22.452.476a1.9,1.9,0,0,1,1.236,1.807,5.726,5.726,0,0,1-.57,2.188,9.842,9.842,0,0,1-1.808,2.758c-1.142,1.142-3.044,1.618-5.8,1.618a9.506,9.506,0,0,1-4.282-.665,1.9,1.9,0,0,1-1.236-1.808,5.708,5.708,0,0,1,.571-2.187,9.844,9.844,0,0,1,1.807-2.759c1.142-1.142,3.044-1.618,5.8-1.618a10.046,10.046,0,0,1,4.282.666Zm12.178-.476a3.182,3.182,0,0,1,2.188.571,1.8,1.8,0,0,1,.476,1.236,3.175,3.175,0,0,1-.856,2.189,2.921,2.921,0,0,1-.951.666,8.124,8.124,0,0,1-1.333.38c.857.285,1.237.665,1.237,1.142a2.486,2.486,0,0,1-.285,1.046l-.666,1.333h-5.327l.856-1.713a1.343,1.343,0,0,0,.19-.571c0-.38-.19-.571-.665-.571h-.762l-1.522,2.76h-5.136l4.567-8.562h7.991Zm11.13,0-2.093,3.9,4.282-3.9h4.852l-4.756,4.186.571,4.376h-5.138l-.286-3.806-2,3.806h-5.327l4.567-8.562Zm39.957,21.215c-3.045-10.179-16.363-22.261-35.581-32.441-17.028-8.943-37.1-12.081-49.185-12.081h-.571c-12.178,0-32.346,3.139-49.28,12.081-19.313,10.084-32.536,22.167-35.676,32.441a23.057,23.057,0,0,0-.38,4.471h0a23.059,23.059,0,0,0,.38,4.472c3.044,10.179,16.363,22.261,35.581,32.441,17.125,9.037,37.293,12.177,49.47,12.081h.38c12.082,0,32.252-3.139,49.186-12.081,19.217-10.085,32.535-22.167,35.58-32.442a22.954,22.954,0,0,0,.381-4.471h0a23.1,23.1,0,0,0-.286-4.471Z" transform="translate(0.221 0.225)"/><g transform="translate(1349.87 1536.926)"><path class="a" d="M1465.843,1567.313l.189-.38a1.034,1.034,0,0,0,.1-.476c0-.286-.191-.381-.571-.381h-.76l-1.142,2h.951a1.572,1.572,0,0,0,1.237-.761Z" transform="translate(-1344.449 -1535.537)"/><path class="b" d="M1427.12,1601.428a28.1,28.1,0,0,1,8.276-2.758l.1-.191h-14.746l1.618-2.949h14.365l3.044-5.708h-14.366l1.618-2.855H1441.3l3.139-5.9h-27.875l-12.463,23.4h18.171a38.665,38.665,0,0,1,4.852-3.044Zm-8.372,12.082Zm-4.567-32.441h-14.365l-7.8,14.936c-1.047,2-1.9,3.044-3.425,3.044a1.331,1.331,0,0,1-1.522-1.427,4.863,4.863,0,0,1,.666-2.093l3.044-5.8h-12.273l-1.522,2.854a11.181,11.181,0,0,0-1.807,6.089c0,4.281,3.9,6.564,13.414,6.564,6.849,0,11.416-1.427,14.176-4.186,1.9-1.9,3.044-3.805,4.852-7.325l6.565-12.653Zm78.106-.571c-8.657,0-12.177,1.333-14.746,3.9a8.675,8.675,0,0,0-2.758,5.8c0,2.663,1.427,3.615,6.374,4.852,5.232,1.332,6.279,1.618,6.279,2.76,0,1.236-1.141,2-3.139,2-1.808,0-2.664-.571-2.664-1.522a4.675,4.675,0,0,1,.476-1.9h-11.7a7.854,7.854,0,0,0-.856,3.33c0,3.614,3.044,5.327,13.509,5.327,8.847,0,12.367-1.522,14.745-3.9a8.928,8.928,0,0,0,2.855-6.374c0-2.664-1.808-3.806-6.755-4.947s-5.9-1.522-5.9-2.284c0-.951,1.047-1.807,3.14-1.807,1.712,0,2.663.571,2.663,1.427a3.549,3.549,0,0,1-.476,1.712h11.511a8.011,8.011,0,0,0,.666-3.329c-.191-3.52-3.615-5.042-13.224-5.042Zm-47.853,34.63-.285.285H1443.1l-.285-.285a51.972,51.972,0,0,0,0-5.423l.285-.286h1.047l.285.286a25.774,25.774,0,0,1,0,5.423Zm-3.234,0-.286.285h-1.047l-.285-.285v-5.423l.285-.286h1.047l.286.286a51.441,51.441,0,0,1,0,5.423Zm-3.235,0-.285.285h-1.047l-.285-.285a25.774,25.774,0,0,1,0-5.423l.285-.286h1.047l.285.286a51.506,51.506,0,0,0,0,5.423Zm9.418-5.613a1.318,1.318,0,0,0,.381.286c.094.57.19,1.141.285,1.616,1.047,0,2.093,0,3.14.1,3.425.1,6.754.191,10.179.476l.571-.76v-.286c-.761-2.569-4-5.708-9.038-8.372a29.232,29.232,0,0,0-12.367-3.044h-.1a29.236,29.236,0,0,0-12.367,3.044c-5.042,2.664-8.276,5.8-9.038,8.372v.191l.571.76c3.425-.19,6.755-.38,10.18-.476,1.141,0,2.378-.1,3.52-.1a4.821,4.821,0,0,1,.285-1.616,1.325,1.325,0,0,1,.38-.286h1.047c.1.1.191.191.191.286a16.637,16.637,0,0,0,0,5.327c-.1.1-.191.191-.191.285h-1.047a1.331,1.331,0,0,0-.38-.285c-.1-.571-.191-1.047-.285-1.618-1.142,0-2.379,0-3.52-.1-3.425-.094-6.755-.19-10.18-.476l-.571.666c.762,2.569,4,5.709,9.038,8.372a27.854,27.854,0,0,0,12.367,3.045h.1a28.911,28.911,0,0,0,12.367-3.045c5.042-2.663,8.277-5.8,9.038-8.372h0l-.571-.666c-3.425.191-6.754.381-10.179.476-1.047,0-2.093.1-3.14.1a4.456,4.456,0,0,1-.285,1.618,1.3,1.3,0,0,1-.381.285h-1.045c-.1-.094-.191-.19-.191-.285a16.708,16.708,0,0,0,0-5.327c.1-.1.191-.191.191-.286a3.552,3.552,0,0,0,1.045.1Zm78.392-18.647a22.973,22.973,0,0,1-.38,4.472c-3.045,10.179-16.363,22.261-35.581,32.441-17.028,8.943-37.1,12.081-49.185,12.081h-.38c-12.083,0-32.346-3.139-49.471-12.081-19.218-10.085-32.536-22.167-35.581-32.442a23.04,23.04,0,0,1-.38-4.471h0a23.057,23.057,0,0,1,.38-4.471c3.044-10.274,16.268-22.357,35.581-32.441,17.029-8.943,37.1-12.081,49.184-12.081h.571c12.082,0,32.156,3.139,49.186,12.081,19.217,10.084,32.535,22.167,35.58,32.441a22.957,22.957,0,0,1,.476,4.471Zm4.377-5.517-.1-.286c-3.425-11.607-17.314-24.545-38.054-35.485-17.79-9.323-38.815-12.653-51.468-12.653h-.571c-12.652,0-33.677,3.33-51.468,12.653-20.834,10.94-34.629,23.879-38.053,35.485l-.1.286a32.241,32.241,0,0,0,0,11.035l.1.286c3.425,11.607,17.314,24.545,38.053,35.486,17.791,9.323,38.816,12.652,51.468,12.652h.571c12.653,0,33.678-3.329,51.468-12.652,20.74-10.94,34.63-23.879,38.054-35.486l.1-.286a27.052,27.052,0,0,0,.476-5.518,35.047,35.047,0,0,0-.476-5.517Zm-135.473-15.507.856,4h4.471l4.567-8.562h-4.185l-1.9,3.71-.76-3.805h-4.757l-4.566,8.562h4.185l2.093-3.9Zm82.007,11.225h-29.872l-3.14,5.993h7.9l-6.184,11.7a32.007,32.007,0,0,1,8.087,2.663,40.792,40.792,0,0,1,4,2.474l8.943-16.743h7.135l3.14-6.089Zm4.185-7.23,2-3.806.286,3.806h5.138l-.571-4.377,4.756-4.185h-4.852l-4.282,3.9,2.093-3.9h-5.232l-4.567,8.562Zm-68.5,0,1.141-2.189h-5.423l.571-1.047h4.947l1.142-2.093h-4.947l.571-1.047h5.232l1.142-2.187h-10.18l-4.567,8.562Zm31.584,0,1.427-2.664,6.851-5.9h-4.853l-2.663,2.663.1-2.663h-5.233l.38,5.8-1.522,2.854h5.518Zm11.036-3.426,1.142-2.187a2.067,2.067,0,0,1,.666-.856,1.078,1.078,0,0,1,.761-.286c.476,0,.666.191.666.571a1.512,1.512,0,0,1-.286.76l-1.141,2.189a3.332,3.332,0,0,1-.571.856,1.163,1.163,0,0,1-.857.286c-.476,0-.665-.191-.665-.571a2.594,2.594,0,0,1,.285-.762Zm-4.756-1.046a5.324,5.324,0,0,0-.571,2.188,1.823,1.823,0,0,0,1.236,1.808,11.082,11.082,0,0,0,4.282.665c2.758,0,4.661-.571,5.8-1.618a9.842,9.842,0,0,0,1.808-2.758,5.34,5.34,0,0,0,.57-2.188,1.821,1.821,0,0,0-1.236-1.807,11.074,11.074,0,0,0-4.282-.666c-2.758,0-4.661.571-5.8,1.618a11.514,11.514,0,0,0-1.807,2.759Zm-28.921,4.471,2.854-3.33-.762,3.33h5.138l7.706-8.562h-4.662l-3.14,4,1.142-4h-4.852l-2.949,4,1.047-4h-4.948l-1.617,8.562Zm48.995-6.469h.761c.38,0,.571.094.571.38a1.034,1.034,0,0,1-.1.476l-.191.38c-.285.476-.57.762-1.046.762h-.952l.952-2Zm-3.426,6.469,1.522-2.76h.762c.476,0,.665.191.665.571a1.346,1.346,0,0,1-.19.571l-.856,1.712h5.232l.666-1.332a2.485,2.485,0,0,0,.285-1.047c0-.571-.38-.951-1.236-1.142a4.4,4.4,0,0,0,1.332-.38,3.4,3.4,0,0,0,.951-.665,3.014,3.014,0,0,0,.856-2.188,1.643,1.643,0,0,0-.476-1.237,3.179,3.179,0,0,0-2.187-.57h-7.991l-4.567,8.561h5.232Z" transform="translate(-1349.87 -1536.926)"/></g></g><rect class="c" width="200" height="200"/></svg>