<svg xmlns="http://www.w3.org/2000/svg" width="200" height="200" viewBox="0 0 200 200"><defs><style>.a{fill:#e31937;}.b{fill:none;mix-blend-mode:multiply;isolation:isolate;}</style></defs><g transform="translate(-443.014 -884.029)"><path class="a" d="M591.05,962.734V909.029H565.724v5.837l-5.831-5.837H509.34l-25.326,25.326v101.269l25.326,25.326h56.383l25.327-25.325v-28.389H565.724v17.913l-10.476,10.476H519.833l-10.493-10.476V944.864l10.494-10.509h35.414l10.476,10.51v17.869m27.6,86.953H591.1v6.081h-1.487v-6.082h-2.225V1048.4h5.933v1.289Zm10.043,6.081h-1.482v-5.86h-.032l-2.116,5.86h-1.475l-2.053-5.86h-.029v5.86h-1.5V1048.4h2.6l1.7,4.795h.032l1.777-4.795h2.575v7.369Z"/></g><rect class="b" width="200" height="200"/></svg>