<svg xmlns="http://www.w3.org/2000/svg" xmlns:xlink="http://www.w3.org/1999/xlink" width="200" height="200" viewBox="0 0 200 200"><defs><style>.a,.f{fill:none;}.b{clip-path:url(#a);}.c{fill:#fff;}.d{fill:#5c6670;}.e{fill:#5b2b82;}.f{mix-blend-mode:multiply;isolation:isolate;}</style><clipPath id="a"><rect class="a" width="147.501" height="168.275" transform="translate(415.851 1886.438)"/></clipPath></defs><g transform="translate(-389.852 -1870.438)"><g class="b"><path class="c" d="M563.351,1886.438l-21.109,21.192L524.6,1890.01l-17.723,17.623-17.613-17.623-17.606,17.62-17.618-17.62-17.6,17.629L415.85,1886.86V1980.7c0,40.81,32.741,74.016,73.527,74.016a74.076,74.076,0,0,0,73.974-74.016Z"/></g><g class="b"><path class="d" d="M422.435,1993.549a67.5,67.5,0,0,0,10.269,24.705c3.067-5.38,9.2-12.062,21.257-14.9-.926-3.095-1.751-6.386-2.45-9.805H422.435Z"/></g><g class="b"><path class="d" d="M437.513,2024.612a68.354,68.354,0,0,0,51.554,24.2c-1.865-.953-3.689-2-5.444-3.13-8.382-5.417-19.9-15.961-27.345-35.508-11.711,2.553-16.668,9.191-18.765,14.442"/></g><g class="b"><path class="d" d="M463.493,2009.144c5.281,13.277,13.259,23.478,23.732,30.326a53.386,53.386,0,0,0,17.934,7.53,68.482,68.482,0,0,0,29.639-15.29c-6.678-.731-13.525-4.574-20.753-8.628-11.286-6.334-25.341-14.217-44.316-14.217-2.048,0-4.142.1-6.236.279"/></g><g class="b"><path class="e" d="M492.024,1959.018h-24.4v29.05h10.137v-23.3h7.615v23.3h9.66v-24.982c0-2.214-1.353-4.069-3.012-4.069"/></g><g class="b"><path class="e" d="M499.307,1959.018v24.921c0,2.218,1.341,4.13,3,4.13h24.376v-17.638l-9.733-.011v11.893h-7.611v-17.689h17.344v-5.606Z"/></g><g class="b"><path class="e" d="M440.646,1959.018l-5.513,11.732h-3.184v-11.732h-10.09v29.051h10.09v-11.689h3.184l5.513,11.689h10.081l-7.11-14.5,7.11-14.546Z"/></g><g class="b"><rect class="e" width="10.446" height="29.051" transform="translate(453.412 1959.018)"/></g><g class="b"><path class="e" d="M557.37,1966.874v-7.856H530.588v13.271c0,2.213,1.344,4.011,2.994,4.011h13.647v6.331H530.588v5.438h26.8v-13.336c0-2.063-1.14-4-2.674-4H540.64v-6.083h7.039v2.227h9.691Z"/></g><g class="b"><path class="e" d="M528.878,1929.554h-8.552l17.639-17.647L524.6,1898.565l-17.723,17.619-17.613-17.619L458.3,1929.554h-8.552l17.609-17.674-13.316-13.316-17.6,17.619-14.576-14.47v51.972H557.368v-52.643Z"/></g><g class="b"><path class="c" d="M451.462,1948.1a1.371,1.371,0,0,0,1.364,1.37h7.615v-2.046h-6.206v-6.636h6.206v-2.041h-8.979Z"/></g><g class="b"><path class="c" d="M439.048,1938.748v10.723h2.77v-2.8h3.435v2.8h2.773v-9.356a1.4,1.4,0,0,0-1.523-1.367Zm6.206,5.878h-3.436v-3.834h3.436Z"/></g><g class="b"><path class="c" d="M550.975,1938.748h-6.282a1.361,1.361,0,0,0-1.359,1.358v8a1.37,1.37,0,0,0,1.359,1.368h6.282a1.374,1.374,0,0,0,1.36-1.372v-7.993a1.361,1.361,0,0,0-1.36-1.358m-1.424,8.662h-3.424v-6.622h3.424Z"/></g><g class="b"><path class="c" d="M426.623,1943.766a1.369,1.369,0,0,0,1.365,1.364h4.841v2.3h-6.206v2.046H435.6v-5.021a1.359,1.359,0,0,0-1.22-1.355l-.075-.007H429.39v-2.3H435.6v-2.042h-8.979Z"/></g><g class="b"><path class="c" d="M483.677,1938.748h-7.61v10.723h2.773v-2.8h3.436v2.8h2.774v-9.356a1.374,1.374,0,0,0-1.373-1.367m-1.4,5.878h-3.436v-3.834h3.436Z"/></g><g class="b"><path class="c" d="M531.255,1940.787h3.109v8.684h2.766v-8.684h3.105v-2.039h-8.98Z"/></g><g class="b"><path class="c" d="M502.513,1938.748H488.728v10.724H491.5v-8.681h3.4v8.681h2.809v-8.681h3.4v8.681h2.773v-9.359a1.37,1.37,0,0,0-1.364-1.365"/></g><g class="b"><path class="c" d="M527.08,1938.748h-7.611v10.724h2.771v-8.681h3.436v8.681h2.772v-9.359a1.371,1.371,0,0,0-1.368-1.365"/></g><g class="b"><path class="c" d="M507.652,1948.1a1.368,1.368,0,0,0,1.364,1.37h7.607v-2.046h-6.2v-2.3h6.2v-2.036h-6.2v-2.3h6.2v-2.041h-8.971v9.353Z"/></g><g class="b"><path class="c" d="M471.128,1945.57h1.483v-5.457a1.407,1.407,0,0,0-1.523-1.365h-7.457v10.723h2.77v-3.9h2.01l1.659,3.9h2.7Zm-1.29-2.039H466.4v-2.741h3.436Z"/></g><g class="b"><path class="d" d="M468.25,2001.776c14.438-.294,28.715,3.321,46.933,13.7,13.466,7.672,19.382,10,23.42,9.006,3.721-.915,7.171-3.113,13.26-15.982a67.046,67.046,0,0,0,4.805-14.951H458.723c.682,2.967,1.352,5.918,2.247,8.633a65.558,65.558,0,0,1,7.28-.409"/></g></g><rect class="f" width="200" height="200"/></svg>