<svg xmlns="http://www.w3.org/2000/svg" width="200" height="200" viewBox="0 0 200 200"><defs><style>.a{fill:#fff;}.b{fill:#024;}.c{fill:#69be28;}.d{fill:#a5acaf;}.e{fill:none;mix-blend-mode:multiply;isolation:isolate;}</style></defs><g transform="translate(-1327.582 -1796.195)"><path class="a" d="M1489.649,1922.289a143.757,143.757,0,0,0-24.178-2.133l-111.269.025c-6.922,0-14.081,0-17.755-5.656-3.727-5.738-1.7-11.383,4.583-22.68.469-.84,19.525-36.649,19.525-36.649a29.336,29.336,0,0,0,3.91,3.955c1.938,1.518,3.93,2.328,9.239,2.328,9.431,0,70.269-.133,70.888-.138,12.35,0,24.824,1.278,32.906,10.138,4.2.447,17.741,2.236,28.9,7.572,6.531,3.117,10.841,7.778,12.47,13.469a19.6,19.6,0,0,1,.737,5.4c0,5.4-2.023,11.386-5.992,17.6-8.383,13.141-16.113,17.734-16.459,17.981a19.084,19.084,0,0,1-9.377,3.506s4.155-4.722,5.557-9.445-3.688-5.282-3.688-5.282"/><path class="b" d="M1506.2,1882.426c12.721,6.081,14.952,17.7,5.9,31.885-8.117,12.713-16.311,18.107-16.311,18.107s7.9-10.318-4.345-12.767a148.655,148.655,0,0,0-24.8-2.191c-4.344,0-43.152.088-47.994.088s-6.18-.66-7.242-2.122-1.245-3.447.741-6.431,5.02-7.656,5.02-7.656l-13.083-10.521c10.978-10.949,19.746-14.62,27.4-14.62,7.76,0,11.182,1.14,23.957,6.5s17-.34,17-.34c-5.365,2.28-10.156.34-19.171-3.648s-14.372-5.815-22.469-5.815-14.945,2.278-23.517,8.58c-8.072,5.933-8.683,7.153-20.853,7.153h-38.668l14.891-27.866s1.113,4.4,12.221,4.4c9.542,0,70.888-.136,70.888-.136,12.18,0,24.231,1.291,31.363,10,0,0,16.344,1.314,29.069,7.394Zm-22.48,2.286c-5.788-1.385-.841-4.733-.841-4.733a16.552,16.552,0,0,0-12.141,10.369c-.134.258-.271.522-.411.8-4.608,9.264-8.758,8.769-16.625,8.769h-13.474c-10.914,0-16,5.406-21.227,14.614h6.163c5.633-8.384,9.886-10.644,21.027-11.272,25.461.015,45.757,7.314,56.484,12.895,15.255-25.6-7.385-29.841-18.956-31.442Zm-47.389,29.719c2.848-4.3,8.638-5.763,17.972-5.225,23.036,1.334,36.281,5.817,46.571,9.647-12.689-7.422-35.3-12.774-51.019-12.724-7.681.023-14.389,1.365-18.328,8.3Zm24.724-25.4c-3,4.186-6.957,5.616-18.171,4.851-13.049-.886-9.681-6.381-8.162-9.085l-.045-.005c.415-.765,1.127-2.064,1.848-3.373-10-.616-17.3,7.075-17.3,7.075,7.453,7.368,12.424,8.139,19.167,8.139H1451c11.72,0,14.552-5.271,15.627-7.615a22.121,22.121,0,0,1-5.569.014Z" transform="translate(-1.174 -0.496)"/><path class="c" d="M1464.466,1889.942c-.238-.1-.485-.2-.732-.3a6.1,6.1,0,0,1-5.052,1.666c-2.528-.323-3.984-2.16-3.267-4.1a3.487,3.487,0,0,1,.433-.806c-1.295-.508-2.6-1-3.865-1.438-2.6,4.2-4.119,6.981,4.892,7.74,5.613.478,7.137-.483,8.315-2.5-.241-.092-.476-.172-.724-.271" transform="translate(-10.275 -2.651)"/><path class="d" d="M1409.244,1906.976c-4.649,8.064-6.492,9.916-3.228,13.743h-51.5c-7.6,0-12.534-.286-15.074-4.2-2.471-3.8-1.963-7.426,4.7-19.39h43.79c7.539,0,9.477.429,13.568,3.6s7.752,6.245,7.752,6.245" transform="translate(-0.311 -3.734)"/></g><rect class="e" width="200" height="200"/></svg>