<svg xmlns="http://www.w3.org/2000/svg" xmlns:xlink="http://www.w3.org/1999/xlink" width="200" height="200" viewBox="0 0 200 200"><defs><style>.a,.f,.g{fill:none;}.b{fill:#fff;}.c{fill:#fdb927;}.d{fill:#552583;}.e{clip-path:url(#a);}.f{stroke:#fdb927;stroke-width:0.103px;}.g{mix-blend-mode:multiply;isolation:isolate;}</style><clipPath id="a"><path class="a" d="M436.425,1355.3c0,28.919,23.094,52.359,51.577,52.359s51.58-23.442,51.58-52.359-23.1-52.359-51.58-52.359-51.577,23.443-51.577,52.359" transform="translate(-436.425 -1302.942)"/></clipPath></defs><g transform="translate(-392.057 -1254.783)"><g transform="translate(397.056 1295.784)"><path class="b" d="M438.61,1322.369s16.26-26.585,49.554-26.585a58.743,58.743,0,0,1,48.784,25.809h45.168l-1.807,11.1s-1.291,4.388-3.356,4.9h3.1s1.03,3.872-5.163,17.294h13.16s.517,23.485-27.873,34.586c0,0-14.711,4.643-22.2-3.356,0,0-14.971,27.874-49.814,27.874s-50.586-28.649-50.586-28.649H397.056l6.453-11.614H399.12l5.163-9.55h8.775l1.549-3.613h-4.13l10.066-18.584h5.678l2.323-5.679h-4.9l7.486-13.936Z" transform="translate(-397.056 -1295.784)"/><path class="c" d="M488,1407.662c28.484,0,51.579-23.444,51.579-52.361s-23.1-52.358-51.579-52.358-51.579,23.443-51.579,52.358,23.093,52.361,51.579,52.361" transform="translate(-396.408 -1295.666)"/><path class="d" d="M510.862,1360.043c-4.817,5.844-7.548,7.843-12.443,7.843-1.666,0-2.535-.373-2.068-1.181l5.806-11.67h2.213c2.473,0,2.132,2.079,1.46,4.9-.123.392.179.417.472.072l5.52-9.7c.269-.611-.426-.736-.77-.267-2.763,3.753-5.672,3.473-6.9,3.473h-1l6.2-11.832h2.5c3.149.2,4.614,2.869,3.7,9.314h1.307l4.559-8.987c.367-.758-.412-1.451-1.27-1.451l-30.932.01c-1.788,0-1.867,1.373-.153,1.373,1.394,0,1.319,2,.071,2.96l-13.13,10.426,2.648,12.308a1.627,1.627,0,0,0,1.82,1.374h25.577a2.038,2.038,0,0,0,1.832-.871l4.633-8c.635-1.15-.847-1.078-1.656-.1m-17.821-5.622-2.249-.018a.287.287,0,0,0,0,.573l2.283-.023c.769,0,1.48.1,1.284.44l-5.913,11.293a1.335,1.335,0,0,1-2.538-.072l-2.929-15.132,10.3-7.99c1.024-.879,2.992-2.313,4-2.3l2.243-.01c1.366-.012,1.853.629,1.532,1.453l-.4.765c-.256.43-1.066.479-1.752.479l-1.295.007a.287.287,0,0,0,0,.573h1.278c.55,0,1.246.012.99.427L495.1,1354c-.221.356-1.212.421-2.058.421" transform="translate(-395.756 -1295.047)"/><path class="d" d="M472.939,1367.857a1.406,1.406,0,0,1-1.294-.955,3.8,3.8,0,0,1,.067-2.344l11.933-21.163c.194-.39.677-1.21,1.272-1.208,1.05,0,1.508-1.384-.279-1.384h-9.556c-1.784,0-1.8,1.36-.091,1.36a.8.8,0,0,1,.779,1.1l-2.642,4.788c-.331.525-1.063.567-1.834.567l-2.277-.008a.287.287,0,0,0,0,.574h2.258c.613,0,1.1.186.744.894l-8.807,16.046c-.636.882-1.9,1.078-1.826-.611l3.132-23.5c.123-.734-.071-1.231-.853-1.231l-4.725.005a1.387,1.387,0,0,0-1.181.641l-1.693,2.124c-.22.22-.7.22-1.222.22l-3.963-.006a.286.286,0,1,0,0,.573h3.235c.575,0,1.248.135,1,.406l-4.544,5.714a1.394,1.394,0,0,1-.849.2l-1.284-.007a.287.287,0,0,0,0,.574l1.071,0c.33,0,.333.165.2.311l-4.268,5.367a1.652,1.652,0,0,1-1.066.252l-3.768-.006a.286.286,0,1,0,0,.571l3.234,0c.491,0,.872.089.613.421l-6.069,7.615c-1.14,1.452-6.637,2.189-7.706,2.189l20.53-38.418a2.193,2.193,0,0,1,1.749-1.113h4.359c2.056,0,2-1.37.208-1.37H435.616c-1.787,0-1.859,1.37.2,1.37h4.058c1.15,0,1.523.7,1.225,1.262l-.58,1.058c-.2.343-.466.482-1.58.482l-7.17-.005a.286.286,0,1,0,0,.571h7.152c.391,0,.973.1.606.8l-1,1.866a1.293,1.293,0,0,1-1.114.414l-3.254-.005a.287.287,0,0,0,0,.573h3.236c.466,0,.475.3.205.734l-2.308,4.292c-.2.366-.572.416-1.306.416l-1.3-.005a.286.286,0,1,0,0,.572h1.278c.489,0,.617.272.4.737l-1.9,3.524c-.282.5-.686.7-1.948.7l-7.17,0a.287.287,0,1,0,0,.573H430.5c.81.013,1.106.369.788.946l-3.7,6.959c-.22.307-.824.35-1.852.35l-7.171,0a.286.286,0,1,0,0,.571h7.152c.857,0,1.381.037,1.123.489L424.7,1360.3c-.392.613-1.491.611-1.921.611l-2.276-.005a.286.286,0,0,0,0,.572h2.258c.795,0,1.216.138,1.008.566l-2.848,5.356c-.257.479-1.373.5-2.228.5l-11.09-.005a.287.287,0,0,0,0,.573h11.068c.735,0,1.665.091,1.321.678l-1.818,3.42c-.172.282-.793.306-1.686.306l-2.274-.007a.287.287,0,1,0,0,.574h2.257c.551,0,1.22.061.987.48l-1.137,2.184a1.8,1.8,0,0,1-1.613,1.023h-5.564c-2.055,0-1.983,1.37-.2,1.37l32.668.019c.954,0,.986-.128,1.437-.83l4.843-8.449,24.763,0c1.786,0,1.33-1.346.278-1.382m-19.42-2.518c-.246,1.395-1.646,2.317-3.407,2.782l-1.821.455,1.492-2.69c.393-.736-.468-1.168-1.406-.073-6.328,7.362-8.342,10.89-18.094,10.915l-2.621.006c-.792,0-1.663-.31-1.125-1.07l3.451-6.426,13.105,0c1.787,0,1.328-1.347.279-1.384a2.5,2.5,0,0,1-1.99-1.27,1.886,1.886,0,0,1,.038-1.886l5.016-6.669h8.344Zm1.886-8.433h-8.141l10.3-13.576Z" transform="translate(-396.887 -1295.269)"/><path class="d" d="M577.551,1360.893c-.134-.669-.38-.262-.819.581-.136.256-.564.262-.991.262l-1.311.006a.286.286,0,0,0,0,.571h1.289c.489,0,.5.325.267.817a21.973,21.973,0,0,1-3.061,4.75,1.574,1.574,0,0,1-1.083.453l-1.316.006a.286.286,0,1,0,0,.572h1.288c.647,0-.006.4-.118.546a28.84,28.84,0,0,1-5.538,5.773,5.646,5.646,0,0,1-1.806.1l-1.3.007a.286.286,0,0,0,0,.571l1.281,0c.976,0,.244.561.095.685a17.168,17.168,0,0,1-11.286,3.616c-7.879-.986-9.5-6.964-10.084-9.353-.121-.5-.5-1.524-.622-2.156-.245-1.251,3.311-1.607,4.29-.949a16.734,16.734,0,0,0,7.69,2.028c2.524.008,7.693-1.825,9.191-6.164,1.529-4.438-2.316-9.364-4.017-11.064-2.17-2.169-4.216-5.622-3.354-8.155.648-1.91,1.738-2.777,4.072-2.777,3.012,0,5.205,1.936,5.205,4.686,0,.244-.154.538-.35.538l-1.063.005a.286.286,0,1,0,0,.571h1c.282,0,.46.214.383.557-.2.92-.26,1.567-.461,2.489-.114.536.668.9.938.513l4.735-8.454c.344-.635-.418-.807-.98-.613-1.3.451-3.4.761-4.15.226a9.269,9.269,0,0,0-5.859-2.087c-4.206,0-7.154,1.037-9.045,4.5-.148.269-.562.264-.916.264l-.81,0a.287.287,0,0,0,0,.574l.688-.006c.294,0,.494.082.346.425-.131.31-.248.639-.357.982a8.607,8.607,0,0,0,.425,5.479c.051.121-.108.181-.4.18l-1.29.005a.287.287,0,0,0,0,.573h1.29c.585,0,.722.06.963.4.666.935,1.35,1.628,2.2,2.717.269.341-.879.438-1.491.432h-5.1a.286.286,0,1,0,0,.572l5.169-.005a8.123,8.123,0,0,1,2.415.171c1.25,1.441,2.763,3.663,3.018,5.536.072.538-.132.765-.794.765h-.689a.286.286,0,1,0,0,.572h.608c.526,0,.813.084.694.478-.673,2.141-1.678,3.693-5.766,3.67-4.291-.024-5.161-4.227-3.907-8.611.252-.875-.01-1.249-.4-.563l-2.983,4.69a1.035,1.035,0,0,1-.817.375h-.424a.287.287,0,0,0-.286.288.29.29,0,0,0,.291.286c.38,0,.526.2.38.41l-1.1,1.709a55.047,55.047,0,0,0-6.435-11.056l.028-.089c3.978-.24,9.844-3.963,10.805-7.293,1.667-5.779-3.946-7.91-7-7.91H525.569c-1.786,0-1.915,1.354-.2,1.354.925,0,1.735.811,1.328,1.63l-2.98,5.366c-.245.44-1.168.415-2.367.415h-1.3a.286.286,0,0,0,0,.572h1.283c.857,0,1.8.052,1.483.663l-3.521,6.357c-.172.293-.627.32-1.826.32l-1.3.005a.287.287,0,0,0,0,.573h1.27c.943,0,1.295.126,1.027.616l-4.7,8.5a2.833,2.833,0,0,1-2.38.727c-1.714,0-1.7,1.359.091,1.359h11.513c1.786,0,1.331-1.383.279-1.383a1.333,1.333,0,0,1-.865-1.822l5.876-11.131h.6c2.613,0,3.244,4.288,3.739,8.97.036.335-.6.353-1.9.353l-3.269.006a.285.285,0,1,0,0,.57h3.234c.858,0,2.054.007,2.085.286a46.547,46.547,0,0,0,.787,5.508c.124.514-.794.434-1.773.434l-4.16.006a.287.287,0,0,0,0,.573l4.156.005c1.306,0,1.981,0,2.055.266,1.791,6.565,9.469,11.736,16.935,11.451,6.408-.245,11.818-3.729,14.59-5.95,3.684-2.957,9.1-9.151,11.3-13.655.4-.827,1.052-1.886.9-2.62m-43.071-8.742c-.9.737-2.312,1.586-2.584,1.314a11.2,11.2,0,0,0-2.21-1.492l5.334-9.751a1.067,1.067,0,0,1,1.057-.53c2.08,0,2.76,2.254,1.784,5.058a12.3,12.3,0,0,1-3.382,5.4" transform="translate(-395.194 -1295.055)"/><path class="d" d="M470.463,1332.114a4.756,4.756,0,0,1-4.117,1.751h-.453l2.833-5.606a.9.9,0,0,1,.8-.457c.357,0,.313-.708-.152-.708H464.91c-.379,0-.512.708-.158.708.38,0,.45.421.267.775l-2.536,5a1.135,1.135,0,0,1-.763.424c-.376.1-.636.772-.207.772h7.126a.827.827,0,0,0,.825-.4l1.431-2.218c.207-.268-.226-.307-.433-.037" transform="translate(-395.998 -1295.268)"/><path class="d" d="M491.586,1327.3a1.051,1.051,0,0,1-.947,0,4.41,4.41,0,0,0-2.271-.836c-1.681,0-2.9.332-3.629,1.918-.623,1.351.015,2.481,1.5,3.169.64.3,1.492.684,1.166,1.458-.238.564-.9.622-1.488.615a2.282,2.282,0,0,1-2.177-1.726c-.063-.369-.49-.283-.611-.088l-1.015,2.021c-.16.269.259.567.424.391a1.3,1.3,0,0,1,1.457-.208,6.129,6.129,0,0,0,2.577.919,3.919,3.919,0,0,0,3.758-1.909c.852-1.333.329-2.655-1.225-3.386-.819-.387-1.525-1.07-1.157-1.825.238-.492.971-.384,1.336-.323a2.266,2.266,0,0,1,1.684,1.345.262.262,0,0,0,.491.073l.536-1.245c.121-.246-.271-.433-.407-.36" transform="translate(-395.656 -1295.279)"/><path class="d" d="M540.282,1329.3l.62-1.144c.267-.5-.175-1.071-.886-1.071H531.7c-.6,0-.423.626-.178.626.536,0,.692.65.369,1.2l-2.5,4.6a1.319,1.319,0,0,1-1.147.63c-.429,0-.581.625.017.625h8.434a.659.659,0,0,0,.614-.293l1.147-1.524c.281-.366-.325-.366-.509-.182a5.172,5.172,0,0,1-4.144,1.412h-.981l1.154-2.577h.245c.741,0,1.6-.008,1.82.554a.358.358,0,0,0,.574,0l.986-1.968c.159-.292-.287-.345-.4-.134-.391.7-2.1.509-2.547.509H534.4l1.437-2.84h1.6a2.347,2.347,0,0,1,2.133,1.475c.067.185.6.33.711.1" transform="translate(-394.901 -1295.268)"/><path class="d" d="M519.559,1327.086H516.6c-.6,0-.423.628-.179.628a1,1,0,0,1,.861,1.425l-1.225,2.243-2.7-3.957a1.286,1.286,0,0,0-.976-.363h-2.914c-.6,0-.462.619-.216.619.62,0,.458.464.306.8l-2.321,4.471a.546.546,0,0,1-.976-.047l-1.8-5.855c-.073-.231-1.123-.219-1.392,0l-4.5,3.713-2.332,0c-.463,0-.646.192-.646.437s.176.467.666.467h1.218l-1.218,1c-.681.506-1.375,1.2-1.836,1.2h-.286c-.44,0-.688.072-.688.427s.188.477.6.477h3.629c.687,0,.554-.892.21-.892a.651.651,0,0,1-.419-1.152l1.108-1.062h2.184c1.3,0,2.2,1.5,1.43,1.969l-.6.33c-.281.147-.4.806,0,.806h7.1c.524,0,.418-.7.173-.7-.727,0-.384-1.044-.242-1.324l1.864-3.532,2.619,5.075c.172.318.324.477.63.477h1c.319,0,.427-.183.572-.428l2.984-5.385c.48-.964.848-1.241,1.451-1.241.245,0,.417-.631-.183-.631m-19.853,3.677,2.774-2.268.013,2.268Z" transform="translate(-395.468 -1295.272)"/><path class="d" d="M477.871,1326.753c-2.5,0-5.069,1.228-5.581,3.846a3.859,3.859,0,0,0,3.917,4.646,5.6,5.6,0,0,0,5.6-4.252c.493-2.527-1.388-4.241-3.932-4.241m.705,4.8c-.792,1.579-2.117,2.516-2.961,2.093s-.886-2.046-.095-3.625,2.116-2.518,2.96-2.094.887,2.046.1,3.626" transform="translate(-395.818 -1295.274)"/><path class="d" d="M527.585,1330.576h-3.206c-.6,0-.424.627-.178.627s.489.133.489.537c0,1.3-.554,1.8-1.666,1.8-1.223,0-1.661-1.481-.839-3.3a4.023,4.023,0,0,1,3.563-2.245c1.008,0,1.856.217,1.986,1.163.032.235.379.234.5.013l.76-1.362c.085-.148-.048-.32-.278-.334-.2-.013-.634.24-.924.024a6.344,6.344,0,0,0-8.842,2.271,3.508,3.508,0,0,0,2.653,5.248,8.778,8.778,0,0,0,3.111-1.122l.819.555a.931.931,0,0,0,.623.329h.309c.279,0,.388-.385.5-.629l1.258-3.044c.158-.306.069-.528-.641-.528" transform="translate(-395.056 -1295.277)"/><path class="d" d="M570.809,1327.3a1.049,1.049,0,0,1-.946,0,4.419,4.419,0,0,0-2.272-.836c-1.678,0-2.9.332-3.629,1.918-.623,1.351.015,2.481,1.5,3.169.642.3,1.5.684,1.168,1.458-.239.564-.9.622-1.489.615a2.285,2.285,0,0,1-2.179-1.726c-.061-.369-.488-.283-.609-.088l-1.016,2.021c-.16.269.26.567.425.391a1.3,1.3,0,0,1,1.455-.208,6.158,6.158,0,0,0,2.58.919,3.923,3.923,0,0,0,3.758-1.909c.85-1.333.326-2.655-1.227-3.386-.819-.387-1.524-1.07-1.157-1.825.24-.492.972-.384,1.336-.323a2.268,2.268,0,0,1,1.684,1.345.262.262,0,0,0,.491.073l.535-1.245c.122-.246-.27-.433-.406-.36" transform="translate(-394.351 -1295.279)"/><path class="d" d="M548.868,1332.114a4.755,4.755,0,0,1-4.116,1.751H544.3l2.832-5.606a.9.9,0,0,1,.8-.457c.355,0,.312-.708-.152-.708h-4.465c-.38,0-.514.708-.158.708.38,0,.449.421.266.775l-2.536,5a1.13,1.13,0,0,1-.763.424c-.375.1-.634.772-.2.772h7.124a.828.828,0,0,0,.825-.4l1.43-2.218c.21-.268-.224-.307-.431-.037" transform="translate(-394.707 -1295.268)"/><path class="d" d="M559.446,1327.727a2.351,2.351,0,0,1,2.136,1.475c.066.183.6.329.708.1l.621-1.145c.268-.5-.175-1.072-.884-1.072H553.7c-.6,0-.421.628-.177.628.534,0,.694.65.37,1.2l-2.5,4.6a1.316,1.316,0,0,1-1.148.629c-.429,0-.579.625.021.625H558.7a.662.662,0,0,0,.616-.294l1.144-1.523c.282-.366-.322-.366-.505-.183a5.179,5.179,0,0,1-4.145,1.412h-.984l1.155-2.577h.244c.743,0,1.6-.008,1.823.555a.359.359,0,0,0,.574,0l.984-1.969c.16-.292-.286-.344-.4-.133-.39.694-2.1.508-2.546.508h-.247l1.436-2.839h1.6Z" transform="translate(-394.539 -1295.269)"/></g><g transform="translate(437.073 1303.06)"><g class="e"><path class="d" d="M510.862,1360.043c-4.817,5.844-7.548,7.843-12.443,7.843-1.666,0-2.535-.373-2.068-1.181l5.806-11.67h2.213c2.473,0,2.132,2.079,1.46,4.9-.123.392.179.417.472.072l5.52-9.7c.269-.611-.426-.736-.77-.267-2.763,3.753-5.672,3.473-6.9,3.473h-1l6.2-11.832h2.5c3.149.2,4.614,2.869,3.7,9.314h1.307l4.559-8.987c.367-.758-.412-1.451-1.27-1.451l-30.932.01c-1.788,0-1.867,1.373-.153,1.373,1.394,0,1.319,2,.071,2.96l-13.13,10.426,2.648,12.308a1.627,1.627,0,0,0,1.82,1.374h25.577a2.038,2.038,0,0,0,1.832-.871l4.633-8c.635-1.15-.847-1.078-1.656-.1m-17.821-5.622-2.249-.018a.287.287,0,0,0,0,.573l2.283-.023c.769,0,1.48.1,1.284.44l-5.913,11.293a1.335,1.335,0,0,1-2.538-.072l-2.929-15.132,10.3-7.99c1.024-.879,2.992-2.313,4-2.3l2.243-.01c1.366-.012,1.853.629,1.532,1.453l-.4.765c-.256.43-1.066.479-1.752.479l-1.295.007a.287.287,0,0,0,0,.573h1.278c.55,0,1.246.012.99.427L495.1,1354c-.221.356-1.212.421-2.058.421" transform="translate(-435.773 -1302.322)"/></g><g class="e"><path class="f" d="M510.862,1360.043c-4.817,5.844-7.548,7.843-12.443,7.843-1.666,0-2.535-.373-2.068-1.181l5.806-11.67h2.213c2.473,0,2.132,2.079,1.46,4.9-.123.392.179.417.472.072l5.52-9.7c.269-.611-.426-.736-.77-.267-2.763,3.753-5.672,3.473-6.9,3.473h-1l6.2-11.832h2.5c3.149.2,4.614,2.869,3.7,9.314h1.307l4.559-8.987c.367-.758-.412-1.451-1.27-1.451l-30.932.01c-1.788,0-1.867,1.373-.153,1.373,1.394,0,1.319,2,.071,2.96l-13.13,10.426,2.648,12.308a1.627,1.627,0,0,0,1.82,1.374h25.577a2.038,2.038,0,0,0,1.832-.871l4.633-8C513.153,1358.991,511.671,1359.063,510.862,1360.043Zm-17.821-5.622-2.249-.018a.287.287,0,0,0,0,.573l2.283-.023c.769,0,1.48.1,1.284.44l-5.913,11.293a1.335,1.335,0,0,1-2.538-.072l-2.929-15.132,10.3-7.99c1.024-.879,2.992-2.313,4-2.3l2.243-.01c1.366-.012,1.853.629,1.532,1.453l-.4.765c-.256.43-1.066.479-1.752.479l-1.295.007a.287.287,0,0,0,0,.573h1.278c.55,0,1.246.012.99.427L495.1,1354C494.879,1354.355,493.888,1354.421,493.041,1354.421Z" transform="translate(-435.773 -1302.322)"/></g><g class="e"><path class="d" d="M472.939,1367.857a1.406,1.406,0,0,1-1.294-.955,3.8,3.8,0,0,1,.067-2.344l11.933-21.163c.194-.39.677-1.21,1.272-1.208,1.05,0,1.508-1.384-.279-1.384h-9.556c-1.784,0-1.8,1.36-.091,1.36a.8.8,0,0,1,.779,1.1l-2.642,4.788c-.331.525-1.063.567-1.834.567l-2.277-.008a.287.287,0,0,0,0,.574h2.258c.613,0,1.1.186.744.894l-8.807,16.046c-.636.882-1.9,1.078-1.826-.611l3.132-23.5c.123-.734-.071-1.231-.853-1.231l-4.725.005a1.387,1.387,0,0,0-1.181.641l-1.693,2.124c-.22.22-.7.22-1.222.22l-3.963-.006a.286.286,0,1,0,0,.573h3.235c.575,0,1.248.135,1,.406l-4.544,5.714a1.394,1.394,0,0,1-.849.2l-1.284-.007a.287.287,0,0,0,0,.574l1.071,0c.33,0,.333.165.2.311l-4.268,5.367a1.652,1.652,0,0,1-1.066.252l-3.768-.006a.286.286,0,1,0,0,.571l3.234,0c.491,0,.872.089.613.421l-6.069,7.615c-1.14,1.452-6.637,2.189-7.706,2.189l20.53-38.418a2.193,2.193,0,0,1,1.749-1.113h4.359c2.056,0,2-1.37.208-1.37H435.616c-1.787,0-1.859,1.37.2,1.37h4.058c1.15,0,1.523.7,1.225,1.262l-.58,1.058c-.2.343-.466.482-1.58.482l-7.17-.005a.286.286,0,1,0,0,.571h7.152c.391,0,.973.1.606.8l-1,1.866a1.293,1.293,0,0,1-1.114.414l-3.254-.005a.287.287,0,0,0,0,.573h3.236c.466,0,.475.3.205.734l-2.308,4.292c-.2.366-.572.416-1.306.416l-1.3-.005a.286.286,0,1,0,0,.572h1.278c.489,0,.617.272.4.737l-1.9,3.524c-.282.5-.686.7-1.948.7l-7.17,0a.287.287,0,1,0,0,.573H430.5c.81.013,1.106.369.788.946l-3.7,6.959c-.22.307-.824.35-1.852.35l-7.171,0a.286.286,0,1,0,0,.571h7.152c.857,0,1.381.037,1.123.489L424.7,1360.3c-.392.613-1.491.611-1.921.611l-2.276-.005a.286.286,0,0,0,0,.572h2.258c.795,0,1.216.138,1.008.566l-2.848,5.356c-.257.479-1.373.5-2.228.5l-11.09-.005a.287.287,0,0,0,0,.573h11.068c.735,0,1.665.091,1.321.678l-1.818,3.42c-.172.282-.793.306-1.686.306l-2.274-.007a.287.287,0,1,0,0,.574h2.257c.551,0,1.22.061.987.48l-1.137,2.184a1.8,1.8,0,0,1-1.613,1.023h-5.564c-2.055,0-1.983,1.37-.2,1.37l32.668.019c.954,0,.986-.128,1.437-.83l4.843-8.449,24.763,0c1.786,0,1.33-1.346.278-1.382m-19.42-2.518c-.246,1.395-1.646,2.317-3.407,2.782l-1.821.455,1.492-2.69c.393-.736-.468-1.168-1.406-.073-6.328,7.362-8.342,10.89-18.094,10.915l-2.621.006c-.792,0-1.663-.31-1.125-1.07l3.451-6.426,13.105,0c1.787,0,1.328-1.347.279-1.384a2.5,2.5,0,0,1-1.99-1.27,1.886,1.886,0,0,1,.038-1.886l5.016-6.669h8.344Zm1.886-8.433h-8.141l10.3-13.576Z" transform="translate(-436.904 -1302.545)"/></g><g class="e"><path class="f" d="M472.939,1367.857a1.406,1.406,0,0,1-1.294-.955,3.8,3.8,0,0,1,.067-2.344l11.933-21.163c.194-.39.677-1.21,1.272-1.208,1.05,0,1.508-1.384-.279-1.384h-9.556c-1.784,0-1.8,1.36-.091,1.36a.8.8,0,0,1,.779,1.1l-2.642,4.788c-.331.525-1.063.567-1.834.567l-2.277-.008a.287.287,0,0,0,0,.574h2.258c.613,0,1.1.186.744.894l-8.807,16.046c-.636.882-1.9,1.078-1.826-.611l3.132-23.5c.123-.734-.071-1.231-.853-1.231l-4.725.005a1.387,1.387,0,0,0-1.181.641l-1.693,2.124c-.22.22-.7.22-1.222.22l-3.963-.006a.286.286,0,1,0,0,.573h3.235c.575,0,1.248.135,1,.406l-4.544,5.714a1.394,1.394,0,0,1-.849.2l-1.284-.007a.287.287,0,0,0,0,.574l1.071,0c.33,0,.333.165.2.311l-4.268,5.367a1.652,1.652,0,0,1-1.066.252l-3.768-.006a.286.286,0,1,0,0,.571l3.234,0c.491,0,.872.089.613.421l-6.069,7.615c-1.14,1.452-6.637,2.189-7.706,2.189l20.53-38.418a2.193,2.193,0,0,1,1.749-1.113h4.359c2.056,0,2-1.37.208-1.37H435.616c-1.787,0-1.859,1.37.2,1.37h4.058c1.15,0,1.523.7,1.225,1.262l-.58,1.058c-.2.343-.466.482-1.58.482l-7.17-.005a.286.286,0,1,0,0,.571h7.152c.391,0,.973.1.606.8l-1,1.866a1.293,1.293,0,0,1-1.114.414l-3.254-.005a.287.287,0,0,0,0,.573h3.236c.466,0,.475.3.205.734l-2.308,4.292c-.2.366-.572.416-1.306.416l-1.3-.005a.286.286,0,1,0,0,.572h1.278c.489,0,.617.272.4.737l-1.9,3.524c-.282.5-.686.7-1.948.7l-7.17,0a.287.287,0,1,0,0,.573H430.5c.81.013,1.106.369.788.946l-3.7,6.959c-.22.307-.824.35-1.852.35l-7.171,0a.286.286,0,1,0,0,.571h7.152c.857,0,1.381.037,1.123.489L424.7,1360.3c-.392.613-1.491.611-1.921.611l-2.276-.005a.286.286,0,0,0,0,.572h2.258c.795,0,1.216.138,1.008.566l-2.848,5.356c-.257.479-1.373.5-2.228.5l-11.09-.005a.287.287,0,0,0,0,.573h11.068c.735,0,1.665.091,1.321.678l-1.818,3.42c-.172.282-.793.306-1.686.306l-2.274-.007a.287.287,0,1,0,0,.574h2.257c.551,0,1.22.061.987.48l-1.137,2.184a1.8,1.8,0,0,1-1.613,1.023h-5.564c-2.055,0-1.983,1.37-.2,1.37l32.668.019c.954,0,.986-.128,1.437-.83l4.843-8.449,24.763,0C474.448,1369.241,473.991,1367.894,472.939,1367.857Zm-19.42-2.518c-.246,1.395-1.646,2.317-3.407,2.782l-1.821.455,1.492-2.69c.393-.736-.468-1.168-1.406-.073-6.328,7.362-8.342,10.89-18.094,10.915l-2.621.006c-.792,0-1.663-.31-1.125-1.07l3.451-6.426,13.105,0c1.787,0,1.328-1.347.279-1.384a2.5,2.5,0,0,1-1.99-1.27,1.886,1.886,0,0,1,.038-1.886l5.016-6.669h8.344Zm1.886-8.433h-8.141l10.3-13.576Z" transform="translate(-436.904 -1302.545)"/></g><g class="e"><path class="d" d="M577.551,1360.893c-.134-.669-.38-.262-.819.581-.136.256-.564.262-.991.262l-1.311.006a.286.286,0,0,0,0,.571h1.289c.489,0,.5.325.267.817a21.973,21.973,0,0,1-3.061,4.75,1.574,1.574,0,0,1-1.083.453l-1.316.006a.286.286,0,1,0,0,.572h1.288c.647,0-.006.4-.118.546a28.84,28.84,0,0,1-5.538,5.773,5.646,5.646,0,0,1-1.806.1l-1.3.007a.286.286,0,0,0,0,.571l1.281,0c.976,0,.244.561.095.685a17.168,17.168,0,0,1-11.286,3.616c-7.879-.986-9.5-6.964-10.084-9.353-.121-.5-.5-1.524-.622-2.156-.245-1.251,3.311-1.607,4.29-.949a16.734,16.734,0,0,0,7.69,2.028c2.524.008,7.693-1.825,9.191-6.164,1.529-4.438-2.316-9.364-4.017-11.064-2.17-2.169-4.216-5.622-3.354-8.155.648-1.91,1.738-2.777,4.072-2.777,3.012,0,5.205,1.936,5.205,4.686,0,.244-.154.538-.35.538l-1.063.005a.286.286,0,1,0,0,.571h1c.282,0,.46.214.383.557-.2.92-.26,1.567-.461,2.489-.114.536.668.9.938.513l4.735-8.454c.344-.635-.418-.807-.98-.613-1.3.451-3.4.761-4.15.226a9.269,9.269,0,0,0-5.859-2.087c-4.206,0-7.154,1.037-9.045,4.5-.148.269-.562.264-.916.264l-.81,0a.287.287,0,0,0,0,.574l.688-.006c.294,0,.494.082.346.425-.131.31-.248.639-.357.982a8.607,8.607,0,0,0,.425,5.479c.051.121-.108.181-.4.18l-1.29.005a.287.287,0,0,0,0,.573h1.29c.585,0,.722.06.963.4.666.935,1.35,1.628,2.2,2.717.269.341-.879.438-1.491.432h-5.1a.286.286,0,1,0,0,.572l5.169-.005a8.123,8.123,0,0,1,2.415.171c1.25,1.441,2.763,3.663,3.018,5.536.072.538-.132.765-.794.765h-.689a.286.286,0,1,0,0,.572h.608c.526,0,.813.084.694.478-.673,2.141-1.678,3.693-5.766,3.67-4.291-.024-5.161-4.227-3.907-8.611.252-.875-.01-1.249-.4-.563l-2.983,4.69a1.035,1.035,0,0,1-.817.375h-.424a.287.287,0,0,0-.286.288.29.29,0,0,0,.291.286c.38,0,.526.2.38.41l-1.1,1.709a55.047,55.047,0,0,0-6.435-11.056l.028-.089c3.978-.24,9.844-3.963,10.805-7.293,1.667-5.779-3.946-7.91-7-7.91H525.569c-1.786,0-1.915,1.354-.2,1.354.925,0,1.735.811,1.328,1.63l-2.98,5.366c-.245.44-1.168.415-2.367.415h-1.3a.286.286,0,0,0,0,.572h1.283c.857,0,1.8.052,1.483.663l-3.521,6.357c-.172.293-.627.32-1.826.32l-1.3.005a.287.287,0,0,0,0,.573h1.27c.943,0,1.295.126,1.027.616l-4.7,8.5a2.833,2.833,0,0,1-2.38.727c-1.714,0-1.7,1.359.091,1.359h11.513c1.786,0,1.331-1.383.279-1.383a1.333,1.333,0,0,1-.865-1.822l5.876-11.131h.6c2.613,0,3.244,4.288,3.739,8.97.036.335-.6.353-1.9.353l-3.269.006a.285.285,0,1,0,0,.57h3.234c.858,0,2.054.007,2.085.286a46.547,46.547,0,0,0,.787,5.508c.124.514-.794.434-1.773.434l-4.16.006a.287.287,0,0,0,0,.573l4.156.005c1.306,0,1.981,0,2.055.266,1.791,6.565,9.469,11.736,16.935,11.451,6.408-.245,11.818-3.729,14.59-5.95,3.684-2.957,9.1-9.151,11.3-13.655.4-.827,1.052-1.886.9-2.62m-43.071-8.742c-.9.737-2.312,1.586-2.584,1.314a11.2,11.2,0,0,0-2.21-1.492l5.334-9.751a1.067,1.067,0,0,1,1.057-.53c2.08,0,2.76,2.254,1.784,5.058a12.3,12.3,0,0,1-3.382,5.4" transform="translate(-435.211 -1302.331)"/></g><g class="e"><path class="f" d="M577.551,1360.893c-.134-.669-.38-.262-.819.581-.136.256-.564.262-.991.262l-1.311.006a.286.286,0,0,0,0,.571h1.289c.489,0,.5.325.267.817a21.973,21.973,0,0,1-3.061,4.75,1.574,1.574,0,0,1-1.083.453l-1.316.006a.286.286,0,1,0,0,.572h1.288c.647,0-.006.4-.118.546a28.84,28.84,0,0,1-5.538,5.773,5.646,5.646,0,0,1-1.806.1l-1.3.007a.286.286,0,0,0,0,.571l1.281,0c.976,0,.244.561.095.685a17.168,17.168,0,0,1-11.286,3.616c-7.879-.986-9.5-6.964-10.084-9.353-.121-.5-.5-1.524-.622-2.156-.245-1.251,3.311-1.607,4.29-.949a16.734,16.734,0,0,0,7.69,2.028c2.524.008,7.693-1.825,9.191-6.164,1.529-4.438-2.316-9.364-4.017-11.064-2.17-2.169-4.216-5.622-3.354-8.155.648-1.91,1.738-2.777,4.072-2.777,3.012,0,5.205,1.936,5.205,4.686,0,.244-.154.538-.35.538l-1.063.005a.286.286,0,1,0,0,.571h1c.282,0,.46.214.383.557-.2.92-.26,1.567-.461,2.489-.114.536.668.9.938.513l4.735-8.454c.344-.635-.418-.807-.98-.613-1.3.451-3.4.761-4.15.226a9.269,9.269,0,0,0-5.859-2.087c-4.206,0-7.154,1.037-9.045,4.5-.148.269-.562.264-.916.264l-.81,0a.287.287,0,0,0,0,.574l.688-.006c.294,0,.494.082.346.425-.131.31-.248.639-.357.982a8.607,8.607,0,0,0,.425,5.479c.051.121-.108.181-.4.18l-1.29.005a.287.287,0,0,0,0,.573h1.29c.585,0,.722.06.963.4.666.935,1.35,1.628,2.2,2.717.269.341-.879.438-1.491.432h-5.1a.286.286,0,1,0,0,.572l5.169-.005a8.123,8.123,0,0,1,2.415.171c1.25,1.441,2.763,3.663,3.018,5.536.072.538-.132.765-.794.765h-.689a.286.286,0,1,0,0,.572h.608c.526,0,.813.084.694.478-.673,2.141-1.678,3.693-5.766,3.67-4.291-.024-5.161-4.227-3.907-8.611.252-.875-.01-1.249-.4-.563l-2.983,4.69a1.035,1.035,0,0,1-.817.375h-.424a.287.287,0,0,0-.286.288.29.29,0,0,0,.291.286c.38,0,.526.2.38.41l-1.1,1.709a55.047,55.047,0,0,0-6.435-11.056l.028-.089c3.978-.24,9.844-3.963,10.805-7.293,1.667-5.779-3.946-7.91-7-7.91H525.569c-1.786,0-1.915,1.354-.2,1.354.925,0,1.735.811,1.328,1.63l-2.98,5.366c-.245.44-1.168.415-2.367.415h-1.3a.286.286,0,0,0,0,.572h1.283c.857,0,1.8.052,1.483.663l-3.521,6.357c-.172.293-.627.32-1.826.32l-1.3.005a.287.287,0,0,0,0,.573h1.27c.943,0,1.295.126,1.027.616l-4.7,8.5a2.833,2.833,0,0,1-2.38.727c-1.714,0-1.7,1.359.091,1.359h11.513c1.786,0,1.331-1.383.279-1.383a1.333,1.333,0,0,1-.865-1.822l5.876-11.131h.6c2.613,0,3.244,4.288,3.739,8.97.036.335-.6.353-1.9.353l-3.269.006a.285.285,0,1,0,0,.57h3.234c.858,0,2.054.007,2.085.286a46.547,46.547,0,0,0,.787,5.508c.124.514-.794.434-1.773.434l-4.16.006a.287.287,0,0,0,0,.573l4.156.005c1.306,0,1.981,0,2.055.266,1.791,6.565,9.469,11.736,16.935,11.451,6.408-.245,11.818-3.729,14.59-5.95,3.684-2.957,9.1-9.151,11.3-13.655C577.051,1362.687,577.7,1361.627,577.551,1360.893Zm-43.071-8.742c-.9.737-2.312,1.586-2.584,1.314a11.2,11.2,0,0,0-2.21-1.492l5.334-9.751a1.067,1.067,0,0,1,1.057-.53c2.08,0,2.76,2.254,1.784,5.058A12.3,12.3,0,0,1,534.48,1352.151Z" transform="translate(-435.211 -1302.331)"/></g><g class="e"><path class="d" d="M470.463,1332.114a4.756,4.756,0,0,1-4.117,1.751h-.453l2.833-5.606a.9.9,0,0,1,.8-.457c.357,0,.313-.708-.152-.708H464.91c-.379,0-.512.708-.158.708.38,0,.45.421.267.775l-2.536,5a1.135,1.135,0,0,1-.763.424c-.376.1-.636.772-.207.772h7.126a.827.827,0,0,0,.825-.4l1.431-2.218c.207-.268-.226-.307-.433-.037" transform="translate(-436.015 -1302.544)"/></g><g class="e"><path class="f" d="M470.463,1332.114a4.756,4.756,0,0,1-4.117,1.751h-.453l2.833-5.606a.9.9,0,0,1,.8-.457c.357,0,.313-.708-.152-.708H464.91c-.379,0-.512.708-.158.708.38,0,.45.421.267.775l-2.536,5a1.135,1.135,0,0,1-.763.424c-.376.1-.636.772-.207.772h7.126a.827.827,0,0,0,.825-.4l1.431-2.218C471.1,1331.883,470.67,1331.844,470.463,1332.114Z" transform="translate(-436.015 -1302.544)"/></g><g class="e"><path class="d" d="M491.586,1327.3a1.051,1.051,0,0,1-.947,0,4.41,4.41,0,0,0-2.271-.836c-1.681,0-2.9.332-3.629,1.918-.623,1.351.015,2.481,1.5,3.169.64.3,1.492.684,1.166,1.458-.238.564-.9.622-1.488.615a2.282,2.282,0,0,1-2.177-1.726c-.063-.369-.49-.283-.611-.088l-1.015,2.021c-.16.269.259.567.424.391a1.3,1.3,0,0,1,1.457-.208,6.129,6.129,0,0,0,2.577.919,3.919,3.919,0,0,0,3.758-1.909c.852-1.333.329-2.655-1.225-3.386-.819-.387-1.525-1.07-1.157-1.825.238-.492.971-.384,1.336-.323a2.266,2.266,0,0,1,1.684,1.345.262.262,0,0,0,.491.073l.536-1.245c.121-.246-.271-.433-.407-.36" transform="translate(-435.673 -1302.555)"/></g><g class="e"><path class="f" d="M491.586,1327.3a1.051,1.051,0,0,1-.947,0,4.41,4.41,0,0,0-2.271-.836c-1.681,0-2.9.332-3.629,1.918-.623,1.351.015,2.481,1.5,3.169.64.3,1.492.684,1.166,1.458-.238.564-.9.622-1.488.615a2.282,2.282,0,0,1-2.177-1.726c-.063-.369-.49-.283-.611-.088l-1.015,2.021c-.16.269.259.567.424.391a1.3,1.3,0,0,1,1.457-.208,6.129,6.129,0,0,0,2.577.919,3.919,3.919,0,0,0,3.758-1.909c.852-1.333.329-2.655-1.225-3.386-.819-.387-1.525-1.07-1.157-1.825.238-.492.971-.384,1.336-.323a2.266,2.266,0,0,1,1.684,1.345.262.262,0,0,0,.491.073l.536-1.245C492.114,1327.417,491.721,1327.229,491.586,1327.3Z" transform="translate(-435.673 -1302.555)"/></g><g class="e"><path class="d" d="M540.282,1329.3l.62-1.144c.267-.5-.175-1.071-.886-1.071H531.7c-.6,0-.423.626-.178.626.536,0,.692.65.369,1.2l-2.5,4.6a1.319,1.319,0,0,1-1.147.63c-.429,0-.581.625.017.625h8.434a.659.659,0,0,0,.614-.293l1.147-1.524c.281-.366-.325-.366-.509-.182a5.172,5.172,0,0,1-4.144,1.412h-.981l1.154-2.577h.245c.741,0,1.6-.008,1.82.554a.358.358,0,0,0,.574,0l.986-1.968c.159-.292-.287-.345-.4-.134-.391.7-2.1.509-2.547.509H534.4l1.437-2.84h1.6a2.347,2.347,0,0,1,2.133,1.475c.067.185.6.33.711.1" transform="translate(-434.919 -1302.544)"/></g><g class="e"><path class="f" d="M540.282,1329.3l.62-1.144c.267-.5-.175-1.071-.886-1.071H531.7c-.6,0-.423.626-.178.626.536,0,.692.65.369,1.2l-2.5,4.6a1.319,1.319,0,0,1-1.147.63c-.429,0-.581.625.017.625h8.434a.659.659,0,0,0,.614-.293l1.147-1.524c.281-.366-.325-.366-.509-.182a5.172,5.172,0,0,1-4.144,1.412h-.981l1.154-2.577h.245c.741,0,1.6-.008,1.82.554a.358.358,0,0,0,.574,0l.986-1.968c.159-.292-.287-.345-.4-.134-.391.7-2.1.509-2.547.509H534.4l1.437-2.84h1.6a2.347,2.347,0,0,1,2.133,1.475C539.639,1329.386,540.171,1329.531,540.282,1329.3Z" transform="translate(-434.919 -1302.544)"/></g><g class="e"><path class="d" d="M519.559,1327.086H516.6c-.6,0-.423.628-.179.628a1,1,0,0,1,.861,1.425l-1.225,2.243-2.7-3.957a1.286,1.286,0,0,0-.976-.363h-2.914c-.6,0-.462.619-.216.619.62,0,.458.464.306.8l-2.321,4.471a.546.546,0,0,1-.976-.047l-1.8-5.855c-.073-.231-1.123-.219-1.392,0l-4.5,3.713-2.332,0c-.463,0-.646.192-.646.437s.176.467.666.467h1.218l-1.218,1c-.681.506-1.375,1.2-1.836,1.2h-.286c-.44,0-.688.072-.688.427s.188.477.6.477h3.629c.687,0,.554-.892.21-.892a.651.651,0,0,1-.419-1.152l1.108-1.062h2.184c1.3,0,2.2,1.5,1.43,1.969l-.6.33c-.281.147-.4.806,0,.806h7.1c.524,0,.418-.7.173-.7-.727,0-.384-1.044-.242-1.324l1.864-3.532,2.619,5.075c.172.318.324.477.63.477h1c.319,0,.427-.183.572-.428l2.984-5.385c.48-.964.848-1.241,1.451-1.241.245,0,.417-.631-.183-.631m-19.853,3.677,2.774-2.268.013,2.268Z" transform="translate(-435.486 -1302.548)"/></g><g class="e"><path class="f" d="M519.559,1327.086H516.6c-.6,0-.423.628-.179.628a1,1,0,0,1,.861,1.425l-1.225,2.243-2.7-3.957a1.286,1.286,0,0,0-.976-.363h-2.914c-.6,0-.462.619-.216.619.62,0,.458.464.306.8l-2.321,4.471a.546.546,0,0,1-.976-.047l-1.8-5.855c-.073-.231-1.123-.219-1.392,0l-4.5,3.713-2.332,0c-.463,0-.646.192-.646.437s.176.467.666.467h1.218l-1.218,1c-.681.506-1.375,1.2-1.836,1.2h-.286c-.44,0-.688.072-.688.427s.188.477.6.477h3.629c.687,0,.554-.892.21-.892a.651.651,0,0,1-.419-1.152l1.108-1.062h2.184c1.3,0,2.2,1.5,1.43,1.969l-.6.33c-.281.147-.4.806,0,.806h7.1c.524,0,.418-.7.173-.7-.727,0-.384-1.044-.242-1.324l1.864-3.532,2.619,5.075c.172.318.324.477.63.477h1c.319,0,.427-.183.572-.428l2.984-5.385c.48-.964.848-1.241,1.451-1.241C519.987,1327.718,520.159,1327.086,519.559,1327.086Zm-19.853,3.677,2.774-2.268.013,2.268Z" transform="translate(-435.486 -1302.548)"/></g><g class="e"><path class="d" d="M477.871,1326.753c-2.5,0-5.069,1.228-5.581,3.846a3.859,3.859,0,0,0,3.917,4.646,5.6,5.6,0,0,0,5.6-4.252c.493-2.527-1.388-4.241-3.932-4.241m.705,4.8c-.792,1.579-2.117,2.516-2.961,2.093s-.886-2.046-.095-3.625,2.116-2.518,2.96-2.094.887,2.046.1,3.626" transform="translate(-435.835 -1302.55)"/></g><g class="e"><path class="f" d="M477.871,1326.753c-2.5,0-5.069,1.228-5.581,3.846a3.859,3.859,0,0,0,3.917,4.646,5.6,5.6,0,0,0,5.6-4.252C482.3,1328.467,480.414,1326.753,477.871,1326.753Zm.705,4.8c-.792,1.579-2.117,2.516-2.961,2.093s-.886-2.046-.095-3.625,2.116-2.518,2.96-2.094S479.368,1329.975,478.576,1331.555Z" transform="translate(-435.835 -1302.55)"/></g><g class="e"><path class="d" d="M527.585,1330.576h-3.206c-.6,0-.424.627-.178.627s.489.133.489.537c0,1.3-.554,1.8-1.666,1.8-1.223,0-1.661-1.481-.839-3.3a4.023,4.023,0,0,1,3.563-2.245c1.008,0,1.856.217,1.986,1.163.032.235.379.234.5.013l.76-1.362c.085-.148-.048-.32-.278-.334-.2-.013-.634.24-.924.024a6.344,6.344,0,0,0-8.842,2.271,3.508,3.508,0,0,0,2.653,5.248,8.778,8.778,0,0,0,3.111-1.122l.819.555a.931.931,0,0,0,.623.329h.309c.279,0,.388-.385.5-.629l1.258-3.044c.158-.306.069-.528-.641-.528" transform="translate(-435.074 -1302.553)"/></g><g class="e"><path class="f" d="M527.585,1330.576h-3.206c-.6,0-.424.627-.178.627s.489.133.489.537c0,1.3-.554,1.8-1.666,1.8-1.223,0-1.661-1.481-.839-3.3a4.023,4.023,0,0,1,3.563-2.245c1.008,0,1.856.217,1.986,1.163.032.235.379.234.5.013l.76-1.362c.085-.148-.048-.32-.278-.334-.2-.013-.634.24-.924.024a6.344,6.344,0,0,0-8.842,2.271,3.508,3.508,0,0,0,2.653,5.248,8.778,8.778,0,0,0,3.111-1.122l.819.555a.931.931,0,0,0,.623.329h.309c.279,0,.388-.385.5-.629l1.258-3.044C528.384,1330.8,528.3,1330.576,527.585,1330.576Z" transform="translate(-435.074 -1302.553)"/></g><g class="e"><path class="d" d="M570.809,1327.3a1.049,1.049,0,0,1-.946,0,4.419,4.419,0,0,0-2.272-.836c-1.678,0-2.9.332-3.629,1.918-.623,1.351.015,2.481,1.5,3.169.642.3,1.5.684,1.168,1.458-.239.564-.9.622-1.489.615a2.285,2.285,0,0,1-2.179-1.726c-.061-.369-.488-.283-.609-.088l-1.016,2.021c-.16.269.26.567.425.391a1.3,1.3,0,0,1,1.455-.208,6.158,6.158,0,0,0,2.58.919,3.923,3.923,0,0,0,3.758-1.909c.85-1.333.326-2.655-1.227-3.386-.819-.387-1.524-1.07-1.157-1.825.24-.492.972-.384,1.336-.323a2.268,2.268,0,0,1,1.684,1.345.262.262,0,0,0,.491.073l.535-1.245c.122-.246-.27-.433-.406-.36" transform="translate(-434.368 -1302.555)"/></g><g class="e"><path class="f" d="M570.809,1327.3a1.049,1.049,0,0,1-.946,0,4.419,4.419,0,0,0-2.272-.836c-1.678,0-2.9.332-3.629,1.918-.623,1.351.015,2.481,1.5,3.169.642.3,1.5.684,1.168,1.458-.239.564-.9.622-1.489.615a2.285,2.285,0,0,1-2.179-1.726c-.061-.369-.488-.283-.609-.088l-1.016,2.021c-.16.269.26.567.425.391a1.3,1.3,0,0,1,1.455-.208,6.158,6.158,0,0,0,2.58.919,3.923,3.923,0,0,0,3.758-1.909c.85-1.333.326-2.655-1.227-3.386-.819-.387-1.524-1.07-1.157-1.825.24-.492.972-.384,1.336-.323a2.268,2.268,0,0,1,1.684,1.345.262.262,0,0,0,.491.073l.535-1.245C571.337,1327.417,570.944,1327.229,570.809,1327.3Z" transform="translate(-434.368 -1302.555)"/></g><g class="e"><path class="d" d="M548.868,1332.114a4.755,4.755,0,0,1-4.116,1.751H544.3l2.832-5.606a.9.9,0,0,1,.8-.457c.355,0,.312-.708-.152-.708h-4.465c-.38,0-.514.708-.158.708.38,0,.449.421.266.775l-2.536,5a1.13,1.13,0,0,1-.763.424c-.375.1-.634.772-.2.772h7.124a.828.828,0,0,0,.825-.4l1.43-2.218c.21-.268-.224-.307-.431-.037" transform="translate(-434.724 -1302.544)"/></g><g class="e"><path class="f" d="M548.868,1332.114a4.755,4.755,0,0,1-4.116,1.751H544.3l2.832-5.606a.9.9,0,0,1,.8-.457c.355,0,.312-.708-.152-.708h-4.465c-.38,0-.514.708-.158.708.38,0,.449.421.266.775l-2.536,5a1.13,1.13,0,0,1-.763.424c-.375.1-.634.772-.2.772h7.124a.828.828,0,0,0,.825-.4l1.43-2.218C549.509,1331.883,549.075,1331.844,548.868,1332.114Z" transform="translate(-434.724 -1302.544)"/></g><g class="e"><path class="d" d="M559.446,1327.727a2.351,2.351,0,0,1,2.136,1.475c.066.183.6.329.708.1l.621-1.145c.268-.5-.175-1.072-.884-1.072H553.7c-.6,0-.421.628-.177.628.534,0,.694.65.37,1.2l-2.5,4.6a1.316,1.316,0,0,1-1.148.629c-.429,0-.579.625.021.625H558.7a.662.662,0,0,0,.616-.294l1.144-1.523c.282-.366-.322-.366-.505-.183a5.179,5.179,0,0,1-4.145,1.412h-.984l1.155-2.577h.244c.743,0,1.6-.008,1.823.555a.359.359,0,0,0,.574,0l.984-1.969c.16-.292-.286-.344-.4-.133-.39.694-2.1.508-2.546.508h-.247l1.436-2.839h1.6Z" transform="translate(-434.556 -1302.544)"/></g><g class="e"><path class="f" d="M559.446,1327.727a2.351,2.351,0,0,1,2.136,1.475c.066.183.6.329.708.1l.621-1.145c.268-.5-.175-1.072-.884-1.072H553.7c-.6,0-.421.628-.177.628.534,0,.694.65.37,1.2l-2.5,4.6a1.316,1.316,0,0,1-1.148.629c-.429,0-.579.625.021.625H558.7a.662.662,0,0,0,.616-.294l1.144-1.523c.282-.366-.322-.366-.505-.183a5.179,5.179,0,0,1-4.145,1.412h-.984l1.155-2.577h.244c.743,0,1.6-.008,1.823.555a.359.359,0,0,0,.574,0l.984-1.969c.16-.292-.286-.344-.4-.133-.39.694-2.1.508-2.546.508h-.247l1.436-2.839h1.6Z" transform="translate(-434.556 -1302.544)"/></g></g><g transform="translate(443.965 1301.831)"><path d="M528.389,1321.414c-.641-.736-1.527-2.3-7.873-7.834-9.331-8.134-21.7-11.847-33.308-11.847a48.046,48.046,0,0,0-24.354,6.491,46.785,46.785,0,0,0-16.037,13.874c-.8,1-.913,1.585-.394,1.885.369.214,1.083-.565,1.746-1.444a40.127,40.127,0,0,1,11.635-10.694c1.354.194,3.248,2.079,3.986,3.082a89.5,89.5,0,0,0-9.15,6.39c-1.509,1.17-2.031,1.824-1.623,2.3.337.4,1.491-.383,2.46-1.175a83.506,83.506,0,0,1,9.1-6.217c1.673,1.959,1.132,5.58.541,6.364-.318.42-.361.87,0,1.078.346.2.72-.3,1.206-1,1.141-1.648.683-5.639-.3-7.073a35.407,35.407,0,0,1,9.915-3.7c.221.415,3.382,9.653,3.986,11.33.328.921.655,2.02,1.327,1.812.447-.138.152-1.145-.222-2.155-.461-1.25-2.853-9.006-3.591-11.308a31.672,31.672,0,0,1,7.355-1.468c-.64,3.378,1.751,4.762,4.452,6.535,1.437.943,10.563,6.187,12.471,7.367,1.089.675,1.933,1.1,2.164.785.267-.366-.473-1.126-1.475-1.716-.8-.467-9.294-5.393-12.842-7.635-2.54-1.6-3.905-3.325-3.3-5.582a34.341,34.341,0,0,1,6.052-.245c18.1.148,32.619,10.526,34.242,12.191.823.844,1.967,1.566,2.411,1.225.281-.217-.2-1.171-.59-1.615m-63.123-7.149a11.57,11.57,0,0,0-4.033-3.328,46.348,46.348,0,0,1,12.2-5.776,40.1,40.1,0,0,1,2.017,5.188c-2.263.489-8.265,2.644-10.184,3.917m19.779-5.825a51.779,51.779,0,0,0-8.167,1.518c-.393-1.028-1.475-4.211-1.82-5.239a39.235,39.235,0,0,1,13.283-1.322c-1.082.832-2.9,4.113-3.3,5.042m11.76-.146a58.272,58.272,0,0,0-9.94-.1,11.356,11.356,0,0,1,3.691-4.8,51.791,51.791,0,0,1,7.627.931c7,1.381,17.891,5.651,22.581,11.944-6.251-4.174-16.642-7.459-23.958-7.979" transform="translate(-443.157 -1301.733)"/><path d="M532.353,1382.253c.67-1.232,1.215-1.934.64-2.25-.524-.292-1.035.849-1.672,1.956-2.114,3.672-4.427,6.7-9.643,11.455a47.991,47.991,0,0,1-14.735,9.105c-1.968-5.53-9.471-29.09-9.668-29.763-.3-1-.546-1.294-.887-1.174-.379.135-.145.685.051,1.567s9.126,28.759,9.421,29.737a48.081,48.081,0,0,1-13.995,3.061c-4.479.147-9.743,0-12.4-.612-3.115-2.513-10.2-12.517-12.889-17.842a76.482,76.482,0,0,1-5.809-14.5c-.26-1.173-.591-2.016-1.179-1.9-.636.123-.272,1.048.1,2.3a81.809,81.809,0,0,0,5.808,14.319c3.5,6.9,9.739,15,11.558,17.208a49.694,49.694,0,0,1-19.224-8.779,55.471,55.471,0,0,1-13-13.544c-.42-.674-.914-1.626-1.525-1.223-.274.178.065.945.492,1.713,3.558,6.4,12.243,15.447,23.371,20.413,12.967,5.789,27.107,5.483,39.751.587,11.06-4.282,20.684-13.092,25.435-21.834" transform="translate(-443.205 -1300.591)"/></g><g transform="translate(437.073 1303.06)"><g class="e"><path d="M528.389,1321.414c-.641-.736-1.527-2.3-7.873-7.834-9.331-8.134-21.7-11.847-33.308-11.847a48.046,48.046,0,0,0-24.354,6.491,46.785,46.785,0,0,0-16.037,13.874c-.8,1-.913,1.585-.394,1.885.369.214,1.083-.565,1.746-1.444a40.127,40.127,0,0,1,11.635-10.694c1.354.194,3.248,2.079,3.986,3.082a89.5,89.5,0,0,0-9.15,6.39c-1.509,1.17-2.031,1.824-1.623,2.3.337.4,1.491-.383,2.46-1.175a83.506,83.506,0,0,1,9.1-6.217c1.673,1.959,1.132,5.58.541,6.364-.318.42-.361.87,0,1.078.346.2.72-.3,1.206-1,1.141-1.648.683-5.639-.3-7.073a35.407,35.407,0,0,1,9.915-3.7c.221.415,3.382,9.653,3.986,11.33.328.921.655,2.02,1.327,1.812.447-.138.152-1.145-.222-2.155-.461-1.25-2.853-9.006-3.591-11.308a31.672,31.672,0,0,1,7.355-1.468c-.64,3.378,1.751,4.762,4.452,6.535,1.437.943,10.563,6.187,12.471,7.367,1.089.675,1.933,1.1,2.164.785.267-.366-.473-1.126-1.475-1.716-.8-.467-9.294-5.393-12.842-7.635-2.54-1.6-3.905-3.325-3.3-5.582a34.341,34.341,0,0,1,6.052-.245c18.1.148,32.619,10.526,34.242,12.191.823.844,1.967,1.566,2.411,1.225.281-.217-.2-1.171-.59-1.615m-63.123-7.149a11.57,11.57,0,0,0-4.033-3.328,46.348,46.348,0,0,1,12.2-5.776,40.1,40.1,0,0,1,2.017,5.188c-2.263.489-8.265,2.644-10.184,3.917m19.779-5.825a51.779,51.779,0,0,0-8.167,1.518c-.393-1.028-1.475-4.211-1.82-5.239a39.235,39.235,0,0,1,13.283-1.322c-1.082.832-2.9,4.113-3.3,5.042m11.76-.146a58.272,58.272,0,0,0-9.94-.1,11.356,11.356,0,0,1,3.691-4.8,51.791,51.791,0,0,1,7.627.931c7,1.381,17.891,5.651,22.581,11.944-6.251-4.174-16.642-7.459-23.958-7.979" transform="translate(-436.265 -1302.962)"/></g><g class="e"><path class="f" d="M528.389,1321.414c-.641-.736-1.527-2.3-7.873-7.834-9.331-8.134-21.7-11.847-33.308-11.847a48.046,48.046,0,0,0-24.354,6.491,46.785,46.785,0,0,0-16.037,13.874c-.8,1-.913,1.585-.394,1.885.369.214,1.083-.565,1.746-1.444a40.127,40.127,0,0,1,11.635-10.694c1.354.194,3.248,2.079,3.986,3.082a89.5,89.5,0,0,0-9.15,6.39c-1.509,1.17-2.031,1.824-1.623,2.3.337.4,1.491-.383,2.46-1.175a83.506,83.506,0,0,1,9.1-6.217c1.673,1.959,1.132,5.58.541,6.364-.318.42-.361.87,0,1.078.346.2.72-.3,1.206-1,1.141-1.648.683-5.639-.3-7.073a35.407,35.407,0,0,1,9.915-3.7c.221.415,3.382,9.653,3.986,11.33.328.921.655,2.02,1.327,1.812.447-.138.152-1.145-.222-2.155-.461-1.25-2.853-9.006-3.591-11.308a31.672,31.672,0,0,1,7.355-1.468c-.64,3.378,1.751,4.762,4.452,6.535,1.437.943,10.563,6.187,12.471,7.367,1.089.675,1.933,1.1,2.164.785.267-.366-.473-1.126-1.475-1.716-.8-.467-9.294-5.393-12.842-7.635-2.54-1.6-3.905-3.325-3.3-5.582a34.341,34.341,0,0,1,6.052-.245c18.1.148,32.619,10.526,34.242,12.191.823.844,1.967,1.566,2.411,1.225C529.26,1322.812,528.775,1321.858,528.389,1321.414Zm-63.123-7.149a11.57,11.57,0,0,0-4.033-3.328,46.348,46.348,0,0,1,12.2-5.776,40.1,40.1,0,0,1,2.017,5.188C473.188,1310.838,467.185,1312.993,465.266,1314.265Zm19.779-5.825a51.779,51.779,0,0,0-8.167,1.518c-.393-1.028-1.475-4.211-1.82-5.239a39.235,39.235,0,0,1,13.283-1.322C487.259,1304.229,485.438,1307.51,485.045,1308.44Zm11.76-.146a58.272,58.272,0,0,0-9.94-.1,11.356,11.356,0,0,1,3.691-4.8,51.791,51.791,0,0,1,7.627.931c7,1.381,17.891,5.651,22.581,11.944C514.511,1312.1,504.121,1308.815,496.8,1308.294Z" transform="translate(-436.265 -1302.962)"/></g><g class="e"><path d="M532.353,1382.253c.67-1.232,1.215-1.934.64-2.25-.524-.292-1.035.849-1.672,1.956-2.114,3.672-4.427,6.7-9.643,11.455a47.991,47.991,0,0,1-14.735,9.105c-1.968-5.53-9.471-29.09-9.668-29.763-.3-1-.546-1.294-.887-1.174-.379.135-.145.685.051,1.567s9.126,28.759,9.421,29.737a48.081,48.081,0,0,1-13.995,3.061c-4.479.147-9.743,0-12.4-.612-3.115-2.513-10.2-12.517-12.889-17.842a76.482,76.482,0,0,1-5.809-14.5c-.26-1.173-.591-2.016-1.179-1.9-.636.123-.272,1.048.1,2.3a81.809,81.809,0,0,0,5.808,14.319c3.5,6.9,9.739,15,11.558,17.208a49.694,49.694,0,0,1-19.224-8.779,55.471,55.471,0,0,1-13-13.544c-.42-.674-.914-1.626-1.525-1.223-.274.178.065.945.492,1.713,3.558,6.4,12.243,15.447,23.371,20.413,12.967,5.789,27.107,5.483,39.751.587,11.06-4.282,20.684-13.092,25.435-21.834" transform="translate(-436.313 -1301.819)"/></g><g class="e"><path class="f" d="M532.353,1382.253c.67-1.232,1.215-1.934.64-2.25-.524-.292-1.035.849-1.672,1.956-2.114,3.672-4.427,6.7-9.643,11.455a47.991,47.991,0,0,1-14.735,9.105c-1.968-5.53-9.471-29.09-9.668-29.763-.3-1-.546-1.294-.887-1.174-.379.135-.145.685.051,1.567s9.126,28.759,9.421,29.737a48.081,48.081,0,0,1-13.995,3.061c-4.479.147-9.743,0-12.4-.612-3.115-2.513-10.2-12.517-12.889-17.842a76.482,76.482,0,0,1-5.809-14.5c-.26-1.173-.591-2.016-1.179-1.9-.636.123-.272,1.048.1,2.3a81.809,81.809,0,0,0,5.808,14.319c3.5,6.9,9.739,15,11.558,17.208a49.694,49.694,0,0,1-19.224-8.779,55.471,55.471,0,0,1-13-13.544c-.42-.674-.914-1.626-1.525-1.223-.274.178.065.945.492,1.713,3.558,6.4,12.243,15.447,23.371,20.413,12.967,5.789,27.107,5.483,39.751.587C517.978,1399.8,527.6,1390.995,532.353,1382.253Z" transform="translate(-436.313 -1301.819)"/></g></g></g><rect class="g" width="200" height="200"/></svg>