<svg xmlns="http://www.w3.org/2000/svg" width="200" height="200" viewBox="0 0 200 200"><defs><style>.a{fill:#bec0c2;}.b{fill:#002d62;}.c{fill:#fdbb30;}.d{fill:none;mix-blend-mode:multiply;isolation:isolate;}</style></defs><g transform="translate(-1637.879 -946.645)"><path class="a" d="M1702.284,993.765l-23.405,106.443h46.4s5.19-21.166,5.6-23.1h20.148c15.061.1,27.374-4.986,35.719-14.755,15.162-16.486,12.517-40.6,1.119-54.341a42.177,42.177,0,0,0-33.072-15.366h-52.2Z" transform="translate(0)"/><path class="b" d="M1727.216,1072.678l-5.6,23.1h-37.855l21.878-99.015h48.744a37.941,37.941,0,0,1,29.918,13.84c10.787,13.025,11.906,34.8-1.12,48.845-7.937,9.261-19.64,13.433-32.462,13.331Z" transform="translate(0.305 0.257)"/><path class="c" d="M1699.566,1018.163h21.37c2.442,0,5.089,2.036,3.969,5.19a31.85,31.85,0,0,0-1.527,6.309c-.2,1.628,1.629,2.646,2.647,2.646h43.554q1.221,0,1.221-.611a16.657,16.657,0,0,0-.2-2.849c-.2-.916-.306-1.12-1.12-1.12-5.393,0-7.632-2.442-13.33-6.105s-14.043-5.8-21.268-5.8h-35.006Z" transform="translate(1.293 1.449)"/><path class="c" d="M1726.27,1045.256a32.907,32.907,0,0,1-1.934-5.291c-.509-2.239-2.443-4.07-5.8-4.07h-22.9l.61-2.545,74.286.1c.713,0,.611.305.509,1.12,0,.814-.2,2.34-.3,3.255s-.814.713-1.527.713c-1.73,0-4.782.407-6.614,1.832-3.053,2.34-9.668,6.41-13.33,7.53-3.97,1.119-18.725,5.7-23-2.646" transform="translate(1.048 2.545)"/><path class="c" d="M1691.809,1054.189h38.771a6.985,6.985,0,0,1,4.375,1.323,35.044,35.044,0,0,0,12.008,6c2.036.61,5.5-.2,8.65-1.934,7.734-4.375,12.721-12.721,14.45-18.114.407-1.425-.407-1.323-1.425-1.221-3.257.2-6.716,3.155-11.194,6.105-4.579,2.85-13.738,5.6-22.489,5.6h-42.537Z" transform="translate(0.808 2.973)"/><path class="c" d="M1746.428,1004.43a8.855,8.855,0,0,1,3.562.2c7.429,2.951,14.348,10.583,17.3,18.724.611,1.629.712,2.545,0,2.647-3.359.407-4.885-1.324-8.955-3.97a48.4,48.4,0,0,0-12.618-6.105c-4.986-1.527-14.043-1.832-15.163-1.832s-1.017-.509-.508-1.018A30.591,30.591,0,0,1,1746.428,1004.43Z" transform="translate(3.176 0.731)"/><path class="c" d="M1779.3,1031.437a.764.764,0,0,1-.713.713h-8.548c-1.119,0-1.119-.509-1.119-1.12a19.967,19.967,0,0,1-.2-2.646c0-.712-.3-1.527.611-1.934a12.838,12.838,0,0,0,5.6-5.291c.3-.712.814-1.73,1.424-.814C1778.488,1023.5,1779.1,1027.469,1779.3,1031.437Z" transform="translate(5.614 1.709)"/><path class="c" d="M1776.252,1045.865c-.1.306-.713.509-.815,0a13.466,13.466,0,0,0-6.207-6.716c-.61-.3-.61-.712-.61-1.323.1-.61.3-2.544.407-3.358,0-.611.3-1.12.814-1.12h8.853c.306,0,.713.306.713.509A28.051,28.051,0,0,1,1776.252,1045.865Z" transform="translate(5.61 2.545)"/><path class="c" d="M1754.219,1061.967c-.611.1-2.036-.1.1-1.323,6.411-3.766,12.211-12.518,13.738-17.6.611-1.934.611-2.036,1.425-1.832a9.46,9.46,0,0,1,3.764,3.255c1.222,1.629,1.731,4.885,1.018,5.7A30.367,30.367,0,0,1,1754.219,1061.967Z" transform="translate(4.646 3.031)"/><path class="c" d="M1770.578,1024.588c-1.526.814-1.832.61-2.137-.509-2.85-9.769-11.092-17.1-14.45-19.233-.611-.408-.509-.713,0-.611,8.039,1.119,15.977,5.5,19.946,11.5C1776.277,1019.194,1772,1023.774,1770.578,1024.588Z" transform="translate(4.67 0.723)"/></g><rect class="d" width="200" height="200"/></svg>