<svg xmlns="http://www.w3.org/2000/svg" width="200" height="200" viewBox="0 0 200 200"><defs><style>.a{fill:#fff;}.b{fill:#0d2b56;}.c{fill:#bd3039;}.d{fill:none;mix-blend-mode:multiply;isolation:isolate;}</style></defs><g transform="translate(-1025.307 -573.852)"><path class="a" d="M1169.008,687.017c-1.767-6.282-3.738-10.611-7.072-13.656,3.332-3.026,5.306-7.364,7.071-13.656,2.18-7.748,3.271-13.436,11.737-17.238-12.7-5.842-13.91-12.957-17.426-22.354-3.875-10.35-16.46-23.259-34.664-23.259a36.134,36.134,0,0,0-20.456,6.261,22.276,22.276,0,0,0-15.353-6.155,22.729,22.729,0,0,0-22.538,22.907,23.106,23.106,0,0,0,3.7,12.612c1.371-5.668,5.694-10.017,10.266-9.95,4.775.068,8.754,4.635,8.76,10.333l-.011,23.022c0,8.428-8.615,15.132-19.771,17.477,11.156,2.357,19.771,9.061,19.771,17.479l.01,23.033c-.006,5.688-3.985,10.254-8.76,10.331-4.572.068-8.895-4.291-10.266-9.949a23.087,23.087,0,0,0-3.7,12.591,22.727,22.727,0,0,0,22.538,22.918,22.187,22.187,0,0,0,15.353-6.158,36.1,36.1,0,0,0,20.455,6.254c18.2,0,30.789-12.88,34.668-23.263,3.514-9.364,4.724-16.491,17.424-22.341-8.467-3.782-9.558-9.471-11.738-17.239m-29.137,25.072c0,5.107-4.855,9.358-10.841,9.358-4.044,0-7.451-1.495-9.432-3.946V689.986c1.982-2.46,5.386-3.849,9.433-3.849,5.984,0,10.839,4.138,10.839,9.251,0,3.351-2.9,6.35-6.234,8.351,3.339,2,6.234,5.008,6.234,8.35m0-60.859c0,5.115-4.855,9.252-10.841,9.252-4.044,0-7.451-1.389-9.432-3.84V629.126c1.982-2.461,5.386-3.83,9.433-3.83,5.984,0,10.839,4.127,10.839,9.232,0,3.351-2.9,6.358-6.234,8.35,3.339,2.011,6.234,5.009,6.234,8.351"/><path class="b" d="M1128.672,618.209a18.718,18.718,0,0,0-16.128,8.553V659c3.076,5.087,9.142,8.545,16.128,8.545,10.085,0,18.253-7.222,18.253-16.109a14.658,14.658,0,0,0-2.781-8.552,14.686,14.686,0,0,0,2.782-8.561c0-8.9-8.168-16.109-18.252-16.109m13.726,33.222c0,6.369-6.159,11.57-13.728,11.57a14.463,14.463,0,0,1-11.6-5.373V628.122a14.486,14.486,0,0,1,11.6-5.372c7.57,0,13.728,5.18,13.728,11.568a10.846,10.846,0,0,1-4.487,8.561,10.786,10.786,0,0,1,4.487,8.552"/><path class="b" d="M1167.4,690.7c-1.385-4.079-1.863-11.922-9.687-17.343,7.823-5.412,8.3-13.254,9.687-17.323,2.264-6.61,3.759-10.67,8.566-13.533-17.128-9.921-8.858-18.933-23.065-33.145a34.106,34.106,0,0,0-44.929-2.911,20.158,20.158,0,0,0-34.011,20.247,11.384,11.384,0,0,1,10.142-6.7c6.321,0,11.449,5.621,11.449,12.526v22.925c0,2.4-.8,13.082-14.542,17.918,13.738,4.856,14.542,15.524,14.542,17.927V714.2c0,6.925-5.128,12.518-11.449,12.518a11.351,11.351,0,0,1-10.141-6.685,20.153,20.153,0,0,0,34.012,20.244,34.12,34.12,0,0,0,44.929-2.921c14.207-14.191,5.937-23.213,23.065-33.144-4.807-2.845-6.3-6.906-8.566-13.513m-8.879,28.557c-1.608,4.741-3.14,9.222-8.824,14.9-11.535,11.539-30.669,11.155-42.214-.383-2.475,5.381-8.274,8.734-14.566,8.734a15.639,15.639,0,0,1-15.352-12.757,14.76,14.76,0,0,0,6.536,1.506c8.806,0,15.978-7.653,15.978-17.057V691.282a22.8,22.8,0,0,0-9.371-17.927,22.8,22.8,0,0,0,9.371-17.918v-22.93c0-9.385-7.172-17.038-15.978-17.038a15.267,15.267,0,0,0-6.536,1.475,15.639,15.639,0,0,1,15.352-12.735c6.292,0,12.09,3.351,14.566,8.723,11.546-11.531,30.679-11.914,42.214-.374,5.684,5.679,7.216,10.153,8.825,14.9,1.743,5.094,3.534,10.343,10.076,15.514-2.648,3.285-3.988,7.23-5.477,11.588-.326.938-.574,1.971-.858,3.036-.794,3.141-3.935,11.416-10.715,15.754,6.78,4.359,9.921,12.614,10.716,15.755.284,1.082.532,2.1.858,3.036,1.488,4.367,2.829,8.322,5.476,11.6-6.542,5.179-8.333,10.418-10.076,15.514"/><path class="b" d="M1128.672,679.175a18.747,18.747,0,0,0-16.128,8.532v32.255c3.076,5.085,9.142,8.543,16.128,8.543,10.085,0,18.253-7.222,18.253-16.109a14.658,14.658,0,0,0-2.781-8.552,14.733,14.733,0,0,0,2.782-8.562c0-8.9-8.168-16.109-18.252-16.109M1142.4,712.4c0,6.378-6.16,11.569-13.728,11.569a14.488,14.488,0,0,1-11.6-5.373V689.085a14.464,14.464,0,0,1,11.6-5.372c7.57,0,13.728,5.181,13.728,11.569a10.847,10.847,0,0,1-4.488,8.562,10.812,10.812,0,0,1,4.488,8.551m10.934,28.894h.728v2h.465v-2h.733V740.9h-1.925m3.74,1.705-.652-1.705h-.675v2.394h.431v-1.858h.014l.709,1.859h.331l.708-1.858h.014v1.859h.424V740.9h-.659"/><path class="c" d="M1162.267,689.106c-.8-3.141-3.945-11.406-10.721-15.754,6.776-4.348,9.921-12.613,10.721-15.754.273-1.062.526-2.087.853-3.036,1.483-4.357,2.839-8.3,5.473-11.589-6.536-5.18-8.328-10.419-10.071-15.514-1.608-4.749-3.14-9.231-8.819-14.9-11.54-11.538-30.679-11.155-42.214.375-2.481-5.372-8.279-8.723-14.571-8.723a15.643,15.643,0,0,0-15.352,12.735,15.294,15.294,0,0,1,6.536-1.484c8.806,0,15.972,7.652,15.972,17.047v22.927a22.762,22.762,0,0,1-9.364,17.918,22.8,22.8,0,0,1,9.365,17.927V714.2c0,9.406-7.167,17.057-15.972,17.057a14.759,14.759,0,0,1-6.537-1.5,15.643,15.643,0,0,0,15.352,12.756c6.292,0,12.09-3.352,14.571-8.734,11.535,11.549,30.674,11.922,42.214.382,5.679-5.679,7.211-10.161,8.819-14.9,1.744-5.094,3.535-10.332,10.072-15.514-2.634-3.275-3.989-7.23-5.474-11.6-.326-.937-.579-1.952-.853-3.033M1146.924,712.4c0,8.887-8.173,16.109-18.252,16.109-6.986,0-13.053-3.458-16.128-8.543V687.706a18.748,18.748,0,0,1,16.128-8.532c10.079,0,18.253,7.211,18.253,16.108a14.732,14.732,0,0,1-2.781,8.562,14.633,14.633,0,0,1,2.782,8.551m0-60.965c0,8.887-8.173,16.108-18.252,16.108-6.986,0-13.053-3.457-16.128-8.542V626.762a18.716,18.716,0,0,1,16.128-8.553c10.079,0,18.253,7.211,18.253,16.108a14.689,14.689,0,0,1-2.782,8.562,14.654,14.654,0,0,1,2.783,8.551"/></g><rect class="d" width="200" height="200"/></svg>