<svg xmlns="http://www.w3.org/2000/svg" width="200" height="200" viewBox="0 0 200 200"><defs><style>.a{fill:#fff;}.b{fill:#e03a3e;}.c{fill:none;mix-blend-mode:multiply;isolation:isolate;}</style></defs><g transform="translate(-94.105 -651.646)"><path class="a" d="M274.713,751.454a80.8,80.8,0,1,1-80.8-80.808A80.8,80.8,0,0,1,274.713,751.454Z" transform="translate(0)"/><g transform="translate(124.79 676.527)"><path class="b" d="M192.914,676a75.238,75.238,0,0,0-60.432,30.325c2.01.577,5.805,1.661,10.473,3.009l-.021.014c7.386,2.174,31.887,9.36,36.467,10.822,13.376,4.292,16.891,5.974,20.662,10.006a101.422,101.422,0,0,0,15.066,12.605c5.592,3.9,8.318,8.18,8.318,14.943s-5.2,12.464-8.446,14.42c0,0,1.17-3.249-.391-4.674-1.56-1.44-6.49-4.16-19.1-3.252-12.6.912-29.493,7.02-40.923,13.125,0,0,5.454-8.578,13.641-12.475,0,0-6.757,0-44.473,16.445A75.362,75.362,0,1,0,192.914,676Zm0,134.078a58.551,58.551,0,0,1-41.97-17.648c30.427-15.7,49.373-11.647,49.373-8.588,0,3.109-4.677,10.387-4.677,10.387,24.81-3.507,42.879-18.448,42.879-38.581,0-20.153-18.846-29.891-23.653-32.875-5.141-3.2-2.73-7.542-19.618-13.908-10.275-3.869-24.7-7.691-30.344-9.136a58.728,58.728,0,1,1,28.01,110.348Z" transform="translate(-123.751 -676.004)"/><path class="b" d="M188.457,727.321a17.922,17.922,0,0,1-8.71-1.824c-4.417-2.208-11.17-7.145-17.019-1.693,0,0,4.937-.639,4.548.653s-.908,8.834,5.847,11.693S187.673,736.927,188.457,727.321Z" transform="translate(-119.946 -671.579)"/></g></g><rect class="c" width="200" height="200"/></svg>