<svg xmlns="http://www.w3.org/2000/svg" width="200" height="200" viewBox="0 0 200 200"><defs><style>.a{fill:#26245c;}.b{fill:#0d89a5;}.c{fill:#fff;}.d{fill:#9b9b9f;}.e{fill:none;mix-blend-mode:multiply;isolation:isolate;}</style></defs><g transform="translate(11 19.998)"><path class="a" d="M1070.192,738.2h-12.634v13.686l-7.58,3.685,7.58,4v12.107l8.422,5.159c3.053-.421,6.949-.948,11.581-1.369l32.32,18.635,5.9,27.056c0-.1,6-27.056,6-27.056l32.32-18.635c4.527.527,8.528.948,11.581,1.369l8.317-5.159V759.566l7.58-3.895-7.58-3.79V738.2h-12.634a28.772,28.772,0,0,0,4.422-6.106c1.053-1.79,2-4,3.158-6.527,9.16-2.738,15.9-8.633,18.845-14.318,7.9-14.318,13.792-32.005,13.792-32.005s-3.369,1.685-7.475,3.685c3.263-10.107,5.369-18.74,5.369-18.74s-36.216,24-64.535,46.533l-2.422-1.474c0-.21.1-2.21.1-2.421,0,0,.316-2.316-3.9-3.79a2.689,2.689,0,0,0-.737-.211c2-1.579,5.264-3.895,7.475-5.474,3.685-2.527,3.264-5.369,3.264-5.369l-13.476,10a30.484,30.484,0,0,0-18.95,0l-13.476-10s-.421,2.737,3.264,5.369c2.316,1.579,5.58,3.9,7.58,5.474a1.94,1.94,0,0,1-.737.211c-4.211,1.474-3.9,3.79-3.9,3.79,0,.211.1,2.211.1,2.421l-2.421,1.264c-28.32-22.53-64.536-46.533-64.536-46.533s2,8.633,5.369,18.739c-4.421-2.105-7.474-3.684-7.474-3.684s5.895,17.686,13.686,32c2.842,5.79,9.685,11.581,18.845,14.318,0,0,1.579,3.579,2.842,6.106A40.385,40.385,0,0,0,1070.192,738.2Z" transform="translate(-1026.922 -659.867)"/><g transform="translate(-1026.922 -659.867)"><path class="b" d="M1130.937,717.666c-.1.421-.316.842-.421,1.158,12.739-8.317,34.847-22.74,59.693-38.848,0,0,0,.527,2.21-5.9A594.655,594.655,0,0,0,1130.937,717.666Z"/><path class="b" d="M1100.617,717.666a564.763,564.763,0,0,0-61.588-43.585c2.106,6.316,2.211,5.9,2.211,5.9,24.846,16,47.059,30.531,59.8,38.848A3.759,3.759,0,0,1,1100.617,717.666Z"/><path class="b" d="M1115.777,730.51a20.605,20.605,0,0,1-10.844-10.633c2.632,2.316,6.106,3.053,8.949.421-3.369-1.474-3.79-7.475-4.422-9.054-1.368-3.159-3.369-4.843-5.053-5.475.842-.316,1.579-.526,2.211-.737a9.69,9.69,0,0,1,5.053,6.738s.316-4.422-1.9-7.58a24.741,24.741,0,0,1,12.107,0c-2.211,3.158-1.9,7.58-1.9,7.58a9.94,9.94,0,0,1,5.053-6.738c.737.211,1.474.527,2.211.737a9.636,9.636,0,0,0-5.053,5.475c-.632,1.579-1.053,7.58-4.422,9.054C1118.619,724.719,1117.672,729.036,1115.777,730.51Zm-38.216,8.422a32.847,32.847,0,0,1-9.791-12.634l2.422.737c8.106,2.106,23.687,4.317,23.687,4.317-7.475.21-13.9.737-17.476,1.158a14.635,14.635,0,0,1-2-2.948,26.087,26.087,0,0,0,.947,4.632h0A37.056,37.056,0,0,0,1077.561,738.932Z"/><path class="b" d="M1156.1,734.089h0a26.145,26.145,0,0,0,.948-4.632,12.2,12.2,0,0,1-2,2.948,173.734,173.734,0,0,0-17.476-1.158s15.475-2.106,23.687-4.317l2.421-.737a32.782,32.782,0,0,1-9.79,12.634C1154.1,738.932,1155.256,736.721,1156.1,734.089Z"/><path class="b" d="M1096.406,777.464l-15.792-9.16c-1.158.106-2.211.211-3.264.316l22,12.739A25.282,25.282,0,0,1,1096.406,777.464Z"/><path class="b" d="M1135.148,777.464l15.792-9.16c1.158.106,2.211.211,3.263.316l-22,12.739A16.515,16.515,0,0,0,1135.148,777.464Z"/><path class="b" d="M1108.723,779.674c-6.948-1.579-9.9-4.948-9.9-4.948a18.63,18.63,0,0,0,6.212,7.159C1105.144,781.885,1108.092,780.938,1108.723,779.674Z"/><path class="b" d="M1104.512,772.094l-1.579-1.579a17.743,17.743,0,0,0-4.211,2.211c1.579,1.474,4.527,3.369,9.791,4.527C1107.986,775.674,1106.3,773.989,1104.512,772.094Z"/><path class="b" d="M1115.672,788.623a10.568,10.568,0,0,0-4.527,1.158c-.632-1.158-1.264-2.1-1.9-3.158a14.242,14.242,0,0,0,3.684-.1,31.756,31.756,0,0,1-5.9-2.843h0c.21-.1.526-.21.737-.316h0a5.817,5.817,0,0,0,2-1.474,3.929,3.929,0,0,0,1.263-2.737c0-3.474-2.316-4.632-4.948-7.159-.526-.526-1.158-1.053-1.684-1.684a43.322,43.322,0,0,1,10.107-1.264l1.052,14.634h.106l1.158-14.634a44.147,44.147,0,0,1,10.106,1.264c-.631.526-1.158,1.158-1.684,1.684-2.632,2.527-4.948,3.79-4.948,7.159a3.739,3.739,0,0,0,1.263,2.737,8.113,8.113,0,0,0,2,1.474h0c.21.106.526.211.736.316h0a23.823,23.823,0,0,1-5.895,2.843,10.538,10.538,0,0,0,3.685.1,31.235,31.235,0,0,0-1.9,3.158,10.079,10.079,0,0,0-4.527-1.158Z"/><path class="b" d="M1126.515,781.885a19.306,19.306,0,0,0,6.212-7.159s-2.843,3.475-9.9,4.948C1123.462,780.938,1126.515,781.885,1126.515,781.885Z"/><path class="b" d="M1122.936,777.358c5.369-1.158,8.212-3.053,9.791-4.527a11.311,11.311,0,0,0-4.211-2.21l-1.58,1.579C1125.252,773.989,1123.568,775.674,1122.936,777.358Z"/></g><g transform="translate(-1026.922 -659.867)"><path class="c" d="M1111.039,720.613a7.7,7.7,0,0,1-2.947-5.369S1104.723,720.929,1111.039,720.613Z"/><path class="c" d="M1120.725,720.613a7.7,7.7,0,0,0,2.948-5.369S1126.936,720.929,1120.725,720.613Z"/><path class="c" d="M1118.83,793.992c-.421-.526-1.158-1.052-3.158-1.052a4.391,4.391,0,0,0-3.159.947l3.264,13.054Z"/><path class="c" d="M1140.623,736.826v4.738h-1.685v-4.738h-1.368v-1.474h4.211v1.369l-1.158.1Z"/><path class="c" d="M1133.148,736.826v4.738h-1.685v-4.738h-1.368v-1.474h4.316v1.369l-1.263.1Z"/><path class="c" d="M1110.618,739.458h.632V736.2l-.737-.737h-4.106v6.106h1.579v-2.106h1.158l.948,2.106h1.579Zm-.842-1.474h-1.79v-1.263h1.79Z"/><path class="c" d="M1149.887,736.826v-1.474h-4.527v6.211h4.527V740.2h-3.053v-.948h3.053v-1.474h-3.053v-.948Z"/><path class="c" d="M1116.619,740.2v-4.843h-1.579v6.211h3.79V740.2Z"/><path class="c" d="M1125.989,735.352h-4.106v5.475l.737.737h4.106v-5.475Zm-.842,4.843h-1.79v-3.369h1.79Z"/><path class="c" d="M1102.828,741.564v-5.475l-.737-.737h-4.106v6.107h1.579v-2h1.79v2h1.474Zm-3.264-3.369v-1.474h1.79V738.2Z"/><path class="c" d="M1093.142,735.352v2.842h-1.79v-2.842h-1.474v6.211h1.474v-2h1.79v2h1.474v-6.211Z"/><path class="c" d="M1185.155,691.873c2.948-6.949,5.264-12,5.264-12-24.846,16.107-46.954,30.53-59.693,38.847a29.742,29.742,0,0,1-1.684,3.685l50.112-27.267L1140.1,723.351l1.9-.316,20.635-2s14-1.369,21.792-11.792c3.685-5.685,9.9-22,9.9-22Z"/><path class="c" d="M1065.559,757.25l4.843-2v10.844c1.369-.211,2.737-.422,4.211-.527v-24H1070.4V750.2l-4.843,2V741.564h-4.211v12.423s-3.474,1.684-3.474,1.789l3.474,1.79v10.107c1.369-.211,2.737-.527,4.211-.737Z"/><path class="c" d="M1098.511,757.145c1.053,0,2-.105,3.159-.105.842,2,1.579,4.316,2.316,6.316,1.474,0,2.737-.105,4.211-.105-.842-2-1.579-4.316-2.316-6.317h1.684v-9.9l-1.895-1.9h-12.949l1.684,2v16.633c1.474-.1,2.738-.1,4.212-.21v-6.422Zm0-8h4.843v3.79c-1.684,0-3.158,0-4.843.1Z"/><path class="c" d="M1115.04,749.144h4.843v14.107c1.474,0,2.948,0,4.421.105V747.249l-2-2h-13.16l1.685,2v16.107h4.316C1115.04,763.251,1115.04,749.144,1115.04,749.144Z"/><path class="c" d="M1140.2,759.882c-2.737-.105-5.474-.316-8.211-.421v-2.948l8.211.316v-4.211c-2.737-.1-5.474-.1-8.211-.211v-3.158h8.211v-3.9h-14.212l1.579,2v16.213c4.316.1,8.633.316,12.739.632v-4.317Z"/><path class="c" d="M1150.94,749.144h3.685v-3.895h-12v3.895h3.685v15.265c1.579.1,3.053.211,4.632.421Z"/><path class="c" d="M1091.142,747.249l-2-2h-12.95l1.58,1.895v15.791l1.684,2c3.685-.422,7.685-.737,11.686-.948Zm-4.317,12.844c-1.684.1-3.158.21-4.842.316V749.144h4.842Z"/><path class="c" d="M1169.89,757.356c1.369-.632,2.632-1.264,3.9-1.9-4.211-2-8.422-3.685-12.738-5.37v-4.842h4.526v1.789h4.317v-5.579h-14.528l1.684,1.9v10l8.738,3.79v5.58s-2-.211-4.527-.632V760.3l-4.211-.526v5.685q6.948.789,12.949,1.9C1169.89,764.3,1169.89,759.672,1169.89,757.356Z"/><path class="c" d="M1084.93,739.564v.632h-1.474v-3.369h1.474v.421h1.474v-1.9h-4.527v5.474l.737.737h3.79v-2Z"/><path class="c" d="M1046.5,691.873c-3.053-6.949-5.264-11.9-5.264-11.9,24.846,16.108,46.954,30.531,59.693,38.848a29.933,29.933,0,0,0,1.684,3.684l-50.007-27.267,39.058,28.215-1.9-.316-20.634-2s-14-1.369-21.793-11.791c-3.685-5.685-9.9-22-9.9-22Z"/></g><path class="d" d="M1200.631,687.03a215.481,215.481,0,0,1-11.9,26.109c-4.422,7.58-13.265,12.107-18.424,13.9,0,0-2.527,6.107-5.159,9.475h10.528v14.318l10.107,4.843-10.107,5.053v12.107l-9.791,6s-7.79-.947-11.58-1.368l-30.952,17.9c-6.106,28-7.685,36.11-7.685,36.11s-1.474-7.685-7.686-36.11l-30.951-17.9c-3.79.421-11.581,1.368-11.581,1.368l-9.791-6V760.724l-10.107-5.053,10.107-4.843V736.405h10.528c-2.527-3.158-5.159-9.475-5.159-9.475a41.509,41.509,0,0,1-8.738-4.106,30.737,30.737,0,0,1-9.791-9.685,235.713,235.713,0,0,1-11.58-26.109c-1.79-4.527-4-11.476-4-11.476s5.791,2.738,7.475,3.58c-2.737-8.317-5.159-19.266-5.159-19.266h0s39.585,26.109,67.378,48.323l.421-.316V706.4a5.3,5.3,0,0,1,.211-1.579,6.1,6.1,0,0,1,2.632-3.053c-2-1.579-5.79-4-6.106-4.422-2.632-2.316-3.159-4.948-2.948-6.211l.421-2.948,15.055,11.159a31.162,31.162,0,0,1,18.318,0l15.055-11.159.421,2.948c.211,1.368-.21,3.9-2.948,6.211-.315.316-4,2.843-6.106,4.422a5.6,5.6,0,0,1,2.632,3.053,5.3,5.3,0,0,1,.211,1.579v1.474l.421.316c28.425-22.74,67.378-48.323,67.378-48.323h0s-2,9.054-5.159,19.266c1.579-.737,7.475-3.58,7.475-3.58A74.4,74.4,0,0,1,1200.631,687.03ZM1070.192,738.2h-12.634v13.686l-7.58,3.685,7.58,4v12.107l8.422,5.159c3.053-.421,6.949-.948,11.581-1.369l32.32,18.635,5.9,27.056c0-.1,6-27.056,6-27.056l32.32-18.635c4.527.527,8.528.948,11.581,1.369l8.317-5.159V759.566l7.58-3.895-7.58-3.79V738.2h-12.634a28.772,28.772,0,0,0,4.422-6.106c1.053-1.79,2-4,3.158-6.527,9.16-2.738,15.9-8.633,18.845-14.318,7.9-14.318,13.792-32.005,13.792-32.005s-3.369,1.685-7.475,3.685c3.263-10.107,5.369-18.74,5.369-18.74s-36.216,24-64.535,46.533l-2.422-1.474c0-.21.1-2.21.1-2.421,0,0,.316-2.316-3.9-3.79a2.689,2.689,0,0,0-.737-.211c2-1.579,5.264-3.895,7.475-5.474,3.685-2.527,3.264-5.369,3.264-5.369l-13.476,10a30.484,30.484,0,0,0-18.95,0l-13.476-10s-.421,2.737,3.264,5.369c2.316,1.579,5.58,3.9,7.58,5.474a1.94,1.94,0,0,1-.737.211c-4.211,1.474-3.9,3.79-3.9,3.79,0,.211.1,2.211.1,2.421l-2.421,1.264c-28.32-22.53-64.536-46.533-64.536-46.533s2,8.633,5.369,18.739c-4.421-2.105-7.474-3.684-7.474-3.684s5.895,17.686,13.686,32c2.842,5.79,9.685,11.581,18.845,14.318,0,0,1.579,3.579,2.842,6.106A40.385,40.385,0,0,0,1070.192,738.2Z" transform="translate(-1026.922 -659.867)"/></g><rect class="e" width="200" height="200"/></svg>