<svg xmlns="http://www.w3.org/2000/svg" width="200" height="200" viewBox="0 0 200 200"><defs><style>.a{fill:#0d2240;}.b{fill:#ffa400;}.c{fill:#2b5134;}.d{fill:none;mix-blend-mode:multiply;isolation:isolate;}</style></defs><g transform="translate(-1328.381 -1877.029)"><path class="a" d="M1349.38,1990.134a30.123,30.123,0,0,0,9.112,20.152,28.838,28.838,0,0,0,9.777-20.152Z" transform="translate(0 9.318)"/><path class="b" d="M1369.491,1990.134a31.417,31.417,0,0,1-10.376,21.948,30.261,30.261,0,0,0,17.625,6.718v-28.6h-7.25Z" transform="translate(1.372 9.318)"/><path class="a" d="M1349.38,1990.316h18.889a28.518,28.518,0,0,0-9.777-20.352,29.88,29.88,0,0,0-9.112,20.352" transform="translate(0 6.475)"/><path class="b" d="M1359.115,1969.22a31.348,31.348,0,0,1,10.376,22.148h7.182V1962.5a30.224,30.224,0,0,0-17.558,6.717" transform="translate(1.372 5.423)"/><path class="a" d="M1404.285,1990.134h-18.822a28.715,28.715,0,0,0,9.777,20.152,30.052,30.052,0,0,0,9.046-20.152" transform="translate(5.086 9.318)"/><path class="c" d="M1384.019,1990.134h-7.183v28.6a29.561,29.561,0,0,0,17.625-6.717,31.191,31.191,0,0,1-10.442-21.881" transform="translate(3.87 9.318)"/><path class="c" d="M1394.462,1969.22a30.251,30.251,0,0,0-17.625-6.717v28.865h7.183a31.408,31.408,0,0,1,10.442-22.148" transform="translate(3.87 5.423)"/><path class="a" d="M1428.1,1924.03l-26.67,61.122a29.083,29.083,0,0,0-6.252-8.713,28.652,28.652,0,0,0-9.777,20.352h18.888l19.288-44.229h56.4l12.438-28.532Z" transform="translate(5.078 0)"/><path class="c" d="M1477.29,1952.562l12.437-28.532h-5.321l-12.437,28.532Z" transform="translate(17.279)"/></g><rect class="d" width="200" height="200"/></svg>