<svg xmlns="http://www.w3.org/2000/svg" width="200" height="200" viewBox="0 0 200 200"><defs><style>.a{fill:#fff;}.b{fill:#ffb612;}.c{fill:#5b2b2f;}.d{fill:#0a0a08;}.e{fill:none;mix-blend-mode:multiply;isolation:isolate;}</style></defs><g transform="translate(-405.67 -2106.008)"><path class="a" d="M472.1,2255.353a4.516,4.516,0,0,1-1.874-.135,20.881,20.881,0,0,0,.884,4.468l-.733.9.883.679c-.952,6.586,1.847,11.118,3.137,15.533a3.955,3.955,0,0,1-3.057-.192c.34,3.735.029,10.93-2.995,14.053-.577-.372-.992-.476-1.216-.814a31.92,31.92,0,0,0-1.711,4.142,40.106,40.106,0,0,0-1.19,7.026,16.125,16.125,0,0,1-7.641-6.735,10.811,10.811,0,0,0-2.254-3.054,3.529,3.529,0,0,1-.972,1.37,7.857,7.857,0,0,1-2.343,1.29,17.624,17.624,0,0,0-1.732-5.057c-.944-2.07-4.179-4.82-6.826-11.542a32.223,32.223,0,0,1-2.078-7.534,2.5,2.5,0,0,1-.476.2c-.985.27-1.691.2-2.031-.543a8.4,8.4,0,0,1-2.75,4.106,5.566,5.566,0,0,1-1.222,2.682,8.7,8.7,0,0,0-1.651,3.835c-.918,2.343-2.29,3.5-2.493,4.107-.34-.748-.476-.61-.814-1.153-3.328,4.41-3.736,5.566-11.275,7.127,1.9-3.735,3.194-9.979,3.056-11.269-.951-8.758-1.832-10.592-2.314-17.381a143.508,143.508,0,0,1-.333-22.878c.814-13.442,4.616-25.051,7.876-33.808,4.212-12.22,13.855-31.908,20.893-43.936l.027-10.916h2.717l2.85-6.518,1.291.952,4.891-13.036,3.463,9.844,5.92-3.738c2.366-2.169,19.21-26.471,54.878-26.42,34.56-.051,70.149,26.967,70.149,70.146a69.477,69.477,0,0,1-69.061,69.517c-28.674,0-47.147-14.6-56.942-27.973.624,6.722-.68,20.1,5.065,32.654"/><path class="b" d="M525.049,2114.428a66.591,66.591,0,1,1-62.2,42.71h-9.006v-2.178l9.883-.014a66.644,66.644,0,0,1,61.319-40.518Zm0,123.9a57.3,57.3,0,1,0-57.327-57.3A57.317,57.317,0,0,0,525.049,2238.326Z" transform="translate(-2.077 -0.196)"/><path d="M490.336,2176.652a.659.659,0,0,0,.067-.612c-.272-.136-.541.407-.541.407a4.637,4.637,0,0,1-.85.95,10.838,10.838,0,0,1,1.391-5.293c-.814.407-3.668,4.14-3.668,4.14-1.357,1.63-2.307,2.649-2.307,2.649a15.851,15.851,0,0,0-1.833,2.782,17.012,17.012,0,0,1,.543-2.851c-2.512,1.835-5.23,7.739-5.23,7.739-.338-2.24.2-4.209.407-6.244,3.056-13.374,9.236-21.113,9.236-21.113a68.085,68.085,0,0,1,11.548-11.338c2.512-1.7,7.065-4.685,9.1-6.72a69.28,69.28,0,0,1,6.113-4.346,22.418,22.418,0,0,1,5.908-2.307s2.8-.514,4.211-.816c4.348-1.221,10.731-1.019,12.769-.271,1.222.137,1.222.137,2.919.34a18.068,18.068,0,0,1,12.769,7.265,5.087,5.087,0,0,0,1.493,2.375c2.175,2.58,3.4,3.19,4.211,4.209a25.222,25.222,0,0,1,2.515,3.735,20.428,20.428,0,0,0,3.462,5.431c1.7,1.765,2.039,4.345,1.089,5.769-1.223,1.224-.476,2.444,1.153,3.192,2.718,2.24,2.922,3.868,4.212,7.127,1.086,3.056,2.175,4.684,2.717,7.4.206,3.26-1.224,3.939-2.208,4.482a8.117,8.117,0,0,1-3.3.338c-.372-.136-.881-.271-.881-.271a8.055,8.055,0,0,1,1.493,5.5c-.032.509-.271.61-.271.61a2.3,2.3,0,0,1-1.12.169c-.918.238-.373.85-.373.85,1.017.61.271,1.832.271,1.832a9.9,9.9,0,0,0-1.765,2.851c-.477.816.338,3.463.338,3.463.814,2.918-.407,4.208-.407,4.208a8.459,8.459,0,0,1-2.786,1.969,11.426,11.426,0,0,1-3.123-.136,25.7,25.7,0,0,0-3.531.813c-2.379.409-4.106,1.123-7.2.679-1.426-.2-1.149,1.895-1.155,2.173a17.8,17.8,0,0,1-.679,5.161c-.475,2.513-1.087,6.177-1.087,6.177-.543,7.908.067,10.013.067,10.013,0,.305-.27.172-.27.172-5.706,0-13.857-3.53-13.857-3.53a79.313,79.313,0,0,0-14.331-6.654c-8.189-2.365-13.515-1.493-21.6,0l-.476-.408c5.432-4.955,9.779-9.5,10.323-17.99.068-2.648.068-6.923-2.174-9.708l-.543-.611a10.148,10.148,0,0,1-2.717,6.586c.476-2.782-.476-2.648-.476-2.648a29.5,29.5,0,0,1-4.413,7.4l-.545-.273c-.477,1.359-1.16,2.535-1.427,3.6a12.055,12.055,0,0,1-1.9,3.327,13.422,13.422,0,0,0-.545-2.649,25.47,25.47,0,0,1-2.444,5.024,11.925,11.925,0,0,0-1.833,3.6c-3.194-8.079,1.019-22.2,1.019-22.2-.51-.578-1.969,2.784-1.969,2.784-.2-8.964,4.482-20.3,4.482-20.3Zm40.337,24.783c-.175-.679-1.276-.618-2.056-.537a8.973,8.973,0,0,0-3.44.941c.765-1.15,1.7-1.222,3.479-1.9.407-.156.309-.868.049-1.287a1.08,1.08,0,0,0-.838-.531,4.491,4.491,0,0,0-2.712.253,13.474,13.474,0,0,0-6.812,4.668,1.263,1.263,0,0,0-.2,1.291c.27.37.7,1.394.813,1.271,1.093-1.181,2.417-2.269,3.843-1.93a6.653,6.653,0,0,0-3.43,2.863,1.8,1.8,0,0,0,.68.975c.543.916.747,1.289,1.051,1.458.2-.016.594-.414.7-.585,1.505-2,3-3.215,7.143-3.759,1.19-.2,1.868-.543,1.969-1.631a2.2,2.2,0,0,0-.238-1.628l-.006.072Zm-4.951,6.308a6,6,0,0,0,.208,2.143c.276.631.852,1.175,1.072,1.822.17.495.757,1.128.757,1.467a1.063,1.063,0,0,1,.311.515c.358.469,1.424,1.042,1.052,1.321-.445.337-1.768.1-2.567-.032-1.023-.169-.429.762-.208.856,1.039.429,3.224.575,3.941.97a2.76,2.76,0,0,1,1.182,1.028,4.643,4.643,0,0,0,.592.872,9,9,0,0,0,1.645,1.909c.357.289.771.787.643,1.232-.15.521-.478.632-.978.563a5.963,5.963,0,0,1-1.129-.372c-.952-.305-1.157-.653-1.832-.305-.374.191.167.817.583,1.04,1.711.91,3.762.928,5.416,1.889a3.848,3.848,0,0,1,2.2,3.937c0,.038.511.324.542.275.492-.76,1.714.185,2.307,0,.053-.016.076-.334-.011-.469-.284-.427-.892-.448-1.149-.862-.273-.435.123-.909-.014-1.289s-.8.284-1.045.029c-1.09-1.131-1.8-2.472-3.265-3.124a11.222,11.222,0,0,0,.747-4.481c-.407-.338-.578.2-.679.273-.336.318-.2,1.016-.6,1.551-.063.089-.588-.018-.74-.151a8.009,8.009,0,0,1-2.4-3.072c-.018-.045-.219-.295-.262-.354a2.875,2.875,0,0,1,.162-3.5c.092-.108.226-.746.136-.817-.143-.114-.487.126-.625.268-.465.474-.86,1.422-1.649,1.338-.885-.094-1.224-.988-1.77-1.576-.171-.579-.495-.949-.409-1.018a26.8,26.8,0,0,1-1.5-3.326,1.013,1.013,0,0,0-.672-.547Zm-16.64-64.627s-1.359-.138-4.551,2.307c-3.531,2.174-8.218,5.3-11.614,9.438-2.48,2.476-5.977,6.246-7.268,8.892a32.629,32.629,0,0,0-3.465,8.758s.477,1.764,1.836-.543c2.374-4.035,11.409-17.615,24.314-27.53l.612-.033c-6.39,5.5-14.672,12.9-22.72,25.491-.3.47-.689,1.3-.726,1.366-.36.671.563.776.1.662.731.179,1-.839,1.476-1.042.291-.125.409.746.874.52a10.007,10.007,0,0,0,3.544-3.508,7.626,7.626,0,0,0,.407,1.155c.747.2,3.056-2.989,4.279-5.161.339.407-.085,1.4.368.975a19.106,19.106,0,0,0,3.383-4.018c.867-1.505,1.817-2.184,2.158-4.832a2.367,2.367,0,0,1,.681.61,14.772,14.772,0,0,1,.9-1.441c.589-.662.706-1.178,1.421-1.65a4.423,4.423,0,0,0,.93-1.782c.107-.526,1.278-2.232,1.359-2.8.952-1.765,2.582-2.716,3.736-4.073,1.086-.95.271-2.647-2.037-1.764Zm-11.954,53.02c.476.543.883-.17.883-.17a10.147,10.147,0,0,0,1.495-3.087c.339-1.053.747-1.427,1.085-5.84a10.184,10.184,0,0,1,1.088,4.142l.271-.069s.884-2.511,2.377-3.326a6.437,6.437,0,0,1,1.629-3.394c-.2-1.019-.338-1.833-.543-3.463a29.374,29.374,0,0,1-.338-10.385c1.224,6.515,1.935,7.467,1.935,7.467l.273.1a8.58,8.58,0,0,0,.779-3.36c.612-2.581,1.7-2.307,1.7-2.851a31.553,31.553,0,0,1-.543-8.282,11.59,11.59,0,0,0,1.493,4.073c.612,1.425.679-.34.679-.34-.135-1.832,1.156-3.667-.067-7.941-.476-2.921-1.835-9.167-1.29-10.592.34-1.766-.271-1.155-.271-1.155s-1.766.409-4.415,7.876c-3.87,12.423-7.2,25.662-10.8,36.387,1.084-5.636,6.858-25.526,8.556-32.721,0,0-.238-.509-.612.067a9.842,9.842,0,0,0-1.12,1.6,1.228,1.228,0,0,0-.477.17l-.846,1.289a75.033,75.033,0,0,1-6.352,7.2,21.368,21.368,0,0,0-1.97,3.735c-.305.712.171.814.68.405a23.6,23.6,0,0,1,3.055-2.543c.078-.06,1.476-.561,1.476-.584a4.121,4.121,0,0,1-.625.571,16.733,16.733,0,0,0-1.975,2.338c-.787,1.364-1.653,3.06-2.786,5.115a45.364,45.364,0,0,0-2.507,5.559c-.747,2.1-.543,2.307-.543,2.307,1.019.409.464.925.464.925-.464.841-.668,1.519.114,1.215a1.6,1.6,0,0,0,.992-.626c.4-.494.74-.834,1.014-1.177.458-.567.372-.738.86-1.3a5.941,5.941,0,0,1,1.685-1.649,5.55,5.55,0,0,0-1.19,2.613l.271.342.2.134a10.648,10.648,0,0,0-1.7,4.656,22.611,22.611,0,0,1-.444,2.573,2.688,2.688,0,0,0,1.383-.606,10.338,10.338,0,0,0-.313,1.422,6.244,6.244,0,0,0-.118,1.527c0,.816,0,.476.272,1.424a4.962,4.962,0,0,0,2.645-1.83c.548-.512.962-1.753,1.124-1.667.306.138.051.827-.085,1.135a6.81,6.81,0,0,0-.421,1.051c-.037.156-.19.387.057.6.108.091.033.079.382.07.2,0,.393-.318.393-.318s.116-.027.219-.264a1,1,0,0,1,.373-.407.492.492,0,0,1,.441-.136Zm32.085-52.708c-.208-.224-.939-.108-1.07-.417a1.6,1.6,0,0,0-.32-.56c-.225-.179-.539.067-.85.114a2.78,2.78,0,0,1-1.285-.161c-.733.838-2.678.285-3.6.348-.112.006.577.4.7.505a4.11,4.11,0,0,0,2.488.526,3.688,3.688,0,0,0,.485-.142,8.524,8.524,0,0,1,2.57.325c.279.051,1.151-.24.877-.537Zm18.113.767c-.545-.35-.608-1.026-.9-1.531a2.211,2.211,0,0,0-.876-.881c-1.6-.827-3.457-2.265-4.647-2.153a.393.393,0,0,0-.313.642c.409.4,1.133.533,1.2,1.181,1.591.793,4.381,1.323,4.253,3.06C546.022,2144.681,547.055,2144.156,547.326,2144.194Zm-4.915.414-2.018-1.154a2.762,2.762,0,0,0-.469-.617c-.452-.415-.691-.907-1.212-1.236a11.459,11.459,0,0,0-2.024-1.293c-.082-.029-.179,0-.269-.016a.1.1,0,0,1-.069-.129c-.068,0-.16.024-.191-.012a.885.885,0,0,0-.366-.216c-.393-.128-.846.1-1.191-.2a4.877,4.877,0,0,0-.649-.419,2.65,2.65,0,0,0-1.941-.051,1.343,1.343,0,0,0-.454.31c-.246.208-.644-.173-.97-.064-.283.094-.594.423-.326.7a2.321,2.321,0,0,0,1.076.592c1.171.294,2.4.007,3.5.493a1.289,1.289,0,0,1,.833.7c-.111.026-.228.127-.328.055a1.5,1.5,0,0,0-.83-.212,25.382,25.382,0,0,0-5.566-.047c0,.472.19.972.619,1.031.574.076,1.2-.1,1.75-.063a5.017,5.017,0,0,1,1.852.78.4.4,0,0,0,.323,0c.271-.115.507-.506.808-.364a2.165,2.165,0,0,0,.575.2c.422.074.728,0,1.133.056.857.129,1.585.7,2.439.578a1.307,1.307,0,0,1,1.24.407c-.179-.161,1.171.8,1.292.566.047-.094,1.412-.17,1.432-.379Z" transform="translate(-3.451 -1.251)"/><path class="c" d="M543.508,2145.133a2.028,2.028,0,0,0,.822.036,3.447,3.447,0,0,0,1.156-.128c.695-.172,1.249.235,1.772-.1-.013.169,1.019-.356,1.29-.319l-.121-.089a4.794,4.794,0,0,0,1.576.333c1.323.171,3.87.017,4.524.252a6.95,6.95,0,0,1,2.989,2.014c.179.175,1.235,1.244,1.4,1.458a19.584,19.584,0,0,1,1.784,2.6,15.084,15.084,0,0,1,1.725,3.825c.188,1,1.134,1.377,1.866,2.11a9.049,9.049,0,0,1,1.667,2.109,2.5,2.5,0,0,1,.1,2.249,1.439,1.439,0,0,1-1.7.466,5.907,5.907,0,0,0-.708-.287,4,4,0,0,0-1.687-.134c-.2.016-.484.26-.642.323-.676.264-1.339.561-1.984.864-.172.082-.494.173-.55.417-.12.51.476.4.765.523.344.146.156.622,0,.95-.016.032-.175.072-.222.11a4.7,4.7,0,0,0-1.433,1.337l-.06.377c-.37.2-.769-.045-.633-.418a.271.271,0,0,0-.436-.126,2.647,2.647,0,0,0-.358.561c-.1.2-.36-.3-.627.042-.317.4.1.624.37.711a.776.776,0,0,0-.114.256c-.006-.1-.319.634.073.669.312.027.279.027.55-.244.306-.136.35.209.445.419.12.257-.056.584.1.867.057.1.132.219.208.247a1.829,1.829,0,0,1,.8.733,2.455,2.455,0,0,0,.527.478c.047.036.081.239.121.28a6.389,6.389,0,0,0,.73.61c.431.321,1.344.1,1.264-.521-.065-.486-.565-.738-1.026-1.085-.342-.258-.59-.6-.909-.891a.421.421,0,0,1,.127-.638.885.885,0,0,1,.8-.058c.38.2.617.849,1.113,1.084a1.65,1.65,0,0,0,.744.234c.163.026.384.061.469-.076a.626.626,0,0,0,.092-.19c-.1-.136.067-.136-.1-.39s-.339-.364-.122-.583c.123-.123.238-.247.4-.247.237-.271.41-.511.638-.179.243.349.337.535.554.642a.432.432,0,0,0,.448-.143c.675-.88.679-2.041,1.471-2.571.013-.009.285.011.285.01.746.815,1.866.986,3.226,2.954a11.81,11.81,0,0,1,1.424,3.054c.476,1.019.884,2.208,1.089,2.783a17.982,17.982,0,0,0,1.493,3.6,4.7,4.7,0,0,1,.441,4.717,3.1,3.1,0,0,1-2.275,1.462,2.925,2.925,0,0,1-1.664-.273,6.379,6.379,0,0,1-1.7-1.6,2.792,2.792,0,0,0-2.208-.576,1.921,1.921,0,0,0-.647.781c-.3.713-1.526.713-2.341.032-1.969-1.423-.068-3.731.61-4.378-.338-.2-.407-.1-.846-.1-.918.4-1.022,1.865-1.394,2.509a13.381,13.381,0,0,0-1.766,3.125,20.351,20.351,0,0,0-1.564,2.172l.545.068a5.2,5.2,0,0,0,1.935-2c.34-.407.544-.678,1.19-.646a6.033,6.033,0,0,0,4.413,1.021c.748.032,1.156.642,1.666,1.12a5.144,5.144,0,0,1,1.528,4.648,14.618,14.618,0,0,0-2.717-.032c-.59.229-1.4.36-2.1.678a7.34,7.34,0,0,1-2.513-.067,4.39,4.39,0,0,0-1.155,1.731l.407.238c.305-.273.849-.647.849-.647a6.513,6.513,0,0,1,1.868.069,12.906,12.906,0,0,1,2.681.238c1.122.305,1.6.95.782,1.865a18.611,18.611,0,0,0-1.7,2.446,2.515,2.515,0,0,0,.339,2.341,21.855,21.855,0,0,1,.679,3.022c.2,1.356-.782,1.8-.918,2.136l-1.052.782a2.623,2.623,0,0,1-1.9-.069,9.416,9.416,0,0,0-3.258-.61c-2.107.34-5.572-.95-6.861-1.631a12.711,12.711,0,0,0-6.249-1.832,9.773,9.773,0,0,1-3.329-.543c-3.668-.813-5.773-1.356-8.354-3.733-1.222-1.087-.543-1.9.681-3.394A42.411,42.411,0,0,0,541,2169.948a22.887,22.887,0,0,1,.68-7.129,32.233,32.233,0,0,0,1.357-6.517,36.51,36.51,0,0,0-.856-10.87l.018-.021c.039-.077.965-.142,1.306-.278Zm-1.779-1.189-.172-.161.058.1.114.066Zm-10.28-3.744-.013.014c-.237.263-.155.347.055.424l-.008-.008a.317.317,0,0,1-.034-.431Zm5.238,2.294-.107-.01A.145.145,0,0,0,536.688,2142.494Zm22.624,24.594c-.163-.087-.111-.215-.058-.333.12-.271.255-.372.48-.793.255-.478.83-.564,1.2-1.273a8.522,8.522,0,0,1,.768-.6.608.608,0,0,1,.769.35,4.136,4.136,0,0,1,.159.982c.206,1.554.047-.154.12.876.018.225-.542.507-.645.6a1.836,1.836,0,0,1-1.39.461c-.835-.121-1-.052-1.406-.264ZM532.106,2226.5c-10.935-5.568-17.661-9.165-33.011-6.313,8.289-7.466,9.782-14.594,8.695-22.946,1.78,1.541,3.44,2.924,4.246,3.552a12.066,12.066,0,0,0,2.987,1.583,12.471,12.471,0,0,1,2,.734c.917.454.508,1.748,1.044,2.734a4.893,4.893,0,0,0,1.1,1.371c1.091,1.151.3,1.635,1.546,2.89.494.5,1.162.557,1.493,1.071.865,1.338.621,2.125,1.615,2.817,1.287.9,1.593,2.8,2.13,3.865a10.087,10.087,0,0,0,1.746,2.153,8.183,8.183,0,0,1,2.1,2.45,16.6,16.6,0,0,0,.877,1.7,9.244,9.244,0,0,0,1.3,1.761s1.021,1.028.136.578Zm5.8-10.658c-.033-.475-.575-.815-.746-1.46a8.688,8.688,0,0,0-2.92-4.684c-.543-.612-.95-3.158-1.426-4.312a3.458,3.458,0,0,0,.58-2.578c1.8.668,3.823,1.32,5.607,2.039l2.27,1.084a20.253,20.253,0,0,0,.417,3.479l.358,1.2c.717,2.19,2.553,4.548,3.367,6.647,1.089,2.8.467,6.109.563,9.311.009.326-.087,1.36-.052,1.973-.206-.169-1.664-1.732-1.869-1.9a4.093,4.093,0,0,0-.809-.638c-1-.719-1.059-.65-1.135-1.676a6.853,6.853,0,0,0-2.546-5.45,5.409,5.409,0,0,1-1-1.525c-.378-.945-.614-.821-.659-1.5Zm27.647-38.519c-.3.1-.1.476-.047.487a3.852,3.852,0,0,1,2.732,1.305.442.442,0,0,0,.423.012c.32-.216.14-.614-.083-.766-1.3-.878-1.854-1.422-3.026-1.039Zm-6.93,11.94v.069c.045-.106-.117-.162-.068-.271a1.127,1.127,0,0,0-1.323.493,3.852,3.852,0,0,0-.324,2.753.405.405,0,0,0,.657.118c.358-.476.25-1.124.482-1.652A15.2,15.2,0,0,0,558.627,2189.26Zm-11.681-6.246h-.069a19.685,19.685,0,0,0,.265,2.086c.036.114.175.385.35.395s.246.16.4.19a.293.293,0,0,1,.181.248c-.01.372.185.785.37.791a2.373,2.373,0,0,1,2.08,1.5c.034.069.325.078.407-.059a10.126,10.126,0,0,1,1.826-2.121c.129-.123.5-.053.6-.2a8.192,8.192,0,0,0,.535-1.149,8.842,8.842,0,0,1,.924-1.967,11.184,11.184,0,0,1,2.158-2.523,6.063,6.063,0,0,0,.677-.73,5.2,5.2,0,0,1,1.164-1.224c.165-.152.474-.49.322-.55-.537-.211-.47.2-1.422.76-.657.385-.6.88-1.477,1.077a5.219,5.219,0,0,0-1.657.6,22.827,22.827,0,0,1-2.958,1.7,5.962,5.962,0,0,1-2.7.553c-.806-.016-1.564-.337-2.378-.392-.112-.008-.006.179-.136.139a.793.793,0,0,0,.545.88Z" transform="translate(-4.674 -1.676)"/><path class="d" d="M453.875,2164.142c-2.242,3.19-3.872,8.215-4.687,11.812a9.722,9.722,0,0,1,2.038-.814C451.566,2173.442,454.243,2163.617,453.875,2164.142ZM467.052,2274.8c1.383,3.318,1.56,6.517.338,12.694-1.357-1.29-1.426-2.444-2.445-3.056-.134,3.53-.27,4.618-.948,6.179a13.484,13.484,0,0,0-1.9,6.922c-2.378-1.968-2.99-4.682-4.62-6.244a31.532,31.532,0,0,1-4.278-4.753,9.835,9.835,0,0,1-.679,3.939,8.249,8.249,0,0,0-1.9-4.005c-1.7-2.376-5.5-7.672-6.385-13.3-.2-.951-.747-3.735-1.357-7.536a3.847,3.847,0,0,1-2.108,2.51c-.407.2-.407-.339-.407-.339a9.615,9.615,0,0,0,.339-3.6c-.2-1.493-.61-4.821-1.358-5.635H439a5.586,5.586,0,0,1-1.359,4.006c-.067-1.766,0-3.125-.407-4.006-.2-.611-.679-1.154-.814-.542a14.826,14.826,0,0,0-.476,3.735c-.136,2.442-.136,3.259-.408,5.3a10.028,10.028,0,0,1-1.969,5.159,7.177,7.177,0,0,0-1.29-2.918c0,1.968.409,4.886-.814,6.448a12.224,12.224,0,0,0-2.173,4.548c-.206-1.765-.747-1.223-1.021-2.173a17,17,0,0,1-5.7,8.961,21.621,21.621,0,0,0,1.63-5.431,48.5,48.5,0,0,0-.95-7.877c-1.861-8.882-2.759-29.4-1.358-37.2,3.373-27.779,17.731-53.279,29.9-76.238h-1.514v-5.365h1.632l2.206-4.953,1.461,1.12,3.022-9.2,1.325,6.754,5.772-4.517-4.687,10.661h1.609c-.256.56-.516,1.115-.759,1.684l-9.883.014v2.178h9.006c-.2.532-.387,1.082-.579,1.623h-3.219l2.634,1.7c-.172.527-.335,1.059-.494,1.592l-1.174-.764c-.484,2.168-2.037,9.594-1.689,13.967,4.144,4.005,7.2,7.875,6.724,16.566,0,0,.271.2-1.5-.342a10.722,10.722,0,0,1,1.9,3.327,35.012,35.012,0,0,1,.338,7.467s.2,6.043.409,7.942c.814.271.34,2.443.407,5.294a23.587,23.587,0,0,1-.34,3.125c-1.7-1.359-1.56-1.29-2.036-1.156.407,1.359.679,1.359,1.493,2.446,0,8.079.271,16.428.816,20.093.27,2.647.746,5.7.951,6.653a24.534,24.534,0,0,0,1.629,4.889,2.735,2.735,0,0,1-2.309-.95c1.088,2.035,1.088,1.628,1.766,2.307l.95,7.062-1.086,1.22,1.493.951a29.065,29.065,0,0,0,.069,6.111,14.707,14.707,0,0,0,1.562,4.615,2.126,2.126,0,0,1-2.309-1.561c-.543-.612-1.495-1.969-1.765-1.969-.136,1.969.95,2.715,1.426,3.87Z" transform="translate(-0.203 -1.776)"/><path class="a" d="M438.154,2247.4c-.238.134-.544-.421-.61,1-.037.772.1,2.112-.45,2.676-.112.115-.413.04-.641.04.029-.466-.238-1.141-.811-1.062-.183.023-.1.287-.171.348-.351.318-.928.161-.964-.247a6.791,6.791,0,0,0-1.231-2.869,2.4,2.4,0,0,1-.22-1.6c-1.189,1.006-.653,2.752.008,3.853a1.968,1.968,0,0,1-.041,2.351.488.488,0,0,1-.633-.1c-.824-1.011-.828-2.247-1.233-3.385-.387.5-.612.678-.456,1.895.167,1.3.764,1.979.63,3.253-.081.763.151,1.69-.484,2.28a.725.725,0,0,1-.978-.143c-.449-.7-.313-1.619-.653-2.379a.427.427,0,0,0-.592-.118,4.947,4.947,0,0,0-.809,2.282c-.118.628.173,1.236.074,1.89a.723.723,0,0,1-.286.5,1.141,1.141,0,0,1-.911,0c-.342-.158-.491-.653-.592-.945a6.829,6.829,0,0,1,.338-4.48c.33-.914-.828-1.615-.932-2.55a8.735,8.735,0,0,1-.261-2.157c.06-.409.173-.812.206-1.232-.328.494-.945.576-1.358.95-.374-1.061.393-2.066.136-3.123-.031.347-.364.452-.545.681-.2-.525-.053-1.137-.322-1.6-.3-.509-.3-.131-.37-.739,1.1-17.7,6.874-35.622,15.84-53.6,1.154-4,12.836-26,14.535-28.309h1.426a52.784,52.784,0,0,0-7.676,16.9c-1.019.95-2.922,5.092-2.922,5.092a16.353,16.353,0,0,1-.541-2.309,7.572,7.572,0,0,0-.816,4.345,6.673,6.673,0,0,1-.814,3.6,28.648,28.648,0,0,1-1.493,3.19c-.34.815-.409.407-.545,1.29.883.136,1.495-1.29,2.785-1.29-.338,2.785-1.153,9.845-2.376,11.271a4.342,4.342,0,0,0-1.631-2.784l-.2.2a42.126,42.126,0,0,1,.952,12.83c.2-.067,1.357-.95,1.629-.476a8.052,8.052,0,0,1-1.9,1.564c-.545,2.24-.883,4.887-1.29,6.382a84.028,84.028,0,0,1-2.582-8.557c-.136,4.28,1.29,10.047,2.036,12.7a46.194,46.194,0,0,1-.814,6.177,11.022,11.022,0,0,0-2.919-4.208,40.8,40.8,0,0,1,2.853,11.133c1.222-.813,1.562-1.016,2.853-1.9,0,1.02-1.535,2.913-1.632,2.989-.407.136-.693.271-.407,1.018a73.777,73.777,0,0,1,.816,7.482Zm24.655,6.609c-.352-.345-.773-.655-.837-1.2a2.146,2.146,0,0,0,.241,1.881c.174.327.563.5.824.787a3.634,3.634,0,0,1,.552,1.14c.211.513-.294.806-.615.865-.99.186-1.019-1.236-1.332-1.93-.221-.493-.858-.686-1.191-1.144a4.326,4.326,0,0,1-.3-.345c-.282-.5-.856-.858-1.1-1.389a1.334,1.334,0,0,0,.1.669,35.816,35.816,0,0,0,1.893,4.239,7.378,7.378,0,0,1,.5,1.209,1.177,1.177,0,0,1-.165,1.033c-.216.235-.714-.277-.811-.105-.364.635.2,1.391.521,2.018.224.436.635.876.443,1.38a.524.524,0,0,1-.311.27,1.231,1.231,0,0,1-1.16-.449,21.216,21.216,0,0,1-2.67-3.361c-.3-.482-.138-1.109-.478-1.582-.2-.273-.563-.713-.9-.413a.77.77,0,0,0-.269.393,3.453,3.453,0,0,1-.608,1.659c-.1.127-.313.336-.355.415a9.322,9.322,0,0,0-.794,3.143.91.91,0,0,1-.381.735c-.246.125-.418-.074-.563-.259-.183-.615-.368-1.225-.543-1.8a171.291,171.291,0,0,1-4.978-48.829c.543-16.294,2.988-29.328,8.285-51.323l1.156.746s-2.106,9.028-1.7,15.344a15.5,15.5,0,0,1,6.043,12.627c-.236.1-.27.033-.474-.136-.814-1.053-2.989-1.393-4.618-4.04.238,1.663,5.025,8.315,5.365,9.606.067,4.142.679,10.148.338,11.335-1.153-.575-1.765-1.9-1.629-1.083a34.817,34.817,0,0,0,2.683,5.94s.1,5.871-.1,5.057H462.6a25.377,25.377,0,0,1-2.613-2.173c-.44-.238-.509-.814-1.323-1.594a19.624,19.624,0,0,0-2.411-2.276,9.561,9.561,0,0,0-2.922-1.46c-.238,0-.712-.067-.712-.067a24.944,24.944,0,0,1,4.006,4.414,21.627,21.627,0,0,1,3.3,4.92,35.7,35.7,0,0,0,2.547,3.869c0,1.867-.136,8.079-.035,9.13l-.51-.372a11.833,11.833,0,0,1-3.668-4.581c-.61,3.121,2.717,6.789,4.246,8.01.509,5.8.509,8.519,1.459,14.629l-.069.476a19.009,19.009,0,0,1-4.48-4.887c-.138,2.374,2.24,5.5,4.754,8.484a1.349,1.349,0,0,1,.27.662c-.286-.411-1.256.085-1.627-.282Zm-19.869,6.738-.169.147c-.271.2-.881.286-.95-.2a53.129,53.129,0,0,1-1.155-10.862c.34-.883,1.29-2.513,2.036-4.277l-.067-.407a6.665,6.665,0,0,0-2.445,2.511l-.338-.476a39.2,39.2,0,0,1-.545-6.789,1.539,1.539,0,0,1,.272-1.221c.542-1.291,1.158-2.727,1.63-4.142a46.108,46.108,0,0,1,3.361-6.858l-.441.409c-1.256.442-4.482,4.344-4.889,4.616l-.306.034c.171-3.9,1.256-12.593,2-17.922.747-2,6.588-8.115,5.23-7.027a16.036,16.036,0,0,0-4.077,2.173l-.814.272c.813-3.789,2.5-17.49,4.279-21.182,1.29-2.24,2.582-2.849,3.534-5.294l-.68.338a27.192,27.192,0,0,0-3.873,3.8l-.407.067c.612-1.764.814-3.666,2.038-6.108a18.6,18.6,0,0,1,1.29-2.309,6.483,6.483,0,0,1,2.377-2.24c.474-.2,1.359-.545,1.359-.545-2.714,11.119-3.669,20.16-4.484,32.52-.693,16.749.413,36.477,4.84,51.071l-.063.093a2.173,2.173,0,0,1-1.206.877.5.5,0,0,1-.63-.328c-.328-1.317-1.239-2.258-1.6-3.521-.561.006-1.113.132-1.485-.415-.813-1.2-.646-2.542-.756-3.861a2.331,2.331,0,0,0-.536.48,20.843,20.843,0,0,0-2.331,6.574Zm17.423-109.933,2.1-1.833-1.765,3.428Zm-6.451,4.415.948-2.343,2.717,2.343Zm3.122-2.582,1.258-4.48.881,6.315Z" transform="translate(-0.305 -2.133)"/><path class="b" d="M465.45,2281.911c.952,1.765,1.29,5.363.679,6.655-1.018-1.7-2.377-3.668-3.6-4.212a25.59,25.59,0,0,1,.679,6.926,16.864,16.864,0,0,1-2.1,7.237c-.34-.545-.666-.856-1.074-1.535-1.371-1.97-2.256-2.377-3.884-4.278-2.038-1.7-3.805-4.751-3.872-7.129l-.34.067c.138,1.359-.474,2.023-.271,3.789-1.7-1.074-4.509-5.389-5.23-9.626a65.263,65.263,0,0,1-1.086-6.45c-.34-2.648-1.155-4.209-1.357-5.771-.086-.255.087-1.14-.747-.067-.477.612-.952.474-.647-.441a9.808,9.808,0,0,0,.326-1.092,20.852,20.852,0,0,1,2.331-6.574,2.375,2.375,0,0,1,.535-.48c.111,1.32-.056,2.662.757,3.861.371.547.924.42,1.485.415.366,1.263,1.276,2.2,1.6,3.521a.5.5,0,0,0,.63.328,2.177,2.177,0,0,0,1.206-.877l.063-.093c.521,1.721,1.1,3.346,1.718,4.917.047.137.1.272.143.4l.136.374c.075.2.148.38.221.557l.11.273c.107.248.206.47.3.653a6.868,6.868,0,0,0-.128-.695l-.024-.114c-.061-.272-.14-.579-.23-.913l-.045-.175c-.094-.345-.2-.709-.3-1.089l-.043-.146c-.116-.4-.238-.811-.361-1.225.145.185.317.384.564.259a.908.908,0,0,0,.38-.735,9.3,9.3,0,0,1,.795-3.143c.041-.078.252-.287.354-.415a3.46,3.46,0,0,0,.609-1.659.768.768,0,0,1,.268-.393c.335-.3.7.139.9.413.339.472.173,1.1.477,1.582a21.181,21.181,0,0,0,2.67,3.361,1.232,1.232,0,0,0,1.16.449.521.521,0,0,0,.311-.27c.192-.505-.219-.945-.443-1.38-.319-.627-.885-1.383-.521-2.018.1-.172.6.34.811.105a1.174,1.174,0,0,0,.165-1.033,7.292,7.292,0,0,0-.5-1.209,35.817,35.817,0,0,1-1.894-4.239,1.355,1.355,0,0,1-.1-.669c.246.531.82.89,1.1,1.389a3.857,3.857,0,0,0,.3.345c.333.458.97.651,1.191,1.144.313.695.342,2.116,1.333,1.93.32-.06.825-.354.614-.865a3.635,3.635,0,0,0-.552-1.14c-.261-.284-.649-.46-.824-.787a2.146,2.146,0,0,1-.24-1.881c.063.546.485.856.836,1.2.4.4,1.516-.23,1.691.391a20.553,20.553,0,0,0,1.072,2.82c-.1.308.85,1.867.374,3.837l-1.019,1.969a8.324,8.324,0,0,1,1.359,1.628c-.071.273.2,2.581,0,4.209-1.088-.271-1.564-.2-2.242-1.764-1.086,4.41.476,7.4,1.426,9.571Zm-42.464-34c.069.61.06.235.356.743.271.464.12,1.075.322,1.6.181-.228.515-.333.545-.68.257,1.057-.51,2.063-.135,3.124.412-.375,1.029-.456,1.357-.95-.033.419-.145.823-.2,1.232a8.7,8.7,0,0,0,.261,2.157c.1.933,1.261,1.635.931,2.549a6.841,6.841,0,0,0-.338,4.48c.1.293.25.787.592.946a1.145,1.145,0,0,0,.911,0,.727.727,0,0,0,.287-.5c.1-.655-.192-1.263-.074-1.891a4.938,4.938,0,0,1,.81-2.281.425.425,0,0,1,.591.118c.34.76.205,1.679.654,2.379a.723.723,0,0,0,.977.142c.633-.59.4-1.516.484-2.279.134-1.274-.464-1.958-.631-3.254-.156-1.215.069-1.4.457-1.894.405,1.138.409,2.374,1.232,3.385a.489.489,0,0,0,.633.1,1.966,1.966,0,0,0,.041-2.351c-.661-1.1-1.2-2.848-.007-3.853a2.407,2.407,0,0,0,.219,1.6,6.781,6.781,0,0,1,1.231,2.87c.037.407.614.564.965.246.065-.059-.013-.323.17-.347.572-.078.84.6.812,1.061.228,0,.528.076.641-.04.548-.563.413-1.9.449-2.676.067-1.426.405-.884.643-1.019a14.509,14.509,0,0,1-.033,2.648c.2,2.444-.069,5.634-.749,6.382-.608-.61-.679-1.155-1.493-1.359-2.173,1.021-2.037,10.32-1.9,11.747-.032.338-.541,0-.541,0a10.112,10.112,0,0,1-2.1-3.53s-.477-.544-.477,0c-.612,1.967-.409,7.332-.136,8.622a5.427,5.427,0,0,1-.679,3.936c-.138.408-.409.476-.409-.067-.067-.611-.476-.882-.679-1.494,0,0-.476-.883-.612,0a23.838,23.838,0,0,1-2.173,5.972l-.34.2a39.1,39.1,0,0,0-1.017-8.079,117.573,117.573,0,0,1-2.175-21.521c0-4.006.218-8.315.218-8.315l.122.136Zm8.5-.646c-.217-.949.123-1.152.131-1.884,0-.478-.287-.927-.293-1.373,0-.16.28-.518.441-.361.212.213.525.3.669.427.317.28.236.858.688,1.218.509.4.234,1.12.12,1.691-.03.163-.167.46-.354.516a4.211,4.211,0,0,1-1.211.041c.167-.2-.145-.078-.19-.273Zm-4.9-6.244c-.047-.783-.306-1.894.868-1.583.369.1.453.647.46.906a4.4,4.4,0,0,0,.485,1.907c.17.354-.122.654-.3.913-.456.667-1.388,1.049-1.925.384-.323-.4-.718-1-.425-1.551a4.169,4.169,0,0,1,.764-1.044l.071.069Zm1.176,8.088a1.5,1.5,0,0,1,.394-2.236.723.723,0,0,1,1.134.284c.256.811.574,1.491.826,2.3a1.135,1.135,0,0,1-1.526,1.266C428.065,2250.456,428.1,2249.588,427.764,2249.1Zm.633,3.221-.25.1c.136,0,.346-.035.37.018.322.708.014,2.017.889,2.529.671.393.016,2.031-.859,2.1a1.606,1.606,0,0,1-1.348-1.027,2.6,2.6,0,0,1,.154-2.257c.266-.36.27-.914.572-1.176.147-.125.175-.384.472-.288Zm5.6-1.679a.634.634,0,0,1,.021-.894.778.778,0,0,1,.893.117c.069.058.319.219.387.273a1.841,1.841,0,0,1,.786,2.246.6.6,0,0,1-.846.262c-.238-.179-.565-.188-.73-.492-.261-.487-.154-1.042-.512-1.513Zm-8.026-5.488a.7.7,0,0,1,.172.478c.047-.323.746,2.015-.228,2.625-.427.27-1.3.156-1.439-.456a4.879,4.879,0,0,1,.791-2.551c.2-.317.568-.531.7-.1Zm18.889,6.718a2.118,2.118,0,0,1,.963,1.193.708.708,0,0,1-.534.857c-1.061.212-1.048-1.106-.977-1.805a.359.359,0,0,1,.549-.244Zm2.537,2.482a3.088,3.088,0,0,1,.793,1.5,2.16,2.16,0,0,1-.474,1.7c-.136.188-.652-.112-.9-.368a3.492,3.492,0,0,1-.715-1.485,1.4,1.4,0,0,1,.4-1.417.763.763,0,0,1,.9.078Zm9.714-.817h-.272a1.43,1.43,0,0,1,1.11.579c.392.5-.273,1.388-.806,1.123a1.114,1.114,0,0,1-.536-1.54c.074-.117.314-.146.5-.161Zm-4.664,6.246a1.2,1.2,0,0,1-.349-1.149.819.819,0,0,1,.935-.463,1.573,1.573,0,0,1,.928.683,2,2,0,0,1-.009,2.719.8.8,0,0,1-1.155-.181c-.292-.488-.078-.884-.3-1.406l-.045-.2Zm5.644.438c.383.3.808.785.55,1.241-.083.144-.305.378-.416.311-.849-.516-1.931-.543-2.383-1.458a1.083,1.083,0,0,1-.209-.665c.083-.427.081-.848.413-1.131a.933.933,0,0,1,1.111.008c.61.392.38,1.259.934,1.694Zm-8.986-.853c.627.757.246,1.768.5,2.664a1,1,0,0,1-.532,1.171c-.583.26-1.034-.352-1.226-.856a7.107,7.107,0,0,1-.023-2.631.538.538,0,0,1,.2-.381.808.808,0,0,1,1.076.033Zm3.622-10.637c-.151-.423-.559-.732-.34-1.15.061-.116.289-.088.451-.131a1.4,1.4,0,0,1,1.374.291,5.868,5.868,0,0,1,.63.927,6.074,6.074,0,0,1,.409,1.145.921.921,0,0,1-.347,1.088c-.383.229-.544.431-1.108.182-.212-.093-.344-.551-.44-.725-.134-.236-.121-.9-.3-1.117a1.4,1.4,0,0,1-.333-.51Zm-.368,2.29a3.283,3.283,0,0,1,.951,1.514c.182.735.083,1.842-.7,2.081-.482.144-1.108.4-1.5.03-.492-.457-1.09-1.093-.795-1.76s1.241-1.037,1.186-1.863c-.009-.148.23-.17.313-.164a.791.791,0,0,1,.55.161Z" transform="translate(-0.286 -7.369)"/></g><rect class="e" width="200" height="200"/></svg>