<svg xmlns="http://www.w3.org/2000/svg" width="200" height="200" viewBox="0 0 200 200"><defs><style>.a{fill:#a0a1a2;}.b{fill:#0d2240;}.c{fill:#276092;}.d{fill:#77bc1f;}.e{fill:#fff;}.f{fill:none;mix-blend-mode:multiply;isolation:isolate;}</style></defs><g transform="translate(-1634.535 -1253.855)"><path class="a" d="M1809.1,1330.653h0l-.775-2.327a78.056,78.056,0,0,0-73.712-52.471h0a78.084,78.084,0,1,0,74.487,54.8"/><path class="b" d="M1734.612,1429.242a75.311,75.311,0,1,1,71.141-99.995l.34,1.018h0a75.322,75.322,0,0,1-71.481,98.977"/><path class="c" d="M1742.42,1320.13c-.437-.048-.873-.048-1.407-.1a46.276,46.276,0,0,1-12.366-2.328,25.231,25.231,0,0,0-2.618,3.492c1.358,1.406,3.928,4.074,5.189,5.528,2.182,1.31,4.413,2.765,6.595,4.316,3.491-3.928,6.595-7.128,9.65-10.329-1.5-.194-3.006-.388-4.607-.533Z"/><path class="c" d="M1709.735,1333.078a56.805,56.805,0,0,0-10.33,31.57c6.208-6.838,11.3-13.142,14.791-16.488a27.275,27.275,0,0,1,7.08-4.995c-2.327-5.334-5.383-9.7-9.505-11.736a18.863,18.863,0,0,0-2.036,1.649"/><path class="c" d="M1726.223,1313.244c3.443-1.406,7.177-2.861,10.814-4.025a63.319,63.319,0,0,1,11.784-3.055c-.1,0-.145-.049-.242-.1a47.746,47.746,0,0,0-6.741-1.455,49.711,49.711,0,0,0-18.185.679,8.269,8.269,0,0,0-.049,5.14,6.291,6.291,0,0,0,2.619,2.813"/><path class="c" d="M1719.046,1327.259c-1.358.63-2.862,1.406-4.316,2.231,4.073,2.667,7.08,7.177,9.359,12.463a20,20,0,0,1,5.48-1.164c2.182-2.764,4.17-5.189,6.062-7.371-2.183-1.5-4.365-2.959-6.547-4.219a63.839,63.839,0,0,0-10.038-1.94"/><path class="c" d="M1731.363,1315.232a41.447,41.447,0,0,0,9.844,1.6c.582.048,1.067.1,1.5.1l.339.048c1.552.145,3.783.388,6.353.824a11.73,11.73,0,0,1,5.819-4.17,5.541,5.541,0,0,1,3.443,3.3,10.419,10.419,0,0,1,5.383,5.188,42.264,42.264,0,0,1,16.391,12.027,49.533,49.533,0,0,0-24.78-25.46v.049c-.146,0-10.621-.243-23.617,6.062-.242.145-.485.291-.679.436"/><path class="c" d="M1784.319,1349.809c-1.261-5.917-5.48-16.828-18.913-23.714,1.5,6.789-.194,14.5-.194,14.5a10.589,10.589,0,0,1,4.607,6.207,2.059,2.059,0,0,1,.873.824c1.018,1.261,2.328,4.171.242,9.893,0,0-1.26-2.667-3.928.194-.242.34-.436.631-.679.97,5.044,6.935,8.923,14.209,10.863,21.289a49.688,49.688,0,0,0,7.129-30.163"/><path class="c" d="M1696.108,1368.188a63.751,63.751,0,0,1,2.861-20.659,58.691,58.691,0,0,1,6.644-14.111c.388-.776,1.018-1.94,1.794-3.3-9.6-1.018-18.331,9.214-21.677,13.821a49.621,49.621,0,0,0,3.637,30.988c2.328-2.183,4.607-4.462,6.741-6.741"/><path class="c" d="M1759.344,1380.554c-.1,4.8,2.231,8.438,4.025,14.16a49.706,49.706,0,0,0,11.4-11.153c-1.454-7.129-5.188-14.694-10.377-21.968-3.249,5.286-4.85,10.232-5.044,18.961"/><path class="c" d="M1717.009,1317.172c1.6-.727,3.588-1.6,5.771-2.522a7.928,7.928,0,0,1-2.134-3.1,10.537,10.537,0,0,1-.485-5.383,50.487,50.487,0,0,0-19.2,10.911h.776c4.7-.242,11.445-.049,15.276.1"/><path class="c" d="M1709.056,1327.21c.679-1.212,1.358-2.376,1.988-3.443-2.667-1.746-4.316-3.006-8.874-3.394a42,42,0,0,0-4.559.1,50.1,50.1,0,0,0-9.747,16c5.092-5.335,12.754-10.96,21.192-9.263"/><path class="d" d="M1724.865,1316.493l-3.443,4.995a28.165,28.165,0,0,1,4.752,4.267c-3.734-.775-7.856-1.454-7.856-1.454l-6.547,3.54,3.056-5.092a48.113,48.113,0,0,0-4.413-3.3c2.618.1,7.565.485,7.565.485Z"/><path class="d" d="M1727.629,1346.414a18.867,18.867,0,0,0-1.018,4.849s-5.674.825-8.438,2.716c.048-.048,5.722-5.722,9.456-7.565"/><path class="e" d="M1765.94,1346.123a4.257,4.257,0,0,1,1.454-.145,4.014,4.014,0,0,0-.63-1.164,4.966,4.966,0,0,0-1.212-1.067,4.255,4.255,0,0,1,.388,2.376"/><path class="e" d="M1760.8,1348.742c.728-.485,1.406-.922,1.988-1.261-.1-.243-.291-.63-.533-1.115a5.877,5.877,0,0,0-1.746-1.649,8.592,8.592,0,0,1,.291,4.025"/><path class="a" d="M1699.842,1387.1c-4.85,1.988-16.246-.728-16.246-.728,11.542-.679,22.841-8.923,22.841-8.923a.048.048,0,0,1-.048.049,30.821,30.821,0,0,1-8.051,8.195,9.6,9.6,0,0,0,1.5,1.407"/><path class="d" d="M1757.453,1318.19s-2.861-2.23-6.062,1.213c3.443-6.3,5.432-2.667,6.062-1.213"/><path class="a" d="M1768.655,1348.645s-.291-.194-.339-.243c-1.8-.97-5.044,1.843-7.129,3.007s-5.189,3.637-6.644.242c-1.5-3.394,1.94-8.729,3.153-12.075,2.618-7.419,2.715-11.735,2.182-14.111,2.424,2.764,3.2,8,3.2,8s.922-9.893-3.928-12.463a12.553,12.553,0,0,1-.1,2.57h0c-2.23.388-7.225-.145-8.826-1.018a151.635,151.635,0,0,0-17.749,24.005c-2.182,4.413-4.316,9.6-4.849,13.82a18.744,18.744,0,0,1-.873-4.461c-2.764,1.067-12.172,5.674-14.209,19.883,0,0,5.965-6.159,12.609-8.584,0,0-4.171,10.96,3.831,30.406,0,0,3.249-11.93,9.99-14.936,4.122,20.367,16.148,20.707,19.64,34.576,0,0,3.685-7.177-.728-19.4a6.587,6.587,0,0,1,2.813,1.939s-.194-3.588-3.54-11.25a32.775,32.775,0,0,1-2.861-9.7c-1.94,1.746-2.473,7.759-2.473,7.759-5.965-16.2,10.959-32.249,14.063-34.625,1.5-1.164,2.425-1.164,3.007-.921.533-1.116.485-1.892-.243-2.425"/><path class="a" d="M1779.372,1319.985a56,56,0,0,0-37.1-21.774,59.492,59.492,0,0,0-7.759-.534,56.41,56.41,0,0,0-55.623,48.543,55.822,55.822,0,0,0,5.529,33.073c.63-.533,1.26-1.067,1.939-1.649a53.791,53.791,0,0,1,48.2-77.494,54.452,54.452,0,0,1,7.419.534,53.82,53.82,0,0,1,45.924,60.618,53.967,53.967,0,0,1-23.519,37.389c.145.824.339,1.7.436,2.619a56.043,56.043,0,0,0,14.548-81.325"/><path class="e" d="M1699.066,1293.846a4.9,4.9,0,1,0,4.9,4.9,4.884,4.884,0,0,0-4.9-4.9m0,7.614a2.667,2.667,0,1,1,2.667-2.667,2.691,2.691,0,0,1-2.667,2.667"/><path class="e" d="M1688.058,1306.115l-1.164.631c-.437.242-.679.242-.922.048-.291-.242-.242-.63.146-1.018h0a2.216,2.216,0,0,1,1.455-.728h.194l-.146-2.182h-.194a4.267,4.267,0,0,0-3.006,1.552,3.837,3.837,0,0,0-1.019,2.085,2.5,2.5,0,0,0,.922,2.231c1.018.97,2.279,1.018,3.734.194l1.018-.582c.533-.291.873-.436,1.164-.145.339.29.242.727-.243,1.309h0a2.413,2.413,0,0,1-1.939.776h-.194l-.243,2.376h.194a4.892,4.892,0,0,0,3.831-1.746l.049-.048a4.238,4.238,0,0,0,1.212-2.473,2.751,2.751,0,0,0-1.018-2.231c-1.019-.97-2.183-.97-3.831-.049"/><rect class="e" width="9.553" height="2.134" transform="matrix(1, -0.024, 0.024, 1, 1664.029, 1354.673)"/><path class="e" d="M1682.335,1322.458l3.637-5.431-1.794-1.164-2.425,3.589-1.309-.873,2.085-3.1-1.794-1.164-2.085,3.1-1.309-.873,2.425-3.637-1.746-1.164-3.589,5.383Z"/><path class="e" d="M1713.663,1296.659l-2.764-6.886,2.473-1.018-.824-1.94-6.886,2.813.776,1.94,2.473-1.018,2.764,6.935Z"/><path class="e" d="M1674.431,1327.938l-6.741,3.1-.1.291,8.923,3.637.776-1.94-4.607-1.891,6.741-3.1.146-.339-8.923-3.637-.824,1.988Z"/><path class="e" d="M1670.066,1342.244l-5.868,4.51-.049.388,9.5,1.455.339-2.085-4.946-.776,5.868-4.558.049-.339-9.5-1.5-.339,2.134Z"/><rect class="e" width="9.554" height="2.134" transform="matrix(0.284, -0.959, 0.959, 0.284, 1751.22, 1295.447)"/><path class="e" d="M1803.62,1368.479l.485-2.085-9.311-2.182-1.406,6.207,2.085.485.97-4.073Z"/><path class="e" d="M1800.274,1349.372a4.9,4.9,0,1,0,4.9,4.9,4.884,4.884,0,0,0-4.9-4.9m0,7.614a2.667,2.667,0,1,1,2.667-2.667,2.66,2.66,0,0,1-2.667,2.667"/><path class="e" d="M1780.924,1314.456l4.025,5.092,1.7-1.309-2.716-3.443,1.261-.97,2.328,2.958,1.649-1.358-2.328-2.91,1.261-.97,2.667,3.395,1.649-1.309-4.025-5.092Z"/><path class="e" d="M1787.52,1384.24l-3.443,5.48,1.794,1.115,2.328-3.637,1.358.824-2.037,3.2,1.843,1.115,1.988-3.152,1.309.824-2.328,3.686,1.794,1.115,3.492-5.48Z"/><path class="e" d="M1744.02,1293.846l.97-7.371,2.619.339.291-2.085-7.371-.97-.291,2.085,2.619.339-.97,7.371Z"/><path class="e" d="M1795.667,1378.614l5.189-.242.873-2.182-10.572.436-.1.291,7.323,7.662.873-2.182Z"/><path class="e" d="M1765.212,1296.028l-1.7-6.4v-.048l-.291-.146-4.462,8.535,1.891,1.018,2.037-3.976.97,3.686.243.1,3.589-1.261-2.085,3.928,1.891.97,4.462-8.535-.243-.145Z"/><path class="e" d="M1670.406,1367.994l-3.88,5.383-.048.048.048.291,9.456-1.988-.436-2.085-4.365.921,2.182-3.055-.048-.291-3.249-1.891,4.365-.921-.437-2.085-9.456,1.988.1.291Z"/><path class="e" d="M1799.255,1341.371l4.025-3.346-.1-.339-5.14-1.212,4.122-2.716-.533-2.182-8.535,5.674.1.291,5.722,1.358-4.51,3.783.1.339,10.184,1.164-.533-2.231Z"/><path class="e" d="M1793.145,1327.307a2.823,2.823,0,0,0,3.346.388c1.794-.873,2.328-2.667,1.358-4.655l-1.6-3.2-8.583,4.219.97,1.94,3.976-1.94-2.715,4.51,1.115,2.279c.049,0,1.988-3.3,2.134-3.54m.388-2.182-.582-1.212,2.376-1.164.582,1.212a1.233,1.233,0,0,1-.533,1.891,1.278,1.278,0,0,1-1.843-.727"/><path class="e" d="M1780,1306.212a2.655,2.655,0,0,0,1.406-.921,2.889,2.889,0,0,0,.679-2.376,3.239,3.239,0,0,0-1.115-1.843l-1.213-1.019-1.6-1.406-1.406,1.6-.97,1.116-.1.1-1.309,1.5-.1.1-1.067,1.212-1.407,1.6,1.6,1.406,1.406,1.212a3.148,3.148,0,0,0,2.085.825,2.9,2.9,0,0,0,2.328-1.018,2.632,2.632,0,0,0,.776-2.086m-1.6-4.558,1.212,1.018c.485.437.582.825.242,1.261-.436.485-.969.194-1.309-.1l-1.115-.97Zm-2.086,5.237-1.406-1.212,1.115-1.31,1.31,1.164c.533.485.679,1.019.339,1.407a.984.984,0,0,1-1.358-.049"/><path class="e" d="M1778.548,1395.927a6.17,6.17,0,0,1,1.406-1.019,8.022,8.022,0,0,1,2.765-.533v2.182a5.792,5.792,0,0,0-1.8.291,2.188,2.188,0,0,0-1.261,1.31.71.71,0,0,0,.194.727.5.5,0,0,0,.582.1c.194-.049.534-.243.873-.388a7,7,0,0,1,2.425-.873,2.489,2.489,0,0,1,2.134.727,2.838,2.838,0,0,1,.873,2.183,3.583,3.583,0,0,1-1.94,2.861,7.324,7.324,0,0,1-2.376.776l-.291-2.134a6.449,6.449,0,0,0,1.5-.436c1.115-.534,1.164-1.8.242-1.746a6.473,6.473,0,0,0-1.7.679,11.245,11.245,0,0,1-1.164.533,2.713,2.713,0,0,1-2.764-.582,2.856,2.856,0,0,1-.776-2.861,3.577,3.577,0,0,1,1.067-1.794"/><path class="e" d="M1722.877,1289.482l2.91,4.268,2.328-.388-5.916-8.778-.291.1-2.667,10.232,2.328-.436Z"/></g><rect class="f" width="200" height="200"/></svg>