<svg xmlns="http://www.w3.org/2000/svg" width="200" height="200" viewBox="0 0 200 200"><defs><style>.a{fill:#a71930;}.b{fill:#fff;}.c{fill:none;mix-blend-mode:multiply;isolation:isolate;}</style></defs><g transform="translate(-1027.297 -1488.48)"><path class="a" d="M1210.009,1625.1c0,.211.008,5.461.008,5.669,0,14.272-9.623,18.787-13.83,20.074a49.38,49.38,0,0,1-10.616,1.508H1057.9v-26.236l117.79.006c3.2-.079,5.21-1.119,6.125-3.1a8.671,8.671,0,0,0,.468-3.209v-5.6a25.688,25.688,0,0,1-5.216,2.305c-7.221,2.551-20.6.552-26.11-3.814a21.586,21.586,0,0,1-10.24-17.024v-44.12a3.424,3.424,0,0,0-3.417-3.43h-7.026v-22.563h38.084l-.038,60.226c-.011,3.6,3.2,6.5,7,6.5a7.184,7.184,0,0,0,3.6-.961,6.694,6.694,0,0,0,3.354-4.949c.025-.265.041-.531.049-.8.038-.682.051-1.379.051-2.078v-57.937h27.566l.07,99.531Zm-81.084-31.162h5.85l.533,0v21.7H1110.05a11.682,11.682,0,0,1-11.633-11.653V1555.07a6.8,6.8,0,0,0-13.573.138h0l-.006.631v59.98h-26.924v-64.191a3.424,3.424,0,0,0-3.42-3.43H1045.3l.008-22.627h39.518v4.307c6.428-4.919,15.883-6.672,24.67-4.448,5.554,1.449,9.677,4.033,12.926,8.773a18.185,18.185,0,0,1,2.722,6.357,16.459,16.459,0,0,1,.36,2.484V1562.6l-.006,5.176s.006,1.232.006,3.223v16.458c0,.823,0,1.641-.006,2.437l.006.144v.474a3.424,3.424,0,0,0,3.425,3.423Z"/><path class="b" d="M1152.833,1609.4c-4.61-2.622-7.943-8.2-8.311-13.885v-43.949a7.237,7.237,0,0,0-7.221-7.235h-3.225v-14.949h30.48c-.006,6.682-.041,56.44-.041,56.451a9.977,9.977,0,0,0,2.965,7.045,11.086,11.086,0,0,0,13.332,1.765,10.583,10.583,0,0,0,5.23-7.779l.016-.108.065-.975.051-2.27v-54.129h19.968c.006,7.04.068,101.391.068,101.391,0,11.325-6.98,15.16-11.138,16.439a45.967,45.967,0,0,1-9.631,1.338c-.249,0-116.6.013-123.742,0v-18.616H1175.69c5.968-.147,8.493-2.966,9.575-5.3l.081-.17.057-.174a12.411,12.411,0,0,0,.679-4.469v-12.73l-5.917,3.962a20.75,20.75,0,0,1-4.247,1.848l-.117.035c-5.949,2.11-17.934.4-22.487-3.21l-.225-.176-.256-.146Zm-31.131-18.882a7.239,7.239,0,0,0,7.223,7.235h2.576v14.087H1110.05a7.862,7.862,0,0,1-7.332-5.119,7.781,7.781,0,0,1-.5-2.725V1555.07a10.6,10.6,0,0,0-21.178.139c0-.025-.006.609-.006.609v56.193h-19.321v-60.383a7.234,7.234,0,0,0-7.221-7.235H1049.1l0-15.014h31.92v8.207l6.109-4.683c5.573-4.263,13.784-5.718,21.429-3.781,4.908,1.281,8.125,3.448,10.719,7.237a14.162,14.162,0,0,1,2.148,5.019s.246,1.7.273,1.866V1562.6l-.005,5.168.005,3.239v16.45l-.005,2.513.005.163v.379Z"/></g><rect class="c" width="200" height="200"/></svg>