<svg xmlns="http://www.w3.org/2000/svg" width="200" height="200" viewBox="0 0 200 200"><defs><style>.a{fill:#fff;}.b{fill:#0d2240;}.c{fill:#ffa400;}.d{fill:#2b5134;}.e{fill:none;mix-blend-mode:multiply;isolation:isolate;}</style></defs><g transform="translate(-1323.441 -1870.246)"><path class="a" d="M1459.3,2000.5h-11.009l14.985-34.382h11.105c-8.1,18.428-12.608,28.66-15.081,34.382m-36.129-2.861-9.553-31.57h23.423c-6.935,15.761-11.251,25.508-13.87,31.57m-33.412-10.087,2.522-5.819,1.745,5.819Zm95.97,12.948,18.816-43.16H1417.16l-3.637,8.341-2.522-8.341h-17.506s-11.542,26.333-14.839,33.9a24.957,24.957,0,0,0,.485-4.7v-.631c1.309-2.958,11.493-26.332,13.578-31.084h48.009l10.281-23.569h-56.932l-18.67,42.772a23.308,23.308,0,1,0-.631,26.09l-3.976,9.166h9.553l5.625-12.9h10.766l3.88,12.9H1501.2l3.831-8.778Z"/><path class="b" d="M1333.847,1987.6a21.959,21.959,0,0,0,6.644,14.694,21.033,21.033,0,0,0,7.128-14.694Z"/><path class="c" d="M1349.511,1987.6a22.911,22.911,0,0,1-7.566,16,22.063,22.063,0,0,0,12.851,4.9v-20.853h-5.285Z"/><path class="b" d="M1333.847,1985.657h13.772a20.8,20.8,0,0,0-7.128-14.839,21.778,21.778,0,0,0-6.644,14.839"/><path class="c" d="M1341.945,1969.508a22.856,22.856,0,0,1,7.566,16.149h5.237V1964.61a22.044,22.044,0,0,0-12.8,4.9"/><path class="b" d="M1377.589,1987.6h-13.724a20.94,20.94,0,0,0,7.129,14.694,21.916,21.916,0,0,0,6.595-14.694"/><path class="d" d="M1361.925,1987.6h-5.237v20.852a21.545,21.545,0,0,0,12.851-4.9,22.742,22.742,0,0,1-7.614-15.954"/><path class="d" d="M1369.539,1969.508a22.059,22.059,0,0,0-12.851-4.9v21.047h5.237a22.9,22.9,0,0,1,7.614-16.149"/><path class="b" d="M1394.95,1932.6,1375.5,1977.17a21.191,21.191,0,0,0-4.558-6.352,20.891,20.891,0,0,0-7.129,14.839h13.773l14.063-32.249h41.123l9.069-20.8Z"/><path class="d" d="M1439.71,1953.408l9.068-20.8h-3.88l-9.068,20.8Z"/><path class="b" d="M1387.627,1988.955c1.6-3.686,3.3-7.517,4.9-11.2l3.4,11.2Zm13.966,18.912h16.343l-14.742-49.124h-8.826l-21.58,49.124h6.547s2.424-5.528,5.673-12.9h12.706Z"/><path class="d" d="M1419.439,2002.921l2.279-5.189-11.833-38.99h-3.88Z"/><path class="b" d="M1476.614,2001.854l18.913-43.111h-27.5l-2.619,5.964h11.1c-5.722,13.094-18.913,43.112-18.913,43.112h42.675l2.619-5.965Z"/><path class="d" d="M1447.372,1999.09l17.6-40.347h-3.88l-17.6,40.347Z"/><path class="d" d="M1484.81,1999.09l17.6-40.347h-3.88l-17.6,40.347Z"/><path class="b" d="M1458.138,1958.743h-40.1l-2.619,5.964h23.714c-5.722,13.094-18.913,43.112-18.913,43.112h34.577l2.618-5.965h-18.136Z"/><path class="b" d="M1456.1,1950.208h-5.092l7.759-17.6h-3.782l-8.05,18.186c-.631,1.406,0,2.57,1.454,2.57h7.42a4.583,4.583,0,0,0,3.734-2.57l8.05-18.186h-3.685Z"/><path class="b" d="M1484.082,1932.6h-13.094l-1.406,3.2h5.092l-7.759,17.6h3.734l7.759-17.6h4.267Z"/><path class="b" d="M1493.539,1932.6h-3.686l-14.112,20.8h3.54l2.086-3.152h4.994l-.727,3.152h3.734Zm-4.219,5.189-2.183,9.117H1483.5Z"/><path class="b" d="M1510.318,1932.6l-3.88,8.777h-5.043l3.88-8.777h-3.783l-9.165,20.8h3.734l3.88-8.826h5.092l-3.88,8.826h3.734l9.165-20.8Z"/></g><rect class="e" width="200" height="200"/></svg>