<svg xmlns="http://www.w3.org/2000/svg" width="200" height="200" viewBox="0 0 200 200"><defs><style>.a{fill:#13274f;}.b{fill:#ce1141;}.c{fill:none;mix-blend-mode:multiply;isolation:isolate;}</style></defs><g transform="translate(-444.15 -573.707)"><path class="a" d="M610.754,691.436H609.46v3.639h-.881v-3.64h-1.29v-.782h3.465v.782Zm5.867,3.639h-.869v-3.527h-.025l-1.242,3.526h-.846l-1.2-3.527h-.019v3.526h-.877v-4.422h1.519l.99,2.875h.03l1.043-2.874h1.5v4.421Z"/><path class="a" d="M616.717,704.593c-1.943-1.876-5.1-4.934-9-3.031-2.922,1.415-3.461,4.446-3.461,6.731a20.918,20.918,0,0,0,.136,2.145c.074.747.109,1.467.109,2.162,0,6.548-3.27,10.482-6.844,11.072-2.519.1-11.754-7.824-16.2-25.794,16.978-6.391,23.244-16.284,25.341-23.8a28.431,28.431,0,0,0,1.047-7.6c0-5.663-1.733-10.206-3.518-12.185-.985-1.094-3.991-4.429-7.981-3.152-4.073,1.3-4.6,5.905-4.8,7.651-.777,6.782-4.684,11.836-12.294,15.865.813-19.757,7.879-41.138,20.792-62.38,1.034-1.7,2.64-4.335,2.64-6.957a5.389,5.389,0,0,0-1.646-3.943c-3.382-3.422-7.8-.773-10.451.807l-.774.461c-37.7,19.61-56.709,57.736-70.6,85.562,0,0-.256.52-.486.981-21.416,8.146-25.219,22.814-25.254,22.961a12.867,12.867,0,0,0-.387,2.857,5.676,5.676,0,0,0,2.115,4.665,5.471,5.471,0,0,0,3.009,1.173,7.9,7.9,0,0,1-3.644,1.3,14.708,14.708,0,0,1-14.742-9.388c-.218-5.837-3.652-7.017-5.181-7.234-5.719-.833-7.8,6.253-8.689,9.293-1.972,6.688-.248,14.73,4.486,20.965,5.6,7.382,14.58,11.37,25.293,11.222,18.282-.252,30.048-20.323,39.6-39.872a136.409,136.409,0,0,1,16.119-2.84s5.377-.817,9.64-1.46c4.842,19.811,13.9,34.453,25.35,40.445a24.861,24.861,0,0,0,22.024.782c6.869-2.971,11.7-9.561,13.253-18.09,1.532-8.406-.483-16.994-5.006-21.371ZM546.439,683.6a195.7,195.7,0,0,1,11.095-20.661c-.091,2.249-.234,4.516-.234,6.723,0,4.081.334,8.041.637,12.01Q552.712,682.73,546.439,683.6Z"/><path class="b" d="M613.2,708.232c-2.137-2.067-4.4-4.316-3.791,1.693,1.047,10.319-4.159,17.646-10.951,18.751-6.544,1.059-18.781-11.534-22.979-34.036,33.688-10.17,27.838-33.905,25.089-36.962-2.35-2.6-3.521-2.553-4,1.685-1.234,10.76-8.694,18.063-22.464,23.084-.815-19.541,4.335-44.379,21.617-72.8,5.172-8.492-1.71-3.508-3.583-2.527-37.4,19.463-55.647,57.834-69.711,85.988-18.668,6.33-23.562,18.167-24.027,20.183-.629,2.727-.382,3.264,2.948,1.684,4.69-2.241,8.828-4.063,12.584-5.671-6.07,10.543-11.947,17.534-19.114,17.89-14.309.7-20.01-11.75-20.01-13.9,0-4.013-1.906-4.213-4,2.944-2.857,9.709,4.571,25.976,24.86,25.7,15.372-.209,26.114-18.29,36.176-39.141,11.715-3.257,19.283-3.11,33.093-5.663,6.338,31.542,23.443,50.1,41.529,42.285,12.547-5.427,13.058-25.081,6.74-31.186ZM563.209,685.7A201.628,201.628,0,0,1,538.42,689.7c-.153.008-.31.035-.457.053,7.906-16.987,15.9-33.713,25.954-42.607a159.583,159.583,0,0,0-.71,38.56Z"/></g><rect class="c" width="200" height="200"/></svg>