<svg xmlns="http://www.w3.org/2000/svg" width="200" height="200" viewBox="0 0 200 200"><defs><style>.a{fill:#fff;}.b{fill:#003263;}.c{fill:#ba0021;}.d{fill:#862633;}.e{fill:#c4ced4;}.f{fill:none;mix-blend-mode:multiply;isolation:isolate;}</style></defs><g transform="translate(-152.313 -1196.945)"><path class="a" d="M259.274,1389.3H312.1a29.44,29.44,0,0,1-11.116-15.759l-14.765-50.686c-1.6-5.453,1-10.9,5.158-14.6-5.895-1.8-11.115-5.908-12.777-11.544l-8.26-28.369c11.757-3.921,19.425-10.893,19.425-18.984,0-10.567-13.092-19.225-31.29-21.7l-6.905-23.72h-7.743l-6.908,23.72c-18.207,2.474-31.311,11.132-31.311,21.7,0,8.091,7.678,15.062,19.447,18.984l-8.271,28.369c-1.623,5.636-6.87,9.741-12.762,11.544,4.144,3.693,6.757,9.144,5.17,14.6l-14.775,50.686a29.641,29.641,0,0,1-11.106,15.758h52.821c-4.322-3.324-6.679-9.135-4.745-15.759l1.3-4.432h30.04l1.288,4.432c1.939,6.625-.425,12.435-4.736,15.758Zm-16.12-56.076,4.556-15.672,4.551,15.672h-9.107Z"/><path class="b" d="M303.207,1385.707a34.8,34.8,0,0,1-5.7-11.155l-14.661-50.327a16.927,16.927,0,0,1,2.536-14.575c-5.1-2.76-8.83-6.962-10.241-11.927l-8.935-30.637c12.595-3.356,21.173-10.024,21.173-17.724,0-9.742-13.8-17.877-32.065-19.68l-6.445-22.143h-2.336l-6.446,22.144c-18.283,1.8-32.086,9.939-32.086,19.68,0,7.7,8.6,14.368,21.183,17.724l-8.928,30.638c-1.441,4.964-5.149,9.166-10.261,11.927a16.857,16.857,0,0,1,2.553,14.573l-14.666,50.327a34.5,34.5,0,0,1-5.707,11.155h36.574c-2.959-6.529-1.4-11.274-.078-15.748l1.3-4.453h35.449l1.315,4.453c1.3,4.475,2.845,9.22-.1,15.748h36.574Zm-64.9-48.863,9.4-32.2,9.374,32.2Z"/><path class="c" d="M257.418,1257.237l-4.7-16.171.923,3.226c-1.922-.1-3.91-.174-5.934-.174v10.49l28.166,96.572,6.483,22.158,11.128,6.668a38.7,38.7,0,0,1-2-5.2l-14.027-48c-2.212-7.493-1-10.741.6-15.259a23.33,23.33,0,0,1-8.385-12.185L259.04,1262.8l-.015.01-1.608-5.57Zm-6.407-22.069-3.3-11.306V1235.1C248.823,1235.1,249.908,1235.124,251.011,1235.168Zm-38.137,138.756,9,6.08a24.285,24.285,0,0,1,.848-9.839l2.972-10.338-6.181-8.647-6.635,22.743Z"/><path class="c" d="M230.723,1342.525l16.986-58.171v-29.745l-28.2,96.572h56.367l-11.23-8.655"/><path class="d" d="M247.708,1284.355l16.938,58.171,11.23,8.654-28.167-96.572"/><path class="d" d="M293.487,1380.005l-11.128-6.669-6.481-22.156H219.509l28.2-96.572v-10.492c2.027,0,4.015.075,5.936.173l-.923-3.226c-.25,0-.51-.009-.76-.033-1.391-.064-2.8-.119-4.252-.119-1.709,0-3.393.067-5.028.153l-4.713,16.171h.017l-1.624,5.571h-.016l-10.656,36.548a23.186,23.186,0,0,1-8.353,12.186c1.587,4.517,2.8,7.766.6,15.259l-14.025,48a33.75,33.75,0,0,1-2.026,5.2h19.989l-9-6.081,6.635-22.744,6.181,8.646h43.991l3.035,10.338a25.651,25.651,0,0,1,.814,9.84h19.957Zm-45.779-156.143-3.293,11.306c1.085-.044,2.188-.065,3.3-.065v-11.241Z"/><path class="e" d="M237.984,1257.237h-.017c-10.2-1.205-17.448-4.29-17.448-7.873,0-4.128,9.542-7.561,22.161-8.3,1.635-.087,3.319-.152,5.028-.152,1.45,0,2.863.056,4.252.12.251.023.511.033.76.033,12.605.727,22.173,4.161,22.173,8.3,0,3.583-7.272,6.669-17.465,7.873h-.01l1.608,5.572.014-.01c13.138-1.955,22.581-7.22,22.581-13.434,0-7.4-13.452-13.488-30.612-14.195-1.1-.044-2.187-.065-3.3-.065s-2.212.022-3.3.065c-17.208.707-30.627,6.8-30.627,14.195,0,6.213,9.42,11.478,22.557,13.445h.016l1.626-5.57Z"/><path class="b" d="M319.692,1381.949c0-1.4-.825-1.63-2.02-1.63h-2.535v5.237h1.1v-2.085h.9l1.195,2.085h1.216l-1.265-2.085a1.376,1.376,0,0,0,1.413-1.52Zm-2,.6h-1.462v-1.27h1.2c.51,0,1.183,0,1.183.565s-.336.705-.923.705Z"/><path class="b" d="M317.223,1377.92a5.023,5.023,0,1,0,5.007,5.051,4.989,4.989,0,0,0-5.007-5.051Zm0,8.971a3.926,3.926,0,1,1,3.909-3.92,3.845,3.845,0,0,1-3.909,3.92Z"/></g><rect class="f" width="200" height="200"/></svg>