<svg xmlns="http://www.w3.org/2000/svg" width="200" height="200" viewBox="0 0 200 200"><defs><style>.a{fill:#fff;}.b{fill:#004c54;}.c{fill:#a5acaf;}.d{fill:none;mix-blend-mode:multiply;isolation:isolate;}</style></defs><g transform="translate(-93.814 -1794.338)"><path class="a" d="M209.359,1839.82l-9.082,9.513c14.877-6.178,47.318-16.784,47.318-16.784L237.2,1842.71c28.371-8.395,49.931-12.372,49.931-12.372a227.063,227.063,0,0,1-15.58,29.082c1.805-.195,13.59-1.567,13.59-1.567s-10.613,17.568-22.867,30.233l6.859,1.705a180.749,180.749,0,0,1-24.791,27.954c-20.283,18.064-30.719,15.289-30.719,15.289-15.057,10.9-27.125,5.375-27.125,5.375s5.214-13.15-.173-14.546c-4.856-1.261-12.242,2.532-13.164,4.055A61.709,61.709,0,0,1,164,1944.761a52.108,52.108,0,0,1-16.863,13.774,22.582,22.582,0,0,1-7.03-16.1,26.313,26.313,0,0,1-12.607,6.739c-5.466,1.161-12.927.218-20.569-6.159-5.132-4.28-6.113-18.667-6.113-18.667a66.633,66.633,0,0,1,14.123-17.275,12.368,12.368,0,0,1-3.716-5.356c24.721-10.784,24.739-21.077,44.393-33.592,19.363-12.329,31.531-18,53.745-28.309" transform="translate(0 0)"/><path class="b" d="M197.561,1848.9l-7.767,8.136c15.339-6.786,47.732-17.807,47.732-17.807l-9.4,9.191c33.213-10.276,54.278-13.758,54.278-13.758a197.182,197.182,0,0,1-16.044,28.358c4.436-.425,13.688-1.5,13.688-1.5a155.515,155.515,0,0,1-22.926,28.613c1.52.223,7.725,1.638,7.725,1.638a143.978,143.978,0,0,1-22.579,24.771c-18.294,16.008-26.411,14.113-26.411,14.113a6.053,6.053,0,0,0,.159-1.6,6.247,6.247,0,0,0-.132-1.064c-14.084,13.246-25.816,8.777-25.816,8.777s5.208-12.6-2.781-15.148c-6.19-1.97-15.671,3.094-16.427,5.806a59.5,59.5,0,0,1-8.652,15.929,49.466,49.466,0,0,1-14.249,12.119s-6.805-5.233-4.445-20.547c.515-3.337-.146-4.64-.511-5.2-1.117-1.708-9.824.156-11.948,5.01-1.5,3.428,7.153,6.325,7.153,6.325a21.718,21.718,0,0,1-10.97,5.828c-4.389.9-11.185.611-18.32-5.563-4.223-3.653-5.1-16.013-5.1-16.013a67.332,67.332,0,0,1,15.374-17.794,12.369,12.369,0,0,1-3.913-4.406c20.47-8.812,23.276-21.271,46.384-35.194a321.141,321.141,0,0,1,35.9-19.023" transform="translate(-0.244 -0.352)"/><path d="M252.163,1892.376a39.243,39.243,0,0,1,6.056,1.554c-7.031,11.4-28.048,33.778-39.793,34.7a8.7,8.7,0,0,0-1.815-4.791c-4.407,8.052-17.866,12.994-23.453,11.7,6.785-24.841-22-15.375-24.208-8.557a49.7,49.7,0,0,1-20.278,26.037s-4.649-5.294-2.655-17.216c1.471-8.79-4.093-8.516-4.093-8.516-2.219-.1-10.637.912-13.294,6.784-2.142,4.728,5.355,8.047,5.355,8.047s-10.825,8.637-23.348-2.068c-3.072-2.626-4.214-13.713-4.214-13.713a65.551,65.551,0,0,1,17.25-18.682c-3.487-1.337-4.573-3.146-4.573-3.146,16.815-7.706,23.41-20.513,37.724-30.032a192.56,192.56,0,0,1,27.85-15.639l-4.556,5.731s3.815-1.63,5.479-2.445c15.022-7.368,40.474-15.4,40.474-15.4l-7.937,7.684a288.176,288.176,0,0,1,29.737-8.043c8.829-1.886,27.277-5.766,27.277-5.766a111.554,111.554,0,0,1-13.54,25.657c5.56-.39,11.555-.718,11.555-.718s-6.446,12.957-21,26.834Zm-96.52,8.387c.765,1.275,0,3.131-1.7,4.149s-3.707.808-4.473-.469a1.992,1.992,0,0,1-.236-.625,11.044,11.044,0,0,1-1,.634,3.092,3.092,0,0,0,.31.718c1.084,1.8,3.848,2.139,6.177.75s3.338-3.972,2.255-5.776a3.454,3.454,0,0,0-2.663-1.568c-.261.325-.553.7-.872,1.088a2.508,2.508,0,0,1,2.208,1.1Z" transform="translate(-0.456 -0.834)"/><path class="a" d="M204.7,1906.177c-15.37-1.867-26.832,6.217-30.778,11.259a26.554,26.554,0,0,1,5.5-7.379,24.309,24.309,0,0,0-2.344,1.331c-3.166,1.822-16.133,8.4-27.393,1.411-.7-.433-1.287-.838-1.8-1.218,3.744,1.96,9.923,2.126,12.487-.4-8.978,2.315-10.573-1.782-10.765-4.331a6.183,6.183,0,0,1-2.208-.122s1.469-.624,2.2-1c.125-.064.246-.138.37-.209a3.09,3.09,0,0,0,.31.718c1.084,1.8,3.849,2.139,6.177.75s3.338-3.972,2.255-5.776a3.455,3.455,0,0,0-2.663-1.568,25.83,25.83,0,0,1,4.761-4.734,14.122,14.122,0,0,0-2.4,3.729,3.239,3.239,0,0,1,2.489,1.492,3.753,3.753,0,0,1-.039,3.682l0,0a8.619,8.619,0,0,1-3.218,3.467,7.68,7.68,0,0,1-5.9,1.224,2.734,2.734,0,0,0,.77.851c.792.529,3.131,1.3,6.515-.228a10.987,10.987,0,0,0,2.912-1.864c2.544-1.908,2.821-4.348,3.729-6.49a20.726,20.726,0,0,1,11.719-11.256c-4.9.6-10.891,5.011-10.716,3.04.082-.918,2.709-9.656,18.8-16.343.294-.108.584-.214.887-.319,0,0-7.814,1.209-19.59,8.226a39.468,39.468,0,0,0-10.9,9.475c.093-1.9,1.123-3.751,1.747-5.207-4.382,2.821-3.29,6.746-6.591,10.573a26.135,26.135,0,0,1-4.584,4.064,21.244,21.244,0,0,1-18.545,2.294c12.506-6.756,12.132-8.277,20.373-17.01,9.237-9.787,14.913-14.828,30.46-22.446-1.017,1.309-5.219,4.994-6.125,6.041,0,0,3.119-1.668,9.026-4.47,20.949-9.94,36.415-13.642,36.415-13.642s-3.831,2.74-6.479,4.5c-3.591,2.382-6.772,4.684-6.772,4.684s.14-.062.4-.173c30.157-9.446,55.066-6.491,55.066-6.491-16.3,1.57-29.485,4.667-36.481,7.861,0,0,9.659-1.658,14.57-1.658a82.669,82.669,0,0,1,8.732.467c-30.727,4.791-47.254,13.667-51.283,16.057-1.677.713-2.555,1.157-2.555,1.157s5.011-1.568,11.362-3.142c11.177-1.714,27.533-.791,43.312,3.89,0,0-10.941-.58-15.722-.473-14.278.318-28.994,6.056-28.994,6.056,9.3-2.342,19.483-.617,19.483-.617-3.962.228-13.7,2.829-18.59,4.84a96.335,96.335,0,0,0-19.347,10.84c-2.1,1.243-3.219,2.064-3.219,2.064a69.252,69.252,0,0,1,7.142-3.157,55.3,55.3,0,0,1,34.937-.036,60.89,60.89,0,0,0-39.634,5.956c12.681-4.141,20.723-.237,20.723-.237Zm-52.508-.956a1.685,1.685,0,0,1-.6-.791c.443-.352.863-.728,1.261-1.114a2.561,2.561,0,0,0,1.009,2.307,2.838,2.838,0,0,1-1.67-.4Z" transform="translate(-2.2 -1.906)"/><path class="c" d="M162.188,1894.8c-1.147-4.424,6.608-13.161,21.356-18.661.032-.012.426-.153.592-.211-16.094,6.686-18.721,15.425-18.8,16.343-.175,1.971,5.817-2.444,10.716-3.04a20.731,20.731,0,0,0-11.719,11.256c-.908,2.143-1.184,4.583-3.728,6.49a6.063,6.063,0,0,0,2.228-4.163,6.6,6.6,0,0,1-2.193.823,3.532,3.532,0,0,1-1.11-.108,4.234,4.234,0,0,0,.515-1.916c1.563-3.565,5.467-6.868,5.467-6.868s-2.887,1.716-3.319.055Zm84.394-14.146c-15.781-4.681-32.136-5.6-43.313-3.89,3.8-.937,8.07-1.88,12.042-2.489,18.417-2.832,43.854-.1,43.854-.1s-1.177,3.739-6.706,9.8a71.152,71.152,0,0,1-7.172,7.223c-29.964-6.38-53.574,5.184-61.877,10.1a96.408,96.408,0,0,1,19.347-10.84c4.889-2.012,14.629-4.612,18.59-4.84,0,0-10.188-1.725-19.482.616,0,0,14.715-5.738,28.993-6.055,4.781-.107,15.723.472,15.723.472Zm-58.7,30.184c-8.777,2.175-12.582,4.894-16.142,8.244.255-.672.54-1.316.843-1.933,3.946-5.042,15.408-13.126,30.778-11.259,0,0-8.042-3.9-20.723.238a60.891,60.891,0,0,1,39.634-5.956,55.29,55.29,0,0,0-34.936.036c11.5-4.438,34.969-10.852,56.238-.2-1.265,2.712-4.466,6.742-9.573,11.766a32.486,32.486,0,0,1-8.936,6.615l-.2.107c-1.736-6.565-16.187-12.816-36.979-7.661Zm71.046-54.815s-24.91-2.954-55.067,6.492a147.281,147.281,0,0,1,29.06-8.2c15.742-2.92,29.61-4.038,29.61-4.038a47.186,47.186,0,0,1-11.09,17.394c-5.585.556-19.457,1.143-31.4,3.507a132.986,132.986,0,0,0-25.579,7.569c4.029-2.391,20.555-11.266,51.283-16.057a82.818,82.818,0,0,0-8.732-.466c-4.91,0-14.569,1.657-14.569,1.657,7-3.194,20.179-6.291,36.481-7.861Zm-82.749,63.145s7.884-7.685,25.4-4.594a21.457,21.457,0,0,1,10.432,4.728c-2.994,5.206-8.917,7.752-8.917,7.752s.378-8.284-12.779-10.4c-8.894-1.429-14.134,2.512-14.134,2.512Zm-35.951-9.559s11.39,14.381,29.541,7.232a22.368,22.368,0,0,0-1.746,5.019c-4.192,19.488-18.318,27.931-18.318,27.931-2.573-5.835-1.133-11.474-.695-13.587a12.072,12.072,0,0,0-1.316-8.394c9.293.442.183,12.01,3.635,17.048,6.245-3.634,10.011-16.417,10.941-20.982.065-.171-.881-.843-1.646-1.124-8.973-2.883-24.015-.414-29.455,2.874-17.033,10.3-1.1,17.367-1.1,17.367s-10.489,3.5-16.493-5.973c-1.473-2.513-1.843-7.094-2.166-10.676,6.245-10.563,16.061-14.763,18.787-16.641a20.352,20.352,0,0,0,10.028-.1Zm-8.236,4.989c-1.335,2,1.476,1.6,2.776,1.216,1.055-.314,5.8-1.693,5.8-1.693-2.644-.253-3.655-.808-4.627-1.605C133.68,1913.688,131.988,1914.6,131.988,1914.6Z" transform="translate(-0.861 -1.62)"/></g><rect class="d" width="200" height="200"/></svg>