<svg xmlns="http://www.w3.org/2000/svg" width="200" height="200" viewBox="0 0 200 200"><defs><style>.a{fill:#8b8d8d;}.b{fill:#fff;}.c{fill:#0d2240;}.d{fill:#cf0a2c;}.e{fill:none;mix-blend-mode:multiply;isolation:isolate;}</style></defs><g transform="translate(-1650.553 -1885.6)"><path class="a" d="M1810.434,1953.244a68.385,68.385,0,0,0-16.513-20.063c-1.259-1.039-2.565-2.02-3.9-2.968a67.721,67.721,0,0,0-39.315-12.613h-.119a68.051,68.051,0,0,0-67.943,64.435q-.094,1.74-.1,3.5v.118a67.9,67.9,0,0,0,5.341,26.465c.427,1.017.885,2.02,1.36,3.011a68.254,68.254,0,0,0,15.561,20.858q2.41,2.2,5.031,4.158a67.726,67.726,0,0,0,40.671,13.544h.094a67.971,67.971,0,0,0,68.022-67.962v-.038h0v-.047a67.842,67.842,0,0,0-5.338-26.455q-1.291-3.049-2.861-5.941"/><path class="b" d="M1811.185,1959.466q-1.253-2.967-2.782-5.783a66.487,66.487,0,0,0-16.073-19.524c-1.224-1.012-2.495-1.965-3.79-2.889A65.891,65.891,0,0,0,1750.276,1919h-.116a66.226,66.226,0,0,0-66.123,62.706q-.09,1.694-.092,3.406v.115a66.016,66.016,0,0,0,5.2,25.752q.626,1.487,1.323,2.933a66.464,66.464,0,0,0,15.143,20.3q2.347,2.14,4.9,4.048a65.941,65.941,0,0,0,39.582,13.179h.091a66.152,66.152,0,0,0,66.2-66.141v-.036h0v-.046A66.012,66.012,0,0,0,1811.185,1959.466Z" transform="translate(0.428 0.429)"/><path class="c" d="M1736.428,1949.157l1.536-5.584.364-1.3-7.048-3.948s-4.111-2.853-13.3,2.482c-10.763,6.346-19.519,14.554-24.052,23.262a55.306,55.306,0,0,0-5.529,16.692,60.136,60.136,0,0,0,10.38,32.29c-1.792-17.223,14.847-36.088,27.877-48.972a45.38,45.38,0,0,0,9.776-14.919" transform="translate(1.796 6.137)"/><path class="c" d="M1763.011,1940.8c-9.194-5.333-13.3-2.479-13.3-2.479l-7.044,3.946.358,1.3,1.536,5.584a45.34,45.34,0,0,0,9.777,14.917c12.989,12.846,29.575,31.635,27.894,48.813a60.122,60.122,0,0,0,10.282-32.667,55.294,55.294,0,0,0-5.448-16.156c-4.532-8.7-13.293-16.916-24.053-23.263" transform="translate(18.481 6.137)"/><path class="d" d="M1741.316,1934.187a66.693,66.693,0,0,1,48.226,28.6,60.589,60.589,0,0,0-37.874-37.284c-3.9,1.152-8.219,3.573-10.352,8.688" transform="translate(18.066 2.428)"/><path class="d" d="M1739.316,1934.191c-2.142-5.141-6.5-7.562-10.412-8.7a60.585,60.585,0,0,0-38,37.589,66.675,66.675,0,0,1,48.415-28.885" transform="translate(2.566 2.425)"/><path class="d" d="M1732.845,1934.237l4.793-7.056,4.8,7.056c1.925-5.26,4.959-8.16,8-9.74a60.436,60.436,0,0,0-25.63,0c3.052,1.575,6.1,4.465,8.033,9.744" transform="translate(12.992 1.698)"/><path class="c" d="M1744.824,1947.3c-.7.5-23,16.548-32.823,32.44-13.258,21.451-11.536,33.821-8.106,40.881a60.244,60.244,0,0,0,31.346,15.183l5.168-73.264,4.309-4.322.055-.056h.005l.054.056,4.307,4.322,5.206,73.2-.068.037a60.171,60.171,0,0,0,31.555-15.325c3.378-7.087,4.979-19.427-8.182-40.715-9.824-15.893-32.126-31.942-32.826-32.442" transform="translate(5.809 9.132)"/><path class="a" d="M1738.937,1959.975l-4.308-4.32.052,82.917,9.39-5.356h0l.068-.035Z" transform="translate(16.011 11.7)"/><path class="a" d="M1751.363,1937.152a75.139,75.139,0,0,0-7.936-.979l-1.889-.12-.037-.077-.041-.077-.757-1.545-.047-.094h0l-2.185-4.439-.7,1.432-1.407,2.859,0,0-.06.119-.058.12-.757,1.545-.063.131-.013.024-1.885.12a75.132,75.132,0,0,0-7.935.979c-1.166.2-2.338.374-3.487.627h0l3.706,2,3.707,2,1.144.616,1.146.618-.7,2.509-.038.14-.319,1.16-2.063,7.493v0l4.7-3.464,3.184-2.348.94-.693.938-.693h0v-.038l.026.022.03-.022v.038h0l.938.693.94.693,7.879,5.813-2.063-7.494-.179-.649-.175-.65-.7-2.509.745-.4,1.547-.833,5-2.7,2.408-1.3h0c-1.149-.255-2.319-.43-3.484-.629" transform="translate(12.159 3.757)"/></g><rect class="e" width="200" height="200"/></svg>