<svg xmlns="http://www.w3.org/2000/svg" width="200" height="200" viewBox="0 0 200 200"><defs><style>.a{fill:#fff;}.b{fill:#024;}.c{fill:none;mix-blend-mode:multiply;isolation:isolate;}</style></defs><g transform="translate(-700.121 -850.246)"><path class="a" d="M884.27,929.374H821.15l-20.106-60.128-20.108,60.128H717.819L769.532,966.4l-19.852,60.163,51.364-36.69,51.368,36.62L832.554,966.4l51.716-37.025" transform="translate(0)"/><path class="b" d="M802.566,877.96l-18.494,55.217H726.323L773.7,967.093l-18.221,55.215,47.1-33.635,47.081,33.635-18.229-55.215,47.379-33.916H821.057L802.566,877.96" transform="translate(-1.521 -1.559)"/><path class="a" d="M805.745,896.494l-14.871,44.725H744.1l38.376,27.472-14.758,44.722,38.145-27.241,37.914,27.241-14.759-44.721,38.379-27.474H820.615l-14.87-44.725" transform="translate(-4.701 -4.874)"/><path class="b" d="M808.579,912.512l-11.689,35.333H759.942l30.313,21.7-11.662,35.333,30.138-21.522,29.83,21.522L826.9,969.549l30.317-21.705h-36.95l-11.687-35.332" transform="translate(-7.535 -7.739)"/></g><rect class="c" width="200" height="200"/></svg>