<svg xmlns="http://www.w3.org/2000/svg" width="200" height="200" viewBox="0 0 200 200"><defs><style>.a{fill:#005778;}.b{fill:#fff;}.c{fill:#f26a24;}.d{fill:#008e97;}.e{fill:none;mix-blend-mode:multiply;isolation:isolate;}</style></defs><g transform="translate(-1629.826 -1165.133)"><path class="a" d="M1818.755,1235.349a38.909,38.909,0,0,1-6.174.436,13.626,13.626,0,0,0-6.609,1.162,11.006,11.006,0,0,0-4.43,3.959,2.682,2.682,0,0,1,.581-.654,8.577,8.577,0,0,1,6.936-2.288,1,1,0,0,0-.145.908c.036.036.036.073.072.145a.036.036,0,0,0,.037.036s1.67-.544,2.832-.907a41.653,41.653,0,0,0,5.883-1.78c2.361-.98,3.123-1.38,3.051-1.561-.109-.218-.69.218-2.034.544" transform="translate(-23.071 -5.9)"/><path class="b" d="M1801.811,1240.731a2.692,2.692,0,0,0-.581.653,33.916,33.916,0,0,0-1.889,3.3c1.562-2.288,6.428-4.249,9.333-5.229a.191.191,0,0,1-.072-.146,1,1,0,0,1,.145-.908,8.669,8.669,0,0,0-6.936,2.325" transform="translate(-22.759 -6.416)"/><path class="c" d="M1794.172,1298.661c-.98,2,1.6,8.208,3.922,10.06-1.707-.509-10.713-3.087-12.165.254-1.6,3.668,7.19,17.068,8.207,19.574-4.031-4.031-15.144-13.037-16.7-11.984-1.562,1.017-1.2,6.064-.763,8.606-1.525-1.852-4.14-4.83-6.391-3.922-2.252.872-2,9.515-2.143,13.183-1.852-4.322-4.9-13-7.735-12.711-2.833.327-5.992,6.247-6.573,8.5-.436-2.251-2.288-7.227-5.048-7.227s-9.26,13.183-11.221,17.468c0-3.3.8-19.465-.981-20.264-1.743-.8-7.7,2.869-8.97,4.576.473-2.106.872-9.3-.69-10.168-1.6-.872-6.1-1.126-14.235,6.391,1.344-2.905,3.6-6.028,4.14-9.079a73.444,73.444,0,0,0,10.1-1.2,44.714,44.714,0,0,0,70.888-36.242,42.061,42.061,0,0,0-.364-5.7c1.671-1.562,3.232-3.05,4.721-4.467a7.845,7.845,0,0,0-.508,2.978c.109,3.777,9.841,4.576,15.034,4.975-5.81.8-15.906,4.975-13.981,7.227s7.517,5.338,8.316,5.738c-2.687,0-11.475.908-12.456,3.413s12.71,10.822,17.722,12.783c-6.246-1.815-21.1-4.757-22.116-2.76" transform="translate(-10.472 -10.092)"/><path class="c" d="M1782.568,1225.582a57.966,57.966,0,0,0-9.043,2.579,44.695,44.695,0,0,0-65.948,54.145,42.408,42.408,0,0,1-7.481,4.54c1.816-2.179,3.414-6.355,1.344-7.481-1.417-.763-7.953-1.053-7.953-1.053s7.372-4.939,7.19-8.534-11.911-5.411-16.56-6.464c4.1-.872,17.4-3.85,17.94-6.537.581-2.687-4.14-4.576-6.137-5.484,2.215.037,7.88.981,8.606-1.779.872-3.16-13-11.367-16.2-12.529.69.182,13.945,3.269,18.775,2.215,3.6-.762-.581-5.628-1.308-6.209,1.054.508,7.118,1.779,8.861-1.126,1.743-2.869-4.14-14.345-7.444-19.211,2.941,2.905,16.305,12.42,18.3,10.822,2-1.634.473-6.864-.581-8.57,2.143,2.033,4.286,4.721,7.009,4.648,1.38-.036,3.087-4.576,3.378-14.817,1.852,5.738,6.282,13.546,9.55,13.074s4.358-5.3,4.83-7.372c.363,2.215,2.07,7.88,4.249,8.1,2.651.4,7.772-11.439,9.624-16.814.29,2.651-1.671,16.233,1.2,17.359s7.626-4.576,10.314-7.808c-1.635,3.087-4.83,10.6-2.942,12.384s8.461-.073,11.04-2.216a7.784,7.784,0,0,0-.618,4.14" transform="translate(-6.422 -1.218)"/><path class="d" d="M1811.5,1229.261c-3.414.327-10.241,2.8-10.241,2.8-12.456-3.232-27.273-3.6-45.43,7.444a107.234,107.234,0,0,0-9.333,6.392c-2.869,2.179-5.484,4.394-7.953,6.609-1.053.944-2.433,2.179-3.6,3.377-5.883,1.961-8.5.146-16.6,1.2-6.392.835-8.9,3.014-10.314,4.757a1,1,0,0,0,.182,1.2c.762.618,1.961.291,4.176.146,2.252-.182,5.629-.109,7.88,1.307,1.453.908,2.107,3.05,2.325,4.285-1.671,1.78-3.341,3.523-4.976,5.157-10.241,10.132-17.1,16.16-24.8,19.174-16.705,6.537-26.11-1.125-29.887-3.413-4.576-2.942-10.641-3.922-13.909-4.5a11.754,11.754,0,0,1-5.738-2.76c-.69-.581-1.234-1.6-2.033-1.344a1.131,1.131,0,0,0-.509.254,1.332,1.332,0,0,1,.509-.254c.109,1.416,4.866,13.219,19.937,15.361a23.7,23.7,0,0,0,6.464.363,35.883,35.883,0,0,1-4.794-5.519q.871.762,1.743,1.416a24.006,24.006,0,0,0,13.909,7.481c.291.072,4.5.254,4.5.254,4.939-.109,11.585-1.562,17.722-3.341,18.085-5.229,35.516-20.918,35.516-20.918s-.981,4.213-1.344,5.7a57.891,57.891,0,0,1-2.8,9.26s-.508,1.235-1.235,2.76c-1.089,2.252-2.578,5.121-2.578,6.283v.145a.719.719,0,0,0,.073.29,32.8,32.8,0,0,0,5.3-3.74,93.785,93.785,0,0,0,12.274-12.855c10.858-13.364,12.565-22.516,20.191-29.67,3.232-3.014,11.694-7.7,16.052-9.188a.133.133,0,0,1,.109-.036c7.335-4.176,14.526-7.445,15.688-7.917,4.285-1.743,19.392-6.754,20.99-4.249-.69-2.905-4.1-4.031-7.481-3.7m-16.56,6.283a45.026,45.026,0,0,1-5.883,1.779c-1.162.363-2.832.908-2.832.908a.036.036,0,0,0-.037-.036c-2.905.98-7.771,2.9-9.333,5.229a33.076,33.076,0,0,1,1.852-3.3,11,11,0,0,1,4.431-3.959,13.626,13.626,0,0,1,6.609-1.162,38.317,38.317,0,0,0,6.174-.436c1.38-.327,1.961-.762,2.033-.581.109.182-.653.618-3.014,1.562" transform="translate(-0.272 -5.115)"/><path class="b" d="M1741.113,1290.5a57.947,57.947,0,0,1-2.8,9.261,109.848,109.848,0,0,1-23.9,9.151c-16.813,3.958-27.6.508-29.415-.073l-.254-.072c.4.072,4.5.254,4.5.254a68.618,68.618,0,0,0,24.949-4.249c10.313-3.777,20.445-9.914,26.909-14.272" transform="translate(-6.512 -13.806)"/><path class="a" d="M1743.2,1283.815s-.981,4.212-1.344,5.7c-6.464,4.358-16.6,10.5-26.909,14.272a68.619,68.619,0,0,1-24.949,4.249c4.939-.109,11.585-1.562,17.722-3.341,18.048-5.193,35.48-20.881,35.48-20.881" transform="translate(-7.256 -12.858)"/><path class="d" d="M1799.523,1275.225a93.171,93.171,0,0,1-5.665,13.945,33.032,33.032,0,0,1-8.643,10.64,1.217,1.217,0,0,1-.472-1.053,72.878,72.878,0,0,0,2.36-13.183c2.143-1.6,4.067-3.159,5.774-4.575,2.179-1.816,4.431-3.777,6.646-5.774" transform="translate(-20.69 -11.64)"/><path class="a" d="M1685.255,1297.047a6.323,6.323,0,0,1-.218,1.634,10.989,10.989,0,0,1-1.562,3.269,15.559,15.559,0,0,1-1.307,1.634c-.145,0-.763.036-1.271,0a12.379,12.379,0,0,1-1.307-.182c-.146-.181,6.79-4.9,4.9-7.19.109,0,.726-.145.763.835" transform="translate(-5.78 -14.614)"/><path class="a" d="M1832.543,1236.718a10.108,10.108,0,0,1-1.2,1.235,39.882,39.882,0,0,1-5.121,3.632,112.025,112.025,0,0,0-14.78,11.148c-.182.182-14.454,13.655-14.817,13.982a97.064,97.064,0,0,1-6.319,15.978c-3.086,6.283-7.735,10.2-9.369,11.113-.109.036-1.053.653-1.707.254a33.02,33.02,0,0,0,8.643-10.64,93.167,93.167,0,0,0,5.666-13.945c-2.216,2-4.467,3.958-6.61,5.737q-2.56,2.125-5.774,4.576s-4.612,3.414-7.227,5.12c-1.452.981-8.171,5.157-12.238,7.372-3.45,1.889-10.676,5.3-10.713,5.3-3.777,3.16-6.718,4.649-7.517,4.467a1.035,1.035,0,0,1-.654-.726,32.683,32.683,0,0,0,5.3-3.741,93.665,93.665,0,0,0,12.275-12.855c10.858-13.364,12.565-22.515,20.191-29.633,3.232-3.014,11.693-7.7,16.051-9.188a.135.135,0,0,1,.109-.036c-4.975,2.832-10.023,6.1-13.291,9.26-6.355,5.956-8.534,12.892-14.853,22.406l-.145.255c21.244-16.124,37.7-34.79,54.654-40.746.545-.181,1.053-.363,1.562-.545.036,0,.036,0,.072-.036,5.774-1.961,8.1-2.251,8.28-1.162a2.732,2.732,0,0,1-.472,1.416" transform="translate(-14.744 -5.89)"/><path class="d" d="M1677.8,1303.409c-4.286-.835-9.3-3.74-10.859-4.612a5.571,5.571,0,0,1,4.322-1.307c3.413.218,7.19.472,8.97-.036,1.525-.473,1.815-1.126,2.469-1.2,1.888,2.252-5.048,6.936-4.9,7.154" transform="translate(-3.986 -14.622)"/><path class="a" d="M1729.462,1260.885c8.1-1.053,10.713.763,16.6-1.2,1.162-1.162,2.542-2.4,3.6-3.377a25.148,25.148,0,0,1-4.176,1.053c-2.76.545-4.758.4-10.5,1.162-9.007,1.2-13.183,3.995-14.381,5.084a8.022,8.022,0,0,0-1.017,1.126,5.713,5.713,0,0,0-.472.871c1.452-1.67,3.958-3.885,10.35-4.721" transform="translate(-11.384 -8.958)"/><path class="a" d="M1730.8,1302.419c-1.089,2.251-2.578,5.12-2.578,6.282v.146a71.951,71.951,0,0,1-24.949,5.12,72.977,72.977,0,0,1-33.7-6.791h-.291c-1.779,0-10.531-.145-16.269-2.8a23.17,23.17,0,0,1-11.475-10.931c-1.163-2.578-1.235-3.377-.872-3.7.036-.036.073-.073.109-.073a1.309,1.309,0,0,1,.4-.145c.109,1.416,4.867,13.219,19.937,15.361a23.7,23.7,0,0,0,6.464.363,35.8,35.8,0,0,1-4.793-5.519q.871.762,1.743,1.416a24.008,24.008,0,0,0,13.909,7.481l.254.072c1.852.618,12.6,4.031,29.415.073a109.825,109.825,0,0,0,23.9-9.151,25.3,25.3,0,0,1-1.2,2.8" transform="translate(-0.234 -13.668)"/><path class="b" d="M1820.306,1228.286a5.724,5.724,0,0,0-.146-1.089c-.835-2.869-3.776-4.649-7.771-4.649-.436,0-.872.037-1.271.073-3.087.291-8.534,2.143-10.168,2.724a59.734,59.734,0,0,0-14.563-1.925,53.952,53.952,0,0,0-7.263.508l-.98.146s-.4-1.271.617-4.213a24.035,24.035,0,0,1,1.235-2.941s-11.076,5.774-12.456,3.922,4.83-16.451,4.83-16.451-10.677,11.875-12.783,11.33c-.835-.218-.908-4.5-.944-9.151-.037-6.283.145-13.437.145-13.437S1750,1215,1747.856,1214.886c-1.852-.109-4.576-11.766-4.576-11.766s-1.706,10.059-4.757,11.294-10.894-17.577-10.894-17.577-.364,18.848-2.543,19.247c-2.178.436-9.151-6.609-9.151-6.609s3.268,9.369,2.143,10.6c-.654.726-7.336-3.414-14.309-8.389-4.03-2.869-7.371-5.3-7.371-5.3s3.922,6.5,7.045,13.328c2.142,4.685,3.45,9.188,2.905,10.059-1.38,2.143-11.694-.908-11.694-.908s5.883,5.665,5.484,7.118c-.182.69-6.028.182-11.948-.617-6.282-.872-12.71-2.034-12.71-2.034s20.954,12.2,20.3,14.381c-.508,1.743-13.582.327-13.582.327s11.331,5.193,11.294,6.9-22.188,7.335-22.188,7.335,20.082,4.213,20.445,6.428c.4,2.251-7.917,9.406-7.917,9.406s9.66.871,10.132,2.142-2.36,6.246-4.793,7.045a28.5,28.5,0,0,1-9.152,1.6c-.472,0-.944,0-1.416-.036a7.258,7.258,0,0,0,.472-.654,12.138,12.138,0,0,0,1.78-3.74,7.754,7.754,0,0,0,.254-2v-.072a2.72,2.72,0,0,0-.69-1.816,1.937,1.937,0,0,0-2.143-.4l-1.888.944a3.937,3.937,0,0,1-.509.181,9.953,9.953,0,0,1-2.723.255c-1.525,0-3.3-.109-5.048-.218,0,0-1.053-.073-1.271-.073a7.047,7.047,0,0,0-4.285,1.271l-.436-.254c-4.249-2.252-9.188-3.16-12.274-3.741-.255-.036-.473-.072-.69-.109a9.875,9.875,0,0,1-5.411-2.868,4.665,4.665,0,0,0-1.162-1.017,2.847,2.847,0,0,0-2.216-.146,2.275,2.275,0,0,0-1.234.981c-.727,1.235-.037,3.014.907,5.048a24.732,24.732,0,0,0,12.239,11.693,33.447,33.447,0,0,0,10.1,2.542,60.225,60.225,0,0,0,6.755.4,66.411,66.411,0,0,0,8.679,3.341,76.569,76.569,0,0,0,21.971,3.486s3.2.036,4.939-.073c.181.727-1.09,3.3-2.579,6.319-1.779,3.595-4.067,7.844-4.067,7.844s4.14-3.668,7.989-6.355c3.886-2.724,8.208-4.9,9.261-3.668,1.924,2.4-.146,12.238-.146,12.238s7.844-6.936,9.66-5.992c.835.436.908,5.629.908,11.077,0,6.464-.145,13.327-.145,13.327s10.785-21.825,13.037-21.208,4.721,10.568,4.721,10.568,4.1-12.129,6.609-11.839c1.017-.109,3.16,3.813,5.084,7.844,2.107,4.394,3.886,8.716,3.886,8.716s.036-4.5.363-9.115c.291-4.176.8-8.207,1.743-8.462,1.925-.472,7.518,7.009,7.518,7.009s-1.961-10.422-.436-11.33c1.561-.872,20.155,15.18,20.155,15.18s-12.2-22.625-10.713-24.332c1.489-1.743,14.526,1.78,14.526,1.78a52.822,52.822,0,0,1-3.6-4.9c-1.743-2.723-3.2-5.737-2.506-6.464.617-.653,7.408.037,14.417,1.38,8.1,1.562,13.364,2.688,13.364,2.688s-4.757-2.579-11.8-6.828c-6.1-3.668-11.44-7.771-11.222-8.461.509-1.453,15.035-2.833,15.035-2.833s-2.433-1.452-5.048-3.05c-2.833-1.743-5.883-3.922-5.883-4.685,0-.69,3.631-2.4,8.461-3.886,5.774-1.779,11.113-2.941,11.113-2.941s-19.828-1.6-21.063-4.43c-.835-1.925.69-4.431,1.852-6.065a20.034,20.034,0,0,1,2.76-3.087,112.172,112.172,0,0,1,14.49-10.967,5.262,5.262,0,0,1,.472-.291s5.084-3.74,5.592-4.176a5.738,5.738,0,0,0,1.889-3.159c-.182.109-.073-.291-.109-.981m-125.252,49.861c-1.416-.763-7.953-1.053-7.953-1.053s7.372-4.939,7.19-8.534-11.911-5.411-16.559-6.464c4.1-.872,17.4-3.85,17.939-6.537.581-2.687-4.14-4.576-6.137-5.484,2.215.037,7.88.981,8.607-1.779.871-3.16-13-11.367-16.2-12.529.69.182,13.945,3.269,18.775,2.215,3.6-.8-.581-5.628-1.307-6.209,1.053.508,7.117,1.779,8.861-1.126,1.743-2.869-4.14-14.345-7.445-19.211,2.942,2.905,16.305,12.42,18.3,10.822,2-1.634.472-6.864-.581-8.57,2.142,2.033,4.285,4.721,7.009,4.648,1.38-.036,3.086-4.576,3.377-14.817,1.852,5.738,6.282,13.546,9.551,13.074s4.358-5.3,4.83-7.372c.363,2.215,2.07,7.88,4.249,8.1,2.651.4,7.771-11.439,9.623-16.814.291,2.651-1.67,16.233,1.2,17.359s7.627-4.576,10.314-7.808c-1.634,3.087-4.83,10.6-2.942,12.42,1.889,1.779,8.462-.073,11.04-2.215a6.72,6.72,0,0,0-.69,3.994,57.97,57.97,0,0,0-9.042,2.579,44.714,44.714,0,0,0-65.949,54.182,42.475,42.475,0,0,1-7.48,4.539c1.888-2.106,3.486-6.282,1.416-7.408m-27.781,4.685c3.413.217,7.19.472,8.97-.037,1.525-.472,1.815-1.126,2.469-1.2.109,0,.726-.145.763.835a6.323,6.323,0,0,1-.218,1.634,10.989,10.989,0,0,1-1.562,3.269,15.559,15.559,0,0,1-1.307,1.634,8.341,8.341,0,0,1-1.271-.036c-.509-.037-1.09-.146-1.307-.182-4.286-.8-9.3-3.7-10.859-4.612a5.507,5.507,0,0,1,4.322-1.307m138.942-20.736c-5.81.8-15.906,4.975-13.981,7.226s7.517,5.339,8.316,5.738c-2.687,0-11.475.908-12.456,3.414s12.71,10.858,17.722,12.819c-6.246-1.743-21.1-4.685-22.116-2.687-.98,2,1.6,8.207,3.922,10.059-1.707-.508-10.713-3.087-12.165.254-1.6,3.668,7.19,17.068,8.207,19.574-4.068-4.031-15.144-13.037-16.7-11.984-1.562,1.017-1.2,6.065-.763,8.607-1.525-1.852-4.14-4.83-6.391-3.922s-2,9.514-2.143,13.182c-1.852-4.321-4.9-13-7.735-12.71-2.833.327-5.992,6.246-6.573,8.5-.436-2.251-2.288-7.226-5.048-7.226-2.8,0-9.26,13.182-11.221,17.467,0-3.3.8-19.465-.981-20.263-1.743-.8-7.7,2.868-8.97,4.575.473-2.106.872-9.3-.69-10.168-1.6-.872-6.1-1.126-14.235,6.391,1.344-2.905,3.6-6.028,4.14-9.078a73.579,73.579,0,0,0,10.1-1.2,44.713,44.713,0,0,0,70.888-36.242,42.06,42.06,0,0,0-.364-5.7c1.671-1.561,3.232-3.05,4.721-4.466a7.2,7.2,0,0,0-.508,2.977c.073,3.632,9.841,4.467,15.034,4.867m12.493-34.282c-1.6-2.506-16.7,2.506-20.99,4.249a167.038,167.038,0,0,0-15.688,7.917c-4.976,2.832-10.023,6.1-13.292,9.26-6.355,5.956-8.534,12.892-14.853,22.407l-.145.254c21.244-16.124,37.7-34.79,54.654-40.746.545-.181,1.053-.363,1.562-.545.036,0,.036,0,.072-.036,5.775-1.961,8.1-2.251,8.28-1.162a2.979,2.979,0,0,1-.435,1.453,10.145,10.145,0,0,1-1.2,1.234,39.839,39.839,0,0,1-5.12,3.632,112.016,112.016,0,0,0-14.781,11.149c-.181.181-14.453,13.654-14.816,13.981a97.061,97.061,0,0,1-6.319,15.979c-3.087,6.282-7.735,10.2-9.369,11.112-.109.036-1.053.654-1.707.254a1.216,1.216,0,0,1-.472-1.053,72.859,72.859,0,0,0,2.36-13.182s-4.612,3.413-7.226,5.156c-1.453.981-8.171,5.157-12.239,7.372-3.449,1.889-10.676,5.3-10.712,5.3-3.777,3.16-6.719,4.649-7.518,4.467a1.033,1.033,0,0,1-.653-.726,2.757,2.757,0,0,0-.073-.291,71.819,71.819,0,0,1-24.912,5.121,72.979,72.979,0,0,1-33.7-6.791h-.29c-1.78,0-10.531-.145-16.269-2.8a23.175,23.175,0,0,1-11.476-10.931c-1.162-2.579-1.235-3.378-.871-3.7a1.33,1.33,0,0,1,.508-.255c.8-.217,1.307.763,2.034,1.344a11.425,11.425,0,0,0,5.737,2.76c3.269.617,9.333,1.6,13.909,4.5,3.777,2.252,13.183,9.95,29.887,3.414,7.7-3.014,14.6-9.043,24.8-19.175,1.67-1.634,3.3-3.377,4.975-5.156-.254-1.2-.908-3.378-2.324-4.286-2.252-1.416-5.629-1.452-7.881-1.307-2.251.182-3.413.472-4.176-.145a.853.853,0,0,1-.254-.908,3.072,3.072,0,0,1,.4-.944c.037-.073.109-.146.146-.218a6.292,6.292,0,0,1,1.016-1.126c1.162-1.089,5.375-3.922,14.381-5.084,5.738-.763,7.735-.617,10.495-1.162a36.948,36.948,0,0,0,4.176-1.053c2.47-2.215,5.085-4.431,7.953-6.61a104.7,104.7,0,0,1,9.333-6.355c18.158-11.04,32.938-10.676,45.431-7.444,0,0,6.827-2.47,10.241-2.8,3.3-.326,6.718.8,7.408,3.668"/></g><rect class="e" width="200" height="200"/></svg>