<svg xmlns="http://www.w3.org/2000/svg" xmlns:xlink="http://www.w3.org/1999/xlink" width="200" height="200" viewBox="0 0 200 200"><defs><style>.a,.f{fill:none;}.b{clip-path:url(#a);}.c{fill:#fff;}.d{fill:#5c6670;}.e{fill:#5b2b82;}.f{mix-blend-mode:multiply;isolation:isolate;}</style><clipPath id="a"><rect class="a" width="147.501" height="168.275" transform="translate(417.255 1885.506)"/></clipPath></defs><g transform="translate(-391.256 -1869.506)"><g class="b"><path class="c" d="M564.755,1885.506,543.646,1906.7,526,1889.079,508.28,1906.7l-17.612-17.622-17.607,17.62-17.618-17.62-17.6,17.629-20.585-20.78v93.838c0,40.81,32.74,74.015,73.527,74.015a74.075,74.075,0,0,0,73.973-74.016Z"/></g><g class="b"><path class="d" d="M423.839,1992.617a67.5,67.5,0,0,0,10.269,24.705c3.068-5.379,9.2-12.062,21.257-14.9-.925-3.095-1.75-6.385-2.45-9.8Z"/></g><g class="b"><path class="d" d="M438.917,2023.681a68.351,68.351,0,0,0,51.554,24.195c-1.864-.952-3.689-2-5.444-3.129-8.381-5.418-19.9-15.962-27.345-35.508-11.711,2.552-16.668,9.191-18.765,14.442"/></g><g class="b"><path class="d" d="M464.9,2008.213c5.281,13.276,13.26,23.478,23.732,30.326a53.383,53.383,0,0,0,17.935,7.529,68.476,68.476,0,0,0,29.638-15.289c-6.678-.732-13.525-4.575-20.753-8.628-11.286-6.335-25.34-14.218-44.315-14.218-2.049,0-4.143.1-6.237.28"/></g><g class="b"><path class="e" d="M493.428,1958.086h-24.4v29.051h10.137v-23.3h7.615v23.3h9.66v-24.982c0-2.213-1.353-4.069-3.012-4.069"/></g><g class="b"><path class="e" d="M500.711,1958.086v24.921c0,2.218,1.342,4.13,3,4.13h24.376V1969.5l-9.732-.011v11.894h-7.612v-17.689h17.344v-5.607Z"/></g><g class="b"><path class="e" d="M442.051,1958.086l-5.513,11.732h-3.184v-11.732h-10.09v29.051h10.09v-11.689h3.184l5.513,11.689h10.081l-7.11-14.5,7.11-14.546Z"/></g><g class="b"><rect class="e" width="10.446" height="29.051" transform="translate(454.816 1958.086)"/></g><g class="b"><path class="e" d="M558.775,1965.943v-7.857H531.992v13.272c0,2.213,1.344,4.011,2.995,4.011h13.646v6.331h-16.64v5.437h26.8V1973.8c0-2.064-1.139-4-2.674-4H542.045v-6.083h7.038v2.227Z"/></g><g class="b"><path class="e" d="M530.283,1928.623H521.73l17.639-17.647L526,1897.634l-17.723,17.62-17.613-17.62L459.7,1928.623h-8.552l17.609-17.674-13.316-13.316-17.6,17.62-14.576-14.47v51.972H558.773v-52.643Z"/></g><g class="b"><path class="c" d="M452.866,1947.171a1.371,1.371,0,0,0,1.364,1.369h7.615v-2.045h-6.206v-6.636h6.206v-2.042h-8.979Z"/></g><g class="b"><path class="c" d="M440.452,1937.817v10.723h2.77v-2.805h3.436v2.805h2.772v-9.356a1.4,1.4,0,0,0-1.523-1.367Zm6.206,5.878h-3.436v-3.835h3.436Z"/></g><g class="b"><path class="c" d="M552.38,1937.817H546.1a1.361,1.361,0,0,0-1.359,1.357v8a1.371,1.371,0,0,0,1.359,1.369h6.283a1.374,1.374,0,0,0,1.359-1.373v-7.993a1.361,1.361,0,0,0-1.359-1.357m-1.425,8.662h-3.424v-6.623h3.424Z"/></g><g class="b"><path class="c" d="M428.027,1942.834a1.369,1.369,0,0,0,1.366,1.364h4.84v2.3h-6.206v2.046h8.979v-5.022a1.359,1.359,0,0,0-1.219-1.355l-.076-.006H430.8v-2.3h6.211v-2.041h-8.979Z"/></g><g class="b"><path class="c" d="M485.082,1937.817h-7.611v10.723h2.773v-2.805h3.436v2.805h2.774v-9.356a1.373,1.373,0,0,0-1.372-1.367m-1.4,5.878h-3.437v-3.835h3.437Z"/></g><g class="b"><path class="c" d="M532.659,1939.856h3.109v8.684h2.766v-8.684h3.105v-2.039h-8.98Z"/></g><g class="b"><path class="c" d="M503.917,1937.817H490.132v10.723H492.9v-8.68h3.4v8.68h2.809v-8.68h3.4v8.68h2.772v-9.358a1.37,1.37,0,0,0-1.364-1.365"/></g><g class="b"><path class="c" d="M528.485,1937.817h-7.612v10.723h2.771v-8.68h3.436v8.68h2.773v-9.358a1.371,1.371,0,0,0-1.368-1.365"/></g><g class="b"><path class="c" d="M509.056,1947.171a1.367,1.367,0,0,0,1.364,1.369h7.608v-2.045h-6.2v-2.3h6.2v-2.037h-6.2v-2.3h6.2v-2.042h-8.972v9.354Z"/></g><g class="b"><path class="c" d="M472.532,1944.639h1.483v-5.458a1.406,1.406,0,0,0-1.523-1.364h-7.456v10.723h2.77v-3.9h2.01l1.659,3.9h2.7Zm-1.29-2.04h-3.436v-2.74h3.436Z"/></g><g class="b"><path class="d" d="M469.655,2000.844c14.437-.293,28.714,3.321,46.932,13.7,13.466,7.673,19.383,10,23.42,9.006,3.721-.915,7.172-3.112,13.261-15.981a67.056,67.056,0,0,0,4.8-14.951H460.127c.682,2.967,1.352,5.918,2.248,8.632a65.811,65.811,0,0,1,7.28-.409"/></g></g><rect class="f" width="200" height="200"/></svg>