<svg xmlns="http://www.w3.org/2000/svg" width="200" height="200" viewBox="0 0 200 200"><defs><style>.a{fill:#fff;}.b{fill:#002c5f;}.c{fill:none;mix-blend-mode:multiply;isolation:isolate;}</style></defs><g transform="translate(-410.67 -1176.678)"><path class="a" d="M510.692,1356.774c-15.418.069-27.24-4.333-32.9-7.32a80.166,80.166,0,0,1-28.084-24.217c-11.3-15.329-13.49-27.671-14.39-34.393a72.537,72.537,0,0,1,.022-19.458c1.337-10.889,3.811-16.312,5.581-21.62a126.351,126.351,0,0,1,8.452-17.019c2.239-3.264,6.328-9.279,7.995-11.4.456-.667-.136-.352-.386-.345a3.862,3.862,0,0,1-1.4.149,6.79,6.79,0,0,1-6.408-7.391,72.379,72.379,0,0,1,1.73-11.556c1.023-3.535,3.144-5.187,6.919-5.5,1.886,0,9.826-.158,13.433.405,7.221.718,12.509,2.819,15.653,9.187,2.517,5.581,1.654,14.309-1.806,20.991a78.192,78.192,0,0,1-5.583,9.277,65.616,65.616,0,0,0-4.325,7.233c-1.649,3.222-7.152,15.251-9.038,23.112-3.589,14.671-1.574,23.113,5.343,34.593,5.112,7.625,11.086,13.13,15.724,15.645,7.627,4.794,18.041,6.133,23.467,6.133s15.84-1.339,23.469-6.133c4.636-2.515,10.61-8.02,15.72-15.645,6.919-11.48,8.934-19.922,5.347-34.593-1.885-7.86-7.39-19.89-9.04-23.112a64.852,64.852,0,0,0-4.325-7.233,79,79,0,0,1-5.583-9.277c-3.458-6.682-4.32-15.409-1.806-20.991,3.142-6.368,8.434-8.469,15.654-9.187,3.6-.563,11.546-.405,13.432-.405,3.775.316,5.9,1.968,6.919,5.5a72.383,72.383,0,0,1,1.73,11.556,6.79,6.79,0,0,1-6.408,7.391,3.859,3.859,0,0,1-1.4-.149c-.252-.007-.843-.322-.387.345,1.668,2.123,5.754,8.138,8,11.4a126.249,126.249,0,0,1,8.449,17.019c1.77,5.308,4.245,10.731,5.581,21.62a72.679,72.679,0,0,1,.024,19.458c-.9,6.722-3.086,19.064-14.392,34.393a80.181,80.181,0,0,1-28.083,24.217c-5.658,2.986-17.48,7.249-32.9,7.32"/><path class="b" d="M510.607,1341.621a1.85,1.85,0,1,0-1.85-1.848A1.85,1.85,0,0,0,510.607,1341.621Zm-49.245-23.428a1.851,1.851,0,1,0-1.85-1.85A1.849,1.849,0,0,0,461.362,1318.193Zm-11-42.765a1.851,1.851,0,1,0-1.85-1.85A1.852,1.852,0,0,0,450.358,1275.428Zm21.7-50.317a1.85,1.85,0,1,0-1.852-1.85A1.848,1.848,0,0,0,472.054,1225.111Zm89.833,91.233a1.851,1.851,0,1,0-1.85,1.85A1.851,1.851,0,0,0,561.887,1316.344Zm11.006-42.766a1.851,1.851,0,1,0-1.852,1.85A1.851,1.851,0,0,0,572.893,1273.578Zm-21.7-50.316a1.851,1.851,0,1,0-1.852,1.85A1.851,1.851,0,0,0,551.2,1223.262Zm-74.978,121c-10.061-5.973-19.182-13.519-27.987-28.046-3.931-7.173-13.049-22.424-8.553-49,5.187-24.294,15.631-36.559,21.605-44.971,2.829-4.087-.08-6.446-2.361-5.581a11.185,11.185,0,0,1-3.222.772c-3.379-.458-2.908-2.657-2.279-8.4l.787-4.716c.7-4.166,2.593-4.089,7.545-3.993,7.862.156,9.276.22,13.523,1.005,5.661,1.258,13.049,6.92,7.233,22.485-3.618,8.334-7.391,11.162-11.48,19.811-4.4,9.593-15.093,31.133-7.86,49.53,9.9,24.686,29.087,33.491,47.326,33.807a51.712,51.712,0,0,0,47.734-33.807c7.233-18.4-3.458-39.937-7.862-49.53-4.087-8.649-7.86-11.477-11.478-19.811-5.816-15.565,1.574-21.227,7.233-22.485,4.245-.785,5.661-.849,13.523-1.005,4.952-.1,6.842-.173,7.549,3.993l.785,4.716c.627,5.742,1.1,7.941-2.279,8.4a11.2,11.2,0,0,1-3.224-.772c-2.282-.865-5.192,1.494-2.362,5.581,5.977,8.412,16.416,20.677,21.606,44.971,4.5,26.572-4.622,41.823-8.553,49-8.8,14.527-17.924,22.073-27.987,28.046-13.775,9.594-39.558,9.041-34.606,8.729,5.189.394-18.947,1.021-34.355-8.729Z"/></g><rect class="c" width="200" height="200"/></svg>