<svg xmlns="http://www.w3.org/2000/svg" width="200" height="200" viewBox="0 0 200 200"><defs><style>.a{fill:#a5acaf;}.b{fill:#fff;}.c{fill:#ffb612;}.d{fill:#c60c30;}.e{fill:#00539b;}.f{fill:none;mix-blend-mode:multiply;isolation:isolate;}</style></defs><g transform="translate(-413.6 -1803.012)"><path d="M434.6,1902.834a78.825,78.825,0,1,0,78.825-78.823,78.913,78.913,0,0,0-78.825,78.823" transform="translate(0 0)"/><path class="a" d="M513.424,1979.99a77.155,77.155,0,1,0-77.156-77.156,77.157,77.157,0,0,0,77.156,77.156" transform="translate(0)"/><path class="b" d="M513.424,1967.832a64.815,64.815,0,1,0-64.817-64.814,64.815,64.815,0,0,0,64.817,64.814" transform="translate(0)"/><path class="c" d="M511.015,1900.37c.717-25.429,24.738-31.4,30.773-30.852-14.877-.807-29.559-7.094-30.694-30.62-1.792,21.877-10.571,28.1-30.8,30.694,14.451.733,29.079,6.451,30.724,30.778" transform="translate(2.752)"/><path class="d" d="M541.874,1931.845c.717-25.43,24.315-31.7,30.352-31.156-14.927-.551-29.3-7.646-30.438-31.171-1.792,21.88-10.542,28.256-30.773,30.852,14.451.733,29.212,7.148,30.859,31.475" transform="translate(5.462 2.766)"/><path class="e" d="M511.388,1962.112c.715-25.433,24.449-30.814,30.485-30.267-14.877-.809-29.724-7.947-30.858-31.475-1.792,21.88-10.311,28.453-30.541,31.047,14.449.736,29.267,6.369,30.914,30.7" transform="translate(2.76 5.462)"/><path d="M475.941,1900.33v-2.881a2.371,2.371,0,0,0-1.468-2.171,3.74,3.74,0,0,0-3.224.084,2.415,2.415,0,0,0-1.253,2.133v4.545a2.319,2.319,0,0,0,1.54,2.293,4.922,4.922,0,0,0,2.89,0,1.911,1.911,0,0,0,1.515-1.946l0-1.1-2.052.008v.267c-.047,1.053-1.871.88-1.875.046l0-1.282Zm-1.984-1.938-1.858-.008A.982.982,0,1,1,473.957,1898.392Zm8.8,1.938v-2.881a2.373,2.373,0,0,0-1.468-2.171,3.742,3.742,0,0,0-3.225.084,2.414,2.414,0,0,0-1.252,2.133v4.545a2.313,2.313,0,0,0,1.54,2.293,4.924,4.924,0,0,0,2.89,0,1.915,1.915,0,0,0,1.515-1.946l0-1.1-2.052.008v.267c-.047,1.053-1.871.88-1.875.046v-1.282Zm-1.985-1.938-1.857-.008A.981.981,0,1,1,480.769,1898.392Zm11.988-.943a2.371,2.371,0,0,0-1.468-2.171,3.74,3.74,0,0,0-3.224.084,2.407,2.407,0,0,0-1.253,2.133v4.545a2.314,2.314,0,0,0,1.54,2.293,4.924,4.924,0,0,0,2.89,0,1.915,1.915,0,0,0,1.515-1.946l0-1.1-2.056.008v.267c-.043,1.053-1.867.88-1.871.046l-.008-1.282h3.939Zm-1.984.943-1.858-.008A.982.982,0,1,1,490.773,1898.392Zm-7.262-7.189v13.122h2.514v-13.114Zm-15.127,9.6v-3.664l.96.012-.012-2.2-.948.021-.009-2.26-2.5,1.367v.859l-.99.034.012,2.15.931-.034.017,4.942c.013,2.624,2.26,2.222,3.449,2.251v-2.792C468.3,1901.507,468.384,1901.308,468.384,1900.8Zm-3.766-1.155a3.865,3.865,0,0,0-.559-1.43,4.61,4.61,0,0,0-2.183-1.663l-.385-.191c-1.4-.448-1.96-1.3-1.524-2.213a1.11,1.11,0,0,1,1.549-.343,1.835,1.835,0,0,1,.351,1.185l.935,0h1.714a4.1,4.1,0,0,0-.469-2.289,3.838,3.838,0,0,0-4.943-1.367,3.19,3.19,0,0,0-1.468,1.413,3.819,3.819,0,0,0-.555,1.739,4.212,4.212,0,0,0,1.972,3.771,11.937,11.937,0,0,1,2.433,1.434,1.934,1.934,0,0,1,.254,1.7c-.389.686-1.4.436-1.646.174a2.836,2.836,0,0,1-.313-1.579l-2.661.017a4.916,4.916,0,0,0,.33,2.691,2.687,2.687,0,0,0,1.527,1.431,4.266,4.266,0,0,0,4.744-.677,1.829,1.829,0,0,0,.461-.686A5.025,5.025,0,0,0,464.618,1899.649Zm40.017,1.172a3.052,3.052,0,0,0-.233-.681,2.582,2.582,0,0,0-1.8-1.359l-.6-.148c-1.163-.131-1.235-.791-1.083-1.239a.746.746,0,0,1,.808-.5.763.763,0,0,1,.707.47,2.853,2.853,0,0,1,.034.593l2.162.008a3.3,3.3,0,0,0-.639-2.188,3.354,3.354,0,0,0-3.677-.673,2.388,2.388,0,0,0-1.3.931,2.511,2.511,0,0,0-.414,1.4,2.4,2.4,0,0,0,1.65,2.687c.766.2,1.642.3,2.052.914a.624.624,0,0,1,.055.736c-.144.364-.956.36-1.286.233a.815.815,0,0,1-.483-.829l-2.09.012a4.1,4.1,0,0,0,.355,1.9,2.5,2.5,0,0,0,1.448,1.168,4.1,4.1,0,0,0,3.275-.284,3.263,3.263,0,0,0,.829-.875A2.834,2.834,0,0,0,504.635,1900.821Zm-7.075-5.954c-.825.186-1.045.567-1.409,1.21l-.008-1.167-2.425.025v9.309h2.467v-5.4c.029-.563-.11-1.3,1.976-1.147v-2.835Z" transform="translate(0 2.638)"/></g><rect class="f" width="200" height="200"/></svg>