<svg xmlns="http://www.w3.org/2000/svg" width="200" height="200" viewBox="0 0 200 200"><defs><style>.a{fill:#c4ced4;}.b{fill:none;mix-blend-mode:multiply;isolation:isolate;}</style></defs><g transform="translate(-733.938 -885.445)"><path d="M921.827,1074.564l-1.688,4.555H920.1l-1.619-4.555h-2.47v6.972h1.428v-5.547h.031l1.954,5.547H920.8l2.017-5.547h.04v5.547h1.42v-6.972m-15.163,1.241h2.1v5.731h1.42v-5.731h2.1v-1.241h-5.623"/><path class="a" d="M783.4,900.746s-31.925,12.512-31.956,53.194c-.038,41.679,30.78,49.553,30.78,49.553s-15.866-19.925-15.819-51.9c.058-34.432,16.995-50.845,16.995-50.845Z"/><path d="M891.956,1068c-6.6-6.492-18.651-40.595-28.606-42.84,3.649-1.835,26.615-7.186,26.718-32.018-.1-26.845-24.966-35.543-49.83-35.543-5.284,0-14.918.392-24.708.972-12.43.777-18.8,1.36-28.271,2.135v9.131c13.353,0,16.152,3.107,16.152,17.676v17.37c-18.4-3.884-30.48-24.36-30.48-53.14,0-30.47,14.314-51.9,35.227-51.9a27.63,27.63,0,0,1,20.29,8.845c5.51,5.7,9.435,13.956,11.169,23.983h7.389L845.6,891.59h-5.828c-.626,1.966-1.41,2.754-2.834,2.754-3.927,0-13.2-5.9-30.032-5.9-18.243,0-33.814,6.686-44.662,18.481-11.012,11.992-17.306,28.309-17.306,47.966,0,13.565,3.929,28.9,12.9,41.085s23.434,21.035,44.5,21.035c.364,0,.71-.028,1.072-.035V1055.3c0,14.178-3.107,17.091-16.152,17.091v9.133h58.884V1072.4c-12.121,0-16.628-1.746-16.628-16.119v-26.029h8.234s30.354,51.292,31.179,51.288c2.149-.007,36.251-.022,36.251-.022v-9.084A17.321,17.321,0,0,1,891.956,1068ZM751.444,953.94c.031-40.683,31.956-53.194,31.956-53.194s-16.936,16.413-16.995,50.845c-.047,31.978,15.818,51.9,15.818,51.9s-30.817-7.874-30.779-49.553Zm71.749,118.428H809.774v-104.1l13.418-.928v105.032Zm58.955-78.7c.068,20.45-24.947,25.6-24.947,25.6s9.241-5.569,9.247-25.372c.011-19.993-8.842-25.647-8.842-25.647s24.474,2.206,24.543,25.417Zm-52.632,27.062v-6.416c.59-.02,1.187-.055,1.763-.055a19.669,19.669,0,0,1,5.032.4,17.58,17.58,0,0,1,4.563,1.176l.478-1.373c4.555-13.368,8.334-27.915,9.589-39.125H843.55q-5.637,15.11-14.035,22.651V966.927h7.612c15.071,0,23,10.1,23,25.44,0,20.009-8.076,28.749-30.614,28.362Zm40.142,51.694s-17.286-30.91-25.231-41.982c0,0,5.831-.923,8.677-1.744,2.594-.736,4.484-1.482,4.484-1.482,6.775,3.409,16.46,18.539,21.634,30.912,5.576,11.165,9.566,14.339,9.566,14.339l-19.13-.043Z"/><path class="a" d="M809.773,1072.368h13.419V967.336l-13.419.928M866.448,993.9c-.007,19.8-9.247,25.372-9.247,25.372s25.015-5.152,24.947-25.6c-.068-23.21-24.543-25.417-24.543-25.417s8.854,5.654,8.843,25.647Zm12.774,64.23c-5.174-12.374-14.859-27.5-21.634-30.912,0,0-1.891.745-4.484,1.482-2.846.821-8.677,1.745-8.677,1.745,7.945,11.071,25.231,41.981,25.231,41.981l19.13.043s-3.99-3.174-9.566-14.338Z"/></g><rect class="b" width="200" height="200"/></svg>