<svg xmlns="http://www.w3.org/2000/svg" width="200" height="200" viewBox="0 0 200 200"><defs><style>.a{fill:#ffb81c;}.b{fill:#041e42;}.c{fill:#6f263d;}.d{fill:none;mix-blend-mode:multiply;isolation:isolate;}</style></defs><g transform="translate(-1634.688 -644)"><path class="a" d="M1728.462,743.977c.722-.795,1.588-1.589,2.455-2.383l-.072,10.47h0l-.145,14.8c-8.737,2.672-12.853,3.1-15.813,2.383l-.361-.144a1.517,1.517,0,0,1-1.011-1.3c-.217-5.777,9.892-18.341,14.947-23.828m17.907,2.238c-.144.289,32.132-18.557,32.132-18.557v-6.427l-1.588-1.588c-8.665-8.232-21.59-8.3-34.66-4.766V686.45c0-4.405.073-8.665-.288-12.564a32.409,32.409,0,0,0-2.889-11.409L1736.91,658l-2.094,4.549a38.045,38.045,0,0,0-2.96,11.842c-.361,3.971-.361,8.232-.434,12.636l-.288,31.677a135.882,135.882,0,0,0-32.494,19.135l-7.292,11.264,9.025-2.238c-13.863,17.4-8.953,28.81-8.376,30.038,1.445,4.116,4.838,7.365,10.182,9.531a30.214,30.214,0,0,0,12.78,1.661,61.459,61.459,0,0,0,15.525-3.033V787.3a22.512,22.512,0,0,0-10.109,11.986,21.2,21.2,0,0,0-1.3,6.427c0,.361,0,1.588-.144,3.321a28.868,28.868,0,0,1-.939,5.56l-.361,1.155-1.155,2.816c.144.506,3.321-.577,4.765-1.155a8.278,8.278,0,0,0,1.011-.433,15.225,15.225,0,0,0,3.033-2.311,14.38,14.38,0,0,0,1.949-2.31c.578-.722,1.011-1.445,1.517-2.094.65-.867,1.227-1.733,1.805-2.6l.072,7.51v6.282a12.243,12.243,0,0,0-.794,1.227c-.65,1.228-2.311,5.2-2.455,7.437-.072.506,1.516.434,3.827.361a11.731,11.731,0,0,0,1.3-.144,25.97,25.97,0,0,0,3.9-.866c2.6-.795,6.715-2.672,7.293-6.788l.216-1.516-.433-.289c5.488-4.838,7-10.109,6.787-14.441a20.558,20.558,0,0,0-.65-4.044l1.95.361,2.311.433.433-2.31c1.372-7.943-3.1-14.586-12.131-15.886v-4.621a104.962,104.962,0,0,0,23.612-15.38l.289-.289,2.6-13.214-5.127,2.816c-8.231,3.611-15.741,6.5-21.445,8.521V732.929a41.108,41.108,0,0,1,4.693-2.383c4.188-1.8,6.932-2.455,8.232-2.311a32.031,32.031,0,0,1-1.733,4.044c.072.145-6.643,13.431-6.932,13.936"/><path class="b" d="M1776.552,726.647l-.073-4.188-21.156,12.925c-.145.361-2.888,5.7-3.177,5.993Z"/><path class="b" d="M1697.052,745.493c2.31-.578,4.91-1.228,7.509-1.8,1.445-1.733,2.889-3.249,4.188-4.549-2.671.577-5.56,1.3-8.448,1.949-.505.722-2.888,3.972-3.249,4.4"/><path class="b" d="M1740.087,775.242c-1.083.506-2.238,1.011-3.321,1.517-.722.288-1.444.649-2.094.938-.506.217-1.011.361-1.444.578a63.886,63.886,0,0,1-19.713,4.621c-3.9.145-8.159-.072-11.77-1.516a16.669,16.669,0,0,1-7.22-5.055c1.155,3.322,3.9,6.21,8.881,8.232,3.61,1.444,7.871,1.661,11.77,1.516a62.657,62.657,0,0,0,18.052-3.971c.505-.145,1.01-.361,1.444-.506.722-.288,1.444-.577,2.094-.866,1.083-.433,2.238-.939,3.321-1.444a106.873,106.873,0,0,0,24.478-15.669l1.228-5.777a107.562,107.562,0,0,1-25.706,17.4"/><path class="c" d="M1740.087,726.214c10.109-5.56,23.756-8.448,15.6,7.437l19.785-12.131c-8.521-8.087-21.951-7.509-35.382-3.321v8.015Z"/><path class="c" d="M1740.087,766.505c-1.227.433-2.31.794-3.321,1.156-.8.288-1.517.505-2.094.722a9.876,9.876,0,0,1-1.444.433c-.506.144-.8.216-.8.216-37.186,11.554-25.272-12.564-8.3-30.687a75.555,75.555,0,0,1,9.387-8.16l.073-9.748a133.536,133.536,0,0,0-33.216,19.207c4.261-1.155,8.593-2.094,12.853-3.1-36.9,35.31-15.524,53.939,19.857,39.786.506-.216.939-.433,1.444-.649.722-.289,1.372-.578,2.094-.939,1.083-.506,2.239-1.011,3.322-1.589a122.136,122.136,0,0,0,24.767-16.535,259.114,259.114,0,0,1-24.623,9.892"/><path class="b" d="M1744.564,725.564a33.449,33.449,0,0,0-4.477,2.311V686.594c.072-8.665.217-16.535-2.888-22.89-3.177,7-3.1,14.875-3.177,23.54l-.361,33.265-.072,9.748v1.878a64.612,64.612,0,0,0-8.3,7.365c-4.766,5.127-15.814,18.557-15.6,25.561a5.261,5.261,0,0,0,1.733,3.971,3.516,3.516,0,0,1-.072-.866c-.145-7,10.831-20.435,15.669-25.561a59.491,59.491,0,0,1,6.571-5.993l-.145,13.719h0l-.144,16.03a11.855,11.855,0,0,1,1.444-.433l.072-16.752h0l.072-13.575v-6.21l.072-9.243.145-23.756.072-20.774c.361.65,1.661,3.178,1.733,12.276l-.072,31.605v28.016h0l-.072,17.69c1.011-.361,2.094-.722,3.321-1.155V744.7h0V731.99a51.938,51.938,0,0,1,6.138-3.249c4.4-1.877,8.159-3.033,10.181-2.383.361-4.91-4.982-3.682-11.842-.794"/><path class="a" d="M1736.766,747.443Z"/><path class="a" d="M1736.766,747.443Z"/><path class="b" d="M1750.485,798.637c-7.871-2.166-17.113-.216-21.3,4.838-1.733,2.094-3.322,5.2-6.354,8.3a42.583,42.583,0,0,0,.722-6.426c.505-6.066,3.682-11.193,10.037-14.3a1.4,1.4,0,0,0,.216.722,2.08,2.08,0,0,0,1.372.866c.578.072-.361-.144,0,0,.072,0,.217.072.289.072h1.083a.436.436,0,0,0,.289-.072h.072a.436.436,0,0,0,.289-.072h0c.217-.072.361-.144.578-.217a2.487,2.487,0,0,0,1.444-1.011h0a.546.546,0,0,0,.144-.288,8.185,8.185,0,0,1,5.127,3.032c-4.116-.216-10.037,1.156-14.947,6.86a22.479,22.479,0,0,1,19.5-4.116c.144-2.96-3.9-6.137-6.138-7.365,4.044,1.444,8.376,4.982,7.582,9.17m-6.426,16.68c2.094-4.405,2.671-12.058-2.094-15.524h1.66c4.766,3.9,2.6,13.791.434,15.524m-5.416,4.044c4.405-10.543,1.155-18.413,1.228-18.558,5.415.8,7.22,12.564-1.228,18.558m-2.383,2.166c0,.866-1.805.866-1.805.216l.072-20.29a6.656,6.656,0,0,1,1.878-.794Zm3.827-34.154v-5.632c-1.083.5-2.238.939-3.321,1.444v5.849c0,1.372-2.239,1.588-2.167.577v-5.56a12.253,12.253,0,0,1-1.516.506l-.072,4.4-.289.216a20.014,20.014,0,0,0-9.892,10.976c0,.072-.072.144-.072.216a19.081,19.081,0,0,0-1.156,5.705,36.563,36.563,0,0,1-1.227,9.386s1.155-.144,3.393-2.31a39.728,39.728,0,0,0,3.25-4.044c2.022-2.816,3.682-5.632,6.065-6.859v2.527c0,4.766.072,17.691.072,17.763a11.008,11.008,0,0,0-2.31,5.921c0,.144,10.036-.578,10.686-5.777,0,0-1.949-1.3-1.877-1.3,14.08-9.82,6.282-21.517,6.282-21.517,3.394.505,5.343.794,6.21,1.011,1.3-7.221-2.961-13.07-12.059-13.5"/></g><rect class="d" width="200" height="200"/></svg>