<svg xmlns="http://www.w3.org/2000/svg" width="200" height="200" viewBox="0 0 200 200"><defs><style>.a{fill:#0071ce;}.b{fill:#f42534;}.c,.f{fill:#fff;}.d{fill:#ffb819;}.e{fill:#041e41;}.f{fill-rule:evenodd;}.g{fill:none;mix-blend-mode:multiply;isolation:isolate;}</style></defs><g transform="translate(-685.633 -1541.777)"><path class="a" d="M842.983,1632.285A291.146,291.146,0,0,1,882,1626.313c-13.971,4.291-28.233,9.044-42.611,14.262,1.276-2.667,2.435-5.449,3.594-8.29m-140.935,70.381a283.864,283.864,0,0,1,37.509-27.885c2.609-1.333,5.16-2.609,7.769-3.884,1.043-.522,3.188-1.566,5.8-2.783,1.8,1.971,3.6,3.942,5.508,5.8-19.711,9.218-38.669,18.841-56.583,28.755" transform="translate(-1.734 -5.886)"/><path class="b" d="M846.757,1613.9a289.752,289.752,0,0,1,33.451.522q-17.392,2.435-35.364,5.739,1.043-3.043,1.913-6.261m-156.124,47.829a284.512,284.512,0,0,1,42.727-22.2c.522,1.044,1.043,2.087,1.565,3.073-.812,1.681-1.681,3.421-2.493,5.1-14.377,4.464-28.349,9.1-41.8,14.03" transform="translate(0 -3.962)"/><path class="c" d="M780.234,1652.381l1.913-.869,4.811-3.884,1.1-2.957c.7,1.449,1.1,1.971,1.8,3.362l1.566-.7c.058,1.566.058,3.015.058,4.465a52.739,52.739,0,0,1-11.131,1.275Zm13.913-6.261c2.03-.87,4-1.74,6.029-2.609l.928-.986a10.321,10.321,0,0,0,1.392.058,18.582,18.582,0,0,0,2.783-.754,35.767,35.767,0,0,0-1.276,6.436c-2.841.985-6.029,1.971-9.681,2.9-.059-1.682-.116-3.305-.175-5.044M792,1592.2c21.8,0,38.9,5.1,58.206,14.725-9.45,35.6-26.726,59.54-58.206,78.961a138.63,138.63,0,0,1-30.262-24.755c3.71-1.8,7.942-3.768,11.652-5.508,1.507.116,2.9.232,4.29.232a6.771,6.771,0,0,1-1.8,4.638c.58.7,1.218,1.392,1.856,2.029a8.934,8.934,0,0,0,2.783-6.666,55.158,55.158,0,0,0,10.957-1.218c-.174,5.624-.986,9.74-2.551,11.363l-.115.116c-.406.463-.754.753-1.044,1.043,1.508-.29,3.073-.638,4.522-1.043,1.913-4,1.971-10.958,1.971-12.175,3.537-.87,6.725-1.8,9.624-2.783.116,3.247,1.449,6.377,3.942,7.536,1.1-.812,2.2-1.623,3.305-2.493-.638.115-4.58.348-4.522-5.972,8.407-3.189,13.856-6.957,18.667-12.639a52.765,52.765,0,0,0,3.015-8.986c-5.739,9.044-11.015,14.32-21.335,18.494a40.942,40.942,0,0,1,1.681-6.609c3.015-1.276,6.145-2.783,8.059-3.536l4.522-4.755c1.159-4.406,2.26-8.754,3.362-13.159l-3.537,1.1,4.174-4.348c.869-3.421,1.739-6.9,2.609-10.32-2.087.29-4.174.638-6.261.928.348-1.74.579-3.421.753-5.1-.986-.232-2.029-.522-3.014-.7a54.109,54.109,0,0,1-1.159,6.377l-.29.058a11.736,11.736,0,0,0-5.682,2.435l.58-1.681c-3.363.579-6.667,1.217-10.03,1.855l-3.3,3.478.116-.289,1.1-2.783-9.914,2.086c-.7-4.464-1.391-8.464-1.971-11.711l-2.783.349c.58,3.3,1.333,7.42,2.03,11.942l-2.32.522-2.957,3.13c-2.086-2.2-6.318-.812-8.986-.115-2.9.753-5.739,1.507-8.638,2.26-.869.232-1.739.522-2.55.812a75.261,75.261,0,0,1-5.855-9.8l-.29-.638c-.869.349-1.74.7-2.609,1.1l.348.754a76.279,76.279,0,0,0,5.682,9.624,25.549,25.549,0,0,0-8.464,6.029s-4.058,4.232-4.522,4.754a26.861,26.861,0,0,0-2.725,3.768,138.362,138.362,0,0,1-10.145-27.943C753.1,1597.306,770.2,1592.2,792,1592.2" transform="translate(-6.582 -0.706)"/><path class="b" d="M783.037,1653.689l1.913-.869,4.811-3.884,1.1-2.957c.7,1.449,1.1,1.971,1.8,3.42l1.566-.7c.058,1.565.058,3.014.058,4.464a52.786,52.786,0,0,1-11.131,1.276Zm13.913-6.261c2.03-.87,4-1.74,6.029-2.609l.928-.986a9.866,9.866,0,0,0,1.333.058,18.53,18.53,0,0,0,2.783-.754,35.828,35.828,0,0,0-1.275,6.436c-2.841.985-6.029,1.971-9.682,2.9,0-1.682-.058-3.305-.116-5.044m-38.031-37.22a124.162,124.162,0,0,1,29.625-8.116c.579,3.3,1.333,7.42,2.029,11.942l-2.319.522-2.957,3.13c-2.087-2.2-6.319-.812-8.928-.115-2.9.753-5.739,1.507-8.638,2.26-.869.232-1.739.522-2.551.812a78.779,78.779,0,0,1-5.855-9.739Zm-2.377,15.074a120.181,120.181,0,0,1-4.116-12.175c1.276-.638,2.609-1.217,3.942-1.8l.349.754a76.377,76.377,0,0,0,5.681,9.624,24.533,24.533,0,0,0-5.855,3.594m22.146,36.524c-1.217-1.449-2.435-2.9-3.594-4.348l1.1-.522c1.507.116,2.956.232,4.29.232a7.05,7.05,0,0,1-1.8,4.638m11.827,6.725a43.667,43.667,0,0,1-4.812.638c-1.8-1.739-3.536-3.537-5.159-5.334a8.934,8.934,0,0,0,2.783-6.666,55.158,55.158,0,0,0,10.957-1.218c-.174,5.624-.986,9.74-2.551,11.363l-.115.116a9.59,9.59,0,0,1-1.1,1.1m20.059-8.406a51.259,51.259,0,0,1-15.537,7.42c1.912-4,1.971-10.957,1.971-12.174,3.536-.87,6.725-1.8,9.624-2.784.116,3.247,1.449,6.378,3.942,7.537m17.393-21.161a52.052,52.052,0,0,1-14.088,18.667c-.638.116-4.58.349-4.521-5.971,8.348-3.247,13.8-7.015,18.61-12.7m-21.393-38.147a117.117,117.117,0,0,1,13.624.753,104.474,104.474,0,0,1,10.145,2.609,51.678,51.678,0,0,1,.638,25.8c-5.739,9.044-11.015,14.32-21.335,18.493a40.885,40.885,0,0,1,1.682-6.609c3.014-1.276,6.145-2.783,8.058-3.537l4.522-4.754c1.159-4.406,2.261-8.754,3.362-13.16l-3.536,1.1,4.174-4.348c.87-3.421,1.74-6.9,2.609-10.319-2.086.29-4.174.638-6.261.927.348-1.739.58-3.421.754-5.1-.985-.232-2.03-.522-3.015-.7a53.712,53.712,0,0,1-1.159,6.377l-.29.058a11.746,11.746,0,0,0-5.682,2.435l.58-1.681c-3.363.58-6.667,1.217-10.03,1.855l-3.3,3.479.116-.29,1.1-2.783-9.914,2.087c-.7-4.465-1.392-8.464-1.971-11.711a107.637,107.637,0,0,1,15.131-.986" transform="translate(-9.385 -2.014)"/><path class="d" d="M750.791,1629.288a132.864,132.864,0,0,1-6.841-18.494,126.166,126.166,0,0,1,50.669-12.232,120.8,120.8,0,0,1,24.291,2.609,132.238,132.238,0,0,0-13.624-.754,120.3,120.3,0,0,0-15.247.928l-2.783.348a124.21,124.21,0,0,0-29.625,8.117c-.869.348-1.74.7-2.609,1.1-1.333.579-2.609,1.159-3.942,1.8a120.309,120.309,0,0,0,4.116,12.175,33.449,33.449,0,0,0-2.551,2.434Zm43.712,51.655a124.04,124.04,0,0,1-24.639-21.972l4-1.856c1.159,1.449,2.376,2.957,3.594,4.348.579.7,1.217,1.392,1.855,2.029a123.324,123.324,0,0,0,17.509,15.885c-.812.579-1.566,1.043-2.32,1.566" transform="translate(-8.098 -1.671)"/><path class="e" d="M779.159,1651.675l.116.7a52.739,52.739,0,0,0,11.131-1.275c0-1.449,0-2.9-.058-4.465l-1.566.7c-.7-1.392-1.043-1.972-1.8-3.363l-1.1,2.957-4.811,3.884Zm13.913-6.261c.059,1.739.116,3.362.116,4.985a98.721,98.721,0,0,0,9.682-2.9,35.815,35.815,0,0,1,1.275-6.436,16.927,16.927,0,0,1-2.783.754,3.637,3.637,0,0,1-1.391-.058l-.928.985c-1.971.928-3.942,1.8-5.972,2.667m-2.145-53.916c-21.8,0-38.9,5.1-58.264,14.725a134.914,134.914,0,0,0,10.145,27.944,24.892,24.892,0,0,1,2.725-3.768c.464-.522,4.521-4.755,4.521-4.755a25.01,25.01,0,0,1,8.464-6.029,66.573,66.573,0,0,1-5.681-9.624l-.349-.753c.87-.348,1.74-.754,2.609-1.1l.29.638a75.5,75.5,0,0,0,5.855,9.8c.812-.29,1.681-.522,2.551-.812,2.9-.754,5.739-1.507,8.638-2.261,2.666-.7,6.9-2.087,8.928.116l2.957-3.13,2.319-.521c-.7-4.581-1.392-8.7-2.03-11.943l2.784-.348c.579,3.247,1.275,7.3,1.971,11.711l9.913-2.087-1.1,2.783-.116.29,3.3-3.478c3.363-.638,6.667-1.276,10.03-1.856l-.522,1.682a11.731,11.731,0,0,1,5.682-2.435l.289-.058a53.681,53.681,0,0,0,1.159-6.377c.986.232,2.03.464,3.015.7a38.742,38.742,0,0,1-.754,5.1c2.087-.348,4.174-.638,6.262-.928-.87,3.421-1.74,6.9-2.609,10.319l-4.174,4.348,3.537-1.1c-1.159,4.348-2.261,8.754-3.363,13.16l-4.522,4.754c-1.912.812-5.044,2.319-8.058,3.537a42.41,42.41,0,0,0-1.681,6.609c10.319-4.174,15.594-9.45,21.335-18.493a52.814,52.814,0,0,1-3.015,8.986c-4.811,5.682-10.261,9.508-18.668,12.639-.058,6.377,3.943,6.087,4.522,5.971a35.124,35.124,0,0,1-3.3,2.494c-2.493-1.16-3.827-4.291-3.942-7.537-2.841.986-6.029,1.856-9.624,2.783-.058,1.218-.058,8.175-1.971,12.175q-2.262.609-4.522,1.044l1.043-1.044a.126.126,0,0,1,.116-.116c1.623-1.623,2.377-5.739,2.551-11.362a59.864,59.864,0,0,1-10.958,1.217,8.528,8.528,0,0,1-2.783,6.667c-.638-.7-1.217-1.333-1.855-2.029a7.06,7.06,0,0,0,1.8-4.639c-1.333-.058-2.783-.116-4.29-.231-3.711,1.739-7.943,3.768-11.653,5.508a138.631,138.631,0,0,0,30.263,24.754c31.48-19.421,48.756-43.365,58.206-78.96-19.073-9.566-36.176-14.668-57.974-14.668m-62.844,12.638c20.871-10.725,39.19-16.58,62.9-16.58,23.653,0,42.031,5.855,62.9,16.58-9.74,39.075-28.292,64.989-62.961,85.745a143.828,143.828,0,0,1-33.972-27.654c-2.609,1.276-4.754,2.261-5.8,2.84-3.247,1.623-6.551,3.247-9.8,4.928-3.652,1.855-7.769,4.7-12,3.594-4.638-2.03-1.565-7.653-.174-10.842,3.594-8.117,7.363-16.117,11.247-24.117a124.149,124.149,0,0,1-10.957-28.813Z" transform="translate(-5.507)"/><path class="f" d="M817.893,1611.467a9.321,9.321,0,0,0-5.334,2.493,12.489,12.489,0,0,0-2.435,4.58c-1.623,4.985-3.188,10.029-4.811,15.015-.638,1.971-1.682,5.565,1.507,5.334a15.231,15.231,0,0,0,3.13-1.044c3.189-1.391,6.436-2.725,9.682-4.058.812-3.13,1.623-6.318,2.435-9.45-1.682.522-3.363,1.044-5.1,1.623-.405,1.449-.812,2.841-1.217,4.291-1.159.405-2.377.869-3.537,1.275,1.507-5.1,2.957-10.145,4.464-15.247l3.131-.7c-.232.869-.522,1.8-.754,2.667,1.507-.348,3.073-.754,4.58-1.1.58-2.261,1.159-4.58,1.74-6.9q-3.652.608-7.479,1.217m-14.436,2.435c-3.594,4.7-7.13,9.45-10.667,14.2,1.623-4.348,3.3-8.7,4.985-13.044-3.71.754-7.478,1.566-11.131,2.435-.986,2.261-1.913,4.465-2.9,6.726.812-.232,1.623-.464,2.377-.638-2.9,7.073-5.8,14.145-8.58,21.276-1.159,2.9-2.261,5.8-3.421,8.7,3.711-1.74,7.479-3.479,11.189-5.218,1.681-4.7,3.42-9.334,5.16-14.031q2.347,4.783,4.7,9.566c2.434-1.043,4.811-2.145,7.246-3.188-1.449-3.363-2.957-6.726-4.464-10.03,2.666-4.058,5.391-8.117,8.116-12.116.754-.174,1.566-.348,2.32-.522.579-1.74,1.159-3.479,1.739-5.276-2.2.348-4.464.754-6.667,1.16m-44.408,38.958c-2.609,1.159-5.16,2.32-7.769,3.537q5.652-13.044,11.711-25.915c2.261-.7,4.58-1.449,6.841-2.145q-5.652,12.261-10.783,24.523m6.2-29.973c-4.928,1.334-9.276,3.42-12.813,7.3a36.16,36.16,0,0,0-4.811,7.653q-5.913,12-11.306,24.176c-.927,2.086-3.826,7.246-.753,8.58,3.42.87,7.653-1.971,10.667-3.478,3.247-1.681,6.551-3.3,9.8-4.928,5.566-2.783,10.609-6.146,13.972-11.537a54.1,54.1,0,0,0,3.363-7.189c2.145-5.276,4.29-10.494,6.551-15.712.812-1.971,2.261-4.406,1.8-6.551-.928-2.9-5.8-1.1-7.884-.579-2.841.753-5.74,1.507-8.581,2.26" transform="translate(-6.616 -3.447)"/><path class="a" d="M840.689,1606.393c1.449.463,2.9.986,4.29,1.507-1.392-.522-2.84-1.044-4.29-1.507m-.232-.348c1.507.522,2.957.986,4.406,1.565,3.594,1.333,6.726,2.666,9.392,3.942a124.417,124.417,0,0,1-48,67.6l-1.912,1.333a119.321,119.321,0,0,1-10.9-9.16l3.247-.522a51.638,51.638,0,0,0,26.958-13.334,52.243,52.243,0,0,0,15.943-46.727,8.283,8.283,0,0,0-.232-1.16l-.058-.174-.058-.174-.058-.116-.058-.174-.058-.174-.059-.174-.058-.174-.058-.174-.059-.174-.058-.174-.058-.232-.058-.174-.058-.174-.059-.115-.058-.174c-.116-.58-.29-1.1-.405-1.566a15.794,15.794,0,0,1,2.376.58" transform="translate(-15.614 -2.72)"/></g><rect class="g" width="200" height="200"/></svg>