<svg xmlns="http://www.w3.org/2000/svg" width="143" height="143" viewBox="0 0 143 143"><defs><style>.a{fill:#fff;}.b,.e,.g,.i,.k,.l,.m,.o{fill:none;}.b{stroke:#fff;stroke-width:0.94px;}.c{fill:#061922;}.d{fill:#008248;}.e{stroke:#008248;}.e,.g,.i,.k,.l,.m{stroke-width:0.235px;}.f{fill:#a63732;}.g{stroke:#a63732;}.h{fill:#ba9653;}.i{stroke:#ba9653;}.j{fill:#f9b282;}.k,.l{stroke:#f9b282;}.k{stroke-linecap:round;}.m{stroke:#00a55c;}.n{fill:#008348;}.o{mix-blend-mode:multiply;isolation:isolate;}</style></defs><g transform="translate(15.73 9.296)"><path class="a" d="M463.7,824.354a16.962,16.962,0,0,0,4.612,3.71,6.876,6.876,0,0,0,3.849.729c1.075-.1.867.346,0,.485a7.6,7.6,0,0,1-4.126-.554,13.423,13.423,0,0,1-4.646-3.849c-.312-.451,0-.9.312-.521" transform="translate(-429.369 -706.083)"/><path class="a" d="M527.337,717.249a55.719,55.719,0,0,0-49.722-55.408,6.022,6.022,0,0,0-1.005-.8c-4.473-2.878-8.183-.728-10.784.521a6.006,6.006,0,0,1-.659.312,55.121,55.121,0,0,0-13.939,3.468,13.454,13.454,0,0,0-1.8-2.185,14.262,14.262,0,0,0-21.185,19.036A55.86,55.86,0,0,0,449.807,768.6c-.347,2.947.1,4.958.659,5.756a2.755,2.755,0,0,0-1.283,1.907c-1.283,1.768,1.837,4.022,3.155,4.993,2.67,2.045,4.056,1.7,6.1,1.6,2.565-.1,4.958-3.086,6.345-5.028,2.774-.381,3.26.035,3.363.382a14.7,14.7,0,0,0,3.71-1.041c3.71-1.56,2.67-3.5,2.289-3.849a1.8,1.8,0,0,1-.277-.382,55.16,55.16,0,0,0,24.861-6.969,6.309,6.309,0,0,1,.8,1.04c.832,1.213,1.248,5.132,1.422,7.143a28.825,28.825,0,0,0,1.491,6.588c1.005,3.19,1.387.867,1.421,0s.208-3.953.069-6.207a26.761,26.761,0,0,1,.243-6.866,1.574,1.574,0,0,0-.555-1.976c-.208-.242,0-.347-.555-2.115a1,1,0,0,1-.069-.312,55.969,55.969,0,0,0,8.009-6.657,55.118,55.118,0,0,0,16.331-39.354" transform="translate(-415.862 -658.997)"/><path class="b" d="M527.337,717.249a55.719,55.719,0,0,0-49.722-55.408,6.022,6.022,0,0,0-1.005-.8c-4.473-2.878-8.183-.728-10.784.521a6.006,6.006,0,0,1-.659.312,55.121,55.121,0,0,0-13.939,3.468,13.454,13.454,0,0,0-1.8-2.185,14.262,14.262,0,0,0-21.185,19.036A55.86,55.86,0,0,0,449.807,768.6c-.347,2.947.1,4.958.659,5.756a2.755,2.755,0,0,0-1.283,1.907c-1.283,1.768,1.837,4.022,3.155,4.993,2.67,2.045,4.056,1.7,6.1,1.6,2.565-.1,4.958-3.086,6.345-5.028,2.774-.381,3.26.035,3.363.382a14.7,14.7,0,0,0,3.71-1.041c3.71-1.56,2.67-3.5,2.289-3.849a1.8,1.8,0,0,1-.277-.382,55.16,55.16,0,0,0,24.861-6.969,6.309,6.309,0,0,1,.8,1.04c.832,1.213,1.248,5.132,1.422,7.143a28.825,28.825,0,0,0,1.491,6.588c1.005,3.19,1.387.867,1.421,0s.208-3.953.069-6.207a26.761,26.761,0,0,1,.243-6.866,1.574,1.574,0,0,0-.555-1.976c-.208-.242,0-.347-.555-2.115a1,1,0,0,1-.069-.312,55.969,55.969,0,0,0,8.009-6.657A55.118,55.118,0,0,0,527.337,717.249Z" transform="translate(-415.862 -658.997)"/><path class="c" d="M527.337,717.249a55.719,55.719,0,0,0-49.722-55.408,6.022,6.022,0,0,0-1.005-.8c-4.473-2.878-8.183-.728-10.784.521a6.006,6.006,0,0,1-.659.312,55.121,55.121,0,0,0-13.939,3.468,13.454,13.454,0,0,0-1.8-2.185,14.262,14.262,0,0,0-21.185,19.036A55.86,55.86,0,0,0,449.807,768.6c-.347,2.947.1,4.958.659,5.756a2.755,2.755,0,0,0-1.283,1.907c-1.283,1.768,1.837,4.022,3.155,4.993,2.67,2.045,4.056,1.7,6.1,1.6,2.565-.1,4.958-3.086,6.345-5.028,2.774-.381,3.26.035,3.363.382a14.7,14.7,0,0,0,3.71-1.041c3.71-1.56,2.67-3.5,2.289-3.849a1.8,1.8,0,0,1-.277-.382,55.16,55.16,0,0,0,24.861-6.969,6.309,6.309,0,0,1,.8,1.04c.832,1.213,1.248,5.132,1.422,7.143a28.825,28.825,0,0,0,1.491,6.588c1.005,3.19,1.387.867,1.421,0s.208-3.953.069-6.207a26.761,26.761,0,0,1,.243-6.866,1.574,1.574,0,0,0-.555-1.976c-.208-.242,0-.347-.555-2.115a1,1,0,0,1-.069-.312,55.969,55.969,0,0,0,8.009-6.657,55.118,55.118,0,0,0,16.331-39.354" transform="translate(-415.862 -658.997)"/><path class="d" d="M475.3,809.187a22.972,22.972,0,0,0,6.276-1.283c.173.034.45.208.9.381.174-1.387-.728-4.23-1.213-5.548-.312-.867-.659-1.456-1.04-2.357a18.089,18.089,0,0,1-3.641-1.283c0,.832.139,2.947.312,4.369-.416.035-1.04.07-1.768.07a53.134,53.134,0,0,1,.173,5.652" transform="translate(-432.751 -698.926)"/><path class="e" d="M475.3,809.187a22.972,22.972,0,0,0,6.276-1.283c.173.034.45.208.9.381.174-1.387-.728-4.23-1.213-5.548-.312-.867-.659-1.456-1.04-2.357a18.089,18.089,0,0,1-3.641-1.283c0,.832.139,2.947.312,4.369-.416.035-1.04.07-1.768.07A53.134,53.134,0,0,1,475.3,809.187Z" transform="translate(-432.751 -698.926)"/><path class="d" d="M519.231,801.183c-.381-.382.485-1.6.867-3.849s.416-6-1.214-8.114a7.4,7.4,0,0,1-1.317-2.149,41,41,0,0,1-17.164,7.247,3.073,3.073,0,0,1-.208.347,15.339,15.339,0,0,1-3.953,3.536,21.1,21.1,0,0,1-3.606,1.456,19.631,19.631,0,0,0-.034,5.513c.139.381,1.733,1.352,2.288,2.357.069.1.1.208.174.312a53.56,53.56,0,0,0,24.341-6.588.206.206,0,0,1-.174-.07" transform="translate(-437.68 -695.498)"/><path class="e" d="M519.231,801.183c-.381-.382.485-1.6.867-3.849s.416-6-1.214-8.114a7.4,7.4,0,0,1-1.317-2.149,41,41,0,0,1-17.164,7.247,3.073,3.073,0,0,1-.208.347,15.339,15.339,0,0,1-3.953,3.536,21.1,21.1,0,0,1-3.606,1.456,19.631,19.631,0,0,0-.034,5.513c.139.381,1.733,1.352,2.288,2.357.069.1.1.208.174.312a53.56,53.56,0,0,0,24.341-6.588A.206.206,0,0,1,519.231,801.183Z" transform="translate(-437.68 -695.498)"/><path class="d" d="M535.008,680.758a53.708,53.708,0,0,0-31.032-15.36,14.252,14.252,0,0,1,1.179,5.34c1.664-.728,2.982-1.109,3.675-2.254a1.237,1.237,0,0,1,2.254-.069c.59.832.59,1.838-1.005,2.844a23.279,23.279,0,0,1-3.121,1.629c-.347.174-.034.485.347,1.11a11.143,11.143,0,0,1,1.56,5.617v.1A41.223,41.223,0,0,1,533.8,737c.347.174.832,1.421,1.005,3.086a6,6,0,0,1-.208,2.427,24.031,24.031,0,0,1-3.328,4.577,1.222,1.222,0,0,1-1.664-.242c-.381-.555-.416-.243-.728.034-.312.312-1.318,1.8-1.6,2.185a1.836,1.836,0,0,0-.555,2.323c.555,1.561,1.213,2.7,1.005,3.571s-.312,1.11.867,2.115a2.174,2.174,0,0,1,.589,2.982,9.446,9.446,0,0,0-1.04,3.12,54.144,54.144,0,0,0,6.865-82.419" transform="translate(-440.975 -660.821)"/><path class="e" d="M535.008,680.758a53.708,53.708,0,0,0-31.032-15.36,14.252,14.252,0,0,1,1.179,5.34c1.664-.728,2.982-1.109,3.675-2.254a1.237,1.237,0,0,1,2.254-.069c.59.832.59,1.838-1.005,2.844a23.279,23.279,0,0,1-3.121,1.629c-.347.174-.034.485.347,1.11a11.143,11.143,0,0,1,1.56,5.617v.1A41.223,41.223,0,0,1,533.8,737c.347.174.832,1.421,1.005,3.086a6,6,0,0,1-.208,2.427,24.031,24.031,0,0,1-3.328,4.577,1.222,1.222,0,0,1-1.664-.242c-.381-.555-.416-.243-.728.034-.312.312-1.318,1.8-1.6,2.185a1.836,1.836,0,0,0-.555,2.323c.555,1.561,1.213,2.7,1.005,3.571s-.312,1.11.867,2.115a2.174,2.174,0,0,1,.589,2.982,9.446,9.446,0,0,0-1.04,3.12,54.144,54.144,0,0,0,6.865-82.419Z" transform="translate(-440.975 -660.821)"/><path class="d" d="M448.327,766.93c-.139-1.456-.381-4.092.659-5.964a39.139,39.139,0,0,1-5.86-4.888,41.132,41.132,0,0,1,.867-59.049,1.941,1.941,0,0,1,.277-.45,14.323,14.323,0,0,1-4.2.623,14.11,14.11,0,0,1-10.056-4.161,54.177,54.177,0,0,0,20.666,83.6,24.825,24.825,0,0,1,1.11-3.779c.486-1.248-.243-4.126-1.456-5.652a14.611,14.611,0,0,0-2.011-.277" transform="translate(-416.498 -668.699)"/><path class="e" d="M448.327,766.93c-.139-1.456-.381-4.092.659-5.964a39.139,39.139,0,0,1-5.86-4.888,41.132,41.132,0,0,1,.867-59.049,1.941,1.941,0,0,1,.277-.45,14.323,14.323,0,0,1-4.2.623,14.11,14.11,0,0,1-10.056-4.161,54.177,54.177,0,0,0,20.666,83.6,24.825,24.825,0,0,1,1.11-3.779c.486-1.248-.243-4.126-1.456-5.652A14.611,14.611,0,0,0,448.327,766.93Z" transform="translate(-416.498 -668.699)"/><path class="d" d="M476.033,665.883a51.009,51.009,0,0,0-9.951,2.774,14.3,14.3,0,0,1-1.144,14.979,40.946,40.946,0,0,1,9.569-4.056c.208-.208.451-.416.659-.624a11.211,11.211,0,0,1-1.456-9.882,7.335,7.335,0,0,1,2.323-3.19" transform="translate(-429.849 -660.96)"/><path class="e" d="M476.033,665.883a51.009,51.009,0,0,0-9.951,2.774,14.3,14.3,0,0,1-1.144,14.979,40.946,40.946,0,0,1,9.569-4.056c.208-.208.451-.416.659-.624a11.211,11.211,0,0,1-1.456-9.882A7.335,7.335,0,0,1,476.033,665.883Z" transform="translate(-429.849 -660.96)"/><path class="a" d="M510.2,688.158a3.6,3.6,0,0,1,2.011,4.334,14.868,14.868,0,0,1-1.109,2.323c-.139.659-1.491,1.734-1.907,2.6a3.1,3.1,0,0,0-.382,1.942h0a10.728,10.728,0,0,0,3.086,1.8c.659.243.624.416.347.867.486.034.729.347,1.179.866.485.555,1.734.208,2.5-.173a1.925,1.925,0,0,1,2.531.416,15.845,15.845,0,0,1,2.5,4.334,26.192,26.192,0,0,0,1.318,3.225c.173.243-.589,4.994-.832,6.9-.208,1.907-.381,2.7-.416,3.017s1.213-1.076,1.248.555a66.34,66.34,0,0,0,1.352,8.6,17.739,17.739,0,0,0,.555,2.081c.521.069.937,1.11,1.248,2.7s.936,2.6,1.005,3.363c.035.763.243.9.521,1.04.242.139.173.521-.59,1.422.174.138.416.381.59.554.208-.207.832-.9.832-.9s2.357.936,2.878,1.109,1.144-1.109,2.67-.415a3.126,3.126,0,0,1,1.213,1.352,40.239,40.239,0,0,0-24.306-55.339c0,.658-.034,1.213-.034,1.421" transform="translate(-442.339 -666.903)"/><path class="a" d="M521.361,768.253c-.589-.312-1.005.139-1.283-2.254A4.048,4.048,0,0,0,519,763.988a1.975,1.975,0,0,1-.243-1.941,8.324,8.324,0,0,0,.382-2.913,2.329,2.329,0,0,1,1.318-2.462,3.621,3.621,0,0,1-.763-1.56c-1.769-.59-2.115-.624-2.462-1.491a22.87,22.87,0,0,1-1.145-4.681,13.47,13.47,0,0,1-.173-1.561c-.555-1.075-1.837-3.432-2.808-5.235-.347-.659-.694-1.248-.9-1.664-.867-1.491,0-3.5.416-4.646A4.964,4.964,0,0,0,513,732.47a12.264,12.264,0,0,1-.486-1.907c-.069-.485-.485-1.076-1.005.555s-1.491,4.056-2.081,6.553a15.95,15.95,0,0,0-.45,4.473,8.631,8.631,0,0,0,.763,3.259c1.11,2.323,2.462,4.473,2.288,5.756a3.683,3.683,0,0,1-.485,1.561,45.756,45.756,0,0,1-1.838,8.668,84.987,84.987,0,0,0-3.225,8.5,56.409,56.409,0,0,1-2.219,7.143,40.4,40.4,0,0,0,17.337-7.871c.139-.382.1-.729-.243-.9" transform="translate(-441.057 -679.246)"/><path class="a" d="M460.524,699.447a5.794,5.794,0,0,0,1.907,1.6c2.115,1.075,2.531,1.837,2.531,3.71,0,1.837.347,5.651.936,6.275a5.925,5.925,0,0,0,.9-1.109,12.236,12.236,0,0,0,3.745,4.472c.139.069.069.555.381.659.659.173,4.82.832,4.958,1.664a15.255,15.255,0,0,0,2.5-3.745,21.479,21.479,0,0,1,2.878-4.334,5.156,5.156,0,0,1,.035-.936,6.207,6.207,0,0,1-1.456,1.213c-.694.312-3.086,1.353-4.82,2.184-.589.312-1.664.659-2.115-2.5-.416-3.155,0-4.785.312-5.513a1.52,1.52,0,0,1,1.941-1.075,29.422,29.422,0,0,0,3.26.936c.069-.347.381-1.005-.763-1.11a6.533,6.533,0,0,1-4.2-2.392,4.536,4.536,0,0,1-.867-2.565c-2.462.381-8.114,1.11-9.362,1.422s-2.323.555-2.7-2.289c-.174-1.213-.485-2.878.381-2.288a4.059,4.059,0,0,1,3.329-.867,1.139,1.139,0,0,1,.8.555,3.737,3.737,0,0,1-.277,1.734c-.381,1.144-1.11,1.976,1.248,1.456,2.462-.555,5.582-1.04,6.38-1.214a6.874,6.874,0,0,1,1.629-3.086,4.012,4.012,0,0,0,1.005-2.01c.035-.312-.242-.382-.659,0a4.016,4.016,0,0,1-3.225.936c-.52-.139-1.179-1.11-1.491-1.665a14.245,14.245,0,0,1,1.872-2.635,40.133,40.133,0,0,0-12.69,6.8,10.058,10.058,0,0,0,.347,2.809,8.251,8.251,0,0,0,1.352,2.912" transform="translate(-428.104 -666.958)"/><path class="a" d="M457.441,762.227c1.769-.694,3.155-.659,4.508,1.179.381.52.693,2.011,4.022.693a20.832,20.832,0,0,1-3.779-7.975c-1.526-5.3-4.993-11.338-3.71-14.078-.728-.693-1.6-3.363-2.5-3.051-.624.208-1.457.208-.763-1.8a12.385,12.385,0,0,1,1.8-3.328,29.853,29.853,0,0,1,6.068-5.895c.242-.208.312-.382.139-.555a4.931,4.931,0,0,0-.9-.832.664.664,0,0,0-.867.173,8.576,8.576,0,0,1-.937.729c-.242.173-2.323-1.837-3.4-3.329a6.439,6.439,0,0,0-2.531-2.115c.416-.486,1.387-1.491,1.04-1.387a2.709,2.709,0,0,1-2.947-.866c-1.422-1.491-.867-2.289-1.179-2.5s-1.838.138-3.017-1.664-1.629-2.6-.694-3.884a1.869,1.869,0,0,0,.52-1.768c-.139-.832,0-1.352,1.075-2.357,1.075-1.04,1.733-1.977,2.184-1.908.381.069-.729-1.317-1.387-2.323a3.753,3.753,0,0,1-.381-.728,6.733,6.733,0,0,1-.52-1.907,40.18,40.18,0,0,0,.035,56.83,44.028,44.028,0,0,0,5.721,4.785,1.61,1.61,0,0,1,2.392-.138" transform="translate(-422.04 -670.897)"/><path class="f" d="M433.368,665.667a14.3,14.3,0,0,1,7.351,5.34c.312.416.589.347.728.035a14.1,14.1,0,0,0,.763-4.3c0-3.606.485-5.062,1.387-6.727a13.5,13.5,0,0,0-10.229,5.652" transform="translate(-420.851 -659.287)"/><path class="g" d="M433.368,665.667a14.3,14.3,0,0,1,7.351,5.34c.312.416.589.347.728.035a14.1,14.1,0,0,0,.763-4.3c0-3.606.485-5.062,1.387-6.727A13.5,13.5,0,0,0,433.368,665.667Z" transform="translate(-420.851 -659.287)"/><path class="f" d="M430.209,679.361c6.657.59,8.7-3.12,9.154-3.675.416-.555-.069-.9-.312-1.213a13.82,13.82,0,0,0-7.246-5.34,13.4,13.4,0,0,0-1.976,7,14.168,14.168,0,0,0,.381,3.225" transform="translate(-419.842 -661.885)"/><path class="g" d="M430.209,679.361c6.657.59,8.7-3.12,9.154-3.675.416-.555-.069-.9-.312-1.213a13.82,13.82,0,0,0-7.246-5.34,13.4,13.4,0,0,0-1.976,7A14.168,14.168,0,0,0,430.209,679.361Z" transform="translate(-419.842 -661.885)"/><path class="f" d="M456.865,676.485c-2.809-1.179-6.137-.1-8.5,1.976s-3.571,3.641-4.4,8.565h-.312a13.447,13.447,0,0,1-9.085-3.537,24.425,24.425,0,0,0,11.3-6.519,22.726,22.726,0,0,0,6.241-9.813c.521-1.976-.208-.832-.589.069a28.64,28.64,0,0,1-6.519,8.842,27.924,27.924,0,0,1-11.026,6.866,13.748,13.748,0,0,1-3.086-4.993c1.387.069,5.721-.416,7.906-2.184,2.843-2.358,3.19-5.132,3.571-9.085s.971-5.132,1.908-6.657a13.5,13.5,0,0,1,12.9,13.489,14.035,14.035,0,0,1-.312,2.982" transform="translate(-420.146 -659.287)"/><path class="g" d="M456.865,676.485c-2.809-1.179-6.137-.1-8.5,1.976s-3.571,3.641-4.4,8.565h-.312a13.447,13.447,0,0,1-9.085-3.537,24.425,24.425,0,0,0,11.3-6.519,22.726,22.726,0,0,0,6.241-9.813c.521-1.976-.208-.832-.589.069a28.64,28.64,0,0,1-6.519,8.842,27.924,27.924,0,0,1-11.026,6.866,13.748,13.748,0,0,1-3.086-4.993c1.387.069,5.721-.416,7.906-2.184,2.843-2.358,3.19-5.132,3.571-9.085s.971-5.132,1.908-6.657a13.5,13.5,0,0,1,12.9,13.489A14.035,14.035,0,0,1,456.865,676.485Z" transform="translate(-420.146 -659.287)"/><path class="f" d="M463.888,684.649c-.659-.9-2.947-1.353-6.623.936-.347.208-.589.381-.173.763a13.82,13.82,0,0,1,2.773,4.23,13.813,13.813,0,0,0,4.023-5.929" transform="translate(-427.55 -666.098)"/><path class="g" d="M463.888,684.649c-.659-.9-2.947-1.353-6.623.936-.347.208-.589.381-.173.763a13.82,13.82,0,0,1,2.773,4.23A13.813,13.813,0,0,0,463.888,684.649Z" transform="translate(-427.55 -666.098)"/><path class="f" d="M456.915,692.565a18.817,18.817,0,0,0-2.15-4.23c-.381-.52-.486-.728-1.214-.1-2.046,1.8-2.808,4.507-3.259,6.692a13.729,13.729,0,0,0,6.622-2.358" transform="translate(-425.675 -667.219)"/><path class="g" d="M456.915,692.565a18.817,18.817,0,0,0-2.15-4.23c-.381-.52-.486-.728-1.214-.1-2.046,1.8-2.808,4.507-3.259,6.692A13.729,13.729,0,0,0,456.915,692.565Z" transform="translate(-425.675 -667.219)"/><path class="h" d="M482.784,812.878c.278-.139.659-.312.832-.174s1.213.867,1.838,1.421c.658.555.867.729.347,1.041s-1.006.59-.9.347a.927.927,0,0,0-.139-1.005,17.9,17.9,0,0,0-1.56-1.283,3.067,3.067,0,0,0-.416-.347" transform="translate(-434.935 -702.789)"/><path class="i" d="M482.784,812.878c.278-.139.659-.312.832-.174s1.213.867,1.838,1.421c.658.555.867.729.347,1.041s-1.006.59-.9.347a.927.927,0,0,0-.139-1.005,17.9,17.9,0,0,0-1.56-1.283A3.067,3.067,0,0,0,482.784,812.878Z" transform="translate(-434.935 -702.789)"/><path class="h" d="M478.664,813.936a.514.514,0,0,0,0,.763c.242.243,1.7,1.456,1.941,1.7a1.056,1.056,0,0,0,.971.242c.382-.069-.45.485-.763.555a1.108,1.108,0,0,1-1.04-.243c-.346-.312-2.288-2.149-2.67-2.531s.1-.381.451-.416.658-.034,1.11-.069" transform="translate(-433.276 -703.155)"/><path class="i" d="M478.664,813.936a.514.514,0,0,0,0,.763c.242.243,1.7,1.456,1.941,1.7a1.056,1.056,0,0,0,.971.242c.382-.069-.45.485-.763.555a1.108,1.108,0,0,1-1.04-.243c-.346-.312-2.288-2.149-2.67-2.531s.1-.381.451-.416S478.212,813.971,478.664,813.936Z" transform="translate(-433.276 -703.155)"/><path class="h" d="M473.783,798.437c.139.382.173.763-.416.659-.59-.069-3.155-.312-3.884-.312-.173,0-.1-.416-.381-.242-.243.173-.139.555-.139,1.005,0,.416-.035.693-.035,1.005.035.451.313,1.075,1.457,1.145a5.382,5.382,0,0,0,2.6-.312c.347-.242-.034-.624-.347-.624a17.139,17.139,0,0,1-2.67,0c-.416-.139-.659-.624-.381-.832.347-.243,1.005.069,1.664.069a9.319,9.319,0,0,1,1.561-.069c.173.1.416.069.416.867,0,.173.416.242.589.242.208,0,.277.312.243.763-.035.416.034.521-.763.521-.763,0-4.126-.035-4.612-.035-.208,0-.208-.139-.243-.555-.034-.381-.139-3.086-.208-3.294-.034-.208.521-.242.971-.139a14.794,14.794,0,0,0,1.734.208c.728.035,1.837.139,1.837.139s.555.069.624-.1c.174-.174.347-.243.382-.1" transform="translate(-430.788 -698.682)"/><path class="i" d="M473.783,798.437c.139.382.173.763-.416.659-.59-.069-3.155-.312-3.884-.312-.173,0-.1-.416-.381-.242-.243.173-.139.555-.139,1.005,0,.416-.035.693-.035,1.005.035.451.313,1.075,1.457,1.145a5.382,5.382,0,0,0,2.6-.312c.347-.242-.034-.624-.347-.624a17.139,17.139,0,0,1-2.67,0c-.416-.139-.659-.624-.381-.832.347-.243,1.005.069,1.664.069a9.319,9.319,0,0,1,1.561-.069c.173.1.416.069.416.867,0,.173.416.242.589.242.208,0,.277.312.243.763-.035.416.034.521-.763.521-.763,0-4.126-.035-4.612-.035-.208,0-.208-.139-.243-.555-.034-.381-.139-3.086-.208-3.294-.034-.208.521-.242.971-.139a14.794,14.794,0,0,0,1.734.208c.728.035,1.837.139,1.837.139s.555.069.624-.1C473.575,798.368,473.748,798.3,473.783,798.437Z" transform="translate(-430.788 -698.682)"/><path class="j" d="M453.761,710.382c-.555-.173-1.005.485-1.248,1.005a1.866,1.866,0,0,0,.243,2.254c.832,1.179,1.318,1.872,2.739,1.769a2.276,2.276,0,0,0,1.526-.867c.208-.312.242.208-.069.728a2.376,2.376,0,0,0,.034,2.531,2.735,2.735,0,0,0,3.744.485,7.3,7.3,0,0,0,2.809-2.843c.312-.555.312-.832,0-1.179s-1.283-1.976-1.491-5.2c-.139-1.941.208-3.19-1.005-3.883s-3.953-2.323-4.3-5.513c-.139-1.214-.035-3.051-1.248-2.08a3.013,3.013,0,0,0-1.318,2.427,3.8,3.8,0,0,0,1.005,2.427,26.816,26.816,0,0,0,1.6,2.6c.485.381.763.694,1.179.728a17.531,17.531,0,0,1,2.323.174c.381.139.589.589-.347.589a22.6,22.6,0,0,0-3.051.347c-.659.069-1.248.139-1.561,1.421s-.728,2.809-.763,3.26c-.034.485-.312.728-.312,1.005,0,.243.52,1.491,1.664.243a8.327,8.327,0,0,0,1.838-3.086c.208-.59.485-.521.242.416a8.675,8.675,0,0,0,.174,4.125,2.075,2.075,0,0,0,2.7,1.179,2.036,2.036,0,0,1,1.04-.312c.347.034-.069.659-.381.9s-1.283,1.352-3.052-.208A4.057,4.057,0,0,1,457.3,713.5a.4.4,0,0,0-.729-.173c-.208.312-1.387,1.387-2.184.589-.832-.762-1.144-1.213-.694-2.843.1-.313.278-.624.069-.694" transform="translate(-426.231 -669.917)"/><path class="k" d="M453.761,710.382c-.555-.173-1.005.485-1.248,1.005a1.866,1.866,0,0,0,.243,2.254c.832,1.179,1.318,1.872,2.739,1.769a2.276,2.276,0,0,0,1.526-.867c.208-.312.242.208-.069.728a2.376,2.376,0,0,0,.034,2.531,2.735,2.735,0,0,0,3.744.485,7.3,7.3,0,0,0,2.809-2.843c.312-.555.312-.832,0-1.179s-1.283-1.976-1.491-5.2c-.139-1.941.208-3.19-1.005-3.883s-3.953-2.323-4.3-5.513c-.139-1.214-.035-3.051-1.248-2.08a3.013,3.013,0,0,0-1.318,2.427,3.8,3.8,0,0,0,1.005,2.427,26.816,26.816,0,0,0,1.6,2.6c.485.381.763.694,1.179.728a17.531,17.531,0,0,1,2.323.174c.381.139.589.589-.347.589a22.6,22.6,0,0,0-3.051.347c-.659.069-1.248.139-1.561,1.421s-.728,2.809-.763,3.26c-.034.485-.312.728-.312,1.005,0,.243.52,1.491,1.664.243a8.327,8.327,0,0,0,1.838-3.086c.208-.59.485-.521.242.416a8.675,8.675,0,0,0,.174,4.125,2.075,2.075,0,0,0,2.7,1.179,2.036,2.036,0,0,1,1.04-.312c.347.034-.069.659-.381.9s-1.283,1.352-3.052-.208A4.057,4.057,0,0,1,457.3,713.5a.4.4,0,0,0-.729-.173c-.208.312-1.387,1.387-2.184.589-.832-.762-1.144-1.213-.694-2.843C453.8,710.763,453.969,710.451,453.761,710.382Z" transform="translate(-426.231 -669.917)"/><path class="j" d="M454.99,711.955c-.173.555-.346,1.284-.415,1.561-.069.242-.485.831-.832.069a1.452,1.452,0,0,1,.208-1.838c.173-.173.416-.52.589-.347s.485.451.45.555" transform="translate(-426.593 -673.919)"/><path class="k" d="M454.99,711.955c-.173.555-.346,1.284-.415,1.561-.069.242-.485.831-.832.069a1.452,1.452,0,0,1,.208-1.838c.173-.173.416-.52.589-.347S455.025,711.852,454.99,711.955Z" transform="translate(-426.593 -673.919)"/><path class="j" d="M457.5,709.158c-.347.174-1.11.174-1.387.763-.173.382-.867-.034-.52-.52s.589-.416.832-.555c.208-.139.312-.521.728-.313.416.243.485.555.347.624" transform="translate(-427.157 -673.098)"/><path class="k" d="M457.5,709.158c-.347.174-1.11.174-1.387.763-.173.382-.867-.034-.52-.52s.589-.416.832-.555c.208-.139.312-.521.728-.313C457.565,708.777,457.634,709.089,457.5,709.158Z" transform="translate(-427.157 -673.098)"/><path class="j" d="M492.609,679.607a8.021,8.021,0,0,0-3.432,1.629c-1.11.763-5.166,4.2-6.1,4.855,1.005.52,1.248,1.56.9,3.259-.069.382,0,.52.243.243.242-.243,1.457-1.561,1.421-2.6a3.3,3.3,0,0,0-.589-1.768c-.069-.139.347-.659.832.416s.347,2.6-1.075,4.265a5.906,5.906,0,0,1-3.155,1.942c-.589.312-1.213.763-.659,1.664a1.443,1.443,0,0,0,2.081.243,3.108,3.108,0,0,1,2.427-.521c1.387.139,1.838-.762.9-1.664-.312-.313-1.075-1.006-.139-1.006.555,0,1.249,1.248,1.63,1.6a4.491,4.491,0,0,0,2.427.555c1.179.069,2.981.52,2.981,1.629,0,.694-.381.9-.867.347-.208-.208-.486.139-.694.347-.728.729-2.6,2.7-3.952,3.052s-1.838-.035-3.606-1.006c-1.768-.936-3.4-1.907-3.883-2.184-.485-.312-1.456-1.005-1.005.382a5.812,5.812,0,0,0,3.953,3.571,17.3,17.3,0,0,1,3.19,1.283c.52.242.207.52-.485.416-.59-.069-1.249-.59-.729.555a3.092,3.092,0,0,0,3.676,2.115c2.357-.312,2.427-.8,3.917-3.26.243-.416.521-.139.347,1.006a11.8,11.8,0,0,1,2.5-.9,5.69,5.69,0,0,0,3.675-2.982c.59-1.109.936-1.491.832-2.67-.034-.416.59-1.283,1.249-1.907.658-.589,2.427-2.878,1.491-4.507-.9-1.63-2.427-.832-3.155.381a8.564,8.564,0,0,0-1.594,4.612,1.059,1.059,0,0,0-1.283.416c-.139.208-2.011-.035-2.67.139s-.867-.208-.173-1.11,3.12-4.2,2.982-6.622a4.312,4.312,0,0,1,.174-1.422c.139-.728.208-.728-.659-1.213-.589-.312-.624-1.213-.694-1.907-.1-.728-.242-.728-1.075-.555-.659.277-1.665-.312-2.15-1.11" transform="translate(-433.907 -664.871)"/><path class="l" d="M492.609,679.607a8.021,8.021,0,0,0-3.432,1.629c-1.11.763-5.166,4.2-6.1,4.855,1.005.52,1.248,1.56.9,3.259-.069.382,0,.52.243.243.242-.243,1.457-1.561,1.421-2.6a3.3,3.3,0,0,0-.589-1.768c-.069-.139.347-.659.832.416s.347,2.6-1.075,4.265a5.906,5.906,0,0,1-3.155,1.942c-.589.312-1.213.763-.659,1.664a1.443,1.443,0,0,0,2.081.243,3.108,3.108,0,0,1,2.427-.521c1.387.139,1.838-.762.9-1.664-.312-.313-1.075-1.006-.139-1.006.555,0,1.249,1.248,1.63,1.6a4.491,4.491,0,0,0,2.427.555c1.179.069,2.981.52,2.981,1.629,0,.694-.381.9-.867.347-.208-.208-.486.139-.694.347-.728.729-2.6,2.7-3.952,3.052s-1.838-.035-3.606-1.006c-1.768-.936-3.4-1.907-3.883-2.184-.485-.312-1.456-1.005-1.005.382a5.812,5.812,0,0,0,3.953,3.571,17.3,17.3,0,0,1,3.19,1.283c.52.242.207.52-.485.416-.59-.069-1.249-.59-.729.555a3.092,3.092,0,0,0,3.676,2.115c2.357-.312,2.427-.8,3.917-3.26.243-.416.521-.139.347,1.006a11.8,11.8,0,0,1,2.5-.9,5.69,5.69,0,0,0,3.675-2.982c.59-1.109.936-1.491.832-2.67-.034-.416.59-1.283,1.249-1.907.658-.589,2.427-2.878,1.491-4.507-.9-1.63-2.427-.832-3.155.381a8.564,8.564,0,0,0-1.594,4.612,1.059,1.059,0,0,0-1.283.416c-.139.208-2.011-.035-2.67.139s-.867-.208-.173-1.11,3.12-4.2,2.982-6.622a4.312,4.312,0,0,1,.174-1.422c.139-.728.208-.728-.659-1.213-.589-.312-.624-1.213-.694-1.907-.1-.728-.242-.728-1.075-.555C494.1,680.994,493.094,680.405,492.609,679.607Z" transform="translate(-433.907 -664.871)"/><path class="j" d="M488.554,698.471c-.243.555-.9,1.041-2.392.867-.763-.069-1.492-.1-1.63.486-.069.416-.415.381-.9.381-.486-.034-1.04-.139-1.04.035a13.3,13.3,0,0,0,2.809,1.768c.694.312,1.734,1.11,2.6,1.005,1.11-.1,2.081-.659,3.744-2.427.694-.729,1.214-1.11.59-1.387a3.311,3.311,0,0,0-1.457-.243,4.826,4.826,0,0,1-2.323-.486" transform="translate(-434.879 -670.247)"/><path class="l" d="M488.554,698.471c-.243.555-.9,1.041-2.392.867-.763-.069-1.492-.1-1.63.486-.069.416-.415.381-.9.381-.486-.034-1.04-.139-1.04.035a13.3,13.3,0,0,0,2.809,1.768c.694.312,1.734,1.11,2.6,1.005,1.11-.1,2.081-.659,3.744-2.427.694-.729,1.214-1.11.59-1.387a3.311,3.311,0,0,0-1.457-.243A4.826,4.826,0,0,1,488.554,698.471Z" transform="translate(-434.879 -670.247)"/><path class="j" d="M479.478,697.428c-.589-.035-.658-.45-.242-1.11a5.15,5.15,0,0,1,1.283-1.63,1.183,1.183,0,0,0,.52.763,2.094,2.094,0,0,0-.728,1.734Z" transform="translate(-433.848 -669.169)"/><path class="l" d="M479.478,697.428c-.589-.035-.658-.45-.242-1.11a5.15,5.15,0,0,1,1.283-1.63,1.183,1.183,0,0,0,.52.763,2.094,2.094,0,0,0-.728,1.734Z" transform="translate(-433.848 -669.169)"/><path class="c" d="M492.046,687.715c.1-.589.035-1.11-.867-.381-.832-.59-1.561-1.318-1.8-1.492a.42.42,0,0,1-.069-.728c.312-.312.832.243.728-.659-.034-.312.659-.1.832-.208.174-.07-.069-.521.729-.313.243.069.139-.416.659-.347s.763.278.867-.139.243-.659.867-.242c.45.278.624.1.659-.1s.451-.069.832.139a7.607,7.607,0,0,1,2.358,1.907c.242.313.381.624.208.659s-.382,0-.416.347-.208.659-.416.242c-.208-.381-.243.069-.382-.347s-.347.139-.45-.138c-.139-.347-.277.069-.416-.243-.069-.139-.486.208-.59-.035-.138-.242-.415.243-.624-.034s-.208.312-.555.173-.208.313-.555.174-.243.416-.555.347-.312.07-.382.416c-.069.381-.208,1.8-.208,2.115s.729.242,1.8.1a9.372,9.372,0,0,0,3.953-1.56c.381-.312.728-.312.8-.208s-.1.451-.382.694a4.934,4.934,0,0,1-2.67,1.318,20.98,20.98,0,0,1-3.328.52c-.277-.069.1.416.589.312.277-.069.832.971,1.734.971a4.831,4.831,0,0,0,2.115-1.04c.312-.243,1.387-.729.659,0s-1.492,1.525-2.289,1.56a5.089,5.089,0,0,1-2.774-.8c-.832-.555-1.109-.867-.97-1.734a8.158,8.158,0,0,0,.312-1.248" transform="translate(-436.743 -665.835)"/><path class="l" d="M492.046,687.715c.1-.589.035-1.11-.867-.381-.832-.59-1.561-1.318-1.8-1.492a.42.42,0,0,1-.069-.728c.312-.312.832.243.728-.659-.034-.312.659-.1.832-.208.174-.07-.069-.521.729-.313.243.069.139-.416.659-.347s.763.278.867-.139.243-.659.867-.242c.45.278.624.1.659-.1s.451-.069.832.139a7.607,7.607,0,0,1,2.358,1.907c.242.313.381.624.208.659s-.382,0-.416.347-.208.659-.416.242c-.208-.381-.243.069-.382-.347s-.347.139-.45-.138c-.139-.347-.277.069-.416-.243-.069-.139-.486.208-.59-.035-.138-.242-.415.243-.624-.034s-.208.312-.555.173-.208.313-.555.174-.243.416-.555.347-.312.07-.382.416c-.069.381-.208,1.8-.208,2.115s.729.242,1.8.1a9.372,9.372,0,0,0,3.953-1.56c.381-.312.728-.312.8-.208s-.1.451-.382.694a4.934,4.934,0,0,1-2.67,1.318,20.98,20.98,0,0,1-3.328.52c-.277-.069.1.416.589.312.277-.069.832.971,1.734.971a4.831,4.831,0,0,0,2.115-1.04c.312-.243,1.387-.729.659,0s-1.492,1.525-2.289,1.56a5.089,5.089,0,0,1-2.774-.8c-.832-.555-1.109-.867-.97-1.734A8.158,8.158,0,0,0,492.046,687.715Z" transform="translate(-436.743 -665.835)"/><path class="c" d="M509.672,693.011c-.485.347-.763.485-.832,1.075-.034.59-.173,1.63-.381,1.734-.277.1-.243-.555-.347-.347-.139.313-.486.174-.59-.1-.034-.1-1.109-.1-.277-1.353a5.411,5.411,0,0,1,1.942-1.976c.555-.277,1.491.243.485.971" transform="translate(-441.816 -668.393)"/><path class="l" d="M509.672,693.011c-.485.347-.763.485-.832,1.075-.034.59-.173,1.63-.381,1.734-.277.1-.243-.555-.347-.347-.139.313-.486.174-.59-.1-.034-.1-1.109-.1-.277-1.353a5.411,5.411,0,0,1,1.942-1.976C509.741,691.763,510.677,692.283,509.672,693.011Z" transform="translate(-441.816 -668.393)"/><path class="j" d="M540.067,764.621c-.208-.52.139-1.353,1.213-.763s1.907,1.109,1.11,3.5c-.763,2.357-1.353,3.744-1.63,4.75-.312,1.006-1.456,2.254-1.075.555a15.117,15.117,0,0,0,.416-4.75c-.312-1.908.312-1.769.1-2.635a3.144,3.144,0,0,0-.139-.659" transform="translate(-451.13 -688.825)"/><path class="k" d="M540.067,764.621c-.208-.52.139-1.353,1.213-.763s1.907,1.109,1.11,3.5c-.763,2.357-1.353,3.744-1.63,4.75-.312,1.006-1.456,2.254-1.075.555a15.117,15.117,0,0,0,.416-4.75c-.312-1.908.312-1.769.1-2.635A3.144,3.144,0,0,0,540.067,764.621Z" transform="translate(-451.13 -688.825)"/><path class="j" d="M544.57,767.622c.312.936.659,3.051.139,3.918a37.637,37.637,0,0,1-2.7,3.849c-.59.589-1.076.347-.694-.312a7.7,7.7,0,0,0,.9-1.8,2.809,2.809,0,0,1,.486-1.629,37.482,37.482,0,0,0,1.491-4.577c.069-.243.312.312.381.555" transform="translate(-451.576 -689.78)"/><path class="k" d="M544.57,767.622c.312.936.659,3.051.139,3.918a37.637,37.637,0,0,1-2.7,3.849c-.59.589-1.076.347-.694-.312a7.7,7.7,0,0,0,.9-1.8,2.809,2.809,0,0,1,.486-1.629,37.482,37.482,0,0,0,1.491-4.577C544.258,766.824,544.5,767.379,544.57,767.622Z" transform="translate(-451.576 -689.78)"/><path class="j" d="M528.956,774.128a9.848,9.848,0,0,0-.832-2.532c.347-.936,1.492-3.5,3.4-4.264a.361.361,0,0,0,.242-.485c-.069-.174.243-.312.416.312.174.59.486,2.323.486,2.323a3.3,3.3,0,0,1-.173,1.214,7.046,7.046,0,0,0-.174,2.288c.139.59.347,1.04,1.56.763.59-.139.555-.312.729-.832s.659-1.976.832-2.809a10.332,10.332,0,0,0-.139-3.328c-.174-.521.069-2.254-.07-2.6a1.621,1.621,0,0,0-1.283-1.214c-1.075-.347-1.387-.416-2.115.312s-1.005,1.04-1.318,1.387c-.347.347-1.214.034-.485-.659s1.421-1.387,1.629-1.595l-.208-.554h-.382a8.2,8.2,0,0,1-3.744,2.08c-.381.069-1.11.139-.589.832.139.174.173.659.485.485s.763-.936,1.214-.589c.416.347-.069,1.178-.59,1.56s-1.075.763-1.456,1.005c-.382.208-.59.416-.555,1.11a7.243,7.243,0,0,1-.313,2.878,1.636,1.636,0,0,0,.174,1.838,6.5,6.5,0,0,1,1.075,2.254c.174,1.04.243,1.283.936,1.214a1.413,1.413,0,0,0,1.214-.832Z" transform="translate(-447.057 -688.311)"/><path class="k" d="M528.956,774.128a9.848,9.848,0,0,0-.832-2.532c.347-.936,1.492-3.5,3.4-4.264a.361.361,0,0,0,.242-.485c-.069-.174.243-.312.416.312.174.59.486,2.323.486,2.323a3.3,3.3,0,0,1-.173,1.214,7.046,7.046,0,0,0-.174,2.288c.139.59.347,1.04,1.56.763.59-.139.555-.312.729-.832s.659-1.976.832-2.809a10.332,10.332,0,0,0-.139-3.328c-.174-.521.069-2.254-.07-2.6a1.621,1.621,0,0,0-1.283-1.214c-1.075-.347-1.387-.416-2.115.312s-1.005,1.04-1.318,1.387c-.347.347-1.214.034-.485-.659s1.421-1.387,1.629-1.595l-.208-.554h-.382a8.2,8.2,0,0,1-3.744,2.08c-.381.069-1.11.139-.589.832.139.174.173.659.485.485s.763-.936,1.214-.589c.416.347-.069,1.178-.59,1.56s-1.075.763-1.456,1.005c-.382.208-.59.416-.555,1.11a7.243,7.243,0,0,1-.313,2.878,1.636,1.636,0,0,0,.174,1.838,6.5,6.5,0,0,1,1.075,2.254c.174,1.04.243,1.283.936,1.214a1.413,1.413,0,0,0,1.214-.832Z" transform="translate(-447.057 -688.311)"/><path class="f" d="M530.149,779.173a4.618,4.618,0,0,0-.832,2.08c0,.729-.729,1.491-.659,1.838s1.041,1.248,1.6,2.184a8.673,8.673,0,0,1,1.283,4.75,30.9,30.9,0,0,1-.867,6.033c-.069.416-.312.763.347,1.387a6.779,6.779,0,0,1,2.081,4.265,16.246,16.246,0,0,0,.832,4.022c.173.138.139.346.139.832a15.934,15.934,0,0,0,.728,3.71c.312.521.242-2.912.208-3.918a62.741,62.741,0,0,1,.208-6.414,2.58,2.58,0,0,0-.243-2.323,5.124,5.124,0,0,1-.867-4.855c.763-2.5,2.011-2.462,1.629-3.432a7.658,7.658,0,0,0-1.594-2.254c-.521-.554-.1-1.907-.139-2.462-.035-1.04-.867-1.213-.937-2.357a4.046,4.046,0,0,1,.694-3.26c.867-1.179-.312-1.11-.694-1.838a4.462,4.462,0,0,1-.243-3.225c.173-.763.07-1.005-.139-1.075s-1.11-.243-1.11-.243l-1.318,2.67a5.485,5.485,0,0,1,.313,1.8Z" transform="translate(-448.007 -691.379)"/><path class="g" d="M530.149,779.173a4.618,4.618,0,0,0-.832,2.08c0,.729-.729,1.491-.659,1.838s1.041,1.248,1.6,2.184a8.673,8.673,0,0,1,1.283,4.75,30.9,30.9,0,0,1-.867,6.033c-.069.416-.312.763.347,1.387a6.779,6.779,0,0,1,2.081,4.265,16.246,16.246,0,0,0,.832,4.022c.173.138.139.346.139.832a15.934,15.934,0,0,0,.728,3.71c.312.521.242-2.912.208-3.918a62.741,62.741,0,0,1,.208-6.414,2.58,2.58,0,0,0-.243-2.323,5.124,5.124,0,0,1-.867-4.855c.763-2.5,2.011-2.462,1.629-3.432a7.658,7.658,0,0,0-1.594-2.254c-.521-.554-.1-1.907-.139-2.462-.035-1.04-.867-1.213-.937-2.357a4.046,4.046,0,0,1,.694-3.26c.867-1.179-.312-1.11-.694-1.838a4.462,4.462,0,0,1-.243-3.225c.173-.763.07-1.005-.139-1.075s-1.11-.243-1.11-.243l-1.318,2.67a5.485,5.485,0,0,1,.313,1.8Z" transform="translate(-448.007 -691.379)"/><path class="a" d="M511.255,708.318a35.326,35.326,0,0,0-3.5,7.247c-.763,2.254-2.531,7.593-1.283,11.13s3.71,1.283,4.265-.034c.555-1.352,1.421-3.607,1.7-4.231.242-.589.381-.936.867.486a40.015,40.015,0,0,1,1.179,5.132,20.482,20.482,0,0,1-1.005,2.5c-.521,1.352-.832,2.289-.313,3.086.521.832,2.531,4.3,3.19,5.825.381.9.728,1.075,1.768.832a33.9,33.9,0,0,0,4.265-1.457c.728-.347.381-.936.173-1.664-.312-1.109-1.629-7.316-1.629-8.149s.208-1.907-.867-.693c-.382.415-.9,0-.763-.59s1.421-9.015,1.491-10.021c-.728-1.594-2.878-6.622-3.5-7.524-.589-.9-.832-.936-1.734-.486-.9.486-2.912,1.214-3.675-.519-.139-.313-.347-1.006.174-1.076l-.382-.139c0-.069-.277.174-.416.347" transform="translate(-441.562 -672.951)"/><path class="a" d="M526.954,751.736a22.317,22.317,0,0,1-4.646,1.8c-1.144.173-.867.485-.659,1.352s.867,3.433,1.214,4.369c.347.9.832.9,1.734.867a8.937,8.937,0,0,0,5.374-2.184,17.1,17.1,0,0,1-1.56-4.4c-.277-1.249-.277-2.5-1.457-1.8" transform="translate(-445.958 -685.371)"/><path class="a" d="M492.184,717a1.157,1.157,0,0,1-1.075.694c-.694,0-1.248-.208-1.7.381-.416.59-2.808,3.5-3.329,5.27.521,1.075,1.214,3.017,1.734,4.4,1.664-1.421,7.039-6.657,8.044-7.663.381-.382.416-.729-.139-1.109s-2.636-1.7-2.982-1.907c-.312-.243-.486-.243-.555-.069" transform="translate(-435.875 -675.492)"/><path class="a" d="M474.778,727.563a22.455,22.455,0,0,1-2.081,5.478,3.615,3.615,0,0,0,1.283,1.525,32.3,32.3,0,0,0,4.126-3.745,8.462,8.462,0,0,0,1.457-2.185c0-.243-.312-.347-.694-.243-.382.069-1.976-.554-3.536-.867-.382-.139-.486-.139-.555.035" transform="translate(-432.06 -678.5)"/><path class="a" d="M471.221,724.424a9.1,9.1,0,0,1-2.67-2.809c-.555-.936-.659-.866-.867-.173a12.8,12.8,0,0,1-1.6,2.912c-.555.729-2.011,2.636-2.427,3.052-.381.416,0,.589.347.936s2.116,2.5,2.5,2.982.832,1.352,1.838.381a10.915,10.915,0,0,0,2.843-4.438c.555-1.768.589-2.7,1.075-2.6l.035-.382-.139-.208-.243-.208a.431.431,0,0,1-.034.451c-.1.242-.451.139-.659.1" transform="translate(-429.44 -676.644)"/><path class="a" d="M501.159,670.195c-1.179,1.387-3.5,2.6-7.42,3.571a24.947,24.947,0,0,0-9.223,5.1c-1.6,1.352-5.617,4.612-7.525,5.443-.52.208-1.629.937-.208,1.11,1.04.139,1.769-.485,4.023-2.115a47.1,47.1,0,0,0,5.686-4.473,18.578,18.578,0,0,1,7.593-3.883c3.121-.867,7.177-2.219,8.356-3.5.555-.589.59-.9.069-1.421-.555-.521-.867-.382-1.352.173" transform="translate(-433.026 -662.047)"/><path class="a" d="M483.055,689.332c-.347.173-.485.381-.867,1.63s-.347,1.976-.035,2.288a1.224,1.224,0,0,0,.763.243c.139,0,.243.034.243-.312a2.907,2.907,0,0,1,1.109-2.635c.208-.139-.034-1.04-.8-.9-.242.034.035-.555-.416-.312" transform="translate(-434.686 -667.625)"/><path class="a" d="M464.06,696.241c.59,0,1.006,0,.937.694-.035.694-.347,1.629-.382,2.288s-.034.9.347.9-.555.382-1.075.485c-.521.069-1.318.381-1.734-1.8-.139-.693-.069-1.768-.173-2.01a4.638,4.638,0,0,1,2.08-.555" transform="translate(-429.006 -669.612)"/><path class="a" d="M477.6,698.811c.174.867.382.867.208.971-.173.139-.346-.312-1.04-.208-.659.1-6.1.936-6.484,1.005-1.213.139-1.283-.069-.139-.312,1.11-.243,5.2-.971,6.449-1.214Z" transform="translate(-431.099 -670.344)"/><path class="a" d="M471.3,790.693c.554.347,1.907.728,4.195-.208s4.82-.312,5.2,1.318.415,3.744-.312,4.646a1.434,1.434,0,0,1-1.837.485c-1.248-.381-4.126-1.734-4.959-2.115a8.856,8.856,0,0,0-3.19-.832,4.032,4.032,0,0,1-.069-2.773c.242-.52.242-1.04.485-.9a3.971,3.971,0,0,0,.485.381" transform="translate(-431.326 -696.347)"/><path class="a" d="M484.26,801.619a1.969,1.969,0,0,1,1.907,1.248c.242.832,1.941,1.04,2.67,1.005s.589.347.555.763-.174,1.734-.174,2.254.139,2.323.208,2.67c.1.347-.208.521-.589.694a3.176,3.176,0,0,1-2.7-.034c-.485-.347-1.04-.832-.485-.867s-.694-4.923-1.04-5.756c-.347-.9-1.353-1.976-.347-1.976" transform="translate(-435.231 -699.644)"/><path class="a" d="M462.963,787.39c.242.069.347.312.52.589a.641.641,0,0,1-.034.867c-.486.52-1.04,2.878-.936,4.577a3.948,3.948,0,0,0-1.283-.139,14.386,14.386,0,0,1,.382-4.854c.416-.971.832-1.213,1.352-1.04" transform="translate(-428.775 -695.574)"/><path class="a" d="M463.638,824.112a16.483,16.483,0,0,0,4.612,3.71,6.873,6.873,0,0,0,3.849.728c1.075-.1.867.347,0,.485a7.587,7.587,0,0,1-4.126-.555,13.741,13.741,0,0,1-4.646-3.849c-.347-.45-.034-.9.312-.52" transform="translate(-429.346 -706.014)"/><path class="a" d="M493.581,819.924a21.952,21.952,0,0,1-4.057,1.6,6.25,6.25,0,0,1,.208,1.317A10.059,10.059,0,0,0,494,821.242c.347-.208.486-.485.347-.763-.1-.312-.277-.8-.763-.555" transform="translate(-436.856 -704.843)"/><path class="a" d="M480.932,814.81c-.208-.208,1.005-.485,1.283-.485.312.208.867.694,1.075.867.139.139.069.208-.069.312a6.081,6.081,0,0,1-1.214.312,11.459,11.459,0,0,1-1.075-1.006" transform="translate(-434.4 -703.265)"/><path class="a" d="M481.809,785.192c-.347-.243-.312-.382-.139-.659a1.837,1.837,0,0,1,.52-.52c.174-.07.416-.139.728.312.312.416,1.942,3.155,2.289,3.884s.763.242.589-.174a13.363,13.363,0,0,0-.658-1.387,19.321,19.321,0,0,0,.936-5.167,9.887,9.887,0,0,0-.589-3.433,20.482,20.482,0,0,0,4.681-.312c1.005-.312.173-.382-.208-.347a40.409,40.409,0,0,1-5.2-.208c-3.537-.416-7-2.427-8.114-3.78-.174-.208-1.213-.139-.347.555a13.653,13.653,0,0,0,6.276,3.329c.729.139,1.908.346,2.081,3.017a29.074,29.074,0,0,1-.069,4.646c0,.243-.173.347-.381.035a6.064,6.064,0,0,0-1.353-1.49.833.833,0,0,0-1.005.069,6.15,6.15,0,0,0-1.075,1.04Z" transform="translate(-432.989 -691.573)"/><path class="a" d="M473.131,801.348a17.13,17.13,0,0,1-2.67,0c-.416-.139-.659-.624-.381-.832.347-.242,1.005.069,1.664.069a9.368,9.368,0,0,1,1.561-.069c.173.1.416.069.416.867Z" transform="translate(-431.28 -699.303)"/><path class="a" d="M467.109,814.5c-.555-.346-1.214-1.941-1.353-5.132a11.788,11.788,0,0,1,.729-3.745c.347-.867-.208-.52-.347-.208a12.022,12.022,0,0,0-.694,2.427,11.761,11.761,0,0,0,0,4.195c.347,1.942.52,2.531.589,2.878Z" transform="translate(-429.939 -700.629)"/><path class="h" d="M492.269,670.047a3.312,3.312,0,0,1,.243-.624c-.312.174-.624.312-.9.485.173.243.451.694.659.139" transform="translate(-437.45 -661.969)"/><path class="i" d="M492.269,670.047a3.312,3.312,0,0,1,.243-.624c-.312.174-.624.312-.9.485C491.783,670.152,492.061,670.6,492.269,670.047Z" transform="translate(-437.45 -661.969)"/><path class="h" d="M500.754,669.441c-.139-.45-.555.243-1.075.9a.814.814,0,0,1-1.387-.069,3.4,3.4,0,0,0-.729-1.318c-.485-.624.451-1.491.832-1.594a5.006,5.006,0,0,0,1.006-.312c.1-.1-.069-.728-.174-1.213a32.251,32.251,0,0,0-5.1,2.08c.521.208.347,1.179.313,1.318-.069.139-.243,1.006.139.485s.555-.693.936-.832c.416-.139.867-.1.867.485.034.59-.243.555-.347.937-.069.381,0,.381.208.45s.312.347.173.763-.8.45-1.387.381-.659.035-.45.208a1.712,1.712,0,0,1,.45.867,22.5,22.5,0,0,1,5.721-1.769,6.043,6.043,0,0,0,0-1.768" transform="translate(-438.169 -660.946)"/><path class="i" d="M500.754,669.441c-.139-.45-.555.243-1.075.9a.814.814,0,0,1-1.387-.069,3.4,3.4,0,0,0-.729-1.318c-.485-.624.451-1.491.832-1.594a5.006,5.006,0,0,0,1.006-.312c.1-.1-.069-.728-.174-1.213a32.251,32.251,0,0,0-5.1,2.08c.521.208.347,1.179.313,1.318-.069.139-.243,1.006.139.485s.555-.693.936-.832c.416-.139.867-.1.867.485.034.59-.243.555-.347.937-.069.381,0,.381.208.45s.312.347.173.763-.8.45-1.387.381-.659.035-.45.208a1.712,1.712,0,0,1,.45.867,22.5,22.5,0,0,1,5.721-1.769A6.043,6.043,0,0,0,500.754,669.441Z" transform="translate(-438.169 -660.946)"/><path class="h" d="M483.493,682.625c-.208-.381-.485-.45-.59-.139s-.312,1.318-1.005,1.6a2.263,2.263,0,0,1-.521.174,5.237,5.237,0,0,0,.8.693c.52-.554,1.005-1.075,1.491-1.525a1.392,1.392,0,0,0-.173-.8" transform="translate(-434.534 -665.636)"/><path class="i" d="M483.493,682.625c-.208-.381-.485-.45-.59-.139s-.312,1.318-1.005,1.6a2.263,2.263,0,0,1-.521.174,5.237,5.237,0,0,0,.8.693c.52-.554,1.005-1.075,1.491-1.525A1.392,1.392,0,0,0,483.493,682.625Z" transform="translate(-434.534 -665.636)"/><path class="h" d="M490.412,674.394c-.243-.069-.416.277-.59.52a1.1,1.1,0,0,1-1.04.624c-.555-.07-.694-.242-.832-.728a.823.823,0,0,0-.9-.624c-.416,0-.694-.485-.243-1.005.416-.521.867-.277,1.213-.277s.521-.382.243-.555a1.961,1.961,0,0,1-.694-.936,41.083,41.083,0,0,0-4.542,3.433,3.552,3.552,0,0,1,.763.173.7.7,0,0,1,.485.728c-.034.382.069.485.312.208.243-.242-.034-1.04.763-1.352s.9.312.867.694c-.035.416,0,.8.416.971s.867.832-.035,1.214a11.137,11.137,0,0,1-1.768.59c-.382.1-.277.485.034.693a4.821,4.821,0,0,1,.416.382,31.346,31.346,0,0,1,3.433-2.739c.659-.451,1.283-.867,1.907-1.213.1-.312.139-.659-.207-.8" transform="translate(-435.004 -662.535)"/><path class="i" d="M490.412,674.394c-.243-.069-.416.277-.59.52a1.1,1.1,0,0,1-1.04.624c-.555-.07-.694-.242-.832-.728a.823.823,0,0,0-.9-.624c-.416,0-.694-.485-.243-1.005.416-.521.867-.277,1.213-.277s.521-.382.243-.555a1.961,1.961,0,0,1-.694-.936,41.083,41.083,0,0,0-4.542,3.433,3.552,3.552,0,0,1,.763.173.7.7,0,0,1,.485.728c-.034.382.069.485.312.208.243-.242-.034-1.04.763-1.352s.9.312.867.694c-.035.416,0,.8.416.971s.867.832-.035,1.214a11.137,11.137,0,0,1-1.768.59c-.382.1-.277.485.034.693a4.821,4.821,0,0,1,.416.382,31.346,31.346,0,0,1,3.433-2.739c.659-.451,1.283-.867,1.907-1.213C490.724,674.879,490.758,674.532,490.412,674.394Z" transform="translate(-435.004 -662.535)"/><path class="h" d="M480.908,680.7a.65.65,0,0,0-.52-.659c-.173-.034-.45-.347-.589-.624a4.587,4.587,0,0,0-.555.867c.1.277.173.554.277.8.52,0,1.352-.035,1.387-.381" transform="translate(-433.926 -664.816)"/><path class="i" d="M480.908,680.7a.65.65,0,0,0-.52-.659c-.173-.034-.45-.347-.589-.624a4.587,4.587,0,0,0-.555.867c.1.277.173.554.277.8C480.041,681.078,480.874,681.043,480.908,680.7Z" transform="translate(-433.926 -664.816)"/><path class="h" d="M505.082,709.326a11.583,11.583,0,0,0-4.681.8c.277.173.59.554,1.145.347.832-.278,1.109.589.728.831s-.52.832.208.382,1.387.208,1.075.658c-.312.486-.694.1-.589.763.069.658-.069,1.283-.659,1.387s-.728-.8-1.005-.729.069,1.6-.069,1.63a2.246,2.246,0,0,0-1.04.659.034.034,0,0,1,.035.035c2.357,1.7,2.982.762,3.328-.035a33.578,33.578,0,0,0,1.352-4.507,12.463,12.463,0,0,0,.174-2.219" transform="translate(-439.896 -673.335)"/><path class="i" d="M505.082,709.326a11.583,11.583,0,0,0-4.681.8c.277.173.59.554,1.145.347.832-.278,1.109.589.728.831s-.52.832.208.382,1.387.208,1.075.658c-.312.486-.694.1-.589.763.069.658-.069,1.283-.659,1.387s-.728-.8-1.005-.729.069,1.6-.069,1.63a2.246,2.246,0,0,0-1.04.659.034.034,0,0,1,.035.035c2.357,1.7,2.982.762,3.328-.035a33.578,33.578,0,0,0,1.352-4.507A12.463,12.463,0,0,0,505.082,709.326Z" transform="translate(-439.896 -673.335)"/><path class="h" d="M498.358,714.43c.139-.313-.208-.589-.589-.381-.382.242-.9.589-1.283-.035s.416-.694.45-1.005-.242-.347-.1-.832.693-.347,1.075-.1c.45.312.312-.416.242-.694a1.734,1.734,0,0,1-.034-.589,10.114,10.114,0,0,0-1.352.728c-2.22,1.353-2.289,2.5-1.769,2.947.451.382,1.422.555,3.017,1.63a7.27,7.27,0,0,1,.347-1.664" transform="translate(-438.339 -673.758)"/><path class="i" d="M498.358,714.43c.139-.313-.208-.589-.589-.381-.382.242-.9.589-1.283-.035s.416-.694.45-1.005-.242-.347-.1-.832.693-.347,1.075-.1c.45.312.312-.416.242-.694a1.734,1.734,0,0,1-.034-.589,10.114,10.114,0,0,0-1.352.728c-2.22,1.353-2.289,2.5-1.769,2.947.451.382,1.422.555,3.017,1.63A7.27,7.27,0,0,1,498.358,714.43Z" transform="translate(-438.339 -673.758)"/><path class="h" d="M486.823,712.6a6.238,6.238,0,0,1-2.427-2.636s.035-.173-.208-.173a9.039,9.039,0,0,1-2.809-.659c-1.594-.555-1.8-.208-2.01.486a16.234,16.234,0,0,0-.416,4.022c-.035,2.081.867,3.363,1.421,3.155.277-.1.971-.45,1.734-.832,0-.416.034-1.11.069-1.456.069-.486-.451-.313-.659-.035-.208.243-.624.694-1.005.624s-.659-.763-.589-1.387c.069-.659-.694-.9-.208-1.768s.867.208,1.283.139.208-.312,0-.971.624-.867,1.11-.381c.312.312.485-.381.936-.277.485.1.763.416.485.9-.208.381-.381,1.213.034.763s.832-.729,1.214-.416.139.936.034,1.249.693.728.139,1.109-1.179-.277-1.491-.208-.381.486.034.763a4.96,4.96,0,0,0,.8.451,14.164,14.164,0,0,0,2.288-1.109l.555.034c0-.8-.069-1.248-.312-1.386" transform="translate(-433.843 -673.206)"/><path class="i" d="M486.823,712.6a6.238,6.238,0,0,1-2.427-2.636s.035-.173-.208-.173a9.039,9.039,0,0,1-2.809-.659c-1.594-.555-1.8-.208-2.01.486a16.234,16.234,0,0,0-.416,4.022c-.035,2.081.867,3.363,1.421,3.155.277-.1.971-.45,1.734-.832,0-.416.034-1.11.069-1.456.069-.486-.451-.313-.659-.035-.208.243-.624.694-1.005.624s-.659-.763-.589-1.387c.069-.659-.694-.9-.208-1.768s.867.208,1.283.139.208-.312,0-.971.624-.867,1.11-.381c.312.312.485-.381.936-.277.485.1.763.416.485.9-.208.381-.381,1.213.034.763s.832-.729,1.214-.416.139.936.034,1.249.693.728.139,1.109-1.179-.277-1.491-.208-.381.486.034.763a4.96,4.96,0,0,0,.8.451,14.164,14.164,0,0,0,2.288-1.109l.555.034C487.135,713.184,487.066,712.734,486.823,712.6Z" transform="translate(-433.843 -673.206)"/><path class="h" d="M479.667,727.193c-.346-.763-.45-.174-1.421,1.317a31.476,31.476,0,0,1-3.225,3.779c1.075.208,3.329.763,1.976,1.907-1.456,1.214-.832,1.11-.173,1.04s1.734.312.9,1.769-1.387,2.5-2.15,2.982a1.329,1.329,0,0,1-2.15-.694c-.242-1.11-1.005,0-1.04.729a14.488,14.488,0,0,0-.035,2.427l-1.629-.069a17.307,17.307,0,0,1,.069-2.7c.139-.659.1-1.422-.9-1.109a1.543,1.543,0,0,1-1.318-.1,16.753,16.753,0,0,0-3.536,3.953,1.978,1.978,0,0,0,2.115.416c.936-.382,2.5.069,1.56,1.56-.936,1.456-.9,2.184.035,1.283s2.462-2.462,2.947-.832c.312,1.076-.694,1.421-.659,2.289s.9,1.734-.312,2.773-1.734-.728-2.531-.485a.874.874,0,0,0-.555,1.006c1.075,1.526,2.635,3.675,3.19,4.577.867,1.421.867,3.155,1.214,2.878.347-.242,1.179-1.04,1.421-1.248a.847.847,0,0,0,.381-.936,18.4,18.4,0,0,1-.486-4.785,15.633,15.633,0,0,1,1.8-5.513c.659-1.214,2.67-5.132,3.155-6.172a20.7,20.7,0,0,0,1.56-3.19c.208-.937,1.04-3.156,1.387-4.2a22.758,22.758,0,0,0-1.6-4.646" transform="translate(-429.876 -678.338)"/><path class="i" d="M479.667,727.193c-.346-.763-.45-.174-1.421,1.317a31.476,31.476,0,0,1-3.225,3.779c1.075.208,3.329.763,1.976,1.907-1.456,1.214-.832,1.11-.173,1.04s1.734.312.9,1.769-1.387,2.5-2.15,2.982a1.329,1.329,0,0,1-2.15-.694c-.242-1.11-1.005,0-1.04.729a14.488,14.488,0,0,0-.035,2.427l-1.629-.069a17.307,17.307,0,0,1,.069-2.7c.139-.659.1-1.422-.9-1.109a1.543,1.543,0,0,1-1.318-.1,16.753,16.753,0,0,0-3.536,3.953,1.978,1.978,0,0,0,2.115.416c.936-.382,2.5.069,1.56,1.56-.936,1.456-.9,2.184.035,1.283s2.462-2.462,2.947-.832c.312,1.076-.694,1.421-.659,2.289s.9,1.734-.312,2.773-1.734-.728-2.531-.485a.874.874,0,0,0-.555,1.006c1.075,1.526,2.635,3.675,3.19,4.577.867,1.421.867,3.155,1.214,2.878.347-.242,1.179-1.04,1.421-1.248a.847.847,0,0,0,.381-.936,18.4,18.4,0,0,1-.486-4.785,15.633,15.633,0,0,1,1.8-5.513c.659-1.214,2.67-5.132,3.155-6.172a20.7,20.7,0,0,0,1.56-3.19c.208-.937,1.04-3.156,1.387-4.2A22.758,22.758,0,0,0,479.667,727.193Z" transform="translate(-429.876 -678.338)"/><path class="h" d="M502.038,740.3a8.113,8.113,0,0,1-1.491-4.472,22.582,22.582,0,0,1,.174-4.231c-.347-.034-.763.035-.8.555a8.407,8.407,0,0,1-.694,2.6c-.242.59-1.109.555-1.629.59s-.52-.312-.173-1.075a2.718,2.718,0,0,0,.381-1.8c-.1-.693-.416-.069-.728.52s-1.179,1.8-2.15,1.664c-1.005-.139-.728-1.63-.659-2.15s-.208-.589-.59-.693c-.381-.07-1.179-.243-.728-1.525.416-1.248.9-1.109,1.491-.9s.694-.174.139-.382-1.179-.693-1.11-1.283c.1-1.6,1.11-1.457,1.907-1.283a2.507,2.507,0,0,0,2.116-.867c0-.034-.035-.069-.035-.1-1.144-4.369,1.04-9.778,1.629-11.269a64.708,64.708,0,0,1,3.745-7.038c-.416-.208-1.561-.8-2.184-1.109s-.971-.486-1.145-.243-.381.381-.694.8c-.589.867-.069.728.069.728.174,0,.9.937,1.04,1.179.139.208,0,.382-.312,1.075-.382.9-.659,2.982-1.006,4.23-1.04,3.779-2.67,3.4-3.4,2.912s-.936.243-1.7,1.283a14,14,0,0,1-1.179,1.283c.694.312,1.664,1.213.52,2.115-1.352,1.04-1.595,1.6-.936,1.456s1.283-1.109,2.011-.416-.243,1.457-.659,1.7c-.381.208-1.178.59-.936,1.422.208.832.347,1.942-.728,2.185a1.412,1.412,0,0,1-1.8-.763c-.312-.555-.59-.174-.728.52a9.275,9.275,0,0,0-.208,1.456c0,.242-.763-.139-1.11-.485s-.763.589-1.179.139c-.382-.485.486-1.942.763-2.462.277-.485.173-1.179-1.56-.382a24.912,24.912,0,0,0-1.7,4.369,46,46,0,0,1-3.988,8.252,14.4,14.4,0,0,0-2.392,9.466c.347,2.184.659,2.011,1.11,2.011.486,0,1.63,1.457,2.427,2.358.763.9,1.075.52,1.457.208a40.754,40.754,0,0,1,7.281-4.265,42.1,42.1,0,0,1,5.478-2.115,15.573,15.573,0,0,1,.312-2.15c.069-.416-.347-.555-.763,0s-1.6,1.942-2.358,1.6-1.421-1.214-1.005-1.942-.173-.936-.485-1.318-.312-1.907.659-2.011c.936-.138,1.248.693,1.907.9s1.179.174.347-.728-1.8-.555-1.284-1.8,1.248-1.179,2.116-.9c.867.243,1.283-.208,1.838-.589a1.809,1.809,0,0,1,2.462,0c.763.9-.555,1.734-.867,2.011-.589.589-.693,1.664-.034,1.04s1.734-2.982,2.5-1.04c.416,1.109-.382,1.56-.243,2.254s1.283,1.629.347,2.5-2.289.139-2.843-.381-1.179-.763-.9.173a6.967,6.967,0,0,1,.277,1.873,15.819,15.819,0,0,1,4.369-.763c1.213.1,2.15.485,2.115-.659-.173-1.179-.763-1.976-1.873-3.815" transform="translate(-433.455 -672.302)"/><path class="i" d="M502.038,740.3a8.113,8.113,0,0,1-1.491-4.472,22.582,22.582,0,0,1,.174-4.231c-.347-.034-.763.035-.8.555a8.407,8.407,0,0,1-.694,2.6c-.242.59-1.109.555-1.629.59s-.52-.312-.173-1.075a2.718,2.718,0,0,0,.381-1.8c-.1-.693-.416-.069-.728.52s-1.179,1.8-2.15,1.664c-1.005-.139-.728-1.63-.659-2.15s-.208-.589-.59-.693c-.381-.07-1.179-.243-.728-1.525.416-1.248.9-1.109,1.491-.9s.694-.174.139-.382-1.179-.693-1.11-1.283c.1-1.6,1.11-1.457,1.907-1.283a2.507,2.507,0,0,0,2.116-.867c0-.034-.035-.069-.035-.1-1.144-4.369,1.04-9.778,1.629-11.269a64.708,64.708,0,0,1,3.745-7.038c-.416-.208-1.561-.8-2.184-1.109s-.971-.486-1.145-.243-.381.381-.694.8c-.589.867-.069.728.069.728.174,0,.9.937,1.04,1.179.139.208,0,.382-.312,1.075-.382.9-.659,2.982-1.006,4.23-1.04,3.779-2.67,3.4-3.4,2.912s-.936.243-1.7,1.283a14,14,0,0,1-1.179,1.283c.694.312,1.664,1.213.52,2.115-1.352,1.04-1.595,1.6-.936,1.456s1.283-1.109,2.011-.416-.243,1.457-.659,1.7c-.381.208-1.178.59-.936,1.422.208.832.347,1.942-.728,2.185a1.412,1.412,0,0,1-1.8-.763c-.312-.555-.59-.174-.728.52a9.275,9.275,0,0,0-.208,1.456c0,.242-.763-.139-1.11-.485s-.763.589-1.179.139c-.382-.485.486-1.942.763-2.462.277-.485.173-1.179-1.56-.382a24.912,24.912,0,0,0-1.7,4.369,46,46,0,0,1-3.988,8.252,14.4,14.4,0,0,0-2.392,9.466c.347,2.184.659,2.011,1.11,2.011.486,0,1.63,1.457,2.427,2.358.763.9,1.075.52,1.457.208a40.754,40.754,0,0,1,7.281-4.265,42.1,42.1,0,0,1,5.478-2.115,15.573,15.573,0,0,1,.312-2.15c.069-.416-.347-.555-.763,0s-1.6,1.942-2.358,1.6-1.421-1.214-1.005-1.942-.173-.936-.485-1.318-.312-1.907.659-2.011c.936-.138,1.248.693,1.907.9s1.179.174.347-.728-1.8-.555-1.284-1.8,1.248-1.179,2.116-.9c.867.243,1.283-.208,1.838-.589a1.809,1.809,0,0,1,2.462,0c.763.9-.555,1.734-.867,2.011-.589.589-.693,1.664-.034,1.04s1.734-2.982,2.5-1.04c.416,1.109-.382,1.56-.243,2.254s1.283,1.629.347,2.5-2.289.139-2.843-.381-1.179-.763-.9.173a6.967,6.967,0,0,1,.277,1.873,15.819,15.819,0,0,1,4.369-.763c1.213.1,2.15.485,2.115-.659C503.737,742.932,503.148,742.135,502.038,740.3Z" transform="translate(-433.455 -672.302)"/><path class="h" d="M486.863,761.91c-1.04.312-1.213-.173-1.907-.416s-.728.347-.242,1.075,1.005,1.421.416,1.421c-.555,0-1.006.069-1.075.52s-1.005-.069-1.213-1.005c-.208-.9-.416-2.635-.9-1.768s-.9,2.288-2.115,1.629-.381-1.49-1.005-2.115a1.882,1.882,0,0,1-.555-2.462c.589-1.075,1.11-.173,1.7-.173.555,0,.658-.52.139-.9s-1.179-2.254,1.213-2.115a4.2,4.2,0,0,0,2.67-.832c.763-.555,2.809-.242,1.976,1.179s-.554,1.734-.069,1.213,1.075-1.456,1.976-1.213.52.936-.035,1.734a1.024,1.024,0,0,0,.208,1.6c.416.312,1.213,1.941-1.179,2.635" transform="translate(-433.571 -686.218)"/><path class="i" d="M486.863,761.91c-1.04.312-1.213-.173-1.907-.416s-.728.347-.242,1.075,1.005,1.421.416,1.421c-.555,0-1.006.069-1.075.52s-1.005-.069-1.213-1.005c-.208-.9-.416-2.635-.9-1.768s-.9,2.288-2.115,1.629-.381-1.49-1.005-2.115a1.882,1.882,0,0,1-.555-2.462c.589-1.075,1.11-.173,1.7-.173.555,0,.658-.52.139-.9s-1.179-2.254,1.213-2.115a4.2,4.2,0,0,0,2.67-.832c.763-.555,2.809-.242,1.976,1.179s-.554,1.734-.069,1.213,1.075-1.456,1.976-1.213.52.936-.035,1.734a1.024,1.024,0,0,0,.208,1.6C488.458,759.587,489.256,761.216,486.863,761.91Z" transform="translate(-433.571 -686.218)"/><path class="h" d="M493.162,747.549a8.194,8.194,0,0,1-1.734-.173,9.1,9.1,0,0,1-1.665,3.19c-.069.139-.555.139-.763-.034s-.832-.485-.347-1.005,1.248-1.6,1.11-2.081-.485-.9-1.005-.243-1.352,1.977-2.254,2.011-1.8-.763-1.387-1.6.555-1.248-.035-1.976-.381-1.665.9-2.254a1.754,1.754,0,0,1,1.561.381c.485.382.728,0,.069-.381a2.137,2.137,0,0,1-1.248-1.734c-.069-.832.416-1.664,1.56-1.213a2.021,2.021,0,0,0,2.289-.312c.486-.382,2.5-.867,2.184.9-.208,1.283-.832,1.318-1.006,2.011s.347.243.659-.242c.312-.521,1.005-2.635,2.427-1.04.347.381.208,1.04-.208,1.768a1.3,1.3,0,0,0,.174,1.56c.277.451.866,2.358-1.283,2.462" transform="translate(-435.501 -682.016)"/><path class="i" d="M493.162,747.549a8.194,8.194,0,0,1-1.734-.173,9.1,9.1,0,0,1-1.665,3.19c-.069.139-.555.139-.763-.034s-.832-.485-.347-1.005,1.248-1.6,1.11-2.081-.485-.9-1.005-.243-1.352,1.977-2.254,2.011-1.8-.763-1.387-1.6.555-1.248-.035-1.976-.381-1.665.9-2.254a1.754,1.754,0,0,1,1.561.381c.485.382.728,0,.069-.381a2.137,2.137,0,0,1-1.248-1.734c-.069-.832.416-1.664,1.56-1.213a2.021,2.021,0,0,0,2.289-.312c.486-.382,2.5-.867,2.184.9-.208,1.283-.832,1.318-1.006,2.011s.347.243.659-.242c.312-.521,1.005-2.635,2.427-1.04.347.381.208,1.04-.208,1.768a1.3,1.3,0,0,0,.174,1.56C494.723,745.538,495.312,747.445,493.162,747.549Z" transform="translate(-435.501 -682.016)"/><path class="d" d="M493.305,672.781c.59.069,1.214.034,1.387-.382.139-.416.035-.659-.173-.763-.208-.069-.277-.069-.208-.45s.381-.347.347-.936-.485-.624-.867-.486c-.416.139-.555.312-.936.832s-.208-.347-.139-.485.208-1.145-.312-1.318c-.312.139-.589.312-.867.45a3.374,3.374,0,0,0-.242.624c-.208.555-.485.139-.659-.139h0c-.589.313-1.075.624-1.456.867a.263.263,0,0,1-.139.069,1.725,1.725,0,0,0,.693.936c.278.208.1.555-.242.555s-.763-.243-1.213.277c-.416.52-.139,1.005.242,1.005a.823.823,0,0,1,.9.624c.139.485.278.658.832.728a1.136,1.136,0,0,0,1.04-.623c.139-.243.347-.624.589-.555.347.139.312.485.208.9.416-.243.832-.451,1.248-.694a1.87,1.87,0,0,0-.451-.867c-.208-.138-.139-.242.416-.173" transform="translate(-436.442 -661.789)"/><path class="m" d="M493.305,672.781c.59.069,1.214.034,1.387-.382.139-.416.035-.659-.173-.763-.208-.069-.277-.069-.208-.45s.381-.347.347-.936-.485-.624-.867-.486c-.416.139-.555.312-.936.832s-.208-.347-.139-.485.208-1.145-.312-1.318c-.312.139-.589.312-.867.45a3.374,3.374,0,0,0-.242.624c-.208.555-.485.139-.659-.139h0c-.589.313-1.075.624-1.456.867a.263.263,0,0,1-.139.069,1.725,1.725,0,0,0,.693.936c.278.208.1.555-.242.555s-.763-.243-1.213.277c-.416.52-.139,1.005.242,1.005a.823.823,0,0,1,.9.624c.139.485.278.658.832.728a1.136,1.136,0,0,0,1.04-.623c.139-.243.347-.624.589-.555.347.139.312.485.208.9.416-.243.832-.451,1.248-.694a1.87,1.87,0,0,0-.451-.867C492.681,672.815,492.751,672.711,493.305,672.781Z" transform="translate(-436.442 -661.789)"/><path class="d" d="M501.18,665.641a4.17,4.17,0,0,0-.624.173c.1.485.312,1.11.208,1.214a5.031,5.031,0,0,1-1.005.312c-.382.1-1.318.971-.832,1.595a3.941,3.941,0,0,1,.728,1.318.818.818,0,0,0,1.387.069c.555-.659.936-1.353,1.075-.9a6.245,6.245,0,0,1,0,1.8c.1-.034.208-.034.347-.069a8.524,8.524,0,0,0-1.283-5.513" transform="translate(-439.497 -660.891)"/><path class="m" d="M501.18,665.641a4.17,4.17,0,0,0-.624.173c.1.485.312,1.11.208,1.214a5.031,5.031,0,0,1-1.005.312c-.382.1-1.318.971-.832,1.595a3.941,3.941,0,0,1,.728,1.318.818.818,0,0,0,1.387.069c.555-.659.936-1.353,1.075-.9a6.245,6.245,0,0,1,0,1.8c.1-.034.208-.034.347-.069A8.524,8.524,0,0,0,501.18,665.641Z" transform="translate(-439.497 -660.891)"/><path class="d" d="M483.9,680.131c-.312-.243-.381-.589-.034-.728a11.144,11.144,0,0,0,1.768-.59c.9-.381.416-1.04.035-1.213-.416-.174-.451-.555-.416-.971s-.069-1.005-.867-.694-.52,1.075-.763,1.352c-.242.243-.381.174-.312-.208a.791.791,0,0,0-.485-.728,3.106,3.106,0,0,0-.763-.173,14.541,14.541,0,0,0-2.149,2.288,1.476,1.476,0,0,0,.589.624.623.623,0,0,1,.52.659c0,.381-.832.381-1.386.415a6.576,6.576,0,0,0,1.317,2.358c.139-.034.278-.1.486-.173.659-.277.867-1.283,1.006-1.595.1-.313.381-.243.589.138a2.283,2.283,0,0,1,.208.763c.381-.382.763-.729,1.11-1.075a2.767,2.767,0,0,0-.451-.45" transform="translate(-434.036 -663.799)"/><path class="m" d="M483.9,680.131c-.312-.243-.381-.589-.034-.728a11.144,11.144,0,0,0,1.768-.59c.9-.381.416-1.04.035-1.213-.416-.174-.451-.555-.416-.971s-.069-1.005-.867-.694-.52,1.075-.763,1.352c-.242.243-.381.174-.312-.208a.791.791,0,0,0-.485-.728,3.106,3.106,0,0,0-.763-.173,14.541,14.541,0,0,0-2.149,2.288,1.476,1.476,0,0,0,.589.624.623.623,0,0,1,.52.659c0,.381-.832.381-1.386.415a6.576,6.576,0,0,0,1.317,2.358c.139-.034.278-.1.486-.173.659-.277.867-1.283,1.006-1.595.1-.313.381-.243.589.138a2.283,2.283,0,0,1,.208.763c.381-.382.763-.729,1.11-1.075A2.767,2.767,0,0,0,483.9,680.131Z" transform="translate(-434.036 -663.799)"/><path class="d" d="M500.3,715.72c.139-.035-.208-1.561.069-1.63s.415.832,1.005.729.763-.693.659-1.387c-.069-.659.313-.312.59-.763.312-.485-.347-1.11-1.075-.659s-.589-.139-.208-.382.1-1.109-.728-.831c-.589.208-.9-.174-1.179-.347a5.283,5.283,0,0,0-.658.278,1.735,1.735,0,0,0,.034.589c.069.277.208,1.005-.242.693-.382-.277-.937-.416-1.075.1-.139.486.138.555.1.832-.035.312-.832.382-.45,1.006s.9.277,1.283.034.694.035.589.381a5.932,5.932,0,0,0-.312,1.665c.173.1.347.243.555.382a1.745,1.745,0,0,1,1.04-.694" transform="translate(-438.999 -673.661)"/><path class="m" d="M500.3,715.72c.139-.035-.208-1.561.069-1.63s.415.832,1.005.729.763-.693.659-1.387c-.069-.659.313-.312.59-.763.312-.485-.347-1.11-1.075-.659s-.589-.139-.208-.382.1-1.109-.728-.831c-.589.208-.9-.174-1.179-.347a5.283,5.283,0,0,0-.658.278,1.735,1.735,0,0,0,.034.589c.069.277.208,1.005-.242.693-.382-.277-.937-.416-1.075.1-.139.486.138.555.1.832-.035.312-.832.382-.45,1.006s.9.277,1.283.034.694.035.589.381a5.932,5.932,0,0,0-.312,1.665c.173.1.347.243.555.382A1.745,1.745,0,0,1,500.3,715.72Z" transform="translate(-438.999 -673.661)"/><path class="d" d="M483.6,714.393c.312-.069.936.59,1.491.208s-.242-.762-.139-1.109c.1-.312.382-.936-.034-1.248-.382-.312-.8-.035-1.214.416s-.277-.416-.034-.763c.277-.486,0-.8-.486-.867s-.624.589-.936.277c-.521-.485-1.318-.277-1.11.382s.416.867,0,.971c-.416.069-.8-1.006-1.283-.139s.277,1.11.208,1.768.208,1.352.589,1.387c.381.069.8-.382,1.005-.624s.729-.451.659.034c-.035.347-.069,1.04-.069,1.456a18.393,18.393,0,0,1,2.115-.936c.034,0,.034,0,.069-.035a4.418,4.418,0,0,1-.8-.416c-.415-.278-.346-.694-.034-.763" transform="translate(-434.055 -673.825)"/><path class="m" d="M483.6,714.393c.312-.069.936.59,1.491.208s-.242-.762-.139-1.109c.1-.312.382-.936-.034-1.248-.382-.312-.8-.035-1.214.416s-.277-.416-.034-.763c.277-.486,0-.8-.486-.867s-.624.589-.936.277c-.521-.485-1.318-.277-1.11.382s.416.867,0,.971c-.416.069-.8-1.006-1.283-.139s.277,1.11.208,1.768.208,1.352.589,1.387c.381.069.8-.382,1.005-.624s.729-.451.659.034c-.035.347-.069,1.04-.069,1.456a18.393,18.393,0,0,1,2.115-.936c.034,0,.034,0,.069-.035a4.418,4.418,0,0,1-.8-.416C483.222,714.878,483.291,714.462,483.6,714.393Z" transform="translate(-434.055 -673.825)"/><path class="d" d="M471.3,740.682c1.005-.312,1.04.485.9,1.109a11.714,11.714,0,0,0-.069,2.7l1.63.069a19.556,19.556,0,0,1,.035-2.427c.034-.728.763-1.837,1.04-.728a1.329,1.329,0,0,0,2.15.694,7.931,7.931,0,0,0,2.15-2.982c.832-1.457-.243-1.838-.9-1.768s-1.283.173.173-1.04c1.353-1.11-.936-1.7-1.976-1.907-1.734,1.838-3.883,3.883-5.756,5.513-.242.208-.485.416-.694.59a1.285,1.285,0,0,0,1.318.173" transform="translate(-431.286 -680.489)"/><path class="m" d="M471.3,740.682c1.005-.312,1.04.485.9,1.109a11.714,11.714,0,0,0-.069,2.7l1.63.069a19.556,19.556,0,0,1,.035-2.427c.034-.728.763-1.837,1.04-.728a1.329,1.329,0,0,0,2.15.694,7.931,7.931,0,0,0,2.15-2.982c.832-1.457-.243-1.838-.9-1.768s-1.283.173.173-1.04c1.353-1.11-.936-1.7-1.976-1.907-1.734,1.838-3.883,3.883-5.756,5.513-.242.208-.485.416-.694.59A1.285,1.285,0,0,0,471.3,740.682Z" transform="translate(-431.286 -680.489)"/><path class="d" d="M467.632,755.57c.832-.242,1.353,1.526,2.531.485,1.214-1.04.347-1.907.312-2.774s.936-1.213.659-2.288c-.45-1.63-1.976-.069-2.912.832s-1.006.173-.035-1.284c.937-1.456-.589-1.941-1.56-1.56a2.045,2.045,0,0,1-2.115-.416c-.347.59-.624,1.11-.9,1.665-.832,1.7-.242,1.734.347,1.734s1.907,2.531,2.081,3.017c.069.173.52.8,1.074,1.629a.893.893,0,0,1,.52-1.04" transform="translate(-429.353 -684.524)"/><path class="m" d="M467.632,755.57c.832-.242,1.353,1.526,2.531.485,1.214-1.04.347-1.907.312-2.774s.936-1.213.659-2.288c-.45-1.63-1.976-.069-2.912.832s-1.006.173-.035-1.284c.937-1.456-.589-1.941-1.56-1.56a2.045,2.045,0,0,1-2.115-.416c-.347.59-.624,1.11-.9,1.665-.832,1.7-.242,1.734.347,1.734s1.907,2.531,2.081,3.017c.069.173.52.8,1.074,1.629A.893.893,0,0,1,467.632,755.57Z" transform="translate(-429.353 -684.524)"/><path class="d" d="M486.415,741.7c-.069-.832.416-1.665,1.561-1.213a2.021,2.021,0,0,0,2.288-.312c.485-.381,2.5-.867,2.184.9-.208,1.283-.832,1.352-1.005,2.011-.174.694.347.242.659-.243.312-.52,1.006-2.635,2.427-1.04.347.382.208,1.04-.208,1.769a1.3,1.3,0,0,0,.173,1.56c.243.381.867,2.288-1.283,2.427a8.208,8.208,0,0,1-1.734-.173,9.106,9.106,0,0,1-1.664,3.19c-.069.139-.555.139-.763-.034s-.832-.486-.347-1.005,1.248-1.6,1.11-2.08-.485-.9-1.006-.243-1.352,1.977-2.254,2.011-1.8-.763-1.387-1.595.555-1.248-.034-1.976-.381-1.665.9-2.254a1.752,1.752,0,0,1,1.56.382c.485.381.728,0,.069-.382a2.172,2.172,0,0,1-1.248-1.7" transform="translate(-435.515 -682.03)"/><path class="m" d="M486.415,741.7c-.069-.832.416-1.665,1.561-1.213a2.021,2.021,0,0,0,2.288-.312c.485-.381,2.5-.867,2.184.9-.208,1.283-.832,1.352-1.005,2.011-.174.694.347.242.659-.243.312-.52,1.006-2.635,2.427-1.04.347.382.208,1.04-.208,1.769a1.3,1.3,0,0,0,.173,1.56c.243.381.867,2.288-1.283,2.427a8.208,8.208,0,0,1-1.734-.173,9.106,9.106,0,0,1-1.664,3.19c-.069.139-.555.139-.763-.034s-.832-.486-.347-1.005,1.248-1.6,1.11-2.08-.485-.9-1.006-.243-1.352,1.977-2.254,2.011-1.8-.763-1.387-1.595.555-1.248-.034-1.976-.381-1.665.9-2.254a1.752,1.752,0,0,1,1.56.382c.485.381.728,0,.069-.382A2.172,2.172,0,0,1,486.415,741.7Z" transform="translate(-435.515 -682.03)"/><path class="d" d="M501.36,734.227c-.762-.174-1.768-.312-1.907,1.283-.034.589.555,1.075,1.11,1.283s.485.59-.139.382c-.589-.208-1.075-.347-1.491.9s.347,1.421.728,1.491.694.173.59.694c-.069.52-.347,2.01.659,2.149s1.838-1.075,2.15-1.664.658-1.214.728-.521a2.722,2.722,0,0,1-.381,1.8c-.347.763-.347,1.11.173,1.075s1.387,0,1.629-.589a9.15,9.15,0,0,0,.694-2.6c.035-.52.486-.555.8-.555.1-.866.242-1.734.347-2.462-1.7.242-3.121-1.8-3.641-3.606a2.145,2.145,0,0,1-2.046.937" transform="translate(-439.503 -680.17)"/><path class="m" d="M501.36,734.227c-.762-.174-1.768-.312-1.907,1.283-.034.589.555,1.075,1.11,1.283s.485.59-.139.382c-.589-.208-1.075-.347-1.491.9s.347,1.421.728,1.491.694.173.59.694c-.069.52-.347,2.01.659,2.149s1.838-1.075,2.15-1.664.658-1.214.728-.521a2.722,2.722,0,0,1-.381,1.8c-.347.763-.347,1.11.173,1.075s1.387,0,1.629-.589a9.15,9.15,0,0,0,.694-2.6c.035-.52.486-.555.8-.555.1-.866.242-1.734.347-2.462-1.7.242-3.121-1.8-3.641-3.606A2.145,2.145,0,0,1,501.36,734.227Z" transform="translate(-439.503 -680.17)"/><path class="d" d="M490.5,731.5c-.312.52-1.179,1.976-.763,2.462.381.485.832-.486,1.179-.139s1.11.728,1.11.486a9.256,9.256,0,0,1,.208-1.456c.138-.693.415-1.075.728-.52a1.383,1.383,0,0,0,1.8.763c1.075-.243.936-1.387.728-2.185-.208-.832.555-1.213.936-1.422s1.387-1.005.659-1.664c-.729-.693-1.387.313-2.011.416-.658.139-.381-.416.936-1.456,1.145-.9.174-1.769-.52-2.081-1.837,1.873-5.132,4.889-5.86,5.582a4.769,4.769,0,0,0-.693.9c1.733-.867,1.837-.173,1.56.312" transform="translate(-436.69 -677.724)"/><path class="m" d="M490.5,731.5c-.312.52-1.179,1.976-.763,2.462.381.485.832-.486,1.179-.139s1.11.728,1.11.486a9.256,9.256,0,0,1,.208-1.456c.138-.693.415-1.075.728-.52a1.383,1.383,0,0,0,1.8.763c1.075-.243.936-1.387.728-2.185-.208-.832.555-1.213.936-1.422s1.387-1.005.659-1.664c-.729-.693-1.387.313-2.011.416-.658.139-.381-.416.936-1.456,1.145-.9.174-1.769-.52-2.081-1.837,1.873-5.132,4.889-5.86,5.582a4.769,4.769,0,0,0-.693.9C490.676,730.324,490.78,731.018,490.5,731.5Z" transform="translate(-436.69 -677.724)"/><path class="d" d="M503.247,755.668c.555.521,1.907,1.248,2.844.382s-.208-1.8-.347-2.5.694-1.11.242-2.254c-.763-1.942-1.837.382-2.5,1.04s-.554-.45.035-1.04c.312-.312,1.63-1.11.867-2.011s-1.907-.382-2.462,0-1.005.867-1.838.589c-.867-.243-1.6-.347-2.115.9s.486.9,1.283,1.8c.832.9.312.936-.347.729s-.936-1.04-1.907-.9c-.936.139-.936,1.629-.659,2.011.312.381.9.589.486,1.352-.416.728.208,1.6,1.005,1.942.763.347,1.942-1.04,2.358-1.595s.867-.416.762,0a16.352,16.352,0,0,0-.312,2.15c.658-.208,1.318-.416,1.942-.59a8.747,8.747,0,0,0-.278-1.873c-.243-.9.381-.658.936-.139" transform="translate(-438.754 -684.588)"/><path class="m" d="M503.247,755.668c.555.521,1.907,1.248,2.844.382s-.208-1.8-.347-2.5.694-1.11.242-2.254c-.763-1.942-1.837.382-2.5,1.04s-.554-.45.035-1.04c.312-.312,1.63-1.11.867-2.011s-1.907-.382-2.462,0-1.005.867-1.838.589c-.867-.243-1.6-.347-2.115.9s.486.9,1.283,1.8c.832.9.312.936-.347.729s-.936-1.04-1.907-.9c-.936.139-.936,1.629-.659,2.011.312.381.9.589.486,1.352-.416.728.208,1.6,1.005,1.942.763.347,1.942-1.04,2.358-1.595s.867-.416.762,0a16.352,16.352,0,0,0-.312,2.15c.658-.208,1.318-.416,1.942-.59a8.747,8.747,0,0,0-.278-1.873C502.068,754.906,502.692,755.148,503.247,755.668Z" transform="translate(-438.754 -684.588)"/><path class="d" d="M481.267,755.648a4.214,4.214,0,0,0,2.67-.832c.763-.555,2.808-.243,1.976,1.179s-.555,1.733-.07,1.213,1.075-1.456,1.976-1.213.521.936-.034,1.733a1.025,1.025,0,0,0,.208,1.6c.416.312,1.213,1.942-1.179,2.636-1.04.311-1.213-.174-1.907-.417s-.729.347-.243,1.075,1.006,1.421.416,1.421c-.555,0-1.005.1-1.075.521s-1.005-.069-1.213-1.006c-.208-.9-.416-2.635-.9-1.768s-.9,2.288-2.115,1.629-.382-1.491-1.006-2.115a1.882,1.882,0,0,1-.555-2.462c.59-1.075,1.11-.173,1.665-.173s.659-.52.139-.9c-.45-.416-1.11-2.254,1.249-2.115" transform="translate(-433.557 -686.232)"/><path class="m" d="M481.267,755.648a4.214,4.214,0,0,0,2.67-.832c.763-.555,2.808-.243,1.976,1.179s-.555,1.733-.07,1.213,1.075-1.456,1.976-1.213.521.936-.034,1.733a1.025,1.025,0,0,0,.208,1.6c.416.312,1.213,1.942-1.179,2.636-1.04.311-1.213-.174-1.907-.417s-.729.347-.243,1.075,1.006,1.421.416,1.421c-.555,0-1.005.1-1.075.521s-1.005-.069-1.213-1.006c-.208-.9-.416-2.635-.9-1.768s-.9,2.288-2.115,1.629-.382-1.491-1.006-2.115a1.882,1.882,0,0,1-.555-2.462c.59-1.075,1.11-.173,1.665-.173s.659-.52.139-.9C479.568,757.347,478.909,755.509,481.267,755.648Z" transform="translate(-433.557 -686.232)"/><path class="h" d="M493.576,713.893c-.242.693-.589,1.56-.762,1.976s-.971.277-.9-.035c.139-.659-.8-.208-.694-.728.069-.416-.069-1.11.381-1.11.486,0,1.387-.1,1.976-.1" transform="translate(-437.336 -674.642)"/><path class="i" d="M493.576,713.893c-.242.693-.589,1.56-.762,1.976s-.971.277-.9-.035c.139-.659-.8-.208-.694-.728.069-.416-.069-1.11.381-1.11C492.085,714,492.987,713.893,493.576,713.893Z" transform="translate(-437.336 -674.642)"/><path class="h" d="M492.269,670.047a3.312,3.312,0,0,1,.243-.624c-.312.174-.624.312-.9.485.173.243.451.694.659.139" transform="translate(-437.45 -661.969)"/><path class="h" d="M500.754,669.441c-.139-.45-.555.243-1.075.9a.814.814,0,0,1-1.387-.069,3.4,3.4,0,0,0-.729-1.318c-.485-.624.451-1.491.832-1.594a5.006,5.006,0,0,0,1.006-.312c.1-.1-.069-.728-.174-1.213a32.251,32.251,0,0,0-5.1,2.08c.521.208.347,1.179.313,1.318-.069.139-.243,1.006.139.485s.555-.693.936-.832c.416-.139.867-.1.867.485.034.59-.243.555-.347.937-.069.381,0,.381.208.45s.312.347.173.763-.8.45-1.387.381-.659.035-.45.208a1.712,1.712,0,0,1,.45.867,22.5,22.5,0,0,1,5.721-1.769,6.043,6.043,0,0,0,0-1.768" transform="translate(-438.169 -660.946)"/><path class="h" d="M483.493,682.625c-.208-.381-.485-.45-.59-.139s-.312,1.318-1.005,1.6a2.263,2.263,0,0,1-.521.174,5.237,5.237,0,0,0,.8.693c.52-.554,1.005-1.075,1.491-1.525a1.392,1.392,0,0,0-.173-.8" transform="translate(-434.534 -665.636)"/><path class="h" d="M490.412,674.394c-.243-.069-.416.277-.59.52a1.1,1.1,0,0,1-1.04.624c-.555-.07-.694-.242-.832-.728a.823.823,0,0,0-.9-.624c-.416,0-.694-.485-.243-1.005.416-.521.867-.277,1.213-.277s.521-.382.243-.555a1.961,1.961,0,0,1-.694-.936,41.083,41.083,0,0,0-4.542,3.433,3.552,3.552,0,0,1,.763.173.7.7,0,0,1,.485.728c-.034.382.069.485.312.208.243-.242-.034-1.04.763-1.352s.9.312.867.694c-.035.416,0,.8.416.971s.867.832-.035,1.214a11.137,11.137,0,0,1-1.768.59c-.382.1-.277.485.034.693a4.821,4.821,0,0,1,.416.382,31.346,31.346,0,0,1,3.433-2.739c.659-.451,1.283-.867,1.907-1.213.1-.312.139-.659-.207-.8" transform="translate(-435.004 -662.535)"/><path class="h" d="M480.908,680.7a.65.65,0,0,0-.52-.659c-.173-.034-.45-.347-.589-.624a4.587,4.587,0,0,0-.555.867c.1.277.173.554.277.8.52,0,1.352-.035,1.387-.381" transform="translate(-433.926 -664.816)"/><path class="h" d="M505.082,709.326a11.583,11.583,0,0,0-4.681.8c.277.173.59.554,1.145.347.832-.278,1.109.589.728.831s-.52.832.208.382,1.387.208,1.075.658c-.312.486-.694.1-.589.763.069.658-.069,1.283-.659,1.387s-.728-.8-1.005-.729.069,1.6-.069,1.63a2.246,2.246,0,0,0-1.04.659.034.034,0,0,1,.035.035c2.357,1.7,2.982.762,3.328-.035a33.578,33.578,0,0,0,1.352-4.507,12.463,12.463,0,0,0,.174-2.219" transform="translate(-439.896 -673.335)"/><path class="h" d="M498.358,714.43c.139-.313-.208-.589-.589-.381-.382.242-.9.589-1.283-.035s.416-.694.45-1.005-.242-.347-.1-.832.693-.347,1.075-.1c.45.312.312-.416.242-.694a1.734,1.734,0,0,1-.034-.589,10.114,10.114,0,0,0-1.352.728c-2.22,1.353-2.289,2.5-1.769,2.947.451.382,1.422.555,3.017,1.63a7.27,7.27,0,0,1,.347-1.664" transform="translate(-438.339 -673.758)"/><path class="h" d="M486.823,712.6a6.238,6.238,0,0,1-2.427-2.636s.035-.173-.208-.173a9.039,9.039,0,0,1-2.809-.659c-1.594-.555-1.8-.208-2.01.486a16.234,16.234,0,0,0-.416,4.022c-.035,2.081.867,3.363,1.421,3.155.277-.1.971-.45,1.734-.832,0-.416.034-1.11.069-1.456.069-.486-.451-.313-.659-.035-.208.243-.624.694-1.005.624s-.659-.763-.589-1.387c.069-.659-.694-.9-.208-1.768s.867.208,1.283.139.208-.312,0-.971.624-.867,1.11-.381c.312.312.485-.381.936-.277.485.1.763.416.485.9-.208.381-.381,1.213.034.763s.832-.729,1.214-.416.139.936.034,1.249.693.728.139,1.109-1.179-.277-1.491-.208-.381.486.034.763a4.96,4.96,0,0,0,.8.451,14.164,14.164,0,0,0,2.288-1.109l.555.034c0-.8-.069-1.248-.312-1.386" transform="translate(-433.843 -673.206)"/><path class="h" d="M479.667,727.193c-.346-.763-.45-.174-1.421,1.317a31.476,31.476,0,0,1-3.225,3.779c1.075.208,3.329.763,1.976,1.907-1.456,1.214-.832,1.11-.173,1.04s1.734.312.9,1.769-1.387,2.5-2.15,2.982a1.329,1.329,0,0,1-2.15-.694c-.242-1.11-1.005,0-1.04.729a14.488,14.488,0,0,0-.035,2.427l-1.629-.069a17.307,17.307,0,0,1,.069-2.7c.139-.659.1-1.422-.9-1.109a1.543,1.543,0,0,1-1.318-.1,16.753,16.753,0,0,0-3.536,3.953,1.978,1.978,0,0,0,2.115.416c.936-.382,2.5.069,1.56,1.56-.936,1.456-.9,2.184.035,1.283s2.462-2.462,2.947-.832c.312,1.076-.694,1.421-.659,2.289s.9,1.734-.312,2.773-1.734-.728-2.531-.485a.874.874,0,0,0-.555,1.006c1.075,1.526,2.635,3.675,3.19,4.577.867,1.421.867,3.155,1.214,2.878.347-.242,1.179-1.04,1.421-1.248a.847.847,0,0,0,.381-.936,18.4,18.4,0,0,1-.486-4.785,15.633,15.633,0,0,1,1.8-5.513c.659-1.214,2.67-5.132,3.155-6.172a20.7,20.7,0,0,0,1.56-3.19c.208-.937,1.04-3.156,1.387-4.2a22.758,22.758,0,0,0-1.6-4.646" transform="translate(-429.876 -678.338)"/><path class="h" d="M502.038,740.3a8.113,8.113,0,0,1-1.491-4.472,22.582,22.582,0,0,1,.174-4.231c-.347-.034-.763.035-.8.555a8.407,8.407,0,0,1-.694,2.6c-.242.59-1.109.555-1.629.59s-.52-.312-.173-1.075a2.718,2.718,0,0,0,.381-1.8c-.1-.693-.416-.069-.728.52s-1.179,1.8-2.15,1.664c-1.005-.139-.728-1.63-.659-2.15s-.208-.589-.59-.693c-.381-.07-1.179-.243-.728-1.525.416-1.248.9-1.109,1.491-.9s.694-.174.139-.382-1.179-.693-1.11-1.283c.1-1.6,1.11-1.457,1.907-1.283a2.507,2.507,0,0,0,2.116-.867c0-.034-.035-.069-.035-.1-1.144-4.369,1.04-9.778,1.629-11.269a64.708,64.708,0,0,1,3.745-7.038c-.416-.208-1.561-.8-2.184-1.109s-.971-.486-1.145-.243-.381.381-.694.8c-.589.867-.069.728.069.728.174,0,.9.937,1.04,1.179.139.208,0,.382-.312,1.075-.382.9-.659,2.982-1.006,4.23-1.04,3.779-2.67,3.4-3.4,2.912s-.936.243-1.7,1.283a14,14,0,0,1-1.179,1.283c.694.312,1.664,1.213.52,2.115-1.352,1.04-1.595,1.6-.936,1.456s1.283-1.109,2.011-.416-.243,1.457-.659,1.7c-.381.208-1.178.59-.936,1.422.208.832.347,1.942-.728,2.185a1.412,1.412,0,0,1-1.8-.763c-.312-.555-.59-.174-.728.52a9.275,9.275,0,0,0-.208,1.456c0,.242-.763-.139-1.11-.485s-.763.589-1.179.139c-.382-.485.486-1.942.763-2.462.277-.485.173-1.179-1.56-.382a24.912,24.912,0,0,0-1.7,4.369,46,46,0,0,1-3.988,8.252,14.4,14.4,0,0,0-2.392,9.466c.347,2.184.659,2.011,1.11,2.011.486,0,1.63,1.457,2.427,2.358.763.9,1.075.52,1.457.208a40.754,40.754,0,0,1,7.281-4.265,42.1,42.1,0,0,1,5.478-2.115,15.573,15.573,0,0,1,.312-2.15c.069-.416-.347-.555-.763,0s-1.6,1.942-2.358,1.6-1.421-1.214-1.005-1.942-.173-.936-.485-1.318-.312-1.907.659-2.011c.936-.138,1.248.693,1.907.9s1.179.174.347-.728-1.8-.555-1.284-1.8,1.248-1.179,2.116-.9c.867.243,1.283-.208,1.838-.589a1.809,1.809,0,0,1,2.462,0c.763.9-.555,1.734-.867,2.011-.589.589-.693,1.664-.034,1.04s1.734-2.982,2.5-1.04c.416,1.109-.382,1.56-.243,2.254s1.283,1.629.347,2.5-2.289.139-2.843-.381-1.179-.763-.9.173a6.967,6.967,0,0,1,.277,1.873,15.819,15.819,0,0,1,4.369-.763c1.213.1,2.15.485,2.115-.659-.173-1.179-.763-1.976-1.873-3.815" transform="translate(-433.455 -672.302)"/><path class="n" d="M486.863,761.91c-1.04.312-1.213-.173-1.907-.416s-.728.347-.242,1.075,1.005,1.421.416,1.421c-.555,0-1.006.069-1.075.52s-1.005-.069-1.213-1.005c-.208-.9-.416-2.635-.9-1.768s-.9,2.288-2.115,1.629-.381-1.49-1.005-2.115a1.882,1.882,0,0,1-.555-2.462c.589-1.075,1.11-.173,1.7-.173.555,0,.658-.52.139-.9s-1.179-2.254,1.213-2.115a4.2,4.2,0,0,0,2.67-.832c.763-.555,2.809-.242,1.976,1.179s-.554,1.734-.069,1.213,1.075-1.456,1.976-1.213.52.936-.035,1.734a1.024,1.024,0,0,0,.208,1.6c.416.312,1.213,1.941-1.179,2.635" transform="translate(-433.571 -686.218)"/><path class="n" d="M493.162,747.549a8.194,8.194,0,0,1-1.734-.173,9.1,9.1,0,0,1-1.665,3.19c-.069.139-.555.139-.763-.034s-.832-.485-.347-1.005,1.248-1.6,1.11-2.081-.485-.9-1.005-.243-1.352,1.977-2.254,2.011-1.8-.763-1.387-1.6.555-1.248-.035-1.976-.381-1.665.9-2.254a1.754,1.754,0,0,1,1.561.381c.485.382.728,0,.069-.381a2.137,2.137,0,0,1-1.248-1.734c-.069-.832.416-1.664,1.56-1.213a2.021,2.021,0,0,0,2.289-.312c.486-.382,2.5-.867,2.184.9-.208,1.283-.832,1.318-1.006,2.011s.347.243.659-.242c.312-.521,1.005-2.635,2.427-1.04.347.381.208,1.04-.208,1.768a1.3,1.3,0,0,0,.174,1.56c.277.451.866,2.358-1.283,2.462" transform="translate(-435.501 -682.016)"/><path class="a" d="M544.915,700.251l1.318-.936,2.843,4.23,1.7-1.179-2.947-4.161,1.283-.9,3.121,4.369,1.7-1.179-4.646-6.484-7.628,5.409,4.2,5.964,1.7-1.179Z" transform="translate(-451.713 -668.976)"/><path class="a" d="M552.861,719.445l2.5-1.144-1.7-3.745,5.825-2.427-1.04-2.358-8.252,3.606Z" transform="translate(-454.146 -673.468)"/><path class="a" d="M556.01,727.157l.277,2.288,5.548-.624.208,2.392,2.462-.173-.659-8.079-2.5.174.208,3.363Z" transform="translate(-455.804 -677.227)"/><path class="a" d="M556.4,739.823l.035,2.739,8.148-.034-.034-2.739Z" transform="translate(-455.915 -682.023)"/><path class="a" d="M559.4,749.057a5.3,5.3,0,0,0-4.126.832,4.34,4.34,0,0,0-1.768,2.947,6.869,6.869,0,0,0,.277,3.086l2.15-.728a2.99,2.99,0,0,1-.07-2.011,2.593,2.593,0,0,1,3.086-1.907A2.693,2.693,0,0,1,561.1,754.6a2.439,2.439,0,0,1-1.213,1.733l1.318,1.6a4.955,4.955,0,0,0,2.08-2.878,5.043,5.043,0,0,0-.8-3.883,4.228,4.228,0,0,0-3.086-2.115" transform="translate(-455.069 -684.633)"/><path class="a" d="M556.413,764.55c-1.145-.278-2.7.971-3.433,1.664-.416.416-1.942,1.942-2.635,1.7-.624-.208-.416-1.145-.208-1.769a4.045,4.045,0,0,1,1.491-2.149l-1.353-.59a5.792,5.792,0,0,0-1.7,2.323,6.714,6.714,0,0,0-.347,2.982c.174.971.52,1.629,1.629,1.526.867-.069,3.017-1.491,4.265-2.635.624-.589,1.179-.659,1.457-.52.45.242.416,1.04.277,1.526a4.3,4.3,0,0,1-1.04,2.011l1.837,1.248a5.764,5.764,0,0,0,1.352-2.947c.52-2.636-.867-4.2-1.594-4.369" transform="translate(-453.572 -688.753)"/><path class="a" d="M541.481,687.594a6.235,6.235,0,0,0-1.56-3.329,4.7,4.7,0,0,0-3.779-1.04,5.2,5.2,0,0,0-3.433,2.115,5.385,5.385,0,0,0-.936,4.092,4.2,4.2,0,0,0,1.976,2.809,7.465,7.465,0,0,0,2.912,1.04l.243-2.255a3.05,3.05,0,0,1-1.872-.762,2.685,2.685,0,0,1-.486-3.606,2.772,2.772,0,0,1,3.953-.589,2.376,2.376,0,0,1,.9,1.872Z" transform="translate(-448.868 -665.888)"/><path class="a" d="M426.71,753.242c.069-.624.034-1.734.693-1.872s1.075.485,1.214,1.144a3.56,3.56,0,0,1,.069,2.463l1.733-.174a5.5,5.5,0,0,0,0-2.809,4.135,4.135,0,0,0-1.352-2.5,2.433,2.433,0,0,0-2.427-.624c-.659.139-1.873,1.352-1.908,3.745,0,.45-.1,1.318-.52,1.352-.52.035-.9-.589-1.005-1.109a5.887,5.887,0,0,1,.312-2.7h-1.8a8.137,8.137,0,0,0-.139,3.536c.485,2.358,1.908,3.121,3.052,2.982,1.248-.174,1.907-1.457,2.081-3.433" transform="translate(-417.452 -684.588)"/><path class="a" d="M422.875,739.3l6.449-.069-.035-2.011-6.449.069v-2.739l-2.08.035.1,7.663,2.046-.035Z" transform="translate(-417.258 -680.53)"/><path class="a" d="M436.3,708.949l-4.958-2.878h.035l6.553-.1,1.56-2.427-8.079-4.681-1.248,1.907,5.548,3.467-7.559.208-1.04,2.046,7.975,4.612Z" transform="translate(-419.068 -670.358)"/><path class="a" d="M426.723,726.158a4.993,4.993,0,1,0-4.994-4.993,4.994,4.994,0,0,0,4.994,4.993m0-7.558a2.6,2.6,0,1,1-2.6,2.6,2.6,2.6,0,0,1,2.6-2.6" transform="translate(-417.534 -675.292)"/><path class="a" d="M436.225,766.992a4.993,4.993,0,1,0-4.993,4.993,4.994,4.994,0,0,0,4.993-4.993m-4.993,2.6a2.6,2.6,0,1,1,2.6-2.6,2.62,2.62,0,0,1-2.6,2.6" transform="translate(-418.82 -688.353)"/><path class="a" d="M439.947,776.8a2.791,2.791,0,0,0-.416,3.363,3.345,3.345,0,0,0-3.086.1c-1.8,1.56.382,3.814,2.15,5.582l2.5,2.462,6.623-5.479-2.67-3.12c-.971-1.144-3.571-4.265-5.1-2.913m.277,8.7c-.659-.8-2.636-2.323-1.768-3.12.8-.763,2.774,1.629,3.017,1.942Zm3.086-2.773-.173-.208c-.555-.659-2.393-2.635-1.63-3.329.693-.659,2.462,1.6,2.947,2.185l.208.242Z" transform="translate(-421.536 -692.476)"/></g><rect class="o" width="143" height="143"/></svg>