<svg xmlns="http://www.w3.org/2000/svg" width="200" height="200" viewBox="0 0 200 200"><defs><style>.a{fill:#fffffe;}.b{fill:#9e7c0c;}.c{fill:#241773;}.d{fill:#c60c30;}.e{fill:none;mix-blend-mode:multiply;isolation:isolate;}</style></defs><g transform="translate(-714.912 -547.656)"><path class="a" d="M907.578,660.652c-.773-4.7-3.876-11.612-14.282-17.828-.7-.42-1.441-.828-2.2-1.231l3.959-1.328-11.533-4.493c-.987-.384-2.022-.73-3.07-1.067l1.566-1.59-8.843-1.237a59.4,59.4,0,0,0-9.145-.625c-.022-.372-.051-.715-.09-1.023l-1.477-11.064L858.7,624.3a22.976,22.976,0,0,0-2.5-3.418L846.662,610.1s.381,3.169.686,5.7a57.467,57.467,0,0,0-10.256-5.691c-15.346-6.575-34.753-7.94-53.247-3.753-15.468,3.5-37.8,12.641-56.352,36.261l-10.706,13.633,16.115-6.413c.128-.051,12.568-4.9,22.6-6.308,3.742-.528,6.606-.57,4.281,4.549a79.728,79.728,0,0,1-6.039,10l-8.07,11.724,13.461-4.668a60.209,60.209,0,0,1,15.224-3.462c1.049.02,1.243.712.911,1.466a6.822,6.822,0,0,1-.876,1.513l-8.44,12.034,13.844-4.954c10.047-3.6,23.255-5.971,27.981-4.168.385.146,1.633.808.4,2.621l-5.437,8.641s8.027-1.217,9.168-1.393c.632,7.89,4.593,12.193,5.082,12.69l5.832,5.975L824.867,688c1.47-5.823,4.241-9,6.712-10.723l.475,3.325,5.407-1.948a33.941,33.941,0,0,0,10.734-5.863,120.157,120.157,0,0,1,19.838.025c13.859,1.369,23.154-.471,25.675-1.069a9.931,9.931,0,0,1,6.242.657l4.119,2.239,2.223-4.169a15.606,15.606,0,0,0,1.52-6.959,17.517,17.517,0,0,0-.234-2.868"/><path class="b" d="M906.225,661.649c-.685-4.166-3.508-10.326-13.08-16.046a56.61,56.61,0,0,0-8.153-3.934l3.39-1.139-4.656-1.814a55.875,55.875,0,0,0-7.229-2.241c.479-.486,1-1.017,1-1.017l-3.567-.5a50.355,50.355,0,0,0-11.522-.471c.021-.481.036-.99.036-1.5a16.037,16.037,0,0,0-.1-2l-.6-4.468s-2.17,2.961-2.482,3.389a21,21,0,0,0-4.041-6.889l-3.855-4.355.437,3.636a51.206,51.206,0,0,0-14.834-9.414c-14.913-6.388-33.823-7.708-51.868-3.621-15.125,3.425-36.967,12.367-55.126,35.487l-4.576,5.83,6.89-2.744c.128-.049,12.943-5.12,23.361-6.512,4.085-.542,6.9-.059,7.937,1.365.964,1.334.653,3.972-.842,7.064a102.489,102.489,0,0,1-6.276,10.4l-3.451,5.009,5.756-1.993c7.583-2.634,17.144-4.582,19.36-3.134a1.876,1.876,0,0,1,.9,1.281c.354,1.84-1.231,4.63-1.815,5.466l-3.613,5.142,5.923-2.117c9.461-3.389,26.424-7.275,31.666-3.261,2.425,1.858.16,5.53.058,5.684l-2.326,3.7,4.32-.659,2.114-.327c-.013.339-.035.682-.035,1,0,8.354,4.231,12.8,4.435,13.008l2.5,2.556.877-3.465c2.455-9.725,8.267-13.092,11.506-14.233.09.645.54,3.795.54,3.795l2.312-.834c5.669-2.044,8.843-4.286,10.586-5.969a125.647,125.647,0,0,1,21.336-.046c13.51,1.338,22.49-.437,24.922-1.014a12.6,12.6,0,0,1,8.158.9l1.778.97.955-1.787a13.13,13.13,0,0,0,1.212-5.73,14.986,14.986,0,0,0-.2-2.447" transform="translate(-0.578 -0.199)"/><path d="M893.015,647.83c-4-2.824-9.38-4.877-14.6-6.345a14.948,14.948,0,0,1,4.353-.656,49.905,49.905,0,0,0-10.09-2.58l1.216-1.09a46.955,46.955,0,0,0-12.573-.68,14.862,14.862,0,0,0,.244-5.564,8.153,8.153,0,0,1-2.473,3.472c-.231-2.779-1.12-6.8-4.141-9.529l.561,4.908c-2.661-4-7.725-9.122-17.3-13.6-26.024-12.15-71.88-7.545-97.052,24.931a60.471,60.471,0,0,1,23.35-5.211c7.105-.166,8.832,3.808,6.244,10.506a57.848,57.848,0,0,1-7.166,12.637s30.69-10.863,21,4.228c0,0,23.167-6.93,30.116,1.2,3.231,3.772-.531,9.049-.531,9.049l6.572-1.421c-2.131,8.339,1.6,13.664,1.6,13.664,2.712-10.9,12.17-13.8,15.518-14.354l.724,2.953c5.611-2.027,8.25-4.183,9.758-5.959,11.882-1.866,19.95-.271,29.109.228,13.342.728,20.238-1.593,22.441-1.579a7.611,7.611,0,0,1,3.535,1.424s5.546-9.35-10.415-20.636" transform="translate(-1.637 -0.406)"/><path class="a" d="M883.8,666c-9.238.045-17.469-2.3-28.625-.928l-3.738-3a18.755,18.755,0,0,1-2.395,4.35c1.232-2.2-.027-4.82-.549-6.1-4.6-2.441-12.119-7.113-5.729-8.638a76.712,76.712,0,0,0-31.3,2.545s14.044-9.371,41.054-4.966c-7.3-4.352-23.288-4.172-23.288-4.172,14.571-3.639,32.157,2.116,38.685,4.248l-6.084-4.394,7.686.665-4.132-3.327s16.351,1.159,26.994,8.246c12.438,7.279,10.915,14.921,10.915,14.921-2.918-6.1-24.509-10.276-49.456-13.219-6.662-.783-9.476-.348-9.2,1.205.267,1.463,4.112,4.35,7.964,5.865-2.754-2.642-.361-3.315-.361-3.315,4.379-.357,32.643,2.286,47.08,8.466A70.131,70.131,0,0,1,883.8,666Zm-82.641-14.892c-.142.09-.287.184-.429.279s-.313.216-.468.322l-.227.154c-.677.037-1.344.06-1.994.06l-5.985.344c-3.553.181-9.551.9-11.546,1.154l-.674.082c4.649-16.255,8.846-21.953,11.657-24.739,1.671-2.036,4.625-3.416,6.994-4.221a225.142,225.142,0,0,0-31.388,4.03c10.007-7.758,33.209-13.177,46.584-11.815s12.464,6.784,11.089,9.874c-1.114,2.5-6.578,5.883-11.715,6.977,5.319.693,8.331,4.794,6.426,8.888a10.022,10.022,0,0,1-.555,1.018,57.382,57.382,0,0,0-14.849,5.815c-.145.085-.287.168-.432.25-.193.112-.387.225-.578.339l-.439.261c-.18.108-.356.219-.532.328-.146.093-.773.491-.938.6Z" transform="translate(-3.379 -0.845)"/><path class="c" d="M831.876,617.476c28.9,8.616,24.524,25.177,24.524,25.177s-2.334.147-5.087-4.993c-2.6-4.851-6.437-5.473-6.437-5.473a15.241,15.241,0,0,1,6.817,1.471s-5.594-8.384-21.566-7.738c0,0,8.057.991,11.468,5.491,0,0-10.851-1.707-20.61,3.338,0,0,8.705-1.438,15.382,3.055,0,0-10.012-.748-15.507,4.95a52.577,52.577,0,0,1,15.747-.539,76.886,76.886,0,0,1,9,1.92,49.517,49.517,0,0,0-17.222.784s15.99-.179,23.288,4.172c-27.01-4.4-41.055,4.966-41.055,4.966a76.727,76.727,0,0,1,31.3-2.544c-6.389,1.524,1.132,6.2,5.729,8.638.521,1.281,1.782,3.9.55,6.1-3.021,4.139-6.4,4.98-6.4,4.98a9.671,9.671,0,0,0-.442-8.65s-1.69,5.2-9.019,8.259c-8.035,3.36-9.283,8.261-9.283,8.261s-.292-4.48,3.954-9.191a24.39,24.39,0,0,0,3-3.889l-8.984,2.459c6.026-17.5-28.757-10.461-28.757-10.461a29.407,29.407,0,0,1,7.143-6.48c.156-.106.313-.212.469-.323.141-.094.287-.188.428-.279.166-.109.331-.217.5-.322l.439-.278c.175-.108.352-.219.532-.328l.439-.261c.191-.114.385-.227.578-.339.145-.081.287-.165.432-.25a57.382,57.382,0,0,1,14.849-5.815,10.1,10.1,0,0,0,.555-1.018c1.9-4.094-1.107-8.2-6.426-8.888,5.137-1.093,10.6-4.479,11.715-6.977,1.375-3.091,2.285-8.509-11.089-9.873s-36.578,4.057-46.584,11.815a225.064,225.064,0,0,1,31.388-4.031c-2.368.805-5.323,2.186-6.994,4.222-2.811,2.786-7.008,8.483-11.657,24.738l.674-.081-5.952.931s9.1-14.539,3.094-20.722c-5.165-5.318-22.383.094-22.383.094,17.1-16.362,47.92-24.878,77.454-16.075Zm-30.309,29.151a10.349,10.349,0,0,1-2.517.31h-3.418a82.642,82.642,0,0,1,3.578-8.941h1.341c3.186,0,4.953,1.789,2.969,6.057a7.431,7.431,0,0,1-1.953,2.575ZM807.5,631.87a11.217,11.217,0,0,1-3.179.451h-2.4a44.276,44.276,0,0,1,3.494-6.74c3.123.027,4.393,1.584,2.74,5.128a7.672,7.672,0,0,1-.657,1.16Z" transform="translate(-2.527 -0.67)"/><path d="M811.381,631.425a7.6,7.6,0,0,1-.656,1.16,6.961,6.961,0,0,0,4.124-2.889c1.6-2.794.374-4.8-2.21-5.072l-2.685.007a8.331,8.331,0,0,0-1.313,1.664c3.123.028,4.393,1.584,2.74,5.129m-4.636,13.343a7.431,7.431,0,0,1-1.953,2.575,7.8,7.8,0,0,0,5.42-4.3c1.987-4.27.216-6.058-2.966-6.058h-3.957c-.3.578-.581,1.157-.853,1.73h1.341c3.186,0,4.953,1.789,2.969,6.057" transform="translate(-5.752 -1.387)"/><path class="b" d="M824.047,622.5c-1.25-2.05-4.3-3.264-9.723-3.54a51.671,51.671,0,0,0-12.43.185c-2.747.367-16.1,1.725-27.477,7.271,9.946-2.42,21.7-3.306,29.143-3.576,3.13-.11,6.567-.012,6.567-.012,2.226,0,4.29.657,5.081,1.954.821,1.341,1.047,2.952-.5,4.917a9.894,9.894,0,0,1-4.739,3.4l3.335-.71c4.985-1.064,9.508-3.862,10.549-6.031.759-1.584.8-2.854.19-3.859" transform="translate(-3.87 -0.988)"/><path class="b" d="M800.54,635.69h5.492c2.834,0,4.137,1.16,4.734,2.138.936,1.532.769,3.594-.39,6.179-2.236,4.984-7.652,5.433-9.278,5.433l-6.232.237a85.477,85.477,0,0,1,5.674-13.987Zm2.856,15.337a57.382,57.382,0,0,1,14.589-6.345,8.3,8.3,0,0,0,.911-1.511,5.508,5.508,0,0,0,.229-3.937c-.611-1.819-1.829-3.031-5.669-3.929-5.052-1.178-12.432-.659-12.432-.659a58.658,58.658,0,0,1,4.236-8.614,16.987,16.987,0,0,0-10.821,4.54c-3.68,3.249-7.655,11.69-10.817,21.742,5.439-.571,10.37-.828,10.37-.828l5.171-.223a38.08,38.08,0,0,0,4.232-.236Z" transform="translate(-4.488 -1.481)"/><path class="d" d="M853.591,637.921a3.668,3.668,0,0,1-2.55,4.861,4.514,4.514,0,0,1-5.549-2.235,3.669,3.669,0,0,1,2.55-4.863A4.515,4.515,0,0,1,853.591,637.921Zm-.2,1.194a2.4,2.4,0,0,0-3.069-1.315,2.272,2.272,0,0,0-1.442,2.928,2.4,2.4,0,0,0,3.07,1.322,2.275,2.275,0,0,0,1.441-2.934Z" transform="translate(-8.625 -2.114)"/><path class="a" d="M847.932,640.875a2.813,2.813,0,0,1,2.006-3.688,3.822,3.822,0,0,1,1.993-.1,3.755,3.755,0,0,0-3.13-.357,2.811,2.811,0,0,0-2.007,3.694,3.119,3.119,0,0,0,2.272,1.756,2.884,2.884,0,0,1-1.134-1.3" transform="translate(-8.717 -2.187)"/></g><rect class="e" width="200" height="200"/></svg>