<svg xmlns="http://www.w3.org/2000/svg" width="186.144" height="255.993" viewBox="0 0 186.144 255.993"><defs><style>.a{fill:#fff;}.b{fill:#013369;}.c{fill:#d50a0a;}</style></defs><path class="a" d="M1046.947,176.351c-8.035,5.735-23.308,13.62-43.036,8.762C969.784,176.67,960,147.279,960,147.279s-9.784,29.471-43.911,37.834c-19.728,4.858-35-2.948-43.036-8.762h-6.125V335.092a31.247,31.247,0,0,0,7.477,19.833c8.035,9.8,21.638,16.089,40.491,18.8,15.034,2.151,26.092,6.93,33.888,14.416C954.511,393.714,960,403.272,960,403.272s5.648-9.8,11.216-15.134c7.8-7.566,18.933-12.266,33.888-14.416,18.854-2.708,32.456-9.08,40.491-18.8a31.241,31.241,0,0,0,7.477-19.833V176.351Z" transform="translate(-866.928 -147.279)"/><path class="b" d="M1047.5,182.563a55.174,55.174,0,0,1-44.946,7.966C971.932,182.882,960,159.864,960,159.864s-11.932,23.018-42.558,30.665a55.174,55.174,0,0,1-44.946-7.966V335.092c0,5.177,2.148,27.161,43.2,33.134,16.229,2.31,28.32,7.567,36.99,15.93A52.917,52.917,0,0,1,960,393a49.954,49.954,0,0,1,7.318-8.842c8.671-8.363,20.763-13.62,36.991-15.93,41.047-5.973,43.2-27.957,43.2-33.134V182.563Z" transform="translate(-866.928 -147.279)"/><path class="a" d="M960,377.546s11.933-14.656,42.8-19.435c35.4-5.5,34.365-22.143,34.365-22.939V255.2h-154.4v79.888c0,.877-1.034,17.523,34.365,22.939C948.067,362.81,960,377.546,960,377.546Z" transform="translate(-866.928 -147.279)"/><path class="c" d="M924.043,313.587V275.594l-4.773-2.708V263.01h21.638v9.876l-4.534,2.708v77.5l-11.615-3.5-16.785-49.541V332.7l5.33,4.062V346.8l-23.228-5.894v-8.6l5.33-2.071v-54.72L890,272.886V263.01h17.581l16.466,50.577ZM963.9,348.314l4.614,5.576v9.876l-23.069-8.6V346.8l5.091-2.071V275.674l-5.091-2.548v-9.957h40.013v20.072h-8.83l-2.7-8.2H963.738v23.178h7.637l3.023-4.381h6.125V314.3H974.4l-2.864-4.142h-7.8v38.152Zm25.456,3.505v-9.876l5.727-4.7V275.6l-4.852-2.549V263.09H1013.3v9.956l-4.534,2.549V333.42l9.943-2.708,1.909-15.133H1030v25.329l-40.649,10.911Z" transform="translate(-866.928 -147.279)"/><path class="a" d="M886.814,238.8l-7-5.257h8.512l2.784-8.124,2.785,8.124h8.511l-7,5.257,2.546,8.2-6.921-4.858L884.11,247l2.7-8.2Zm30.309,0-7-5.257h8.511l2.785-8.124,2.784,8.124h8.512l-7,5.257,2.545,8.2-6.921-4.858L914.418,247l2.7-8.2Zm-30.309-27.319-7-5.257h8.512l2.784-8.125,2.785,8.125h8.511l-7,5.257,2.546,8.2-6.921-4.859-6.921,4.859,2.7-8.2Zm30.309,0-7-5.257h8.511l2.785-8.125,2.784,8.125h8.512l-7,5.257,2.545,8.2-6.921-4.859-6.921,4.859,2.7-8.2Zm118.608,35.6-6.921-4.858-6.921,4.858,2.545-8.2-7-5.258h8.591l2.785-8.124,2.784,8.124h8.512l-7,5.258,2.626,8.2Zm-30.229,0-6.921-4.858-6.921,4.858,2.545-8.2-7-5.258h8.512l2.784-8.124,2.784,8.124h8.512l-7,5.258,2.705,8.2Zm30.229-27.4-6.921-4.859-6.921,4.859,2.545-8.2-7-5.257h8.591l2.785-8.125,2.784,8.125h8.512l-7,5.257,2.626,8.2Zm-30.229,0-6.921-4.859-6.921,4.859,2.545-8.2-7-5.257h8.512L998.5,198.1l2.784,8.125h8.512l-7,5.257,2.705,8.2ZM979.25,189.494c.716-.08,1.114.8,1.512,1.354a42.527,42.527,0,0,1,1.511,25.885c-3.5,13.621-14.955,26.125-39.536,29.311-.556.08-1.193-.079-1.272-.4a92.068,92.068,0,0,1,9.864-25.488c1.113.717,2.227,1.434,3.261,2.231.4-.638.875-1.354,1.591-2.549a23.6,23.6,0,0,0-10.42-4.779s-.716,1.513-1.273,2.628a30.521,30.521,0,0,1,3.341.956,86.024,86.024,0,0,0-7.637,26.6c-1.512-2.389-2.705-7.965-3.1-10.991-3.9-28.674,16.7-45.4,39.138-45.719a4.162,4.162,0,0,1,2.068.239,45.93,45.93,0,0,0-10.66,6.213,27.946,27.946,0,0,0-2.784-.956c-.875.557-1.829,1.194-2.705,1.832a22.983,22.983,0,0,1,9.387,4.7c.716-.637,1.432-1.354,2.228-2.071a27.791,27.791,0,0,0-3.182-2.151,43.812,43.812,0,0,1,8.671-6.849Zm-21.16,27.08c.557-.8,1.193-1.752,1.83-2.708a23.832,23.832,0,0,0-10.66-5.1c-.636.956-1.75,2.787-1.75,2.787a24.018,24.018,0,0,1,10.58,5.018Zm4.057-5.655c.637-.876,1.273-1.672,1.989-2.549a24.271,24.271,0,0,0-10.58-5.1c-.716.8-1.432,1.672-2.068,2.469a23.878,23.878,0,0,1,10.659,5.177Zm4.535-5.416a19.947,19.947,0,0,1,2.227-2.31,24.136,24.136,0,0,0-9.864-4.938,30.3,30.3,0,0,0-2.625,2.23,24.251,24.251,0,0,1,10.262,5.018Z" transform="translate(-866.928 -147.279)"/></svg>