<svg xmlns="http://www.w3.org/2000/svg" width="200" height="200" viewBox="0 0 200 200"><defs><style>.a{fill:#1d428a;}.b{fill:#fdb927;}.c{fill:none;mix-blend-mode:multiply;isolation:isolate;}</style></defs><g transform="translate(-1012.055 -951.607)"><path class="a" d="M1113.807,975.3l-5.043-6.692h-3.443v.63l.824.582v9.8h2.619v-6.644l5.043,6.644h2.619V968.607h-2.619Z"/><path class="a" d="M1095.38,981.264l7.565-1.309-.436-2.231-4.8.824-.388-2.134,3.928-.679-.146-.97-.242-1.261-3.928.679-.339-1.988,4.413-.776.194-2.376-7.129,1.261-.63.1-.776.145.145.63.873.436Z"/><path class="a" d="M1082.82,985.386l3.879-1.406c3.589-1.31,4.995-4.219,3.88-7.274s-4.074-4.413-7.662-3.1l-3.444,1.261-.436.145-.873.34.243.63,1.115.291Zm-.388-9.165,1.406-.485a3.221,3.221,0,0,1,2.182,6.062l-1.406.484Z"/><path class="a" d="M1072.878,990.866l6.838-3.977-.679-2.376-4.946,2.861-4.316-7.468-1.794,1.067-.63.339-.582.339.339.582.824.049Z"/><path class="a" d="M1066.186,988.393a5.686,5.686,0,0,0-8.244-.437,5.727,5.727,0,1,0,8.244.437m-6.838,5.916a3.118,3.118,0,1,1,4.7-4.073,3.12,3.12,0,1,1-4.7,4.073"/><path class="a" d="M1054.984,997.7l-2.182,2.812-.582.728-.922,1.164,1.746,1.357,1.746-2.23a2.906,2.906,0,0,1-.388,3.2h0a3.34,3.34,0,0,1-5.238-4.122,3.88,3.88,0,0,1,.631-.63,3.426,3.426,0,0,1,1.018-.534l.873-1.163,1.164-1.455.049-.049a.369.369,0,0,1-.194-.048,6.187,6.187,0,0,0-5.189,2.134,1.3,1.3,0,0,0-.243.29,5.723,5.723,0,1,0,9.02,7.032c.1-.1.146-.194.243-.291a5.714,5.714,0,0,0,.436-6.207,1.747,1.747,0,0,0-.339-.485,9.207,9.207,0,0,0-1.164-1.212,4.217,4.217,0,0,1-.485-.291h0"/><path class="a" d="M1129.714,976.948l.921.873c.824.776,1.212,1.115,1.018,1.7-.145.437-.679.679-1.5.485a5.147,5.147,0,0,1-2.716-2.231l-.776,2.765a7.2,7.2,0,0,0,3.153,1.7c2.085.582,4.17-.146,4.752-2.182.485-1.6-.388-2.716-1.6-3.831l-1.116-1.067c-.533-.485-.63-.825-.533-1.164.145-.437.679-.63,1.358-.437a5.656,5.656,0,0,1,2.618,1.843l.728-2.521a6.93,6.93,0,0,0-2.861-1.552c-2.28-.631-4.122.339-4.656,2.133a3.457,3.457,0,0,0,1.213,3.492"/><path class="a" d="M1138.879,985.532l2.522,1.212,3.686-7.953,3.152,1.5.97-2.085-8.826-4.122-.97,2.085,3.152,1.455Z"/><path class="a" d="M1145.959,987.568l-.679.97,1.892,1.31.775-.873,1.213-.631,1.7,1.164,1.7,1.164-.1,1.358-.533,1.067,1.891,1.309.679-.97,2.522-10.135-1.309-.873-1.019-.679-.291-.194-.873-.582-.339.534.291.727Zm8.244-2.958-1.018,3.783-1.067-.728-1.067-.727Z"/><path class="a" d="M1160.459,988.538l2.57,2.376-5.965,6.4,2.037,1.891,5.965-6.4,2.522,2.376,1.552-1.7-7.08-6.644Z"/><path class="a" d="M1168.509,1002.941l2.425,3.152,1.843-1.406-2.473-3.152,1.6-1.212,2.716,3.54,2.182-.97-4.51-5.771h.048l-.873-1.115-.533.388.048,1.115-7.711,6.013,4.752,6.013,1.794-1.406-3.007-3.831Z"/><path class="a" d="M1177.044,1048.865a66.17,66.17,0,1,1-66.146-66.146,66.166,66.166,0,0,1,66.146,66.146"/><path class="b" d="M1154.155,1005.608a61.113,61.113,0,1,0,17.943,43.257,60.83,60.83,0,0,0-17.943-43.257m-84.235,2.328a57.922,57.922,0,0,1,93.788,64.643c-7.032-2.376-13.918-5.044-20.707-8.05-.873-.388-1.794-.776-2.667-1.213l-2.619-1.26-1.309-.631-1.31-.63-2.618-1.31c-.873-.436-1.746-.921-2.57-1.357l-1.31-.679c-.436-.243-.873-.485-1.261-.679l-2.57-1.407-2.522-1.454a167.132,167.132,0,0,1-19.3-13.142c-3.055-2.425-6.014-4.947-8.826-7.614-1.407-1.358-2.764-2.716-4.122-4.122-.34-.339-.679-.727-.97-1.067-.34-.339-.631-.727-.97-1.067a10.118,10.118,0,0,1-.921-1.115l-.049-.049c-.1-4.267-.194-6.789-.194-6.789l-2.91-.679v3.88h-2.473v-4.074l-3.1.728v1.5l-1.455.776c.048,1.212.048,2.813.1,4.7-1.164,2.037-14.015,24.2-23.617,31.036a61.317,61.317,0,0,1-.533-7.9,58.211,58.211,0,0,1,17.021-40.978m76.039,69.347-5.965.194-4.849-12.609.97.485,2.667,1.31c.873.436,1.794.872,2.667,1.26.243.1.485.243.776.34Zm-1.406-7.9c2.425,1.116,4.8,2.134,7.274,3.152l1.988,4.462-5.965.194Zm-6.353,8.147-6.11.194-6.353-17.991a9.853,9.853,0,0,0,1.212.679l1.31.727,2.618,1.455,1.989,1.067Zm-7.9.291-5.431.194-7.953-23.665c1.212.776,2.425,1.552,3.686,2.328l2.521,1.552.34.194Zm-7.225.243-5.722.194-9.408-30.164c2.182,1.6,4.364,3.2,6.643,4.7Zm-7.517.242-5.48.194-11.2-37.68c.776.679,1.6,1.358,2.376,2.037,1.407,1.164,2.862,2.328,4.316,3.443Zm-7.274.243-6.062.194-13.336-47.67c1.164,1.309,2.377,2.57,3.589,3.782,1.309,1.31,2.619,2.571,3.976,3.783Zm-7.808.242-5.237.194L1087.911,1051c-.242-7.226-.436-13.918-.581-19.252Zm-7.031.243-4.559.145c-.291-6.644-.533-13.675-.776-20.416Zm64.158,4.025c-.388.533-.776,1.067-1.213,1.6l-67.31-1.309-.048-.631Zm-1.94-6.111-1.552-3.443c2.57,1.019,5.141,2.037,7.711,2.958l-.146.291Zm-71.626-42.335v3.54h-2.716v3.3h2.716v3.54h-2.716v3.3h2.716v6.692h-2.716v3.3h2.716v6.886h-2.716v3.3h2.716v10.814l-2.473.1v-50.337h2.473v2.231h-2.716v3.3h2.716Zm-25.993,38.019,7.565-25.411a136.876,136.876,0,0,0,9.941-15.518l-13.53,48.3a59.969,59.969,0,0,1-3.976-7.372m-1.018-2.473a60.083,60.083,0,0,1-3.007-10.475,60.9,60.9,0,0,0,8.729-8.777Zm20.125-37.825c0,5.092-.049,11.25-.194,17.846l-7.759,29.63-5.383.194Zm-.388,25.314c-.194,7.322-.485,14.936-.825,21.968l-4.995.145Zm-10.281,28.369,9.117.339c-.194,2.813-.388,5.48-.582,7.953a54.637,54.637,0,0,1-4.995-4.461,43.124,43.124,0,0,1-3.54-3.831m44.421,20.755a57.526,57.526,0,0,1-20.756-3.831c-.291-3.976-.533-8.68-.776-13.869l-5.286-1.794v12.9c-.824-.436-1.7-.921-2.473-1.406V1086.5l2.473.1v.1h2.716l4.9.194,60.909,2.133c-.243.243-.485.485-.728.776a57.717,57.717,0,0,1-40.977,16.973"/><path class="a" d="M1130.538,1119.376l-.63-3.395-3.686.679-4.17.824-3.637.727.63,3.395,3.686-.727,1.843,9.65-3.637.679.63,3.395,3.686-.679,4.171-.824,3.686-.727-.679-3.395-3.637.727-1.891-9.6Z"/><path class="a" d="M1151.827,1115.3a9.021,9.021,0,0,1-16.343,7.614c-2.036-4.316-.436-9.359,4.51-11.687a8.622,8.622,0,0,1,11.833,4.073m-3.88,1.843c-1.26-2.667-3.831-3.782-6.4-2.57-2.619,1.212-3.394,3.88-2.134,6.547,1.213,2.618,3.783,3.831,6.4,2.57,2.57-1.164,3.346-3.928,2.133-6.547"/><path class="a" d="M1163.9,1101.578c-2.085-2.424-5.334-2.23-7.808-.145l-4.655,3.977-.727.63-.873.727.63.728,1.406-.146,9.7,11.348,3.2-2.764-3.977-4.656.922-.776,7.128,1.892,3.88-3.3-8.293-1.94a4.925,4.925,0,0,0-.533-5.577m-3.734,5.917-1.5,1.261-2.474-2.862,1.552-1.357a1.838,1.838,0,0,1,2.813.048,1.9,1.9,0,0,1-.388,2.91"/><path class="a" d="M1179.566,1100.948a10.058,10.058,0,0,1-4.122,3.492l-3.492-2.668a8.069,8.069,0,0,0,4.607-2.667c.776-1.018.727-1.988.146-2.376-.728-.533-1.455-.194-3.007.534l-1.794.872c-2.183,1.067-4.025.97-5.577-.242-2.231-1.7-2.619-4.849-.485-7.711a11.062,11.062,0,0,1,3.734-3.2l3.2,2.424a8.361,8.361,0,0,0-4.073,2.716c-.63.825-.679,1.7-.1,2.134.436.339.97.339,1.988-.1l2.086-1.019c2.23-1.066,4.219-1.7,6.3-.145,2.618,1.988,2.57,5.334.582,7.953"/><path class="a" d="M1114.389,1123.546c.1-3.2-2.424-5.285-5.673-5.382l-6.111-.194-.921-.049-1.164-.048-.049.969,1.116.873-.534,14.937,4.219.145.194-6.11,1.213.048,3.976,6.256,5.092.194-4.8-6.983a5.292,5.292,0,0,0,3.443-4.656m-6.789,1.843-1.988-.048.145-3.783,2.086.049c1.163.048,2.133.679,2.085,1.939a1.984,1.984,0,0,1-2.328,1.843"/><path class="a" d="M1095.574,1122.092c.921-3.056-1.019-5.723-4.122-6.644l-5.868-1.746-.922-.242-1.115-.34-.291.922.873,1.115-4.219,14.306,4.025,1.212,1.746-5.819,1.164.339,2.279,7.032,4.9,1.455-2.91-8a5.25,5.25,0,0,0,4.462-3.588m-6.984.048-1.891-.582,1.067-3.637,1.988.582c1.116.339,1.892,1.164,1.5,2.376a1.95,1.95,0,0,1-2.668,1.261"/><path class="a" d="M1075.691,1108.61l-1.455-.873-.582-.339-1.212-.728-.485.825.436.921-10.959,9.02-.922,1.552,3.007,1.794,1.115-1.455,1.794-1.066,2.668,1.551,2.667,1.552-.049,2.085-.727,1.7,3.007,1.794.921-1.552,2.91-15.615Zm-4.995,8.487-1.7-.97,4.558-3.88-1.164,5.868Z"/><path class="a" d="M1065.7,1102.16h0l-1.067-1.115-.727.63.146,1.212-9.02,3.88,5.819-9.844-1.794-1.988-10.281,5.043,5.528-10.232-3.2-3.443h0l-.388-.436-.727.63.194,1.6-7.129,14.112,2.861,3.152,6.886-2.861-3.443,6.6,2.861,3.152,16.585-6.644Z"/></g><rect class="c" width="200" height="200"/></svg>