<svg xmlns="http://www.w3.org/2000/svg" xmlns:xlink="http://www.w3.org/1999/xlink" width="200" height="200" viewBox="0 0 200 200"><defs><style>.a{fill:#003594;}.b{fill:url(#a);}.c{fill:#d7d2cb;}.d{fill:#ffd100;}.e{fill:#ffa300;}.f{fill:#ff8200;}.g{fill:url(#b);}.h{fill:#fff;}.i{fill:none;mix-blend-mode:multiply;isolation:isolate;}</style><linearGradient id="a" x1="-12.008" y1="-1.397" x2="-12.008" y2="-1.402" gradientUnits="objectBoundingBox"><stop offset="0.217" stop-color="#ffd100"/><stop offset="0.296" stop-color="#ffd724"/><stop offset="0.474" stop-color="#ffe87f"/><stop offset="0.707" stop-color="#fff"/></linearGradient><linearGradient id="b" x1="-12.2" y1="-1.294" x2="-12.196" y2="-1.294" gradientUnits="objectBoundingBox"><stop offset="0" stop-color="#ffa300"/><stop offset="0.134" stop-color="#ffa800"/><stop offset="0.289" stop-color="#ffb600"/><stop offset="0.453" stop-color="#ffcd00"/><stop offset="0.478" stop-color="#ffd100"/></linearGradient></defs><g transform="translate(-1326.828 -1170)"><path class="a" d="M1492.96,1228.274a73.041,73.041,0,0,0-90.315-10.332h0a75.938,75.938,0,0,0-20.3,19.826l-.059.068h-15.061l-28.4,64.26h36.846a58.749,58.749,0,0,0,23.257,23.592,58.073,58.073,0,0,0,59.741-2.249,5.649,5.649,0,0,0-3.024-10.376,5.738,5.738,0,0,0-1.658.247,39.235,39.235,0,0,1-11.322,1.657,38.711,38.711,0,0,1-28.919-12.872h34.407l5.909-8.234,22.936,0s-.7,1.774-1.082,2.643l-2.463,5.59h37.538l.8-2.937A73.074,73.074,0,0,0,1492.96,1228.274Zm14.987,69.839h-28.386a57.36,57.36,0,0,0,2.907-8.235h-30.48l-5.878,8.235h-27.323l40.85-57.226,0,0a44.189,44.189,0,0,0-16.966-3.284q-1.113,0-2.212.057c-22.162,1.117-39.835,18.907-39.835,40.616a39.755,39.755,0,0,0,.225,4.222h24.131l-7.186,10.111c-2.267,3.049-5.273,5.5-9.855,5.5h-1.967a42.323,42.323,0,0,0,36.7,20.837,43.224,43.224,0,0,0,12.47-1.826,1.743,1.743,0,0,1,.509-.078,1.667,1.667,0,0,1,.844,3.06,54.081,54.081,0,0,1-78.372-21.989h-33.178l24.88-56.292H1384.2a54.053,54.053,0,0,1,41.565-21.071c.391-.008.787-.013,1.177-.013a53.1,53.1,0,0,1,50.12,34.02l-14.147,19.82h21.54a57.82,57.82,0,0,0-79.7-53.258,69.082,69.082,0,0,1,103.193,76.793Zm-80.064-19.6h-23.276c0-.078-.005-.159-.005-.238,0-19.527,15.835-35.621,36.055-36.64.673-.034,1.349-.051,2.009-.051a41.223,41.223,0,0,1,10.6,1.373Zm50.468-18.649a53.561,53.561,0,0,1,1.95,10.726h-9.6Z" transform="translate(0 0)"/><path class="b" d="M1411.923,1221.753a57.819,57.819,0,0,1,74.807,76.793h28.386a69.075,69.075,0,0,0-103.193-76.793" transform="translate(-7.168 -0.433)"/><path class="c" d="M1489.167,1258.464l-5.464,7.656a27.785,27.785,0,0,0-19.947-8.412q-.7,0-1.4.035l9.392-13.158A39.929,39.929,0,0,1,1489.167,1258.464Zm5.415,35.112a57.829,57.829,0,0,0,1.984-15.059v-.245h-5.907a27.932,27.932,0,0,1-.2,15.3Z" transform="translate(-12.114 -3.698)"/><path class="d" d="M1462.068,1323.453a54.089,54.089,0,0,1-55.636,2.094h0a52.213,52.213,0,0,1-9.382-18.4c6.047-.281,14.8.241,21.275,3.022a42.633,42.633,0,0,0,29.921,12.124,43.221,43.221,0,0,0,12.47-1.826,1.734,1.734,0,0,1,.509-.078,1.667,1.667,0,0,1,.843,3.06Zm-55.647-37.606a39.5,39.5,0,0,1-.226-4.222c0-21.711,17.675-39.5,39.837-40.616-25.694,1.045-46.735,20.2-50.326,44.841Z" transform="translate(-5.578 -3.348)"/><path class="e" d="M1411.555,1308.033h-15.737a51.266,51.266,0,0,0,1.241,5.691h0c6.047-.281,14.8.242,21.275,3.023A41.026,41.026,0,0,1,1411.555,1308.033Z" transform="translate(-5.589 -9.92)"/><path class="f" d="M1382.392,1308.033a54.087,54.087,0,0,0,7.355,11.424,18.049,18.049,0,0,1,6-5.733,51.266,51.266,0,0,1-1.241-5.691Z" transform="translate(-4.272 -9.92)"/><path class="g" d="M1463.621,1242.393a44.189,44.189,0,0,0-16.966-3.284q-1.113,0-2.212.057c-25.693,1.045-46.734,20.2-50.325,44.841h-14.63l18.02-40.677h-9.323a54.053,54.053,0,0,1,41.565-21.071c.391-.008.787-.013,1.177-.013a53.1,53.1,0,0,1,50.12,34.02l-.005.009A39.925,39.925,0,0,0,1463.621,1242.393Zm-68.163,62.918h0a18.048,18.048,0,0,0-5.995,5.733,54.319,54.319,0,0,0,15.378,12.663,52.225,52.225,0,0,1-9.382-18.4Z" transform="translate(-3.987 -1.508)"/><path class="h" d="M1480.185,1285.684a27.925,27.925,0,0,1-1.168,7.994h-26.363l-5.878,8.235h-27.323l31.458-44.069q.694-.034,1.4-.035a27.786,27.786,0,0,1,19.947,8.412l-8.677,12.155h15.632a27.893,27.893,0,0,1,.974,7.308Zm-109.7-40.063-24.88,56.292H1408.6c4.582,0,7.589-2.452,9.855-5.5l7.186-10.111h-49.473l18.02-40.678Z" transform="translate(-0.665 -3.8)"/></g><rect class="i" width="200" height="200"/></svg>