<svg xmlns="http://www.w3.org/2000/svg" width="200" height="200" viewBox="0 0 200 200"><defs><style>.a{fill:#fff;}.b{fill:#9ea2a2;}.c{fill:#707271;}.d{fill:#373a36;}.e{fill:#061922;}.f{fill:#ce1141;}.g{fill:none;mix-blend-mode:multiply;isolation:isolate;}</style></defs><g transform="translate(-1324.666 -1219.736)"><path class="a" d="M1481.366,1021.3a68.581,68.581,0,0,0-24.3-29.156,68.106,68.106,0,0,0-76.361,0,68.632,68.632,0,0,0-24.3,29.156c-23.186,6.063-28.046,13.652-28.046,18.975l.047,28.878c.323,4.859,5.414,13.884,35.866,20.224a69.236,69.236,0,0,0,23.232,19.761,68.107,68.107,0,0,0,62.847,0,69.246,69.246,0,0,0,23.232-19.761c30.452-6.34,35.543-15.365,35.866-20.27v-28.832C1509.411,1035,1504.552,1027.413,1481.366,1021.3Z" transform="translate(6.633 272.56)"/><g transform="translate(1337.221 1255.268)"><path class="b" d="M1479.853,1023.31a65.977,65.977,0,0,0-121.714,0c-16.892,4.3-27.443,10.367-27.443,17.123v28.74c0-6.062,8.516-11.106,22.491-15.272a66.007,66.007,0,0,0,131.618,0c13.976,4.166,22.491,9.21,22.491,15.272v-28.74C1507.3,1033.677,1496.791,1027.614,1479.853,1023.31Z" transform="translate(-1330.695 -982.816)"/><path class="c" d="M1513.984,1072.065c0-.093-.046-.185-.046-.323a1.092,1.092,0,0,0-.093-.37c0-.047-.047-.139-.047-.185l-.138-.416c0-.047-.047-.093-.047-.139-.046-.185-.138-.324-.185-.509v-.047c-.926-2.036-2.823-3.934-5.553-5.693-4.4,2.915-11.061,5.647-19.16,7.822h0a68.8,68.8,0,0,1-4.026,9.95h0a66.985,66.985,0,0,1-5.553,9.071h0c20.825-4.211,34.432-10.875,34.895-18.373a2.225,2.225,0,0,0-.047-.555A.209.209,0,0,0,1513.984,1072.065Z" transform="translate(-1337.476 -986.542)"/><path class="c" d="M1330.79,1072.065c0-.093.046-.185.046-.323a1.1,1.1,0,0,1,.093-.37c0-.047.047-.139.047-.185l.138-.416c0-.047.047-.093.047-.139.046-.185.138-.324.185-.509v-.047c.926-2.036,2.823-3.934,5.553-5.693,4.4,2.915,11.061,5.647,19.16,7.822h0a68.8,68.8,0,0,0,4.026,9.95h0a67,67,0,0,0,5.553,9.071h0c-20.825-4.211-34.432-10.875-34.895-18.373a2.231,2.231,0,0,1,.047-.555C1330.743,1072.2,1330.79,1072.158,1330.79,1072.065Z" transform="translate(-1330.697 -986.542)"/><circle class="d" cx="62.569" cy="62.569" r="62.569" transform="translate(25.731 3.378)"/><g transform="translate(2.73 3.424)"><path class="e" d="M1499.051,1033.7c-4.166-2.639-10.459-5.091-18.188-7.174-1.2-.323-2.453-.648-3.7-.926a62.559,62.559,0,0,0-116.068,0c-1.249.278-2.5.6-3.7.926-7.728,2.082-14.022,4.535-18.187,7.174-2.591,1.62-5.646,4.165-5.646,6.9v19.669c4.674-3.794,12.217-7.08,22.446-9.81.185-.047.416-.093.6-.139a62.538,62.538,0,0,0,125.047,0c.185.047.416.093.6.139,10.227,2.73,17.771,6.016,22.445,9.81V1040.6C1504.7,1037.821,1501.641,1035.322,1499.051,1033.7Zm-40.263-24.065a.75.75,0,0,1,1.2-.232,56.97,56.97,0,0,1,10.274,14.671c-.509-.093-1.064-.185-1.574-.278a66.69,66.69,0,0,0-11.384-10.274A27.923,27.923,0,0,1,1458.788,1009.637Zm-14.532-11.709a56.614,56.614,0,0,1,10.737,6.9,1.925,1.925,0,0,1,.509,2.36,30.233,30.233,0,0,0-1.665,3.981,68.46,68.46,0,0,0-9.488-5c-.463-2.361-.971-4.721-1.573-7.035A1.045,1.045,0,0,1,1444.255,997.928Zm-16.846-5.276a62.885,62.885,0,0,1,8.377,1.851,3.262,3.262,0,0,1,2.129,2.129c.786,2.545,1.48,5.137,2.036,7.775a68.537,68.537,0,0,0-10.181-2.684,34.274,34.274,0,0,0-1.62-4.3c-.509-1.111-1.111-2.175-1.712-3.24A.984.984,0,0,1,1427.41,992.652ZM1476,1048.927a56.615,56.615,0,0,1-7.265,27.814.473.473,0,0,1-.88-.324v-.047a55.626,55.626,0,0,0-1.3-29.295c-.278-.832-.555-1.665-.833-2.453a1.061,1.061,0,0,0-.88-.694l-2.545-.417a.807.807,0,0,0-.879,1.111c.231.6.463,1.158.694,1.759a51.865,51.865,0,0,1,1.851,29.109c-.139.556-.278,1.157-.417,1.712a30.074,30.074,0,0,1-17.169,19.993,58.465,58.465,0,0,1-23.279,4.952,59.757,59.757,0,0,1-10.458-.88,1.693,1.693,0,0,1-.787-2.961c1.991-1.666,3.888-3.425,5.739-5.276,1.342-1.342,2.591-2.684,3.841-4.072a3.3,3.3,0,0,0,.786-2.175l-.093-3.425a.54.54,0,0,0-.972-.324,95.571,95.571,0,0,1-14.625,14.392,4.867,4.867,0,0,1-4.813.695A57.731,57.731,0,0,1,1381.5,1084.7a4.773,4.773,0,0,1-1.3-4.442,58.4,58.4,0,0,1,8.192-19.483.927.927,0,0,0-.51-1.388q-1.111-.347-2.082-.694a.944.944,0,0,0-1.064.323,64.06,64.06,0,0,0-7.451,16.29,1.67,1.67,0,0,1-3.008.463,57.159,57.159,0,0,1-9.487-27.4c-.139-1.573-.185-3.146-.185-4.72v-.51a30.15,30.15,0,0,1,7.636-19.807,27.468,27.468,0,0,1,2.592-2.592,64.012,64.012,0,0,1,30.128-14.855c.323-1.388.741-2.777,1.157-4.3a68.409,68.409,0,0,0-30.174,13.05.856.856,0,0,1-1.2-1.2,56.731,56.731,0,0,1,45.03-21.381h0a28.643,28.643,0,0,1,4.72,7.08l.833,1.944a74.029,74.029,0,0,0-7.867-.463c-1.249,0-2.5.047-3.7.093.37,1.3.694,2.592.972,3.981.926-.047,1.8-.047,2.73-.047a66.124,66.124,0,0,1,9.117.648,29.916,29.916,0,0,1,.51,3.563.846.846,0,0,0,.6.695,18.484,18.484,0,0,1,3.518,1.295,33.245,33.245,0,0,0-.37-4.813,66.868,66.868,0,0,1,10.089,3.008,98.882,98.882,0,0,1,1.064,9.857,1.184,1.184,0,0,0,.926,1.065l2.407.37a.6.6,0,0,0,.694-.648c-.138-2.962-.416-5.878-.786-8.793a65.806,65.806,0,0,1,7.682,4.35,28.852,28.852,0,0,0-.463,5.23,1.148,1.148,0,0,0,.509.972,1.706,1.706,0,0,0,.51.231l2.453.417a.552.552,0,0,0,.509-.185.663.663,0,0,0,.093-.324,24.261,24.261,0,0,1,.093-3.656,61.464,61.464,0,0,1,5.6,4.813,64.3,64.3,0,0,1,13.328,18.281,72.778,72.778,0,0,1,.463,7.913Z" transform="translate(-1333.556 -986.404)"/></g><g transform="translate(50.352 15.735)"><path class="b" d="M1434.41,1045.953l.093-8.978c0-4.211-4.4-4.952-7.637-4.859a15.909,15.909,0,0,0,6.664-3.979,9.471,9.471,0,0,0,3.147-8.053c-.416-6.109-8.052-9.163-20.687-7.914-.185,0-.416.047-.6.047a67.356,67.356,0,0,0-2.916-12.912l-.647.6a88.239,88.239,0,0,0-3.287,13.236,96.43,96.43,0,0,0-12.818,3.054l-.6.6s6.109-.555,13.051-.463c-.787,7.913,0,15.41,0,29.618-11.247-.323-21.1,1.574-23.511,4.536a2.843,2.843,0,0,0-1.2,2.128c.138,3.425,10.366,6.618,24.713,7.822l.6,19.53.6-.6,1.018-13.235a1.735,1.735,0,0,1,.092-.555c.324.046.6.416.6,1.111l.463,17.447.648-.6,1.064-14.162a3.629,3.629,0,0,1,.093-.786c.323.046.6.509.555,1.3l.509,18.187.6-.6.879-26.426c1.666.047,3.332.093,5.045.093,1.8,0,3.61-.046,5.368-.093l.88,27.583.6-.6.741-14.44a3.636,3.636,0,0,1,.093-.741c.278.047.555.51.555,1.25l.741,20.224.6-.6.74-17.493a2.754,2.754,0,0,1,.093-.648c.37,0,.741.416.741,1.249l.6,23.186.6-.648.926-38.783c12.264-1.064,21.612-3.563,23.926-6.386a2.612,2.612,0,0,0,1.158-1.99c-.139-3.98-11.523-6.9-24.9-6.248m-26.333,10.367c-9.858-.971-16.475-2.962-16.475-5.461a.936.936,0,0,1,.138-.51c2.314-1.62,9.394-2.638,16.475-3.7,0,2.776-.046,5.784-.138,9.117Zm20.039-33.876a7.676,7.676,0,0,1-1.851,6.479c-2.592,2.314-6.571,3.378-9.857,3.888.046-5.276,0-10.69-.463-16.059,6.294.648,11.709,2.268,12.171,5.693m-1.851,34.432c-1.528.046-3.1.093-4.721.093-1.9,0-3.749-.047-5.553-.093l.093-2.222c-.185-5.693.185-12.819.278-20.409,4.627.556,10.182,1.851,10.089,5.091Zm24.481-4.4c-2.313,1.8-8.376,3.193-16.429,3.934l.093-9.672c9.209,1.2,16.706,2.545,16.706,4.767a1.7,1.7,0,0,1-.37.972" transform="translate(-1383.457 -999.304)"/><path class="f" d="M1459.387,1052.016c-.185-3.8-11.523-6.711-24.9-6.063l.093-8.978c0-5.553-7.635-5.045-10.228-4.674,3.008-.556,13.05-3.054,12.4-12.217-.417-6.109-8.053-9.163-20.687-7.914-.185,0-.417.047-.6.047a67.291,67.291,0,0,0-2.915-12.912,80.709,80.709,0,0,0-3.333,13.745,96.817,96.817,0,0,0-13.374,3.146s6.109-.555,13.05-.463c-.786,8.007.046,15.643,0,30.267-13.282-.463-24.852,2.128-24.713,6.062.138,3.425,10.32,6.618,24.713,7.822l.6,19.53,1.018-13.236c.047-1.62,1.3-1.481,1.3-.093l.463,17.448,1.064-14.162c0-1.9,1.343-1.8,1.3-.093l.51,18.188.879-27.074c1.851.047,3.749.092,5.646.092,1.806,0,3.61-.046,5.369-.092l.879,27.583.741-14.439c0-1.851,1.249-1.759,1.249-.093l.741,20.224.74-17.494c.047-1.712,1.435-1.62,1.481,0l.6,23.186.926-39.337v-.047c14.44-1.342,24.991-4.535,24.991-7.96m-30.637-30.174c1.018,7.635-6.757,10.135-12.356,10.968.047-5.462-.046-11.2-.556-16.753,6.664.6,12.449,2.222,12.912,5.785m-37.115,29.017c0-2.314,8.608-3.563,17.215-4.859,0,2.776-.046,5.785-.138,9.117l.046,1.249c-10.181-.879-17.122-2.915-17.122-5.506m24.389,5.969.093-2.221c-.185-5.832.185-13.236.324-21.1,4.72.463,10.783,1.759,10.69,5.137l-.185,18.188c-1.713.047-3.518.093-5.369.093-1.9,0-3.749,0-5.553-.093m18.327-.416.138-10.367c9.488,1.2,17.309,2.592,17.309,4.859-.046,2.545-7.127,4.582-17.447,5.507" transform="translate(-1383.49 -999.304)"/></g><path class="a" d="M1353.418,1033.8c-1.2.417-2.36.787-3.518,1.2a2.22,2.22,0,0,0-1.388,1.9v12.171a.949.949,0,0,0,1.388.926c1.157-.416,2.361-.833,3.518-1.2a2.157,2.157,0,0,0,1.389-1.851v-12.172A.977.977,0,0,0,1353.418,1033.8Zm-.926,12.959c-.555.185-1.157.416-1.712.6v-10.32c.555-.185,1.157-.416,1.712-.6Zm36.514-21.474c-1.2.185-2.453.37-3.656.556a1.773,1.773,0,0,0-1.434,1.666v12.172a1.159,1.159,0,0,0,1.434,1.157c1.2-.184,2.453-.416,3.656-.554a1.684,1.684,0,0,0,1.434-1.62v-12.171A1.208,1.208,0,0,0,1389.006,1025.283Zm-.926,12.774-1.8.278v-10.32l1.8-.278Zm-26.563-6.8c.786-.231,1.527-.463,2.313-.648v13.56a2.041,2.041,0,0,1-1.389,1.8c-1.2.325-2.406.695-3.563,1.065a1,1,0,0,1-1.388-.972V1032.5c.786-.232,1.527-.463,2.313-.695v12.634c.6-.185,1.158-.324,1.759-.509C1361.517,1039.676,1361.517,1035.465,1361.517,1031.253Zm-17.911,6.063c.741-.278,1.481-.6,2.267-.879v14.994c-.74.278-1.527.555-2.267.879v-6.341c-.509.185-1.064.417-1.574.6v6.34c-.741.278-1.48.6-2.221.926v-14.994c.74-.323,1.48-.6,2.221-.926v6.341c.51-.231,1.065-.416,1.574-.6Zm31.609-9.534c2.129-.463,4.3-.879,6.433-1.3v2.314c-.695.138-1.388.278-2.036.37v12.634c-.787.138-1.574.323-2.36.463v-12.634c-.695.138-1.343.278-2.036.416Zm24.158-3.794v14.994c-.787.093-1.574.138-2.36.231v-2.638c-.555-1.574-1.111-3.1-1.666-4.674v7.5l-2.36.278v-14.994c.786-.093,1.527-.185,2.313-.278.555,1.62,1.111,3.193,1.713,4.813v-5C1397.8,1024.173,1398.586,1024.081,1399.373,1023.988Zm-26.425,5.692v1.759c-.787.185-1.574.37-2.314.555v-.833c-.6.139-1.157.278-1.759.417v3.1c1.111.509,2.222,1.064,3.378,1.62a1.367,1.367,0,0,1,.741,1.389v4.165a1.877,1.877,0,0,1-1.389,1.713c-1.2.278-2.406.6-3.609.879a1.05,1.05,0,0,1-1.389-1.064v-1.759c.786-.185,1.527-.417,2.314-.6v.833c.6-.138,1.157-.278,1.758-.416v-3.1c-1.11-.555-2.221-1.065-3.331-1.574a1.329,1.329,0,0,1-.741-1.389v-4.165a1.933,1.933,0,0,1,1.389-1.759c1.2-.324,2.406-.6,3.609-.88A1.114,1.114,0,0,1,1372.948,1029.68Zm81.034-3.749c-1.2-.185-2.453-.416-3.656-.6a1.189,1.189,0,0,0-1.434,1.2V1038.7a1.723,1.723,0,0,0,1.434,1.619c1.2.185,2.453.37,3.656.6a1.159,1.159,0,0,0,1.434-1.157V1027.6A1.773,1.773,0,0,0,1453.982,1025.931Zm-.926,12.5-1.8-.278v-10.32l1.8.278Zm31.562-4.906c2.083.695,4.166,1.435,6.248,2.176v2.313c-.648-.231-1.342-.463-1.99-.694v12.634c-.74-.278-1.527-.51-2.267-.787V1036.53c-.648-.232-1.343-.463-1.991-.648Zm12.171,7.59v-.832c-.555-.232-1.156-.463-1.712-.695v3.1c1.064,1.25,2.175,2.453,3.24,3.7a2.73,2.73,0,0,1,.694,1.851v4.165a.873.873,0,0,1-1.342.833c-1.158-.463-2.314-.926-3.517-1.389a2.237,2.237,0,0,1-1.342-1.944v-1.758c.741.278,1.527.555,2.267.879v.833c.555.231,1.157.463,1.712.694v-3.1c-1.064-1.249-2.175-2.453-3.239-3.7a2.728,2.728,0,0,1-.695-1.851v-4.166a.905.905,0,0,1,1.343-.879c1.157.463,2.313.926,3.517,1.388a2.356,2.356,0,0,1,1.343,1.944v1.758C1498.318,1041.713,1497.578,1041.388,1496.79,1041.11Zm-23-10.829c-.787,2.267-1.62,4.582-2.407,6.849.786,2.684,1.62,5.415,2.407,8.145-.833-.232-1.62-.417-2.453-.648-.648-2.175-1.3-4.3-1.9-6.433v5.97c-.786-.185-1.527-.37-2.313-.555v-14.994c.786.185,1.573.37,2.313.555v5.97c.648-1.851,1.3-3.656,1.9-5.462A21.155,21.155,0,0,1,1473.79,1030.282Zm-9.3-.926v1.8c-.786-.185-1.573-.323-2.313-.509v-.88c-.6-.138-1.2-.231-1.759-.37v10.321c.6.138,1.2.231,1.759.37v-.787c.786.185,1.573.325,2.313.51v1.712a1.111,1.111,0,0,1-1.388,1.111c-1.2-.278-2.407-.51-3.657-.74a1.815,1.815,0,0,1-1.434-1.666V1028.06a1.112,1.112,0,0,1,1.434-1.111c1.2.232,2.407.51,3.657.741A1.823,1.823,0,0,1,1464.487,1029.356Zm-18.465,2.638v-5.831a1.637,1.637,0,0,0-1.434-1.574c-1.712-.185-3.378-.37-5.091-.555h0v14.994c.787.093,1.574.139,2.361.232v-6.34a6.977,6.977,0,0,0,.972.093c.324,2.129.694,4.3,1.018,6.433.786.093,1.574.185,2.407.278-.37-2.176-.695-4.4-1.065-6.572A1.154,1.154,0,0,0,1446.022,1031.994Zm-2.36-1.2c-.6-.093-1.2-.138-1.8-.185v-3.98c.6.046,1.2.138,1.8.185Zm32.719.185c2.083.6,4.166,1.25,6.248,1.9v2.314c-1.3-.416-2.638-.833-3.979-1.2v3.98c.971.278,1.943.6,2.961.879v2.314c-.972-.324-1.943-.6-2.961-.879v3.979c1.342.37,2.638.786,3.979,1.2v2.314c-2.082-.648-4.165-1.3-6.248-1.9Z" transform="translate(-1331.111 -984.697)"/></g></g><rect class="g" width="200" height="200"/></svg>