<svg xmlns="http://www.w3.org/2000/svg" width="200" height="200" viewBox="0 0 200 200"><defs><style>.a{fill:#fff;}.b{fill:#c4ced4;}.c{fill:none;mix-blend-mode:multiply;isolation:isolate;}</style></defs><g transform="translate(-718.756 -1889.268)"><path class="a" d="M778.42,2027.271l-14.509,21.542,23.852-7.8,9.673,23.3,7.254-25.06,26.819,6.923-17.365-20.115,20.883-17.256-18.685,1.1,12.31-13.85h24.071l27.48-48.692v-32.1H860.747l-9.343,16.6-1.758,12.531-14.069,24.951H822.716l12.641-22.313v-31.655H815.131l-9.012,16.487-1.649,12.642-21.984,39.24,3.408,8.683-4.287-4.617,1.758,23.742-25.61,1.1Zm10.882-31h9.123l-2.748,6.924Z" transform="translate(0 0)"/><g transform="translate(766.659 1918.455)"><path d="M805.031,1944.742l-21.654,38.469,3.628,9.014h13.41l-6.156,15.5L782.828,1995.3l1.32,18.247-19.9.88,15.828,11.1-11.211,16.817L787,2036.411l7.475,18.026,5.715-19.675,20.226,5.167-13.081-15.059,16.049-13.3-16.6.989,18.027-20.334h23.631l26.16-46.384v-28.248H859.879l-8.464,15.057-1.428,12.092-15.169,27.038h-19.9l14.84-26.16V1917.7H814.373l-8.134,14.948Z" transform="translate(-764.252 -1917.593)"/><path class="b" d="M844.063,1920.641h-6.925l-5.276,9.343h7.144Z" transform="translate(-739.203 -1916.464)"/><path class="b" d="M811.54,1920.641h-7.364l-5.276,9.343h7.8Z" transform="translate(-751.416 -1916.464)"/><path class="b" d="M806.584,1973.033,791.2,2008.206l-6.925-7.473.659,9.452-10.332.44,8.245,5.824-5.826,8.684,9.452-3.077,3.847,9.343,2.968-10.223,10.551,2.748-6.814-7.913,8.353-6.925-11.761.769h-.769l24.292-36.711h21.1l18.687-33.415H849.67l-15.718,27.589h-37.7l15.718-27.589h-7.364l-19.015,33.415h20.993Z" transform="translate(-760.419 -1909.392)"/><path class="b" d="M805.23,1930.265h-6.815l-.879,8.024h7.035Z" transform="translate(-751.921 -1912.898)"/><path class="b" d="M838,1930.265h-6.7l-.879,8.024h6.925Z" transform="translate(-739.738 -1912.898)"/><path d="M785.135,1998.977a3,3,0,0,0,3.077-3.077,3.077,3.077,0,1,0-3.077,3.077" transform="translate(-757.656 -1889.722)"/></g></g><rect class="c" width="200" height="200"/></svg>