<svg xmlns="http://www.w3.org/2000/svg" width="200" height="200" viewBox="0 0 200 200"><defs><style>.a{fill:#26245c;}.b{fill:#0d89a5;}.c{fill:#fff;}.d{fill:#9b9b9f;}.e{fill:none;mix-blend-mode:multiply;isolation:isolate;}</style></defs><g transform="translate(-1012.91 -644.465)"><path class="a" d="M1067.177,736.791h-12.633v13.686l-7.58,3.685,7.58,4v12.106l8.422,5.159c3.053-.421,6.948-.947,11.58-1.369l32.321,18.635,5.9,27.056c0-.1,6-27.056,6-27.056l32.321-18.635c4.527.527,8.527.948,11.58,1.369l8.317-5.159V758.162l7.58-3.895-7.58-3.79V736.791h-12.633a28.8,28.8,0,0,0,4.421-6.106c1.053-1.79,2-4,3.159-6.527,9.159-2.738,15.9-8.633,18.845-14.318,7.9-14.318,13.791-32.005,13.791-32.005s-3.369,1.685-7.475,3.685c3.264-10.107,5.369-18.739,5.369-18.739s-36.215,24-64.535,46.532l-2.421-1.473c0-.211.105-2.211.105-2.422,0,0,.316-2.316-3.9-3.79a2.691,2.691,0,0,0-.737-.21c2-1.58,5.264-3.9,7.474-5.475,3.685-2.527,3.264-5.369,3.264-5.369l-13.476,10a30.484,30.484,0,0,0-18.95,0l-13.475-10s-.421,2.737,3.263,5.369c2.316,1.579,5.58,3.9,7.58,5.475a1.952,1.952,0,0,1-.737.21c-4.211,1.474-3.9,3.79-3.9,3.79,0,.211.105,2.211.105,2.422l-2.421,1.263c-28.32-22.53-64.535-46.533-64.535-46.533s2,8.633,5.369,18.739c-4.422-2.105-7.475-3.684-7.475-3.684s5.9,17.686,13.686,32c2.843,5.791,9.686,11.581,18.845,14.318,0,0,1.579,3.58,2.842,6.106A40.456,40.456,0,0,0,1067.177,736.791Z"/><path class="b" d="M1127.922,716.262c-.1.421-.315.842-.421,1.158,12.739-8.317,34.847-22.74,59.693-38.848,0,0,0,.527,2.211-5.9A594.684,594.684,0,0,0,1127.922,716.262Z"/><path class="b" d="M1097.6,716.262a564.739,564.739,0,0,0-61.587-43.585c2.1,6.316,2.21,5.9,2.21,5.9,24.846,16,47.06,30.531,59.8,38.848A3.807,3.807,0,0,1,1097.6,716.262Z"/><path class="b" d="M1112.762,729.106a20.6,20.6,0,0,1-10.843-10.633c2.632,2.316,6.106,3.053,8.948.421-3.369-1.474-3.79-7.475-4.421-9.054-1.369-3.158-3.369-4.843-5.054-5.475.843-.315,1.58-.526,2.211-.737a9.693,9.693,0,0,1,5.054,6.738s.315-4.421-1.9-7.58a24.74,24.74,0,0,1,12.107,0c-2.211,3.159-1.9,7.58-1.9,7.58a9.944,9.944,0,0,1,5.054-6.738c.737.211,1.474.527,2.211.737a9.633,9.633,0,0,0-5.054,5.475c-.631,1.579-1.052,7.58-4.421,9.054C1115.6,723.315,1114.657,727.632,1112.762,729.106Zm-38.216,8.422a32.842,32.842,0,0,1-9.79-12.633l2.421.737c8.106,2.1,23.688,4.316,23.688,4.316-7.475.211-13.9.737-17.477,1.158a14.608,14.608,0,0,1-2-2.948,26.121,26.121,0,0,0,.948,4.632h0A36.965,36.965,0,0,0,1074.546,737.528Z"/><path class="b" d="M1153.084,732.685h0a26.105,26.105,0,0,0,.947-4.632,12.171,12.171,0,0,1-2,2.948,173.707,173.707,0,0,0-17.476-1.158s15.476-2.106,23.688-4.317l2.421-.737a32.779,32.779,0,0,1-9.791,12.634C1151.084,737.528,1152.242,735.317,1153.084,732.685Z"/><path class="b" d="M1093.391,776.06,1077.6,766.9c-1.158.1-2.21.21-3.263.315l22,12.739A25.282,25.282,0,0,1,1093.391,776.06Z"/><path class="b" d="M1132.134,776.06l15.791-9.159c1.158.1,2.211.21,3.264.315l-22,12.739A16.548,16.548,0,0,0,1132.134,776.06Z"/><path class="b" d="M1105.709,778.271c-6.949-1.58-9.9-4.948-9.9-4.948a18.631,18.631,0,0,0,6.211,7.158C1102.129,780.481,1105.077,779.534,1105.709,778.271Z"/><path class="b" d="M1101.5,770.691l-1.58-1.58a17.764,17.764,0,0,0-4.211,2.211c1.58,1.474,4.527,3.369,9.791,4.527C1104.972,774.27,1103.287,772.586,1101.5,770.691Z"/><path class="b" d="M1112.657,787.219a10.573,10.573,0,0,0-4.527,1.158c-.632-1.158-1.263-2.105-1.9-3.158a14.2,14.2,0,0,0,3.685-.1,31.753,31.753,0,0,1-5.9-2.843h0c.211-.1.527-.21.737-.316h0a5.83,5.83,0,0,0,2-1.474,3.931,3.931,0,0,0,1.263-2.737c0-3.474-2.316-4.632-4.948-7.159-.527-.526-1.158-1.052-1.685-1.684a43.278,43.278,0,0,1,10.107-1.263l1.053,14.633h.1l1.158-14.633a44.11,44.11,0,0,1,10.107,1.263c-.632.526-1.158,1.158-1.685,1.684-2.632,2.527-4.948,3.79-4.948,7.159a3.739,3.739,0,0,0,1.264,2.737,8.068,8.068,0,0,0,2,1.474h0c.211.106.526.211.737.316h0a23.825,23.825,0,0,1-5.9,2.843,10.54,10.54,0,0,0,3.685.1,31.229,31.229,0,0,0-1.9,3.158,10.075,10.075,0,0,0-4.527-1.158Z"/><path class="b" d="M1123.5,780.481a19.3,19.3,0,0,0,6.211-7.158s-2.842,3.474-9.9,4.948C1120.448,779.534,1123.5,780.481,1123.5,780.481Z"/><path class="b" d="M1119.921,775.954c5.369-1.158,8.212-3.053,9.791-4.526a11.284,11.284,0,0,0-4.211-2.211l-1.579,1.579C1122.237,772.586,1120.553,774.27,1119.921,775.954Z"/><path class="c" d="M1108.025,719.21a7.706,7.706,0,0,1-2.948-5.37S1101.708,719.525,1108.025,719.21Z"/><path class="c" d="M1117.71,719.21a7.706,7.706,0,0,0,2.948-5.37S1123.922,719.525,1117.71,719.21Z"/><path class="c" d="M1115.815,792.588c-.421-.526-1.158-1.052-3.158-1.052a4.388,4.388,0,0,0-3.158.947l3.263,13.055Z"/><path class="c" d="M1137.608,735.422v4.738h-1.684v-4.738h-1.369v-1.473h4.211v1.368l-1.158.1Z"/><path class="c" d="M1130.133,735.422v4.738h-1.684v-4.738h-1.369v-1.473h4.317v1.368l-1.264.1Z"/><path class="c" d="M1107.6,738.054h.631v-3.263l-.737-.737h-4.105v6.106h1.579v-2.106h1.158l.947,2.106h1.58Zm-.842-1.474h-1.79v-1.263h1.79Z"/><path class="c" d="M1146.872,735.422v-1.474h-4.527v6.211h4.527v-1.369h-3.053v-.948h3.053V736.37h-3.053v-.948Z"/><path class="c" d="M1113.6,738.791v-4.843h-1.579v6.211h3.79v-1.369Z"/><path class="c" d="M1122.974,733.949h-4.1v5.474l.736.737h4.106v-5.475Zm-.842,4.842h-1.79v-3.369h1.79Z"/><path class="c" d="M1099.813,740.16v-5.475l-.737-.736h-4.106v6.106h1.58v-2h1.789v2h1.474Zm-3.263-3.369v-1.474h1.789v1.474Z"/><path class="c" d="M1090.128,733.949v2.842h-1.79v-2.842h-1.474v6.211h1.474v-2h1.79v2h1.474v-6.211Z"/><path class="c" d="M1182.141,690.469c2.947-6.949,5.264-12,5.264-12-24.846,16.108-46.954,30.531-59.693,38.848a29.92,29.92,0,0,1-1.685,3.684l50.113-27.267-39.058,28.215,1.9-.316,20.634-2s14-1.369,21.793-11.791c3.684-5.685,9.9-22,9.9-22Z"/><path class="c" d="M1062.545,755.846l4.843-2V764.69c1.368-.211,2.737-.421,4.211-.527v-24h-4.211v8.633l-4.843,2V740.16h-4.211v12.423s-3.475,1.684-3.475,1.789l3.475,1.79v10.107c1.368-.211,2.737-.526,4.211-.737Z"/><path class="c" d="M1095.5,755.741c1.053,0,2-.105,3.158-.105.842,2,1.579,4.316,2.316,6.317,1.474,0,2.737-.106,4.211-.106-.842-2-1.579-4.316-2.316-6.316h1.685v-9.9l-1.9-1.895h-12.95l1.685,2v16.634c1.474-.106,2.737-.106,4.211-.211v-6.422Zm0-8h4.843v3.79c-1.685,0-3.159,0-4.843.1Z"/><path class="c" d="M1112.025,747.74h4.843v14.107c1.474,0,2.948,0,4.422.106V745.845l-2-2h-13.16l1.684,2v16.108h4.317C1112.025,761.847,1112.025,747.74,1112.025,747.74Z"/><path class="c" d="M1137.187,758.478c-2.737-.105-5.475-.316-8.212-.421v-2.948l8.212.316v-4.211c-2.737-.1-5.475-.1-8.212-.21v-3.159h8.212V743.95h-14.213l1.58,2v16.213c4.316.1,8.632.316,12.738.632v-4.317Z"/><path class="c" d="M1147.925,747.74h3.685v-3.9h-12v3.9h3.685v15.265c1.579.106,3.053.211,4.632.421Z"/><path class="c" d="M1088.127,745.845l-2-2h-12.949l1.579,1.9v15.791l1.684,2c3.685-.421,7.686-.737,11.686-.948Zm-4.316,12.844c-1.685.1-3.158.21-4.843.316V747.74h4.843Z"/><path class="c" d="M1166.875,755.952c1.369-.632,2.632-1.264,3.9-1.9-4.212-2-8.423-3.685-12.739-5.37v-4.842h4.527v1.789h4.316v-5.579h-14.528l1.684,1.9v10l8.738,3.79v5.58s-2-.211-4.526-.632V758.9l-4.212-.526v5.685q6.949.789,12.95,1.9C1166.875,762.9,1166.875,758.268,1166.875,755.952Z"/><path class="c" d="M1081.916,738.16v.632h-1.474v-3.369h1.474v.421h1.474v-1.9h-4.527v5.474l.737.737h3.79v-2Z"/><path class="c" d="M1043.489,690.469c-3.053-6.949-5.264-11.9-5.264-11.9,24.846,16.108,46.955,30.531,59.693,38.848a29.927,29.927,0,0,0,1.685,3.685L1049.6,693.838l39.058,28.214-1.9-.316-20.635-2s-14-1.369-21.792-11.791c-3.685-5.685-9.9-22-9.9-22Z"/><path class="d" d="M1197.617,685.626a215.586,215.586,0,0,1-11.9,26.109c-4.422,7.58-13.265,12.107-18.424,13.9,0,0-2.526,6.106-5.158,9.475h10.528v14.317l10.106,4.843-10.106,5.054v12.107l-9.791,6s-7.791-.947-11.581-1.368l-30.952,17.9c-6.106,28-7.685,36.11-7.685,36.11s-1.474-7.685-7.685-36.11l-30.952-17.9c-3.79.421-11.581,1.368-11.581,1.368l-9.79-6V759.321l-10.107-5.054,10.107-4.843V735h10.527c-2.526-3.158-5.158-9.475-5.158-9.475a41.457,41.457,0,0,1-8.738-4.106,30.736,30.736,0,0,1-9.791-9.685,235.718,235.718,0,0,1-11.581-26.109c-1.789-4.527-4-11.475-4-11.475s5.79,2.737,7.474,3.579c-2.737-8.317-5.158-19.266-5.158-19.266h0s39.584,26.109,67.378,48.323l.421-.316V705a5.326,5.326,0,0,1,.21-1.579,6.1,6.1,0,0,1,2.632-3.053c-2-1.579-5.79-4-6.106-4.422-2.632-2.316-3.158-4.948-2.948-6.211l.422-2.948,15.054,11.159a31.166,31.166,0,0,1,18.319,0l15.055-11.159.421,2.948c.21,1.368-.211,3.9-2.948,6.211-.316.316-4,2.843-6.106,4.422a5.608,5.608,0,0,1,2.632,3.053,5.329,5.329,0,0,1,.21,1.579v1.474l.421.316c28.425-22.74,67.378-48.323,67.378-48.323h0s-2,9.054-5.158,19.266c1.579-.737,7.474-3.579,7.474-3.579A74.342,74.342,0,0,1,1197.617,685.626Zm-130.44,51.165h-12.633v13.686l-7.58,3.685,7.58,4v12.106l8.422,5.159c3.053-.421,6.948-.947,11.58-1.369l32.321,18.635,5.9,27.056c0-.1,6-27.056,6-27.056l32.321-18.635c4.527.527,8.527.948,11.58,1.369l8.317-5.159V758.162l7.58-3.895-7.58-3.79V736.791h-12.633a28.8,28.8,0,0,0,4.421-6.106c1.053-1.79,2-4,3.159-6.527,9.159-2.738,15.9-8.633,18.845-14.318,7.9-14.318,13.791-32.005,13.791-32.005s-3.369,1.685-7.475,3.685c3.264-10.107,5.369-18.739,5.369-18.739s-36.215,24-64.535,46.532l-2.421-1.473c0-.211.105-2.211.105-2.422,0,0,.316-2.316-3.9-3.79a2.691,2.691,0,0,0-.737-.21c2-1.58,5.264-3.9,7.474-5.475,3.685-2.527,3.264-5.369,3.264-5.369l-13.476,10a30.484,30.484,0,0,0-18.95,0l-13.475-10s-.421,2.737,3.263,5.369c2.316,1.579,5.58,3.9,7.58,5.475a1.952,1.952,0,0,1-.737.21c-4.211,1.474-3.9,3.79-3.9,3.79,0,.211.105,2.211.105,2.422l-2.421,1.263c-28.32-22.53-64.535-46.533-64.535-46.533s2,8.633,5.369,18.739c-4.422-2.105-7.475-3.684-7.475-3.684s5.9,17.686,13.686,32c2.843,5.791,9.686,11.581,18.845,14.318,0,0,1.579,3.58,2.842,6.106A40.456,40.456,0,0,0,1067.177,736.791Z"/></g><rect class="e" width="200" height="200"/></svg>