<svg xmlns="http://www.w3.org/2000/svg" width="200" height="200" viewBox="0 0 200 200"><defs><style>.a{fill:#ffc627;}.b{fill:#8b2332;}.c{fill:#0d2240;}.d{fill:#fff;}.e{fill:none;mix-blend-mode:multiply;isolation:isolate;}</style></defs><g transform="translate(-398.328 -956.408)"><path class="a" d="M498.155,1135.061a78.826,78.826,0,1,1,78.826-78.826,78.912,78.912,0,0,1-78.826,78.826" transform="translate(0)"/><path class="b" d="M497.932,981.24a74.772,74.772,0,1,1-74.772,74.772,74.86,74.86,0,0,1,74.772-74.772" transform="translate(0.223 0.223)"/><path class="c" d="M568.72,1056.008a71.179,71.179,0,1,1-71.18-71.18,71.181,71.181,0,0,1,71.18,71.18" transform="translate(0.41 0.432)"/><path class="b" d="M496.469,1107.3a51.755,51.755,0,1,0-51.729-51.781,51.788,51.788,0,0,0,51.729,51.781" transform="translate(1.48 1.537)"/><path class="c" d="M447.941,1055.378a48.291,48.291,0,1,1,48.291,48.292,48.337,48.337,0,0,1-48.291-48.292" transform="translate(1.667 1.729)"/><path class="a" d="M538.45,1065.947c.052-8.262-4.413-19.655-8.365-27.2l-5.85,3.285-.564-.924h0l-1.489.924-58.247,36.642v.051l-2.668,3.233-.052-.1a4.823,4.823,0,0,1-2.72-2.412,5.009,5.009,0,0,1-1.026-3.438l-.051-.1,4-1.077.052.051,29.97-19.5-20.219-12.726h0l-2.515-1.592h0l-.616.924-5.85-3.284c-4,7.6-8.416,18.936-8.365,27.2-3.078-9.6.1-22.684,4.414-31.151l.051-.052-1.077-.616,3.49-5.389,1.026.719c5.85-7.441,16.319-15.7,26.275-16.986-7.493,3.438-15.961,12.162-21.144,18.936l5.439,3.951-.667.976h0l1.385.923,23.042,14.986,22.734-14.781,1.745-1.128h0l-.667-.976,5.439-3.951c-5.183-6.723-13.6-15.5-21.092-18.936,9.956,1.283,20.425,9.545,26.326,16.986l.976-.719,3.489,5.389-1.077.616c4.362,8.622,7.544,21.708,4.465,31.253m-7.544,8.879-.051.051-27.559-17.91-4.823,2.873,29.971,18.886-.052.052,2.669,3.233.1-.1a4.83,4.83,0,0,0,2.72-2.412,5.3,5.3,0,0,0,1.026-3.438l.051-.1Z" transform="translate(1.941 2.039)"/><path class="a" d="M498.5,1017.3l-2.053,2.72-2.874-6.826v31.612l9.648-12.317,9.7,2.515Z" transform="translate(4.325 2.085)"/><path class="d" d="M498.342,1024.516v-7.39l-2.053,2.669Z" transform="translate(4.483 2.313)"/><path class="d" d="M494.537,1013.2l-17.5,21.3,7.7-1.95,9.8,12.265Z" transform="translate(3.361 2.085)"/><path class="a" d="M483.664,1089.688a15.614,15.614,0,0,1,9.237-4.259V1080.6H479.559a14.9,14.9,0,0,0,4.1,9.083" transform="translate(3.508 6.011)"/><path class="a" d="M492.551,1093.772v-5.748a12.487,12.487,0,0,0-6.979,3.182,15.968,15.968,0,0,0,6.979,2.566" transform="translate(3.859 6.443)"/><path class="d" d="M494.98,1065.377v5.7a12.186,12.186,0,0,0,6.928-3.181,15.246,15.246,0,0,0-6.928-2.516" transform="translate(4.407 5.124)"/><path class="d" d="M504.217,1069.645a15.238,15.238,0,0,1-9.237,4.208v4.414h13.343a14.97,14.97,0,0,0-4.106-8.622" transform="translate(4.407 5.373)"/><path class="d" d="M492.548,1071.074v-5.7a14.742,14.742,0,0,0-6.927,2.566,12.616,12.616,0,0,0,6.927,3.13" transform="translate(3.861 5.124)"/><path class="a" d="M494.98,1080.6v4.823a15.021,15.021,0,0,1,9.237,4.259,14.953,14.953,0,0,0,4.157-9.083Z" transform="translate(4.407 6.011)"/><path class="d" d="M479.607,1078.267H492.95v-4.414a15.671,15.671,0,0,1-9.237-4.208,14.368,14.368,0,0,0-4.106,8.622" transform="translate(3.511 5.373)"/><path class="a" d="M494.98,1093.77a15.247,15.247,0,0,0,6.928-2.516,12.341,12.341,0,0,0-6.928-3.181Z" transform="translate(4.407 6.446)"/><path class="a" d="M547.992,1046.234l1.9,3.233-4.67,4.362,6.056-2.258,1.9,3.285.308-3.7,4.054-.257-3.284-2,4.054-6.415-6.723,5.44Z" transform="translate(7.333 3.791)"/><path class="a" d="M439.973,1046.186l-1.847,3.233,4.619,4.362-6.056-2.258-1.9,3.285-.308-3.7-4.054-.257,3.336-2-4.105-6.415,6.723,5.44Z" transform="translate(0.602 3.788)"/><path class="d" d="M449.67,1024.973l-9.392-6.671,2.1-2.977a9.894,9.894,0,0,1,1.232-1.334,3.386,3.386,0,0,1,.872-.616.7.7,0,0,0,.155-.205c.051-.051.051-.1.1-.153l.1-.205,8.263,5.85a6.766,6.766,0,0,1-.411,1.693,6.059,6.059,0,0,1-.821,1.489l-.051.051Zm-5.9-8.519a.78.78,0,0,0-.051.872l.153.154,5.747,4.1h0a.731.731,0,0,0,.77-.308l.051-.051a.77.77,0,0,0-.051-1.026l-5.594-4a.688.688,0,0,0-1.026.257Z" transform="translate(1.22 2.062)"/><path class="d" d="M462.722,1010.726l-5.388-8.16-.513.359-.975-1.488,5.953-3.952.975,1.488-2.925,1.95,1.642,2.463,2.258-1.488.565,1.591-1.95,1.232,1.9,2.823,2.925-1.9.975,1.488Z" transform="translate(2.127 1.169)"/><path class="d" d="M483.891,1001.433l-2.309-3.849-.257.051.872,4.157-2.72.564-2-9.545-.564.1-.359-1.745,2.874-.565,2.72,3.849.205-.1-.872-4.157,2.72-.565,2.361,11.239Z" transform="translate(3.333 0.712)"/><path class="d" d="M500.848,1000.794l.256-11.65,2.566.411-.359,7.134.256.052,2.1-6.878,2.566.411c-1.026,3.079-3.541,10.161-3.849,11.034Z" transform="translate(4.748 0.684)"/><path class="d" d="M539.706,1019.281l-.616-.821-3.285,2.566-1.642-2.156,9.135-7.03,2.207,2.873a7.738,7.738,0,0,1,.924,1.54,8,8,0,0,1,.411.976.714.714,0,0,0,.153.205l.1.1.155.153-4.875,3.746c-.257-.153-.565-.308-.821-.461l-.1-.052-2.618,4-1.591-2Zm4.259-3.541a.852.852,0,0,0-.769-.359c-.052,0-.1.051-.154.1l-2.156,1.693a.653.653,0,0,0-.051.924v.052a.734.734,0,0,0,.924.308l2.206-1.642a.743.743,0,0,0,0-1.078Z" transform="translate(6.689 2.005)"/><path class="d" d="M518.839,1006.68l5.081-8.365-.565-.308.924-1.54,6.107,3.746-.924,1.488-2.977-1.847L525,1002.318l2.309,1.437-1.283,1.334-1.95-1.232-1.745,2.823,3.028,1.848-.924,1.54Z" transform="translate(5.796 1.11)"/><path class="d" d="M475.466,1114.182a5.839,5.839,0,0,1-1.744-.769,6.211,6.211,0,0,1-1.437-1.077l2.976-9.8a6.919,6.919,0,0,1,1.8-.154,7.751,7.751,0,0,1,1.9.359,5.86,5.86,0,0,1,1.745.771,8.528,8.528,0,0,1,.719.461,1.037,1.037,0,0,0,.411.205c.051,0,.1.051.153.051l.257.052-.1.256-.873,2.823-2.617-.77.359-1.232a.705.705,0,0,0-.461-.821c-.051,0-.1-.051-.153-.051a.739.739,0,0,0-.976.411l-2.156,7.031a.724.724,0,0,0,.052.461.8.8,0,0,0,.564.411.741.741,0,0,0,.976-.411l.924-2.977-.821-.461.872-1.437,3.13.924-1.8,5.953a6.864,6.864,0,0,1-1.8.155,17.773,17.773,0,0,1-1.9-.36" transform="translate(3.085 7.279)"/><path class="d" d="M497.246,1116.665a7.89,7.89,0,0,1-1.9-.1,5.968,5.968,0,0,1-1.694-.565l-.564-10.264a5.325,5.325,0,0,1,1.642-.719,8.175,8.175,0,0,1,1.9-.308,7.887,7.887,0,0,1,1.9.1,5.447,5.447,0,0,1,.873.205,1.258,1.258,0,0,0,.411.052h.154l.257-.052v.257l.154,2.925-2.72.153-.052-1.283a.686.686,0,0,0-.719-.616h-.153c-.462.052-.821.36-.77.719l.36,7.339a.635.635,0,0,0,.205.411.948.948,0,0,0,.667.205.715.715,0,0,0,.77-.719l-.155-3.13-.924-.1.308-1.642,3.233-.155.36,6.21a5.3,5.3,0,0,1-1.642.719,8.289,8.289,0,0,1-1.9.36" transform="translate(4.296 7.414)"/><path class="d" d="M455.827,1104.192a6.789,6.789,0,0,1-1.386-1.333,5.35,5.35,0,0,1-.924-1.54l5.594-7.184-.461-.36,1.077-1.385,2.669,2.053-5.9,7.6a.769.769,0,0,0,.257,1.026.788.788,0,0,0,1.077-.052l5.9-7.595,2.156,1.693-6.672,8.622a5.316,5.316,0,0,1-1.693-.513,6.751,6.751,0,0,1-1.693-1.026" transform="translate(1.991 6.697)"/><path class="d" d="M534.427,1102.17l-6.312-7.441-1.694,1.488-1.18-1.386,5.542-4.721,1.18,1.386-1.694,1.437,6.312,7.39Z" transform="translate(6.169 6.565)"/><path class="d" d="M548.032,1086.93a7.859,7.859,0,0,1-1.18,1.488,5.643,5.643,0,0,1-1.437,1.027l-2.36-1.488,1.436-2.309,1.232.769a.61.61,0,0,0,.513.052.823.823,0,0,0,.462-.36v-.051a.775.775,0,0,0-.155-1.026l-2.669-1.642-1.591,2.464a1.309,1.309,0,0,1-1.693.616,1.153,1.153,0,0,1-.257-.155l-3.746-2.361a5.57,5.57,0,0,1,.36-1.744,6.462,6.462,0,0,1,.821-1.694,7.9,7.9,0,0,1,1.18-1.488,8.824,8.824,0,0,1,.769-.668.891.891,0,0,0,.205-.256.188.188,0,0,0,.052-.155l.1-.2,2.72,1.693-1.437,2.309-1.129-.719a.189.189,0,0,0-.154-.051.831.831,0,0,0-.821.411v.051a.775.775,0,0,0,.154,1.026l1.9,1.18.051.052.1.051,1.54-2.412a1.4,1.4,0,0,1,1.8-.666l.462.308.1.051,3.694,2.309a5.572,5.572,0,0,1-.359,1.745,4.193,4.193,0,0,1-.668,1.848" transform="translate(6.83 5.844)"/><path class="d" d="M512.118,1103.769l-.565.257-.667-1.591,6.62-2.771.667,1.642-3.233,1.334,1.078,2.668,2.515-1.078.308,1.848-2.155.872,1.283,3.028,3.233-1.334.718,1.642-6,2.515Z" transform="translate(5.333 7.121)"/><path class="d" d="M441.387,1088.806l2.72-3.592-.154-.205-3.541,2.361-1.54-2.309,8.108-5.44-.359-.513,1.488-.975,1.642,2.463-2.566,3.952.205.154,3.541-2.361,1.54,2.309-9.545,6.415Z" transform="translate(1.138 5.867)"/></g><rect class="e" width="200" height="200"/></svg>