<svg xmlns="http://www.w3.org/2000/svg" width="200" height="200" viewBox="0 0 200 200"><defs><style>.a{fill:#fff;}.b{fill:#c60c30;}.c{fill:#00338d;}.d{fill:none;mix-blend-mode:multiply;isolation:isolate;}</style></defs><g transform="translate(-1021.223 -548.949)"><path class="a" d="M1047.766,674.764c12.881-8.227,16.933-17.493,16.933-17.493l-36.478,5.236,15.5-27.539,31.146-2.623a118.974,118.974,0,0,1,30.878-18.572s1.957-3.412,12.672-9.58a123.386,123.386,0,0,1,21.017-9.493s7.586-2.61,9.823-2.741l-.658-2.412,14.3-1.226.368-1.371s7.465.5,11.747,2.4l.843-1.123a46.8,46.8,0,0,1,17.427,15.881,31.614,31.614,0,0,1,13.668,2.689,11.068,11.068,0,0,1,6.534,10.666,80.513,80.513,0,0,1-3.076,20.184,23.794,23.794,0,0,1-.9,2.511,20.278,20.278,0,0,1-1.842,2.9,27.488,27.488,0,0,0-4.7,6.562s-.713,2.044-2.127,5.758c0,0-1.088,5.107-8.505,5.391,0,0-7.219,9.138-10.229,11.76l-.254-2.22a78.953,78.953,0,0,1-9.406,7.424l1.476-12.935s.362-2.31-1.1-2.476l-3.772-.091s1.235,7.787-.256,11.386c0,0-.949,5.651-9.716,8.342a72.464,72.464,0,0,1-14.522,2.762l-1.665-.265-12.2,5,3.565-12.8s-4.571.463-4.964-.11l-13.584,5.826,5.338-15.3,3.659-2.026-1.167-1.587-7.509.068-2.763,2.149a43.771,43.771,0,0,0-12.58-1.213l-31.565,25.626-7.91,17.489-9.445-12.633,2.956-3.868-1.123-.845-4.281,3.37-6.339,17.077-9.335-13.178,2.4-5.356-.531-3.281a29.524,29.524,0,0,0,5.981-4.643,15.453,15.453,0,0,0,2.078-2.993c.839-2.03.87-4.229,1.806-4.926,1.172-.8,2.067-1.33,2.381-1.531" transform="translate(0 0)"/><path class="b" d="M1045.877,640.53l-12.069,21.276,155.733-23.217s-5.413-4.117,2.432-10.628l-146.1,12.569" transform="translate(-0.382 -2.802)"/><path class="c" d="M1204.22,622.446l-124.372,10.22c13.355-10.932,31.709-17.562,31.709-17.562l-1.63-.9,3.055-1.438.438-1.316c24.024-16.089,40.959-16.874,40.959-16.874l-.764-2.274c8.213-.857,11.977-.829,11.977-.829l.315-.862a19.833,19.833,0,0,1,10.572,2.944l.93-1.386c12.807,8.868,14.659,15.335,14.659,15.335,9.291-.76,14.254,1.978,14.254,1.978,6.677,2.872,4.684,12.621,4.684,12.621.015,1.878-1.839,11.733-1.839,11.733-1.535,6.8-4.3,9.39-4.3,9.39a16.558,16.558,0,0,0-4.438,7.091c-1.849,5.088-2.5,5.744-2.5,5.744-1.426,2.338-7.207,2.222-7.207,2.222-1.35,3.264-6.616,8.967-6.616,8.967l-.483-1.626-6.95,6.194,1.088-8.618c.4-2.939-2.769-3.615-2.769-3.615l-15.195.664c-2.223,10.343-10.207,11.924-10.207,11.924a81.351,81.351,0,0,1-19.162,1.855l-.492-.371-8.791,3.827,3.1-8.591,4.685-1.861c.361-.116.23-.6.23-.6l-.448-1.376c4.826-.436,9.231-3.825,9.231-3.825.562-.456-.28-.648-.28-.648l-22.366.494-1.764,1.693c-19.318-3.2-32.549,2.449-32.549,2.449-15,5.588-24.114,19.863-24.114,19.863l-9.319,7.159-4.706,12.707-5.2-7.471,2.124-4.877-.324-2.274a20.756,20.756,0,0,0,6.495-6.317,6.268,6.268,0,0,0,1.457-3.843,3.005,3.005,0,0,1,1.387-2.141c17.364-10.5,19.982-21.592,19.982-21.592l122.435-18.533c-1.993,9.311,5.543,5.918,5.543,5.918-4.875-3.442-.463-5.887-.463-5.887-4.216-7.174,7.944-15.491,7.944-15.491Zm-42.9,39.718,5.254-.06s1.052,6.937.428,10.031a9.652,9.652,0,0,1-5.731,6.4,57.972,57.972,0,0,1-17.284,3.593l-.5-.43-7.861,3.318,2.583-9.145s10.537-.814,13.72-1.768c0,0,8.17-1.605,9.393-11.936ZM1096.6,664.88l-29.1,23.582-6.286,13.933-5.579-7.478,3.144-4.332-.245-1.724c6.617-3.7,6.651-9.161,6.651-9.161,12.77-15.045,31.414-14.821,31.414-14.821Z" transform="translate(-0.643 -0.25)"/></g><rect class="d" width="200" height="200"/></svg>