<svg xmlns="http://www.w3.org/2000/svg" width="200" height="200" viewBox="0 0 200 200"><defs><style>.a{fill:#004687;}.b{fill:none;mix-blend-mode:multiply;isolation:isolate;}</style></defs><g transform="translate(-1608.334 -885.463)"><path class="a" d="M1647.991,934.984c0-9.514-5.783-12.571-10.966-12.5l-1.691-.071v-4.93h33.78l.006,5.021c-4.842.406-9.79,3.669-9.79,12.48v29.634l2.342-1.452c4.867-7.6,17.642-27.766,20.3-33.589,3.272-7.135-1.729-7.135-6.525-7.135v-4.979h29.944v4.979h-2.108c-3.258,0-7.287,0-12.669,7.348-6.879,9.42-20.543,32.246-20.543,32.246,20.926,1.738,28.8,33.559,34.172,37.876-3.073-22.732,12.1-51.078,34.369-49.978a37.925,37.925,0,0,1,12.665,1.93c7.108,2.164,7.758-1.719,8.708-6.058h5.315v37.452h-4.6c-.381-6.486-3.282-27.938-22.033-28.59-19.06-.639-22.648,23.813-22.906,40.5-.955,61.668,37.822,59.726,44.925,39.808,1.037-2.877.585-3.7-.58-4.329-8.451-4.534,1.346-16.666,6.774-6.058,2.49,4.869-1.966,27.929-25.207,27.929-36.084,0-46.644-55.857-60.079-74.036-10.467-14.157-19.005-7.785-22.216-4.321l-.142,9.727.086,17.328c0,9.524,5.778,12.581,10.971,12.52l1.692.059v4.91h-36.653v-4.91l1.692-.059c5.183.059,10.966-3,10.966-12.522V934.984m122.649,111.444H1768.7v5.275h-1.306v-5.275h-1.931v-1.118h5.18v1.119Zm8.75,5.275h-1.306v-5.092h-.03l-1.851,5.092h-1.265l-1.8-5.092h-.036v5.092h-1.294v-6.392h2.264l1.482,4.166h.03l1.551-4.169h2.252v6.394Z"/></g><rect class="b" width="200" height="200"/></svg>