<svg xmlns="http://www.w3.org/2000/svg" width="200" height="200" viewBox="0 0 200 200"><defs><style>.a{fill:#bec0c2;}.b{fill:#002d62;}.c{fill:#fdbb30;}.d{fill:#fff;}.e{fill:none;mix-blend-mode:multiply;isolation:isolate;}</style></defs><g transform="translate(-1641.688 -959.125)"><path class="a" d="M1820.34,1058.95a78.825,78.825,0,1,1-78.825-78.826A78.818,78.818,0,0,1,1820.34,1058.95Z"/><path class="b" d="M1816.218,1058.949a74.7,74.7,0,1,1-74.7-74.7A74.7,74.7,0,0,1,1816.218,1058.949Z"/><path class="c" d="M1741.514,987.4a71.526,71.526,0,1,0,71.5,71.553A71.511,71.511,0,0,0,1741.514,987.4Z"/><path class="b" d="M1792.7,1058.949c0,28.773-22.948,52.1-51.183,52.1-28.292,0-51.183-23.331-51.183-52.1s22.892-52.1,51.183-52.1S1792.7,1030.176,1792.7,1058.949Z"/><path class="d" d="M1789.885,1058.949c0,27.173-21.63,49.2-48.37,49.2-26.683,0-48.37-22.022-48.37-49.2s21.63-49.2,48.37-49.2S1789.885,1031.776,1789.885,1058.949Z"/><path class="b" d="M1689.167,1039.287l-.437,1.649-13.19-3.249.436-1.7Z" transform="translate(0 5.686)"/><path class="b" d="M1691.01,1019.017l5.674,4.365-.97,1.261-10.766-8.244.533-.727,7.808,2.037-5.868-4.51.97-1.309,10.766,8.244-.533.776Z" transform="translate(2.428 3.426)"/><path class="b" d="M1711.96,1008.106l.727-.388a1.117,1.117,0,0,0,.582-1.552c-1.406-2.764-2.425-4.7-3.831-7.468a1.076,1.076,0,0,0-1.5-.485l-.825.436Zm-7.08-9.942,2.667-1.358a2.288,2.288,0,0,1,3.3.873c1.7,3.347,2.474,4.8,4.171,8.1a2.21,2.21,0,0,1-1.164,3.055l-2.764,1.406Z" transform="translate(4.47)"/><path class="b" d="M1732.764,1003.984l-1.7.1-.776-13.578,1.794-.1Z" transform="translate(6.76)"/><path class="b" d="M1754.441,998.31l-.1-.049-2.764,4.559,1.842.679Zm-1.891,9.262.581-2.618-2.279-.873-1.358,2.327-1.6-.63,7.226-11.784,1.7.63-2.57,13.579Z" transform="translate(8.929)"/><path class="b" d="M1772.723,1012.858l-5.237,4.9-1.115-1.164,9.893-9.311.582.63-3.249,7.42,5.431-5.092,1.115,1.164-9.893,9.311-.63-.679Z" transform="translate(11.271 2.944)"/><path class="b" d="M1787.9,1033.759l-.049-.1-5.286.728.631,1.842Zm-8.39,4.365,2.377-1.213-.776-2.327-2.668.436-.533-1.649,13.724-1.843.582,1.7-12.124,6.6Z" transform="translate(14.107 5.362)"/><path class="b" d="M1686.355,1077.113l.97,1.843,4.8-2.522-.97-1.843Zm-5.917,3.1-.824-1.552,12.027-6.256,1.988,3.831c.388.776.194,1.358-.388,1.649l-5.383,2.813a1.1,1.1,0,0,1-1.6-.534l-1.213-2.327Z" transform="translate(0 9.637)"/><path class="b" d="M1703.037,1093.5l-.1-.1-3.977,3.492,1.5,1.212Zm-4.656,8.293,1.31-2.328-1.94-1.552-1.988,1.794-1.358-1.066,10.426-9.069,1.406,1.115-6.449,12.221Z" transform="translate(3.397 14.107)"/><path class="b" d="M1722.483,1107.859l1.7.436-.873,3.492a1.064,1.064,0,0,1-1.309.824c-1.212-.291-2.037-.533-3.3-.824a1.092,1.092,0,0,1-.824-1.358c1.067-4.316,1.649-6.693,2.716-11.009a1.064,1.064,0,0,1,1.309-.824c1.212.291,2.085.534,3.346.824a1.1,1.1,0,0,1,.776,1.358l-.679,2.765-1.7-.388.582-2.425-2.037-.485-2.522,10.329,2.037.485Z" transform="translate(5.749 14.107)"/><path class="b" d="M1747.458,1112.514l-4.365.824-2.376-13.385,4.316-.776.243,1.455-2.619.437.776,4.365,2.473-.437.243,1.455-2.425.437.824,4.655,2.619-.436Z" transform="translate(8.046 14.107)"/><path class="b" d="M1767.437,1103.979l-1.455.97-7.662-11.251,3.734-2.522a1.028,1.028,0,0,1,1.6.291c1.067,1.552,1.745,2.571,2.812,4.122a1.064,1.064,0,0,1-.291,1.6l-.194.145,4.947,4.268-1.6,1.115-5.577-4.946-.049-.631,1.164-.776-2.473-3.588-1.843,1.261Z" transform="translate(10.303 14.107)"/><path class="b" d="M1781.258,1083.514l2.716,1.7.776-1.261-2.619-1.649-5.043.242a1.447,1.447,0,0,1-.922-.194c-.97-.63-1.406-.921-2.473-1.551a1.084,1.084,0,0,1-.339-1.5c.533-.873.969-1.551,1.551-2.424a1.013,1.013,0,0,1,1.5-.291l2.376,1.5-.921,1.455-2.086-1.31-.776,1.261,2.037,1.261,4.8-.291a1.952,1.952,0,0,1,1.212.243c1.261.824,1.7,1.067,3.007,1.891a1.065,1.065,0,0,1,.388,1.5c-.533.873-.97,1.552-1.552,2.425a1.025,1.025,0,0,1-1.5.291l-3.007-1.891Z" transform="translate(14.107 10.217)"/><path class="a" d="M1721.271,1026.291l-11.154,50.725h22.113s2.474-10.087,2.668-11.008h9.6c7.178.048,13.045-2.376,17.022-7.032,7.226-7.856,5.965-19.349.533-25.9a20.1,20.1,0,0,0-15.76-7.322h-24.878Z" transform="translate(7.679 6.976)"/><path class="b" d="M1733.3,1064.02l-2.667,11.008h-18.04l10.426-47.185h23.229a18.083,18.083,0,0,1,14.258,6.595c5.14,6.207,5.673,16.585-.534,23.277-3.782,4.413-9.359,6.4-15.47,6.353Z" transform="translate(7.681 6.986)"/><path class="c" d="M1720.592,1038.609h10.184a1.852,1.852,0,0,1,1.891,2.473,15.124,15.124,0,0,0-.728,3.006c-.1.776.776,1.261,1.261,1.261h20.756q.582,0,.582-.291a7.914,7.914,0,0,0-.1-1.357c-.1-.437-.146-.534-.534-.534-2.57,0-3.637-1.164-6.352-2.91a19.971,19.971,0,0,0-10.136-2.764h-16.682Z" transform="translate(7.453 5.964)"/><path class="c" d="M1733.2,1052.042a15.673,15.673,0,0,1-.921-2.522,2.588,2.588,0,0,0-2.764-1.94H1718.6l.291-1.212,35.4.048c.34,0,.291.146.243.534,0,.388-.1,1.115-.146,1.551s-.388.34-.727.34a5.664,5.664,0,0,0-3.152.873,27.425,27.425,0,0,1-6.353,3.588c-1.891.534-8.923,2.716-10.96-1.26" transform="translate(7.332 6.895)"/><path class="c" d="M1716.664,1056.5h18.476a3.332,3.332,0,0,1,2.085.63,16.709,16.709,0,0,0,5.723,2.862,6.191,6.191,0,0,0,4.122-.922,16.351,16.351,0,0,0,6.886-8.632c.194-.679-.194-.63-.679-.582-1.552.1-3.2,1.5-5.334,2.91a22.7,22.7,0,0,1-10.718,2.667h-20.27Z" transform="translate(7.17 7.378)"/><path class="c" d="M1743.821,1031.722a4.217,4.217,0,0,1,1.7.1,15.762,15.762,0,0,1,8.244,8.923c.291.776.339,1.213,0,1.261-1.6.194-2.328-.63-4.268-1.891a23.063,23.063,0,0,0-6.013-2.91,33.985,33.985,0,0,0-7.226-.873c-.533,0-.485-.242-.242-.485A14.583,14.583,0,0,1,1743.821,1031.722Z" transform="translate(8.23 5.46)"/><path class="c" d="M1760.648,1045.058a.364.364,0,0,1-.339.34h-4.074c-.533,0-.533-.243-.533-.534a9.439,9.439,0,0,1-.1-1.26c0-.34-.146-.728.291-.922a6.12,6.12,0,0,0,2.667-2.522c.145-.339.388-.824.679-.388A10.259,10.259,0,0,1,1760.648,1045.058Z" transform="translate(9.463 6.091)"/><path class="c" d="M1759.193,1052.332c-.048.146-.339.243-.388,0a6.415,6.415,0,0,0-2.958-3.2c-.291-.146-.291-.34-.291-.631.049-.291.146-1.212.194-1.6,0-.291.146-.533.388-.533h4.219c.146,0,.34.145.34.242A13.372,13.372,0,0,1,1759.193,1052.332Z" transform="translate(9.466 6.8)"/><path class="c" d="M1748.234,1060.237c-.291.049-.97-.048.048-.63a17.336,17.336,0,0,0,6.547-8.39c.291-.921.291-.97.679-.873a4.516,4.516,0,0,1,1.794,1.552c.582.776.824,2.328.485,2.716A14.472,14.472,0,0,1,1748.234,1060.237Z" transform="translate(8.998 7.411)"/><path class="c" d="M1756.041,1041.324c-.727.388-.873.291-1.018-.242a18.3,18.3,0,0,0-6.886-9.166c-.291-.194-.243-.339,0-.291,3.831.534,7.613,2.619,9.5,5.48C1758.757,1038.754,1756.72,1040.936,1756.041,1041.324Z" transform="translate(9.007 5.437)"/></g><rect class="e" width="200" height="200"/></svg>