<svg xmlns="http://www.w3.org/2000/svg" width="200" height="200" viewBox="0 0 200 200"><defs><style>.a{fill:#c6011f;}.b{fill:none;mix-blend-mode:multiply;isolation:isolate;}</style></defs><g transform="translate(-137.867 -874.701)"><path d="M258.779,938.284c24.565,0,43.105,11.342,49.327,21.18h30.928c-.567-1.127-1.952-4.874-1.952-4.874H307.545c-6.225-9.837-25.615-21.177-50.18-21.177-41.773,0-58.166,27.758-58.166,41.061a36.136,36.136,0,0,0,6.06,20.24c-2.494-4.7-3.083-11.76-3.083-16.331,0-13.3,15.77-40.1,56.6-40.1" transform="translate(-7.373 -3.369)"/><path d="M248.894,1046.664c-42.707,0-59.5-18.324-79.269-39.322-8.113-8.614-13.183-16.391-26.316-26.076l2.7,6.241c12.629,10.328,17.839,17.792,25.949,26.4,19.776,21.013,36.279,37.537,78.988,37.537,37.385,0,66.332-18.477,79.935-41.205l-2.04-4.784c-13.615,22.736-42.553,41.213-79.949,41.213" transform="translate(0 -9.682)"/><path class="a" d="M249.992,930.043c24.565,0,43.955,11.342,50.18,21.18h29.536c-13.694-27.054-49.051-43.348-84.41-43.348-34.725,0-61.265,20.032-76.488,38.07-14.771,17.481-21.551,23.087-24.148,24.849a7.563,7.563,0,0,1-1.355.792c13.136,9.685,18.206,17.461,26.317,26.076,19.776,21,36.564,39.321,79.268,39.321,37.4,0,66.334-18.476,79.951-41.215h-29.2c-13.672,10.38-30.405,18.745-51.676,18.745-19.648,0-40.171-8.195-50.075-23.165a36.134,36.134,0,0,1-6.063-20.239c0-13.308,16.393-41.065,58.166-41.065m73.7,92.572h-2.139v5.811h-1.439v-5.811h-2.136v-1.261h5.715Zm9.661,5.8h-1.436V1022.8h-.037l-2.049,5.622h-1.4l-1.971-5.622h-.034v5.63h-1.436v-7.072h2.5l1.638,4.625h.037l1.7-4.625h2.484v7.064Z"/></g><rect class="b" width="200" height="200"/></svg>