<svg xmlns="http://www.w3.org/2000/svg" width="200" height="200" viewBox="0 0 200 200"><defs><style>.a{fill:#fff;}.b{fill:none;mix-blend-mode:multiply;isolation:isolate;}</style></defs><g transform="translate(-1316.336 -573.055)"><path class="a" d="M1374.779,603.127c-4.357,4.642-8.561,13.85-9.168,20.083-.193,1.986-.292,3.85-.292,5.582a28.853,28.853,0,0,0,4.076,15.715,36.108,36.108,0,0,0,16.025,13.877c6.59,3.06,16.076,7.315,17.215,7.768.386.161.88.4,1.422.669-2.179,1.561-3.461,2.495-4.492,3.249-5.87-1.347-13.251-.312-14.969.1a42.569,42.569,0,0,0-18.019,8.85c-4.728,4.144-8.282,8.889-9.482,12.711-1.337,4.255-.9,7.269,1.285,8.973,3.224,2.514,7.391-.056,8.751-.912,2.806-1.77,7.973-5.01,14.491-5.987,5.657-.839,13.256-.058,16.758,2.211v6.186c-.854.762-1.743,1.591-1.743,1.591a4.659,4.659,0,0,0-1.35,3.323,4.951,4.951,0,0,0,.314,1.733,4.345,4.345,0,0,0,1.921,2.26c11.26,6.855,11.26,6.855,18.838,11.487-.112.038-.328.048-.413.094-1,.434-3.319,1.883-3.319,5.922V745.1l9.795,9.358a7.245,7.245,0,0,0,5.663,2.449,5.971,5.971,0,0,0,4.365-2.355s6.525-8.378,10.573-13.558c2.989,4.633,7.707,11.939,7.707,11.939-.046-.094.114.246.114.246.546,1.176,1.685,3.625,4.363,4.311a6.055,6.055,0,0,0,5.24-1.243c2.927-2.127,9.738-7.446,10.911-8.6l.212-.227a5.445,5.445,0,0,0,2.038-3.991V727.682a5.051,5.051,0,0,0-2.988-4.678c-1.521-.6-3.262-.6-5.329,1.1-.932.745-2.509,1.884-4.811,3.635-1.342-2.137-2.053-3.276-3.066-4.886,1.983-2.495,6.691-8.436,9.337-11.76.334.264,1.022.819,1.022.819l.115.076c2.774,1.845,4.883,1.157,5.9.584,2.743-1.554,2.8-5.01,2.753-6.045l.005-13.2-8.323-8.634a5.6,5.6,0,0,0-4.628-1.912,5.764,5.764,0,0,0-4.363,2.675c-.449.649-4.406,5.62-8.513,10.733V678.914c.5-.517,1.031-1.045,1.031-1.045a7.676,7.676,0,0,0,2.434-5.187,5.043,5.043,0,0,0-.32-1.8,5.483,5.483,0,0,0-4.184-3.333,34.367,34.367,0,0,0,1.077-7.841c.005-.2.01-.4.01-.6,0-5.772-1.333-10.64-3.969-14.481-3.116-4.557-5.541-6.091-8.883-8.219l-.862-.546c-3.893-2.486-24.337-13.218-25.2-13.7-.07-.027-7.838-3.868-7.838-3.868-5.126-2.59-5.484-4.406-5.484-5.386v-.179a4.614,4.614,0,0,1,4.44-2.748,23.886,23.886,0,0,1,9.053,1.421c6.251,2.1,6.434,4.643,6.434,5.583-.005.236-.2,2.873-.2,2.873l13.015,8.887,19.51-25.031-15.84-10.591-2.1,2.089a11.636,11.636,0,0,1-1.4,1.29c-.309-.038-1.128-.179-1.128-.179l-3.5-1.33c-5.495-2.229-14.7-5.938-23.074-5.938C1389.1,589.052,1381.4,596.009,1374.779,603.127Z"/><path d="M1376.743,605.03c-3.943,4.189-7.884,12.8-8.431,18.424-.178,1.883-.273,3.644-.273,5.263a26.316,26.316,0,0,0,3.662,14.312,33.288,33.288,0,0,0,14.8,12.766c6.878,3.2,16.1,7.333,17.113,7.738a22.368,22.368,0,0,1,5.5,3.135c-.98.716-8.531,6.2-9.011,6.534-4.961-1.61-12.764-.706-14.978-.2a39.927,39.927,0,0,0-16.821,8.248c-4.3,3.757-7.6,8.126-8.647,11.431-.945,2.994-.837,4.962.311,5.866,1.111.856,2.91.489,5.489-1.092,2.754-1.752,8.484-5.348,15.61-6.412a39.014,39.014,0,0,1,14.575.82,23.863,23.863,0,0,1,5.5,2.579v9.132c-.415.376-2.584,2.352-2.584,2.352a1.755,1.755,0,0,0-.5,1.292,2.154,2.154,0,0,0,.132.752,1.668,1.668,0,0,0,.72.8l26.852,16.354s6.375-4.859,7.491-5.7c.437.725.993,1.648,1.294,2.165-.584.707-7.462,9.115-8.315,10.15l-6-5.356c-1.493-1.375-2.661-1.176-3.216-.933-1.017.461-1.595,1.659-1.595,3.314v15.3l8.962,8.567a4.547,4.547,0,0,0,3.461,1.6,3.128,3.128,0,0,0,2.282-1.252S1440.5,739.663,1443.2,736.2l9.934,15.356.3.593c.444.97,1.116,2.4,2.482,2.75a3.374,3.374,0,0,0,2.834-.781c2.922-2.119,9.641-7.382,10.586-8.333l.232-.227c.658-.659,1.181-1.177,1.181-1.967V727.829a2.233,2.233,0,0,0-1.238-2.025c-.54-.245-1.431-.292-2.547.791.057-.056-5.409,4.078-7.258,5.47l-5.823-9.265c.612-.752,11.552-14.573,12.39-15.618.839.668,3.182,2.5,3.182,2.5,1.186.781,2.156.942,2.937.49,1.386-.771,1.312-3.125,1.3-3.4V694.556l-7.614-7.881a2.7,2.7,0,0,0-2.236-.96,2.92,2.92,0,0,0-2.17,1.346c-.4.641-6.288,8-10.421,13.143a12.243,12.243,0,0,0-3.423-1.75V677.807c.273-.282,2.01-2.052,2.01-2.052a4.819,4.819,0,0,0,1.459-3,2.1,2.1,0,0,0-.145-.8c-.437-1.177-1.8-1.771-4.043-1.771-.039,0-.745.068-1.417.133a28.053,28.053,0,0,0,2.169-10.62c0-.189.006-.376.006-.555,0-5.187-1.163-9.529-3.465-12.89-2.791-4.077-4.778-5.339-8.06-7.409l-.884-.574c-3.794-2.42-24.164-13.124-25.034-13.577-.015-.009-7.786-3.86-7.786-3.86-6.12-3.1-7.1-5.791-7.1-8.031,0-.1,0-.2.01-.3.056-1.846,2.706-5.452,7.319-5.452a26.949,26.949,0,0,1,9.985,1.563c5.663,1.9,8.412,4.651,8.412,8.417-.006.019-.1,1.346-.1,1.346l9.443,6.45,15.97-20.517-11.329-7.578-.436.434c-2.435,2.447-2.533,2.418-5.132,1.9a31.4,31.4,0,0,1-4.011-1.487c-5.309-2.138-14.207-5.734-22.045-5.734-13.511,0-20.425,6.234-26.889,13.192Zm23.977,69.577,10.158-7.381v-.367c-.117-1.7-4.98-3.964-6.694-4.708-.974-.414-10.329-4.584-17.052-7.7a31.945,31.945,0,0,1-14.151-12.182c-2.222-3.729-4.164-8.558-3.181-18.661.5-5.264,4.334-13.613,8.04-17.559,6.224-6.706,12.884-12.712,25.792-12.712,7.551,0,16.274,3.521,21.495,5.63a30.251,30.251,0,0,0,4.274,1.562c2.857.566,3.616.463,6.031-1.883.839.566,7.889,5.274,8.991,6.018-.9,1.148-13.346,17.126-14.137,18.133-.946-.658-6.957-4.753-7.56-5.177.019-.255.033-.529.033-.529,0-4.49-3.168-7.8-9.434-9.9a28.557,28.557,0,0,0-10.456-1.639c-5.62,0-8.728,4.481-8.811,6.882-.152,3.889,2.3,6.9,7.912,9.726l7.782,3.87c.193.094,21.165,11.119,24.908,13.5l.887.565c3.223,2.061,5.017,3.172,7.635,7,2.193,3.22,3.275,7.457,3.186,12.579a25.356,25.356,0,0,1-2.5,11.138l-.636,1.215,3.959-.357c1.417,0,2.378.3,2.57.791.245.667-.584,1.9-.894,2.174l-2.584,2.626.056.245v22.049l.542.152c1.186.366,3.29,1.215,3.869,2.005l.578.8.6-.78c1.07-1.31,10.409-12.919,11.016-13.879a1.35,1.35,0,0,1,1.026-.63,1.162,1.162,0,0,1,1,.453s6.182,6.411,7.231,7.494v11.824c0,.725-.169,1.677-.55,1.892-.231.132-.73-.029-1.323-.424l-4.288-3.37L1452.065,722.7l7.246,11.563,8.624-6.534c.541-.518.861-.6,1-.546a.77.77,0,0,1,.325.65v15.76c0,.17-.339.518-.744.9l-.226.227c-.842.848-7.358,5.969-10.412,8.181a2.091,2.091,0,0,1-1.593.557c-.678-.169-1.153-1.2-1.491-1.939l-.4-.772-11.077-17.127-14.367,18.437a1.693,1.693,0,0,1-1.2.686,3.228,3.228,0,0,1-2.312-1.167s-8.083-7.73-8.531-8.153v-14.66c0-1.2.363-1.779.707-1.938.376-.161.983.084,1.61.677.013.01,7.173,6.392,7.173,6.392l9.962-12.183-2.7-4.491s-7.277,5.545-8,6.1c-.842-.49-26.019-15.855-26.069-15.874a.526.526,0,0,1-.048-.226.381.381,0,0,1,.066-.246l3.017-2.74.005-.329v-10.3l-.347-.217a19.673,19.673,0,0,0-6.6-2.993,39.591,39.591,0,0,0-14.833-.82c-7.433,1.186-13.355,4.821-16.189,6.609-2.73,1.7-3.587,1.328-3.785,1.167-.415-.319-.617-1.618.2-4.217.942-3,4.167-7.241,8.2-10.763a38.39,38.39,0,0,1,16.18-7.908c2.481-.583,10.188-1.337,14.551.235l.376.142.321-.235Z"/><path d="M1471.083,752.741h-1.121v3.07h-.762V752.74h-1.121v-.658h3v.658Zm5.112,3.07h-.767v-2.976h-.015l-1.082,2.975h-.738l-1.037-2.976h-.028v2.975h-.757v-3.728h1.322l.866,2.429h.015l.9-2.429h1.323v3.73Z"/><path d="M1470.987,707.051V695.838l-7-6.29-19.4,24.083-2.722-4.341c2.361-1.76,5.4-4.039,5.741-4.2a9.009,9.009,0,0,1,2.659-1.129c.636,0-.974-2.8-5.6-2.8V676.384l2.659-2.955a15.157,15.157,0,0,1-4.759.065,12.643,12.643,0,0,1-1.536-.715,20.628,20.628,0,0,0,2.237-4.8c3.182-10.037,1.1-19.3-6.44-25.017-5.29-4-27.021-15-27.021-15s-13.148-6.441-14.565-7.871c-1.018-1.008-3.084-2.58-3.084-7.561,0-2.965,3.305-6.223,4.731-6.893,2.271-1.082,3.008-1.591,7.632-1.665a26.419,26.419,0,0,1,5.353.629c2.863.3,9.664,2.543,13.157,7.279,1.351,1.337,1.615,5.281,1.615,5.281l5.456,3.494,11.9-15.545-6.44-4.338a6.633,6.633,0,0,1-6.727,1.4c-1.4-.707-13.41-5.085-15.115-5.621a40.336,40.336,0,0,0-14-1.234c-3.78.547-9.984,1.7-14.847,6.855-5.669,6.025-5.739,10.846-5.739,13.444a19.243,19.243,0,0,0,5.607,13.97c6.548,6.554,16.518,10.669,18.759,11.892,3.979,2.213,16.529,8.783,18.342,9.829,7.706,4.483,10.644,9.246,9.8,15.271-.037.293-.135.575-.2.849-3.374-1.969-8.12-4.962-10.032-6.874,0,0-1.144,1.224-1.878,1.957l-5.592,4.2a33.022,33.022,0,0,0,.617-7.834,11.706,11.706,0,0,0-4.477-7.833,117.773,117.773,0,0,0-13.723-7.983,92.931,92.931,0,0,1-12.739-8.249s-5.888-5.479-6.792-8.84c-1.751-3.85-1.822-12.954-.918-13.868a21.658,21.658,0,0,0-3.769,7.57,29.967,29.967,0,0,0-1.263,7.843c0,3.635.636,10.007,4.614,15.4a31.33,31.33,0,0,0,7.441,7.005,57.659,57.659,0,0,0,7.4,3.907c.984.706,10.229,4.6,11.063,5.027s5.083,2.4,5.982,2.873c3.187,1.712,4.826,2.8,5.838,5.524l-9.585,7.166a4.341,4.341,0,0,1,.424,1.957v.916a27.025,27.025,0,0,0-3.917-1.037c-6.3-1.074-10.136-1.017-15.121.226a33.882,33.882,0,0,0-16.8,9.056c-6.16,6.178-6.095,10.293-6.095,10.293l6.163-3.625a37.609,37.609,0,0,1,16.735-4.623c11.446,0,17.387,3.3,19.039,5.141v11.1c0,2.2-.659,2.486-1.154,2.9-.183.161-.352.18-1.012.632a4.416,4.416,0,0,1,1.046.527c.565.415,22.361,13.586,22.361,13.586l8.44-6.2,4.171,6.638-11.591,14.394-7.973-7.276v13.576l9.094,8.407,16.071-20.175,13.2,21.015,10.639-8.54V729.883l-8.544,6.431-8.662-13.8,15.662-19.658,5.183,4.2Zm-54.4-30.241,4.972-3.645a33.516,33.516,0,0,0,4.524,3.06,2.079,2.079,0,0,0-.183.16s-5.737,4.9-9.314,5.414v-4.988Zm8.706,31.916-8.706-5.318V690.227c3.645-.65,12.546-4.888,17.152-9.491.06.858.036,9.67.017,15.638l-5.338-8.52-8.143,5.8v10.358l4.505-2.986,3.371,5.376-2.858,2.323Z"/></g><rect class="b" width="200" height="200"/></svg>