<svg xmlns="http://www.w3.org/2000/svg" width="200" height="200" viewBox="0 0 200 200"><defs><style>.a{fill:#a5acaf;}.b{fill:#fff;}.c{fill:#a71930;}.d{fill:none;mix-blend-mode:multiply;isolation:isolate;}</style></defs><g transform="translate(-411.104 -553.029)"><path class="a" d="M584.785,607.486C562,593.094,509.8,582.086,470.868,573.03L426.1,621.171l38.425-.821C445.395,651.276,449.294,724,497.676,733.669c-2.491-4.777-6.815-13.553-1.209-24.418,3.993-7.728,26.191-50.212,26.191-50.212h5.313c7.2,0,9.564,2.707,6.373,6.522,19.18-.244,30.958-7.5,36.244-15.254-4.024-7.366-16.823-16.037-22.013-19.552h26.837c7.7,0,9.431,3.226,7.619,6.739,12.56-2.471,18.98-19.128,1.753-30.008"/><path class="b" d="M581.719,608.954c-31.037-17.417-107.889-29.026-107.889-29.026L440.909,615.21h34.133c-25.2,33.316-19.618,100.569,17.443,114.551-2.629-6.254-3.96-13.512.777-22.747,5.347-10.415,13.856-27.921,26.047-51.293h9.948c8.257,0,10.9,3.493,9.776,6.188,6.79,0,19.2-.666,28.21-11.6-7.5-10.489-32.314-22.719-32.314-22.719h42.564c6.255,0,9.381,2.226,8.516,6,10.874-5.313,8.047-17.708-4.29-24.63"/><path d="M531.342,628.732s27.433,13.429,32.766,21.574c-2.81,3.74-7.106,6.358-12.858,7.674,3.676-2.825,4.373-5.54,2.113-5.54h-8.132a4.636,4.636,0,0,0-.266,6.328c-3.144-.688-6.172-3.277-6.405-6.328H521.342c2.3-4.6,8.933-17.756,10.784-21.379l-.784-2.329Zm49.087-17.439c12.012,6.595,11.219,15.679,7.667,18.678.064-3.244-3.122-5.657-8.868-5.657H523.107l6.032,3.233s-36.119,71.958-38.892,77.636c-3.2,6.562-4.078,13.929-1.32,20.067-7.146-4.532-12.756-11.825-16.706-20.715l-3.207-.219,34.07-50.017c-.072-.321-.135-.647-.192-.97l-34.4,40.571a91.058,91.058,0,0,1-2.995-20.832l-3.9-.976,42.256-33.36c.1-.354.216-.705.33-1.057l-38.318,23.269a96.128,96.128,0,0,1,3.648-19.025l-3.965-2.245,45.1-15.039c.2-.308.406-.613.611-.915l-37.855,7.739a76.215,76.215,0,0,1,7.344-12.94l-3.506-3.309h45.271q.189-.38.375-.746l-67.4-5.157,19.165-20.644-3-3.816s82.67,12.121,108.771,26.447Z"/><path class="b" d="M583.4,616.47l.721,3.189c-4.912.924-13.6,1.66-16.059,1.859-.121.245-.245.489-.372.74h12.937c5.133,0,7.294,2.436,7.75,3.836C589.046,624.178,588.426,619.041,583.4,616.47Zm-14.387-6.3c2.869.957,9.324,4.561,11.769,7.381h-4.639c-1.829-3.01-7.13-7.381-7.13-7.381Z"/><path class="c" d="M471.975,650.022l27.57-15.062c.149-.374.3-.75.465-1.123l-26.533,9.539c-.59,2.188-1.089,4.41-1.5,6.647ZM484.3,620.148q-1.824,2.5-3.4,5.192l26.968-4.82c.236-.31.476-.621.716-.924l-24.289.553Zm17.109,49.62c-.179-.321-.354-.647-.524-.97L478.5,702.573a48.737,48.737,0,0,0,3.886,6.219Zm-29.9,10.718,24.887-27.777c-.02-.4-.033-.793-.042-1.188L470.7,673.337c.173,2.418.445,4.807.806,7.149Zm77.5-31.8-19.539-2.918-1.982,3.84h21.06l.461-.921Zm13.5-34.952L473.047,601.35l5.473-5.93c30.131,4.659,66.167,12.024,84.464,17.356-.155.312-.319.634-.482.959Z"/></g><rect class="d" width="200" height="200"/></svg>