<svg xmlns="http://www.w3.org/2000/svg" width="200" height="200" viewBox="0 0 200 200"><defs><style>.a{fill:#ffc62f;}.b{fill:#fff;}.c{fill:#e9bf9b;}.d{fill:#4f2683;}.e{fill:none;mix-blend-mode:multiply;isolation:isolate;}</style></defs><g transform="translate(-96.672 -1482.041)"><path class="a" d="M198.762,1619.672c-1.1,4.324-.913,5.551-.839,6.782-3.009-2.1-10.785-6.052-11.147-16.06a39.079,39.079,0,0,1,1.072-11.749c-.143.173-.31.371-.474.563-9.961,11.987-21.326,11.178-31.724,12.247-1.541.158-7.317,1.324-8.839,1.654a106.355,106.355,0,0,1,14.3-12.644c8.09-5.522,22.152-11.281,22.152-11.281a51.167,51.167,0,0,0-11.5,9.173c3.956-2.678,17.773-10.657,17.773-10.657-3.688,3.512-14.195,12.77-20.426,16.89a74.773,74.773,0,0,0,18.251-12,73.294,73.294,0,0,1,14.384-9.979,18.6,18.6,0,0,0,5.635,3.646c-5.214,3.672-8.693,5.764-10.18,10.727a33.954,33.954,0,0,1,9.315-7.895,38.423,38.423,0,0,0,3.3-2.049,30.978,30.978,0,0,0,5.234.538l.325-.138c-.212.162-.74.464-.96.623-10.508,7.709-20.125,9.733-21.014,25.413,0,0,1.329-10.218,9.413-15.4,4.58-2.934,12.793-6.836,18.294-12.446a14.805,14.805,0,0,0,8.237-9.81l.031-.142c1.361-.135,2.716-.309,4.139-.435a27.019,27.019,0,0,1-1.33,6.206,30.359,30.359,0,0,1-5.563,10.074c-5.256,6.421-11.6,10.443-18.206,19.037a42.724,42.724,0,0,0-8.01,17.358c-1.472-10.693,3.624-17.49,3.624-17.49a21.23,21.23,0,0,0-5.27,9.242Zm-23.208-8.987c5.137-1.286,9.779-6.84,9.779-6.84-.543,1.878-.139,7.612-.139,7.612a13.483,13.483,0,0,1-4.45.791,14.22,14.22,0,0,1-5.393-1.542l.2-.021Zm33.409,25.542c-1.159,3.109-1.959,5.99-2.258,7.112-3.445-2.066-8.734-4.822-10.673-7.843a19.52,19.52,0,0,1-2.575-9.362,58.174,58.174,0,0,0,7.612,4.661,86.66,86.66,0,0,1,7.892,5.43Zm-6.453-6.666a32.913,32.913,0,0,1,2.936-10.627c2.346-5.333,8.334-11.877,8.334-11.877a13.438,13.438,0,0,1,3.565,11.778c-1.04,5.494-3.665,7.373-6.339,12.647-.46.909-.9,1.874-1.3,2.846-1.669-1.322-4.694-3.211-7.2-4.767Zm-11.56-62.011.133.034-.189.032c-2.713.479-5.53,1.14-7.912,1.759.106-.945.233-1.894.385-2.824q.072-.387.157-.78c1.042.254,2.1.5,3.161.742.957.222,1.915.445,2.859.683l1.406.354Zm53.235,6.775c1.394-.927,6.266-.556,7.891-.371s7.056,1.02,9.749.417a21.7,21.7,0,0,0,3.9-1.16,6.264,6.264,0,0,1-5.848,5.289c-5.2.372-5.895-.882-9.793-1.392a10.986,10.986,0,0,1,3.249-1.113,19.741,19.741,0,0,0-6.36.184,8.466,8.466,0,0,0-3.851,1.856s-.325-2.786,1.067-3.712Zm-51.617-30.174s.418-.534.493-.649c2.236-3.381,4.667-6.736,5.881-8.368a19.7,19.7,0,0,0,1.986-3.318,17.072,17.072,0,0,0,1.593-5.272c12.905.592,28.365,6.253,40.874,18.1a52.707,52.707,0,0,1,11.563,16.708,87.559,87.559,0,0,0-12.5-.976,135.782,135.782,0,0,0-14.7.943v-.007c-.022-.214-.051-.426-.082-.636l-.027-.184c-.025-.167-.058-.33-.089-.494l.008,0a18.388,18.388,0,0,0-10.729-13.947,35.251,35.251,0,0,0-10.606-2.726,33.867,33.867,0,0,0-7.505.078c-1.241.131-2.448.286-3.632.437-.86.111-1.7.218-2.534.314Zm16.349,110a15.493,15.493,0,0,1-4.978-4.476,11.278,11.278,0,0,1-1.734-6.288c2.065,1.19,4.432,2.366,5.814,3.224a30.616,30.616,0,0,1,3.668,2.652c-1.457,2.582-2.77,4.888-2.77,4.888Zm-8.454-73.313c-9.724,2.651-30.438,11.419-42.55,19.9-5.226,3.661-10.931,9.44-14.405,13.006-3.4,1.051-7.7,2.852-9.695,3.724,4.655-5.118,14.089-14.287,21.779-19.455,23.217-15.6,42.411-18.12,43.842-18.408l.424.367c.192.3.4.584.6.868Zm56.362,25.106c-5.988,3.945-9.792,13.35-9.792,13.35a36.741,36.741,0,0,1,8.246-17.727c-5.012,2.923-8.663,8.516-10.6,20.978-2.214,14.255-6.3,19.724-6.3,19.724l.426-1.445c1.717-7.7,1.439-11.321,2.831-20.6a36.875,36.875,0,0,1,5.476-14.942c-5.1,3.573-7.854,11.214-8.818,22.32-1.064,12.248-4,16.583-4,16.583,1.785-6.12,1.027-12.916,1.3-17.464s.48-10.733,3.032-16.58,8.48-11.495,14.7-14.325a17.6,17.6,0,0,1,11.181-1.437,10.406,10.406,0,0,1,3.481,6.309,40.981,40.981,0,0,0-11.167,5.258Zm-52.271,51.071a3.221,3.221,0,0,1,.836-3.537,15.871,15.871,0,0,0,2.795,1.935s-.778,2.108-1.378,4.012a4.03,4.03,0,0,1-2.252-2.409Zm-.815,11.968a16.419,16.419,0,0,0,.986,1.553,1.655,1.655,0,0,1,.043,2.182,1.071,1.071,0,0,1-1.708-.027C202.535,1672.071,202.912,1670,203.74,1668.98Zm12.3-41.186a15.419,15.419,0,0,1,1.889,5.365c.472,3.7-.982,7.762-2.876,11.2-.516.935-1.809,2.127-2.469,3.3a17.1,17.1,0,0,0-2.921-2.476c-.315-.219-.689-.459-1.1-.715,1.377-5.508,4.606-12.536,5.914-14.305C214.892,1629.606,215.6,1628.506,216.042,1627.794Zm-10.136,37.972a6.25,6.25,0,0,1,2.347,3.213c.126,1.219-1.772,2.182-1.772,2.182a2.489,2.489,0,0,0-1.119-2.362c-2.022-1.5-2.733-2.084-1.266-4.606a9.973,9.973,0,0,0,1.81,1.572Zm4.932-12.06a66.812,66.812,0,0,1,4.075-6.25s1.467,4.554.241,8.359a23.1,23.1,0,0,1-4.24,7.163,13.991,13.991,0,0,0-2.509-2.716c-.1-.066-.2-.131-.315-.195a46.377,46.377,0,0,1,2.749-6.361Zm-3.919,7.457a6.368,6.368,0,0,1,3.141,2.905,2.3,2.3,0,0,1-.953,2.977,4.4,4.4,0,0,0-1.959-2.168c-1.423-.723-2.762-1.344-3.094-2.785a3.537,3.537,0,0,1,.569-2.651,6.958,6.958,0,0,0,2.3,1.722Z" transform="translate(-0.768 -2.38)"/><path class="b" d="M201.338,1566.563c-4.523-1.368-11.024-2.59-16.8-4.229-11.657-3.266-19.663-10.293-23.79-20.889a40.863,40.863,0,0,1-2.746-14.8c0-.218-.01-.625-.008-.765a82.266,82.266,0,0,1,1.274-12.658l.065-.4.009.7c-.018,3.38.214,6.355.3,7.28l.007.091a10.578,10.578,0,0,0,.168-1.11c.226-1.506.485-3,.634-4.516s.492-3.313.557-4.829c.026-.582.051-1.168.036-1.751.168.1.236.666.27.826.134.63.421,5.584.507,7.28.035.677.047,1.354.055,2.031a6.681,6.681,0,0,0,.068,1.005c.011.089.04.185.061.281.016.079.266-2.207.453-3.412a19.335,19.335,0,0,0,.4-3.074,1.892,1.892,0,0,1-.012-.29c.027-.152.247.505.359,1.715.078,1.366.136,2.784.294,4.12l.122,1.057c1.1,9.7,6.918,18.538,14.773,22.5,6.34,3.554,12.257,2.8,18.522,1.993,1.169-.15,2.361-.3,3.586-.432a33.026,33.026,0,0,1,17.367,2.639,16.255,16.255,0,0,1,9.123,11.89l0,.134a13.271,13.271,0,0,1,.3,2.827l0,.036c-.032-.184-.048-.364-.089-.553a12.811,12.811,0,0,1-.926,4.6,9.683,9.683,0,0,0,.2-5.109,12.647,12.647,0,0,1-1.184,5.169,11.628,11.628,0,0,0-3.609-12.333c1.809,1.934,2.685,5,2.946,7.868.606,6.72-4.77,11.126-10.534,12.12l-.121.03a9.744,9.744,0,0,0,4.333-.258,8.567,8.567,0,0,0,3.124-.8,11.49,11.49,0,0,0,1.535-.913,13.387,13.387,0,0,1-20.23-2.369c3.347.418,6.627,1.084,6.627,1.084a29.258,29.258,0,0,0-8.02-3.792l-.006.017Zm-2.039-34.841c-1.571,2.414-3.89,5.7-5.7,8.248-2.185-1.642-5.835-4.9-7.514-9.333-2.594-6.86-1.722-13.4-2.174-17.065-.131-1.053-.3-2.341-.5-3.711a43.571,43.571,0,0,1,1.529,6.338,55.83,55.83,0,0,0-.849-7.99,48.345,48.345,0,0,1,2.039,7.478,35.748,35.748,0,0,0-.026-5.446,30.932,30.932,0,0,1,.821,3.411c1.338,7.426,3.537,12.609,12.38,18.07Z" transform="translate(-2.316 -1.206)"/><path class="c" d="M257.354,1584.927a7.645,7.645,0,0,1,1.346,2.182,2.467,2.467,0,0,1-.009.318h0l-.009.111,0,.018c-.059.641-.367,3.627-1.056,4.46a2.516,2.516,0,0,1-.359.471c-.79.738-2.172,1.441-4.783,3.252-2.878,2-5.152,6.079-5.152,6.079a17.258,17.258,0,0,1,2.6-6.062,22.633,22.633,0,0,1,6.849-5.479l.8-3.558a5.969,5.969,0,0,0-2.12-.957c-1.542-.271-4.138-.237-5.728-.754l.02-.033c1.9-.232,3.018-.788,5.847-1.253a10.538,10.538,0,0,1,5.013.372,8.192,8.192,0,0,0-3.25.835Zm9.207-1.532a13.709,13.709,0,0,1,1.126,4.675c-.055,1.971.563,3.323,1.3,3.886s1.466.676,1.916,1.015.453,1.352.227,2.195-.846.958-1.522.789a21.823,21.823,0,0,0-7.505.054c-.19-.662-.518-2.176.2-2.926.928-.971,2.739-.881,3.433-.741a7.82,7.82,0,0,0-2.783-.7,2.993,2.993,0,0,0-2.74,1.856,7.013,7.013,0,0,0,.1,2.935,28.926,28.926,0,0,0-14.032,10.051,33.861,33.861,0,0,0-6.081,14.308s-5.23,1.03-7.938-2.989a16.66,16.66,0,0,1-2.266-11.713,6.781,6.781,0,0,1-3.851.571,2.25,2.25,0,0,1-1.321-1.014,88.775,88.775,0,0,0,8.829-8.295c1.547.344,2.937.716,3.7.948a6.028,6.028,0,0,1,3.877,3.454,48.532,48.532,0,0,1,.7,6.73,35.474,35.474,0,0,0,1.182-6.462,6.693,6.693,0,0,0-1.971-5.387c-1.058-.964-4.051-1.859-5.239-2.518,4.533-6.239,5.778-15.8,5.778-15.8l0-.271a2.149,2.149,0,0,0,.776-.146c.836-.048,3.8-.41,4.625-.425,0,0-1.24,3.66-.168,6.365a11.474,11.474,0,0,1,6.706-1.577c3.943.283,10.255,2.2,12.96,1.127Zm-37.383,34.813c1.875,2.751,4.389,5.091,8.426,5.091.585,0,1.279-.01,2.033-.03a58.264,58.264,0,0,0-.576,5.984c-.876.292-1.656.574-2.275.834-3.923,1.638-11.222,5.505-11.222,5.505l-.249.15a37.484,37.484,0,0,0-1.958-7.579s2.619-6.81,1.639-11a25.4,25.4,0,0,0-3.395-8.425c.231-.247.463-.478.7-.714a5.139,5.139,0,0,0,3.72,1.933s1.29,5.5,3.162,8.249Zm40.071,5c1.99.059,3.82-.088,3.82-.088-.584.468-2.164.41-3.043.528s-6.319.292-12.933,1.288c-1.2.179-2.5.413-3.86.679a13.659,13.659,0,0,1,1.3-2.711h.059c4.857,0,12.668.249,14.66.306Zm2.33-8.04c1.392.558,2.181,1.067,2.691,3.944s-1.114,2.784-1.9,2.74-3.082-.062-6.611-.48-9.829-.58-9.829-.58c3.012-8.333,13.515-12.86,13.515-12.86.186,2.412-1.625,6.821-1.625,6.821a11.035,11.035,0,0,1,3.761.417Z" transform="translate(-6.39 -5.641)"/><path class="d" d="M259.321,1565.865a84.021,84.021,0,0,0-13.544-1.154,144.644,144.644,0,0,0-14.613.865v.025a15.512,15.512,0,0,1-29.61,6.318c-.767-.224-1.587-.447-2.437-.675-1.431.174-2.96.394-4.566.677-2.967.523-6.032,1.254-8.528,1.9-.118,1.317-.309,3.435-.316,3.616-.355,7.488.117,6.965.117,6.965,2.171-.849,10.182-2.9,10.182-2.9,2.346-.546,5.132-1.132,8.393-1.734a14.023,14.023,0,0,0,26.356-3.683c15.034-1.631,22.14-1.678,31.425-.444a57.191,57.191,0,0,0-2.857-9.777" transform="translate(-4.083 -4.824)"/><path d="M254.382,1578.6a10.525,10.525,0,0,0-5.008-.373c-2.835.462-3.948,1.022-5.851,1.253l-.02.033c1.588.52,4.187.482,5.729.751a6.056,6.056,0,0,1,2.122.958l-.8,3.561a22.538,22.538,0,0,0-6.848,5.476,6.268,6.268,0,0,0-.475.668,2.271,2.271,0,0,0-.193.308q-.126.2-.231.405c-.09.161-.175.328-.257.5s-.161.335-.231.5a18.51,18.51,0,0,0-.753,2.012l-.064.2c-.141.469-.244.854-.309,1.118l-.025.1-.02.078-.026.123-.006.033c.038-.066.238-.425.572-.945l.243-.373a22.339,22.339,0,0,1,2.785-3.445c.161-.161.328-.321.5-.469a11.251,11.251,0,0,1,1.048-.836c2.61-1.813,3.993-2.513,4.783-3.252a3.141,3.141,0,0,0,.361-.47c.688-.836,1-3.824,1.055-4.461v-.019l.012-.11c.007-.109.007-.2.007-.257v-.064a7.649,7.649,0,0,0-1.344-2.179,8.111,8.111,0,0,1,3.247-.836Zm0,0a10.525,10.525,0,0,0-5.008-.373c-2.835.462-3.948,1.022-5.851,1.253l-.02.033c1.588.52,4.187.482,5.729.751a6.056,6.056,0,0,1,2.122.958l-.8,3.561a22.538,22.538,0,0,0-6.848,5.476,6.268,6.268,0,0,0-.475.668,2.271,2.271,0,0,0-.193.308q-.126.2-.231.405c-.09.161-.175.328-.257.5s-.161.335-.231.5a18.51,18.51,0,0,0-.753,2.012l-.064.2c-.141.469-.244.854-.309,1.118l-.025.1-.02.078-.026.123-.006.033c.038-.066.238-.425.572-.945l.243-.373a22.339,22.339,0,0,1,2.785-3.445c.161-.161.328-.321.5-.469a11.251,11.251,0,0,1,1.048-.836c2.61-1.813,3.993-2.513,4.783-3.252a3.141,3.141,0,0,0,.361-.47c.688-.836,1-3.824,1.055-4.461v-.019l.012-.11c.007-.109.007-.2.007-.257v-.064a7.649,7.649,0,0,0-1.344-2.179,8.111,8.111,0,0,1,3.247-.836Zm0,0a10.525,10.525,0,0,0-5.008-.373c-2.835.462-3.948,1.022-5.851,1.253l-.02.033c1.588.52,4.187.482,5.729.751a6.056,6.056,0,0,1,2.122.958l-.8,3.561a22.538,22.538,0,0,0-6.848,5.476,6.268,6.268,0,0,0-.475.668,2.271,2.271,0,0,0-.193.308q-.126.2-.231.405c-.09.161-.175.328-.257.5s-.161.335-.231.5a18.51,18.51,0,0,0-.753,2.012l-.064.2c-.141.469-.244.854-.309,1.118l-.025.1-.02.078-.026.123-.006.033c.038-.066.238-.425.572-.945l.243-.373a22.339,22.339,0,0,1,2.785-3.445c.161-.161.328-.321.5-.469a11.251,11.251,0,0,1,1.048-.836c2.61-1.813,3.993-2.513,4.783-3.252a3.141,3.141,0,0,0,.361-.47c.688-.836,1-3.824,1.055-4.461v-.019l.012-.11c.007-.109.007-.2.007-.257v-.064a7.649,7.649,0,0,0-1.344-2.179,8.111,8.111,0,0,1,3.247-.836Zm0,0a10.525,10.525,0,0,0-5.008-.373c-2.835.462-3.948,1.022-5.851,1.253l-.02.033c1.588.52,4.187.482,5.729.751a6.056,6.056,0,0,1,2.122.958l-.8,3.561a22.538,22.538,0,0,0-6.848,5.476,6.268,6.268,0,0,0-.475.668,2.271,2.271,0,0,0-.193.308q-.126.2-.231.405c-.09.161-.175.328-.257.5s-.161.335-.231.5a18.51,18.51,0,0,0-.753,2.012l-.064.2c-.141.469-.244.854-.309,1.118l-.025.1-.02.078-.026.123-.006.033c.038-.066.238-.425.572-.945l.243-.373a22.339,22.339,0,0,1,2.785-3.445c.161-.161.328-.321.5-.469a11.251,11.251,0,0,1,1.048-.836c2.61-1.813,3.993-2.513,4.783-3.252a3.141,3.141,0,0,0,.361-.47c.688-.836,1-3.824,1.055-4.461v-.019l.012-.11c.007-.109.007-.2.007-.257v-.064a7.649,7.649,0,0,0-1.344-2.179,8.111,8.111,0,0,1,3.247-.836Zm-5.008-.373c-2.835.462-3.948,1.022-5.851,1.253l-.02.033c1.588.52,4.187.482,5.729.751a6.056,6.056,0,0,1,2.122.958l-.8,3.561a22.538,22.538,0,0,0-6.848,5.476,6.268,6.268,0,0,0-.475.668,2.271,2.271,0,0,0-.193.308q-.126.2-.231.405c-.09.161-.175.328-.257.5s-.161.335-.231.5a18.51,18.51,0,0,0-.753,2.012l-.064.2c-.141.469-.244.854-.309,1.118l-.025.1-.02.078-.026.123-.006.033c.038-.066.238-.425.572-.945l.243-.373a22.339,22.339,0,0,1,2.785-3.445c.161-.161.328-.321.5-.469a11.251,11.251,0,0,1,1.048-.836c2.61-1.813,3.993-2.513,4.783-3.252a3.141,3.141,0,0,0,.361-.47c.688-.836,1-3.824,1.055-4.461v-.019l.012-.11c.007-.109.007-.2.007-.257v-.064a7.649,7.649,0,0,0-1.344-2.179,8.111,8.111,0,0,1,3.247-.836,10.527,10.527,0,0,0-5.008-.372Zm16.773,38.133c-.791-.045-3.078-.058-6.609-.482s-9.831-.578-9.831-.578c3.01-8.329,13.515-12.861,13.515-12.861.186,2.41-1.621,6.819-1.621,6.819a11.151,11.151,0,0,1,3.756.418c1.395.56,2.185,1.067,2.694,3.947s-1.113,2.783-1.9,2.738Zm-2.34,1.793c-.881.123-6.32.3-12.936,1.293-1.2.18-2.5.411-3.857.675a13.322,13.322,0,0,1,1.3-2.706l.058-.007c4.855,0,12.666.251,14.659.308s3.819-.089,3.819-.089c-.585.468-2.16.41-3.041.527Zm-19.725,2.154c-2.217,14.256-6.3,19.725-6.3,19.725l.425-1.446c1.717-7.7,1.439-11.319,2.828-20.6a36.926,36.926,0,0,1,5.478-14.943c-5.1,3.574-7.856,11.217-8.821,22.323-1.029,11.859-3.813,16.306-3.986,16.569,1.775-6.113,1.016-12.906,1.3-17.449s.475-10.734,3.029-16.583,8.48-11.492,14.7-14.326a17.606,17.606,0,0,1,11.18-1.434,10.416,10.416,0,0,1,3.478,6.306,41.033,41.033,0,0,0-11.167,5.264c-5.986,3.939-9.793,13.35-9.793,13.35a36.769,36.769,0,0,1,8.25-17.733c-5.015,2.924-8.666,8.516-10.6,20.979Zm-11.238,3.451c-.881.289-1.659.572-2.276.837-3.922,1.637-11.225,5.507-11.225,5.507l-.251.147a37.284,37.284,0,0,0-1.954-7.577s2.616-6.813,1.639-11a25.366,25.366,0,0,0-3.394-8.427c.231-.25.462-.482.694-.713a5.149,5.149,0,0,0,3.716,1.935s1.293,5.5,3.164,8.247,4.391,5.091,8.428,5.091c.585,0,1.279-.013,2.031-.034a58.511,58.511,0,0,0-.571,5.984Zm-18.388,18.369c-.514.939-1.812,2.128-2.469,3.3a17.236,17.236,0,0,0-2.918-2.475c-.314-.219-.694-.456-1.105-.713,1.382-5.508,4.61-12.533,5.914-14.307.417-.559,1.126-1.658,1.569-2.365a15.362,15.362,0,0,1,1.884,5.36c.475,3.7-.977,7.765-2.874,11.2Zm.1,11.454a23.124,23.124,0,0,1-4.237,7.167,14.046,14.046,0,0,0-2.508-2.719c-.1-.065-.2-.129-.314-.194a45.5,45.5,0,0,1,2.746-6.362,66.433,66.433,0,0,1,4.075-6.248s1.466,4.551.238,8.355Zm-6.044,11.228a4.393,4.393,0,0,0-1.96-2.166c-1.422-.719-2.759-1.343-3.092-2.783a3.532,3.532,0,0,1,.566-2.654,6.93,6.93,0,0,0,2.3,1.723,6.358,6.358,0,0,1,3.137,2.9,2.293,2.293,0,0,1-.952,2.976Zm-2.623,4.12a2.486,2.486,0,0,0-1.125-2.359c-2.018-1.505-2.732-2.089-1.26-4.61a9.791,9.791,0,0,0,1.806,1.57,6.27,6.27,0,0,1,2.346,3.214c.129,1.22-1.768,2.184-1.768,2.184Zm-1.717,1.556a1.074,1.074,0,0,1-1.71-.026c-.52-.617-.147-2.686.682-3.708a16.474,16.474,0,0,0,.984,1.55,1.652,1.652,0,0,1,.044,2.184Zm3.414-17.31s-.771,2.11-1.376,4.012a4.02,4.02,0,0,1-2.251-2.4,3.22,3.22,0,0,1,.836-3.541,15.548,15.548,0,0,0,2.79,1.934Zm-5.98-12.025c2.064,1.189,4.436,2.365,5.819,3.227a30.143,30.143,0,0,1,3.664,2.648c-1.454,2.584-2.77,4.891-2.77,4.891a15.561,15.561,0,0,1-4.977-4.48,11.247,11.247,0,0,1-1.735-6.285Zm-6.172-7.886a19.514,19.514,0,0,1-2.572-9.358,58.5,58.5,0,0,0,7.612,4.66,85.553,85.553,0,0,1,7.889,5.431c-1.158,3.11-1.954,5.99-2.257,7.109C202.665,1639.047,197.374,1636.29,195.432,1633.269Zm21.313-16.659c-1.035,5.495-3.664,7.372-6.339,12.642-.457.913-.894,1.878-1.3,2.848-1.665-1.324-4.694-3.208-7.195-4.763a32.773,32.773,0,0,1,2.938-10.632c2.347-5.328,8.333-11.876,8.333-11.876a13.436,13.436,0,0,1,3.561,11.781Zm-30.564-8.445a38.884,38.884,0,0,1,1.067-11.749c-.141.174-.309.373-.469.565-9.965,11.987-21.326,11.178-31.728,12.251-1.537.154-7.316,1.323-8.84,1.652a105.969,105.969,0,0,1,14.305-12.643c7.837-5.346,21.274-10.927,22.11-11.267a51.371,51.371,0,0,0-11.457,9.159c3.832-2.6,16.921-10.162,17.732-10.631-3.716,3.541-14.176,12.751-20.386,16.865a74.848,74.848,0,0,0,18.252-12.006,73.367,73.367,0,0,1,14.382-9.975,18.628,18.628,0,0,0,5.638,3.644c-5.214,3.67-8.692,5.766-10.184,10.727a34.021,34.021,0,0,1,9.317-7.9,37,37,0,0,0,3.3-2.043,31.338,31.338,0,0,0,5.232.539l.321-.142c-.212.161-.738.463-.957.624-10.491,7.7-20.1,9.725-21.01,25.35.136-.881,1.7-10.4,9.412-15.336,4.578-2.931,12.789-6.833,18.292-12.443a14.808,14.808,0,0,0,8.236-9.808l.033-.141c1.363-.136,2.719-.309,4.14-.438a26.957,26.957,0,0,1-1.331,6.2,30.392,30.392,0,0,1-5.561,10.078c-5.258,6.421-11.6,10.438-18.206,19.037a42.648,42.648,0,0,0-8.011,17.354c-1.434-10.4,3.35-17.116,3.614-17.475a21.2,21.2,0,0,0-5.26,9.229c-1.1,4.325-.913,5.553-.841,6.781-3.009-2.1-10.781-6.048-11.142-16.062Zm-1.582,1.067a13.5,13.5,0,0,1-4.449.79,14.2,14.2,0,0,1-5.395-1.542l.2-.021c5.138-1.286,9.779-6.837,9.779-6.837C184.194,1603.5,184.6,1609.231,184.6,1609.231Zm-41.687,2.281c-3.4,1.048-7.7,2.855-9.695,3.722,4.655-5.116,14.086-14.287,21.775-19.455,23.216-15.6,42.413-18.118,43.847-18.408l.418.366c.192.3.4.585.6.868-9.72,2.654-30.436,11.422-42.548,19.9-5.226,3.663-10.929,9.441-14.4,13.008Zm15.688-71.118a41.009,41.009,0,0,1-2.745-14.8c.006-.218-.007-.629-.007-.765a82.412,82.412,0,0,1,1.273-12.662c.025-.128.045-.263.064-.392l.013.694c-.02,3.381.212,6.357.3,7.282l.007.091c.012.135.1-.694.167-1.113.226-1.5.482-3,.631-4.518s.494-3.31.559-4.828c.026-.585.051-1.17.032-1.748.174.1.239.663.277.823.128.63.417,5.586.5,7.283.038.675.051,1.35.058,2.031a6.563,6.563,0,0,0,.071,1,2.4,2.4,0,0,0,.058.283c.025,0,.263-2.23.449-3.413a19.112,19.112,0,0,0,.405-3.072,2.183,2.183,0,0,1-.012-.289c.025-.154.251.5.359,1.709.078,1.369.136,2.784.3,4.12l.123,1.06c1.105,9.7,6.918,18.537,14.774,22.5,6.339,3.554,12.254,2.8,18.522,1.993,1.164-.148,2.361-.3,3.582-.431a32.888,32.888,0,0,1,17.365,2.635,16.267,16.267,0,0,1,9.128,11.89v.135a13.173,13.173,0,0,1,.3,2.828v.032c-.033-.186-.051-.36-.091-.553a12.871,12.871,0,0,1-.925,4.6,9.744,9.744,0,0,0,.193-5.109,12.513,12.513,0,0,1-1.183,5.167,11.629,11.629,0,0,0-3.606-12.334c1.806,1.935,2.686,5,2.945,7.873.6,6.716-4.771,11.119-10.531,12.115l-.123.033a9.787,9.787,0,0,0,4.334-.257,8.589,8.589,0,0,0,3.125-.81,10.949,10.949,0,0,0,1.537-.912,13.392,13.392,0,0,1-20.234-2.365c3.35.417,6.628,1.079,6.628,1.079a29.279,29.279,0,0,0-8.023-3.792v.019c-4.526-1.369-11.026-2.59-16.8-4.229-11.656-3.265-19.66-10.3-23.794-20.889Zm25.337-10.81c-2.6-6.858-1.723-13.4-2.173-17.064-.135-1.054-.3-2.339-.507-3.715a42.943,42.943,0,0,1,1.529,6.344,56.029,56.029,0,0,0-.842-7.976,47.973,47.973,0,0,1,2.032,7.461,35.443,35.443,0,0,0-.026-5.443,30.8,30.8,0,0,1,.824,3.412c1.337,7.424,3.536,12.611,12.383,18.068-1.575,2.41-3.9,5.694-5.7,8.246-2.186-1.639-5.839-4.891-7.516-9.332Zm16.394.007a17.116,17.116,0,0,0,1.594-5.277c12.9.6,28.365,6.254,40.87,18.106a52.6,52.6,0,0,1,11.567,16.7,88.433,88.433,0,0,0-12.5-.977,135.14,135.14,0,0,0-14.7.945v-.006c-.025-.213-.051-.424-.083-.636l-.026-.186c-.025-.167-.057-.328-.09-.5h.007a18.385,18.385,0,0,0-10.724-13.948,35.125,35.125,0,0,0-10.608-2.725,33.5,33.5,0,0,0-7.5.077c-1.247.129-2.449.289-3.632.437-.861.109-1.7.219-2.539.315,0,0,.424-.533.5-.65,2.237-3.381,4.668-6.735,5.883-8.368a19.9,19.9,0,0,0,1.985-3.316Zm-17.944,37.555c.1-.945.231-1.89.379-2.822.051-.256.1-.52.161-.778,1.042.251,2.1.5,3.164.739.951.225,1.909.45,2.855.687.475.116.944.232,1.408.354l.135.033-.193.032c-2.712.476-5.529,1.137-7.908,1.754Zm75.878,3.824c-9.284-1.234-16.389-1.189-31.426.444a14.019,14.019,0,0,1-26.353,3.683c-3.26.6-6.05,1.189-8.4,1.735,0,0-8.011,2.056-10.178,2.905,0,0-.475.521-.122-6.967.013-.18.2-2.3.322-3.612,2.494-.65,5.561-1.382,8.525-1.909,1.607-.283,3.137-.5,4.565-.675.849.225,1.672.45,2.436.675a15.513,15.513,0,0,0,29.613-6.318v-.026a145.013,145.013,0,0,1,14.613-.861,84.393,84.393,0,0,1,13.546,1.15A57.2,57.2,0,0,1,258.266,1570.969Zm2.963,1.177a22.108,22.108,0,0,0,3.9-1.157,6.256,6.256,0,0,1-5.851,5.282c-5.195.374-5.889-.88-9.791-1.388a10.933,10.933,0,0,1,3.252-1.112,19.768,19.768,0,0,0-6.365.18,8.557,8.557,0,0,0-3.852,1.858s-.321-2.784,1.068-3.709,6.268-.559,7.887-.373,7.06,1.022,9.754.418Zm1.537,14.32c.733.564,1.466.68,1.916,1.016s.449,1.355.225,2.2-.849.957-1.524.79a21.7,21.7,0,0,0-7.5.051c-.193-.662-.52-2.172.193-2.924.926-.964,2.708-.881,3.414-.746a7.684,7.684,0,0,0-2.766-.694,3,3,0,0,0-2.738,1.859,6.942,6.942,0,0,0,.1,2.936A28.932,28.932,0,0,0,240.051,1601a33.824,33.824,0,0,0-6.074,14.307s-5.234,1.029-7.941-2.989a16.658,16.658,0,0,1-2.264-11.716,6.788,6.788,0,0,1-3.851.572,2.234,2.234,0,0,1-1.323-1.016,88.168,88.168,0,0,0,8.833-8.291c1.542.34,2.931.713,3.691.951a6.042,6.042,0,0,1,3.883,3.451,48.762,48.762,0,0,1,.694,6.73,35.241,35.241,0,0,0,1.177-6.466,6.7,6.7,0,0,0-1.967-5.386c-1.061-.964-4.05-1.857-5.24-2.513,4.534-6.241,5.781-15.8,5.781-15.8-.007-.09-.007-.18-.007-.27a2.069,2.069,0,0,0,.778-.148c.836-.045,3.8-.412,4.623-.424,0,0-1.24,3.657-.167,6.363a11.464,11.464,0,0,1,6.705-1.575c3.941.284,10.254,2.2,12.961,1.125a13.713,13.713,0,0,1,1.125,4.679c-.051,1.967.565,3.323,1.3,3.883Zm6.923,25.362a4.48,4.48,0,0,0-2.629-3.157c-.791-.173-2.81-.7-2.81-.7a22.761,22.761,0,0,0,1.492-6.846c1.318-.7,3.947-1.754,3.947-1.754a19.547,19.547,0,0,0-4.038-8.253,22.827,22.827,0,0,0,.881-3.246c0-.617-1.144-1.664-2.372-2.455s-1.4-2.191-1.4-3.863-.7-3.773-.964-3.863,3.13-1.157,4.186-4.145a18.579,18.579,0,0,0,1.08-5.405c-1.4,2.044-6.892,2.886-6.892,2.886-.437-4.653-4.172-19.661-19.269-33.261S200.08,1521.7,200.08,1521.7a9.971,9.971,0,0,1-.283,2.648,13.585,13.585,0,0,1-1.235,4.01c-.038.071-.091.161-.142.244-3.548-1.922-7.277-4.506-8.987-7.526-3.311-5.849-2.9-10.882-4.655-15.008a31.2,31.2,0,0,0-8.255-11.5c-.707-.617-.944-.823-1.311-.527s-.122.707.173,1.144a37.71,37.71,0,0,1,3.826,12.154c.964,6.755-.315,17.418,2.847,24.263a30.73,30.73,0,0,0,7.4,9.577c.077.064.154.135.225.2l.708.7c-4.514.424-8.712.264-13.174-2.243-7.175-3.613-12.679-12.013-13.688-20.9l-.123-1.067c-.283-2.436-.167-4.872-.276-7.315a50.767,50.767,0,0,0-.726-6.613c-.168-.964-.366-1.916-.6-2.867l-.007-.032a14.7,14.7,0,0,0-.431-1.716c-.11-.373-.231-.745-.354-1.124a11.668,11.668,0,0,0-1.118-2.385,17.257,17.257,0,0,0-1.916-2.591,8.931,8.931,0,0,0-1.414-1.279s-.482-.3-.811-.129c0,0-.431.3.026,1.241a4.082,4.082,0,0,1,.251.507,6.28,6.28,0,0,1,.238.663,5.655,5.655,0,0,1,.173.752c.36,1.929.618,6.081-.906,14.006l-.013.025c-.135,1.151-.283,2.3-.482,3.445a85.5,85.5,0,0,0-1.343,12.289c0,.193.025.758.019.874-.045,3.888.7,29.379,27.067,37.407-.122.546-.238,1.074-.322,1.581-1.781,11.241-1.125,15.979-1.125,15.979l.013.115a124.56,124.56,0,0,0-17.925,8.446,106.925,106.925,0,0,0-22.637,16.614c-1.434,1.381-2.778,2.738-4.051,4.087-.309.321-.617.65-.926.977l-.058.065a97.48,97.48,0,0,0-9.277,11.588c11.913-8.6,30.525-11.177,36.215-11.512,5.967-.346,12.01-1.367,12.01-1.367a22.708,22.708,0,0,0,5.175,1.877,14.7,14.7,0,0,0,6.539-.309,19.839,19.839,0,0,0,6.687,11.048c-.3,1.858.007,7.989,2.1,11.4a22.671,22.671,0,0,0,5.966,6.145,16.176,16.176,0,0,0,.618,5.7,15.826,15.826,0,0,0,2.905,4.544,8.675,8.675,0,0,0-1.047,3.509,3.964,3.964,0,0,0,1.047,3.04,7.106,7.106,0,0,0-1.24,2.423,6.3,6.3,0,0,0,.482,2.667,9.352,9.352,0,0,0-.829,2.07,3.736,3.736,0,0,0,.347,2.019c-.431.841-1.71,4.794.173,6.381s4.217-1.375,4.217-1.375a5.951,5.951,0,0,0,2.719-2.109,4.818,4.818,0,0,0,.791-2.372,6.417,6.417,0,0,0,1.884-2.327,4.247,4.247,0,0,0,.618-2.249s4.083-4.287,4.931-9.641a24.339,24.339,0,0,0-.347-8.774,19.59,19.59,0,0,0,2.926-10,66.828,66.828,0,0,1,13.4-7.171c.181,3.6.746,6.716-.379,12.5-1.409,7.2-7.818,12.463-7.818,12.463,8.955-.964,14.929-8.864,17.295-14.571a131.461,131.461,0,0,0,4.513-14.217c8.736-1.7,16.716-2.147,19.365-2.545,3.51-.528,4.391-1.311,4.474-2.628a28.635,28.635,0,0,0-.528-5.271ZM254.382,1578.6a10.528,10.528,0,0,0-5.009-.373c-2.835.462-3.947,1.022-5.85,1.253l-.02.033c1.588.52,4.186.482,5.728.751a6.055,6.055,0,0,1,2.122.958l-.8,3.561a22.56,22.56,0,0,0-6.848,5.476,6.547,6.547,0,0,0-.475.668,2.473,2.473,0,0,0-.193.308q-.126.2-.231.405c-.09.161-.174.328-.256.5s-.161.335-.232.5a18.69,18.69,0,0,0-.752,2.012l-.065.2c-.141.469-.243.855-.308,1.118l-.026.1-.02.078-.025.123-.007.033c.038-.065.238-.425.573-.945l.243-.373a22.284,22.284,0,0,1,2.785-3.445c.161-.161.328-.321.5-.469a11.128,11.128,0,0,1,1.048-.836c2.61-1.813,3.992-2.513,4.783-3.252a3.133,3.133,0,0,0,.36-.47c.688-.836,1-3.824,1.055-4.461v-.019l.012-.11c.007-.109.007-.2.007-.257v-.064a7.628,7.628,0,0,0-1.344-2.179,8.111,8.111,0,0,1,3.247-.836Zm0,0a10.528,10.528,0,0,0-5.009-.373c-2.835.462-3.947,1.022-5.85,1.253l-.02.033c1.588.52,4.186.482,5.728.751a6.055,6.055,0,0,1,2.122.958l-.8,3.561a22.56,22.56,0,0,0-6.848,5.476,6.547,6.547,0,0,0-.475.668,2.473,2.473,0,0,0-.193.308q-.126.2-.231.405c-.09.161-.174.328-.256.5s-.161.335-.232.5a18.69,18.69,0,0,0-.752,2.012l-.065.2c-.141.469-.243.855-.308,1.118l-.026.1-.02.078-.025.123-.007.033c.038-.065.238-.425.573-.945l.243-.373a22.284,22.284,0,0,1,2.785-3.445c.161-.161.328-.321.5-.469a11.128,11.128,0,0,1,1.048-.836c2.61-1.813,3.992-2.513,4.783-3.252a3.133,3.133,0,0,0,.36-.47c.688-.836,1-3.824,1.055-4.461v-.019l.012-.11c.007-.109.007-.2.007-.257v-.064a7.628,7.628,0,0,0-1.344-2.179,8.111,8.111,0,0,1,3.247-.836Zm0,0a10.528,10.528,0,0,0-5.009-.373c-2.835.462-3.947,1.022-5.85,1.253l-.02.033c1.588.52,4.186.482,5.728.751a6.055,6.055,0,0,1,2.122.958l-.8,3.561a22.56,22.56,0,0,0-6.848,5.476,6.547,6.547,0,0,0-.475.668,2.473,2.473,0,0,0-.193.308q-.126.2-.231.405c-.09.161-.174.328-.256.5s-.161.335-.232.5a18.69,18.69,0,0,0-.752,2.012l-.065.2c-.141.469-.243.855-.308,1.118l-.026.1-.02.078-.025.123-.007.033c.038-.065.238-.425.573-.945l.243-.373a22.284,22.284,0,0,1,2.785-3.445c.161-.161.328-.321.5-.469a11.128,11.128,0,0,1,1.048-.836c2.61-1.813,3.992-2.513,4.783-3.252a3.133,3.133,0,0,0,.36-.47c.688-.836,1-3.824,1.055-4.461v-.019l.012-.11c.007-.109.007-.2.007-.257v-.064a7.628,7.628,0,0,0-1.344-2.179,8.111,8.111,0,0,1,3.247-.836Zm0,0a10.528,10.528,0,0,0-5.009-.373c-2.835.462-3.947,1.022-5.85,1.253l-.02.033c1.588.52,4.186.482,5.728.751a6.055,6.055,0,0,1,2.122.958l-.8,3.561a22.56,22.56,0,0,0-6.848,5.476,6.547,6.547,0,0,0-.475.668,2.473,2.473,0,0,0-.193.308q-.126.2-.231.405c-.09.161-.174.328-.256.5s-.161.335-.232.5a18.69,18.69,0,0,0-.752,2.012l-.065.2c-.141.469-.243.855-.308,1.118l-.026.1-.02.078-.025.123-.007.033c.038-.065.238-.425.573-.945l.243-.373a22.284,22.284,0,0,1,2.785-3.445c.161-.161.328-.321.5-.469a11.128,11.128,0,0,1,1.048-.836c2.61-1.813,3.992-2.513,4.783-3.252a3.133,3.133,0,0,0,.36-.47c.688-.836,1-3.824,1.055-4.461v-.019l.012-.11c.007-.109.007-.2.007-.257v-.064a7.628,7.628,0,0,0-1.344-2.179,8.111,8.111,0,0,1,3.247-.836Zm0,0a10.528,10.528,0,0,0-5.009-.373c-2.835.462-3.947,1.022-5.85,1.253l-.02.033c1.588.52,4.186.482,5.728.751a6.055,6.055,0,0,1,2.122.958l-.8,3.561a22.56,22.56,0,0,0-6.848,5.476,6.547,6.547,0,0,0-.475.668,2.473,2.473,0,0,0-.193.308q-.126.2-.231.405c-.09.161-.174.328-.256.5s-.161.335-.232.5a18.69,18.69,0,0,0-.752,2.012l-.065.2c-.141.469-.243.855-.308,1.118l-.026.1-.02.078-.025.123-.007.033c.038-.065.238-.425.573-.945l.243-.373a22.284,22.284,0,0,1,2.785-3.445c.161-.161.328-.321.5-.469a11.128,11.128,0,0,1,1.048-.836c2.61-1.813,3.992-2.513,4.783-3.252a3.133,3.133,0,0,0,.36-.47c.688-.836,1-3.824,1.055-4.461v-.019l.012-.11c.007-.109.007-.2.007-.257v-.064a7.628,7.628,0,0,0-1.344-2.179,8.111,8.111,0,0,1,3.247-.836Zm0,0a10.528,10.528,0,0,0-5.009-.373c-2.835.462-3.947,1.022-5.85,1.253l-.02.033c1.588.52,4.186.482,5.728.751a6.055,6.055,0,0,1,2.122.958l-.8,3.561a22.56,22.56,0,0,0-6.848,5.476,6.547,6.547,0,0,0-.475.668,2.473,2.473,0,0,0-.193.308q-.126.2-.231.405c-.09.161-.174.328-.256.5s-.161.335-.232.5a18.69,18.69,0,0,0-.752,2.012l-.065.2c-.141.469-.243.855-.308,1.118l-.026.1-.02.078-.025.123-.007.033c.038-.065.238-.425.573-.945l.243-.373a22.284,22.284,0,0,1,2.785-3.445c.161-.161.328-.321.5-.469a11.128,11.128,0,0,1,1.048-.836c2.61-1.813,3.992-2.513,4.783-3.252a3.133,3.133,0,0,0,.36-.47c.688-.836,1-3.824,1.055-4.461v-.019l.012-.11c.007-.109.007-.2.007-.257v-.064a7.628,7.628,0,0,0-1.344-2.179,8.111,8.111,0,0,1,3.247-.836Z" transform="translate(-0.17 -0.153)"/><path class="b" d="M270.047,1616.945c-.083,1.317-.964,2.1-4.474,2.629-2.649.4-10.629.848-19.365,2.545a131.041,131.041,0,0,1-4.513,14.217c-2.366,5.708-8.339,13.607-17.295,14.571,0,0,6.409-5.265,7.818-12.463,1.125-5.784.559-8.9.379-12.5a66.869,66.869,0,0,0-13.4,7.172,19.591,19.591,0,0,1-2.926,10,24.34,24.34,0,0,1,.347,8.774c-.848,5.354-4.931,9.641-4.931,9.641a4.247,4.247,0,0,1-.618,2.249,6.421,6.421,0,0,1-1.883,2.327,4.812,4.812,0,0,1-.792,2.372,5.943,5.943,0,0,1-2.719,2.108s-2.34,2.963-4.217,1.376-.6-5.54-.173-6.381a3.746,3.746,0,0,1-.347-2.019,9.352,9.352,0,0,1,.829-2.07,6.319,6.319,0,0,1-.482-2.667,7.109,7.109,0,0,1,1.241-2.424,3.964,3.964,0,0,1-1.048-3.039,8.674,8.674,0,0,1,1.048-3.509,15.837,15.837,0,0,1-2.906-4.544,16.165,16.165,0,0,1-.617-5.7,22.667,22.667,0,0,1-5.967-6.145c-2.089-3.407-2.391-9.538-2.1-11.4a19.839,19.839,0,0,1-6.687-11.048,14.7,14.7,0,0,1-6.539.309,22.708,22.708,0,0,1-5.175-1.877s-6.044,1.021-12.009,1.367c-5.69.335-24.3,2.913-36.216,11.512a97.48,97.48,0,0,1,9.277-11.588l.058-.065c.308-.328.617-.656.926-.977,1.273-1.35,2.617-2.706,4.051-4.087A106.926,106.926,0,0,1,161.26,1589a124.56,124.56,0,0,1,17.925-8.446l-.013-.115s-.656-4.737,1.125-15.979c.084-.507.2-1.035.322-1.581-26.366-8.028-27.112-33.519-27.067-37.407.007-.116-.019-.681-.019-.874a85.493,85.493,0,0,1,1.343-12.289c.2-1.145.348-2.3.482-3.445l.013-.025c1.524-7.926,1.266-12.077.907-14.006a5.964,5.964,0,0,0-.174-.752,6.351,6.351,0,0,0-.238-.663,3.926,3.926,0,0,0-.251-.507c-.457-.939-.025-1.241-.025-1.241.328-.173.81.129.81.129a8.89,8.89,0,0,1,1.414,1.279,17.258,17.258,0,0,1,1.916,2.591,11.663,11.663,0,0,1,1.118,2.384c.122.379.244.752.354,1.125a14.517,14.517,0,0,1,.431,1.716l.007.032c.231.951.431,1.9.6,2.867a50.762,50.762,0,0,1,.726,6.613c.11,2.443-.007,4.878.277,7.315l.122,1.067c1.009,8.889,6.512,17.289,13.688,20.9,4.462,2.507,8.66,2.667,13.174,2.243l-.708-.7c-.071-.065-.148-.136-.225-.2a30.715,30.715,0,0,1-7.4-9.577c-3.164-6.845-1.884-17.508-2.848-24.263a37.711,37.711,0,0,0-3.826-12.154c-.3-.437-.533-.855-.173-1.144s.6-.09,1.312.527a31.2,31.2,0,0,1,8.254,11.5c1.756,4.127,1.344,9.159,4.655,15.008,1.71,3.02,5.439,5.6,8.988,7.526.051-.083.1-.173.141-.244a13.585,13.585,0,0,0,1.235-4.01,9.973,9.973,0,0,0,.283-2.649s25.723,2.462,40.818,16.062,18.832,28.608,19.269,33.261c0,0,5.49-.841,6.892-2.886a18.578,18.578,0,0,1-1.08,5.405c-1.055,2.989-4.449,4.062-4.186,4.145s.964,2.2.964,3.863.174,3.073,1.4,3.863,2.372,1.838,2.372,2.455a22.936,22.936,0,0,1-.88,3.246,19.551,19.551,0,0,1,4.037,8.253s-2.629,1.053-3.947,1.754a22.761,22.761,0,0,1-1.492,6.846s2.019.527,2.81.7a4.48,4.48,0,0,1,2.629,3.157,28.713,28.713,0,0,1,.528,5.27Zm1.685-5.579a6.593,6.593,0,0,0-4.353-4.975c-.122-.026-.282-.058-.456-.1a25.944,25.944,0,0,0,.778-3.819c1-.456,2.161-.932,2.662-1.132l1.7-.687-.341-1.8a21.377,21.377,0,0,0-3.762-8.3,10.116,10.116,0,0,0,.637-2.789c0-1.427-1.145-2.886-3.395-4.333-.181-.115-.386-.444-.386-1.993a14.358,14.358,0,0,0-.405-2.957,8.872,8.872,0,0,0,3.5-4.312,22.32,22.32,0,0,0,1.145-5.122,19.829,19.829,0,0,0-.027-2.031l-.23-2.764s-1.389,1.105-2.16,1.7c-.206.154-.36.27-.445.321a4.1,4.1,0,0,1-.346.231c-.566.341-1.2.61-1.466.752a13.063,13.063,0,0,1-2.534.958c-1.453-7.514-6.775-20.658-19.647-32.252-15.482-13.948-41.051-16.531-42.13-16.641l-2.4-.225a42.255,42.255,0,0,1-.277,4.614l-.025.116c-.083.5-.181.964-.3,1.4-2.912-1.819-4.943-3.663-5.927-5.405a28.012,28.012,0,0,1-2.976-9.011,28.812,28.812,0,0,0-1.57-5.784,33.626,33.626,0,0,0-8.846-12.315,3.715,3.715,0,0,0-2.469-1.208,2.728,2.728,0,0,0-1.723.63c-.462.379-1.851,1.78-.3,4.075a36.122,36.122,0,0,1,3.5,11.28,69.842,69.842,0,0,1,.45,7.706c.141,5.752.309,12.264,2.584,17.2a28.728,28.728,0,0,0,3.646,5.8c.135.168.65.708.739.816.231.271.47.54.7.8a16.107,16.107,0,0,1-6.745-2.057l-.09-.052c-6.532-3.291-11.547-10.99-12.473-19.166l-.122-1.067a42.066,42.066,0,0,1-.206-4.461c-.006-.88-.019-1.786-.057-2.7a53.45,53.45,0,0,0-.759-6.9c-.168-.964-.373-1.935-.6-2.886l-.02-.07a16.113,16.113,0,0,0-.475-1.9c-.116-.405-.244-.8-.379-1.2a13.568,13.568,0,0,0-1.331-2.854,18.731,18.731,0,0,0-2.18-2.937,11.128,11.128,0,0,0-1.761-1.581l-.09-.058a3.373,3.373,0,0,0-1.781-.54,2.713,2.713,0,0,0-1.273.309l-.251.153a3.094,3.094,0,0,0-.688,4.043l.084.153c.019.033.064.123.122.251s.1.27.154.431a4.076,4.076,0,0,1,.115.52c.3,1.587.573,5.373-.868,12.97l-.077.392c-.161,1.35-.3,2.372-.463,3.323a87.439,87.439,0,0,0-1.376,12.617c0,.141.007.437.013.681l.006.218c-.032,3.073.438,29.7,26.726,38.937l.02.007-.083.032a80.425,80.425,0,0,0-1.2,14.673,127,127,0,0,0-16.67,7.989,109.332,109.332,0,0,0-23.126,16.975c-1.409,1.355-2.758,2.713-4.121,4.152-.322.334-.636.668-.913.972l-.091.1a101.117,101.117,0,0,0-9.251,11.5,5.688,5.688,0,0,0-.424.745c-.309.706-.636,2.063.007,2.777.386.431,1.144.8,2.578.186a3.513,3.513,0,0,0,.45-.186,9.6,9.6,0,0,0,.823-.516c8.705-6.658,28.7-10.335,34.537-10.675,4.893-.289,9.747-1,11.547-1.286a24.828,24.828,0,0,0,5.041,1.742,13.759,13.759,0,0,0,2.931.3,17.372,17.372,0,0,0,2.463-.18,22.561,22.561,0,0,0,6.005,9.391c-.1,2.841.386,8.17,2.513,11.626a24.262,24.262,0,0,0,5.6,6.082,16.371,16.371,0,0,0,.8,5.379,16.194,16.194,0,0,0,2.385,4.131,10.494,10.494,0,0,0-.662,3.016,6.31,6.31,0,0,0,.61,3.188,6.689,6.689,0,0,0-.771,2.056,6.757,6.757,0,0,0,.271,2.879,9.323,9.323,0,0,0-.612,1.775,5.287,5.287,0,0,0,.154,2.436c-.687,2-1.44,5.977,1.113,8.132a4.118,4.118,0,0,0,2.675.989,6.372,6.372,0,0,0,4.32-2.2,8.4,8.4,0,0,0,3.273-2.771,7.331,7.331,0,0,0,1.009-2.441,9.992,9.992,0,0,0,1.761-2.424,7.622,7.622,0,0,0,.824-2.385,23.618,23.618,0,0,0,4.641-8.663l.251-1.125c.026-.135.051-.276.07-.424a26.652,26.652,0,0,0-.192-8.742,22.047,22.047,0,0,0,2.778-9.2,66.671,66.671,0,0,1,9.181-5.1,31.627,31.627,0,0,1-.547,8.812c-.919,4.679-4.334,8.548-6.05,10.245-.6.585-2.07,2.256-2.07,2.256a1.665,1.665,0,0,0-.456,1.446,2.148,2.148,0,0,0,.1.347,1.106,1.106,0,0,0,.167.231c.817.791,3.061.5,3.061.5,9.663-1.035,16.207-9.153,18.992-15.856a120.533,120.533,0,0,0,4.236-13.15c5.6-1.016,10.782-1.524,14.3-1.87,1.569-.155,2.81-.277,3.626-.405,2.141-.315,6.127-.913,6.378-4.692a27.688,27.688,0,0,0-.553-5.785Z"/></g><rect class="e" width="200" height="200"/></svg>