<svg xmlns="http://www.w3.org/2000/svg" width="39" height="39" viewBox="0 0 39 39"><defs><style>.a,.b{fill:none;}.b{stroke:#fff;stroke-width:2px;opacity:0.7;}.c{fill:#fff;fill-rule:evenodd;}</style></defs><g transform="translate(1 1)"><rect class="a" width="37" height="37"/><circle class="b" cx="18.5" cy="18.5" r="18.5"/><path class="c" d="M20.337,12.682c2.493,0,2.788.009,3.773.054a5.168,5.168,0,0,1,1.734.321,3.092,3.092,0,0,1,1.772,1.772,5.167,5.167,0,0,1,.322,1.734c.045.985.054,1.28.054,3.773s-.009,2.788-.054,3.773a5.167,5.167,0,0,1-.322,1.734,3.092,3.092,0,0,1-1.772,1.772,5.167,5.167,0,0,1-1.734.322c-.984.045-1.28.054-3.773.054s-2.789-.009-3.773-.054a5.166,5.166,0,0,1-1.734-.322,3.092,3.092,0,0,1-1.772-1.772,5.167,5.167,0,0,1-.322-1.734c-.045-.985-.054-1.28-.054-3.773s.009-2.788.054-3.773a5.167,5.167,0,0,1,.322-1.734,3.092,3.092,0,0,1,1.772-1.772,5.168,5.168,0,0,1,1.734-.321c.985-.045,1.28-.054,3.773-.054m0-1.682c-2.536,0-2.854.011-3.85.056a6.854,6.854,0,0,0-2.267.434,4.775,4.775,0,0,0-2.731,2.731,6.854,6.854,0,0,0-.434,2.267c-.045,1-.056,1.314-.056,3.85s.011,2.854.056,3.85a6.854,6.854,0,0,0,.434,2.267,4.775,4.775,0,0,0,2.731,2.731,6.854,6.854,0,0,0,2.267.434c1,.045,1.314.056,3.85.056s2.854-.011,3.85-.056a6.854,6.854,0,0,0,2.267-.434,4.775,4.775,0,0,0,2.731-2.731,6.854,6.854,0,0,0,.434-2.267c.045-1,.056-1.314.056-3.85s-.011-2.854-.056-3.85a6.854,6.854,0,0,0-.434-2.267,4.775,4.775,0,0,0-2.731-2.731,6.854,6.854,0,0,0-2.267-.434C23.191,11.011,22.873,11,20.337,11Zm.019,4.557a4.8,4.8,0,1,0,4.8,4.8A4.8,4.8,0,0,0,20.356,15.557Zm0,7.913a3.115,3.115,0,1,1,3.115-3.115A3.115,3.115,0,0,1,20.356,23.47Zm6.058-8.135A1.112,1.112,0,1,1,25.3,14.224,1.112,1.112,0,0,1,26.414,15.335Z" transform="translate(-1.663 -1.663)"/></g></svg>