<svg xmlns="http://www.w3.org/2000/svg" width="36.359" height="36.378" viewBox="0 0 36.359 36.378"><defs><style>.a{fill:#fff;stroke:#fff;stroke-width:0.5px;}</style></defs><path class="a" d="M417.766,251.015A15.276,15.276,0,0,1,420,252.869a15.088,15.088,0,0,1,1.809,2.19,14.812,14.812,0,0,1,1.4,2.6,14.01,14.01,0,0,1,.881,2.825,15.3,15.3,0,0,1,.046,5.741,13.159,13.159,0,0,1-.747,2.552,17.8,17.8,0,0,1-1.15,2.4,14.018,14.018,0,0,1-1.47,2.08l9.084,9.084a2.047,2.047,0,0,1,.221.383,1.059,1.059,0,0,1,.09.441,1.223,1.223,0,0,1-.09.441,1.8,1.8,0,0,1-.22.405c-.059.031-.13.068-.2.115a2.252,2.252,0,0,1-.2.112,1.4,1.4,0,0,1-.22.068.943.943,0,0,1-.22.022,1.019,1.019,0,0,1-.2-.022.759.759,0,0,1-.2-.068.885.885,0,0,1-.22-.112,1.083,1.083,0,0,0-.181-.115l-9.084-9.084a16.418,16.418,0,0,1-4.474,2.622,14.407,14.407,0,0,1-2.576.745,14.58,14.58,0,0,1-2.713.249,15.237,15.237,0,0,1-3-.293,14.979,14.979,0,0,1-2.865-.881,15.542,15.542,0,0,1-2.552-1.4,17.026,17.026,0,0,1-2.237-1.807,17.323,17.323,0,0,1-1.809-2.237,15.452,15.452,0,0,1-1.4-2.554,14.864,14.864,0,0,1-.882-2.865,15.444,15.444,0,0,1,0-6.012,14.866,14.866,0,0,1,.881-2.865,15.453,15.453,0,0,1,1.4-2.554,17.337,17.337,0,0,1,1.809-2.237,17.024,17.024,0,0,1,2.237-1.807,15.533,15.533,0,0,1,2.552-1.4,14.982,14.982,0,0,1,2.865-.881,15.551,15.551,0,0,1,6.01,0,14.97,14.97,0,0,1,2.865.882,15.561,15.561,0,0,1,2.541,1.393Zm-18.983,19.592a13.255,13.255,0,0,0,5.584,4.632,12.423,12.423,0,0,0,2.424.745,13.214,13.214,0,0,0,5.106,0,12.462,12.462,0,0,0,2.424-.745,13.271,13.271,0,0,0,6.779-6.779,12.343,12.343,0,0,0,.745-2.424,13.109,13.109,0,0,0,0-5.108,12.348,12.348,0,0,0-.745-2.424,13.1,13.1,0,0,0-1.2-2.146,13.393,13.393,0,0,0-3.434-3.436,13.065,13.065,0,0,0-2.149-1.2,12.471,12.471,0,0,0-2.424-.745,13.224,13.224,0,0,0-5.106,0,12.423,12.423,0,0,0-2.424.745,13.055,13.055,0,0,0-2.149,1.2,13.353,13.353,0,0,0-3.436,3.436,13.087,13.087,0,0,0-1.2,2.146,12.509,12.509,0,0,0-.745,2.424,13.221,13.221,0,0,0,0,5.108,12.507,12.507,0,0,0,.745,2.424,13.1,13.1,0,0,0,1.2,2.14Z" transform="translate(-394.058 -248.195)"/></svg>