<svg xmlns="http://www.w3.org/2000/svg" width="16.797" height="13.659" viewBox="0 0 16.797 13.659"><defs><style>.a{fill:#1a1818;}</style></defs><path class="a" d="M679.342,478.124a2.847,2.847,0,0,1-.348.523,4.529,4.529,0,0,1-.431.452,2.922,2.922,0,0,1-.513.369c.178-.028.352-.058.524-.092s.338-.072.5-.113.344-.11.5-.164.311-.117.462-.185q-.165.246-.359.492a5.51,5.51,0,0,1-.421.472,5.427,5.427,0,0,1-.44.431,5.989,5.989,0,0,1-.5.389v.114a.374.374,0,0,0,.02.112v.2a9.143,9.143,0,0,1-.164,1.723,12.219,12.219,0,0,1-.471,1.743,10.511,10.511,0,0,1-.8,1.65,10.978,10.978,0,0,1-1.087,1.508,9.89,9.89,0,0,1-1.405,1.271,11.021,11.021,0,0,1-1.671,1.026,8.606,8.606,0,0,1-1.969.677,10.608,10.608,0,0,1-2.235.225c-.246,0-.49-.01-.729-.031s-.474-.044-.707-.071-.465-.085-.7-.134a6.843,6.843,0,0,1-.677-.174c-.219-.068-.434-.144-.645-.226s-.428-.17-.647-.266-.407-.2-.6-.308-.393-.219-.584-.328a2.029,2.029,0,0,1,.2.011,1.992,1.992,0,0,0,.205.01,1.1,1.1,0,0,0,.205.02h.205a6.78,6.78,0,0,0,1.189-.1,7.411,7.411,0,0,0,1.108-.288,8.1,8.1,0,0,0,1.046-.471,7.054,7.054,0,0,0,.943-.615,3.685,3.685,0,0,1-1.077-.2,3.322,3.322,0,0,1-.933-.5,3.641,3.641,0,0,1-.749-.768,3.434,3.434,0,0,1-.461-.934,1.25,1.25,0,0,0,.155.031,1.551,1.551,0,0,1,.153.031h.574a1.134,1.134,0,0,0,.226-.021c.068-.014.139-.027.215-.041a1.829,1.829,0,0,0,.236-.061,3.569,3.569,0,0,1-1.087-.411,3.821,3.821,0,0,1-1.487-1.794,3.464,3.464,0,0,1-.2-1.179v-.021c.11.055.226.107.349.154s.253.092.39.133a2.377,2.377,0,0,0,.389.093,2.988,2.988,0,0,0,.431.03,3.352,3.352,0,0,1-.626-.522,3.149,3.149,0,0,1-.481-.688,3.384,3.384,0,0,1-.318-.789,3.316,3.316,0,0,1-.113-.872,3.267,3.267,0,0,1,.031-.451,3.437,3.437,0,0,1,.092-.451,2.889,2.889,0,0,1,.154-.431c.061-.136.126-.266.2-.389a8.478,8.478,0,0,0,.667.749,8.353,8.353,0,0,0,.748.666q.41.327.83.605a8.451,8.451,0,0,0,.872.5,8.032,8.032,0,0,0,.923.431q.471.185.984.328.513.123,1.025.2t1.046.123a2.061,2.061,0,0,1-.03-.2c-.008-.068-.018-.137-.031-.205s0-.116-.01-.185a1.749,1.749,0,0,1-.011-.2,3.3,3.3,0,0,1,.072-.687,3.872,3.872,0,0,1,.2-.646,4.571,4.571,0,0,1,.328-.585,4.456,4.456,0,0,1,.41-.522,4.7,4.7,0,0,1,.513-.41,3.479,3.479,0,0,1,.6-.328,3.937,3.937,0,0,1,.646-.2,3.283,3.283,0,0,1,.687-.072,3.53,3.53,0,0,1,.717.072,2.725,2.725,0,0,1,.677.236,3.431,3.431,0,0,1,.6.338,3.95,3.95,0,0,1,.523.441c.191-.041.383-.089.574-.144s.376-.116.554-.184a4.522,4.522,0,0,0,.544-.236c.17-.088.345-.181.522-.277A3.947,3.947,0,0,1,679.342,478.124Z" transform="translate(-663.243 -477.293)"/></svg>