<svg xmlns="http://www.w3.org/2000/svg" width="39" height="39" viewBox="0 0 39 39"><defs><style>.a,.b{fill:none;}.b{stroke:#fff;stroke-width:2px;opacity:0.7;}.c{fill:#fff;fill-rule:evenodd;}</style></defs><g transform="translate(1 1)"><rect class="a" width="37" height="37"/><circle class="b" cx="18.5" cy="18.5" r="18.5"/><path class="c" d="M27.726,16.416a3.828,3.828,0,0,0,1.607-2.133,7.092,7.092,0,0,1-2.323.936A3.56,3.56,0,0,0,24.341,14a3.76,3.76,0,0,0-3.656,3.857,4.035,4.035,0,0,0,.093.878,10.214,10.214,0,0,1-7.537-4.03,4.01,4.01,0,0,0-.495,1.94,3.919,3.919,0,0,0,1.627,3.211,3.526,3.526,0,0,1-1.657-.482v.047A3.811,3.811,0,0,0,15.65,23.2a3.4,3.4,0,0,1-.965.136A3.439,3.439,0,0,1,14,23.271a3.689,3.689,0,0,0,3.416,2.678A7.1,7.1,0,0,1,12.873,27.6,6.907,6.907,0,0,1,12,27.547a9.972,9.972,0,0,0,5.606,1.732c6.728,0,10.4-5.877,10.4-10.974,0-.168,0-.334-.009-.5a7.645,7.645,0,0,0,1.825-2A7.009,7.009,0,0,1,27.726,16.416Z" transform="translate(-1.814 -2.116)"/></g></svg>