<svg xmlns="http://www.w3.org/2000/svg" width="15.751" height="8.389" viewBox="0 0 15.751 8.389"><defs><style>.a{fill:#1a1818;}</style></defs><g transform="translate(0 0)"><path class="a" d="M764.433,288.059a.807.807,0,0,1-.1-.185.535.535,0,0,1-.041-.2.467.467,0,0,1,.041-.2.873.873,0,0,1,.1-.174.445.445,0,0,1,.175-.113.687.687,0,0,1,.215-.031.631.631,0,0,1,.2.031.457.457,0,0,1,.174.113l6.973,6.993,6.972-6.993a.464.464,0,0,1,.174-.113.636.636,0,0,1,.2-.031.687.687,0,0,1,.215.031.445.445,0,0,1,.175.113.927.927,0,0,1,.1.174.484.484,0,0,1,.041.2.555.555,0,0,1-.041.2.848.848,0,0,1-.1.185l-7.362,7.341a.487.487,0,0,0-.082.052.682.682,0,0,1-.082.051.893.893,0,0,1-.114.031.451.451,0,0,1-.091.01.446.446,0,0,1-.092-.01.942.942,0,0,1-.114-.031l-.082-.041a.333.333,0,0,1-.082-.062Z" transform="translate(-764.289 -287.156)"/></g></svg>