<svg xmlns="http://www.w3.org/2000/svg" width="20.02" height="13.352" viewBox="0 0 20.02 13.352"><defs><style>.a{fill:#1a1818;}</style></defs><path class="a" d="M714.932,479.017v11.135a1,1,0,0,1-.082.411,1.168,1.168,0,0,1-.246.348,1.254,1.254,0,0,1-.359.256.963.963,0,0,1-.42.093h-17.8a1.081,1.081,0,0,1-.42-.082,1,1,0,0,1-.359-.267,1.087,1.087,0,0,1-.246-.359,1.011,1.011,0,0,1-.082-.4V479.017a1.062,1.062,0,0,1,.082-.42,1.182,1.182,0,0,1,.6-.606,1.081,1.081,0,0,1,.42-.082h17.8a1.085,1.085,0,0,1,.42.082,1.129,1.129,0,0,1,.359.246,1.221,1.221,0,0,1,.267.379A.818.818,0,0,1,714.932,479.017Zm-15.647,3.722a.633.633,0,0,0-.246-.3,1.034,1.034,0,0,0-.38-.174,2.091,2.091,0,0,0-.482-.051h-1.415a.173.173,0,0,0-.113.041.148.148,0,0,0-.051.123l-.574,3.548a.091.091,0,0,0,.01.041.085.085,0,0,1,.01.041.41.41,0,0,0,.052.041.1.1,0,0,0,.051.02h.656a.179.179,0,0,0,.133-.05.186.186,0,0,0,.052-.134l.164-.944a.128.128,0,0,1,.02-.071c.014-.021.028-.031.041-.031a.364.364,0,0,1,.051-.041.13.13,0,0,1,.072-.021l.092-.03a.046.046,0,0,1,.052.01.517.517,0,0,1,.071.01.577.577,0,0,0,.114.01h.123a1.79,1.79,0,0,0,.656-.112,1.678,1.678,0,0,0,.513-.318,1.3,1.3,0,0,0,.307-.5,2.025,2.025,0,0,0,.1-.667A1.14,1.14,0,0,0,699.285,482.739Zm-1.046,1.015a.358.358,0,0,1-.144.143,1.86,1.86,0,0,1-.225.073,1.277,1.277,0,0,1-.287.03h-.308l.164-.923a.106.106,0,0,1,.03-.072.1.1,0,0,1,.073-.03h.184a1.221,1.221,0,0,1,.287.03.572.572,0,0,1,.205.093.191.191,0,0,1,.1.143.907.907,0,0,1,0,.267A.654.654,0,0,1,698.239,483.754Zm4.183-.123a.257.257,0,0,0-.009-.052.157.157,0,0,0-.032-.051c0-.013-.009-.023-.031-.031a.182.182,0,0,0-.051-.01h-.656a.119.119,0,0,0-.1.073.609.609,0,0,0-.062.214.66.66,0,0,0-.318-.255,1.3,1.3,0,0,0-.523-.093,1.311,1.311,0,0,0-.554.123,1.472,1.472,0,0,0-.471.348,1.527,1.527,0,0,0-.339.5,1.6,1.6,0,0,0-.112.606,1.172,1.172,0,0,0,.082.461,1.041,1.041,0,0,0,.225.339.808.808,0,0,0,.349.235,1.786,1.786,0,0,0,.451.093,1.089,1.089,0,0,0,.246-.03,2,2,0,0,0,.267-.093.879.879,0,0,0,.225-.113,1.282,1.282,0,0,0,.185-.154.2.2,0,0,0-.021.092v.093a.22.22,0,0,0,.021.1.082.082,0,0,0,.082.041h.6a.182.182,0,0,0,.133-.05.294.294,0,0,0,.072-.134Zm-1.076,1.343a.582.582,0,0,1-.175.236.675.675,0,0,1-.235.154.832.832,0,0,1-.3.051.846.846,0,0,1-.246-.031.378.378,0,0,1-.164-.092.9.9,0,0,1-.1-.174.89.89,0,0,1-.062-.216.766.766,0,0,1,.472-.717.769.769,0,0,1,.307-.062.551.551,0,0,1,.2.041.788.788,0,0,1,.185.1.78.78,0,0,1,.1.184,1.084,1.084,0,0,1,.062.226A.844.844,0,0,1,701.346,484.974Zm4.594-1.4a.187.187,0,0,0-.072-.072.107.107,0,0,0-.041-.01h-.657a.157.157,0,0,0-.091.021.435.435,0,0,0-.073.061l-.922,1.354-.39-1.292a.261.261,0,0,0-.062-.1.167.167,0,0,0-.123-.041h-.656a.1.1,0,0,0-.041.01.219.219,0,0,0-.041.031.044.044,0,0,1-.011.032.037.037,0,0,0-.009.03.914.914,0,0,0,.041.153c.027.09.068.216.123.38s.113.317.173.5.127.372.2.563.1.356.133.452a.663.663,0,0,0,.072.164q-.35.492-.533.749a1.2,1.2,0,0,0-.185.3.108.108,0,0,0,.03.072.136.136,0,0,0,.093.03h.656a.239.239,0,0,0,.1-.02.136.136,0,0,0,.061-.062l2.215-3.2a.035.035,0,0,1,.011-.03.049.049,0,0,0,.01-.032A.107.107,0,0,0,705.94,483.569Zm3.229-.83a.622.622,0,0,0-.246-.3,1.024,1.024,0,0,0-.389-.174,2.239,2.239,0,0,0-.492-.051h-1.374a.2.2,0,0,0-.144.041.264.264,0,0,0-.062.123l-.574,3.548a.082.082,0,0,0,.011.041.172.172,0,0,0,.03.041l.041.041a.063.063,0,0,0,.041.02h.718a.128.128,0,0,0,.082-.031.106.106,0,0,0,.041-.092l.164-1.005a.121.121,0,0,1,.021-.071c.013-.021.027-.031.041-.031a.207.207,0,0,1,.061-.041.182.182,0,0,1,.082-.021.483.483,0,0,1,.082-.03.061.061,0,0,1,.062.01.338.338,0,0,1,.061.01.432.432,0,0,0,.1.01h.123a1.877,1.877,0,0,0,.667-.112,1.357,1.357,0,0,0,.82-.82,1.9,1.9,0,0,0,.112-.667A1.122,1.122,0,0,0,709.169,482.739Zm-1,.944a.334.334,0,0,1-.144.194.6.6,0,0,1-.226.093,1.794,1.794,0,0,1-.348.03h-.267l.123-.923a.312.312,0,0,1,.051-.072.1.1,0,0,1,.072-.03h.164a1.4,1.4,0,0,1,.174.01.819.819,0,0,0,.113.01.217.217,0,0,1,.114.031c.033.02.071.044.112.072a.327.327,0,0,1,.082.123.445.445,0,0,1,.021.143A1.107,1.107,0,0,1,708.165,483.683Zm4.122-.052v-.052a.071.071,0,0,0-.021-.051.219.219,0,0,0-.041-.031.157.157,0,0,0-.061-.01h-.657a.1.1,0,0,0-.092.073.884.884,0,0,0-.051.214.815.815,0,0,0-.328-.255,1.228,1.228,0,0,0-.513-.093,1.284,1.284,0,0,0-.564.123,1.76,1.76,0,0,0-.482.348,1.407,1.407,0,0,0-.328.5,1.748,1.748,0,0,0-.1.606,1.325,1.325,0,0,0,.072.461.92.92,0,0,0,.216.339.8.8,0,0,0,.348.235,1.829,1.829,0,0,0,.472.093,1.089,1.089,0,0,0,.246-.03,2,2,0,0,0,.267-.093.88.88,0,0,0,.225-.113.7.7,0,0,0,.164-.154v.062a.171.171,0,0,0-.02.071v.052a.155.155,0,0,0,.031.1.084.084,0,0,0,.071.041h.595a.179.179,0,0,0,.133-.05.294.294,0,0,0,.072-.134Zm-1.078,1.343a.568.568,0,0,1-.173.236.93.93,0,0,1-.256.154.778.778,0,0,1-.278.051.76.76,0,0,1-.225-.031.583.583,0,0,1-.185-.092.482.482,0,0,1-.113-.174.7.7,0,0,1-.03-.216A.862.862,0,0,1,710,484.6a.626.626,0,0,1,.153-.246,1.116,1.116,0,0,1,.257-.164.647.647,0,0,1,.276-.062.614.614,0,0,1,.226.041.781.781,0,0,1,.184.1.531.531,0,0,1,.123.184.594.594,0,0,1,.041.226A.8.8,0,0,1,711.209,484.974Zm2.616-2.656a.092.092,0,0,0-.032-.071.118.118,0,0,0-.091-.031h-.636a.126.126,0,0,0-.071.02.089.089,0,0,0-.032.082l-.574,3.63a.158.158,0,0,0,.021.062.139.139,0,0,0,.041.03c.013.008.034.018.061.031h.554a.183.183,0,0,0,.134-.05.189.189,0,0,0,.051-.134l.574-3.548Z" transform="translate(-694.917 -477.908)"/></svg>