<svg xmlns="http://www.w3.org/2000/svg" width="39" height="39" viewBox="0 0 39 39"><defs><style>.a,.b{fill:none;}.b{stroke:#fff;stroke-width:2px;opacity:0.7;}.c{fill:#fff;fill-rule:evenodd;}</style></defs><g transform="translate(1 1)"><rect class="a" width="37" height="37"/><circle class="b" cx="18.5" cy="18.5" r="18.5"/><path class="c" d="M15.181,25.294l.014-3.439.643-.007.642-.008-.007-.53-.008-.53-1.855-.007-1.854-.007V21.84l.627.008.627.007.007,3.411c0,1.875.013,3.427.02,3.446s.14.034.571.028l.558-.007Zm10.7-.242a5.432,5.432,0,0,1,.045-.978.5.5,0,0,1,.526-.4.467.467,0,0,1,.467.284c.061.125.067.178.077.639l.009.5h-.554c-.476,0-.555-.006-.569-.044Zm1.034,3.705a1.46,1.46,0,0,0,1.06-1.05,3.756,3.756,0,0,0,.06-.567l.016-.4H27l-.013.361c-.015.41-.057.551-.206.683a.558.558,0,0,1-.639.022c-.226-.153-.281-.411-.27-1.249l.008-.594,1.082-.007,1.082-.008-.014-.884a2.981,2.981,0,0,0-.2-1.487,1.569,1.569,0,0,0-1.912-.734,1.468,1.468,0,0,0-1,1.119,10.075,10.075,0,0,0-.051,1.817c0,1.77.006,1.842.186,2.2a1.612,1.612,0,0,0,1.859.777ZM22.63,27.749a.38.38,0,0,0,.144-.206,9,9,0,0,0,.042-1.811,6.846,6.846,0,0,0-.06-1.779c-.131-.265-.461-.29-.763-.059l-.1.075v3.609l.1.075a.553.553,0,0,0,.638.094Zm.655,1.019a.858.858,0,0,0,.453-.444c.172-.383.173-.393.173-2.549a14.152,14.152,0,0,0-.049-2.179c-.142-.613-.451-.88-.97-.841a1.218,1.218,0,0,0-.794.405,1.9,1.9,0,0,1-.238.21c-.011,0-.021-.586-.021-1.3v-1.3H20.822v7.981h1.015v-.269c0-.179.011-.269.032-.269a1.473,1.473,0,0,1,.254.21,1.1,1.1,0,0,0,1.162.348Zm-5.4-.026a1.908,1.908,0,0,0,.642-.446.816.816,0,0,1,.2-.171c.027,0,.036.077.036.311v.311h1.015V22.832H18.763v4.563l-.219.218a.785.785,0,0,1-.353.255c-.181.051-.3.015-.371-.113a10.557,10.557,0,0,1-.066-2.51l-.007-2.413H16.732v2.561c0,2.791,0,2.851.158,3.12a.78.78,0,0,0,.99.228Zm.431,2.468c-.659-.011-1.44-.03-1.735-.04-1.979-.071-3.338-.148-3.609-.2a2,2,0,0,1-1.07-.65,3.657,3.657,0,0,1-.721-2.022,30.842,30.842,0,0,1,.015-6.735,3.3,3.3,0,0,1,.842-2.025,1.737,1.737,0,0,1,.849-.494,92.981,92.981,0,0,1,9.871-.258c2,.044,4.156.137,4.73.2a1.961,1.961,0,0,1,1.624,1.2,5.653,5.653,0,0,1,.47,2.307,26.237,26.237,0,0,1,.092,2.913,22.559,22.559,0,0,1-.248,3.442A2.952,2.952,0,0,1,28.49,30.6a2.073,2.073,0,0,1-1.281.423c-.171.01-.386.024-.48.031-.33.026-2.1.1-3.074.125C22.212,31.219,19.686,31.233,18.312,31.209ZM16.53,18.065c-.024-.04-.02-2.368,0-2.7a3.646,3.646,0,0,0-.342-1.606c-.1-.276-.275-.811-.394-1.188-.855-2.729-.81-2.569-.728-2.57.563,0,1.259,0,1.267.007s.188.671.406,1.481.4,1.482.406,1.5.132-.458.285-1.047c.319-1.237.5-1.92.505-1.926A4.308,4.308,0,0,1,18.631,10l.574,0-.013.092c-.01.075-.4,1.4-.813,2.737-.044.148-.159.53-.254.85s-.209.7-.255.842l-.083.263v1.639c0,1.537,0,1.64-.049,1.652A8.255,8.255,0,0,1,16.53,18.065Zm7.421.1a.653.653,0,0,1-.563-.373c-.142-.283-.142-.282-.142-3.1V12.056h1.144l.012,2.426c.013,2.635.009,2.574.167,2.613s.3-.042.5-.245l.191-.195.007-2.3.007-2.3.572-.008.572-.007v6.024l-.078.016a8.881,8.881,0,0,1-1.03,0c-.042-.011-.049-.051-.049-.286v-.274l-.163.159a1.418,1.418,0,0,1-1.149.485Zm-2.88-1.15c.2-.15.2-.162.208-1.856a10.369,10.369,0,0,0-.036-1.719c-.054-.243-.148-.357-.332-.408a.432.432,0,0,0-.532.334,32.933,32.933,0,0,0,0,3.387.426.426,0,0,0,.691.262Zm-.448,1.149a1.614,1.614,0,0,1-1.208-.776c-.23-.42-.252-.64-.238-2.489a7.473,7.473,0,0,1,.071-1.727,1.516,1.516,0,0,1,.8-1.023,1.646,1.646,0,0,1,1.68.1,1.5,1.5,0,0,1,.646,1,9.683,9.683,0,0,1,.052,1.811c0,1.759-.008,1.861-.188,2.241a1.6,1.6,0,0,1-.971.8,2.154,2.154,0,0,1-.645.06Z" transform="translate(-1.663 -1.512)"/></g></svg>