<svg xmlns="http://www.w3.org/2000/svg" width="80.443" height="80.443" viewBox="0 0 80.443 80.443"><defs><style>.a{fill:#fff;}.b{fill:none;mix-blend-mode:multiply;isolation:isolate;}</style></defs><g transform="translate(14.479 6.033)"><g transform="translate(0)"><path class="a" d="M760.222,805.231a1.949,1.949,0,0,0-.652-.352,1.512,1.512,0,0,0,.76-.906,2.742,2.742,0,0,0,.094-.841v-1.819a2.29,2.29,0,0,0-.453-1.492,1.924,1.924,0,0,0-1.512-.574l-2.445,0a.186.186,0,0,0-.186.187v11.975a.185.185,0,0,0,.186.185H758.5a2.545,2.545,0,0,0,1.691-.555,2.309,2.309,0,0,0,.655-1.854v-2.051a2.271,2.271,0,0,0-.626-1.906m-3.174.278h.653c.855.036,1.584.126,1.849.856a2.358,2.358,0,0,1,.094.756v1.7c0,.808-.053,1.187-.38,1.444a1.635,1.635,0,0,1-.995.236h-1.221Zm2.185-2.5a1.189,1.189,0,0,1-.812,1.3,2.627,2.627,0,0,1-.762.094h-.629v-4.071h.86l.055,0c.507.017,1.032.031,1.213.489a3.482,3.482,0,0,1,.078.644V802.9c0,.03,0,.065,0,.107" transform="translate(-751.716 -743.644)"/><path class="a" d="M773.45,805.665a1.161,1.161,0,0,0,.26-.1,1.99,1.99,0,0,0,1.266-1.367,4.139,4.139,0,0,0,.074-.808v-1.88c0-.023,0-.052,0-.088a2.131,2.131,0,0,0-.73-1.709,2.853,2.853,0,0,0-1.81-.461H770.18a.186.186,0,0,0-.185.187v11.975a.186.186,0,0,0,.185.186h.832a.186.186,0,0,0,.185-.186v-5.65h.992l2.141,5.716a.189.189,0,0,0,.176.12h.888a.187.187,0,0,0,.186-.186.182.182,0,0,0-.031-.1Zm.343-3.918v1.864a.9.9,0,0,1-.6.979,1.988,1.988,0,0,1-.651.09H771.2v-4.341h1.376a1.544,1.544,0,0,1,.773.145c.413.234.431.758.446,1.263" transform="translate(-760.186 -743.647)"/><path class="a" d="M788.631,799.391a2.713,2.713,0,0,0-1.634-.477h-.057a2.386,2.386,0,0,0-2.411,1.568,4.491,4.491,0,0,0-.188,1.262l0,.018c0,.054,0,.094-.008.129v6.766a3.248,3.248,0,0,0,.569,2.1,2.664,2.664,0,0,0,2.01.8,2.445,2.445,0,0,0,2.262-1.124,3.126,3.126,0,0,0,.382-1.656v-6.616a3.129,3.129,0,0,0-.924-2.763m-3.114,2.311a1.592,1.592,0,0,1,.609-1.444,1.519,1.519,0,0,1,.816-.225,1.472,1.472,0,0,1,.715.168.979.979,0,0,1,.46.477,4.265,4.265,0,0,1,.267,1.933v5.834a1.972,1.972,0,0,1-.6,1.735,1.476,1.476,0,0,1-2.137-.554,4.225,4.225,0,0,1-.127-1.3V801.7Z" transform="translate(-768.755 -743.444)"/><path class="a" d="M803.418,799.391a2.713,2.713,0,0,0-1.634-.477h-.056a2.387,2.387,0,0,0-2.413,1.568,4.543,4.543,0,0,0-.188,1.262v.012c0,.057,0,.1-.007.135v6.764a3.224,3.224,0,0,0,.568,2.1,2.663,2.663,0,0,0,2.01.8,2.445,2.445,0,0,0,2.261-1.124,3.1,3.1,0,0,0,.384-1.658v-6.616a3.129,3.129,0,0,0-.924-2.763m-3.113,2.311a1.588,1.588,0,0,1,.609-1.444,1.518,1.518,0,0,1,.816-.224,1.5,1.5,0,0,1,.714.167.985.985,0,0,1,.461.477,4.256,4.256,0,0,1,.267,1.933v5.834a1.969,1.969,0,0,1-.6,1.735,1.475,1.475,0,0,1-2.137-.554,4.2,4.2,0,0,1-.126-1.3V801.7Z" transform="translate(-777.596 -743.444)"/><path class="a" d="M816.348,804.033l2.507-4.694a.187.187,0,0,0-.164-.274h-.933a.185.185,0,0,0-.166.1l-2.633,5.174v-5.089a.187.187,0,0,0-.187-.188h-.831a.188.188,0,0,0-.188.188v11.976a.188.188,0,0,0,.188.186h.816a.187.187,0,0,0,.186-.186v-4.5l.661-1.246,2.048,5.808a.185.185,0,0,0,.176.125h.9a.187.187,0,0,0,.187-.186.177.177,0,0,0-.031-.1Z" transform="translate(-786.343 -743.534)"/><path class="a" d="M831.943,810.482h-2.936V799.44a.187.187,0,0,0-.186-.187h-.829a.188.188,0,0,0-.188.187v11.976a.187.187,0,0,0,.188.185h3.951a.187.187,0,0,0,.186-.185v-.747a.187.187,0,0,0-.186-.187" transform="translate(-794.743 -743.647)"/><path class="a" d="M840.6,799.253h-.916a.185.185,0,0,0-.176.127l-1.725,5.108-1.738-5.108a.186.186,0,0,0-.176-.127h-.883a.189.189,0,0,0-.153.078.186.186,0,0,0-.022.17l2.347,6.653v5.261a.187.187,0,0,0,.187.186h.813a.188.188,0,0,0,.188-.186v-5.26l2.431-6.652a.186.186,0,0,0-.176-.25" transform="translate(-798.927 -743.647)"/><path class="a" d="M855.528,799.253h-.815a.184.184,0,0,0-.132.055.189.189,0,0,0-.055.133l.068,8.741c.008.226.012.445.018.71,0,.135,0,.273.006.41l-2.472-9.907a.187.187,0,0,0-.18-.142h-1.222a.187.187,0,0,0-.185.187v11.975a.186.186,0,0,0,.185.186h.8a.179.179,0,0,0,.132-.055.189.189,0,0,0,.054-.133l-.051-8.514V801.77l2.4,9.691a.187.187,0,0,0,.182.141h1.273a.187.187,0,0,0,.186-.186V799.44a.187.187,0,0,0-.185-.187" transform="translate(-808.346 -743.647)"/><path d="M797.075,668.124c0-.547,0-.855,0-.855V666.6l-.607-.305a59.5,59.5,0,0,0-24.8-5.289h-.658a59.535,59.535,0,0,0-24.8,5.289l-.607.305v.672s0,.307,0,.821c-.114,6.032.625,21.345,9.992,33.243,7.6,9.655,14.715,11.9,15.5,12.118l.306.088.3-.086c.306-.086,7.558-2.2,15.363-12.12,9.375-11.9,10.112-27.2,9.993-33.209" transform="translate(-745.607 -661.004)"/><path class="a" d="M787.732,702.116c9.172-11.648,9.894-26.652,9.775-32.562.007-.549.007-.853.007-.855v-.222l-.2-.1a58.319,58.319,0,0,0-24.317-5.177h-.654a58.381,58.381,0,0,0-24.316,5.177l-.2.1v.222s0,.306.006.822c-.114,5.929.61,20.951,9.777,32.6,7.408,9.416,14.273,11.579,15.032,11.793l.1.029.1-.027c.294-.082,7.279-2.125,14.893-11.795m-14.994,11.1c-.579-.163-7.356-2.249-14.638-11.506-9.595-12.188-9.638-28.147-9.566-31.905-.006-.528-.006-.826-.006-.826l.03-.015v-.032l.216-.1c.508-.233,1.644-.73,3.29-1.321a60.13,60.13,0,0,1,20.279-3.6h.647a60.107,60.107,0,0,1,20.249,3.586c1.662.6,2.811,1.1,3.323,1.332l.214.1v.034l.031.015s0,.3-.006.826c.074,3.758.036,19.717-9.565,31.905-7.3,9.275-13.944,11.353-14.5,11.506" transform="translate(-746.929 -662.316)"/><path class="a" d="M767.767,671.3c-.638.128-.948.2-1.573.34a.266.266,0,0,0-.207.263l.13,11.667c0,.775.021,1.485.052,2.123-1.576-4.031-3.219-8.2-4.893-12.428a.267.267,0,0,0-.333-.155c-.931.308-1.383.468-2.3.813a.268.268,0,0,0-.174.25v16.039a.268.268,0,0,0,.115.22.261.261,0,0,0,.152.047.269.269,0,0,0,.095-.016c.566-.214.85-.317,1.452-.526a.267.267,0,0,0,.179-.254q-.032-5.69-.063-11.381c0-1-.012-1.557-.044-2.263,1.645,4.187,3.247,8.286,4.769,12.206a.264.264,0,0,0,.313.163c.977-.241,1.454-.348,2.432-.545a.267.267,0,0,0,.214-.262V671.566a.266.266,0,0,0-.1-.207.263.263,0,0,0-.222-.055m10.619-1.15a58.613,58.613,0,0,0-8.306.732.266.266,0,0,0-.226.263v16.039a.268.268,0,0,0,.267.267.252.252,0,0,0,.043,0,58.264,58.264,0,0,1,8.2-.724.267.267,0,0,0,.262-.267v-1a.269.269,0,0,0-.079-.191.278.278,0,0,0-.192-.077,48.64,48.64,0,0,0-6.383.459v-6.345a47.5,47.5,0,0,1,5.236-.431.268.268,0,0,0,.257-.267v-.977a.27.27,0,0,0-.081-.193.262.262,0,0,0-.2-.074,48.267,48.267,0,0,0-5.183.422v-5.641a47.573,47.573,0,0,1,6.392-.458.268.268,0,0,0,.263-.267v-1a.268.268,0,0,0-.272-.267m11.525.929a58.778,58.778,0,0,0-9.891-.956.268.268,0,0,0-.27.267v1.022a.267.267,0,0,0,.264.267c1.549.017,2.346.052,3.813.169v14.793a.266.266,0,0,0,.245.266c.646.053.963.084,1.612.154l.029,0a.269.269,0,0,0,.179-.068.265.265,0,0,0,.088-.2V672.06c1.472.164,2.281.287,3.832.571a.266.266,0,0,0,.316-.262v-1.022a.267.267,0,0,0-.219-.263m6.867,9.565c-3.412-3.527-3.8-4.1-3.8-5.549,0-1.435.629-1.629,1.243-1.629a4.363,4.363,0,0,1,1.169.2c2.467.709,2.467,2.055,2.467,3.053v1.432a.268.268,0,0,0,.181.253c.6.2.895.308,1.518.539a.265.265,0,0,0,.359-.251v-1.2c0-1.511,0-4.04-4.411-5.306-3.085-.885-4.659.061-4.659,2.738,0,2.224,1.363,3.555,3.62,5.76l.456.446c2.68,2.627,3.222,3.5,3.222,5.158a2.24,2.24,0,0,1-.276,1.277,1.067,1.067,0,0,1-.953.389,5.085,5.085,0,0,1-1.346-.233,5.3,5.3,0,0,1-2.528-1.369c-.616-.694-.616-1.284-.616-2.458v-1.271a.267.267,0,0,0-.208-.261c-.659-.148-.974-.215-1.608-.339a.268.268,0,0,0-.318.262v2.249c0,2.115,1.73,3.727,5,4.661a8.919,8.919,0,0,0,2.375.4c2.565,0,2.565-2.067,2.565-2.95,0-2.324-1.183-3.656-3.452-6" transform="translate(-753.297 -666.458)"/><path class="a" d="M801.829,728.105a2.439,2.439,0,0,0,.436-.613,4.655,4.655,0,0,0-.229-4.06,12,12,0,0,0-11.378-5.7c4.775.259,9.4,4.531,11.171,10.372m-15.611-4.74c1.152.483,2.662,1.293,4.26,2.153a37.324,37.324,0,0,0,6.894,3.2,5.583,5.583,0,0,0,3.771-.1c0-.017-.007-.035-.011-.052-.013-.065-.027-.128-.044-.193-.767-3.214-4.788-10.252-11.756-10.252-.292,0-.591.017-.889.042a11.821,11.821,0,0,0-6.412,4.574,3.312,3.312,0,0,1,1.039-.154,8.485,8.485,0,0,1,3.148.786m-1.734,9.7a18.6,18.6,0,0,0,6.465,1.232c.752,0,1.61-.043,2.7-.133a25.132,25.132,0,0,0,7.91-2.087,15,15,0,0,0-.226-2.508,3.319,3.319,0,0,1-1.786.451,13.078,13.078,0,0,1-2.963-.469,27.1,27.1,0,0,1-6.077-3.029c-1.139-.679-2.216-1.32-3.1-1.759-3.39-1.677-5.317-1.442-5.828-1.331a11.755,11.755,0,0,0-1.662,6.818c.228.326,1.386,1.765,4.574,2.815m17.881-1.445.087-.061a3.388,3.388,0,0,0,1.3-2.016,11.825,11.825,0,0,0-.362-2.875c-.009-.039-.022-.076-.032-.113a3.913,3.913,0,0,1-1.294,2.431,11.732,11.732,0,0,1,.3,2.634m.29.652-.123.089c-.065.048-.131.1-.2.146a10.552,10.552,0,0,1-.412,2.233c.377-.132.507.02.543.107,0,.012.008.025.012.037a11.763,11.763,0,0,0,1.193-3.9,2.914,2.914,0,0,1-1.009,1.292m-.457,2.96c-.011-.047-.02-.05-.046-.05a.6.6,0,0,0-.287.126c-.029.021-.062.043-.094.064s-.058.037-.083.056a10.723,10.723,0,0,1-1.143,2.2,11.9,11.9,0,0,0,1.69-2.3h-.017Zm-12.227,5.028a10.748,10.748,0,0,0,3.773-1.15c.189-.092.371-.187.555-.283.156-.081.312-.163.47-.241,1.09-.572,2.256-1.191,3.673-1.949.5-.268,1-.552,1.478-.827l.564-.314c.219-.117.425-.228.631-.354l.07-.043a11.3,11.3,0,0,0,.352-2.141,27.4,27.4,0,0,1-6.543,1.923,19.01,19.01,0,0,1-11.186-1.016,8.022,8.022,0,0,1-3.848-3.052,11.8,11.8,0,0,0,5.273,8.589l-.012-.02.339.2a4.315,4.315,0,0,0,1.011.416,7.739,7.739,0,0,0,2.256.334,9.8,9.8,0,0,0,1.145-.072m10.856-4.226c-.154.109-.31.221-.479.339-.449.312-.888.578-1.353.857-.218.131-.441.265-.672.409a24.446,24.446,0,0,1-5.555,2.711,11.937,11.937,0,0,1-1.675.4,9.564,9.564,0,0,1-1.417.109h-.089a9.868,9.868,0,0,1-1.755-.165,11.993,11.993,0,0,0,10.606-1.287,7.947,7.947,0,0,0,2.461-3.423l-.071.05" transform="translate(-766.098 -694.883)"/><path class="a" d="M808.041,736.16A4.079,4.079,0,0,0,807.014,733a3.318,3.318,0,0,0,.276-.635,4.4,4.4,0,0,0,.178-1.455l0-2.392v-.036a3.91,3.91,0,0,0-.888-2.646,3.663,3.663,0,0,0-2.84-1.122l-3.248.009a1.358,1.358,0,0,0-1.362,1.356l.031,15.713a1.328,1.328,0,0,0,.638,1.141,1.427,1.427,0,0,0,.736.206l3.3,0a4.418,4.418,0,0,0,2.97-1.014l.011-.007a4.027,4.027,0,0,0,1.234-3.23v-.013Z" transform="translate(-777.599 -699.087)"/><path d="M808.456,737.2a3.181,3.181,0,0,0-.915-2.711,2.562,2.562,0,0,0-.692-.406,2.184,2.184,0,0,0,.876-1.172,3.856,3.856,0,0,0,.134-1.2l-.008-2.5a3.189,3.189,0,0,0-.658-2.116,2.824,2.824,0,0,0-2.195-.826l-3.386.009a.394.394,0,0,0-.273.114.364.364,0,0,0-.111.268l.029,16.4a.378.378,0,0,0,.185.325.4.4,0,0,0,.214.062l3.445-.01a3.676,3.676,0,0,0,2.424-.8,3.26,3.26,0,0,0,.938-2.631Zm-2.392,4.169a2.154,2.154,0,0,1-1.293.3l-1.4,0c-.118,0-.164-.07-.164-.181,0-.956-.013-6.225-.013-6.27a.1.1,0,0,1,.113-.116l.652-.006a4.079,4.079,0,0,1,1.875.382,1.333,1.333,0,0,1,.57.7,3.207,3.207,0,0,1,.122.991l0,2.324c0,1.059-.064,1.558-.469,1.871m-1.141-8.158a3.419,3.419,0,0,1-1.02.124l-.6,0c-.1,0-.131-.046-.131-.126,0-.048-.008-5.049-.008-5.049,0-.081.031-.13.114-.138h1.008a2.767,2.767,0,0,1,1.263.226.648.648,0,0,1,.289.342,3.967,3.967,0,0,1,.112.855l.006,1.956a.982.982,0,0,0-.006.148,1.5,1.5,0,0,1-1.026,1.661" transform="translate(-778.856 -700.021)"/></g></g><rect class="b" width="80.443" height="80.443"/></svg>