<svg xmlns="http://www.w3.org/2000/svg" width="80" height="80" viewBox="0 0 80 80"><defs><style>.a{fill:#cd1141;}.b{fill:#070b0c;}.c{fill:#fff;}.d{fill:#a0a0a3;}.e{fill:none;mix-blend-mode:multiply;isolation:isolate;}</style></defs><g transform="translate(8.4 8.4)"><path class="a" d="M1097.015,1924.029a31.53,31.53,0,1,1-31.53-31.53,31.529,31.529,0,0,1,31.53,31.53" transform="translate(-1033.955 -1892.499)"/><path class="b" d="M1067.914,1956.371a29.906,29.906,0,0,1-.325-59.81c.112,0,.226,0,.338,0a29.907,29.907,0,0,1,.323,59.812l-.335,0" transform="translate(-1036.39 -1894.934)"/><g transform="translate(5.962 4.146)"><path class="c" d="M1111.878,1909.62l-1.026,1.037h-2.887l-1.037-1.037V1903.9l1.037-1.037h2.876l1.036,1.037Zm-3-5.063-.31.31v3.773l.31.31h1.052l.31-.31v-3.773l-.31-.31Z" transform="translate(-1083.396 -1902.865)"/><path class="c" d="M1157.151,1943.072l-1.377-.477-1.246-2.6.488-1.382,5.158-2.468,1.382.488,1.241,2.593-.488,1.384Zm3.273-4.891-.414-.145-3.4,1.628-.146.415.454.948.414.145,3.4-1.628.146-.414Z" transform="translate(-1111.662 -1922.662)"/><path class="c" d="M1069.7,1924.579l.029,1.458-2.011,2.07-1.467.02-4.1-3.985-.021-1.466,2.005-2.061,1.465-.021Zm-5.721-1.378.006.438,2.706,2.631.438-.006.734-.755-.006-.439-2.706-2.63-.438.006Z" transform="translate(-1056.824 -1913.502)"/><path class="c" d="M1134.218,1908.122l-3.036,7.162-1.245-.532-.329-5.081-1.773,4.189-1.36-.573,3.038-7.159,1.682.713.021,4.459,1.6-3.774Z" transform="translate(-1094.994 -1904.823)"/><path class="c" d="M1086.939,1910.347l-.346,1.21,2.171,2.143-1.513.658-2.015-1.933-.736.326,1.025,2.358-1.386.6-3.1-7.148,3.332-1.45,1.408.571Zm-3.176.709,1.228-.535c.011,0,.162-.406.162-.406l-.424-.973-.408-.161-1.228.533Z" transform="translate(-1067.989 -1905.415)"/><path class="c" d="M1151.369,1922.052l-1.012-.994-4.288,4.362-1.163-1.143,4.288-4.362-1.013-1,1.175-1.195,3.189,3.134Z" transform="translate(-1105.888 -1911.78)"/><path class="c" d="M1052.216,1938.621l-.58,1.295,5.583,2.5-.667,1.488-5.583-2.5-.579,1.295-1.529-.684,1.827-4.08Z" transform="translate(-1048.861 -1923.734)"/><path class="c" d="M1158.134,1988.475l-.77,1.463-.54-.283-.152.286-.487.926.134.414.764.4-.1-.053.418-.125.915-1.74,1.436-.431,2.338,1.229.435,1.4-1.342,2.555s-1.412.431-1.421.426l-1.17-.616.762-1.451.592.311.634-1.208-.131-.419-.615-.326-.426.129-.9,1.708-1.449.44-.005.01-2.34-1.229-.457-1.427,1.342-2.555,1.424-.41Z" transform="translate(-1111.505 -1953.456)"/><path class="c" d="M1055.591,1993.724l-1.23-.26-1.986,2.315-.761-1.463,1.786-2.147-.376-.71-2.28,1.187-.7-1.34,6.915-3.589,1.678,3.223-.472,1.445Zm-.928-3.119.619,1.188c.006.01.418.133.418.133l.941-.49.132-.417-.619-1.189Z" transform="translate(-1049.571 -1953.334)"/><path class="c" d="M1085.689,2018.658l-1.123,2.688-1.353-.562,2.99-7.194,3.29,1.368.546,1.411-1.089,2.62-1.087.578Zm.578-1.392,1.1.457c.009,0,.4-.167.4-.167l.407-.98-.163-.4-1.1-.457Z" transform="translate(-1069.284 -1968.7)"/><path class="c" d="M1112.189,2020.4l-1.419.017.068,6.116-1.631.017-.068-6.116-1.418.015-.019-1.675,4.47-.05Z" transform="translate(-1083.859 -1971.779)"/><path class="c" d="M1131.559,2020.351l-.59,1.333-2.7,1.024-1.338-.6-2.029-5.345.6-1.337,2.688-1.021,1.337.6Zm-4.6-3.67-.179.4,1.339,3.529.4.18.984-.374.18-.4-1.338-3.528-.4-.181Z" transform="translate(-1094.071 -1969.189)"/><path class="c" d="M1146.566,2006.9l.021,1.258,2.7,1.421-1.256,1.07-2.49-1.265-.609.524,1.665,1.959-1.151.979-5.038-5.943,2.767-2.353,1.514.138Zm-2.833,1.6,1.021-.868c.008-.007.036-.435.036-.435l-.687-.809-.436-.035-1.021.867Z" transform="translate(-1103.188 -1963.28)"/><path class="c" d="M1066.368,2013.673l-1.218-1.122.565-1.148-1.667-1.534-1.1.657-1.218-1.121,7.041-4.22,1.218,1.12Zm.043-3.694,1.067-2.158-2.068,1.235Z" transform="translate(-1056.583 -1963.658)"/></g><g transform="translate(15.141 14.835)"><path class="d" d="M1127.2,1987.87c.026.032.044.072.061.071.087-.005.261-.032.261-.032l.174-.075.49-.191s1.224-.583,1.227-.587.215-.114.215-.114l.111-.049.131-.089.217-.135.258-.142.332-.217.577-.406.282-.223.406-.295.37-.275.174-.128.244-.227.255-.252.408-.437.476-.458.55-.635.3-.4.106-.144.323-.4.631-.906.176-.3.425-.835.239-.455.409-.828.221-.5.24-.772s.284-1.02.437-1.553a.183.183,0,0,0-.014-.171c-.087-.123-.152-.278-.234-.416-.043-.073-.1-.145-.144-.2s-.148-.194-.189-.243a.963.963,0,0,0-.154-.138,4.488,4.488,0,0,0-.359-.328,1.25,1.25,0,0,1-.147-.1,5.092,5.092,0,0,0-1.084-.647c-.164-.071-.333-.131-.5-.189a3.484,3.484,0,0,0-.436-.108.232.232,0,0,0-.183.023c-.054.036-.056.119-.066.2-.022.212-.031.446-.049.659s-.035.442-.053.664c-.016.2-.026.4-.052.6-.031.263-.067.526-.117.786-.092.487-.2.972-.3,1.458a2.127,2.127,0,0,1-.1.4,3.005,3.005,0,0,0-.194.637,9.03,9.03,0,0,1-.416,1.332,5.392,5.392,0,0,1-.458,1.043.362.362,0,0,0-.031.069c-.1.225-.186.451-.289.673-.065.144-.157.276-.218.421a3.422,3.422,0,0,1-.286.516c-.17.262-.349.518-.5.795a4.811,4.811,0,0,1-.347.551c-.033.045-.062.092-.093.138-.1.149-.2.3-.307.443-.214.272-.435.54-.66.8-.142.165-.3.317-.446.475l-.406.428a1.251,1.251,0,0,1-.1.081c-.081.07-.168.134-.242.21a3.787,3.787,0,0,1-.565.483,3.142,3.142,0,0,0-.261.187,3.712,3.712,0,0,1-.74.473" transform="translate(-1104.737 -1955.526)"/><path class="d" d="M1148.264,1966.636c.008,0,.012-.016.014-.036.005-.043.012-.116.012-.116l.12-1.064.071-1,0-.989,0-.155-.117-1.121s-.137-1.01-.242-1.53a.48.48,0,0,0-.3-.352.943.943,0,0,0-.158-.066c-.11-.035-.232-.088-.343-.117-.253-.063-.492-.146-.749-.19-.3-.052-.609-.084-.915-.111-.25-.023-.5-.032-.755-.035-.2,0-.322-.006-.523-.006-.108,0-.223,0-.271.069s-.014.188,0,.307c.038.245.08.368.121.61a16.94,16.94,0,0,1,.277,2.172c.012.328.032.657.046.985,0,.094,0,.155.005.249a.334.334,0,0,0,.04.158c.029.046.075.053.129.07s.123.026.185.04.179.04.259.065c.292.094.6.2.885.313a6.334,6.334,0,0,1,.581.3.515.515,0,0,1,.065.043l.337.251a3.452,3.452,0,0,1,.74.65,1.022,1.022,0,0,0,.132.141c.08.07.214.323.31.437a.062.062,0,0,0,.041.026" transform="translate(-1114.864 -1947.385)"/><path class="d" d="M1105.355,1936.126c.1-.007.19-.009.267-.019.057-.007.111-.01.137-.069s-.022-.124-.035-.152c-.022-.049-.214-.388-.214-.388l-.187-.291-.789-1.139-.164-.193-.153-.207-.259-.286-.64-.7-.274-.27-.99-.916-.813-.626-.292-.155-.952-.582-.667-.361-.129-.053-.542-.2-.806-.3-.063-.015-.258-.064-.07-.011-.226-.058-.479-.089-.229-.008-.427-.079-.512-.033-.178-.022-.321-.005-.537.016-.531.059-.41.01-.364.041-.372.075-.282.087-.459.089-.1,0-.427.153-.253.07-.154.094-.373.1-.18.1-.225.086-.553.232-.7.274-.232.111-.493.266-.427.281-.4.207-.146.084-.438.232-.07.046-.5.39-.412.279-.081.053-.467.369-.171.141a2.455,2.455,0,0,0-.258.245l.177-.052s.321-.119.327-.116.062,0,.062,0l.463-.187h.068l.506-.2s.265-.087.265-.081.27-.1.27-.1l.377-.134.91-.35.083,0,.467-.162.37-.153.052.039.716.017.456.035.014.01.919.071.009-.007,1.271.067.006.031.451.387h.033l.459.443.042-.021.632.019.031-.023,1.588.093.01.036.707.41.031-.005,1.25.608.009.066.709-.276,1.038.35.176.287.38.025.367.414.038,0,.295.336,0,.022h.041l.82.187.3.465.758.276s.812.207,1.228.26a6.322,6.322,0,0,0,1.1.009" transform="translate(-1079.457 -1928.836)"/><path class="d" d="M1145.328,1949.682a3.808,3.808,0,0,0-.11-.366l-.047-.131-.042-.16-.135-.4-.123-.35-.39-.867-.176-.426-.222-.492-.266-.436-.062-.125-.177-.358-.165-.268-.069-.093-1.134-1.536-.165-.2c-.026-.034-.036-.06-.071-.06h-.008a8.226,8.226,0,0,1-.5.734c-.145.16-.437.428-.437.428s-.246.2-.288.233-.23.156-.23.156l-.258.148s-.2.092-.228.1a.2.2,0,0,0-.088.052.094.094,0,0,0-.019.089.554.554,0,0,0,.034.1c.1.22.2.444.314.658.172.318.282.66.425.991.047.108.1.22.133.332.1.293.187.587.281.88.04.131.084.26.121.391s.067.264.1.4a.156.156,0,0,0,.17.125c.085,0,.171-.005.256-.008.3-.009.608-.019.912-.023.087,0,.695.054.695.054s.218.022.322.04c.231.042.461.094.692.142a2.767,2.767,0,0,1,.572.189,2.129,2.129,0,0,0,.278.094.287.287,0,0,0,.085.011.069.069,0,0,0,.017-.052" transform="translate(-1112.365 -1937.586)"/><path class="d" d="M1129.6,1934.415a.842.842,0,0,0-.09-.167l-.058-.1-.164-.189-.111-.16-.206-.2s-.046-.039-.069-.057c-.362-.295-1.085-.88-1.087-.881s-.2-.16-.2-.16l-.375-.328-1.88-1.128-1.483-.7s-.787-.308-.788-.306-.285-.1-.289-.1-.969-.334-.969-.334l-.684-.174-.664-.143-.1-.009-.06.058.026.029s.067.033.1.047c.206.081.414.157.618.24.135.053.263.125.4.166a1.114,1.114,0,0,1,.271.111c.315.183.63.365.942.552a3.019,3.019,0,0,1,.52.392,2.048,2.048,0,0,0,.4.3,1.247,1.247,0,0,1,.18.146c.032.026.064.054.1.081a5.328,5.328,0,0,1,.547.46c.174.188.358.366.542.545a5.173,5.173,0,0,1,.5.531,4.684,4.684,0,0,0,.391.459c.273.27.481.591.729.878a1.288,1.288,0,0,1,.076.12,6.767,6.767,0,0,0,.5.748,2.432,2.432,0,0,1,.346.523,2.415,2.415,0,0,0,.2.324.2.2,0,0,0,.15.089.455.455,0,0,0,.106-.034l.133-.053.235-.105a1.22,1.22,0,0,0,.219-.131c.042-.039.219-.16.319-.252s.3-.328.3-.328l.144-.194.251-.417a.34.34,0,0,0,.04-.138" transform="translate(-1100.608 -1929.096)"/><path class="d" d="M1099.247,1949.639c-.1-.313-.182-.609-.293-.919a8,8,0,0,0-.279-.756,4.22,4.22,0,0,1-.163-.456c-.029-.077-.068-.149-.094-.225a8.538,8.538,0,0,0-.514-1.085c-.009-.02-.018-.039-.036-.071a.187.187,0,0,0-.08-.092c-.047-.027-.086-.01-.171,0-.162.019-.364.04-.448.04s-.392.024-.644.044l-.059-.018h-.308l-.811-.1c-.3-.044-.976-.215-.976-.215l-.5-.171-.614-.211-.048.026-.954-.076-.031.018-.536-.41-.062,0-.336-.3-.012-.061-.373-.057-.035.016-.307-.105-.034-.032-.7.051-.636-.259-2.206.116-.035-.022-.417.031-.044.033-1.086.082-.031-.027-1.549.894-.018.067-.072.064-.035-.026-.778-.073-.042.019-1.377.008-.029-.014-.392-.013-.12-.07-1.443,1.116-.005.027-.506.4-.566-.267-.033.016-.209-.063s-1.04.265-1.029.272-.972-.154-.972-.154l-.068-.055-.183.189-.388.186-.011.033-.776.592-1.1.794-1.239.922-.559.406-.028.239-.235.544-.1.468-.156.947-.091.409-.034.491-.135,1.023-.058,2.239.06.131.041.616s.009.107.034.112l0,0,2.744-2.838.9-.362.757-.04.457-.524.044-.1.056.026,1.235-.139.054-.04h.461l.07.028.148-.2.553-.342.593-.406,1.663.022.012.036.652.059.509-.1.933-.951h.018l.741-.705,1.113-.142.044-.03.049.048.578.273.041-.039.513-.061.025-.029.479-.08.044-.026.523.446.029-.034,1.073-.02.09-.067.863.042.047.018.133-.033.023-.04.344-.155.04,0,.4-.18.034-.034.424-.161.031-.049,1.175-.45.009-.017.206-.065.046-.046.059.064.34.167.105,0,.382.214.025-.036.117-.055.012.005.19-.089.009-.014.274-.065.7.182.149-.033.128.085.516.078.5.2.3-.022s.095.064.095.064l.074-.044s.993-.123,1.493-.164c.324-.026.646-.061.97-.093.182-.018.365-.035.548-.056.1-.012.148-.049.112-.163" transform="translate(-1071.037 -1938.059)"/><path class="d" d="M1103.478,1964.195c0-.069-.012-.114-.017-.181-.011-.192-.02-.383-.029-.576,0-.063-.012-.126-.016-.191-.016-.239-.021-.479-.045-.716-.031-.3-.074-.6-.119-.9-.035-.233-.08-.464-.122-.7s-.084-.464-.136-.7-.1-.277-.356-.248l-.064.011c-.092.019-.222.031-.316.044-.487.063-.947.09-1.435.147l-1.4.487-2.023-.053-.219-.072v.036l-.6.44-.083.008-.471.438-.026.06-1.211.162-1.1.852-.115,0-.589.347-.232.026-.231.2-.06-.048-1.127-.076-.2.22,0,.035-.974,1.063-.013.061-.037.009-1.242,1.417-.34,0-.028.035-1.019.177-.079,0a.315.315,0,0,1-.026.05l-1.679.932-.754-.089-.159.057-.752-.045-.745.8-.445.09-.252-.011-.264.111-.158-.017.008.031-.926.717-.088.018-1.446,1.123.012.068-.894,2.164.036.091-1.475.134-.485.417-.046.157.656.911.486.744.419.534.681.741s0,.052.019.055.09.01.093.014.408.137.411.139.5.157.5.157,0,.025.011.025l.05-.008.834.323.063,0,.046.055h.075c.005,0,.2.13.2.13l.348-.191h.017l.157-.1,1.265.319.927-.474,2.06-.2.844-1.358c.134-.134.374-.377.374-.377l.032,0,.3-.272a.114.114,0,0,0,0-.037l.531-.483.247-.26a.678.678,0,0,1,.063-.033c.008,0,.286-.3.286-.3l.23-.237.06-.013-.059-.21.239-.871.461-.138.017-.018.139-.031,0-.076.619-1.005.058-.025.253-.5.422-.238.056-.069.083.011s.245-.144.252-.142h.029l.455-.2.037-.053,1.513-.694.091-.01.017-.083.059-.044.156-.528.479-.206.552-.067.5-.348.717.03.072.059.034-.045,1-.447-.005-.129.24-.459.491-.131.024-.031.674-.142.258-.306.033-.008.16-.155c.006,0,.463.064.463.064l.024.016.252.036.157.018s.68-.319.964-.427c.121-.047.238-.077.35-.117.157-.056.314-.111.473-.164.08-.026.157-.047.235-.069l.317-.058.368-.062.224-.014s.109-.013.15-.02a.262.262,0,0,0,.153-.05.171.171,0,0,0,.052-.13,1.059,1.059,0,0,0,0-.125" transform="translate(-1074.543 -1947.518)"/><path class="d" d="M1121.663,1973.474a.279.279,0,0,0-.034-.19.174.174,0,0,0-.135-.053c-.035,0-.21.023-.21.023l-.293.044a.914.914,0,0,0-.1.019c-.175.043-.351.078-.523.126a4.4,4.4,0,0,0-.573.187c-.193.086-.409.154-.6.247-.069.032-.718.349-1.016.5l-.379.4-.014.087-.051-.022-.238.014-.011.019-.773.256.01.086-.081.078v.05l-.361.633-.049,0-.01.066s-.073.12-.154.257l-1.627,1.044-.036,0-.246.207-.172.686-.159.153-.635,2.348.085.264-.941.451h-.151l-.18.818-.03.028-.233.742.014.039-.1.641-.034.044.031.058-.9,1.434-.068.021-.221.347,0,.069s-.77,1.088-.771,1.085-.814.482-.814.482l.044.069c0,.007-.042.328-.042.328l.071.121-.117.036-.587.348-.064-.013-.864.511-.1.161a2.709,2.709,0,0,0,.338.051l.56.045.381.02.444.007.205.008.334.008.333-.008,1.208-.146.718-.126.543-.147.589-.172.75-.3.055-.033.212-.119a9.1,9.1,0,0,0,.878-.526,15.435,15.435,0,0,0,1.366-1.108q.22-.208.434-.42c.137-.135.272-.272.408-.408a.257.257,0,0,0,.066-.077.928.928,0,0,1,.215-.269,1.353,1.353,0,0,0,.159-.183,2.316,2.316,0,0,1,.349-.373,2.3,2.3,0,0,0,.263-.313c.143-.2.276-.412.413-.618.181-.276.379-.543.533-.832.166-.309.33-.619.5-.923a7.137,7.137,0,0,0,.415-.8c.188-.453.385-.9.56-1.364a14.791,14.791,0,0,0,.467-1.492c.1-.377.159-.763.3-1.128a.831.831,0,0,0,.034-.15c.052-.307.1-.615.153-.923.046-.292.087-.584.129-.876.029-.2.061-.4.078-.6.022-.277.036-.554.048-.832,0-.031,0-.09,0-.09l0-.141" transform="translate(-1092.743 -1955.473)"/></g></g><rect class="e" width="80" height="80"/></svg>