<svg xmlns="http://www.w3.org/2000/svg" xmlns:xlink="http://www.w3.org/1999/xlink" width="37" height="77.525" viewBox="0 0 37 77.525"><defs><style>.a{fill:url(#a);}.b{fill:#fff;font-size:10px;font-family:EurostileExt-Reg, Eurostile Extd;}</style><linearGradient id="a" x1="3.665" y1="-1.042" x2="-1.642" y2="1.23" gradientUnits="objectBoundingBox"><stop offset="0" stop-color="#e5c323"/><stop offset="0.146" stop-color="#856c00"/><stop offset="0.466" stop-color="#dbad00"/><stop offset="0.506" stop-color="#d7aa00"/><stop offset="0.548" stop-color="#eec336"/><stop offset="0.574" stop-color="#d5a932"/><stop offset="0.593" stop-color="#f6d122"/><stop offset="0.64" stop-color="#deaf2d"/><stop offset="0.657" stop-color="#ffd100"/><stop offset="0.669" stop-color="#eccb2f"/><stop offset="0.748" stop-color="#ae8738"/><stop offset="0.802" stop-color="#9b7612"/><stop offset="1" stop-color="#736212"/></linearGradient></defs><g transform="translate(-11)"><path class="a" d="M606.937,332.006l-22.847-.089c-.006-.1-.014-.18-.014-.264a16.478,16.478,0,0,1,.02-1.994,11.5,11.5,0,0,1,.573-1.844c.664-2.212,1.353-4.416,2.033-6.623.023-.074.048-.148.082-.251l5.188.123c-1.646-7.3-2.892-14.649-4.186-22.045h2a10.286,10.286,0,1,1,2.235-.038c2.081-.025,4.162-.06,6.243-.073s4.163,0,6.281,0l-1.994,22.354.073-.035a2.673,2.673,0,0,1,.321.41c1.264,2.473,2.511,4.956,3.794,7.42a1.808,1.808,0,0,1,.2.9C606.932,330.629,606.937,331.3,606.937,332.006Z" transform="translate(-566.747 -278.752)"/><text class="b" transform="translate(48 74.525)"><tspan x="-36.28" y="0">2019</tspan></text></g></svg>