<svg xmlns="http://www.w3.org/2000/svg" width="114" height="255.896" viewBox="0 0 114 255.896"><defs><style>.a{fill:#fff;}.b{fill:#0067ab;}.c{fill:#da3653;}</style></defs><path class="a" d="M930.307,163A27.308,27.308,0,0,0,903,190.226V391.655A27.3,27.3,0,0,0,930.307,418.9h59.4a27.3,27.3,0,0,0,27.265-27.273l.033-201.4A27.284,27.284,0,0,0,989.75,163Z" transform="translate(-903 -163)"/><path class="a" d="M990.532,170.115H931.079a20.168,20.168,0,0,0-20.155,20.119V391.663a20.187,20.187,0,0,0,20.155,20.111h59.4a20.071,20.071,0,0,0,20.1-20.151V190.234a20.1,20.1,0,0,0-20.054-20.119" transform="translate(-903 -163)"/><path class="b" d="M986.776,382.526c-2.112-8.78-9.125-14.147-5.552-16.972a62.678,62.678,0,0,0-2.561-6.563c-10.873-6.272-20.245-16.414-21.8-17.9-1.874-2.065-5.132-4.177-5.755-5.868-2.643-2.395-15.511-20.621-18.4-27.3l-5.257-.736c-2.366-9.687-10.225-17.838-10.456-27.526-.109-3.7,1.655-11.556,2.287-13.109.639-1.58,3.678-4.169,3.678-4.169v-2.631c-11.359.373-8.092-.842-10.043-5.277-1.417-3.051-.445-3.681.134-5.835,1.464-6.223,6.554-15.9,8.618-20.3.68-2.226,2.87-7.519,2.87-7.519,8.456-17.27,11.625-16.025,21.644-16.932l.53-.776c10.092-.453,8.454-1.245,9.854-10.854-1.466.591-1.906-3.057-1.906-3.057-.806-5.536,1.493-4.476,2.627-4.614.205-9.048,1.136-11.954,7.764-14.478H931.075a20.166,20.166,0,0,0-20.151,20.111V391.663a20.193,20.193,0,0,0,20.151,20.119h59.457c-6.791-3.675-2.784-10.69-2.586-24.012-3.209-2.865-1.044-4.054-1.17-5.244" transform="translate(-903 -163)"/><path class="c" d="M975.871,211.348c1.78,1.092,2.694,1.942,4.548,3.084,4.832,3.108,10.809,8.513,10.064,27.21,1.332,4.1,1.979,12.115,3.237,14.648,2.505,5.033,4.2,8.279,4.908,12.99,0,0,.737,7.4,1.668,7.873,5.062,1.15,3.568,1.651,4.3,2.558.781.97,3.715.932,3.715,3.634a16.5,16.5,0,0,1,2.278,4.209V190.226a20.092,20.092,0,0,0-20.054-20.111H971.347c3.031,1.117,4.791,2.436,5.835,4.5,2.42.2,5.385,5.762.818,13.937,1.982,1.416.417,3.4-.975,5.778-.45.728-.932,2.087-2.291,2.008-1.8,3.664-3.877,7.266-5.434,7.437a2.652,2.652,0,0,0-.135,2.945,25.854,25.854,0,0,1,6.625,3.82Z" transform="translate(-903 -163)"/><path class="c" d="M993.951,312.027a17.93,17.93,0,0,1-4.261-35.359c-2.064-5.163-6.431-13.556-7.684-16.267-1.275-2.743-4.176-19.811-4.824-23.162-.13-.754-7.729,4.411-7.806,4.735-.4.42-5.632,14.129-5.851,14.842l-.2,2.314s2.634.323,4.095,4.816c1.509,4.492,6.009,20.952,6.009,20.952l-1.336,1.1c5.735,18.98,3.731,27.137,6.224,32.656,3.258,7.835,4.119,6.846,6.8,13.426,2.015,4.791,4.172,23.633,4.924,24.523,3.043,3.869,4.739,6.879,4.739,9.089s-2.65,8.682-1.7,12.463c.6,2.242.863,7.228,1.9,8.108,0,0,.927,1.9.514,2.792l-.324,1.022c1.7,5.98,7.174,16.112-1.643,21.388h.158a19.882,19.882,0,0,0,16.9-19.8V300.7a17.831,17.831,0,0,1-16.64,11.322" transform="translate(-903 -163)"/><path class="a" d="M933.556,367.723v17.765h-.133l-.15-1.213-4.783-16.552h-6.827V397.79h6.026v-18.6h.04l.182,1.06,4.864,17.539h6.79V367.723Z" transform="translate(-903 -163)"/><path class="a" d="M955.452,381.951v-.057c3.322-1.166,3.82-3.934,3.82-7.072,0-5.173-2.477-7.091-7.543-7.091H941.9V397.8h10.08c6.163,0,8.02-3.868,8.02-8.878,0-3.852-1.161-6.37-4.548-6.969m-6.357-9.121h2.136c1.7,0,2.174,1.174,2.174,3.286,0,1.877-.232,3.495-2.412,3.495h-1.9Zm2.015,19.877h-2.015v-8.165h2.173c2.137,0,2.427,1.973,2.427,4.029,0,3-.29,4.136-2.585,4.136" transform="translate(-903 -163)"/><path class="a" d="M974.94,367.731h-9.19L960.182,397.8h6.911l.729-6.6H972.7l.606,6.6h7.3Zm-6.406,18.761,1.733-13.509.048-.727h.093l.008.727,1.566,13.509Z" transform="translate(-903 -163)"/></svg>