<svg id="logo-core" xmlns="http://www.w3.org/2000/svg" width="150" height="32.094" viewBox="0 0 150 32.094">
  <g id="Home-Page-V2">
    <g id="Group-40">
      <g id="Group-9">
        <path id="Combined-Shape" d="M227.616,49.658q5.425,0,5.425-5.345V35.76q0-5.345-5.425-5.345H217.85q-4.34,0-4.34,5.345v8.553q0,5.345,5.425,5.345Zm1.085,6.415-10.85.021v-.021Q207,56.073,207,45.382V34.691Q207,24,217.85,24H228.7q10.851,0,10.85,10.691V45.382Q239.551,56.051,228.7,56.073Zm28.211-12.829q-10.85,0-10.85-9.622T256.912,24h21.7v6.415H258q-5.425,0-5.425,3.207T258,36.829h9.765q10.851,0,10.85,9.622t-10.85,9.622h-21.7V49.658h20.616q5.425,0,5.425-3.207t-5.425-3.207Zm27.507-12.825V24h21.935q10.968,0,10.968,10.7V45.4q0,10.7-10.968,10.7H284.419V49.675h21.014q5.264,0,5.264-5.071V35.468q0-5.049-5.242-5.049ZM346.032,24Q357,24,357,33.628q0,5.349-3.29,6.419,3.29,1.07,3.29,6.419,0,9.628-10.968,9.628H324.1V24Zm0,19.256H330.677v6.419h14.258q5.484,0,5.484-3.209T346.032,43.256Zm0-6.419q4.387,0,4.387-3.209t-5.484-3.209H330.677v6.419Z" transform="translate(-207 -24)" fill="#fff" fill-rule="evenodd"/>
      </g>
    </g>
  </g>
</svg>
