<svg xmlns="http://www.w3.org/2000/svg" viewBox="0 0 272.09 87.14"><defs><style>.cls-1{fill:#221a4d;fill-rule:evenodd;}.cls-2{isolation:isolate;}.cls-3{fill:#5622e6;}.cls-4{fill:none;stroke:#5622e6;stroke-width:1.41px;}</style></defs><g id="Layer_2" data-name="Layer 2"><g id="Layer_1-2" data-name="Layer 1"><g id="Group_4746" data-name="Group 4746"><g id="approved-_" data-name="approved- "><g id="Home-Page-V2"><g id="Group-40"><g id="Group-9"><path id="Combined-Shape" class="cls-1" d="M37.39,46.31q9.84,0,9.84-9.65V21.23q0-9.66-9.84-9.65H19.68q-7.87,0-7.87,9.65V36.66q0,9.65,9.84,9.65Zm2,11.58-19.68,0v0Q0,57.89,0,38.59V19.3Q0,0,19.68,0H39.36Q59,0,59,19.3V38.59q0,19.26-19.68,19.3ZM90.54,34.73q-19.7,0-19.69-17.36T90.54,0H129.9V11.58H92.5q-9.84,0-9.84,5.79t9.84,5.8h17.72q19.68,0,19.68,17.36T110.22,57.89H70.85V46.31h37.4q9.84,0,9.85-5.79t-9.85-5.8Zm49.89-23.14V0h39.79q19.89,0,19.9,19.31V38.62q0,19.31-19.9,19.31H140.43V46.34h38.12q9.54,0,9.55-9.15V20.7q0-9.12-9.51-9.11ZM252.19,0q19.89,0,19.9,17.38,0,9.66-6,11.59,6,1.94,6,11.59,0,17.38-19.9,17.38H212.4V0Zm0,34.76H224.34V46.34H250.2q9.94,0,9.95-5.79T252.19,34.76Zm0-11.59q8,0,8-5.8t-9.95-5.78H224.34V23.18Z"/></g></g></g></g><g id="ELITE" class="cls-2"><g class="cls-2"><path class="cls-3" d="M63.42,72.29H77.5v1.42H65.12v4.73H77.05v1.33H65.12V85H77.6v1.42H63.42Z"/><path class="cls-3" d="M100.07,72.29h1.7V85H113v1.42H100.07Z"/><path class="cls-3" d="M134.67,72.29h1.69V86.43h-1.69Z"/><path class="cls-3" d="M165.3,73.71h-7.19V72.29h16v1.42H167V86.43h-1.7Z"/><path class="cls-3" d="M195.91,72.29H210v1.42H197.61v4.73h11.93v1.33H197.61V85h12.48v1.42H195.91Z"/></g><g class="cls-2"><path class="cls-4" d="M63.42,72.29H77.5v1.42H65.12v4.73H77.05v1.33H65.12V85H77.6v1.42H63.42Z"/><path class="cls-4" d="M100.07,72.29h1.7V85H113v1.42H100.07Z"/><path class="cls-4" d="M134.67,72.29h1.69V86.43h-1.69Z"/><path class="cls-4" d="M165.3,73.71h-7.19V72.29h16v1.42H167V86.43h-1.7Z"/><path class="cls-4" d="M195.91,72.29H210v1.42H197.61v4.73h11.93v1.33H197.61V85h12.48v1.42H195.91Z"/></g></g></g></g></g></svg>